<?xml version="1.0" encoding="UTF-8" standalone="no"?>
<!-- Created with Inkscape (http://www.inkscape.org/) -->

<svg
   xmlns:dc="http://purl.org/dc/elements/1.1/"
   xmlns:cc="http://creativecommons.org/ns#"
   xmlns:rdf="http://www.w3.org/1999/02/22-rdf-syntax-ns#"
   xmlns:svg="http://www.w3.org/2000/svg"
   xmlns="http://www.w3.org/2000/svg"
   xmlns:sodipodi="http://sodipodi.sourceforge.net/DTD/sodipodi-0.dtd"
   xmlns:inkscape="http://www.inkscape.org/namespaces/inkscape"
   width="112.07594mm"
   height="112.07593mm"
   viewBox="0 0 112.07594 112.07593"
   version="1.1"
   id="svg19053"
   sodipodi:docname="fem_pro_2.svg"
   inkscape:version="0.92.3 (unknown)">
  <sodipodi:namedview
     pagecolor="#ffffff"
     bordercolor="#666666"
     borderopacity="1"
     objecttolerance="10"
     gridtolerance="10"
     guidetolerance="10"
     inkscape:pageopacity="0"
     inkscape:pageshadow="2"
     inkscape:window-width="1920"
     inkscape:window-height="1023"
     id="namedview29025"
     showgrid="false"
     inkscape:zoom="0.9356589"
     inkscape:cx="-244.56289"
     inkscape:cy="-10.874469"
     inkscape:window-x="0"
     inkscape:window-y="27"
     inkscape:window-maximized="1"
     inkscape:current-layer="layer5"
     showguides="true"
     inkscape:guide-bbox="true" />
  <defs
     id="defs19047" />
  <metadata
     id="metadata19050">
    <rdf:RDF>
      <cc:Work
         rdf:about="">
        <dc:format>image/svg+xml</dc:format>
        <dc:type
           rdf:resource="http://purl.org/dc/dcmitype/StillImage" />
        <dc:title />
      </cc:Work>
    </rdf:RDF>
  </metadata>
  <g
     inkscape:groupmode="layer"
     id="layer4"
     inkscape:label="ignore"
     style="display:inline"
     sodipodi:insensitive="true">
    <g
       inkscape:groupmode="layer"
       id="layer6"
       inkscape:label="bg 1">
      <rect
         style="display:inline;opacity:1;vector-effect:none;fill:#e6e6e6;fill-opacity:1;stroke:none;stroke-width:0.39687499;stroke-linecap:round;stroke-linejoin:round;stroke-miterlimit:4;stroke-dasharray:none;stroke-dashoffset:0;stroke-opacity:1"
         id="rect67"
         width="107.98977"
         height="106.73225"
         x="1.6504986"
         y="1.4925177" />
    </g>
    <g
       inkscape:label="bg"
       inkscape:groupmode="layer"
       id="layer1"
       style="display:inline">
      <path
         style="opacity:1;vector-effect:none;fill:#c8b7b7;fill-opacity:1;stroke:#000000;stroke-width:0.1;stroke-linecap:round;stroke-linejoin:round;stroke-miterlimit:4;stroke-dasharray:none;stroke-dashoffset:0;stroke-opacity:1"
         d="m 235.83203,229.4043 c -1.6728,0.46339 -3.3024,0.85916 -4.85937,1.17578 -2.55787,2.08659 -10.17503,3.59955 -19.17578,3.59961 -9.00077,-6e-5 -16.61792,-1.51302 -19.17579,-3.59961 -1.55625,-0.31648 -3.18544,-0.71072 -4.85742,-1.17383 v 19.65039 c -37.73053,4.53056 -63.99077,19.86474 -64.04297,37.39648 0.0166,0.39799 0.0452,0.7958 0.0899,1.19336 h -0.0899 v 125.35743 h 80.49219 7.58399 7.58398 80.49219 V 287.64648 h -0.0898 c 0.0446,-0.39756 0.0713,-0.79537 0.0898,-1.19336 -0.0522,-17.53174 -26.3105,-32.86592 -64.04102,-37.39648 z"
         transform="scale(0.26458333)"
         id="rect23540"
         inkscape:connector-curvature="0" />
      <path
         style="opacity:1;vector-effect:none;fill:#c8b7b7;fill-opacity:1;stroke:#000000;stroke-width:1;stroke-linecap:round;stroke-linejoin:round;stroke-miterlimit:4;stroke-dasharray:none;stroke-dashoffset:0;stroke-opacity:1"
         d="m 202.32812,86.9375 c -15.79511,0 -57.01953,12.335362 -57.01953,50.80664 v 10.58398 c -3.559,0.0833 -6.42026,3.017 -6.41992,9.00391 3.5e-4,5.98613 2.86137,12.7695 6.41992,12.96485 v 10.59179 c 0,31.8402 28.62946,45.89206 47.3125,49.69141 2.55787,2.08659 10.17502,3.59955 19.17579,3.59961 9.00076,-6e-5 16.61791,-1.51302 19.17578,-3.59961 18.68304,-3.79935 47.3125,-17.85121 47.3125,-49.69141 v -10.59179 c 3.55876,-0.19481 6.42152,-6.97847 6.42187,-12.96485 3.5e-4,-5.98716 -2.86266,-8.9208 -6.42187,-9.00391 v -10.58398 c 0,-38.471278 -41.22246,-50.80664 -57.01758,-50.80664 h -9.4707 z"
         transform="scale(0.26458333)"
         id="rect23538"
         inkscape:connector-curvature="0" />
      <path
         inkscape:connector-curvature="0"
         style="opacity:1;vector-effect:none;fill:#ffffff;fill-opacity:1;stroke:none;stroke-width:0.07357386;stroke-linecap:round;stroke-linejoin:round;stroke-miterlimit:4;stroke-dasharray:none;stroke-dashoffset:0;stroke-opacity:1"
         d="M 0.47805685,0.47804646 V 111.59788 H 111.59789 V 0.47804646 Z M 56.037975,2.7678295 A 53.270417,53.270417 0 0 1 109.30863,56.037972 53.270417,53.270417 0 0 1 56.037975,109.30862 53.270417,53.270417 0 0 1 2.7678399,56.037972 53.270417,53.270417 0 0 1 56.037975,2.7678295 Z"
         id="rect855"
         inkscape:label="frame" />
    </g>
    <g
       style="display:inline"
       id="g2778"
       inkscape:groupmode="layer"
       inkscape:label="_ear_size">
      <path
         sodipodi:nodetypes="csssc"
         inkscape:label="ear_left"
         id="path2774"
         d="m 38.334661,38.854136 c -0.349442,-0.222897 -0.713749,-0.351469 -1.058139,-0.351542 -1.299026,-2.77e-4 -2.352284,1.231722 -2.352159,3.054574 1.27e-4,1.822603 1.053312,4.245964 2.352159,4.245687 0.361348,-7.7e-5 0.744637,-0.141627 1.109678,-0.385173"
         style="opacity:1;vector-effect:none;fill:none;fill-opacity:1;stroke:#000000;stroke-width:0.13229167;stroke-linecap:round;stroke-linejoin:round;stroke-miterlimit:4;stroke-dasharray:none;stroke-dashoffset:0;stroke-opacity:1"
         inkscape:connector-curvature="0" />
      <path
         inkscape:connector-curvature="0"
         style="opacity:1;vector-effect:none;fill:none;fill-opacity:1;stroke:#000000;stroke-width:0.13229167;stroke-linecap:round;stroke-linejoin:round;stroke-miterlimit:4;stroke-dasharray:none;stroke-dashoffset:0;stroke-opacity:1"
         d="m 73.563785,38.97637 c 0.401969,-0.297488 0.832449,-0.47369 1.235632,-0.473776 1.299026,-2.77e-4 2.352284,1.231722 2.352159,3.054574 -1.27e-4,1.822603 -1.053312,4.245964 -2.352159,4.245687 -0.396324,-8.5e-5 -0.819042,-0.170355 -1.21513,-0.458724"
         id="path2776"
         inkscape:label="ear_right"
         sodipodi:nodetypes="csssc" />
    </g>
    <g
       inkscape:groupmode="layer"
       id="layer2"
       inkscape:label="_cheek_low"
       style="display:inline">
      <path
         style="opacity:1;vector-effect:none;fill:none;fill-opacity:1;stroke:#000000;stroke-width:0.5;stroke-linecap:round;stroke-linejoin:round;stroke-miterlimit:4;stroke-dasharray:none;stroke-dashoffset:0;stroke-opacity:1"
         d="m 202.32812,86.9375 c -15.7951,0 -57.01953,12.335363 -57.01953,50.80664 0,5.46031 0.2884,10.20841 0.77539,14.41016 -0.2651,0.007 -0.52928,0.0304 -0.79101,0.0898 -3.5418,0.80423 -5.7631,4.32211 -4.41602,10.24609 1.3469,5.92317 5.75012,12.00709 9.29102,11.20118 0.42589,-0.0969 0.82473,-0.26411 1.19726,-0.48829 2.50227,6.12174 5.18386,10.67648 6.7793,15.9004 9.15599,29.97926 25.51723,38.89898 38.0957,41.51953 3.04539,1.73563 8.86645,2.91208 15.55665,2.91211 6.69018,-3e-5 12.51125,-1.17648 15.55664,-2.91211 12.57903,-2.62055 28.94168,-11.54027 38.09765,-41.51953 1.58467,-5.18862 4.24316,-9.71213 6.73047,-15.77149 0.30073,0.15457 0.61228,0.28358 0.94531,0.35938 3.5409,0.80591 7.94412,-5.27801 9.29102,-11.20118 1.34708,-5.92398 -0.87422,-9.44186 -4.41602,-10.24609 -0.16376,-0.0372 -0.32887,-0.054 -0.49414,-0.0703 0.48828,-4.2065 0.77735,-8.96098 0.77735,-14.42969 0,-38.471277 -41.22244,-50.80664 -57.01758,-50.80664 h -9.4707 z"
         transform="scale(0.26458333)"
         id="rect23538-3"
         inkscape:connector-curvature="0" />
    </g>
    <g
       inkscape:groupmode="layer"
       id="layer3"
       inkscape:label="_cheek_high"
       style="display:inline">
      <path
         style="opacity:1;vector-effect:none;fill:none;fill-opacity:1;stroke:#000000;stroke-width:0.5;stroke-linecap:round;stroke-linejoin:round;stroke-miterlimit:4;stroke-dasharray:none;stroke-dashoffset:0;stroke-opacity:1"
         d="m 202.32812,86.9375 c -15.7951,0 -57.01953,12.335363 -57.01953,50.80664 0,1.38786 0.11165,4.68722 -0.16211,9.0293 -3.14184,-0.50671 -6.34888,1.50167 -8.08789,6.70508 -1.92541,5.76115 -1.32333,13.24608 2.1211,14.39648 0.46979,0.1569 0.95798,0.2169 1.45312,0.19922 -0.28148,0.70751 -0.56688,1.41501 -0.88281,2.11914 -15.10484,33.66545 7.0226,55.14848 44.32422,60.29297 2.25899,3.26438 18.0103,5.26168 27.72266,5.26172 9.68698,-4e-5 24.26231,-2.25274 27.63867,-5.25 37.35387,-5.1232 59.52471,-26.61325 44.4082,-60.30469 -0.31619,-0.70473 -0.60308,-1.41298 -0.88477,-2.12109 0.49587,0.0179 0.98463,-0.0401 1.45508,-0.19727 3.44443,-1.1504 4.04651,-8.63533 2.1211,-14.39648 -1.73917,-5.20388 -4.94577,-7.2123 -8.08789,-6.70508 -0.27376,-4.34217 -0.16211,-7.64144 -0.16211,-9.0293 0,-38.471277 -41.22248,-50.80664 -57.01758,-50.80664 h -9.4707 z"
         transform="scale(0.26458333)"
         id="rect23538-6"
         inkscape:connector-curvature="0" />
    </g>
    <g
       style="display:inline"
       id="g2830"
       inkscape:groupmode="layer"
       inkscape:label="_chin">
      <path
         inkscape:label="chin"
         inkscape:connector-curvature="0"
         sodipodi:nodetypes="ccc"
         id="path2822"
         d="m 50.721419,60.269043 c -3e-6,1.02472 2.876644,3.793327 5.31654,2.384653 2.56882,1.483109 5.316538,-1.359933 5.316535,-2.384653"
         style="opacity:1;vector-effect:none;fill:none;fill-opacity:1;stroke:#000000;stroke-width:0.13229167;stroke-linecap:round;stroke-linejoin:round;stroke-miterlimit:4;stroke-dasharray:none;stroke-dashoffset:0;stroke-opacity:1" />
      <path
         inkscape:label="frame"
         id="path2824"
         d="M 0.47805685,0.47804646 V 111.59788 H 111.59789 V 0.47804646 Z M 56.037975,2.7678295 A 53.270417,53.270417 0 0 1 109.30863,56.037972 53.270417,53.270417 0 0 1 56.037975,109.30862 53.270417,53.270417 0 0 1 2.7678399,56.037972 53.270417,53.270417 0 0 1 56.037975,2.7678295 Z"
         style="opacity:1;vector-effect:none;fill:#000000;fill-opacity:1;stroke:none;stroke-width:0.07357386;stroke-linecap:round;stroke-linejoin:round;stroke-miterlimit:4;stroke-dasharray:none;stroke-dashoffset:0;stroke-opacity:1"
         inkscape:connector-curvature="0" />
    </g>
  </g>
  <g
     inkscape:groupmode="layer"
     id="layer5"
     inkscape:label="default"
     style="display:inline">
    <path
       style="display:inline;opacity:1;vector-effect:none;fill:#ffffff;fill-opacity:1;stroke:none;stroke-width:0.02638366;stroke-linecap:round;stroke-linejoin:round;stroke-miterlimit:4;stroke-dasharray:none;stroke-dashoffset:0;stroke-opacity:1"
       d="m 49.734948,64.405888 c -1.003615,0 -1.104842,0.137459 -1.104842,0.137459 l -1.609203,1.404048 c 0.0064,0.05516 0.01413,0.110681 0.02066,0.165881 -3.969171,0.720582 -7.338015,1.913297 -9.81904,3.417363 -2.856838,1.731888 -4.556069,3.893497 -4.563027,6.230628 -5.9e-5,0.0026 -5.9e-5,0.0052 0,0.0078 0.0028,0.07621 0.01146,0.154102 0.01757,0.231511 -0.0114,0.02389 -0.0173,0.04958 -0.01757,0.07596 l -0.464056,18.365288 -0.983919,-0.120407 0.112138,0.08578 0.597898,3.146063 -0.373621,4.862748 10.653096,-0.12505 v 7.6181 h 13.881326 13.881841 v -7.61246 l 10.533207,-0.0181 0.05788,-2.35076 0.541568,-4.627108 -1.180807,0.0057 -0.41031,-19.229835 c -2.65e-4,-0.02638 -0.0058,-0.0526 -0.01757,-0.07648 0.0071,-0.07743 0.01429,-0.155582 0.01757,-0.230994 4.2e-5,-0.0026 4.2e-5,-0.0052 0,-0.0078 -0.0071,-2.337136 -1.706721,-4.49874 -4.563547,-6.230628 -2.481368,-1.50427 -5.850723,-2.697332 -9.820587,-3.41788 0.0065,-0.05503 0.01426,-0.110373 0.02066,-0.165364 l -1.609719,-1.404565 c -0.0028,0.0063 -0.006,0.0123 -0.0088,0.0186 l -0.02119,-0.0181 c 0,0 -0.101213,-0.137459 -1.104844,-0.137459 l -0.0072,1.488281 0.425815,0.04496 c -0.749778,1.293641 -0.620255,3.896929 -1.654646,6.552676 -1.232228,3.163685 -3.672621,6.401815 -5.080344,7.589097 -1.460173,-1.231514 -3.951058,-4.66756 -5.21743,-7.939598 -0.980335,-2.532981 -0.802748,-4.967675 -1.519626,-6.205276 l 0.397907,-0.04186 z"
       id="path844"
       class="col_1"
       inkscape:connector-curvature="0"
       inkscape:label="shirt"
       sodipodi:nodetypes="ccccccccccccccccccccccccccccccccccccscsccc" />
    <path
       style="display:inline;opacity:0.2;vector-effect:none;fill:#000000;fill-opacity:1;stroke:none;stroke-width:0.06595914;stroke-linecap:butt;stroke-linejoin:miter;stroke-miterlimit:4;stroke-dasharray:none;stroke-dashoffset:0;stroke-opacity:1"
       d="m 49.734948,64.405888 c -1.003615,0 -1.104842,0.137459 -1.104842,0.137459 0.213802,0.480927 0.454044,0.943607 0.714169,1.392679 l 0.397907,-0.04186 z m 12.662792,0 -0.0072,1.488281 0.425815,0.04496 c 0.25753,-0.444336 0.495237,-0.902214 0.707448,-1.377694 l -0.02119,-0.01809 c 0,0 -0.101216,-0.137459 -1.104844,-0.137459 z M 54.759447,80.95268 c -0.312382,-1.67e-4 -0.565739,0.252959 -0.565857,0.565341 1.19e-4,0.312381 0.253476,0.565507 0.565857,0.56534 0.312179,-1.19e-4 0.565221,-0.253161 0.56534,-0.56534 -1.18e-4,-0.31218 -0.25316,-0.565222 -0.56534,-0.565341 z m 0,4.498951 c -0.312382,-1.67e-4 -0.565739,0.252959 -0.565857,0.565341 1.2e-4,0.312381 0.253476,0.565505 0.565857,0.565338 0.312179,-1.19e-4 0.56522,-0.253159 0.56534,-0.565338 -1.18e-4,-0.31218 -0.25316,-0.565222 -0.56534,-0.565341 z m 0,4.498949 c -0.312381,-1.67e-4 -0.565738,0.252959 -0.565857,0.56534 1.18e-4,0.312382 0.253475,0.565508 0.565857,0.565341 0.31218,-1.19e-4 0.565222,-0.253161 0.56534,-0.565341 -1.19e-4,-0.312179 -0.253161,-0.565221 -0.56534,-0.56534 z m 0,4.498951 c -0.312382,-1.67e-4 -0.565739,0.252959 -0.565857,0.565341 1.19e-4,0.312381 0.253476,0.565507 0.565857,0.56534 0.312179,-1.19e-4 0.565221,-0.253161 0.56534,-0.56534 -1.18e-4,-0.31218 -0.25316,-0.565222 -0.56534,-0.565341 z m 0,4.498951 c -0.312381,-1.67e-4 -0.565737,0.252957 -0.565857,0.565338 1.19e-4,0.312381 0.253476,0.56551 0.565857,0.56534 0.312179,-1.2e-4 0.565221,-0.253161 0.56534,-0.56534 -1.2e-4,-0.312179 -0.253161,-0.565219 -0.56534,-0.565338 z m 0,4.498948 c -0.312381,-1.7e-4 -0.565738,0.25296 -0.565857,0.56534 -1.69e-4,0.31258 0.299108,0.56592 0.565857,0.56586 0.266626,-6e-5 0.565508,-0.25348 0.56534,-0.56586 -1.19e-4,-0.31218 -0.253161,-0.56522 -0.56534,-0.56534 z m 0,4.49895 c -0.312381,-1.7e-4 -0.565738,0.25296 -0.565857,0.56534 -1.69e-4,0.31258 0.253273,0.56603 0.565857,0.56586 0.312383,-1.2e-4 0.565508,-0.25348 0.56534,-0.56586 -1.19e-4,-0.31218 -0.253161,-0.56522 -0.56534,-0.56534 z"
       id="path959"
       inkscape:connector-curvature="0"
       sodipodi:nodetypes="cccccccccccccccccccccccccccccccccccccccaccccccc" />
    <path
       style="color:#000000;font-style:normal;font-variant:normal;font-weight:normal;font-stretch:normal;font-size:medium;line-height:normal;font-family:sans-serif;font-variant-ligatures:normal;font-variant-position:normal;font-variant-caps:normal;font-variant-numeric:normal;font-variant-alternates:normal;font-feature-settings:normal;text-indent:0;text-align:start;text-decoration:none;text-decoration-line:none;text-decoration-style:solid;text-decoration-color:#000000;letter-spacing:normal;word-spacing:normal;text-transform:none;writing-mode:lr-tb;direction:ltr;text-orientation:mixed;dominant-baseline:auto;baseline-shift:baseline;text-anchor:start;white-space:normal;shape-padding:0;clip-rule:nonzero;display:inline;overflow:visible;visibility:visible;opacity:0.2;isolation:auto;mix-blend-mode:normal;color-interpolation:sRGB;color-interpolation-filters:linearRGB;solid-color:#000000;solid-opacity:1;vector-effect:none;fill:#000000;fill-opacity:1;fill-rule:nonzero;stroke:none;stroke-width:0.1984375;stroke-linecap:round;stroke-linejoin:round;stroke-miterlimit:4;stroke-dasharray:none;stroke-dashoffset:0;stroke-opacity:1;color-rendering:auto;image-rendering:auto;shape-rendering:auto;text-rendering:auto;enable-background:accumulate"
       d="m 56.080297,80.203373 c -0.05521,8.48e-4 -0.09911,0.0466 -0.09767,0.101801 v 29.521196 c -0.0072,0.13967 0.206178,0.13967 0.198953,0 V 80.305174 c 0.0015,-0.05662 -0.04466,-0.102994 -0.101285,-0.101801 z"
       id="path1320"
       inkscape:connector-curvature="0"
       sodipodi:nodetypes="ccccccc" />
    <path
       style="color:#000000;font-style:normal;font-variant:normal;font-weight:normal;font-stretch:normal;font-size:medium;line-height:normal;font-family:sans-serif;font-variant-ligatures:normal;font-variant-position:normal;font-variant-caps:normal;font-variant-numeric:normal;font-variant-alternates:normal;font-feature-settings:normal;text-indent:0;text-align:start;text-decoration:none;text-decoration-line:none;text-decoration-style:solid;text-decoration-color:#000000;letter-spacing:normal;word-spacing:normal;text-transform:none;writing-mode:lr-tb;direction:ltr;text-orientation:mixed;dominant-baseline:auto;baseline-shift:baseline;text-anchor:start;white-space:normal;shape-padding:0;clip-rule:nonzero;display:inline;overflow:visible;visibility:visible;opacity:0.2;isolation:auto;mix-blend-mode:normal;color-interpolation:sRGB;color-interpolation-filters:linearRGB;solid-color:#000000;solid-opacity:1;vector-effect:none;fill:#000000;fill-opacity:1;fill-rule:nonzero;stroke:none;stroke-width:0.1984375;stroke-linecap:round;stroke-linejoin:round;stroke-miterlimit:4;stroke-dasharray:none;stroke-dashoffset:0;stroke-opacity:1;color-rendering:auto;image-rendering:auto;shape-rendering:auto;text-rendering:auto;enable-background:accumulate"
       d="m 64.900431,66.083819 -0.0098,0.09767 c -0.268618,2.958589 3.950041,7.719985 3.582729,9.062495 -2.270149,-0.832742 -9.828009,5.046993 -12.164635,4.713407 l -0.09767,-0.01394 -0.02739,0.195337 0.09767,0.01601 c 2.336199,0.333523 9.917234,-5.527607 12.232844,-4.683954 l 0.0956,0.03514 0.03359,-0.09767 c 0.51721,-1.596644 -3.827574,-6.193735 -3.553786,-9.209257 l 0.0083,-0.09767 z"
       id="path1318"
       inkscape:connector-curvature="0"
       sodipodi:nodetypes="ccccccccccccc" />
    <path
       style="color:#000000;font-style:normal;font-variant:normal;font-weight:normal;font-stretch:normal;font-size:medium;line-height:normal;font-family:sans-serif;font-variant-ligatures:normal;font-variant-position:normal;font-variant-caps:normal;font-variant-numeric:normal;font-variant-alternates:normal;font-feature-settings:normal;text-indent:0;text-align:start;text-decoration:none;text-decoration-line:none;text-decoration-style:solid;text-decoration-color:#000000;letter-spacing:normal;word-spacing:normal;text-transform:none;writing-mode:lr-tb;direction:ltr;text-orientation:mixed;dominant-baseline:auto;baseline-shift:baseline;text-anchor:start;white-space:normal;shape-padding:0;clip-rule:nonzero;display:inline;overflow:visible;visibility:visible;opacity:0.2;isolation:auto;mix-blend-mode:normal;color-interpolation:sRGB;color-interpolation-filters:linearRGB;solid-color:#000000;solid-opacity:1;vector-effect:none;fill:#000000;fill-opacity:1;fill-rule:nonzero;stroke:none;stroke-width:0.1984375;stroke-linecap:round;stroke-linejoin:round;stroke-miterlimit:4;stroke-dasharray:none;stroke-dashoffset:0;stroke-opacity:1;color-rendering:auto;image-rendering:auto;shape-rendering:auto;text-rendering:auto;enable-background:accumulate"
       d="m 47.259647,66.083819 -0.197403,0.01757 0.0098,0.09767 c 0.273786,3.015522 -4.182954,7.612612 -3.665746,9.209256 l 0.03152,0.09767 0.09767,-0.03514 c 2.31561,-0.843653 10.009121,5.017477 12.345318,4.683954 l 0.09767,-0.01601 -0.02739,-0.195334 -0.09974,0.01394 c -2.337194,0.333669 -9.89393,-5.54627 -12.164634,-4.713407 -0.508701,-1.607613 3.851347,-6.103905 3.582729,-9.062495 z"
       id="path279"
       inkscape:connector-curvature="0"
       sodipodi:nodetypes="ccccccccccccc" />
    <path
       style="opacity:0.2;vector-effect:none;fill:#000000;fill-opacity:1;stroke:none;stroke-width:0.1984375;stroke-linecap:round;stroke-linejoin:round;stroke-miterlimit:4;stroke-dasharray:none;stroke-dashoffset:0;stroke-opacity:1"
       d="m 42.220163,81.96037 c 0,2.666079 -2.51383,5.863719 -2.1916,8.977746 0.119949,1.159177 1.320898,2.87116 1.922365,3.66541 h -4.341339 a 0.09922867,0.09922867 0 0 0 -0.0098,0 0.09972945,0.09972945 0 0 0 0.0098,0.198954 h 4.43539 a 0.099609,0.099609 0 0 0 0.05013,-0.01344 c 0.07886,0.09999 0.195852,0.249598 0.195852,0.249598 v 5.372802 l 0.899171,-0.0331 V 81.960336 Z m 27.01437,0 v 18.418 l 0.899171,0.0331 v -4.767151 a 0.09972995,0.09972995 0 0 0 0.04392,0.0083 h 4.435907 a 0.09973469,0.09973469 0 1 0 0,-0.199469 h -4.435907 a 0.09922867,0.09922867 0 0 0 -0.0098,0 0.09972995,0.09972995 0 0 0 -0.03411,0.0078 v -0.422198 c 0,0 2.101726,-2.547835 2.262394,-4.100526 0.32223,-3.114027 -2.1916,-6.311667 -2.1916,-8.977746 z M 31.911747,97.452965 a 0.09973634,0.09973634 0 0 0 5.16e-4,0.199472 l 4.410067,0.423746 a 0.09922867,0.09922867 0 1 0 0.01964,-0.197403 l -4.410583,-0.423749 a 0.09922867,0.09922867 0 0 0 -0.0093,-0.0021 0.09972995,0.09972995 0 0 0 -5.16e-4,0 0.09972995,0.09972995 0 0 0 -0.0098,0 z m 45.394644,2.124934 a 0.09975744,0.09975744 0 0 0 0.0041,0.199472 l 3.236494,0.250109 a 0.10003674,0.10003674 0 1 0 0.0155,-0.199467 l -3.236494,-0.250114 a 0.09922867,0.09922867 0 0 0 -0.01964,0 z"
       id="path1371"
       inkscape:connector-curvature="0"
       inkscape:label="breasts_bottom" />
    <path
       style="opacity:1;vector-effect:none;fill:#ffffff;fill-opacity:1;stroke:none;stroke-width:0.1984375;stroke-linecap:round;stroke-linejoin:round;stroke-miterlimit:4;stroke-dasharray:none;stroke-dashoffset:0;stroke-opacity:1"
       d="m 43.439725,81.562463 -0.978752,0.0088 0.0093,0.389123 c 0,2.666079 -2.51383,5.863714 -2.191597,8.977746 0.160666,1.552691 2.262394,4.100526 2.262394,4.100526 v 5.372802 l 0.02584,0.38758 0.872815,-0.008 z m 25.545211,0 v 19.228797 l 0.872815,0.008 0.02636,-0.38758 v -5.372798 c 0,0 2.101209,-2.547835 2.261875,-4.100526 0.322233,-3.114032 -2.191081,-6.311667 -2.191081,-8.977746 l 0.0093,-0.389123 z"
       id="path1375"
       inkscape:connector-curvature="0"
       class="col_1"
       inkscape:label="breasts_top" />
  </g>
</svg>
