<?xml version="1.0" encoding="UTF-8" standalone="no"?>
<!-- Created with Inkscape (http://www.inkscape.org/) -->

<svg
   xmlns:dc="http://purl.org/dc/elements/1.1/"
   xmlns:cc="http://creativecommons.org/ns#"
   xmlns:rdf="http://www.w3.org/1999/02/22-rdf-syntax-ns#"
   xmlns:svg="http://www.w3.org/2000/svg"
   xmlns="http://www.w3.org/2000/svg"
   xmlns:sodipodi="http://sodipodi.sourceforge.net/DTD/sodipodi-0.dtd"
   xmlns:inkscape="http://www.inkscape.org/namespaces/inkscape"
   width="112.07594mm"
   height="112.07593mm"
   viewBox="0 0 112.07594 112.07593"
   version="1.1"
   id="svg19053"
   sodipodi:docname="fem_pro_1.svg"
   inkscape:version="0.92.3 (unknown)">
  <sodipodi:namedview
     pagecolor="#ffffff"
     bordercolor="#666666"
     borderopacity="1"
     objecttolerance="10"
     gridtolerance="10"
     guidetolerance="10"
     inkscape:pageopacity="0"
     inkscape:pageshadow="2"
     inkscape:window-width="1920"
     inkscape:window-height="1023"
     id="namedview29025"
     showgrid="false"
     inkscape:zoom="1.8713177"
     inkscape:cx="100.098"
     inkscape:cy="165.56128"
     inkscape:window-x="0"
     inkscape:window-y="27"
     inkscape:window-maximized="1"
     inkscape:current-layer="layer8" />
  <defs
     id="defs19047" />
  <metadata
     id="metadata19050">
    <rdf:RDF>
      <cc:Work
         rdf:about="">
        <dc:format>image/svg+xml</dc:format>
        <dc:type
           rdf:resource="http://purl.org/dc/dcmitype/StillImage" />
        <dc:title />
      </cc:Work>
    </rdf:RDF>
  </metadata>
  <g
     inkscape:groupmode="layer"
     id="layer4"
     inkscape:label="ignore"
     style="display:inline"
     sodipodi:insensitive="true">
    <g
       inkscape:groupmode="layer"
       id="layer6"
       inkscape:label="bg 1">
      <rect
         style="display:inline;opacity:1;vector-effect:none;fill:#e6e6e6;fill-opacity:1;stroke:none;stroke-width:0.39687499;stroke-linecap:round;stroke-linejoin:round;stroke-miterlimit:4;stroke-dasharray:none;stroke-dashoffset:0;stroke-opacity:1"
         id="rect67"
         width="107.98977"
         height="106.73225"
         x="1.6504986"
         y="1.4925177" />
    </g>
    <g
       inkscape:label="bg"
       inkscape:groupmode="layer"
       id="layer1"
       style="display:inline">
      <path
         style="opacity:1;vector-effect:none;fill:#fff6d5;fill-opacity:1;stroke:#000000;stroke-width:0.1;stroke-linecap:round;stroke-linejoin:round;stroke-miterlimit:4;stroke-dasharray:none;stroke-dashoffset:0;stroke-opacity:1"
         d="m 235.83203,229.4043 c -1.6728,0.46339 -3.3024,0.85916 -4.85937,1.17578 -2.55787,2.08659 -10.17503,3.59955 -19.17578,3.59961 -9.00077,-6e-5 -16.61792,-1.51302 -19.17579,-3.59961 -1.55625,-0.31648 -3.18544,-0.71072 -4.85742,-1.17383 v 19.65039 c -37.73053,4.53056 -63.99077,19.86474 -64.04297,37.39648 0.0166,0.39799 0.0452,0.7958 0.0899,1.19336 h -0.0899 v 125.35743 h 80.49219 7.58399 7.58398 80.49219 V 287.64648 h -0.0898 c 0.0446,-0.39756 0.0713,-0.79537 0.0898,-1.19336 -0.0522,-17.53174 -26.3105,-32.86592 -64.04102,-37.39648 z"
         transform="scale(0.26458333)"
         id="rect23540"
         inkscape:connector-curvature="0" />
      <path
         style="opacity:1;vector-effect:none;fill:#fff6d5;fill-opacity:1;stroke:#000000;stroke-width:1;stroke-linecap:round;stroke-linejoin:round;stroke-miterlimit:4;stroke-dasharray:none;stroke-dashoffset:0;stroke-opacity:1"
         d="m 202.32812,86.9375 c -15.79511,0 -57.01953,12.335362 -57.01953,50.80664 v 10.58398 c -3.559,0.0833 -6.42026,3.017 -6.41992,9.00391 3.5e-4,5.98613 2.86137,12.7695 6.41992,12.96485 v 10.59179 c 0,31.8402 28.62946,45.89206 47.3125,49.69141 2.55787,2.08659 10.17502,3.59955 19.17579,3.59961 9.00076,-6e-5 16.61791,-1.51302 19.17578,-3.59961 18.68304,-3.79935 47.3125,-17.85121 47.3125,-49.69141 v -10.59179 c 3.55876,-0.19481 6.42152,-6.97847 6.42187,-12.96485 3.5e-4,-5.98716 -2.86266,-8.9208 -6.42187,-9.00391 v -10.58398 c 0,-38.471278 -41.22246,-50.80664 -57.01758,-50.80664 h -9.4707 z"
         transform="scale(0.26458333)"
         id="rect23538"
         inkscape:connector-curvature="0" />
      <path
         inkscape:connector-curvature="0"
         style="opacity:1;vector-effect:none;fill:#ffffff;fill-opacity:1;stroke:none;stroke-width:0.07357386;stroke-linecap:round;stroke-linejoin:round;stroke-miterlimit:4;stroke-dasharray:none;stroke-dashoffset:0;stroke-opacity:1"
         d="M 0.47805685,0.47804646 V 111.59788 H 111.59789 V 0.47804646 Z M 56.037975,2.7678295 A 53.270417,53.270417 0 0 1 109.30863,56.037972 53.270417,53.270417 0 0 1 56.037975,109.30862 53.270417,53.270417 0 0 1 2.7678399,56.037972 53.270417,53.270417 0 0 1 56.037975,2.7678295 Z"
         id="rect855"
         inkscape:label="frame" />
    </g>
    <g
       style="display:inline"
       id="g2778"
       inkscape:groupmode="layer"
       inkscape:label="_ear_size">
      <path
         sodipodi:nodetypes="csssc"
         inkscape:label="ear_left"
         id="path2774"
         d="m 38.334661,38.854136 c -0.349442,-0.222897 -0.713749,-0.351469 -1.058139,-0.351542 -1.299026,-2.77e-4 -2.352284,1.231722 -2.352159,3.054574 1.27e-4,1.822603 1.053312,4.245964 2.352159,4.245687 0.361348,-7.7e-5 0.744637,-0.141627 1.109678,-0.385173"
         style="opacity:1;vector-effect:none;fill:none;fill-opacity:1;stroke:#000000;stroke-width:0.13229167;stroke-linecap:round;stroke-linejoin:round;stroke-miterlimit:4;stroke-dasharray:none;stroke-dashoffset:0;stroke-opacity:1"
         inkscape:connector-curvature="0" />
      <path
         inkscape:connector-curvature="0"
         style="opacity:1;vector-effect:none;fill:none;fill-opacity:1;stroke:#000000;stroke-width:0.13229167;stroke-linecap:round;stroke-linejoin:round;stroke-miterlimit:4;stroke-dasharray:none;stroke-dashoffset:0;stroke-opacity:1"
         d="m 73.563785,38.97637 c 0.401969,-0.297488 0.832449,-0.47369 1.235632,-0.473776 1.299026,-2.77e-4 2.352284,1.231722 2.352159,3.054574 -1.27e-4,1.822603 -1.053312,4.245964 -2.352159,4.245687 -0.396324,-8.5e-5 -0.819042,-0.170355 -1.21513,-0.458724"
         id="path2776"
         inkscape:label="ear_right"
         sodipodi:nodetypes="csssc" />
    </g>
    <g
       inkscape:groupmode="layer"
       id="layer2"
       inkscape:label="_cheek_low"
       style="display:inline">
      <path
         style="opacity:1;vector-effect:none;fill:none;fill-opacity:1;stroke:#000000;stroke-width:0.5;stroke-linecap:round;stroke-linejoin:round;stroke-miterlimit:4;stroke-dasharray:none;stroke-dashoffset:0;stroke-opacity:1"
         d="m 202.32812,86.9375 c -15.7951,0 -57.01953,12.335363 -57.01953,50.80664 0,5.46031 0.2884,10.20841 0.77539,14.41016 -0.2651,0.007 -0.52928,0.0304 -0.79101,0.0898 -3.5418,0.80423 -5.7631,4.32211 -4.41602,10.24609 1.3469,5.92317 5.75012,12.00709 9.29102,11.20118 0.42589,-0.0969 0.82473,-0.26411 1.19726,-0.48829 2.50227,6.12174 5.18386,10.67648 6.7793,15.9004 9.15599,29.97926 25.51723,38.89898 38.0957,41.51953 3.04539,1.73563 8.86645,2.91208 15.55665,2.91211 6.69018,-3e-5 12.51125,-1.17648 15.55664,-2.91211 12.57903,-2.62055 28.94168,-11.54027 38.09765,-41.51953 1.58467,-5.18862 4.24316,-9.71213 6.73047,-15.77149 0.30073,0.15457 0.61228,0.28358 0.94531,0.35938 3.5409,0.80591 7.94412,-5.27801 9.29102,-11.20118 1.34708,-5.92398 -0.87422,-9.44186 -4.41602,-10.24609 -0.16376,-0.0372 -0.32887,-0.054 -0.49414,-0.0703 0.48828,-4.2065 0.77735,-8.96098 0.77735,-14.42969 0,-38.471277 -41.22244,-50.80664 -57.01758,-50.80664 h -9.4707 z"
         transform="scale(0.26458333)"
         id="rect23538-3"
         inkscape:connector-curvature="0" />
    </g>
    <g
       inkscape:groupmode="layer"
       id="layer3"
       inkscape:label="_cheek_high"
       style="display:inline">
      <path
         style="opacity:1;vector-effect:none;fill:none;fill-opacity:1;stroke:#000000;stroke-width:0.5;stroke-linecap:round;stroke-linejoin:round;stroke-miterlimit:4;stroke-dasharray:none;stroke-dashoffset:0;stroke-opacity:1"
         d="m 202.32812,86.9375 c -15.7951,0 -57.01953,12.335363 -57.01953,50.80664 0,1.38786 0.11165,4.68722 -0.16211,9.0293 -3.14184,-0.50671 -6.34888,1.50167 -8.08789,6.70508 -1.92541,5.76115 -1.32333,13.24608 2.1211,14.39648 0.46979,0.1569 0.95798,0.2169 1.45312,0.19922 -0.28148,0.70751 -0.56688,1.41501 -0.88281,2.11914 -15.10484,33.66545 7.0226,55.14848 44.32422,60.29297 2.25899,3.26438 18.0103,5.26168 27.72266,5.26172 9.68698,-4e-5 24.26231,-2.25274 27.63867,-5.25 37.35387,-5.1232 59.52471,-26.61325 44.4082,-60.30469 -0.31619,-0.70473 -0.60308,-1.41298 -0.88477,-2.12109 0.49587,0.0179 0.98463,-0.0401 1.45508,-0.19727 3.44443,-1.1504 4.04651,-8.63533 2.1211,-14.39648 -1.73917,-5.20388 -4.94577,-7.2123 -8.08789,-6.70508 -0.27376,-4.34217 -0.16211,-7.64144 -0.16211,-9.0293 0,-38.471277 -41.22248,-50.80664 -57.01758,-50.80664 h -9.4707 z"
         transform="scale(0.26458333)"
         id="rect23538-6"
         inkscape:connector-curvature="0" />
    </g>
    <g
       style="display:inline"
       id="g2830"
       inkscape:groupmode="layer"
       inkscape:label="_chin">
      <path
         inkscape:label="chin"
         inkscape:connector-curvature="0"
         sodipodi:nodetypes="ccc"
         id="path2822"
         d="m 50.721419,60.269043 c -3e-6,1.02472 2.876644,3.793327 5.31654,2.384653 2.56882,1.483109 5.316538,-1.359933 5.316535,-2.384653"
         style="opacity:1;vector-effect:none;fill:none;fill-opacity:1;stroke:#000000;stroke-width:0.13229167;stroke-linecap:round;stroke-linejoin:round;stroke-miterlimit:4;stroke-dasharray:none;stroke-dashoffset:0;stroke-opacity:1" />
      <path
         inkscape:label="frame"
         id="path2824"
         d="M 0.47805685,0.47804646 V 111.59788 H 111.59789 V 0.47804646 Z M 56.037975,2.7678295 A 53.270417,53.270417 0 0 1 109.30863,56.037972 53.270417,53.270417 0 0 1 56.037975,109.30862 53.270417,53.270417 0 0 1 2.7678399,56.037972 53.270417,53.270417 0 0 1 56.037975,2.7678295 Z"
         style="opacity:1;vector-effect:none;fill:#000000;fill-opacity:1;stroke:none;stroke-width:0.07357386;stroke-linecap:round;stroke-linejoin:round;stroke-miterlimit:4;stroke-dasharray:none;stroke-dashoffset:0;stroke-opacity:1"
         inkscape:connector-curvature="0" />
    </g>
  </g>
  <g
     inkscape:groupmode="layer"
     id="layer5"
     inkscape:label="default"
     style="display:inline">
    <path
       style="display:inline;opacity:1;vector-effect:none;fill:#ffffff;fill-opacity:1;stroke:none;stroke-width:0.02638366;stroke-linecap:round;stroke-linejoin:round;stroke-miterlimit:4;stroke-dasharray:none;stroke-dashoffset:0;stroke-opacity:1"
       d="m 48.912359,65.816282 c -0.0085,7e-6 -0.01836,7.91e-4 -0.02733,0.0021 -4.772486,0.660487 -8.805572,1.980379 -11.662397,3.712266 -2.85684,1.731889 -4.556077,3.893434 -4.563036,6.230565 -5.7e-5,0.0026 -5.7e-5,0.0051 0,0.0077 0.0028,0.07621 0.01138,0.153961 0.0175,0.231371 -0.01139,0.02388 -0.01722,0.04988 -0.0175,0.07627 V 109.1489 c -2.56e-4,0.1023 0.08269,0.1853 0.184999,0.185 h 21.236786 1.999899 2.002475 21.236786 c 0.102327,2.6e-4 0.185298,-0.0827 0.185,-0.185 V 76.076535 c -2.71e-4,-0.02639 -0.0057,-0.05239 -0.01751,-0.07627 0.0071,-0.07743 0.01423,-0.15596 0.01751,-0.231371 4.2e-5,-0.0026 4.2e-5,-0.0051 0,-0.0077 -0.0071,-2.337136 -1.706724,-4.498679 -4.563549,-6.230568 -2.85684,-1.731887 -6.889413,-3.051779 -11.661899,-3.712262 -0.05849,-0.0081 -0.11727,0.01224 -0.158187,0.05462 -1.570809,3.102982 -4.255657,10.482487 -7.040626,12.552748 -3.821145,-2.246235 -4.989208,-10.070278 -7.038562,-12.552748 -0.03416,-0.03555 -0.08112,-0.05597 -0.130364,-0.05669 z"
       id="path844"
       inkscape:connector-curvature="0"
       sodipodi:nodetypes="ccscccccccccccccccccccccc"
       class="col_1"
       inkscape:label="shirt" />
    <path
       style="display:inline;opacity:1;vector-effect:none;fill:#4d4d4d;fill-opacity:1;stroke:none;stroke-width:0.06595914;stroke-linecap:butt;stroke-linejoin:miter;stroke-miterlimit:4;stroke-dasharray:none;stroke-dashoffset:0;stroke-opacity:1"
       d="m 45.464407,66.502917 c -2.501242,0.633375 -6.237896,1.831689 -8.557099,3.011186 1.814002,4.038907 5.293733,6.997528 5.293733,12.980603 0,0 -0.831061,2.649109 -1.17874,3.841107 -1.320059,4.525759 1.383379,7.113262 1.383379,7.113262 l -0.204639,16.459975 h 10.212298 3.669024 3.649909 10.212294 L 69.739927,93.449075 c 0,0 2.703439,-2.587503 1.383379,-7.113262 -0.347678,-1.191998 -1.17874,-3.841107 -1.17874,-3.841107 0,-5.983075 3.479732,-8.941696 5.293733,-12.980603 -2.319202,-1.179497 -6.055857,-2.377811 -8.557098,-3.011186 -2.308789,4.974024 -4.216953,6.957938 -6.948929,10.047965 v -0.521931 c -0.795465,1.161018 -1.753876,2.452841 -2.960545,4.021458 -0.228777,0.285673 -0.458295,0.573495 -0.698664,0.882634 -0.240443,-0.309234 -0.470339,-0.596879 -0.699183,-0.882634 -1.206666,-1.568617 -2.16508,-2.86044 -2.960541,-4.021458 v 0.521415 C 49.681627,73.460659 47.773058,71.476639 45.464407,66.502917 Z"
       id="path937"
       inkscape:connector-curvature="0"
       inkscape:label="pullover"
       class="col_2" />
    <path
       style="display:inline;opacity:0.3;vector-effect:none;fill:#000000;fill-opacity:1;stroke:none;stroke-width:0.08209594;stroke-linecap:butt;stroke-linejoin:miter;stroke-miterlimit:4;stroke-dasharray:none;stroke-dashoffset:0;stroke-opacity:1"
       d="m 49.285546,74.217389 6.751877,8.741275 7.354736,-9.012556 c -2.62338,3.200547 -4.199697,6.799288 -7.324593,9.856543 -2.661764,-3.098292 -4.577468,-6.376629 -6.78202,-9.585262 z"
       id="path942"
       inkscape:connector-curvature="0"
       sodipodi:nodetypes="ccccc"
       inkscape:label="detail1" />
    <path
       style="display:inline;opacity:1;vector-effect:none;fill:#ffffff;fill-opacity:1;stroke:none;stroke-width:0.06595914;stroke-linecap:butt;stroke-linejoin:miter;stroke-miterlimit:4;stroke-dasharray:none;stroke-dashoffset:0;stroke-opacity:1"
       d="m 49.734948,63.904626 c -1.003615,0 -1.153935,0.196369 -1.153935,0.196369 l -3.116606,2.401922 c 0.361275,3.103872 0.250684,8.433615 1.158586,11.719697 2.249263,-0.910526 6.764928,0.732597 9.401493,0.213424 2.636496,0.519475 7.153126,-1.124008 9.402527,-0.213424 0.907904,-3.286082 0.796795,-8.615825 1.15807,-11.719697 l -3.116606,-2.401922 c 0,0 -0.150321,-0.196369 -1.153935,-0.196369 l -0.0072,1.989543 0.397907,0.04186 C 61.074247,68.751756 58.594971,76.129948 56.02452,78.374546 53.454173,76.129652 50.975254,68.751651 49.34431,65.936029 l 0.397907,-0.04186 z"
       id="path904"
       inkscape:label="neck"
       inkscape:connector-curvature="0"
       class="col_1" />
    <path
       style="display:inline;opacity:0.2;vector-effect:none;fill:#000000;fill-opacity:1;stroke:none;stroke-width:0.06595914;stroke-linecap:butt;stroke-linejoin:miter;stroke-miterlimit:4;stroke-dasharray:none;stroke-dashoffset:0;stroke-opacity:1"
       d="m 49.734948,63.904626 c -1.003615,0 -1.153935,0.196369 -1.153935,0.196369 0.213802,0.48093 0.503137,1.385959 0.763262,1.835031 l 0.397907,-0.04186 z m 12.579594,0 -0.0072,1.989543 0.397907,0.04186 c 0.260125,-0.449072 0.54946,-1.354101 0.763262,-1.835031 0,0 -0.15032,-0.196369 -1.153935,-0.196369 z"
       id="path959"
       inkscape:label="neck_detail"
       inkscape:connector-curvature="0" />
  </g>
  <g
     inkscape:groupmode="layer"
     id="layer8"
     inkscape:label="%0.2 bling">
    <path
       style="color:#000000;font-style:normal;font-variant:normal;font-weight:normal;font-stretch:normal;font-size:medium;line-height:normal;font-family:sans-serif;font-variant-ligatures:normal;font-variant-position:normal;font-variant-caps:normal;font-variant-numeric:normal;font-variant-alternates:normal;font-feature-settings:normal;text-indent:0;text-align:start;text-decoration:none;text-decoration-line:none;text-decoration-style:solid;text-decoration-color:#000000;letter-spacing:normal;word-spacing:normal;text-transform:none;writing-mode:lr-tb;direction:ltr;text-orientation:mixed;dominant-baseline:auto;baseline-shift:baseline;text-anchor:start;white-space:normal;shape-padding:0;clip-rule:nonzero;display:inline;overflow:visible;visibility:visible;opacity:1;isolation:auto;mix-blend-mode:normal;color-interpolation:sRGB;color-interpolation-filters:linearRGB;solid-color:#000000;solid-opacity:1;vector-effect:none;fill:#ffcc00;fill-opacity:1;fill-rule:nonzero;stroke:none;stroke-width:0.26458332;stroke-linecap:round;stroke-linejoin:round;stroke-miterlimit:4;stroke-dasharray:none;stroke-dashoffset:0;stroke-opacity:1;color-rendering:auto;image-rendering:auto;shape-rendering:auto;text-rendering:auto;enable-background:accumulate"
       d="m 49.677734,65.761719 a 0.13230489,0.13230489 0 0 0 -0.121093,0.185547 c 0.921921,2.239905 3.273345,6.144938 6.394531,7.630859 a 0.13230489,0.13230489 0 0 0 0.113281,0 c 3.121186,-1.485921 5.47261,-5.390954 6.394531,-7.630859 a 0.13311349,0.13311349 0 1 0 -0.246093,-0.101563 c -0.896386,2.177863 -3.229909,6.002385 -6.205079,7.455078 -2.975169,-1.452693 -5.310645,-5.277215 -6.207031,-7.455078 a 0.13230489,0.13230489 0 0 0 -0.123047,-0.08398 z"
       id="path837"
       inkscape:connector-curvature="0" />
    <path
       style="display:inline;opacity:1;vector-effect:none;fill:#ffffff;fill-opacity:1;stroke:none;stroke-width:0.26458332;stroke-linecap:round;stroke-linejoin:round;stroke-miterlimit:4;stroke-dasharray:none;stroke-dashoffset:0;stroke-opacity:1"
       d="m 55.989862,73.317488 a 0.75996468,0.75996468 0 0 0 -0.759642,0.760161 0.75996468,0.75996468 0 0 0 0.759642,0.760159 0.75996468,0.75996468 0 0 0 0.760161,-0.760159 0.75996468,0.75996468 0 0 0 -0.760161,-0.760161 z"
       id="path841"
       class="col_3"
       inkscape:connector-curvature="0" />
  </g>
  <g
     inkscape:groupmode="layer"
     id="layer7"
     inkscape:label="boobs"
     style="display:none">
    <path
       inkscape:connector-curvature="0"
       style="display:inline;opacity:1;vector-effect:none;fill:#4d4d4d;fill-opacity:1;stroke:none;stroke-width:0.06595914;stroke-linecap:butt;stroke-linejoin:miter;stroke-miterlimit:4;stroke-dasharray:none;stroke-dashoffset:0;stroke-opacity:1"
       d="m 45.464407,66.502916 c -2.501242,0.633375 -6.237896,1.831689 -8.557099,3.011186 1.814002,4.038907 5.293733,4.351695 5.293733,10.334771 0,0 -2.947729,5.294942 -3.295407,6.48694 -1.320059,4.525759 3.500046,7.506238 3.500046,7.506238 l -0.204639,16.067009 h 10.212298 3.669024 3.649909 10.212295 l -0.20464,-16.067009 c 0,0 4.820106,-2.980479 3.500047,-7.506238 -0.347679,-1.191998 -3.295407,-6.48694 -3.295407,-6.48694 0,-5.983076 3.479731,-6.295864 5.293733,-10.334771 -2.319203,-1.179497 -6.055858,-2.377811 -8.557099,-3.011186 -2.308788,4.974024 -4.216953,6.957938 -6.948929,10.047965 v -0.52193 c -0.795465,1.161018 -1.753875,2.45284 -2.960545,4.021457 -0.228777,0.285673 -0.458295,0.573495 -0.698664,0.882634 C 55.83262,80.623808 55.602724,80.336163 55.373881,80.050408 54.167214,78.481791 53.2088,77.189969 52.413339,76.028951 v 0.521414 C 49.681627,73.460659 47.773058,71.476638 45.464407,66.502916 Z"
       id="path937-3"
       sodipodi:nodetypes="cccscccccccsccccccccccc"
       inkscape:label="pullover"
       class="col_1" />
  </g>
</svg>
