<?xml version="1.0" encoding="UTF-8" standalone="no"?>
<!-- Created with Inkscape (http://www.inkscape.org/) -->

<svg
   xmlns:dc="http://purl.org/dc/elements/1.1/"
   xmlns:cc="http://creativecommons.org/ns#"
   xmlns:rdf="http://www.w3.org/1999/02/22-rdf-syntax-ns#"
   xmlns:svg="http://www.w3.org/2000/svg"
   xmlns="http://www.w3.org/2000/svg"
   xmlns:sodipodi="http://sodipodi.sourceforge.net/DTD/sodipodi-0.dtd"
   xmlns:inkscape="http://www.inkscape.org/namespaces/inkscape"
   width="112.07594mm"
   height="112.07593mm"
   viewBox="0 0 112.07594 112.07593"
   version="1.1"
   id="svg19053"
   sodipodi:docname="male_pro_3.svg"
   inkscape:version="0.92.3 (unknown)">
  <sodipodi:namedview
     pagecolor="#ffffff"
     bordercolor="#666666"
     borderopacity="1"
     objecttolerance="10"
     gridtolerance="10"
     guidetolerance="10"
     inkscape:pageopacity="0"
     inkscape:pageshadow="2"
     inkscape:window-width="1920"
     inkscape:window-height="1023"
     id="namedview29025"
     showgrid="false"
     inkscape:zoom="1.8713177"
     inkscape:cx="255.11191"
     inkscape:cy="170.15861"
     inkscape:window-x="0"
     inkscape:window-y="27"
     inkscape:window-maximized="1"
     inkscape:current-layer="g445"
     showguides="false"
     inkscape:guide-bbox="true" />
  <defs
     id="defs19047" />
  <metadata
     id="metadata19050">
    <rdf:RDF>
      <cc:Work
         rdf:about="">
        <dc:format>image/svg+xml</dc:format>
        <dc:type
           rdf:resource="http://purl.org/dc/dcmitype/StillImage" />
        <dc:title></dc:title>
      </cc:Work>
    </rdf:RDF>
  </metadata>
  <g
     inkscape:groupmode="layer"
     id="layer4"
     inkscape:label="ignore"
     style="display:inline"
     sodipodi:insensitive="true">
    <g
       inkscape:groupmode="layer"
       id="layer6"
       inkscape:label="bg 1">
      <rect
         style="display:inline;opacity:1;vector-effect:none;fill:#e6e6e6;fill-opacity:1;stroke:none;stroke-width:0.39687499;stroke-linecap:round;stroke-linejoin:round;stroke-miterlimit:4;stroke-dasharray:none;stroke-dashoffset:0;stroke-opacity:1"
         id="rect67"
         width="107.98977"
         height="106.73225"
         x="1.6504986"
         y="1.4925177" />
    </g>
    <g
       inkscape:label="bg"
       inkscape:groupmode="layer"
       id="layer1"
       style="display:inline">
      <path
         style="opacity:1;vector-effect:none;fill:#c8b7b7;fill-opacity:1;stroke:#000000;stroke-width:0.1;stroke-linecap:round;stroke-linejoin:round;stroke-miterlimit:4;stroke-dasharray:none;stroke-dashoffset:0;stroke-opacity:1"
         d="m 235.83203,229.4043 c -1.6728,0.46339 -3.3024,0.85916 -4.85937,1.17578 -2.55787,2.08659 -10.17503,3.59955 -19.17578,3.59961 -9.00077,-6e-5 -16.61792,-1.51302 -19.17579,-3.59961 -1.55625,-0.31648 -3.18544,-0.71072 -4.85742,-1.17383 v 19.65039 c -37.73053,4.53056 -63.99077,19.86474 -64.04297,37.39648 0.0166,0.39799 0.0452,0.7958 0.0899,1.19336 h -0.0899 v 125.35743 h 80.49219 7.58399 7.58398 80.49219 V 287.64648 h -0.0898 c 0.0446,-0.39756 0.0713,-0.79537 0.0898,-1.19336 -0.0522,-17.53174 -26.3105,-32.86592 -64.04102,-37.39648 z"
         transform="scale(0.26458333)"
         id="rect23540"
         inkscape:connector-curvature="0" />
      <path
         style="opacity:1;vector-effect:none;fill:#c8b7b7;fill-opacity:1;stroke:#000000;stroke-width:1;stroke-linecap:round;stroke-linejoin:round;stroke-miterlimit:4;stroke-dasharray:none;stroke-dashoffset:0;stroke-opacity:1"
         d="m 202.32812,86.9375 c -15.79511,0 -57.01953,12.335362 -57.01953,50.80664 v 10.58398 c -3.559,0.0833 -6.42026,3.017 -6.41992,9.00391 3.5e-4,5.98613 2.86137,12.7695 6.41992,12.96485 v 10.59179 c 0,31.8402 28.62946,45.89206 47.3125,49.69141 2.55787,2.08659 10.17502,3.59955 19.17579,3.59961 9.00076,-6e-5 16.61791,-1.51302 19.17578,-3.59961 18.68304,-3.79935 47.3125,-17.85121 47.3125,-49.69141 v -10.59179 c 3.55876,-0.19481 6.42152,-6.97847 6.42187,-12.96485 3.5e-4,-5.98716 -2.86266,-8.9208 -6.42187,-9.00391 v -10.58398 c 0,-38.471278 -41.22246,-50.80664 -57.01758,-50.80664 h -9.4707 z"
         transform="scale(0.26458333)"
         id="rect23538"
         inkscape:connector-curvature="0" />
      <path
         inkscape:connector-curvature="0"
         style="opacity:1;vector-effect:none;fill:#ffffff;fill-opacity:1;stroke:none;stroke-width:0.07357386;stroke-linecap:round;stroke-linejoin:round;stroke-miterlimit:4;stroke-dasharray:none;stroke-dashoffset:0;stroke-opacity:1"
         d="M 0.47805685,0.47804646 V 111.59788 H 111.59789 V 0.47804646 Z M 56.037975,2.7678295 A 53.270417,53.270417 0 0 1 109.30863,56.037972 53.270417,53.270417 0 0 1 56.037975,109.30862 53.270417,53.270417 0 0 1 2.7678399,56.037972 53.270417,53.270417 0 0 1 56.037975,2.7678295 Z"
         id="rect855"
         inkscape:label="frame" />
    </g>
    <g
       style="display:inline"
       id="g2778"
       inkscape:groupmode="layer"
       inkscape:label="_ear_size">
      <path
         sodipodi:nodetypes="csssc"
         inkscape:label="ear_left"
         id="path2774"
         d="m 38.334661,38.854136 c -0.349442,-0.222897 -0.713749,-0.351469 -1.058139,-0.351542 -1.299026,-2.77e-4 -2.352284,1.231722 -2.352159,3.054574 1.27e-4,1.822603 1.053312,4.245964 2.352159,4.245687 0.361348,-7.7e-5 0.744637,-0.141627 1.109678,-0.385173"
         style="opacity:1;vector-effect:none;fill:none;fill-opacity:1;stroke:#000000;stroke-width:0.13229167;stroke-linecap:round;stroke-linejoin:round;stroke-miterlimit:4;stroke-dasharray:none;stroke-dashoffset:0;stroke-opacity:1"
         inkscape:connector-curvature="0" />
      <path
         inkscape:connector-curvature="0"
         style="opacity:1;vector-effect:none;fill:none;fill-opacity:1;stroke:#000000;stroke-width:0.13229167;stroke-linecap:round;stroke-linejoin:round;stroke-miterlimit:4;stroke-dasharray:none;stroke-dashoffset:0;stroke-opacity:1"
         d="m 73.563785,38.97637 c 0.401969,-0.297488 0.832449,-0.47369 1.235632,-0.473776 1.299026,-2.77e-4 2.352284,1.231722 2.352159,3.054574 -1.27e-4,1.822603 -1.053312,4.245964 -2.352159,4.245687 -0.396324,-8.5e-5 -0.819042,-0.170355 -1.21513,-0.458724"
         id="path2776"
         inkscape:label="ear_right"
         sodipodi:nodetypes="csssc" />
    </g>
    <g
       inkscape:groupmode="layer"
       id="layer2"
       inkscape:label="_cheek_low"
       style="display:inline">
      <path
         style="opacity:1;vector-effect:none;fill:none;fill-opacity:1;stroke:#000000;stroke-width:0.5;stroke-linecap:round;stroke-linejoin:round;stroke-miterlimit:4;stroke-dasharray:none;stroke-dashoffset:0;stroke-opacity:1"
         d="m 202.32812,86.9375 c -15.7951,0 -57.01953,12.335363 -57.01953,50.80664 0,5.46031 0.2884,10.20841 0.77539,14.41016 -0.2651,0.007 -0.52928,0.0304 -0.79101,0.0898 -3.5418,0.80423 -5.7631,4.32211 -4.41602,10.24609 1.3469,5.92317 5.75012,12.00709 9.29102,11.20118 0.42589,-0.0969 0.82473,-0.26411 1.19726,-0.48829 2.50227,6.12174 5.18386,10.67648 6.7793,15.9004 9.15599,29.97926 25.51723,38.89898 38.0957,41.51953 3.04539,1.73563 8.86645,2.91208 15.55665,2.91211 6.69018,-3e-5 12.51125,-1.17648 15.55664,-2.91211 12.57903,-2.62055 28.94168,-11.54027 38.09765,-41.51953 1.58467,-5.18862 4.24316,-9.71213 6.73047,-15.77149 0.30073,0.15457 0.61228,0.28358 0.94531,0.35938 3.5409,0.80591 7.94412,-5.27801 9.29102,-11.20118 1.34708,-5.92398 -0.87422,-9.44186 -4.41602,-10.24609 -0.16376,-0.0372 -0.32887,-0.054 -0.49414,-0.0703 0.48828,-4.2065 0.77735,-8.96098 0.77735,-14.42969 0,-38.471277 -41.22244,-50.80664 -57.01758,-50.80664 h -9.4707 z"
         transform="scale(0.26458333)"
         id="rect23538-3"
         inkscape:connector-curvature="0" />
    </g>
    <g
       inkscape:groupmode="layer"
       id="layer3"
       inkscape:label="_cheek_high"
       style="display:inline">
      <path
         style="opacity:1;vector-effect:none;fill:none;fill-opacity:1;stroke:#000000;stroke-width:0.5;stroke-linecap:round;stroke-linejoin:round;stroke-miterlimit:4;stroke-dasharray:none;stroke-dashoffset:0;stroke-opacity:1"
         d="m 202.32812,86.9375 c -15.7951,0 -57.01953,12.335363 -57.01953,50.80664 0,1.38786 0.11165,4.68722 -0.16211,9.0293 -3.14184,-0.50671 -6.34888,1.50167 -8.08789,6.70508 -1.92541,5.76115 -1.32333,13.24608 2.1211,14.39648 0.46979,0.1569 0.95798,0.2169 1.45312,0.19922 -0.28148,0.70751 -0.56688,1.41501 -0.88281,2.11914 -15.10484,33.66545 7.0226,55.14848 44.32422,60.29297 2.25899,3.26438 18.0103,5.26168 27.72266,5.26172 9.68698,-4e-5 24.26231,-2.25274 27.63867,-5.25 37.35387,-5.1232 59.52471,-26.61325 44.4082,-60.30469 -0.31619,-0.70473 -0.60308,-1.41298 -0.88477,-2.12109 0.49587,0.0179 0.98463,-0.0401 1.45508,-0.19727 3.44443,-1.1504 4.04651,-8.63533 2.1211,-14.39648 -1.73917,-5.20388 -4.94577,-7.2123 -8.08789,-6.70508 -0.27376,-4.34217 -0.16211,-7.64144 -0.16211,-9.0293 0,-38.471277 -41.22248,-50.80664 -57.01758,-50.80664 h -9.4707 z"
         transform="scale(0.26458333)"
         id="rect23538-6"
         inkscape:connector-curvature="0" />
    </g>
    <g
       style="display:inline"
       id="g2830"
       inkscape:groupmode="layer"
       inkscape:label="_chin">
      <path
         inkscape:label="chin"
         inkscape:connector-curvature="0"
         sodipodi:nodetypes="ccc"
         id="path2822"
         d="m 50.721419,60.269043 c -3e-6,1.02472 2.876644,3.793327 5.31654,2.384653 2.56882,1.483109 5.316538,-1.359933 5.316535,-2.384653"
         style="opacity:1;vector-effect:none;fill:none;fill-opacity:1;stroke:#000000;stroke-width:0.13229167;stroke-linecap:round;stroke-linejoin:round;stroke-miterlimit:4;stroke-dasharray:none;stroke-dashoffset:0;stroke-opacity:1" />
      <path
         inkscape:label="frame"
         id="path2824"
         d="M 0.47805685,0.47804646 V 111.59788 H 111.59789 V 0.47804646 Z M 56.037975,2.7678295 A 53.270417,53.270417 0 0 1 109.30863,56.037972 53.270417,53.270417 0 0 1 56.037975,109.30862 53.270417,53.270417 0 0 1 2.7678399,56.037972 53.270417,53.270417 0 0 1 56.037975,2.7678295 Z"
         style="opacity:1;vector-effect:none;fill:#000000;fill-opacity:1;stroke:none;stroke-width:0.07357386;stroke-linecap:round;stroke-linejoin:round;stroke-miterlimit:4;stroke-dasharray:none;stroke-dashoffset:0;stroke-opacity:1"
         inkscape:connector-curvature="0" />
    </g>
  </g>
  <g
     inkscape:groupmode="layer"
     id="layer5"
     inkscape:label="default"
     style="display:inline">
    <path
       style="display:inline;opacity:1;vector-effect:none;fill:#ffffff;fill-opacity:1;stroke:none;stroke-width:0.02638366;stroke-linecap:round;stroke-linejoin:round;stroke-miterlimit:4;stroke-dasharray:none;stroke-dashoffset:0;stroke-opacity:1"
       d="m 49.734948,64.405888 c -1.003615,0 -1.104842,0.137459 -1.104842,0.137459 l -1.609203,1.404048 c 0.0064,0.05516 0.01414,0.110681 0.02067,0.165881 -3.969171,0.720582 -7.338012,1.913297 -9.819039,3.417363 -2.856836,1.731888 -4.55607,3.893497 -4.563028,6.230628 -5.8e-5,0.0026 -5.8e-5,0.0052 0,0.0078 0.0028,0.07621 0.01146,0.154101 0.01757,0.23151 -0.0114,0.02389 -0.0173,0.04959 -0.01757,0.07596 l -0.39481,33.595843 H 79.847323 L 79.50574,76.07701 c -2.64e-4,-0.02638 -0.0058,-0.0526 -0.01757,-0.07648 0.0071,-0.07743 0.01429,-0.15558 0.01757,-0.230992 4.3e-5,-0.0026 4.3e-5,-0.0052 0,-0.0078 -0.0071,-2.337136 -1.706718,-4.49874 -4.563546,-6.230628 -2.481369,-1.50427 -5.850724,-2.697332 -9.820587,-3.417879 0.0065,-0.05503 0.01427,-0.110374 0.02067,-0.165365 l -1.60972,-1.404564 c -0.0028,0.0063 -0.006,0.0123 -0.0088,0.0186 l -0.02119,-0.01809 c 0,0 -0.101211,-0.137459 -1.104844,-0.137459 l -0.0072,1.488282 0.425815,0.04496 c -1.642959,2.834706 -4.145558,5.078664 -6.73499,7.262606 -2.590535,-2.184866 -5.094134,-4.429403 -6.737056,-7.265707 l 0.397907,-0.04237 z"
       id="path844"
       inkscape:connector-curvature="0"
       class="col_1" />
    <path
       style="display:inline;opacity:0.1;vector-effect:none;fill:#000000;fill-opacity:1;stroke:none;stroke-width:0.06595914;stroke-linecap:butt;stroke-linejoin:miter;stroke-miterlimit:4;stroke-dasharray:none;stroke-dashoffset:0;stroke-opacity:1"
       d="m 64.8317,68.301255 c -0.348417,2.349342 -0.825177,4.741222 -1.504818,7.201112 -2.265206,-0.91699 -4.61736,-1.746621 -7.245551,-2.300634 -2.628191,0.554013 -4.980331,1.384162 -7.245553,2.30115 -0.633598,-2.293255 -1.088152,-4.526735 -1.429369,-6.722586 0.148812,2.241698 0.0715,4.541139 0.727604,6.915856 1.72e-4,2.65e-4 2.51e-4,7.94e-4 5.29e-4,0.0011 0.114514,0.411896 0.578911,0.640609 0.975135,0.480074 2.024496,-0.819539 4.132807,-2.064941 6.417178,-2.600876 0.223972,-0.05254 0.390366,-0.108804 0.555006,-0.150894 2.507972,0.541528 4.772302,1.861851 6.970633,2.75177 0.396202,0.160528 0.860628,-0.06817 0.975135,-0.480074 1.72e-4,-2.64e-4 2.51e-4,-7.93e-4 5.29e-4,-0.0011 0.702762,-2.543574 0.644543,-5.00095 0.803568,-7.394898 z"
       id="path211"
       inkscape:connector-curvature="0"
       sodipodi:nodetypes="ccccccccccccccc" />
    <path
       style="display:inline;opacity:0.2;vector-effect:none;fill:#000000;fill-opacity:1;stroke:none;stroke-width:0.06595914;stroke-linecap:butt;stroke-linejoin:miter;stroke-miterlimit:4;stroke-dasharray:none;stroke-dashoffset:0;stroke-opacity:1"
       d="m 49.734948,64.405888 c -1.003615,0 -1.104842,0.137459 -1.104842,0.137459 0.213802,0.480927 0.454044,0.943607 0.714169,1.392679 l 0.397907,-0.04186 z m 12.662792,0 -0.0072,1.488281 0.425815,0.04496 c 0.25753,-0.444336 0.495237,-0.902214 0.707448,-1.377694 l -0.02119,-0.01809 c 0,0 -0.101216,-0.137459 -1.104844,-0.137459 z"
       id="path959"
       inkscape:connector-curvature="0"
       sodipodi:nodetypes="cccccccccccc" />
    <path
       style="color:#000000;font-style:normal;font-variant:normal;font-weight:normal;font-stretch:normal;font-size:medium;line-height:normal;font-family:sans-serif;font-variant-ligatures:normal;font-variant-position:normal;font-variant-caps:normal;font-variant-numeric:normal;font-variant-alternates:normal;font-feature-settings:normal;text-indent:0;text-align:start;text-decoration:none;text-decoration-line:none;text-decoration-style:solid;text-decoration-color:#000000;letter-spacing:normal;word-spacing:normal;text-transform:none;writing-mode:lr-tb;direction:ltr;text-orientation:mixed;dominant-baseline:auto;baseline-shift:baseline;text-anchor:start;white-space:normal;shape-padding:0;clip-rule:nonzero;display:inline;overflow:visible;visibility:visible;opacity:0.2;isolation:auto;mix-blend-mode:normal;color-interpolation:sRGB;color-interpolation-filters:linearRGB;solid-color:#000000;solid-opacity:1;vector-effect:none;fill:#000000;fill-opacity:1;fill-rule:nonzero;stroke:none;stroke-width:0.1984375;stroke-linecap:round;stroke-linejoin:round;stroke-miterlimit:4;stroke-dasharray:none;stroke-dashoffset:0;stroke-opacity:1;color-rendering:auto;image-rendering:auto;shape-rendering:auto;text-rendering:auto;enable-background:accumulate"
       d="m 69.577148,82.559299 c -0.0029,4.7e-5 -0.0059,2.11e-4 -0.0088,5.18e-4 -0.05521,0.0059 -0.09481,0.05601 -0.08785,0.111104 l 0.399457,19.861319 h 0.197922 l -0.39996,-19.882507 c -0.0046,-0.05194 -0.04864,-0.09145 -0.100769,-0.09043 z"
       id="path1330"
       inkscape:connector-curvature="0" />
    <path
       style="color:#000000;font-style:normal;font-variant:normal;font-weight:normal;font-stretch:normal;font-size:medium;line-height:normal;font-family:sans-serif;font-variant-ligatures:normal;font-variant-position:normal;font-variant-caps:normal;font-variant-numeric:normal;font-variant-alternates:normal;font-feature-settings:normal;text-indent:0;text-align:start;text-decoration:none;text-decoration-line:none;text-decoration-style:solid;text-decoration-color:#000000;letter-spacing:normal;word-spacing:normal;text-transform:none;writing-mode:lr-tb;direction:ltr;text-orientation:mixed;dominant-baseline:auto;baseline-shift:baseline;text-anchor:start;white-space:normal;shape-padding:0;clip-rule:nonzero;display:inline;overflow:visible;visibility:visible;opacity:0.2;isolation:auto;mix-blend-mode:normal;color-interpolation:sRGB;color-interpolation-filters:linearRGB;solid-color:#000000;solid-opacity:1;vector-effect:none;fill:#000000;fill-opacity:1;fill-rule:nonzero;stroke:none;stroke-width:0.1984375;stroke-linecap:round;stroke-linejoin:round;stroke-miterlimit:4;stroke-dasharray:none;stroke-dashoffset:0;stroke-opacity:1;color-rendering:auto;image-rendering:auto;shape-rendering:auto;text-rendering:auto;enable-background:accumulate"
       d="m 42.840796,82.891062 c -0.0036,-2.1e-5 -0.0072,1.43e-4 -0.01085,5.16e-4 -0.04696,0.0052 -0.08371,0.04285 -0.08785,0.08992 l -0.393258,19.550742 h 0.199472 l 0.391192,-19.528522 c 0.0078,-0.05955 -0.03865,-0.112332 -0.0987,-0.112139 z"
       id="path1328"
       inkscape:connector-curvature="0" />
    <path
       style="color:#000000;font-style:normal;font-variant:normal;font-weight:normal;font-stretch:normal;font-size:medium;line-height:normal;font-family:sans-serif;font-variant-ligatures:normal;font-variant-position:normal;font-variant-caps:normal;font-variant-numeric:normal;font-variant-alternates:normal;font-feature-settings:normal;text-indent:0;text-align:start;text-decoration:none;text-decoration-line:none;text-decoration-style:solid;text-decoration-color:#000000;letter-spacing:normal;word-spacing:normal;text-transform:none;writing-mode:lr-tb;direction:ltr;text-orientation:mixed;dominant-baseline:auto;baseline-shift:baseline;text-anchor:start;white-space:normal;shape-padding:0;clip-rule:nonzero;display:inline;overflow:visible;visibility:visible;opacity:0.2;isolation:auto;mix-blend-mode:normal;color-interpolation:sRGB;color-interpolation-filters:linearRGB;solid-color:#000000;solid-opacity:1;vector-effect:none;fill:#000000;fill-opacity:1;fill-rule:nonzero;stroke:none;stroke-width:0.1984375;stroke-linecap:round;stroke-linejoin:round;stroke-miterlimit:4;stroke-dasharray:none;stroke-dashoffset:0;stroke-opacity:1;color-rendering:auto;image-rendering:auto;shape-rendering:auto;text-rendering:auto;enable-background:accumulate"
       d="m 64.900431,66.083819 -0.0098,0.09767 c -0.268618,2.958589 -1.200237,7.454881 -1.708938,9.062495 -2.270149,-0.832742 -4.536342,-1.832174 -6.872968,-2.16576 l -0.09767,-0.01394 -0.02739,0.195337 0.09767,0.01601 c 2.336199,0.333523 4.625567,1.35156 6.941177,2.195213 l 0.0956,0.03514 0.03359,-0.09767 c 0.51721,-1.596644 1.464093,-6.193735 1.737881,-9.209257 l 0.0083,-0.09767 z"
       id="path1318"
       inkscape:connector-curvature="0" />
    <path
       style="color:#000000;font-style:normal;font-variant:normal;font-weight:normal;font-stretch:normal;font-size:medium;line-height:normal;font-family:sans-serif;font-variant-ligatures:normal;font-variant-position:normal;font-variant-caps:normal;font-variant-numeric:normal;font-variant-alternates:normal;font-feature-settings:normal;text-indent:0;text-align:start;text-decoration:none;text-decoration-line:none;text-decoration-style:solid;text-decoration-color:#000000;letter-spacing:normal;word-spacing:normal;text-transform:none;writing-mode:lr-tb;direction:ltr;text-orientation:mixed;dominant-baseline:auto;baseline-shift:baseline;text-anchor:start;white-space:normal;shape-padding:0;clip-rule:nonzero;display:inline;overflow:visible;visibility:visible;opacity:0.2;isolation:auto;mix-blend-mode:normal;color-interpolation:sRGB;color-interpolation-filters:linearRGB;solid-color:#000000;solid-opacity:1;vector-effect:none;fill:#000000;fill-opacity:1;fill-rule:nonzero;stroke:none;stroke-width:0.1984375;stroke-linecap:round;stroke-linejoin:round;stroke-miterlimit:4;stroke-dasharray:none;stroke-dashoffset:0;stroke-opacity:1;color-rendering:auto;image-rendering:auto;shape-rendering:auto;text-rendering:auto;enable-background:accumulate"
       d="m 47.259647,66.083819 -0.197403,0.01757 0.0098,0.09767 c 0.273786,3.015522 1.221187,7.612612 1.738395,9.209256 l 0.03152,0.09767 0.09767,-0.03514 c 2.31561,-0.843653 4.60498,-1.86169 6.941177,-2.195213 l 0.09767,-0.01601 -0.02739,-0.195334 -0.09974,0.01394 c -2.337194,0.333669 -4.602263,1.332897 -6.872967,2.16576 -0.508701,-1.607613 -1.44032,-6.103905 -1.708938,-9.062495 z"
       id="path279"
       inkscape:connector-curvature="0" />
    <path
       style="display:inline;opacity:1;vector-effect:none;fill:#3737c8;fill-opacity:1;stroke:none;stroke-width:0.05709152;stroke-linecap:butt;stroke-linejoin:miter;stroke-miterlimit:4;stroke-dasharray:none;stroke-dashoffset:0;stroke-opacity:1"
       d="m 56.081335,73.201674 c -0.65962,0.124227 -1.29621,0.269025 -1.91875,0.426331 -0.19784,0.302776 -0.30257,0.646758 -0.30334,0.997354 -5e-5,0.62537 0.32384,1.183042 0.82941,1.547191 l -1.78801,30.95626 3.18172,2.70474 3.18172,-2.70474 -1.78749,-30.956776 c 0.50536,-0.364151 0.82946,-0.92144 0.82941,-1.546675 -8e-4,-0.350631 -0.10593,-0.694615 -0.30386,-0.997354 -0.62302,-0.157441 -1.26072,-0.302017 -1.92081,-0.426331 z"
       id="path916"
       class="col_2"
       inkscape:connector-curvature="0"
       inkscape:label="tie" />
    <path
       style="display:inline;opacity:0.5;vector-effect:none;fill:#000000;fill-opacity:1;stroke:none;stroke-width:0.06595914;stroke-linecap:butt;stroke-linejoin:miter;stroke-miterlimit:4;stroke-dasharray:none;stroke-dashoffset:0;stroke-opacity:1"
       d="m 54.704175,76.168074 c 1.1001,1.026604 1.9981,0.673036 2.73051,-0.0121 -0.8336,0.206629 -1.80018,0.256867 -2.73051,0.0121 z"
       id="path944"
       inkscape:connector-curvature="0"
       sodipodi:nodetypes="ccc"
       inkscape:label="tie_detail" />
    <path
       style="color:#000000;font-style:normal;font-variant:normal;font-weight:normal;font-stretch:normal;font-size:medium;line-height:normal;font-family:sans-serif;font-variant-ligatures:normal;font-variant-position:normal;font-variant-caps:normal;font-variant-numeric:normal;font-variant-alternates:normal;font-feature-settings:normal;text-indent:0;text-align:start;text-decoration:none;text-decoration-line:none;text-decoration-style:solid;text-decoration-color:#000000;letter-spacing:normal;word-spacing:normal;text-transform:none;writing-mode:lr-tb;direction:ltr;text-orientation:mixed;dominant-baseline:auto;baseline-shift:baseline;text-anchor:start;white-space:normal;shape-padding:0;clip-rule:nonzero;display:inline;overflow:visible;visibility:visible;opacity:0.2;isolation:auto;mix-blend-mode:normal;color-interpolation:sRGB;color-interpolation-filters:linearRGB;solid-color:#000000;solid-opacity:1;vector-effect:none;fill:#000000;fill-opacity:1;fill-rule:nonzero;stroke:none;stroke-width:0.1984375;stroke-linecap:round;stroke-linejoin:round;stroke-miterlimit:4;stroke-dasharray:none;stroke-dashoffset:0;stroke-opacity:1;color-rendering:auto;image-rendering:auto;shape-rendering:auto;text-rendering:auto;enable-background:accumulate"
       d="m 44.607422,86.072266 a 0.09922867,0.09922867 0 0 0 -0.08984,0.09961 v 1.714844 a 0.09922867,0.09922867 0 1 0 0.197266,0 v -1.615235 h 8.046875 v 0.523438 a 0.0996095,0.0996095 0 1 0 0.199219,0 v -0.623047 a 0.09922867,0.09922867 0 0 0 -0.09961,-0.09961 h -8.24414 a 0.09922867,0.09922867 0 0 0 -0.0098,0 z"
       id="path266"
       inkscape:connector-curvature="0" />
    <path
       style="display:inline;opacity:1;vector-effect:none;fill:#000080;fill-opacity:1;stroke:none;stroke-width:0.25466502;stroke-linecap:round;stroke-linejoin:round;stroke-miterlimit:4;stroke-dasharray:none;stroke-dashoffset:0;stroke-opacity:1"
       d="m 51.847604,82.630276 -0.32774,3.424715 h 0.3838 v 1.871642 c 0,0.4107 0.437189,0.403891 0.437189,0.01396 v -1.885582 h 0.379098 L 52.39221,82.630295 Z"
       id="rect268"
       inkscape:connector-curvature="0"
       sodipodi:nodetypes="cccsscccc"
       inkscape:label="pen" />
  </g>
  <g
     style="display:none"
     inkscape:label="pen_pos"
     id="g356"
     inkscape:groupmode="layer">
    <path
       sodipodi:nodetypes="cccsscccc"
       inkscape:connector-curvature="0"
       id="path354"
       d="m 45.199136,82.630276 -0.32774,3.424715 h 0.3838 v 1.871642 c 0,0.4107 0.437189,0.403891 0.437189,0.01396 v -1.885582 h 0.379098 l -0.327741,-3.424716 z"
       style="display:inline;opacity:1;vector-effect:none;fill:#000080;fill-opacity:1;stroke:none;stroke-width:0.25466502;stroke-linecap:round;stroke-linejoin:round;stroke-miterlimit:4;stroke-dasharray:none;stroke-dashoffset:0;stroke-opacity:1"
       inkscape:label="pen" />
  </g>
  <g
     inkscape:groupmode="layer"
     id="layer7"
     inkscape:label="%0.5 no_pocket"
     style="display:none">
    <path
       style="opacity:1;vector-effect:none;fill:#ffffff;fill-opacity:1;stroke:none;stroke-width:0.5;stroke-linecap:round;stroke-linejoin:round;stroke-miterlimit:4;stroke-dasharray:none;stroke-dashoffset:0;stroke-opacity:1"
       d="m 45.049171,82.492808 -1.021814,5.946408 9.514597,-0.199648 -1.03727,-5.709248 z"
       id="path332"
       inkscape:connector-curvature="0"
       sodipodi:nodetypes="ccccc"
       class="col_1" />
  </g>
  <g
     inkscape:groupmode="layer"
     id="layer8"
     inkscape:label="%0.9999 tie_clip"
     style="display:inline">
    <path
       style="opacity:1;vector-effect:none;fill:#ffcc00;fill-opacity:1;stroke:none;stroke-width:0.29835391;stroke-linecap:round;stroke-linejoin:round;stroke-miterlimit:4;stroke-dasharray:none;stroke-dashoffset:0;stroke-opacity:1"
       d="m 54.124862,86.240214 c -0.32653,0 -0.589629,0.262581 -0.589629,0.589111 0,0.32653 0.263099,0.589626 0.589629,0.589626 h 2.98328 c 0.326528,0 0.589627,-0.263096 0.589627,-0.589626 0,-0.32653 -0.263099,-0.589111 -0.589627,-0.589111 z"
       id="rect359"
       inkscape:connector-curvature="0" />
  </g>
  <g
     inkscape:groupmode="layer"
     id="layer9"
     inkscape:label="%0.15 messy_tie"
     style="display:inline">
    <path
       style="display:inline;opacity:1;vector-effect:none;fill:#ffffff;fill-opacity:1;stroke:none;stroke-width:0.5;stroke-linecap:round;stroke-linejoin:round;stroke-miterlimit:4;stroke-dasharray:none;stroke-dashoffset:0;stroke-opacity:1"
       d="m 54.067574,94.881698 -1.873401,0.07069 0.106042,12.936972 3.78215,1.94419 4.022995,-1.75845 z"
       id="path380"
       inkscape:connector-curvature="0"
       sodipodi:nodetypes="cccccc"
       class="col_1" />
    <path
       style="display:inline;opacity:1;vector-effect:none;fill:#3737c8;fill-opacity:1;stroke:none;stroke-width:0.05709152;stroke-linecap:butt;stroke-linejoin:miter;stroke-miterlimit:4;stroke-dasharray:none;stroke-dashoffset:0;stroke-opacity:1"
       d="m 53.604409,95.202688 c 0,3.11005 1.142621,7.914632 2.724508,10.404962 l 4.007789,1.17329 1.803243,-3.7666 c -1.745781,-3.021795 -3.336651,-4.869 -3.714356,-10.318146 l -4.789738,2.072732 z"
       id="path916-3"
       class="col_2"
       inkscape:connector-curvature="0"
       sodipodi:nodetypes="ccccccc" />
    <path
       style="opacity:1;vector-effect:none;fill:#3737c8;fill-opacity:1;stroke:none;stroke-width:0.5;stroke-linecap:round;stroke-linejoin:round;stroke-miterlimit:4;stroke-dasharray:none;stroke-dashoffset:0;stroke-opacity:1"
       d="m 54.435435,88.392536 c -0.01722,-2.01e-4 -0.01826,0.02212 -5.29e-4,0.07131 -0.179409,0.62212 -0.362357,1.283952 -0.544153,1.969389 l 2.346627,0.275437 0.02739,2.145088 c 0.172738,-0.610362 0.34649,-1.226254 0.517281,-1.855184 -0.516866,-0.488051 -2.180082,-2.604085 -2.346629,-2.606043 z m -0.774628,2.944005 c -1.119743,4.391896 -2.129838,9.643429 -1.967839,13.449309 l 1.66088,1.17306 0.930693,-1.63711 c -0.02302,-0.94659 0.01185,-1.85647 0.08992,-2.74195 -1.44459,-4.375041 -0.908497,-7.065126 -0.713652,-10.243309 z"
       id="path382"
       inkscape:connector-curvature="0"
       sodipodi:nodetypes="cccccccccccccc"
       class="col_2" />
  </g>
  <g
     inkscape:groupmode="layer"
     id="layer10"
     inkscape:label="%0.999 nametag">
    <g
       id="g445"
       transform="rotate(-8.9145557,64.685098,88.443872)">
      <path
         style="opacity:1;vector-effect:none;fill:#aa0000;fill-opacity:1;stroke:none;stroke-width:0.93940359;stroke-linecap:round;stroke-linejoin:round;stroke-miterlimit:4;stroke-dasharray:none;stroke-dashoffset:0;stroke-opacity:1"
         d="M 255.13086 323.71094 C 255.03992 323.70682 254.9471 323.71188 254.85352 323.72656 L 231.37305 327.4082 C 230.62439 327.52564 230.11499 328.224 230.23242 328.97266 L 232.54102 343.6875 C 232.65845 344.43616 233.35485 344.9436 234.10352 344.82617 L 257.58594 341.14258 C 258.3346 341.02515 258.84204 340.32874 258.72461 339.58008 L 256.41797 324.86523 C 256.31522 324.21016 255.76747 323.73977 255.13086 323.71094 z "
         id="rect404"
         transform="matrix(0.26138731,0.0410002,-0.0410002,0.26138731,14.486745,-8.9553362)" />
      <path
         sodipodi:nodetypes="ccccc"
         inkscape:connector-curvature="0"
         id="rect406"
         d="M 61.328659,87.865436 V 90.4012 h 6.712562 v -2.535764 z"
         style="opacity:1;vector-effect:none;fill:#ffffff;fill-opacity:1;stroke:none;stroke-width:0.22745466;stroke-linecap:round;stroke-linejoin:round;stroke-miterlimit:4;stroke-dasharray:none;stroke-dashoffset:0;stroke-opacity:1" />
      <text
         id="text413"
         y="87.375305"
         x="62.608723"
         style="font-style:normal;font-variant:normal;font-weight:normal;font-stretch:normal;font-size:1.16027057px;line-height:1.25;font-family:Montserrat;-inkscape-font-specification:Montserrat;text-align:start;letter-spacing:0px;word-spacing:0px;text-anchor:start;fill:#ffffff;fill-opacity:1;stroke:none;stroke-width:0.07251691"
         xml:space="preserve"><tspan
           style="font-style:normal;font-variant:normal;font-weight:900;font-stretch:normal;font-family:Montserrat;-inkscape-font-specification:'Montserrat Heavy';fill:#ffffff;stroke-width:0.07251691"
           y="87.375305"
           x="62.608723"
           id="tspan411"
           sodipodi:role="line">HELLO</tspan></text>
      <path
         inkscape:connector-curvature="0"
         id="path427"
         d="m 62.382809,88.180754 c -0.01528,0.0021 -0.02784,0.01054 -0.04162,0.01655 -0.04364,0.0014 -0.08734,0.0032 -0.13054,0.0076 -0.223239,0.112448 -0.143671,0.326911 0.02128,0.369394 -0.0071,0.07079 -0.02103,0.141128 -0.03453,0.210474 -0.03687,0.181816 -0.11451,0.352149 -0.208108,0.511287 -0.03066,0.05475 -0.0782,0.09899 -0.104056,0.156081 -0.03527,0.07996 0.0077,0.180071 0.08845,0.211894 0.08163,0.03969 0.185831,-0.006 0.218516,-0.08892 0.02177,-0.06204 0.04893,-0.121925 0.0752,-0.182095 0.262352,0.189088 0.709834,-0.07792 1.023993,-0.04162 0.05453,-0.03833 0.249409,0.0049 0.332975,0.0099 -0.09193,0.214693 0.318547,0.346117 0.481961,0.148514 0.08169,-0.0922 0.423772,-0.150938 0.462571,-0.175946 0.153781,0.258258 0.54158,0.10731 0.800748,0.09791 0.350374,-0.09523 0.07669,-0.518402 -0.195811,-0.329665 -0.240505,0.142741 -0.360613,-0.13257 -0.566152,-0.131015 -0.18542,0.08647 -0.471715,0.193568 -0.632369,0.245001 -0.03376,-0.104094 -0.127053,-0.242558 -0.244529,-0.190134 -0.148071,0.02447 -0.294958,0.05698 -0.443179,0.08277 0.242958,-0.08656 0.420965,-0.368251 0.204326,-0.585544 -0.285032,-0.199381 -0.631672,-0.302569 -0.980477,-0.320204 -0.03919,-0.02104 -0.08421,-0.03176 -0.128649,-0.02223 z m 3.686845,0.160811 c -0.26908,-0.02934 -0.383512,0.42761 -0.438921,0.647976 -0.109843,0.413301 0.283009,0.830696 0.703313,0.714669 0.08303,0.01759 0.323472,-0.134033 0.365611,-0.18257 0.113246,0.04362 0.222767,0.377962 0.402028,0.373651 0.228283,-0.08541 0.353246,-0.324574 0.523112,-0.488584 0.05915,-0.369159 -0.38287,-0.151958 -0.484799,0.03926 -0.0036,0.0021 -0.0023,0.0018 -0.0057,0.0038 -0.101156,-0.115587 -0.258119,-0.233235 -0.394462,-0.29372 -0.270918,-0.127795 -0.352414,0.337627 -0.637099,0.226556 -0.294286,-0.119057 -0.186853,-0.564353 0.04824,-0.69291 0.103993,-0.05877 0.138457,-0.221531 0.04399,-0.303649 -0.04502,-0.02614 -0.0869,-0.04027 -0.125337,-0.04446 z m -3.442318,0.161286 c 0.216399,-0.01235 0.441965,0.07406 0.585544,0.231757 -0.10075,0.126654 -0.485412,0.205178 -0.679666,0.07473 -0.01261,-0.0057 -0.02301,-0.0055 -0.035,-0.0095 0.03199,-0.09591 0.0595,-0.193046 0.08466,-0.29088 0.01488,-0.0018 0.02946,-0.0053 0.04446,-0.0061 z"
         style="opacity:1;vector-effect:none;fill:#000000;fill-opacity:1;stroke:none;stroke-width:0.18162267;stroke-linecap:round;stroke-linejoin:round;stroke-miterlimit:4;stroke-dasharray:none;stroke-dashoffset:0;stroke-opacity:1" />
    </g>
    <ellipse
       style="opacity:1;vector-effect:none;fill:#000000;fill-opacity:1;stroke:none;stroke-width:0.1984375;stroke-linecap:round;stroke-linejoin:round;stroke-miterlimit:4;stroke-dasharray:none;stroke-dashoffset:0;stroke-opacity:1"
       id="path450"
       cx="63.545422"
       cy="86.844658"
       rx="0.070694394"
       ry="0.037556395"
       transform="scale(0.26458333)" />
  </g>
</svg>
