<?xml version="1.0" encoding="UTF-8" standalone="no"?>
<!-- Created with Inkscape (http://www.inkscape.org/) -->

<svg
   xmlns:dc="http://purl.org/dc/elements/1.1/"
   xmlns:cc="http://creativecommons.org/ns#"
   xmlns:rdf="http://www.w3.org/1999/02/22-rdf-syntax-ns#"
   xmlns:svg="http://www.w3.org/2000/svg"
   xmlns="http://www.w3.org/2000/svg"
   xmlns:sodipodi="http://sodipodi.sourceforge.net/DTD/sodipodi-0.dtd"
   xmlns:inkscape="http://www.inkscape.org/namespaces/inkscape"
   width="112.07594mm"
   height="112.07593mm"
   viewBox="0 0 112.07594 112.07593"
   version="1.1"
   id="svg19053"
   sodipodi:docname="male_pro_2.svg"
   inkscape:version="0.92.3 (unknown)">
  <sodipodi:namedview
     pagecolor="#ffffff"
     bordercolor="#666666"
     borderopacity="1"
     objecttolerance="10"
     gridtolerance="10"
     guidetolerance="10"
     inkscape:pageopacity="0"
     inkscape:pageshadow="2"
     inkscape:window-width="1920"
     inkscape:window-height="1023"
     id="namedview29025"
     showgrid="false"
     inkscape:zoom="2.6464429"
     inkscape:cx="70.548966"
     inkscape:cy="126.61387"
     inkscape:window-x="0"
     inkscape:window-y="27"
     inkscape:window-maximized="1"
     inkscape:current-layer="layer5"
     showguides="true"
     inkscape:guide-bbox="true" />
  <defs
     id="defs19047" />
  <metadata
     id="metadata19050">
    <rdf:RDF>
      <cc:Work
         rdf:about="">
        <dc:format>image/svg+xml</dc:format>
        <dc:type
           rdf:resource="http://purl.org/dc/dcmitype/StillImage" />
        <dc:title></dc:title>
      </cc:Work>
    </rdf:RDF>
  </metadata>
  <g
     inkscape:groupmode="layer"
     id="layer4"
     inkscape:label="ignore"
     style="display:inline"
     sodipodi:insensitive="true">
    <g
       inkscape:groupmode="layer"
       id="layer6"
       inkscape:label="bg 1">
      <rect
         style="display:inline;opacity:1;vector-effect:none;fill:#e6e6e6;fill-opacity:1;stroke:none;stroke-width:0.39687499;stroke-linecap:round;stroke-linejoin:round;stroke-miterlimit:4;stroke-dasharray:none;stroke-dashoffset:0;stroke-opacity:1"
         id="rect67"
         width="107.98977"
         height="106.73225"
         x="1.6504986"
         y="1.4925177" />
    </g>
    <g
       inkscape:label="bg"
       inkscape:groupmode="layer"
       id="layer1"
       style="display:inline">
      <path
         style="opacity:1;vector-effect:none;fill:#c8b7b7;fill-opacity:1;stroke:#000000;stroke-width:0.1;stroke-linecap:round;stroke-linejoin:round;stroke-miterlimit:4;stroke-dasharray:none;stroke-dashoffset:0;stroke-opacity:1"
         d="m 235.83203,229.4043 c -1.6728,0.46339 -3.3024,0.85916 -4.85937,1.17578 -2.55787,2.08659 -10.17503,3.59955 -19.17578,3.59961 -9.00077,-6e-5 -16.61792,-1.51302 -19.17579,-3.59961 -1.55625,-0.31648 -3.18544,-0.71072 -4.85742,-1.17383 v 19.65039 c -37.73053,4.53056 -63.99077,19.86474 -64.04297,37.39648 0.0166,0.39799 0.0452,0.7958 0.0899,1.19336 h -0.0899 v 125.35743 h 80.49219 7.58399 7.58398 80.49219 V 287.64648 h -0.0898 c 0.0446,-0.39756 0.0713,-0.79537 0.0898,-1.19336 -0.0522,-17.53174 -26.3105,-32.86592 -64.04102,-37.39648 z"
         transform="scale(0.26458333)"
         id="rect23540"
         inkscape:connector-curvature="0" />
      <path
         style="opacity:1;vector-effect:none;fill:#c8b7b7;fill-opacity:1;stroke:#000000;stroke-width:1;stroke-linecap:round;stroke-linejoin:round;stroke-miterlimit:4;stroke-dasharray:none;stroke-dashoffset:0;stroke-opacity:1"
         d="m 202.32812,86.9375 c -15.79511,0 -57.01953,12.335362 -57.01953,50.80664 v 10.58398 c -3.559,0.0833 -6.42026,3.017 -6.41992,9.00391 3.5e-4,5.98613 2.86137,12.7695 6.41992,12.96485 v 10.59179 c 0,31.8402 28.62946,45.89206 47.3125,49.69141 2.55787,2.08659 10.17502,3.59955 19.17579,3.59961 9.00076,-6e-5 16.61791,-1.51302 19.17578,-3.59961 18.68304,-3.79935 47.3125,-17.85121 47.3125,-49.69141 v -10.59179 c 3.55876,-0.19481 6.42152,-6.97847 6.42187,-12.96485 3.5e-4,-5.98716 -2.86266,-8.9208 -6.42187,-9.00391 v -10.58398 c 0,-38.471278 -41.22246,-50.80664 -57.01758,-50.80664 h -9.4707 z"
         transform="scale(0.26458333)"
         id="rect23538"
         inkscape:connector-curvature="0" />
      <path
         inkscape:connector-curvature="0"
         style="opacity:1;vector-effect:none;fill:#ffffff;fill-opacity:1;stroke:none;stroke-width:0.07357386;stroke-linecap:round;stroke-linejoin:round;stroke-miterlimit:4;stroke-dasharray:none;stroke-dashoffset:0;stroke-opacity:1"
         d="M 0.47805685,0.47804646 V 111.59788 H 111.59789 V 0.47804646 Z M 56.037975,2.7678295 A 53.270417,53.270417 0 0 1 109.30863,56.037972 53.270417,53.270417 0 0 1 56.037975,109.30862 53.270417,53.270417 0 0 1 2.7678399,56.037972 53.270417,53.270417 0 0 1 56.037975,2.7678295 Z"
         id="rect855"
         inkscape:label="frame" />
    </g>
    <g
       style="display:inline"
       id="g2778"
       inkscape:groupmode="layer"
       inkscape:label="_ear_size">
      <path
         sodipodi:nodetypes="csssc"
         inkscape:label="ear_left"
         id="path2774"
         d="m 38.334661,38.854136 c -0.349442,-0.222897 -0.713749,-0.351469 -1.058139,-0.351542 -1.299026,-2.77e-4 -2.352284,1.231722 -2.352159,3.054574 1.27e-4,1.822603 1.053312,4.245964 2.352159,4.245687 0.361348,-7.7e-5 0.744637,-0.141627 1.109678,-0.385173"
         style="opacity:1;vector-effect:none;fill:none;fill-opacity:1;stroke:#000000;stroke-width:0.13229167;stroke-linecap:round;stroke-linejoin:round;stroke-miterlimit:4;stroke-dasharray:none;stroke-dashoffset:0;stroke-opacity:1"
         inkscape:connector-curvature="0" />
      <path
         inkscape:connector-curvature="0"
         style="opacity:1;vector-effect:none;fill:none;fill-opacity:1;stroke:#000000;stroke-width:0.13229167;stroke-linecap:round;stroke-linejoin:round;stroke-miterlimit:4;stroke-dasharray:none;stroke-dashoffset:0;stroke-opacity:1"
         d="m 73.563785,38.97637 c 0.401969,-0.297488 0.832449,-0.47369 1.235632,-0.473776 1.299026,-2.77e-4 2.352284,1.231722 2.352159,3.054574 -1.27e-4,1.822603 -1.053312,4.245964 -2.352159,4.245687 -0.396324,-8.5e-5 -0.819042,-0.170355 -1.21513,-0.458724"
         id="path2776"
         inkscape:label="ear_right"
         sodipodi:nodetypes="csssc" />
    </g>
    <g
       inkscape:groupmode="layer"
       id="layer2"
       inkscape:label="_cheek_low"
       style="display:inline">
      <path
         style="opacity:1;vector-effect:none;fill:none;fill-opacity:1;stroke:#000000;stroke-width:0.5;stroke-linecap:round;stroke-linejoin:round;stroke-miterlimit:4;stroke-dasharray:none;stroke-dashoffset:0;stroke-opacity:1"
         d="m 202.32812,86.9375 c -15.7951,0 -57.01953,12.335363 -57.01953,50.80664 0,5.46031 0.2884,10.20841 0.77539,14.41016 -0.2651,0.007 -0.52928,0.0304 -0.79101,0.0898 -3.5418,0.80423 -5.7631,4.32211 -4.41602,10.24609 1.3469,5.92317 5.75012,12.00709 9.29102,11.20118 0.42589,-0.0969 0.82473,-0.26411 1.19726,-0.48829 2.50227,6.12174 5.18386,10.67648 6.7793,15.9004 9.15599,29.97926 25.51723,38.89898 38.0957,41.51953 3.04539,1.73563 8.86645,2.91208 15.55665,2.91211 6.69018,-3e-5 12.51125,-1.17648 15.55664,-2.91211 12.57903,-2.62055 28.94168,-11.54027 38.09765,-41.51953 1.58467,-5.18862 4.24316,-9.71213 6.73047,-15.77149 0.30073,0.15457 0.61228,0.28358 0.94531,0.35938 3.5409,0.80591 7.94412,-5.27801 9.29102,-11.20118 1.34708,-5.92398 -0.87422,-9.44186 -4.41602,-10.24609 -0.16376,-0.0372 -0.32887,-0.054 -0.49414,-0.0703 0.48828,-4.2065 0.77735,-8.96098 0.77735,-14.42969 0,-38.471277 -41.22244,-50.80664 -57.01758,-50.80664 h -9.4707 z"
         transform="scale(0.26458333)"
         id="rect23538-3"
         inkscape:connector-curvature="0" />
    </g>
    <g
       inkscape:groupmode="layer"
       id="layer3"
       inkscape:label="_cheek_high"
       style="display:inline">
      <path
         style="opacity:1;vector-effect:none;fill:none;fill-opacity:1;stroke:#000000;stroke-width:0.5;stroke-linecap:round;stroke-linejoin:round;stroke-miterlimit:4;stroke-dasharray:none;stroke-dashoffset:0;stroke-opacity:1"
         d="m 202.32812,86.9375 c -15.7951,0 -57.01953,12.335363 -57.01953,50.80664 0,1.38786 0.11165,4.68722 -0.16211,9.0293 -3.14184,-0.50671 -6.34888,1.50167 -8.08789,6.70508 -1.92541,5.76115 -1.32333,13.24608 2.1211,14.39648 0.46979,0.1569 0.95798,0.2169 1.45312,0.19922 -0.28148,0.70751 -0.56688,1.41501 -0.88281,2.11914 -15.10484,33.66545 7.0226,55.14848 44.32422,60.29297 2.25899,3.26438 18.0103,5.26168 27.72266,5.26172 9.68698,-4e-5 24.26231,-2.25274 27.63867,-5.25 37.35387,-5.1232 59.52471,-26.61325 44.4082,-60.30469 -0.31619,-0.70473 -0.60308,-1.41298 -0.88477,-2.12109 0.49587,0.0179 0.98463,-0.0401 1.45508,-0.19727 3.44443,-1.1504 4.04651,-8.63533 2.1211,-14.39648 -1.73917,-5.20388 -4.94577,-7.2123 -8.08789,-6.70508 -0.27376,-4.34217 -0.16211,-7.64144 -0.16211,-9.0293 0,-38.471277 -41.22248,-50.80664 -57.01758,-50.80664 h -9.4707 z"
         transform="scale(0.26458333)"
         id="rect23538-6"
         inkscape:connector-curvature="0" />
    </g>
    <g
       style="display:inline"
       id="g2830"
       inkscape:groupmode="layer"
       inkscape:label="_chin">
      <path
         inkscape:label="chin"
         inkscape:connector-curvature="0"
         sodipodi:nodetypes="ccc"
         id="path2822"
         d="m 50.721419,60.269043 c -3e-6,1.02472 2.876644,3.793327 5.31654,2.384653 2.56882,1.483109 5.316538,-1.359933 5.316535,-2.384653"
         style="opacity:1;vector-effect:none;fill:none;fill-opacity:1;stroke:#000000;stroke-width:0.13229167;stroke-linecap:round;stroke-linejoin:round;stroke-miterlimit:4;stroke-dasharray:none;stroke-dashoffset:0;stroke-opacity:1" />
      <path
         inkscape:label="frame"
         id="path2824"
         d="M 0.47805685,0.47804646 V 111.59788 H 111.59789 V 0.47804646 Z M 56.037975,2.7678295 A 53.270417,53.270417 0 0 1 109.30863,56.037972 53.270417,53.270417 0 0 1 56.037975,109.30862 53.270417,53.270417 0 0 1 2.7678399,56.037972 53.270417,53.270417 0 0 1 56.037975,2.7678295 Z"
         style="opacity:1;vector-effect:none;fill:#000000;fill-opacity:1;stroke:none;stroke-width:0.07357386;stroke-linecap:round;stroke-linejoin:round;stroke-miterlimit:4;stroke-dasharray:none;stroke-dashoffset:0;stroke-opacity:1"
         inkscape:connector-curvature="0" />
    </g>
  </g>
  <g
     inkscape:groupmode="layer"
     id="layer5"
     inkscape:label="default"
     style="display:inline">
    <path
       style="display:inline;opacity:1;vector-effect:none;fill:#ffffff;fill-opacity:1;stroke:none;stroke-width:0.02638366;stroke-linecap:round;stroke-linejoin:round;stroke-miterlimit:4;stroke-dasharray:none;stroke-dashoffset:0;stroke-opacity:1"
       d="m 49.734948,64.405888 c -1.003615,0 -1.104842,0.137459 -1.104842,0.137459 l -1.609203,1.404048 c 0.0064,0.05516 0.01413,0.110681 0.02066,0.165881 -3.969171,0.720582 -7.338015,1.913297 -9.81904,3.417363 -2.856838,1.731888 -4.556069,3.893497 -4.563027,6.230628 -5.9e-5,0.0026 -5.9e-5,0.0052 0,0.0078 0.0028,0.07621 0.01146,0.154102 0.01757,0.231511 -0.0114,0.02389 -0.0173,0.04958 -0.01757,0.07596 l -0.464056,18.365288 -0.983919,-0.120407 0.112138,0.08578 0.597898,3.146063 -0.373621,4.862748 10.653096,-0.12505 v 7.6181 h 13.881326 13.881841 v -7.61246 l 10.533207,-0.0181 0.05788,-2.35076 0.541568,-4.627108 -1.180807,0.0057 -0.41031,-19.229835 c -2.65e-4,-0.02638 -0.0058,-0.0526 -0.01757,-0.07648 0.0071,-0.07743 0.01429,-0.155582 0.01757,-0.230994 4.2e-5,-0.0026 4.2e-5,-0.0052 0,-0.0078 -0.0071,-2.337136 -1.706721,-4.49874 -4.563547,-6.230628 -2.481368,-1.50427 -5.850723,-2.697332 -9.820587,-3.41788 0.0065,-0.05503 0.01426,-0.110373 0.02066,-0.165364 l -1.609719,-1.404565 c -0.0028,0.0063 -0.006,0.0123 -0.0088,0.0186 l -0.02119,-0.0181 c 0,0 -0.101213,-0.137459 -1.104844,-0.137459 l -0.0072,1.488281 0.425815,0.04496 c -1.642959,2.834704 -4.145558,5.078664 -6.73499,7.262606 -2.590535,-2.184865 -5.094134,-4.429405 -6.737056,-7.265707 l 0.397907,-0.04186 z"
       id="path844"
       class="col_1"
       inkscape:connector-curvature="0"
       inkscape:label="shirt"
       sodipodi:nodetypes="cccccccccccccccccccccccccccccccccccccccc" />
    <path
       style="display:inline;opacity:0.1;vector-effect:none;fill:#000000;fill-opacity:1;stroke:none;stroke-width:0.06595914;stroke-linecap:butt;stroke-linejoin:miter;stroke-miterlimit:4;stroke-dasharray:none;stroke-dashoffset:0;stroke-opacity:1"
       d="m 64.8317,68.301255 c -0.348417,2.349342 -0.825177,4.741222 -1.504818,7.201112 -2.265206,-0.91699 -4.61736,-1.746621 -7.245551,-2.300634 -2.628191,0.554013 -4.980331,1.384162 -7.245553,2.30115 -0.633598,-2.293255 -1.088152,-4.526735 -1.429369,-6.722586 0.148812,2.241698 0.0715,4.541139 0.727604,6.915856 1.72e-4,2.65e-4 2.51e-4,7.94e-4 5.29e-4,0.0011 0.114514,0.411896 0.578911,0.640609 0.975135,0.480074 2.024496,-0.819539 4.132807,-2.064941 6.417178,-2.600876 0.223972,-0.05254 0.390366,-0.108804 0.555006,-0.150894 2.507972,0.541528 4.772302,1.861851 6.970633,2.75177 0.396202,0.160528 0.860628,-0.06817 0.975135,-0.480074 1.72e-4,-2.64e-4 2.51e-4,-7.93e-4 5.29e-4,-0.0011 0.702762,-2.543574 0.644543,-5.00095 0.803568,-7.394898 z"
       id="path211"
       inkscape:connector-curvature="0"
       sodipodi:nodetypes="ccccccccccccccc" />
    <path
       style="display:inline;opacity:0.2;vector-effect:none;fill:#000000;fill-opacity:1;stroke:none;stroke-width:0.06595914;stroke-linecap:butt;stroke-linejoin:miter;stroke-miterlimit:4;stroke-dasharray:none;stroke-dashoffset:0;stroke-opacity:1"
       d="m 49.734948,64.405888 c -1.003615,0 -1.104842,0.137459 -1.104842,0.137459 0.213802,0.480927 0.454044,0.943607 0.714169,1.392679 l 0.397907,-0.04186 z m 12.662792,0 -0.0072,1.488281 0.425815,0.04496 c 0.25753,-0.444336 0.495237,-0.902214 0.707448,-1.377694 l -0.02119,-0.01809 c 0,0 -0.101216,-0.137459 -1.104844,-0.137459 z m -4.99246,12.047841 a 0.5655551,0.5655551 0 0 0 -0.565857,0.565341 0.5655551,0.5655551 0 0 0 0.565857,0.56534 0.5655551,0.5655551 0 0 0 0.56534,-0.56534 0.5655551,0.5655551 0 0 0 -0.56534,-0.565341 z m 0,4.498951 a 0.5655551,0.5655551 0 0 0 -0.565857,0.565341 0.5655551,0.5655551 0 0 0 0.565857,0.56534 0.5655551,0.5655551 0 0 0 0.56534,-0.56534 0.5655551,0.5655551 0 0 0 -0.56534,-0.565341 z m 0,4.498951 a 0.5655551,0.5655551 0 0 0 -0.565857,0.565341 0.5655551,0.5655551 0 0 0 0.565857,0.565338 0.5655551,0.5655551 0 0 0 0.56534,-0.565338 0.5655551,0.5655551 0 0 0 -0.56534,-0.565341 z m 0,4.498949 a 0.5655551,0.5655551 0 0 0 -0.565857,0.56534 0.5655551,0.5655551 0 0 0 0.565857,0.565341 0.5655551,0.5655551 0 0 0 0.56534,-0.565341 0.5655551,0.5655551 0 0 0 -0.56534,-0.56534 z m 0,4.498951 a 0.5655551,0.5655551 0 0 0 -0.565857,0.565341 0.5655551,0.5655551 0 0 0 0.565857,0.56534 0.5655551,0.5655551 0 0 0 0.56534,-0.56534 0.5655551,0.5655551 0 0 0 -0.56534,-0.565341 z m 0,4.498951 a 0.5655551,0.5655551 0 0 0 -0.565857,0.565338 0.5655551,0.5655551 0 0 0 0.565857,0.56534 0.5655551,0.5655551 0 0 0 0.56534,-0.56534 0.5655551,0.5655551 0 0 0 -0.56534,-0.565338 z m 0,4.498948 a 0.5655551,0.5655551 0 0 0 -0.565857,0.56534 0.5655551,0.5655551 0 0 0 0.565857,0.56586 0.5655551,0.5655551 0 0 0 0.56534,-0.56586 0.5655551,0.5655551 0 0 0 -0.56534,-0.56534 z m 0,4.49895 a 0.5655551,0.5655551 0 0 0 -0.565857,0.56534 0.5655551,0.5655551 0 0 0 0.565857,0.56586 0.5655551,0.5655551 0 0 0 0.56534,-0.56586 0.5655551,0.5655551 0 0 0 -0.56534,-0.56534 z"
       id="path959"
       inkscape:connector-curvature="0" />
    <path
       style="color:#000000;font-style:normal;font-variant:normal;font-weight:normal;font-stretch:normal;font-size:medium;line-height:normal;font-family:sans-serif;font-variant-ligatures:normal;font-variant-position:normal;font-variant-caps:normal;font-variant-numeric:normal;font-variant-alternates:normal;font-feature-settings:normal;text-indent:0;text-align:start;text-decoration:none;text-decoration-line:none;text-decoration-style:solid;text-decoration-color:#000000;letter-spacing:normal;word-spacing:normal;text-transform:none;writing-mode:lr-tb;direction:ltr;text-orientation:mixed;dominant-baseline:auto;baseline-shift:baseline;text-anchor:start;white-space:normal;shape-padding:0;clip-rule:nonzero;display:inline;overflow:visible;visibility:visible;opacity:0.2;isolation:auto;mix-blend-mode:normal;color-interpolation:sRGB;color-interpolation-filters:linearRGB;solid-color:#000000;solid-opacity:1;vector-effect:none;fill:#000000;fill-opacity:1;fill-rule:nonzero;stroke:none;stroke-width:0.1984375;stroke-linecap:round;stroke-linejoin:round;stroke-miterlimit:4;stroke-dasharray:none;stroke-dashoffset:0;stroke-opacity:1;color-rendering:auto;image-rendering:auto;shape-rendering:auto;text-rendering:auto;enable-background:accumulate"
       d="m 69.577148,84.407766 c -0.0029,4.7e-5 -0.0059,2.22e-4 -0.0088,5.29e-4 -0.05521,0.0059 -0.09481,0.05601 -0.08785,0.111104 l 0.531233,10.539925 c 0.0096,0.13579 0.214728,0.11539 0.197403,-0.01963 L 69.677917,84.498216 c -0.0046,-0.05194 -0.04864,-0.09145 -0.100769,-0.09043 z m 5.930386,10.717175 c -0.0019,1.22e-4 -0.0038,2.64e-4 -0.0057,5.29e-4 l -7.113262,0.04909 c -0.06755,2.64e-4 -0.114988,0.06669 -0.09353,0.130741 l 0.763778,2.26963 -0.660427,4.835879 c -0.0072,0.0596 0.03973,0.11185 0.09973,0.11111 l 1.38648,-0.0134 c 0.132313,-0.002 0.13021,-0.20022 -0.0021,-0.19947 l -1.273308,0.0139 0.63872,-4.656563 2.665987,0.21704 c 0.138059,0.01963 0.156927,-0.192357 0.01757,-0.197403 l -2.687174,-0.21859 c -0.0045,-5.3e-4 -0.0089,-5.3e-4 -0.01344,-5.3e-4 l -0.703771,-2.094949 6.976835,-0.04909 c 0.141507,0.0127 0.1455,-0.20543 0.0036,-0.197921 z m 5.052407,4.702556 c -0.0038,1.35e-4 -0.0076,5.29e-4 -0.01138,0.0011 l -3.669544,0.230473 c -0.13299,0.008 -0.121613,0.20705 0.01138,0.19947 l 3.672126,-0.23254 c 0.132924,-10e-4 0.130262,-0.200835 -0.0026,-0.198437 z"
       id="path1330"
       inkscape:connector-curvature="0"
       sodipodi:nodetypes="cccccccccccccccccccccccccccccccccc"
       inkscape:label="right_detail" />
    <path
       style="color:#000000;font-style:normal;font-variant:normal;font-weight:normal;font-stretch:normal;font-size:medium;line-height:normal;font-family:sans-serif;font-variant-ligatures:normal;font-variant-position:normal;font-variant-caps:normal;font-variant-numeric:normal;font-variant-alternates:normal;font-feature-settings:normal;text-indent:0;text-align:start;text-decoration:none;text-decoration-line:none;text-decoration-style:solid;text-decoration-color:#000000;letter-spacing:normal;word-spacing:normal;text-transform:none;writing-mode:lr-tb;direction:ltr;text-orientation:mixed;dominant-baseline:auto;baseline-shift:baseline;text-anchor:start;white-space:normal;shape-padding:0;clip-rule:nonzero;display:inline;overflow:visible;visibility:visible;opacity:0.2;isolation:auto;mix-blend-mode:normal;color-interpolation:sRGB;color-interpolation-filters:linearRGB;solid-color:#000000;solid-opacity:1;vector-effect:none;fill:#000000;fill-opacity:1;fill-rule:nonzero;stroke:none;stroke-width:0.1984375;stroke-linecap:round;stroke-linejoin:round;stroke-miterlimit:4;stroke-dasharray:none;stroke-dashoffset:0;stroke-opacity:1;color-rendering:auto;image-rendering:auto;shape-rendering:auto;text-rendering:auto;enable-background:accumulate"
       d="m 42.840796,84.739529 c -0.0036,-2.1e-5 -0.0072,1.56e-4 -0.01085,5.29e-4 -0.04696,0.0052 -0.08371,0.04285 -0.08785,0.08992 L 42.210863,95.37197 c -0.004,0.04039 0.01685,0.07917 0.05271,0.09818 l -3.93361,-0.48524 c -0.0032,-7.94e-4 -0.0065,-0.0016 -0.0098,-0.0021 -0.132983,-0.009 -0.146423,0.190511 -0.01344,0.199472 l 5.980514,0.738457 -1.019061,3.536218 c -0.01106,-0.0024 -0.02241,-0.0026 -0.03359,-0.0011 -0.0026,5.29e-4 -0.0052,0.0011 -0.0078,0.0016 l -2.644799,0.443383 c -0.139424,0.01532 -0.103621,0.22679 0.03307,0.19534 l 2.644283,-0.443387 0.439767,2.623107 -1.373042,0.0176 c -0.145987,-0.0134 -0.14355,0.21396 0.0021,0.19741 l 1.490348,-0.0196 c 0.06025,-0.001 0.105341,-0.0558 0.0956,-0.11524 l -0.468707,-2.794668 1.064535,-3.699515 c 0.01622,-0.05798 -0.02252,-0.11693 -0.08216,-0.125058 L 42.33442,95.478392 c 0.04129,-0.01003 0.07175,-0.04505 0.07596,-0.08733 l 0.529166,-10.539407 c 0.0078,-0.05955 -0.03865,-0.112332 -0.0987,-0.112139 z M 31.917949,97.452965 c -0.0033,1.3e-5 -0.0066,1.9e-4 -0.0098,5.29e-4 v 5.29e-4 c -0.116118,0.01236 -0.119208,0.180253 -0.0036,0.196887 l 2.646352,0.443383 c 0.136718,0.03148 0.172535,-0.180059 0.03307,-0.195336 l -2.646352,-0.443384 c -0.0064,-0.0016 -0.01302,-0.0024 -0.01963,-0.0026 z"
       id="path1328"
       inkscape:connector-curvature="0"
       sodipodi:nodetypes="ccccccccccccccccccccccccccccccccccccc"
       inkscape:label="left_detail" />
    <path
       style="color:#000000;font-style:normal;font-variant:normal;font-weight:normal;font-stretch:normal;font-size:medium;line-height:normal;font-family:sans-serif;font-variant-ligatures:normal;font-variant-position:normal;font-variant-caps:normal;font-variant-numeric:normal;font-variant-alternates:normal;font-feature-settings:normal;text-indent:0;text-align:start;text-decoration:none;text-decoration-line:none;text-decoration-style:solid;text-decoration-color:#000000;letter-spacing:normal;word-spacing:normal;text-transform:none;writing-mode:lr-tb;direction:ltr;text-orientation:mixed;dominant-baseline:auto;baseline-shift:baseline;text-anchor:start;white-space:normal;shape-padding:0;clip-rule:nonzero;display:inline;overflow:visible;visibility:visible;opacity:0.2;isolation:auto;mix-blend-mode:normal;color-interpolation:sRGB;color-interpolation-filters:linearRGB;solid-color:#000000;solid-opacity:1;vector-effect:none;fill:#000000;fill-opacity:1;fill-rule:nonzero;stroke:none;stroke-width:0.1984375;stroke-linecap:round;stroke-linejoin:round;stroke-miterlimit:4;stroke-dasharray:none;stroke-dashoffset:0;stroke-opacity:1;color-rendering:auto;image-rendering:auto;shape-rendering:auto;text-rendering:auto;enable-background:accumulate"
       d="m 56.080297,73.324206 a 0.09922867,0.09922867 0 0 0 -0.09767,0.101801 v 36.400363 a 0.0996095,0.0996095 0 1 0 0.198953,0 V 73.426007 a 0.09922867,0.09922867 0 0 0 -0.101285,-0.101801 z"
       id="path1320"
       inkscape:connector-curvature="0" />
    <path
       style="color:#000000;font-style:normal;font-variant:normal;font-weight:normal;font-stretch:normal;font-size:medium;line-height:normal;font-family:sans-serif;font-variant-ligatures:normal;font-variant-position:normal;font-variant-caps:normal;font-variant-numeric:normal;font-variant-alternates:normal;font-feature-settings:normal;text-indent:0;text-align:start;text-decoration:none;text-decoration-line:none;text-decoration-style:solid;text-decoration-color:#000000;letter-spacing:normal;word-spacing:normal;text-transform:none;writing-mode:lr-tb;direction:ltr;text-orientation:mixed;dominant-baseline:auto;baseline-shift:baseline;text-anchor:start;white-space:normal;shape-padding:0;clip-rule:nonzero;display:inline;overflow:visible;visibility:visible;opacity:0.2;isolation:auto;mix-blend-mode:normal;color-interpolation:sRGB;color-interpolation-filters:linearRGB;solid-color:#000000;solid-opacity:1;vector-effect:none;fill:#000000;fill-opacity:1;fill-rule:nonzero;stroke:none;stroke-width:0.1984375;stroke-linecap:round;stroke-linejoin:round;stroke-miterlimit:4;stroke-dasharray:none;stroke-dashoffset:0;stroke-opacity:1;color-rendering:auto;image-rendering:auto;shape-rendering:auto;text-rendering:auto;enable-background:accumulate"
       d="m 64.900431,66.083819 -0.0098,0.09767 c -0.268618,2.958589 -1.200237,7.454881 -1.708938,9.062495 -2.270149,-0.832742 -4.536342,-1.832174 -6.872968,-2.16576 l -0.09767,-0.01394 -0.02739,0.195337 0.09767,0.01601 c 2.336199,0.333523 4.625567,1.35156 6.941177,2.195213 l 0.0956,0.03514 0.03359,-0.09767 c 0.51721,-1.596644 1.464093,-6.193735 1.737881,-9.209257 l 0.0083,-0.09767 z"
       id="path1318"
       inkscape:connector-curvature="0" />
    <path
       style="color:#000000;font-style:normal;font-variant:normal;font-weight:normal;font-stretch:normal;font-size:medium;line-height:normal;font-family:sans-serif;font-variant-ligatures:normal;font-variant-position:normal;font-variant-caps:normal;font-variant-numeric:normal;font-variant-alternates:normal;font-feature-settings:normal;text-indent:0;text-align:start;text-decoration:none;text-decoration-line:none;text-decoration-style:solid;text-decoration-color:#000000;letter-spacing:normal;word-spacing:normal;text-transform:none;writing-mode:lr-tb;direction:ltr;text-orientation:mixed;dominant-baseline:auto;baseline-shift:baseline;text-anchor:start;white-space:normal;shape-padding:0;clip-rule:nonzero;display:inline;overflow:visible;visibility:visible;opacity:0.2;isolation:auto;mix-blend-mode:normal;color-interpolation:sRGB;color-interpolation-filters:linearRGB;solid-color:#000000;solid-opacity:1;vector-effect:none;fill:#000000;fill-opacity:1;fill-rule:nonzero;stroke:none;stroke-width:0.1984375;stroke-linecap:round;stroke-linejoin:round;stroke-miterlimit:4;stroke-dasharray:none;stroke-dashoffset:0;stroke-opacity:1;color-rendering:auto;image-rendering:auto;shape-rendering:auto;text-rendering:auto;enable-background:accumulate"
       d="m 47.259647,66.083819 -0.197403,0.01757 0.0098,0.09767 c 0.273786,3.015522 1.221187,7.612612 1.738395,9.209256 l 0.03152,0.09767 0.09767,-0.03514 c 2.31561,-0.843653 4.60498,-1.86169 6.941177,-2.195213 l 0.09767,-0.01601 -0.02739,-0.195334 -0.09974,0.01394 c -2.337194,0.333669 -4.602263,1.332897 -6.872967,2.16576 -0.508701,-1.607613 -1.44032,-6.103905 -1.708938,-9.062495 z"
       id="path279"
       inkscape:connector-curvature="0" />
  </g>
  <g
     style="display:none"
     inkscape:label="sleeve_height"
     id="g1350"
     inkscape:groupmode="layer">
    <path
       inkscape:label="shirt"
       inkscape:connector-curvature="0"
       class="col_1"
       id="path1334"
       d="m 49.734948,64.405888 c -1.003615,0 -1.104842,0.137459 -1.104842,0.137459 l -1.609203,1.404048 c 0.0064,0.05516 0.01413,0.110681 0.02066,0.165881 -3.969171,0.720582 -7.338015,1.913297 -9.81904,3.417363 -2.856838,1.731888 -4.556069,3.893497 -4.563027,6.230628 -5.9e-5,0.0026 -5.9e-5,0.0052 0,0.0078 0.0028,0.07621 0.01146,0.154102 0.01757,0.231511 -0.0114,0.02389 -0.0173,0.04958 -0.01757,0.07596 l -0.464056,7.781954 -0.983919,-0.120407 0.112138,0.08578 0.597898,3.146063 -0.373621,4.86275 10.653096,-0.125055 V 109.90906 H 56.082358 69.964199 V 91.713265 l 10.533207,-0.0181 0.05788,-2.350759 0.541568,-4.627108 -1.180807,0.0057 -0.41031,-8.646501 c -2.65e-4,-0.02638 -0.0058,-0.0526 -0.01757,-0.07648 0.0071,-0.07743 0.01429,-0.155582 0.01757,-0.230994 4.2e-5,-0.0026 4.2e-5,-0.0052 0,-0.0078 -0.0071,-2.337136 -1.706721,-4.49874 -4.563547,-6.230628 -2.481368,-1.50427 -5.850723,-2.697332 -9.820587,-3.41788 0.0065,-0.05503 0.01426,-0.110373 0.02066,-0.165364 l -1.609719,-1.404565 c -0.0028,0.0063 -0.006,0.0123 -0.0088,0.0186 l -0.02119,-0.0181 c 0,0 -0.101213,-0.137459 -1.104844,-0.137459 l -0.0072,1.488281 0.425815,0.04496 c -1.642959,2.834704 -4.145558,5.078664 -6.73499,7.262606 -2.590535,-2.184865 -5.094134,-4.429405 -6.737056,-7.265707 l 0.397907,-0.04186 z"
       style="display:inline;opacity:1;vector-effect:none;fill:#ffffff;fill-opacity:1;stroke:none;stroke-width:0.02638366;stroke-linecap:round;stroke-linejoin:round;stroke-miterlimit:4;stroke-dasharray:none;stroke-dashoffset:0;stroke-opacity:1"
       sodipodi:nodetypes="cccccccccccccccccccccccccccccccccccccccc" />
    <path
       id="path1340"
       d="m 69.577148,79.116099 c -0.0029,4.8e-5 -0.0059,2.22e-4 -0.0088,5.29e-4 -0.05521,0.0059 -0.09481,0.05601 -0.08785,0.111104 l 0.531233,5.248259 c 0.0096,0.135789 0.214728,0.11539 0.197403,-0.01963 l -0.531233,-5.24981 c -0.0046,-0.05194 -0.04864,-0.09145 -0.100769,-0.09043 z m 5.930386,5.425509 c -0.0019,1.21e-4 -0.0038,2.64e-4 -0.0057,5.29e-4 l -7.113262,0.04909 c -0.06755,2.64e-4 -0.114988,0.06668 -0.09353,0.130741 l 0.763778,2.26963 -0.660427,4.835879 c -0.0072,0.05957 0.03973,0.111845 0.09973,0.111107 l 1.38648,-0.01344 c 0.132313,-0.0021 0.13021,-0.200215 -0.0021,-0.199469 l -1.273308,0.01394 0.63872,-4.656563 2.665987,0.21704 c 0.138059,0.01963 0.156927,-0.192357 0.01757,-0.197403 l -2.687174,-0.218591 c -0.0045,-5.29e-4 -0.0089,-5.29e-4 -0.01344,-5.29e-4 l -0.703771,-2.094949 6.976835,-0.04909 c 0.141507,0.0127 0.1455,-0.20543 0.0036,-0.197921 z m 5.052407,4.702556 c -0.0038,1.35e-4 -0.0076,5.29e-4 -0.01138,0.0011 l -3.669544,0.230476 c -0.13299,0.0076 -0.121613,0.207047 0.01138,0.199472 l 3.672126,-0.232545 c 0.132924,-0.0011 0.130262,-0.200835 -0.0026,-0.198438 z"
       style="color:#000000;font-style:normal;font-variant:normal;font-weight:normal;font-stretch:normal;font-size:medium;line-height:normal;font-family:sans-serif;font-variant-ligatures:normal;font-variant-position:normal;font-variant-caps:normal;font-variant-numeric:normal;font-variant-alternates:normal;font-feature-settings:normal;text-indent:0;text-align:start;text-decoration:none;text-decoration-line:none;text-decoration-style:solid;text-decoration-color:#000000;letter-spacing:normal;word-spacing:normal;text-transform:none;writing-mode:lr-tb;direction:ltr;text-orientation:mixed;dominant-baseline:auto;baseline-shift:baseline;text-anchor:start;white-space:normal;shape-padding:0;clip-rule:nonzero;display:inline;overflow:visible;visibility:visible;opacity:0.2;isolation:auto;mix-blend-mode:normal;color-interpolation:sRGB;color-interpolation-filters:linearRGB;solid-color:#000000;solid-opacity:1;vector-effect:none;fill:#000000;fill-opacity:1;fill-rule:nonzero;stroke:none;stroke-width:0.1984375;stroke-linecap:round;stroke-linejoin:round;stroke-miterlimit:4;stroke-dasharray:none;stroke-dashoffset:0;stroke-opacity:1;color-rendering:auto;image-rendering:auto;shape-rendering:auto;text-rendering:auto;enable-background:accumulate"
       inkscape:connector-curvature="0"
       sodipodi:nodetypes="cccccccccccccccccccccccccccccccccc"
       inkscape:label="right_detail" />
    <path
       id="path1342"
       d="m 42.840796,79.447863 c -0.0036,-2.7e-5 -0.0072,1.45e-4 -0.01085,5.29e-4 -0.04696,0.0052 -0.08371,0.04285 -0.08785,0.08992 l -0.531233,5.250326 c -0.004,0.04039 0.01685,0.07917 0.05271,0.09818 l -3.93361,-0.48524 c -0.0032,-7.94e-4 -0.0065,-0.0016 -0.0098,-0.0021 -0.132747,-0.0087 -0.146151,0.190283 -0.01344,0.199472 l 5.980514,0.738457 -1.019061,3.536217 c -0.01106,-0.0024 -0.02241,-0.0026 -0.03359,-0.0011 -0.0026,5.29e-4 -0.0052,0.0011 -0.0078,0.0016 l -2.644799,0.443383 c -0.139424,0.01529 -0.103621,0.226782 0.03307,0.195339 l 2.644283,-0.443386 0.439767,2.623098 -1.373042,0.01757 c -0.145987,-0.01347 -0.143606,0.213926 0.0021,0.197406 l 1.490348,-0.01963 c 0.06025,-0.0013 0.105341,-0.05576 0.0956,-0.11524 l -0.468707,-2.794661 1.064535,-3.699515 c 0.01622,-0.05798 -0.02252,-0.11693 -0.08216,-0.125058 L 42.33442,84.895059 c 0.04129,-0.01003 0.07175,-0.04505 0.07596,-0.08733 l 0.529166,-5.247741 c 0.0078,-0.05955 -0.03865,-0.112331 -0.0987,-0.112138 z m -10.922847,7.421768 c -0.0033,1.1e-5 -0.0066,1.83e-4 -0.0098,5.3e-4 v 5.29e-4 c -0.116118,0.01238 -0.119203,0.180255 -0.0036,0.196887 l 2.646352,0.443383 c 0.136718,0.03148 0.172535,-0.180059 0.03307,-0.195336 l -2.64639,-0.443384 c -0.0064,-0.0016 -0.01302,-0.0024 -0.01963,-0.0026 z"
       style="color:#000000;font-style:normal;font-variant:normal;font-weight:normal;font-stretch:normal;font-size:medium;line-height:normal;font-family:sans-serif;font-variant-ligatures:normal;font-variant-position:normal;font-variant-caps:normal;font-variant-numeric:normal;font-variant-alternates:normal;font-feature-settings:normal;text-indent:0;text-align:start;text-decoration:none;text-decoration-line:none;text-decoration-style:solid;text-decoration-color:#000000;letter-spacing:normal;word-spacing:normal;text-transform:none;writing-mode:lr-tb;direction:ltr;text-orientation:mixed;dominant-baseline:auto;baseline-shift:baseline;text-anchor:start;white-space:normal;shape-padding:0;clip-rule:nonzero;display:inline;overflow:visible;visibility:visible;opacity:0.2;isolation:auto;mix-blend-mode:normal;color-interpolation:sRGB;color-interpolation-filters:linearRGB;solid-color:#000000;solid-opacity:1;vector-effect:none;fill:#000000;fill-opacity:1;fill-rule:nonzero;stroke:none;stroke-width:0.1984375;stroke-linecap:round;stroke-linejoin:round;stroke-miterlimit:4;stroke-dasharray:none;stroke-dashoffset:0;stroke-opacity:1;color-rendering:auto;image-rendering:auto;shape-rendering:auto;text-rendering:auto;enable-background:accumulate"
       inkscape:connector-curvature="0"
       sodipodi:nodetypes="ccccccccccccccccccccccccccccccccccc"
       inkscape:label="left_detail" />
  </g>
</svg>
