<?xml version="1.0" encoding="UTF-8" standalone="no"?>
<!-- Created with Inkscape (http://www.inkscape.org/) -->

<svg
   xmlns:dc="http://purl.org/dc/elements/1.1/"
   xmlns:cc="http://creativecommons.org/ns#"
   xmlns:rdf="http://www.w3.org/1999/02/22-rdf-syntax-ns#"
   xmlns:svg="http://www.w3.org/2000/svg"
   xmlns="http://www.w3.org/2000/svg"
   xmlns:sodipodi="http://sodipodi.sourceforge.net/DTD/sodipodi-0.dtd"
   xmlns:inkscape="http://www.inkscape.org/namespaces/inkscape"
   width="112.07594mm"
   height="112.07593mm"
   viewBox="0 0 112.07594 112.07593"
   version="1.1"
   id="svg19053"
   sodipodi:docname="male_pro_3.svg"
   inkscape:version="0.92.3 (unknown)">
  <sodipodi:namedview
     pagecolor="#ffffff"
     bordercolor="#666666"
     borderopacity="1"
     objecttolerance="10"
     gridtolerance="10"
     guidetolerance="10"
     inkscape:pageopacity="0"
     inkscape:pageshadow="2"
     inkscape:window-width="1920"
     inkscape:window-height="1023"
     id="namedview29025"
     showgrid="false"
     inkscape:zoom="1.4142136"
     inkscape:cx="216.53413"
     inkscape:cy="211.04262"
     inkscape:window-x="0"
     inkscape:window-y="27"
     inkscape:window-maximized="1"
     inkscape:current-layer="layer5"
     showguides="false"
     inkscape:guide-bbox="true" />
  <defs
     id="defs19047" />
  <metadata
     id="metadata19050">
    <rdf:RDF>
      <cc:Work
         rdf:about="">
        <dc:format>image/svg+xml</dc:format>
        <dc:type
           rdf:resource="http://purl.org/dc/dcmitype/StillImage" />
        <dc:title />
      </cc:Work>
    </rdf:RDF>
  </metadata>
  <g
     inkscape:groupmode="layer"
     id="layer4"
     inkscape:label="ignore"
     style="display:inline"
     sodipodi:insensitive="true">
    <g
       inkscape:groupmode="layer"
       id="layer6"
       inkscape:label="bg 1">
      <rect
         style="display:inline;opacity:1;vector-effect:none;fill:#e6e6e6;fill-opacity:1;stroke:none;stroke-width:0.39687499;stroke-linecap:round;stroke-linejoin:round;stroke-miterlimit:4;stroke-dasharray:none;stroke-dashoffset:0;stroke-opacity:1"
         id="rect67"
         width="107.98977"
         height="106.73225"
         x="1.6504986"
         y="1.4925177" />
    </g>
    <g
       inkscape:label="bg"
       inkscape:groupmode="layer"
       id="layer1"
       style="display:inline">
      <path
         style="opacity:1;vector-effect:none;fill:#c8b7b7;fill-opacity:1;stroke:#000000;stroke-width:0.1;stroke-linecap:round;stroke-linejoin:round;stroke-miterlimit:4;stroke-dasharray:none;stroke-dashoffset:0;stroke-opacity:1"
         d="m 235.83203,229.4043 c -1.6728,0.46339 -3.3024,0.85916 -4.85937,1.17578 -2.55787,2.08659 -10.17503,3.59955 -19.17578,3.59961 -9.00077,-6e-5 -16.61792,-1.51302 -19.17579,-3.59961 -1.55625,-0.31648 -3.18544,-0.71072 -4.85742,-1.17383 v 19.65039 c -37.73053,4.53056 -63.99077,19.86474 -64.04297,37.39648 0.0166,0.39799 0.0452,0.7958 0.0899,1.19336 h -0.0899 v 125.35743 h 80.49219 7.58399 7.58398 80.49219 V 287.64648 h -0.0898 c 0.0446,-0.39756 0.0713,-0.79537 0.0898,-1.19336 -0.0522,-17.53174 -26.3105,-32.86592 -64.04102,-37.39648 z"
         transform="scale(0.26458333)"
         id="rect23540"
         inkscape:connector-curvature="0" />
      <path
         style="opacity:1;vector-effect:none;fill:#c8b7b7;fill-opacity:1;stroke:#000000;stroke-width:1;stroke-linecap:round;stroke-linejoin:round;stroke-miterlimit:4;stroke-dasharray:none;stroke-dashoffset:0;stroke-opacity:1"
         d="m 202.32812,86.9375 c -15.79511,0 -57.01953,12.335362 -57.01953,50.80664 v 10.58398 c -3.559,0.0833 -6.42026,3.017 -6.41992,9.00391 3.5e-4,5.98613 2.86137,12.7695 6.41992,12.96485 v 10.59179 c 0,31.8402 28.62946,45.89206 47.3125,49.69141 2.55787,2.08659 10.17502,3.59955 19.17579,3.59961 9.00076,-6e-5 16.61791,-1.51302 19.17578,-3.59961 18.68304,-3.79935 47.3125,-17.85121 47.3125,-49.69141 v -10.59179 c 3.55876,-0.19481 6.42152,-6.97847 6.42187,-12.96485 3.5e-4,-5.98716 -2.86266,-8.9208 -6.42187,-9.00391 v -10.58398 c 0,-38.471278 -41.22246,-50.80664 -57.01758,-50.80664 h -9.4707 z"
         transform="scale(0.26458333)"
         id="rect23538"
         inkscape:connector-curvature="0" />
      <path
         inkscape:connector-curvature="0"
         style="opacity:1;vector-effect:none;fill:#ffffff;fill-opacity:1;stroke:none;stroke-width:0.07357386;stroke-linecap:round;stroke-linejoin:round;stroke-miterlimit:4;stroke-dasharray:none;stroke-dashoffset:0;stroke-opacity:1"
         d="M 0.47805685,0.47804646 V 111.59788 H 111.59789 V 0.47804646 Z M 56.037975,2.7678295 A 53.270417,53.270417 0 0 1 109.30863,56.037972 53.270417,53.270417 0 0 1 56.037975,109.30862 53.270417,53.270417 0 0 1 2.7678399,56.037972 53.270417,53.270417 0 0 1 56.037975,2.7678295 Z"
         id="rect855"
         inkscape:label="frame" />
    </g>
    <g
       style="display:inline"
       id="g2778"
       inkscape:groupmode="layer"
       inkscape:label="_ear_size">
      <path
         sodipodi:nodetypes="csssc"
         inkscape:label="ear_left"
         id="path2774"
         d="m 38.334661,38.854136 c -0.349442,-0.222897 -0.713749,-0.351469 -1.058139,-0.351542 -1.299026,-2.77e-4 -2.352284,1.231722 -2.352159,3.054574 1.27e-4,1.822603 1.053312,4.245964 2.352159,4.245687 0.361348,-7.7e-5 0.744637,-0.141627 1.109678,-0.385173"
         style="opacity:1;vector-effect:none;fill:none;fill-opacity:1;stroke:#000000;stroke-width:0.13229167;stroke-linecap:round;stroke-linejoin:round;stroke-miterlimit:4;stroke-dasharray:none;stroke-dashoffset:0;stroke-opacity:1"
         inkscape:connector-curvature="0" />
      <path
         inkscape:connector-curvature="0"
         style="opacity:1;vector-effect:none;fill:none;fill-opacity:1;stroke:#000000;stroke-width:0.13229167;stroke-linecap:round;stroke-linejoin:round;stroke-miterlimit:4;stroke-dasharray:none;stroke-dashoffset:0;stroke-opacity:1"
         d="m 73.563785,38.97637 c 0.401969,-0.297488 0.832449,-0.47369 1.235632,-0.473776 1.299026,-2.77e-4 2.352284,1.231722 2.352159,3.054574 -1.27e-4,1.822603 -1.053312,4.245964 -2.352159,4.245687 -0.396324,-8.5e-5 -0.819042,-0.170355 -1.21513,-0.458724"
         id="path2776"
         inkscape:label="ear_right"
         sodipodi:nodetypes="csssc" />
    </g>
    <g
       inkscape:groupmode="layer"
       id="layer2"
       inkscape:label="_cheek_low"
       style="display:inline">
      <path
         style="opacity:1;vector-effect:none;fill:none;fill-opacity:1;stroke:#000000;stroke-width:0.5;stroke-linecap:round;stroke-linejoin:round;stroke-miterlimit:4;stroke-dasharray:none;stroke-dashoffset:0;stroke-opacity:1"
         d="m 202.32812,86.9375 c -15.7951,0 -57.01953,12.335363 -57.01953,50.80664 0,5.46031 0.2884,10.20841 0.77539,14.41016 -0.2651,0.007 -0.52928,0.0304 -0.79101,0.0898 -3.5418,0.80423 -5.7631,4.32211 -4.41602,10.24609 1.3469,5.92317 5.75012,12.00709 9.29102,11.20118 0.42589,-0.0969 0.82473,-0.26411 1.19726,-0.48829 2.50227,6.12174 5.18386,10.67648 6.7793,15.9004 9.15599,29.97926 25.51723,38.89898 38.0957,41.51953 3.04539,1.73563 8.86645,2.91208 15.55665,2.91211 6.69018,-3e-5 12.51125,-1.17648 15.55664,-2.91211 12.57903,-2.62055 28.94168,-11.54027 38.09765,-41.51953 1.58467,-5.18862 4.24316,-9.71213 6.73047,-15.77149 0.30073,0.15457 0.61228,0.28358 0.94531,0.35938 3.5409,0.80591 7.94412,-5.27801 9.29102,-11.20118 1.34708,-5.92398 -0.87422,-9.44186 -4.41602,-10.24609 -0.16376,-0.0372 -0.32887,-0.054 -0.49414,-0.0703 0.48828,-4.2065 0.77735,-8.96098 0.77735,-14.42969 0,-38.471277 -41.22244,-50.80664 -57.01758,-50.80664 h -9.4707 z"
         transform="scale(0.26458333)"
         id="rect23538-3"
         inkscape:connector-curvature="0" />
    </g>
    <g
       inkscape:groupmode="layer"
       id="layer3"
       inkscape:label="_cheek_high"
       style="display:inline">
      <path
         style="opacity:1;vector-effect:none;fill:none;fill-opacity:1;stroke:#000000;stroke-width:0.5;stroke-linecap:round;stroke-linejoin:round;stroke-miterlimit:4;stroke-dasharray:none;stroke-dashoffset:0;stroke-opacity:1"
         d="m 202.32812,86.9375 c -15.7951,0 -57.01953,12.335363 -57.01953,50.80664 0,1.38786 0.11165,4.68722 -0.16211,9.0293 -3.14184,-0.50671 -6.34888,1.50167 -8.08789,6.70508 -1.92541,5.76115 -1.32333,13.24608 2.1211,14.39648 0.46979,0.1569 0.95798,0.2169 1.45312,0.19922 -0.28148,0.70751 -0.56688,1.41501 -0.88281,2.11914 -15.10484,33.66545 7.0226,55.14848 44.32422,60.29297 2.25899,3.26438 18.0103,5.26168 27.72266,5.26172 9.68698,-4e-5 24.26231,-2.25274 27.63867,-5.25 37.35387,-5.1232 59.52471,-26.61325 44.4082,-60.30469 -0.31619,-0.70473 -0.60308,-1.41298 -0.88477,-2.12109 0.49587,0.0179 0.98463,-0.0401 1.45508,-0.19727 3.44443,-1.1504 4.04651,-8.63533 2.1211,-14.39648 -1.73917,-5.20388 -4.94577,-7.2123 -8.08789,-6.70508 -0.27376,-4.34217 -0.16211,-7.64144 -0.16211,-9.0293 0,-38.471277 -41.22248,-50.80664 -57.01758,-50.80664 h -9.4707 z"
         transform="scale(0.26458333)"
         id="rect23538-6"
         inkscape:connector-curvature="0" />
    </g>
    <g
       style="display:inline"
       id="g2830"
       inkscape:groupmode="layer"
       inkscape:label="_chin">
      <path
         inkscape:label="chin"
         inkscape:connector-curvature="0"
         sodipodi:nodetypes="ccc"
         id="path2822"
         d="m 50.721419,60.269043 c -3e-6,1.02472 2.876644,3.793327 5.31654,2.384653 2.56882,1.483109 5.316538,-1.359933 5.316535,-2.384653"
         style="opacity:1;vector-effect:none;fill:none;fill-opacity:1;stroke:#000000;stroke-width:0.13229167;stroke-linecap:round;stroke-linejoin:round;stroke-miterlimit:4;stroke-dasharray:none;stroke-dashoffset:0;stroke-opacity:1" />
      <path
         inkscape:label="frame"
         id="path2824"
         d="M 0.47805685,0.47804646 V 111.59788 H 111.59789 V 0.47804646 Z M 56.037975,2.7678295 A 53.270417,53.270417 0 0 1 109.30863,56.037972 53.270417,53.270417 0 0 1 56.037975,109.30862 53.270417,53.270417 0 0 1 2.7678399,56.037972 53.270417,53.270417 0 0 1 56.037975,2.7678295 Z"
         style="opacity:1;vector-effect:none;fill:#000000;fill-opacity:1;stroke:none;stroke-width:0.07357386;stroke-linecap:round;stroke-linejoin:round;stroke-miterlimit:4;stroke-dasharray:none;stroke-dashoffset:0;stroke-opacity:1"
         inkscape:connector-curvature="0" />
    </g>
  </g>
  <g
     inkscape:groupmode="layer"
     id="layer5"
     inkscape:label="default"
     style="display:inline">
    <path
       style="display:inline;opacity:1;vector-effect:none;fill:#ffffff;fill-opacity:1;stroke:none;stroke-width:0.02638366;stroke-linecap:round;stroke-linejoin:round;stroke-miterlimit:4;stroke-dasharray:none;stroke-dashoffset:0;stroke-opacity:1"
       d="m 49.734948,64.405888 c -1.003615,0 -1.104842,0.137459 -1.104842,0.137459 l -1.609203,1.404048 c 0.0064,0.05516 0.01414,0.110681 0.02067,0.165881 -3.969171,0.720582 -7.338012,1.913297 -9.819039,3.417363 -2.856836,1.731888 -4.55607,3.893497 -4.563028,6.230628 -5.8e-5,0.0026 -5.8e-5,0.0052 0,0.0078 0.0028,0.07621 0.01146,0.154101 0.01757,0.23151 -0.0114,0.02389 -0.0173,0.04959 -0.01757,0.07596 l -0.39481,33.595843 H 79.847323 L 79.50574,76.07701 c -2.64e-4,-0.02638 -0.0058,-0.0526 -0.01757,-0.07648 0.0071,-0.07743 0.01429,-0.15558 0.01757,-0.230992 4.3e-5,-0.0026 4.3e-5,-0.0052 0,-0.0078 -0.0071,-2.337136 -1.706718,-4.49874 -4.563546,-6.230628 -2.481369,-1.50427 -5.850724,-2.697332 -9.820587,-3.417879 0.0065,-0.05503 0.01427,-0.110374 0.02067,-0.165365 l -1.60972,-1.404564 c -0.0028,0.0063 -0.006,0.0123 -0.0088,0.0186 l -0.02119,-0.01809 c 0,0 -0.101211,-0.137459 -1.104844,-0.137459 l -0.0072,1.488282 0.425815,0.04496 c -1.642959,2.834706 -4.145558,5.078664 -6.73499,7.262606 -2.590535,-2.184866 -5.094134,-4.429403 -6.737056,-7.265707 l 0.397907,-0.04237 z"
       id="path844"
       inkscape:connector-curvature="0"
       class="col_1" />
    <path
       style="display:inline;opacity:0.1;vector-effect:none;fill:#000000;fill-opacity:1;stroke:none;stroke-width:0.06595914;stroke-linecap:butt;stroke-linejoin:miter;stroke-miterlimit:4;stroke-dasharray:none;stroke-dashoffset:0;stroke-opacity:1"
       d="m 64.8317,68.301255 c -0.348417,2.349342 -0.825177,4.741222 -1.504818,7.201112 -2.265206,-0.91699 -4.61736,-1.746621 -7.245551,-2.300634 -2.628191,0.554013 -4.980331,1.384162 -7.245553,2.30115 -0.633598,-2.293255 -1.088152,-4.526735 -1.429369,-6.722586 0.148812,2.241698 0.0715,4.541139 0.727604,6.915856 1.72e-4,2.65e-4 2.51e-4,7.94e-4 5.29e-4,0.0011 0.114514,0.411896 0.578911,0.640609 0.975135,0.480074 2.024496,-0.819539 4.132807,-2.064941 6.417178,-2.600876 0.223972,-0.05254 0.390366,-0.108804 0.555006,-0.150894 2.507972,0.541528 4.772302,1.861851 6.970633,2.75177 0.396202,0.160528 0.860628,-0.06817 0.975135,-0.480074 1.72e-4,-2.64e-4 2.51e-4,-7.93e-4 5.29e-4,-0.0011 0.702762,-2.543574 0.644543,-5.00095 0.803568,-7.394898 z"
       id="path211"
       inkscape:connector-curvature="0"
       sodipodi:nodetypes="ccccccccccccccc" />
    <path
       style="display:inline;opacity:0.2;vector-effect:none;fill:#000000;fill-opacity:1;stroke:none;stroke-width:0.06595914;stroke-linecap:butt;stroke-linejoin:miter;stroke-miterlimit:4;stroke-dasharray:none;stroke-dashoffset:0;stroke-opacity:1"
       d="m 49.734948,64.405888 c -1.003615,0 -1.104842,0.137459 -1.104842,0.137459 0.213802,0.480927 0.454044,0.943607 0.714169,1.392679 l 0.397907,-0.04186 z m 12.662792,0 -0.0072,1.488281 0.425815,0.04496 c 0.25753,-0.444336 0.495237,-0.902214 0.707448,-1.377694 l -0.02119,-0.01809 c 0,0 -0.101216,-0.137459 -1.104844,-0.137459 z"
       id="path959"
       inkscape:connector-curvature="0"
       sodipodi:nodetypes="cccccccccccc" />
    <path
       style="color:#000000;font-style:normal;font-variant:normal;font-weight:normal;font-stretch:normal;font-size:medium;line-height:normal;font-family:sans-serif;font-variant-ligatures:normal;font-variant-position:normal;font-variant-caps:normal;font-variant-numeric:normal;font-variant-alternates:normal;font-feature-settings:normal;text-indent:0;text-align:start;text-decoration:none;text-decoration-line:none;text-decoration-style:solid;text-decoration-color:#000000;letter-spacing:normal;word-spacing:normal;text-transform:none;writing-mode:lr-tb;direction:ltr;text-orientation:mixed;dominant-baseline:auto;baseline-shift:baseline;text-anchor:start;white-space:normal;shape-padding:0;clip-rule:nonzero;display:inline;overflow:visible;visibility:visible;opacity:0.2;isolation:auto;mix-blend-mode:normal;color-interpolation:sRGB;color-interpolation-filters:linearRGB;solid-color:#000000;solid-opacity:1;vector-effect:none;fill:#000000;fill-opacity:1;fill-rule:nonzero;stroke:none;stroke-width:0.1984375;stroke-linecap:round;stroke-linejoin:round;stroke-miterlimit:4;stroke-dasharray:none;stroke-dashoffset:0;stroke-opacity:1;color-rendering:auto;image-rendering:auto;shape-rendering:auto;text-rendering:auto;enable-background:accumulate"
       d="m 69.577148,82.559299 c -0.0029,4.7e-5 -0.0059,2.11e-4 -0.0088,5.18e-4 -0.05521,0.0059 -0.09481,0.05601 -0.08785,0.111104 l 0.399457,19.861319 h 0.197922 l -0.39996,-19.882507 c -0.0046,-0.05194 -0.04864,-0.09145 -0.100769,-0.09043 z"
       id="path1330"
       inkscape:connector-curvature="0" />
    <path
       style="color:#000000;font-style:normal;font-variant:normal;font-weight:normal;font-stretch:normal;font-size:medium;line-height:normal;font-family:sans-serif;font-variant-ligatures:normal;font-variant-position:normal;font-variant-caps:normal;font-variant-numeric:normal;font-variant-alternates:normal;font-feature-settings:normal;text-indent:0;text-align:start;text-decoration:none;text-decoration-line:none;text-decoration-style:solid;text-decoration-color:#000000;letter-spacing:normal;word-spacing:normal;text-transform:none;writing-mode:lr-tb;direction:ltr;text-orientation:mixed;dominant-baseline:auto;baseline-shift:baseline;text-anchor:start;white-space:normal;shape-padding:0;clip-rule:nonzero;display:inline;overflow:visible;visibility:visible;opacity:0.2;isolation:auto;mix-blend-mode:normal;color-interpolation:sRGB;color-interpolation-filters:linearRGB;solid-color:#000000;solid-opacity:1;vector-effect:none;fill:#000000;fill-opacity:1;fill-rule:nonzero;stroke:none;stroke-width:0.1984375;stroke-linecap:round;stroke-linejoin:round;stroke-miterlimit:4;stroke-dasharray:none;stroke-dashoffset:0;stroke-opacity:1;color-rendering:auto;image-rendering:auto;shape-rendering:auto;text-rendering:auto;enable-background:accumulate"
       d="m 42.840796,82.891062 c -0.0036,-2.1e-5 -0.0072,1.43e-4 -0.01085,5.16e-4 -0.04696,0.0052 -0.08371,0.04285 -0.08785,0.08992 l -0.393258,19.550742 h 0.199472 l 0.391192,-19.528522 c 0.0078,-0.05955 -0.03865,-0.112332 -0.0987,-0.112139 z"
       id="path1328"
       inkscape:connector-curvature="0" />
    <path
       style="color:#000000;font-style:normal;font-variant:normal;font-weight:normal;font-stretch:normal;font-size:medium;line-height:normal;font-family:sans-serif;font-variant-ligatures:normal;font-variant-position:normal;font-variant-caps:normal;font-variant-numeric:normal;font-variant-alternates:normal;font-feature-settings:normal;text-indent:0;text-align:start;text-decoration:none;text-decoration-line:none;text-decoration-style:solid;text-decoration-color:#000000;letter-spacing:normal;word-spacing:normal;text-transform:none;writing-mode:lr-tb;direction:ltr;text-orientation:mixed;dominant-baseline:auto;baseline-shift:baseline;text-anchor:start;white-space:normal;shape-padding:0;clip-rule:nonzero;display:inline;overflow:visible;visibility:visible;opacity:0.2;isolation:auto;mix-blend-mode:normal;color-interpolation:sRGB;color-interpolation-filters:linearRGB;solid-color:#000000;solid-opacity:1;vector-effect:none;fill:#000000;fill-opacity:1;fill-rule:nonzero;stroke:none;stroke-width:0.1984375;stroke-linecap:round;stroke-linejoin:round;stroke-miterlimit:4;stroke-dasharray:none;stroke-dashoffset:0;stroke-opacity:1;color-rendering:auto;image-rendering:auto;shape-rendering:auto;text-rendering:auto;enable-background:accumulate"
       d="m 64.900431,66.083819 -0.0098,0.09767 c -0.268618,2.958589 -1.200237,7.454881 -1.708938,9.062495 -2.270149,-0.832742 -4.536342,-1.832174 -6.872968,-2.16576 l -0.09767,-0.01394 -0.02739,0.195337 0.09767,0.01601 c 2.336199,0.333523 4.625567,1.35156 6.941177,2.195213 l 0.0956,0.03514 0.03359,-0.09767 c 0.51721,-1.596644 1.464093,-6.193735 1.737881,-9.209257 l 0.0083,-0.09767 z"
       id="path1318"
       inkscape:connector-curvature="0" />
    <path
       style="color:#000000;font-style:normal;font-variant:normal;font-weight:normal;font-stretch:normal;font-size:medium;line-height:normal;font-family:sans-serif;font-variant-ligatures:normal;font-variant-position:normal;font-variant-caps:normal;font-variant-numeric:normal;font-variant-alternates:normal;font-feature-settings:normal;text-indent:0;text-align:start;text-decoration:none;text-decoration-line:none;text-decoration-style:solid;text-decoration-color:#000000;letter-spacing:normal;word-spacing:normal;text-transform:none;writing-mode:lr-tb;direction:ltr;text-orientation:mixed;dominant-baseline:auto;baseline-shift:baseline;text-anchor:start;white-space:normal;shape-padding:0;clip-rule:nonzero;display:inline;overflow:visible;visibility:visible;opacity:0.2;isolation:auto;mix-blend-mode:normal;color-interpolation:sRGB;color-interpolation-filters:linearRGB;solid-color:#000000;solid-opacity:1;vector-effect:none;fill:#000000;fill-opacity:1;fill-rule:nonzero;stroke:none;stroke-width:0.1984375;stroke-linecap:round;stroke-linejoin:round;stroke-miterlimit:4;stroke-dasharray:none;stroke-dashoffset:0;stroke-opacity:1;color-rendering:auto;image-rendering:auto;shape-rendering:auto;text-rendering:auto;enable-background:accumulate"
       d="m 47.259647,66.083819 -0.197403,0.01757 0.0098,0.09767 c 0.273786,3.015522 1.221187,7.612612 1.738395,9.209256 l 0.03152,0.09767 0.09767,-0.03514 c 2.31561,-0.843653 4.60498,-1.86169 6.941177,-2.195213 l 0.09767,-0.01601 -0.02739,-0.195334 -0.09974,0.01394 c -2.337194,0.333669 -4.602263,1.332897 -6.872967,2.16576 -0.508701,-1.607613 -1.44032,-6.103905 -1.708938,-9.062495 z"
       id="path279"
       inkscape:connector-curvature="0" />
    <path
       style="display:inline;opacity:1;vector-effect:none;fill:#3737c8;fill-opacity:1;stroke:none;stroke-width:0.05709152;stroke-linecap:butt;stroke-linejoin:miter;stroke-miterlimit:4;stroke-dasharray:none;stroke-dashoffset:0;stroke-opacity:1"
       d="m 56.081335,73.201674 c -0.65962,0.124227 -1.29621,0.269025 -1.91875,0.426331 -0.19784,0.302776 -0.30257,0.646758 -0.30334,0.997354 -5e-5,0.62537 0.32384,1.183042 0.82941,1.547191 l -1.78801,30.95626 3.18172,2.70474 3.18172,-2.70474 -1.78749,-30.956776 c 0.50536,-0.364151 0.82946,-0.92144 0.82941,-1.546675 -8e-4,-0.350631 -0.10593,-0.694615 -0.30386,-0.997354 -0.62302,-0.157441 -1.26072,-0.302017 -1.92081,-0.426331 z"
       id="path916"
       class="col_2"
       inkscape:connector-curvature="0"
       inkscape:label="tie" />
    <path
       style="display:inline;opacity:0.5;vector-effect:none;fill:#000000;fill-opacity:1;stroke:none;stroke-width:0.06595914;stroke-linecap:butt;stroke-linejoin:miter;stroke-miterlimit:4;stroke-dasharray:none;stroke-dashoffset:0;stroke-opacity:1"
       d="m 54.704175,76.168074 c 1.1001,1.026604 1.9981,0.673036 2.73051,-0.0121 -0.8336,0.206629 -1.80018,0.256867 -2.73051,0.0121 z"
       id="path944"
       inkscape:connector-curvature="0"
       sodipodi:nodetypes="ccc"
       inkscape:label="tie_detail" />
    <path
       style="color:#000000;font-style:normal;font-variant:normal;font-weight:normal;font-stretch:normal;font-size:medium;line-height:normal;font-family:sans-serif;font-variant-ligatures:normal;font-variant-position:normal;font-variant-caps:normal;font-variant-numeric:normal;font-variant-alternates:normal;font-feature-settings:normal;text-indent:0;text-align:start;text-decoration:none;text-decoration-line:none;text-decoration-style:solid;text-decoration-color:#000000;letter-spacing:normal;word-spacing:normal;text-transform:none;writing-mode:lr-tb;direction:ltr;text-orientation:mixed;dominant-baseline:auto;baseline-shift:baseline;text-anchor:start;white-space:normal;shape-padding:0;clip-rule:nonzero;display:inline;overflow:visible;visibility:visible;opacity:0.2;isolation:auto;mix-blend-mode:normal;color-interpolation:sRGB;color-interpolation-filters:linearRGB;solid-color:#000000;solid-opacity:1;vector-effect:none;fill:#000000;fill-opacity:1;fill-rule:nonzero;stroke:none;stroke-width:0.1984375;stroke-linecap:round;stroke-linejoin:round;stroke-miterlimit:4;stroke-dasharray:none;stroke-dashoffset:0;stroke-opacity:1;color-rendering:auto;image-rendering:auto;shape-rendering:auto;text-rendering:auto;enable-background:accumulate"
       d="m 44.607422,86.072266 a 0.09922867,0.09922867 0 0 0 -0.08984,0.09961 v 1.714844 a 0.09922867,0.09922867 0 1 0 0.197266,0 v -1.615235 h 8.046875 v 0.523438 a 0.0996095,0.0996095 0 1 0 0.199219,0 v -0.623047 a 0.09922867,0.09922867 0 0 0 -0.09961,-0.09961 h -8.24414 a 0.09922867,0.09922867 0 0 0 -0.0098,0 z"
       id="path266"
       inkscape:connector-curvature="0" />
    <path
       style="display:inline;opacity:1;vector-effect:none;fill:#000080;fill-opacity:1;stroke:none;stroke-width:0.25466502;stroke-linecap:round;stroke-linejoin:round;stroke-miterlimit:4;stroke-dasharray:none;stroke-dashoffset:0;stroke-opacity:1"
       d="m 51.847604,82.630276 -0.32774,3.424715 h 0.3838 v 1.871642 c 0,0.4107 0.437189,0.403891 0.437189,0.01396 v -1.885582 h 0.379098 L 52.39221,82.630295 Z"
       id="rect268"
       inkscape:connector-curvature="0"
       sodipodi:nodetypes="cccsscccc"
       inkscape:label="pen" />
  </g>
  <g
     style="display:none"
     inkscape:label="pen_pos"
     id="g356"
     inkscape:groupmode="layer">
    <path
       sodipodi:nodetypes="cccsscccc"
       inkscape:connector-curvature="0"
       id="path354"
       d="m 45.199136,82.630276 -0.32774,3.424715 h 0.3838 v 1.871642 c 0,0.4107 0.437189,0.403891 0.437189,0.01396 v -1.885582 h 0.379098 l -0.327741,-3.424716 z"
       style="display:inline;opacity:1;vector-effect:none;fill:#000080;fill-opacity:1;stroke:none;stroke-width:0.25466502;stroke-linecap:round;stroke-linejoin:round;stroke-miterlimit:4;stroke-dasharray:none;stroke-dashoffset:0;stroke-opacity:1"
       inkscape:label="pen" />
  </g>
  <g
     inkscape:groupmode="layer"
     id="layer7"
     inkscape:label="%0.5 no_pocket"
     style="display:none">
    <path
       style="opacity:1;vector-effect:none;fill:#ffffff;fill-opacity:1;stroke:none;stroke-width:0.5;stroke-linecap:round;stroke-linejoin:round;stroke-miterlimit:4;stroke-dasharray:none;stroke-dashoffset:0;stroke-opacity:1"
       d="m 45.049171,82.492808 -1.021814,5.946408 9.514597,-0.199648 -1.03727,-5.709248 z"
       id="path332"
       inkscape:connector-curvature="0"
       sodipodi:nodetypes="ccccc"
       class="col_1" />
  </g>
  <g
     inkscape:groupmode="layer"
     id="layer8"
     inkscape:label="%0.9999 tie_clip"
     style="display:none">
    <path
       style="opacity:1;vector-effect:none;fill:#ffcc00;fill-opacity:1;stroke:none;stroke-width:0.29835391;stroke-linecap:round;stroke-linejoin:round;stroke-miterlimit:4;stroke-dasharray:none;stroke-dashoffset:0;stroke-opacity:1"
       d="m 54.124862,86.240214 c -0.32653,0 -0.589629,0.262581 -0.589629,0.589111 0,0.32653 0.263099,0.589626 0.589629,0.589626 h 2.98328 c 0.326528,0 0.589627,-0.263096 0.589627,-0.589626 0,-0.32653 -0.263099,-0.589111 -0.589627,-0.589111 z"
       id="rect359"
       inkscape:connector-curvature="0" />
  </g>
  <g
     inkscape:groupmode="layer"
     id="layer9"
     inkscape:label="%0.15 messy_tie"
     style="display:none">
    <path
       style="display:inline;opacity:1;vector-effect:none;fill:#ffffff;fill-opacity:1;stroke:none;stroke-width:0.5;stroke-linecap:round;stroke-linejoin:round;stroke-miterlimit:4;stroke-dasharray:none;stroke-dashoffset:0;stroke-opacity:1"
       d="m 54.067574,94.881698 -1.873401,0.07069 0.106042,12.936972 3.78215,1.94419 4.022995,-1.75845 z"
       id="path380"
       inkscape:connector-curvature="0"
       sodipodi:nodetypes="cccccc"
       class="col_1" />
    <path
       style="display:inline;opacity:1;vector-effect:none;fill:#3737c8;fill-opacity:1;stroke:none;stroke-width:0.05709152;stroke-linecap:butt;stroke-linejoin:miter;stroke-miterlimit:4;stroke-dasharray:none;stroke-dashoffset:0;stroke-opacity:1"
       d="m 53.604409,95.202688 c 0,3.11005 1.142621,7.914632 2.724508,10.404962 l 4.007789,1.17329 1.803243,-3.7666 c -1.745781,-3.021795 -3.336651,-4.869 -3.714356,-10.318146 l -4.789738,2.072732 z"
       id="path916-3"
       class="col_2"
       inkscape:connector-curvature="0"
       sodipodi:nodetypes="ccccccc" />
    <path
       style="opacity:1;vector-effect:none;fill:#3737c8;fill-opacity:1;stroke:none;stroke-width:0.5;stroke-linecap:round;stroke-linejoin:round;stroke-miterlimit:4;stroke-dasharray:none;stroke-dashoffset:0;stroke-opacity:1"
       d="m 54.435435,88.392536 c -0.01722,-2.01e-4 -0.01826,0.02212 -5.29e-4,0.07131 -0.179409,0.62212 -0.362357,1.283952 -0.544153,1.969389 l 2.346627,0.275437 0.02739,2.145088 c 0.172738,-0.610362 0.34649,-1.226254 0.517281,-1.855184 -0.516866,-0.488051 -2.180082,-2.604085 -2.346629,-2.606043 z m -0.774628,2.944005 c -1.119743,4.391896 -2.129838,9.643429 -1.967839,13.449309 l 1.66088,1.17306 0.930693,-1.63711 c -0.02302,-0.94659 0.01185,-1.85647 0.08992,-2.74195 -1.44459,-4.375041 -0.908497,-7.065126 -0.713652,-10.243309 z"
       id="path382"
       inkscape:connector-curvature="0"
       sodipodi:nodetypes="cccccccccccccc"
       class="col_2" />
  </g>
  <g
     inkscape:groupmode="layer"
     id="layer10"
     inkscape:label="%0.05 nametag"
     style="display:none">
    <g
       id="g445"
       transform="rotate(-8.9145557,64.685098,88.443872)">
      <path
         style="opacity:1;vector-effect:none;fill:#aa0000;fill-opacity:1;stroke:none;stroke-width:0.24855053;stroke-linecap:round;stroke-linejoin:round;stroke-miterlimit:4;stroke-dasharray:none;stroke-dashoffset:0;stroke-opacity:1"
         d="m 67.449904,85.595609 c -0.02408,-6.29e-4 -0.04861,0.0012 -0.07329,0.0055 l -6.192974,1.091612 c -0.197458,0.03482 -0.328712,0.222114 -0.293896,0.419573 l 0.68446,3.881032 c 0.03482,0.197458 0.221583,0.328204 0.419044,0.293388 l 6.19348,-1.092139 C 68.384191,90.159769 68.514937,89.973 68.48012,89.77554 l -0.683942,-3.881044 c -0.03046,-0.172774 -0.177721,-0.294464 -0.346272,-0.2989 z"
         id="rect404"
         inkscape:connector-curvature="0" />
      <path
         sodipodi:nodetypes="ccccc"
         inkscape:connector-curvature="0"
         id="rect406"
         d="m 61.279197,88.457037 0.440331,2.49724 6.610583,-1.165625 -0.440331,-2.49724 z"
         style="opacity:1;vector-effect:none;fill:#ffffff;fill-opacity:1;stroke:none;stroke-width:0.22745466;stroke-linecap:round;stroke-linejoin:round;stroke-miterlimit:4;stroke-dasharray:none;stroke-dashoffset:0;stroke-opacity:1" />
      <path
         style="font-style:normal;font-variant:normal;font-weight:normal;font-stretch:normal;font-size:1.16027057px;line-height:1.25;font-family:Montserrat;-inkscape-font-specification:Montserrat;text-align:start;letter-spacing:0px;word-spacing:0px;text-anchor:start;fill:#ffffff;fill-opacity:1;stroke:none;stroke-width:0.07251691"
         d="m 66.008737,86.295863 c -0.04024,-0.0021 -0.08189,4.67e-4 -0.124927,0.0081 -0.08608,0.01518 -0.160277,0.04677 -0.222523,0.09467 -0.06224,0.04789 -0.107065,0.106926 -0.134632,0.177765 -0.0277,0.07008 -0.03465,0.145238 -0.02054,0.225222 0.0141,0.07999 0.04628,0.148813 0.09642,0.205949 0.05,0.05637 0.112435,0.09627 0.187309,0.119981 0.07488,0.02371 0.155021,0.02818 0.2411,0.01301 0.08608,-0.01518 0.160277,-0.04677 0.222524,-0.09467 0.06225,-0.0479 0.107458,-0.107178 0.135159,-0.17726 0.02757,-0.07083 0.03411,-0.146259 0.02001,-0.226244 -0.0141,-0.07999 -0.04587,-0.148034 -0.09587,-0.204411 -0.05013,-0.05713 -0.11297,-0.09729 -0.187843,-0.121002 -0.03744,-0.01186 -0.07594,-0.01892 -0.116176,-0.02106 z m -0.9658,0.174866 -0.269418,0.04749 0.140754,0.800011 0.631044,-0.111193 -0.03704,-0.209142 -0.36111,0.0637 z m 0.92817,0.04909 c 0.01579,0.0016 0.0309,0.0055 0.04571,0.01154 0.03025,0.01116 0.05623,0.03032 0.07759,0.05797 0.02123,0.02689 0.0351,0.06065 0.04222,0.101023 0.0071,0.04037 0.0055,0.07741 -0.0051,0.110704 -0.01076,0.03253 -0.02827,0.05951 -0.05274,0.08111 -0.02384,0.02069 -0.05256,0.03397 -0.08607,0.03987 -0.03351,0.0059 -0.06553,0.0031 -0.09577,-0.008 -0.02961,-0.01206 -0.05482,-0.03163 -0.07605,-0.05851 -0.02138,-0.02765 -0.03565,-0.06167 -0.04277,-0.102043 -0.0071,-0.04038 -0.0056,-0.07662 0.0052,-0.109154 0.01062,-0.03329 0.02786,-0.06039 0.05171,-0.08109 0.02447,-0.0216 0.05357,-0.03502 0.0871,-0.04093 0.01676,-0.003 0.03326,-0.004 0.04906,-0.0025 z m -1.633389,0.0754 -0.269418,0.04749 0.140754,0.800011 0.631043,-0.111192 -0.03704,-0.209141 -0.36111,0.0637 z m -0.389438,0.06889 -0.650103,0.114655 0.14126,0.799485 0.665047,-0.117008 -0.0359,-0.203477 -0.40026,0.07064 -0.01853,-0.105088 0.338444,-0.05965 -0.03417,-0.194208 -0.338446,0.05965 -0.01625,-0.09376 0.384808,-0.06776 z m -0.780946,0.137807 -0.269933,0.0475 0.05033,0.283318 -0.249324,0.044 -0.04982,-0.283328 -0.269934,0.0475 0.141262,0.799485 0.269416,-0.04749 -0.05158,-0.294663 0.248809,-0.044 0.0521,0.294656 0.269418,-0.04749 z"
         id="text413"
         inkscape:connector-curvature="0" />
      <path
         inkscape:connector-curvature="0"
         id="path427"
         d="m 62.372087,88.584513 c -0.01468,0.0047 -0.02559,0.01521 -0.03811,0.02353 -0.04273,0.009 -0.08546,0.01832 -0.127237,0.03015 -0.200321,0.149505 -0.08472,0.346893 0.0851,0.360087 0.0053,0.07095 0.0038,0.142636 0.0025,0.213273 -0.0047,0.185456 -0.05162,0.366683 -0.116162,0.539657 -0.02069,0.05924 -0.05982,0.111065 -0.07537,0.171779 -0.02085,0.08487 0.03885,0.175998 0.123901,0.193315 0.08728,0.02491 0.181966,-0.03818 0.199756,-0.125514 0.01067,-0.06488 0.02701,-0.128569 0.04244,-0.192387 0.291201,0.140659 0.685519,-0.199997 1.001209,-0.218802 0.04705,-0.04722 0.24647,-0.03848 0.329635,-0.04807 -0.05325,0.227395 0.37381,0.285544 0.500428,0.06257 0.06444,-0.104984 0.391124,-0.222232 0.424991,-0.253597 0.196291,0.22763 0.551986,0.01163 0.805585,-0.04263 0.328514,-0.154625 -0.01449,-0.523844 -0.250082,-0.290655 -0.212065,0.182336 -0.378155,-0.06794 -0.580302,-0.03071 -0.167587,0.117354 -0.430935,0.27254 -0.580218,0.351089 -0.05132,-0.09665 -0.167242,-0.216811 -0.27383,-0.144784 -0.141572,0.04981 -0.280582,0.107333 -0.422073,0.15847 0.224236,-0.127434 0.350623,-0.435756 0.09954,-0.612129 -0.315324,-0.146857 -0.674616,-0.188284 -1.021184,-0.145081 -0.04225,-0.01392 -0.08845,-0.01666 -0.130555,4.47e-4 z m 3.658758,-0.481846 c -0.270087,0.01783 -0.303432,0.48771 -0.319733,0.71435 -0.03641,0.426096 0.422958,0.768931 0.816729,0.581682 0.08482,0.0029 0.295283,-0.188167 0.328353,-0.243284 0.119101,0.02329 0.285016,0.333537 0.460805,0.298163 0.209983,-0.123753 0.291517,-0.380983 0.430323,-0.571999 -0.0059,-0.373822 -0.403441,-0.08316 -0.470617,0.122848 -0.0032,0.0027 -0.002,0.0022 -0.005,0.0047 -0.119691,-0.09627 -0.294699,-0.184869 -0.439474,-0.22076 -0.288993,-0.07881 -0.288431,0.393694 -0.588079,0.333745 -0.310489,-0.06615 -0.282013,-0.523332 -0.07281,-0.690759 0.09221,-0.07594 0.09788,-0.242209 -0.0094,-0.306675 -0.04888,-0.01792 -0.09257,-0.02457 -0.131154,-0.02202 z m -3.362015,0.756588 c 0.210967,-0.04974 0.448111,-0.0038 0.616893,0.126557 -0.07723,0.142225 -0.442409,0.286352 -0.656364,0.191618 -0.01341,-0.0034 -0.02361,-0.0014 -0.03612,-0.0033 0.01485,-0.100008 0.02507,-0.200445 0.03286,-0.301162 0.01434,-0.0044 0.02809,-0.01033 0.04273,-0.01373 z"
         style="opacity:1;vector-effect:none;fill:#000000;fill-opacity:1;stroke:none;stroke-width:0.18162267;stroke-linecap:round;stroke-linejoin:round;stroke-miterlimit:4;stroke-dasharray:none;stroke-dashoffset:0;stroke-opacity:1" />
    </g>
  </g>
</svg>
