<?xml version="1.0" encoding="UTF-8" standalone="no"?>
<!-- Created with Inkscape (http://www.inkscape.org/) -->

<svg
   xmlns:dc="http://purl.org/dc/elements/1.1/"
   xmlns:cc="http://creativecommons.org/ns#"
   xmlns:rdf="http://www.w3.org/1999/02/22-rdf-syntax-ns#"
   xmlns:svg="http://www.w3.org/2000/svg"
   xmlns="http://www.w3.org/2000/svg"
   xmlns:xlink="http://www.w3.org/1999/xlink"
   xmlns:sodipodi="http://sodipodi.sourceforge.net/DTD/sodipodi-0.dtd"
   xmlns:inkscape="http://www.inkscape.org/namespaces/inkscape"
   width="112.07594mm"
   height="112.07593mm"
   viewBox="0 0 112.07594 112.07593"
   version="1.1"
   id="svg19053"
   sodipodi:docname="male_pro_5.svg"
   inkscape:version="0.92.3 (unknown)">
  <sodipodi:namedview
     pagecolor="#ffffff"
     bordercolor="#666666"
     borderopacity="1"
     objecttolerance="10"
     gridtolerance="10"
     guidetolerance="10"
     inkscape:pageopacity="0"
     inkscape:pageshadow="2"
     inkscape:window-width="1920"
     inkscape:window-height="1023"
     id="namedview29025"
     showgrid="false"
     inkscape:zoom="1.5722657"
     inkscape:cx="27.074053"
     inkscape:cy="215.40844"
     inkscape:window-x="0"
     inkscape:window-y="27"
     inkscape:window-maximized="1"
     inkscape:current-layer="layer17"
     showguides="false"
     inkscape:guide-bbox="true" />
  <defs
     id="defs19047">
    <linearGradient
       inkscape:collect="always"
       id="linearGradient2654">
      <stop
         style="stop-color:#000000;stop-opacity:1;"
         offset="0"
         id="stop2650" />
      <stop
         id="stop2658"
         offset="0.00000006"
         style="stop-color:#000000;stop-opacity:0.36078431;" />
      <stop
         style="stop-color:#000000;stop-opacity:0;"
         offset="1"
         id="stop2652" />
    </linearGradient>
    <linearGradient
       inkscape:collect="always"
       xlink:href="#linearGradient2654"
       id="linearGradient2656"
       x1="56.289223"
       y1="82.01561"
       x2="56.40601"
       y2="74.149467"
       gradientUnits="userSpaceOnUse" />
  </defs>
  <metadata
     id="metadata19050">
    <rdf:RDF>
      <cc:Work
         rdf:about="">
        <dc:format>image/svg+xml</dc:format>
        <dc:type
           rdf:resource="http://purl.org/dc/dcmitype/StillImage" />
        <dc:title />
      </cc:Work>
    </rdf:RDF>
  </metadata>
  <g
     inkscape:groupmode="layer"
     id="layer4"
     inkscape:label="ignore"
     style="display:inline"
     sodipodi:insensitive="true">
    <g
       inkscape:groupmode="layer"
       id="layer6"
       inkscape:label="bg 1">
      <rect
         style="display:inline;opacity:1;vector-effect:none;fill:#e6e6e6;fill-opacity:1;stroke:none;stroke-width:0.39687499;stroke-linecap:round;stroke-linejoin:round;stroke-miterlimit:4;stroke-dasharray:none;stroke-dashoffset:0;stroke-opacity:1"
         id="rect67"
         width="107.98977"
         height="106.73225"
         x="1.6504986"
         y="1.4925177" />
    </g>
    <g
       inkscape:label="bg"
       inkscape:groupmode="layer"
       id="layer1"
       style="display:inline">
      <path
         style="opacity:1;vector-effect:none;fill:#c8b7b7;fill-opacity:1;stroke:#000000;stroke-width:0.1;stroke-linecap:round;stroke-linejoin:round;stroke-miterlimit:4;stroke-dasharray:none;stroke-dashoffset:0;stroke-opacity:1"
         d="m 235.83203,229.4043 c -1.6728,0.46339 -3.3024,0.85916 -4.85937,1.17578 -2.55787,2.08659 -10.17503,3.59955 -19.17578,3.59961 -9.00077,-6e-5 -16.61792,-1.51302 -19.17579,-3.59961 -1.55625,-0.31648 -3.18544,-0.71072 -4.85742,-1.17383 v 19.65039 c -37.73053,4.53056 -63.99077,19.86474 -64.04297,37.39648 0.0166,0.39799 0.0452,0.7958 0.0899,1.19336 h -0.0899 v 125.35743 h 80.49219 7.58399 7.58398 80.49219 V 287.64648 h -0.0898 c 0.0446,-0.39756 0.0713,-0.79537 0.0898,-1.19336 -0.0522,-17.53174 -26.3105,-32.86592 -64.04102,-37.39648 z"
         transform="scale(0.26458333)"
         id="rect23540"
         inkscape:connector-curvature="0" />
      <path
         style="opacity:1;vector-effect:none;fill:#c8b7b7;fill-opacity:1;stroke:#000000;stroke-width:1;stroke-linecap:round;stroke-linejoin:round;stroke-miterlimit:4;stroke-dasharray:none;stroke-dashoffset:0;stroke-opacity:1"
         d="m 202.32812,86.9375 c -15.79511,0 -57.01953,12.335362 -57.01953,50.80664 v 10.58398 c -3.559,0.0833 -6.42026,3.017 -6.41992,9.00391 3.5e-4,5.98613 2.86137,12.7695 6.41992,12.96485 v 10.59179 c 0,31.8402 28.62946,45.89206 47.3125,49.69141 2.55787,2.08659 10.17502,3.59955 19.17579,3.59961 9.00076,-6e-5 16.61791,-1.51302 19.17578,-3.59961 18.68304,-3.79935 47.3125,-17.85121 47.3125,-49.69141 v -10.59179 c 3.55876,-0.19481 6.42152,-6.97847 6.42187,-12.96485 3.5e-4,-5.98716 -2.86266,-8.9208 -6.42187,-9.00391 v -10.58398 c 0,-38.471278 -41.22246,-50.80664 -57.01758,-50.80664 h -9.4707 z"
         transform="scale(0.26458333)"
         id="rect23538"
         inkscape:connector-curvature="0" />
      <path
         inkscape:connector-curvature="0"
         style="opacity:1;vector-effect:none;fill:#ffffff;fill-opacity:1;stroke:none;stroke-width:0.07357386;stroke-linecap:round;stroke-linejoin:round;stroke-miterlimit:4;stroke-dasharray:none;stroke-dashoffset:0;stroke-opacity:1"
         d="M 0.47805685,0.47804646 V 111.59788 H 111.59789 V 0.47804646 Z M 56.037975,2.7678295 A 53.270417,53.270417 0 0 1 109.30863,56.037972 53.270417,53.270417 0 0 1 56.037975,109.30862 53.270417,53.270417 0 0 1 2.7678399,56.037972 53.270417,53.270417 0 0 1 56.037975,2.7678295 Z"
         id="rect855"
         inkscape:label="frame" />
    </g>
    <g
       style="display:inline"
       id="g2778"
       inkscape:groupmode="layer"
       inkscape:label="_ear_size">
      <path
         sodipodi:nodetypes="csssc"
         inkscape:label="ear_left"
         id="path2774"
         d="m 38.334661,38.854136 c -0.349442,-0.222897 -0.713749,-0.351469 -1.058139,-0.351542 -1.299026,-2.77e-4 -2.352284,1.231722 -2.352159,3.054574 1.27e-4,1.822603 1.053312,4.245964 2.352159,4.245687 0.361348,-7.7e-5 0.744637,-0.141627 1.109678,-0.385173"
         style="opacity:1;vector-effect:none;fill:none;fill-opacity:1;stroke:#000000;stroke-width:0.13229167;stroke-linecap:round;stroke-linejoin:round;stroke-miterlimit:4;stroke-dasharray:none;stroke-dashoffset:0;stroke-opacity:1"
         inkscape:connector-curvature="0" />
      <path
         inkscape:connector-curvature="0"
         style="opacity:1;vector-effect:none;fill:none;fill-opacity:1;stroke:#000000;stroke-width:0.13229167;stroke-linecap:round;stroke-linejoin:round;stroke-miterlimit:4;stroke-dasharray:none;stroke-dashoffset:0;stroke-opacity:1"
         d="m 73.563785,38.97637 c 0.401969,-0.297488 0.832449,-0.47369 1.235632,-0.473776 1.299026,-2.77e-4 2.352284,1.231722 2.352159,3.054574 -1.27e-4,1.822603 -1.053312,4.245964 -2.352159,4.245687 -0.396324,-8.5e-5 -0.819042,-0.170355 -1.21513,-0.458724"
         id="path2776"
         inkscape:label="ear_right"
         sodipodi:nodetypes="csssc" />
    </g>
    <g
       inkscape:groupmode="layer"
       id="layer2"
       inkscape:label="_cheek_low"
       style="display:inline">
      <path
         style="opacity:1;vector-effect:none;fill:none;fill-opacity:1;stroke:#000000;stroke-width:0.5;stroke-linecap:round;stroke-linejoin:round;stroke-miterlimit:4;stroke-dasharray:none;stroke-dashoffset:0;stroke-opacity:1"
         d="m 202.32812,86.9375 c -15.7951,0 -57.01953,12.335363 -57.01953,50.80664 0,5.46031 0.2884,10.20841 0.77539,14.41016 -0.2651,0.007 -0.52928,0.0304 -0.79101,0.0898 -3.5418,0.80423 -5.7631,4.32211 -4.41602,10.24609 1.3469,5.92317 5.75012,12.00709 9.29102,11.20118 0.42589,-0.0969 0.82473,-0.26411 1.19726,-0.48829 2.50227,6.12174 5.18386,10.67648 6.7793,15.9004 9.15599,29.97926 25.51723,38.89898 38.0957,41.51953 3.04539,1.73563 8.86645,2.91208 15.55665,2.91211 6.69018,-3e-5 12.51125,-1.17648 15.55664,-2.91211 12.57903,-2.62055 28.94168,-11.54027 38.09765,-41.51953 1.58467,-5.18862 4.24316,-9.71213 6.73047,-15.77149 0.30073,0.15457 0.61228,0.28358 0.94531,0.35938 3.5409,0.80591 7.94412,-5.27801 9.29102,-11.20118 1.34708,-5.92398 -0.87422,-9.44186 -4.41602,-10.24609 -0.16376,-0.0372 -0.32887,-0.054 -0.49414,-0.0703 0.48828,-4.2065 0.77735,-8.96098 0.77735,-14.42969 0,-38.471277 -41.22244,-50.80664 -57.01758,-50.80664 h -9.4707 z"
         transform="scale(0.26458333)"
         id="rect23538-3"
         inkscape:connector-curvature="0" />
    </g>
    <g
       inkscape:groupmode="layer"
       id="layer3"
       inkscape:label="_cheek_high"
       style="display:inline">
      <path
         style="opacity:1;vector-effect:none;fill:none;fill-opacity:1;stroke:#000000;stroke-width:0.5;stroke-linecap:round;stroke-linejoin:round;stroke-miterlimit:4;stroke-dasharray:none;stroke-dashoffset:0;stroke-opacity:1"
         d="m 202.32812,86.9375 c -15.7951,0 -57.01953,12.335363 -57.01953,50.80664 0,1.38786 0.11165,4.68722 -0.16211,9.0293 -3.14184,-0.50671 -6.34888,1.50167 -8.08789,6.70508 -1.92541,5.76115 -1.32333,13.24608 2.1211,14.39648 0.46979,0.1569 0.95798,0.2169 1.45312,0.19922 -0.28148,0.70751 -0.56688,1.41501 -0.88281,2.11914 -15.10484,33.66545 7.0226,55.14848 44.32422,60.29297 2.25899,3.26438 18.0103,5.26168 27.72266,5.26172 9.68698,-4e-5 24.26231,-2.25274 27.63867,-5.25 37.35387,-5.1232 59.52471,-26.61325 44.4082,-60.30469 -0.31619,-0.70473 -0.60308,-1.41298 -0.88477,-2.12109 0.49587,0.0179 0.98463,-0.0401 1.45508,-0.19727 3.44443,-1.1504 4.04651,-8.63533 2.1211,-14.39648 -1.73917,-5.20388 -4.94577,-7.2123 -8.08789,-6.70508 -0.27376,-4.34217 -0.16211,-7.64144 -0.16211,-9.0293 0,-38.471277 -41.22248,-50.80664 -57.01758,-50.80664 h -9.4707 z"
         transform="scale(0.26458333)"
         id="rect23538-6"
         inkscape:connector-curvature="0" />
    </g>
    <g
       style="display:inline"
       id="g2830"
       inkscape:groupmode="layer"
       inkscape:label="_chin">
      <path
         inkscape:label="chin"
         inkscape:connector-curvature="0"
         sodipodi:nodetypes="ccc"
         id="path2822"
         d="m 50.721419,60.269043 c -3e-6,1.02472 2.876644,3.793327 5.31654,2.384653 2.56882,1.483109 5.316538,-1.359933 5.316535,-2.384653"
         style="opacity:1;vector-effect:none;fill:none;fill-opacity:1;stroke:#000000;stroke-width:0.13229167;stroke-linecap:round;stroke-linejoin:round;stroke-miterlimit:4;stroke-dasharray:none;stroke-dashoffset:0;stroke-opacity:1" />
      <path
         inkscape:label="frame"
         id="path2824"
         d="M 0.47805685,0.47804646 V 111.59788 H 111.59789 V 0.47804646 Z M 56.037975,2.7678295 A 53.270417,53.270417 0 0 1 109.30863,56.037972 53.270417,53.270417 0 0 1 56.037975,109.30862 53.270417,53.270417 0 0 1 2.7678399,56.037972 53.270417,53.270417 0 0 1 56.037975,2.7678295 Z"
         style="opacity:1;vector-effect:none;fill:#000000;fill-opacity:1;stroke:none;stroke-width:0.07357386;stroke-linecap:round;stroke-linejoin:round;stroke-miterlimit:4;stroke-dasharray:none;stroke-dashoffset:0;stroke-opacity:1"
         inkscape:connector-curvature="0" />
    </g>
  </g>
  <g
     inkscape:groupmode="layer"
     id="layer5"
     inkscape:label="default"
     style="display:inline">
    <path
       style="display:inline;opacity:1;vector-effect:none;fill:#ffffff;fill-opacity:1;stroke:none;stroke-width:0.02638366;stroke-linecap:round;stroke-linejoin:round;stroke-miterlimit:4;stroke-dasharray:none;stroke-dashoffset:0;stroke-opacity:1"
       d="m 49.734948,64.405888 c -1.003615,0 -1.104842,0.137459 -1.104842,0.137459 l -1.609203,1.404048 c 0.0064,0.05516 0.01413,0.110681 0.02066,0.165881 -3.969171,0.720582 -7.338013,1.913297 -9.81904,3.417363 -2.856835,1.731888 -4.556069,3.893497 -4.563027,6.230628 -5.9e-5,0.0026 -5.9e-5,0.0052 0,0.0078 0.0028,0.07621 0.01146,0.154102 0.01757,0.231511 -0.0114,0.02389 -0.0173,0.0496 -0.01757,0.07596 L 32.264691,109.67238 H 79.847317 L 79.505735,76.077013 c -2.65e-4,-0.02638 -0.0058,-0.0526 -0.01757,-0.07648 0.0071,-0.07743 0.01429,-0.155581 0.01757,-0.230992 4.2e-5,-0.0026 4.2e-5,-0.0052 0,-0.0078 -0.0071,-2.337136 -1.706719,-4.49874 -4.563547,-6.230628 -2.481368,-1.50427 -5.850725,-2.697332 -9.820587,-3.41788 0.0065,-0.05503 0.01426,-0.110373 0.02066,-0.165364 l -1.609719,-1.404565 c -0.0028,0.0063 -0.006,0.0123 -0.0088,0.0186 l -0.02119,-0.0181 c 0,0 -0.101211,-0.137459 -1.104844,-0.137459 l -0.0072,1.488281 0.425815,0.04496 c -1.613511,2.783896 -3.304066,5.996832 -4.520655,7.172172 L 56.49216,82.034727 53.964666,73.202192 C 51.374124,71.017373 50.987192,68.772835 49.34427,65.936531 l 0.397907,-0.04237 z"
       id="path844"
       inkscape:connector-curvature="0"
       sodipodi:nodetypes="ccccsccccccccccccccccccccccccc"
       class="col_1" />
    <path
       style="display:inline;opacity:0.2;vector-effect:none;fill:#000000;fill-opacity:1;stroke:none;stroke-width:0.06595914;stroke-linecap:butt;stroke-linejoin:miter;stroke-miterlimit:4;stroke-dasharray:none;stroke-dashoffset:0;stroke-opacity:1"
       d="m 49.734948,64.405888 c -1.003615,0 -1.104842,0.137459 -1.104842,0.137459 0.213802,0.480927 0.454044,0.943607 0.714169,1.392679 l 0.397907,-0.04186 z m 12.662792,0 -0.0072,1.488281 0.425815,0.04496 c 0.25753,-0.444336 0.495237,-0.902214 0.707448,-1.377694 l -0.02119,-0.01809 c 0,0 -0.101216,-0.137459 -1.104844,-0.137459 z"
       id="path959"
       inkscape:connector-curvature="0"
       sodipodi:nodetypes="cccccccccccc" />
    <path
       style="color:#000000;font-style:normal;font-variant:normal;font-weight:normal;font-stretch:normal;font-size:medium;line-height:normal;font-family:sans-serif;font-variant-ligatures:normal;font-variant-position:normal;font-variant-caps:normal;font-variant-numeric:normal;font-variant-alternates:normal;font-feature-settings:normal;text-indent:0;text-align:start;text-decoration:none;text-decoration-line:none;text-decoration-style:solid;text-decoration-color:#000000;letter-spacing:normal;word-spacing:normal;text-transform:none;writing-mode:lr-tb;direction:ltr;text-orientation:mixed;dominant-baseline:auto;baseline-shift:baseline;text-anchor:start;white-space:normal;shape-padding:0;clip-rule:nonzero;display:inline;overflow:visible;visibility:visible;opacity:0.2;isolation:auto;mix-blend-mode:normal;color-interpolation:sRGB;color-interpolation-filters:linearRGB;solid-color:#000000;solid-opacity:1;vector-effect:none;fill:#000000;fill-opacity:1;fill-rule:nonzero;stroke:none;stroke-width:0.1984375;stroke-linecap:round;stroke-linejoin:round;stroke-miterlimit:4;stroke-dasharray:none;stroke-dashoffset:0;stroke-opacity:1;color-rendering:auto;image-rendering:auto;shape-rendering:auto;text-rendering:auto;enable-background:accumulate"
       d="m 69.577148,82.559299 c -0.0029,4.7e-5 -0.0059,2.11e-4 -0.0088,5.18e-4 -0.05521,0.0059 -0.09481,0.05601 -0.08785,0.111104 l 0.399457,19.861319 h 0.197922 l -0.39996,-19.882507 c -0.0046,-0.05194 -0.04864,-0.09145 -0.100769,-0.09043 z"
       id="path1330"
       inkscape:connector-curvature="0" />
    <path
       style="color:#000000;font-style:normal;font-variant:normal;font-weight:normal;font-stretch:normal;font-size:medium;line-height:normal;font-family:sans-serif;font-variant-ligatures:normal;font-variant-position:normal;font-variant-caps:normal;font-variant-numeric:normal;font-variant-alternates:normal;font-feature-settings:normal;text-indent:0;text-align:start;text-decoration:none;text-decoration-line:none;text-decoration-style:solid;text-decoration-color:#000000;letter-spacing:normal;word-spacing:normal;text-transform:none;writing-mode:lr-tb;direction:ltr;text-orientation:mixed;dominant-baseline:auto;baseline-shift:baseline;text-anchor:start;white-space:normal;shape-padding:0;clip-rule:nonzero;display:inline;overflow:visible;visibility:visible;opacity:0.2;isolation:auto;mix-blend-mode:normal;color-interpolation:sRGB;color-interpolation-filters:linearRGB;solid-color:#000000;solid-opacity:1;vector-effect:none;fill:#000000;fill-opacity:1;fill-rule:nonzero;stroke:none;stroke-width:0.1984375;stroke-linecap:round;stroke-linejoin:round;stroke-miterlimit:4;stroke-dasharray:none;stroke-dashoffset:0;stroke-opacity:1;color-rendering:auto;image-rendering:auto;shape-rendering:auto;text-rendering:auto;enable-background:accumulate"
       d="m 42.840796,82.891062 c -0.0036,-2.1e-5 -0.0072,1.43e-4 -0.01085,5.16e-4 -0.04696,0.0052 -0.08371,0.04285 -0.08785,0.08992 l -0.393258,19.550742 h 0.199472 l 0.391192,-19.528522 c 0.0078,-0.05955 -0.03865,-0.112332 -0.0987,-0.112139 z"
       id="path1328"
       inkscape:connector-curvature="0" />
    <path
       style="color:#000000;font-style:normal;font-variant:normal;font-weight:normal;font-stretch:normal;font-size:medium;line-height:normal;font-family:sans-serif;font-variant-ligatures:normal;font-variant-position:normal;font-variant-caps:normal;font-variant-numeric:normal;font-variant-alternates:normal;font-feature-settings:normal;text-indent:0;text-align:start;text-decoration:none;text-decoration-line:none;text-decoration-style:solid;text-decoration-color:#000000;letter-spacing:normal;word-spacing:normal;text-transform:none;writing-mode:lr-tb;direction:ltr;text-orientation:mixed;dominant-baseline:auto;baseline-shift:baseline;text-anchor:start;white-space:normal;shape-padding:0;clip-rule:nonzero;display:inline;overflow:visible;visibility:visible;opacity:0.2;isolation:auto;mix-blend-mode:normal;color-interpolation:sRGB;color-interpolation-filters:linearRGB;solid-color:#000000;solid-opacity:1;vector-effect:none;fill:#000000;fill-opacity:1;fill-rule:nonzero;stroke:none;stroke-width:0.1984375;stroke-linecap:round;stroke-linejoin:round;stroke-miterlimit:4;stroke-dasharray:none;stroke-dashoffset:0;stroke-opacity:1;color-rendering:auto;image-rendering:auto;shape-rendering:auto;text-rendering:auto;enable-background:accumulate"
       d="m 47.259647,66.083819 -0.197403,0.01757 0.0098,0.09767 c 0.273786,3.015522 -0.779579,6.292476 -0.530119,7.952159 l 0.01514,0.101506 0.102098,-0.01871 c 2.422315,-0.454083 4.847227,-1.084494 7.206526,-1.031935 l 0.09897,1.59e-4 0.0049,-0.197185 -0.100677,-0.0025 c -2.360306,-0.05258 -4.758171,0.563247 -7.134421,1.014019 -0.239276,-1.669114 0.803608,-4.876446 0.53499,-7.835036 z"
       id="path279"
       inkscape:connector-curvature="0"
       sodipodi:nodetypes="ccccccccccccc" />
    <path
       style="color:#000000;font-style:normal;font-variant:normal;font-weight:normal;font-stretch:normal;font-size:medium;line-height:normal;font-family:sans-serif;font-variant-ligatures:normal;font-variant-position:normal;font-variant-caps:normal;font-variant-numeric:normal;font-variant-alternates:normal;font-feature-settings:normal;text-indent:0;text-align:start;text-decoration:none;text-decoration-line:none;text-decoration-style:solid;text-decoration-color:#000000;letter-spacing:normal;word-spacing:normal;text-transform:none;writing-mode:lr-tb;direction:ltr;text-orientation:mixed;dominant-baseline:auto;baseline-shift:baseline;text-anchor:start;white-space:normal;shape-padding:0;clip-rule:nonzero;display:inline;overflow:visible;visibility:visible;opacity:0.2;isolation:auto;mix-blend-mode:normal;color-interpolation:sRGB;color-interpolation-filters:linearRGB;solid-color:#000000;solid-opacity:1;vector-effect:none;fill:#000000;fill-opacity:1;fill-rule:nonzero;stroke:none;stroke-width:0.1984375;stroke-linecap:round;stroke-linejoin:round;stroke-miterlimit:4;stroke-dasharray:none;stroke-dashoffset:0;stroke-opacity:1;color-rendering:auto;image-rendering:auto;shape-rendering:auto;text-rendering:auto;enable-background:accumulate"
       d="m 44.607422,86.072266 a 0.09922867,0.09922867 0 0 0 -0.08984,0.09961 v 1.714844 a 0.09922867,0.09922867 0 1 0 0.197266,0 v -1.615235 h 8.046875 v 0.523438 a 0.0996095,0.0996095 0 1 0 0.199219,0 v -0.623047 a 0.09922867,0.09922867 0 0 0 -0.09961,-0.09961 h -8.24414 a 0.09922867,0.09922867 0 0 0 -0.0098,0 z"
       id="path266"
       inkscape:connector-curvature="0" />
    <path
       style="display:inline;opacity:1;vector-effect:none;fill:#000080;fill-opacity:1;stroke:none;stroke-width:0.25466502;stroke-linecap:round;stroke-linejoin:round;stroke-miterlimit:4;stroke-dasharray:none;stroke-dashoffset:0;stroke-opacity:1"
       d="m 51.847604,82.630276 -0.32774,3.424715 h 0.3838 v 1.871642 c 0,0.4107 0.437189,0.403891 0.437189,0.01396 v -1.885582 h 0.379098 L 52.39221,82.630295 Z"
       id="rect268"
       inkscape:connector-curvature="0"
       sodipodi:nodetypes="cccsscccc"
       inkscape:label="pen" />
    <path
       style="display:inline;opacity:0.2;vector-effect:none;fill:#000000;fill-opacity:1;stroke:none;stroke-width:0.06595914;stroke-linecap:butt;stroke-linejoin:miter;stroke-miterlimit:4;stroke-dasharray:none;stroke-dashoffset:0;stroke-opacity:1"
       d="m 58.325993,77.205564 c -0.312383,-1.68e-4 -0.565742,0.252958 -0.56586,0.565341 1.19e-4,0.312383 0.253477,0.565508 0.56586,0.56534 0.312179,-1.19e-4 0.565221,-0.253161 0.56534,-0.56534 -1.18e-4,-0.31218 -0.25316,-0.565222 -0.56534,-0.565341 z m -0.594965,4.498951 c -0.312383,-1.68e-4 -0.565742,0.252958 -0.56586,0.565341 1.19e-4,0.312383 0.253477,0.565508 0.56586,0.56534 0.312179,-1.19e-4 0.565221,-0.253161 0.56534,-0.56534 -1.18e-4,-0.31218 -0.25316,-0.565222 -0.56534,-0.565341 z m 0,4.498951 c -0.312383,-1.68e-4 -0.565742,0.252958 -0.56586,0.565341 1.2e-4,0.312382 0.253478,0.565506 0.56586,0.565338 0.312179,-1.19e-4 0.56522,-0.253159 0.56534,-0.565338 -1.18e-4,-0.31218 -0.25316,-0.565222 -0.56534,-0.565341 z m 0,4.498949 c -0.312383,-1.68e-4 -0.565741,0.252957 -0.56586,0.56534 1.18e-4,0.312383 0.253477,0.56551 0.56586,0.565342 0.31218,-1.19e-4 0.565222,-0.253162 0.56534,-0.565342 -1.19e-4,-0.312179 -0.253161,-0.565221 -0.56534,-0.56534 z m 0,4.498952 c -0.312383,-1.68e-4 -0.565742,0.252958 -0.56586,0.565341 1.19e-4,0.312383 0.253477,0.565508 0.56586,0.56534 0.312179,-1.19e-4 0.565221,-0.253161 0.56534,-0.56534 -1.18e-4,-0.31218 -0.25316,-0.565222 -0.56534,-0.565341 z m 0,4.498949 c -0.312383,-1.68e-4 -0.565742,0.252958 -0.56586,0.565344 1.2e-4,0.31238 0.253479,0.5655 0.56586,0.56533 0.312178,-1.2e-4 0.56522,-0.25316 0.56534,-0.56533 -1.18e-4,-0.312183 -0.25316,-0.565225 -0.56534,-0.565344 z m 0,4.498944 c -0.312383,-1.6e-4 -0.565741,0.25296 -0.56586,0.56534 -1.68e-4,0.31259 0.253275,0.56603 0.56586,0.56586 0.312382,-1.2e-4 0.565508,-0.25347 0.56534,-0.56586 -1.19e-4,-0.31217 -0.253161,-0.56522 -0.56534,-0.56534 z m 0,4.49896 c -0.312383,-1.7e-4 -0.565741,0.25296 -0.56586,0.56534 -1.69e-4,0.31259 0.253274,0.56603 0.56586,0.56586 0.312383,-1.2e-4 0.565508,-0.25348 0.56534,-0.56586 -1.19e-4,-0.31218 -0.253161,-0.56522 -0.56534,-0.56534 z"
       id="path959-2"
       inkscape:connector-curvature="0"
       sodipodi:nodetypes="cccccccccccccccccccccccccccccccccccccccc" />
    <path
       style="color:#000000;font-style:normal;font-variant:normal;font-weight:normal;font-stretch:normal;font-size:medium;line-height:normal;font-family:sans-serif;font-variant-ligatures:normal;font-variant-position:normal;font-variant-caps:normal;font-variant-numeric:normal;font-variant-alternates:normal;font-feature-settings:normal;text-indent:0;text-align:start;text-decoration:none;text-decoration-line:none;text-decoration-style:solid;text-decoration-color:#000000;letter-spacing:normal;word-spacing:normal;text-transform:none;writing-mode:lr-tb;direction:ltr;text-orientation:mixed;dominant-baseline:auto;baseline-shift:baseline;text-anchor:start;white-space:normal;shape-padding:0;clip-rule:nonzero;display:inline;overflow:visible;visibility:visible;opacity:0.2;isolation:auto;mix-blend-mode:normal;color-interpolation:sRGB;color-interpolation-filters:linearRGB;solid-color:#000000;solid-opacity:1;vector-effect:none;fill:#000000;fill-opacity:1;fill-rule:nonzero;stroke:none;stroke-width:0.1984375;stroke-linecap:round;stroke-linejoin:round;stroke-miterlimit:4;stroke-dasharray:none;stroke-dashoffset:0;stroke-opacity:1;color-rendering:auto;image-rendering:auto;shape-rendering:auto;text-rendering:auto;enable-background:accumulate"
       d="m 56.406038,82.013541 c -0.05522,8.32e-4 -0.09914,0.04659 -0.0977,0.101801 v 28.462868 c -0.0071,0.13958 0.206085,0.13958 0.19896,0 V 82.115342 c 0.0015,-0.05662 -0.04466,-0.102997 -0.10129,-0.101801 z"
       id="path1320"
       inkscape:connector-curvature="0"
       sodipodi:nodetypes="ccccccc" />
    <path
       sodipodi:nodetypes="ccccccccccccc"
       inkscape:connector-curvature="0"
       id="path1462"
       d="m 65.11259,66.083819 0.197403,0.01757 -0.0098,0.09767 c -0.273786,3.015522 0.779579,6.292476 0.530119,7.952159 l -0.01514,0.101506 -0.102098,-0.01871 C 63.290759,73.779931 60.865847,73.14952 58.506548,73.202079 l -0.09897,1.59e-4 -0.0049,-0.197185 0.100677,-0.0025 c 2.360306,-0.05258 4.758171,0.563247 7.134421,1.014019 0.239276,-1.669114 -0.803608,-4.876446 -0.53499,-7.835036 z"
       style="color:#000000;font-style:normal;font-variant:normal;font-weight:normal;font-stretch:normal;font-size:medium;line-height:normal;font-family:sans-serif;font-variant-ligatures:normal;font-variant-position:normal;font-variant-caps:normal;font-variant-numeric:normal;font-variant-alternates:normal;font-feature-settings:normal;text-indent:0;text-align:start;text-decoration:none;text-decoration-line:none;text-decoration-style:solid;text-decoration-color:#000000;letter-spacing:normal;word-spacing:normal;text-transform:none;writing-mode:lr-tb;direction:ltr;text-orientation:mixed;dominant-baseline:auto;baseline-shift:baseline;text-anchor:start;white-space:normal;shape-padding:0;clip-rule:nonzero;display:inline;overflow:visible;visibility:visible;opacity:0.2;isolation:auto;mix-blend-mode:normal;color-interpolation:sRGB;color-interpolation-filters:linearRGB;solid-color:#000000;solid-opacity:1;vector-effect:none;fill:#000000;fill-opacity:1;fill-rule:nonzero;stroke:none;stroke-width:0.1984375;stroke-linecap:round;stroke-linejoin:round;stroke-miterlimit:4;stroke-dasharray:none;stroke-dashoffset:0;stroke-opacity:1;color-rendering:auto;image-rendering:auto;shape-rendering:auto;text-rendering:auto;enable-background:accumulate" />
  </g>
  <g
     inkscape:groupmode="layer"
     id="layer19"
     inkscape:label="%0.05 stain">
    <path
       style="opacity:0.5;vector-effect:none;fill:#803300;fill-opacity:1;stroke:none;stroke-width:0.5;stroke-linecap:round;stroke-linejoin:round;stroke-miterlimit:4;stroke-dasharray:none;stroke-dashoffset:0;stroke-opacity:1"
       d="m 63.179089,76.80358 c -0.05887,-0.0024 -0.117901,-2.65e-4 -0.176734,0.0062 -1.781881,0.90973 2.161871,2.910448 1.208196,0.588076 -0.218739,-0.351367 -0.619392,-0.577945 -1.031462,-0.594278 z m -0.644922,4.870503 c -1.089102,1.052105 1.448639,0.345194 0,0 z m 4.811593,0.880567 c -0.74223,0.07067 -0.434581,1.405083 -0.783931,1.894457 0.770702,1.211421 2.336202,-1.315622 1.171503,-1.84123 -0.153841,-0.04762 -0.28154,-0.06332 -0.387572,-0.05323 z m -6.524667,0.979268 c -1.859071,0.673926 1.542955,1.666896 0,0 z m 3.075781,0.529167 c -1.044374,1.325994 1.798265,0.273124 0,0 z m -1.48363,0.913641 c -0.841031,0.05247 1.294771,2.982772 1.308963,0.553968 -0.180642,-0.228981 -0.481716,-0.313698 -0.751374,-0.376203 -0.256501,-0.133966 -0.437441,-0.185264 -0.557589,-0.177765 z m 4.603338,0.923456 c -0.267354,0.04454 -1.000861,1.460558 -1.086758,2.166792 -0.03511,2.139815 -1.26845,0.345525 -1.48518,-0.799433 -0.547243,-0.385617 -0.60165,-0.671507 -0.698857,-0.324639 -0.0324,0.115613 -0.137909,0.115168 -0.245788,0.162891 -0.914246,0.404429 -3.833468,0.509186 -2.023131,1.975072 0.580528,0.193829 0.888021,1.008679 1.246952,1.498619 -0.623178,0.226563 -1.059227,0.468273 -0.221176,0.927592 1.464734,0.649901 -0.924102,2.780607 0.188619,2.576587 1.002914,-1.041879 1.941981,-0.736902 1.532208,0.792715 0.230182,2.241846 1.177424,-2.146824 2.145604,-0.343649 0.703818,1.40402 2.31009,0.635355 1.939933,-0.53485 1.588412,-0.09543 -0.08914,-1.700019 -0.02585,-2.864424 0.455424,-0.553042 0.747255,-1.05792 -0.184484,-1.482598 -1.802754,0.245766 -1.677537,-1.539459 -1.111043,-2.765721 0.175569,-0.741902 0.150463,-1.0052 0.02894,-0.984954 z m -12.049395,0.411861 c -1.702459,0.239006 1.413243,1.576774 0,0 z m 4.146518,1.97249 -0.31006,0.01188 c -2.196142,0.511035 1.857444,1.394552 0.31006,-0.01188 z m 1.27744,2.459281 c -1.807101,0.870474 2.034604,0.83738 0,0 z m -6.35,1.984375 c -2.158767,0.256508 1.89706,1.130615 0,0 z m 7.14375,2.282031 c -2.010214,0.603843 1.554938,2.012106 0.666626,0.189653 l -0.312643,-0.147796 z m 4.564063,1.025261 c -0.725824,1.31333 2.375812,0.12696 0,0 z m 1.885156,0.132291 c -0.612286,0.994815 1.573985,0.140108 0,0 z m -3.121774,0.60048 c -0.07289,-0.004 -0.146492,0.0043 -0.218591,0.02791 -1.60452,0.869905 1.45682,1.960816 0.781347,0.280603 -0.133343,-0.171076 -0.344081,-0.296425 -0.562756,-0.308509 z"
       id="path2733"
       inkscape:connector-curvature="0"
       sodipodi:nodetypes="cccccccccccccccccccccsscccccccccccccccccccccccccccccccc" />
  </g>
  <g
     inkscape:groupmode="layer"
     id="layer17"
     inkscape:label="%0.1 bling_1"
     style="display:inline">
    <path
       style="color:#000000;font-style:normal;font-variant:normal;font-weight:normal;font-stretch:normal;font-size:medium;line-height:normal;font-family:sans-serif;font-variant-ligatures:normal;font-variant-position:normal;font-variant-caps:normal;font-variant-numeric:normal;font-variant-alternates:normal;font-feature-settings:normal;text-indent:0;text-align:start;text-decoration:none;text-decoration-line:none;text-decoration-style:solid;text-decoration-color:#000000;letter-spacing:normal;word-spacing:normal;text-transform:none;writing-mode:lr-tb;direction:ltr;text-orientation:mixed;dominant-baseline:auto;baseline-shift:baseline;text-anchor:start;white-space:normal;shape-padding:0;clip-rule:nonzero;display:inline;overflow:visible;visibility:visible;opacity:1;isolation:auto;mix-blend-mode:normal;color-interpolation:sRGB;color-interpolation-filters:linearRGB;solid-color:#000000;solid-opacity:1;vector-effect:none;fill:#ffcc00;fill-opacity:1;fill-rule:nonzero;stroke:none;stroke-width:0.26458332;stroke-linecap:round;stroke-linejoin:round;stroke-miterlimit:4;stroke-dasharray:none;stroke-dashoffset:0;stroke-opacity:1;color-rendering:auto;image-rendering:auto;shape-rendering:auto;text-rendering:auto;enable-background:accumulate"
       d="m 49.732422,65.759766 a 0.13230489,0.13230489 0 0 0 -0.0957,0.214843 c 0,0 1.071613,1.407713 2.402343,2.81836 0.665366,0.705323 1.394716,1.413384 2.09375,1.947265 0.699035,0.533881 1.363239,0.904297 1.9375,0.904297 0.613455,0 1.30179,-0.37017 2.009766,-0.904297 0.707976,-0.534126 1.433243,-1.239902 2.087891,-1.945312 1.309296,-1.41082 2.335937,-2.820313 2.335937,-2.820313 a 0.13230489,0.13230489 0 1 0 -0.21289,-0.15625 c 0,0 -1.021874,1.397907 -2.31836,2.794922 -0.648243,0.698508 -1.365058,1.397204 -2.052734,1.916016 -0.687676,0.518812 -1.347107,0.849609 -1.84961,0.849609 -0.453776,0 -1.09721,-0.330164 -1.777343,-0.849609 -0.680133,-0.519445 -1.402995,-1.218857 -2.0625,-1.917969 -1.319011,-1.398223 -2.382813,-2.796875 -2.382813,-2.796875 a 0.13230489,0.13230489 0 0 0 -0.115234,-0.05469 z"
       id="path1500"
       inkscape:connector-curvature="0" />
    <path
       style="opacity:1;vector-effect:none;fill:#ffcc00;fill-opacity:1;stroke:none;stroke-width:0.26458332;stroke-linecap:round;stroke-linejoin:round;stroke-miterlimit:4;stroke-dasharray:none;stroke-dashoffset:0;stroke-opacity:1"
       d="m 56.16453,71.69278 a 0.90732186,0.90732186 0 0 0 -0.906921,0.907438 0.90732186,0.90732186 0 0 0 0.906921,0.906923 0.90732186,0.90732186 0 0 0 0.907438,-0.906923 0.90732186,0.90732186 0 0 0 -0.907438,-0.907438 z"
       id="path1507"
       inkscape:connector-curvature="0" />
  </g>
  <g
     inkscape:groupmode="layer"
     id="layer18"
     inkscape:label="%0.4 chest_hair">
    <path
       style="color:#000000;font-style:normal;font-variant:normal;font-weight:normal;font-stretch:normal;font-size:medium;line-height:normal;font-family:sans-serif;font-variant-ligatures:normal;font-variant-position:normal;font-variant-caps:normal;font-variant-numeric:normal;font-variant-alternates:normal;font-feature-settings:normal;text-indent:0;text-align:start;text-decoration:none;text-decoration-line:none;text-decoration-style:solid;text-decoration-color:#000000;letter-spacing:normal;word-spacing:normal;text-transform:none;writing-mode:lr-tb;direction:ltr;text-orientation:mixed;dominant-baseline:auto;baseline-shift:baseline;text-anchor:start;white-space:normal;shape-padding:0;clip-rule:nonzero;display:inline;overflow:visible;visibility:visible;opacity:0.2;isolation:auto;mix-blend-mode:normal;color-interpolation:sRGB;color-interpolation-filters:linearRGB;solid-color:#000000;solid-opacity:1;vector-effect:none;fill:#000000;fill-opacity:1;fill-rule:nonzero;stroke:none;stroke-width:0.13229167;stroke-linecap:round;stroke-linejoin:round;stroke-miterlimit:4;stroke-dasharray:none;stroke-dashoffset:0;stroke-opacity:1;color-rendering:auto;image-rendering:auto;shape-rendering:auto;text-rendering:auto;enable-background:accumulate"
       d="m 57.841946,72.609521 a 0.06615245,0.06615245 0 0 0 -0.05891,0.05064 c -0.08852,0.354272 0.117718,0.72071 0.423746,0.890903 l 0.02791,-0.138494 C 57.999055,73.260484 57.842125,72.965526 57.91016,72.693235 a 0.06615245,0.06615245 0 0 0 -0.06821,-0.08371 z m -2.900598,0.189135 a 0.06615245,0.06615245 0 0 0 -0.05271,0.03152 c -0.03006,0.04632 -0.09061,0.09707 -0.148309,0.158131 -0.0577,0.06106 -0.115242,0.140132 -0.11524,0.245981 a 0.066406,0.066406 0 0 0 0.132808,0 c 0,-0.059 0.02885,-0.104029 0.07803,-0.156065 0.04917,-0.05204 0.117162,-0.103039 0.16433,-0.175699 a 0.06615245,0.06615245 0 0 0 -0.05891,-0.10387 z m 2.259295,0.442867 a 0.06615245,0.06615245 0 0 0 -0.0072,5.16e-4 0.06615245,0.06615245 0 0 0 -0.03721,0.111623 c 0.04564,0.04987 0.217583,0.227888 0.265615,0.275434 a 0.06650441,0.06650441 0 0 0 0.09405,-0.09405 c -0.04185,-0.04142 -0.22224,-0.227854 -0.261999,-0.271301 a 0.06615245,0.06615245 0 0 0 -0.05323,-0.02222 z m -1.951302,0.04083 a 0.06615245,0.06615245 0 0 0 -0.0093,0.001 0.06615245,0.06615245 0 0 0 -0.05633,0.05426 c -0.03319,0.174519 -0.04923,0.349586 -0.0646,0.521933 a 0.06666406,0.06666406 0 0 0 0.132807,0.01137 c 0.01538,-0.172399 0.03098,-0.341563 0.06253,-0.507462 a 0.06615245,0.06615245 0 0 0 -0.06511,-0.08113 z m -1.024744,0.07286 c -8.2e-5,3e-6 -0.02939,0.0083 -0.02946,0.0083 -6.9e-5,3.7e-5 -0.02114,0.01542 -0.02119,0.0155 -5.6e-5,7.2e-5 -0.0077,0.01539 -0.0077,0.0155 -4.8e-5,1.06e-4 -0.0041,0.01175 -0.0041,0.01189 -6.9e-5,2.75e-4 -0.002,0.01096 -0.0021,0.01137 -5.3e-5,7.99e-4 -2.51e-4,0.01081 0,0.01395 2.52e-4,0.0031 -3.57e-4,0.0052 0,0.0078 0.0014,0.01039 0.0037,0.02171 0.0062,0.03514 0.0049,0.02685 0.01167,0.06257 0.0155,0.101801 0.0077,0.07846 -0.0023,0.164746 -0.03152,0.201023 -0.005,0.0061 -0.01136,0.01043 -0.01757,0.01499 l 0.03617,0.127124 c 0.03404,-0.01452 0.06418,-0.03377 0.08527,-0.05994 0.0391,-0.04854 0.02537,-0.105828 0.03101,-0.162263 0.0073,0.01566 0.0094,0.01972 0.01757,0.03721 a 0.06615245,0.06615245 0 0 0 0.05271,0.03876 c 0.220903,0.0244 0.412488,-0.07107 0.588079,-0.128672 a 0.06615245,0.06615245 0 1 0 -0.04083,-0.125058 c -0.176186,0.0578 -0.339042,0.120576 -0.502295,0.113173 -0.03238,-0.06985 -0.06347,-0.135633 -0.0801,-0.171566 -0.01057,-0.02285 -0.01702,-0.04026 -0.02325,-0.05271 -0.0031,-0.0062 -0.0066,-0.01061 -0.0098,-0.01602 -0.0016,-0.0027 -0.0028,-0.0059 -0.0057,-0.0098 -0.0014,-0.0019 -0.0059,-0.0054 -0.0062,-0.0057 -2.65e-4,-2.78e-4 -0.01323,-0.01174 -0.01344,-0.01188 -1.05e-4,-6.9e-5 -0.01386,-0.0078 -0.01395,-0.0078 -9.3e-5,-3.2e-5 -0.02317,-0.0021 -0.02325,-0.0021 z M 56.9836,73.57742 a 0.06615245,0.06615245 0 0 0 -0.0072,5.16e-4 0.06615245,0.06615245 0 0 0 -0.05633,0.05271 c -0.05065,0.250923 -0.204475,0.489979 -0.429948,0.607716 a 0.06646559,0.06646559 0 0 0 0.06253,0.117306 c 0.26796,-0.139925 0.438539,-0.412488 0.496094,-0.697632 A 0.06615245,0.06615245 0 0 0 56.9836,73.57742 Z m -1.350822,0.06305 a 0.06615245,0.06615245 0 0 0 -0.0098,0.13126 l 0.08216,0.01912 0.02946,0.02946 c -0.04735,0.05975 -0.09964,0.121472 -0.09405,0.185517 0.0078,0.08961 0.04919,0.16876 0.08578,0.248047 0.03659,0.07929 0.06892,0.156657 0.07441,0.230476 0.0055,0.07383 -0.01058,0.146037 -0.08578,0.232545 a 0.06615245,0.06615245 0 1 0 0.09922,0.08578 c 0.09454,-0.108757 0.125039,-0.224049 0.117306,-0.328144 -0.0077,-0.104098 -0.04844,-0.196596 -0.08578,-0.277503 -0.0052,-0.01137 -0.009,-0.02061 -0.01395,-0.03152 a 0.06615245,0.06615245 0 0 0 0.04134,-0.01292 c 0.05513,-0.03566 0.264205,-0.174178 0.318326,-0.211357 a 0.06615245,0.06615245 0 0 0 -0.03669,-0.121957 0.06615245,0.06615245 0 0 0 -0.01033,0.001 0.06615245,0.06615245 0 0 0 -0.02894,0.01188 c -0.05006,0.03439 -0.261615,0.17577 -0.312642,0.208772 a 0.06615245,0.06615245 0 0 0 -0.0155,0.01137 c -0.0065,-0.02021 -0.01455,-0.04154 -0.01602,-0.05839 -0.0046,-0.05246 0.0042,-0.08845 0.07648,-0.14056 a 0.06615245,0.06615245 0 0 0 0.0078,-0.101285 l -0.07028,-0.06873 a 0.06615245,0.06615245 0 0 0 -0.03307,-0.01757 l -0.09974,-0.02326 a 0.06615245,0.06615245 0 0 0 -0.01964,-0.0021 z m 1.40095,0.42168 a 0.06615245,0.06615245 0 0 0 -0.0062,5.18e-4 0.06615245,0.06615245 0 0 0 -0.03514,0.115237 c 0.04424,0.04108 0.218951,0.201192 0.263549,0.241845 a 0.06615245,0.06615245 0 1 0 0.08785,-0.09767 c -0.04341,-0.03957 -0.218956,-0.20188 -0.261998,-0.241846 a 0.06615245,0.06615245 0 0 0 -0.04806,-0.01809 z m -2.434995,0.188102 a 0.06615245,0.06615245 0 0 0 -0.05374,0.04289 c -0.03315,0.08363 -0.09942,0.140137 -0.181901,0.20102 -0.0081,0.006 -0.01698,0.01307 -0.02532,0.01912 l 0.03876,0.135909 c 0.02162,-0.01645 0.04197,-0.03253 0.06511,-0.04961 0.08545,-0.06307 0.178197,-0.136392 0.226343,-0.257865 a 0.06615245,0.06615245 0 0 0 -0.06253,-0.09147 0.06615245,0.06615245 0 0 0 -0.0067,0 z m 0.567407,0.0093 a 0.06615245,0.06615245 0 0 0 -0.01395,0.0021 0.06615245,0.06615245 0 0 0 -0.03721,0.02377 c -0.02806,0.03156 -0.05567,0.06199 -0.08371,0.09354 a 0.06645405,0.06645405 0 0 0 0.09973,0.08785 c 0.02806,-0.03156 0.05568,-0.062 0.08372,-0.09354 A 0.06615245,0.06615245 0 0 0 55.16614,74.25955 Z m 1.509469,0.05374 a 0.06615245,0.06615245 0 0 0 -0.0078,10e-4 0.06615245,0.06615245 0 0 0 -0.05271,0.05116 c -0.03719,0.157575 -0.126044,0.312589 -0.167949,0.496093 a 0.06619637,0.06619637 0 1 0 0.129191,0.02894 c 0.036,-0.157631 0.124804,-0.311214 0.167949,-0.494027 a 0.06615245,0.06615245 0 0 0 -0.06873,-0.0832 z m 1.027327,0.48731 c -2.6e-5,6.1e-5 -0.002,0.004 -0.0021,0.0041 -7.7e-5,2.01e-4 2.51e-4,0.0029 0,0.0036 -4.58e-4,0.0013 -9.5e-4,0.0067 -0.0016,0.0083 -3.91e-4,0.0012 -0.0016,0.0043 -0.0021,0.0057 -0.0039,0.01222 -0.0092,0.02443 -0.01964,0.05271 -0.01305,0.03542 -0.03063,0.08224 -0.05478,0.130741 -0.04829,0.09699 -0.120065,0.19944 -0.198954,0.24443 -0.06909,0.0394 -0.154077,0.02021 -0.262001,-0.05478 0.01754,-0.06485 0.03604,-0.131379 0.04496,-0.162264 0.0061,-0.02118 0.01147,-0.0343 0.01395,-0.04289 0.0012,-0.0043 0.0021,-0.0063 0.0036,-0.01344 1.93e-4,-8.97e-4 -1.6e-5,-0.004 0,-0.0041 1.6e-5,-9.5e-5 0,-0.0097 0,-0.0098 0,-5.3e-5 -0.0057,-0.02946 -0.0057,-0.02946 0,0 -0.109527,-0.01348 -0.109556,-0.01344 -2.6e-5,3.2e-5 -0.0078,0.0097 -0.0078,0.0098 -4.2e-5,7.1e-5 -0.002,0.0035 -0.0021,0.0036 -1.11e-4,2.27e-4 -0.0017,0.0032 -0.0021,0.0041 -10e-4,0.0024 -0.0025,0.0092 -0.0036,0.01189 -0.0057,0.01387 -0.01259,0.02789 -0.02584,0.05839 -0.0158,0.03638 -0.03669,0.08334 -0.06408,0.132807 -0.05479,0.09894 -0.1344,0.205679 -0.212907,0.250116 -0.03925,0.02222 -0.07624,0.03048 -0.117306,0.02325 -0.04107,-0.0072 -0.08844,-0.0332 -0.146246,-0.09198 a 0.06723923,0.06723923 0 1 0 -0.09612,0.09405 c 0.07142,0.07263 0.146368,0.115586 0.22066,0.128675 0.07429,0.01309 0.145614,-0.0051 0.205155,-0.03876 0.08561,-0.04846 0.134279,-0.136808 0.187585,-0.217041 0.161671,0.134321 0.324188,0.14446 0.443383,0.07648 0.08451,-0.0482 0.128693,-0.132948 0.177768,-0.211355 a 0.06615245,0.06615245 0 0 0 0.0021,0.0021 c 0.06163,0.04478 0.12732,0.07539 0.194305,0.09973 l 0.02945,-0.144176 c -0.03742,-0.01548 -0.07426,-0.03184 -0.108519,-0.05323 0.01336,-0.06629 0.02603,-0.13255 0.03307,-0.163814 0.0043,-0.01901 0.0058,-0.03083 0.0078,-0.03927 -2.9e-5,6e-5 0.0021,-0.0037 0.0021,-0.0036 v -0.0021 c 3.41e-4,-0.0014 0.0018,-0.0028 0.0021,-0.0041 0,0 -0.125029,-0.04502 -0.125058,-0.04496 z m -1.574064,0.01757 a 0.06615245,0.06615245 0 0 0 -0.04082,0.11524 l 0.167947,0.15813 a 0.06615245,0.06615245 0 1 0 0.08992,-0.0956 l -0.16795,-0.158131 a 0.06615245,0.06615245 0 0 0 -0.04909,-0.01964 z m -1.275374,0.105421 c -0.03398,-0.0027 -0.06704,0.0062 -0.09974,0.0217 -0.06539,0.03101 -0.137935,0.09081 -0.230476,0.187587 a 0.06615245,0.06615245 0 0 0 -0.0062,0.0088 l 0.03462,0.122989 c 0.04559,0.04866 0.111599,0.07964 0.163298,0.126092 -0.028,0.04614 -0.05745,0.09337 -0.08888,0.135909 l 0.04289,0.149344 c 0.05274,-0.05909 0.09435,-0.130715 0.137459,-0.199472 0.04481,0.02683 0.06222,0.087 0.111619,0.103354 0.181417,0.06008 0.388504,0.04616 0.548804,-0.0739 a 0.06615245,0.06615245 0 1 0 -0.07803,-0.105418 c -0.119528,0.08952 -0.282334,0.101597 -0.429947,0.05271 -0.03437,-0.01138 -0.04451,-0.05118 -0.07597,-0.06873 0.0044,-0.009 0.01556,-0.0143 0.01964,-0.02325 0.03375,-0.07412 0.05622,-0.145613 0.06615,-0.210841 0.0099,-0.06523 0.012,-0.127394 -0.02739,-0.179832 -0.01969,-0.02622 -0.05387,-0.0443 -0.08785,-0.04703 z m -0.01757,0.132807 c 5.29e-4,0.0033 0.0089,0.02729 0.0021,0.07235 -0.0069,0.04548 -0.02633,0.105974 -0.05271,0.166399 -0.04066,-0.03893 -0.09566,-0.06194 -0.119372,-0.111622 0.05751,-0.05364 0.115641,-0.105077 0.144692,-0.118856 0.01563,-0.0074 0.02147,-0.008 0.02532,-0.0083 z m 0.624766,0.06615 a 0.06615245,0.06615245 0 0 0 -0.0078,5.19e-4 0.06615245,0.06615245 0 0 0 -0.04858,0.103351 c 0.02433,0.03792 0.122206,0.192384 0.146246,0.230479 a 0.06615245,0.06615245 0 1 0 0.11162,-0.07028 c -0.02475,-0.03922 -0.121727,-0.19353 -0.146759,-0.232543 a 0.06615245,0.06615245 0 0 0 -0.05478,-0.03153 z m 0.691433,0.295074 a 0.06615245,0.06615245 0 0 0 -0.0057,5.16e-4 0.06615245,0.06615245 0 0 0 -0.02946,0.122992 c 0.173548,0.116348 0.357976,0.205412 0.529685,0.30644 a 0.06650031,0.06650031 0 0 0 0.06615,-0.115239 c -0.177605,-0.104495 -0.359895,-0.193151 -0.523484,-0.302824 a 0.06615245,0.06615245 0 0 0 -0.03721,-0.01188 z m 0.116271,0.470773 c -0.04301,6.83e-4 -0.08621,0.0092 -0.127641,0.02377 -0.164854,0.05797 -0.316272,0.21644 -0.299206,0.411861 0.0064,0.120616 0.05243,0.21834 0.125055,0.285256 0.06628,0.06105 0.153093,0.09246 0.242364,0.111619 -0.0034,0.004 -0.0022,0.0095 -0.0057,0.01344 -0.144589,0.168614 -0.341299,0.311319 -0.525549,0.427882 a 0.06615245,0.06615245 0 0 0 -0.0062,0.0036 c -0.147675,0.11575 -0.33088,0.154483 -0.523484,0.193787 l 0.03721,0.12919 c 0.192841,-0.03844 0.392107,-0.08321 0.566372,-0.219106 h 0.0021 c 0.18792,-0.119235 0.391488,-0.266132 0.548804,-0.449586 0.02387,-0.02784 0.01778,-0.07161 0.03927,-0.101285 0.167365,0.007 0.344318,-0.0052 0.47439,-0.06253 l -0.0078,0.0036 c 0.111165,-0.03071 0.223692,-0.05733 0.337965,-0.08371 a 0.06625515,0.06625515 0 1 0 -0.02946,-0.129194 c -0.114173,0.02637 -0.230838,0.0525 -0.345715,0.08423 a 0.06615245,0.06615245 0 0 0 -0.0078,0.0041 c -0.0972,0.04282 -0.237956,0.04612 -0.368969,0.04857 0.07574,-0.138676 0.175646,-0.267739 0.167949,-0.439248 a 0.06615245,0.06615245 0 0 0 -0.0021,-0.0098 c -0.02149,-0.109935 -0.08501,-0.188122 -0.16588,-0.222727 -0.04043,-0.01731 -0.08308,-0.02446 -0.12609,-0.02377 z m 0.001,0.132292 c 0.02697,-5.82e-4 0.05169,0.0036 0.07235,0.0124 0.03945,0.01688 0.06997,0.05178 0.08578,0.121438 0.0066,0.170101 -0.08174,0.308208 -0.171566,0.444937 -0.08091,-0.01448 -0.151363,-0.04146 -0.199469,-0.08578 -0.04868,-0.04484 -0.07935,-0.104683 -0.08372,-0.197406 a 0.06615245,0.06615245 0 0 0 0,-0.0036 c -0.01141,-0.118366 0.09234,-0.233762 0.210841,-0.275434 0.02962,-0.01042 0.0588,-0.01596 0.08578,-0.01654 z m 1.006655,0.123505 a 0.06615245,0.06615245 0 0 0 -0.0067,5.18e-4 0.06615245,0.06615245 0 0 0 -0.03514,0.115237 c 0.04557,0.04206 0.09136,0.083 0.136943,0.125058 a 0.06615245,0.06615245 0 0 0 0.08992,-0.09612 c -0.04557,-0.04206 -0.09137,-0.08454 -0.136943,-0.126608 a 0.06615245,0.06615245 0 0 0 -0.04806,-0.01809 z m -2.213816,0.160197 c -0.02185,-0.0042 -0.04395,-0.0036 -0.06408,0.0041 -0.04027,0.0154 -0.06051,0.04451 -0.07803,0.07234 -0.01227,0.01951 -0.02253,0.04059 -0.03307,0.0615 l 0.05168,0.181901 c 0.02113,-0.03263 0.03856,-0.06584 0.05323,-0.09509 0.01584,-0.03161 0.02808,-0.06023 0.03928,-0.07803 0.0086,-0.01361 0.01115,-0.01412 0.01188,-0.01499 0.001,7.99e-4 -2.01e-4,2.88e-4 0.0016,0.0015 0.01406,0.01009 0.04077,0.03697 0.07441,0.08371 a 0.06615245,0.06615245 0 0 0 0.06253,0.02739 l 0.179832,-0.01964 a 0.06615245,0.06615245 0 1 0 -0.01395,-0.130741 l -0.148312,0.0155 c -0.02581,-0.03243 -0.05042,-0.06539 -0.07596,-0.08371 -0.01745,-0.01252 -0.03913,-0.02167 -0.06098,-0.02584 z m 2.191596,0.63872 a 0.06615245,0.06615245 0 0 0 -0.04083,0.01809 c -0.108413,0.09635 -0.170762,0.120012 -0.185518,0.120923 h -0.0021 c 3.39e-4,2.99e-4 -0.0046,-0.0039 -0.0078,-0.01189 -0.0033,-0.0081 -0.0035,-0.01465 -0.01188,-0.03307 -0.0021,-0.0046 -0.0055,-0.0117 -0.01189,-0.01964 -0.0032,-0.004 -0.01299,-0.0131 -0.01344,-0.01343 -4.53e-4,-3.28e-4 -0.02484,-0.01177 -0.02532,-0.01189 -4.82e-4,-1.12e-4 -0.031,0.0019 -0.03152,0.0021 -5.24e-4,1.24e-4 -0.02267,0.0094 -0.02325,0.0098 -5.74e-4,3.75e-4 -0.0087,0.0065 -0.01188,0.0098 -0.0032,0.0033 -0.0057,0.007 -0.0078,0.0098 -0.0165,0.02199 -0.02238,0.0364 -0.03514,0.06821 -0.0094,0.02333 -0.02461,0.06278 -0.03927,0.101804 -0.179957,0.04561 -0.375574,0.02309 -0.585494,0.04444 a 0.06699986,0.06699986 0 1 0 0.01344,0.133324 c 0.198133,-0.02016 0.417658,0.01331 0.640789,-0.05323 a 0.06615245,0.06615245 0 0 0 0.04289,-0.04082 c 0.01586,-0.04248 0.02488,-0.06533 0.03514,-0.09199 0.02298,0.01517 0.05098,0.02932 0.08217,0.02739 0.07397,-0.0046 0.148097,-0.04749 0.265615,-0.151927 A 0.06615245,0.06615245 0 0 0 57.253725,76.9436 Z m -1.378727,0.357603 a 0.06615245,0.06615245 0 0 0 -0.04289,0.11162 l 0.146246,0.158131 a 0.06637966,0.06637966 0 0 0 0.09767,-0.08992 L 55.92782,77.322417 a 0.06615245,0.06615245 0 0 0 -0.05271,-0.0217 z m 0.453718,0.37827 a 0.06698523,0.06698523 0 0 0 -0.0026,5.18e-4 0.06615245,0.06615245 0 0 0 -0.0041,0.0021 c -0.234836,0.03784 -0.389705,0.09518 -0.49816,0.166399 -0.108456,0.07122 -0.168238,0.15631 -0.216525,0.232026 -0.04829,0.07572 -0.08509,0.141478 -0.150378,0.197403 -0.01039,0.0089 -0.02819,0.01626 -0.04031,0.02481 l 0.03824,0.135392 c 0.03264,-0.01908 0.0625,-0.03875 0.08785,-0.06046 0.085,-0.07281 0.130045,-0.155268 0.175699,-0.226861 0.04566,-0.07159 0.09187,-0.133435 0.179835,-0.191202 0.08797,-0.05777 0.222543,-0.110844 0.44545,-0.146761 a 0.06698523,0.06698523 0 0 0 -0.0083,-0.133326 0.06698523,0.06698523 0 0 0 -0.0067,0 z m 0.419097,0.145211 c -0.04252,0.01125 -0.0757,0.0404 -0.103354,0.0801 a 0.06615245,0.06615245 0 0 0 -0.01188,0.04702 c 0.01644,0.12876 0.137689,0.185388 0.224792,0.269235 -0.0012,0.0202 0.0064,0.04287 0.0021,0.06046 -0.01409,0.05728 -0.03866,0.08992 -0.08216,0.10387 a 0.06615245,0.06615245 0 0 0 -0.01551,0.0078 c -0.18212,0.112197 -0.428762,0.131646 -0.656291,0.245981 a 0.06644591,0.06644591 0 1 0 0.0584,0.119372 c 0.192124,-0.09654 0.438949,-0.120854 0.654222,-0.248047 0.07861,-0.02636 0.116453,-0.09744 0.142629,-0.16795 0.02968,0.01753 0.03081,0.06226 0.06253,0.07596 0.06004,0.02595 0.12378,0.04357 0.188103,0.05685 l 0.02687,-0.13126 c -0.05594,-0.01143 -0.111115,-0.02646 -0.162264,-0.04857 -0.04947,-0.02138 -0.05119,-0.07745 -0.09147,-0.107487 -8.95e-4,-0.04625 0.0088,-0.09369 -0.0021,-0.136943 -0.02069,-0.08279 -0.05316,-0.155422 -0.115239,-0.20102 -0.03104,-0.0228 -0.07685,-0.03657 -0.119372,-0.02532 z m 0.03514,0.127124 c 9.98e-4,-2.64e-4 -0.0018,-0.0022 0.0062,0.0036 0.0017,0.0013 0.0057,0.01176 0.0078,0.01395 -0.0019,-0.0073 -0.01454,-0.0085 -0.01602,-0.01602 1.56e-4,-6.1e-5 0.002,-0.0015 0.0021,-0.0016 z m -0.952397,0.390157 a 0.06615245,0.06615245 0 0 0 -5.15e-4,5.16e-4 0.06615245,0.06615245 0 0 0 -0.04703,0.103354 c 0.02703,0.04076 0.130077,0.192485 0.15813,0.232543 a 0.06621819,0.06621819 0 0 0 0.109554,-0.07441 c -0.02549,-0.0364 -0.133559,-0.193432 -0.158128,-0.230476 a 0.06615245,0.06615245 0 0 0 -0.06201,-0.03152 z m 0.939478,0.610815 a 0.06615245,0.06615245 0 0 0 -0.0067,10e-4 0.06615245,0.06615245 0 0 0 -0.03307,0.11524 c 0.03515,0.0317 0.174067,0.157495 0.209291,0.189134 a 0.06634889,0.06634889 0 0 0 0.0894,-0.09767 c -0.03495,-0.0314 -0.175932,-0.157657 -0.210841,-0.189135 a 0.06615245,0.06615245 0 0 0 -0.04806,-0.0186 z m -0.498676,0.409278 c -0.06074,-0.0068 -0.125622,0.0088 -0.175702,0.05271 -0.05007,0.04396 -0.08122,0.116411 -0.07803,0.20102 0.0012,0.07048 0.0607,0.103348 0.09147,0.15813 -0.02346,0.0079 -0.02969,0.03808 -0.05633,0.04289 -0.06316,0.0114 -0.132654,0.01267 -0.202573,0.0093 l 0.03772,0.13281 c 0.06236,9.53e-4 0.125804,-0.0017 0.188103,-0.01292 0.03751,-0.0068 0.05613,-0.05448 0.09198,-0.06873 0.02273,0.02235 0.0201,0.06492 0.04651,0.08217 0.111276,0.07269 0.250193,0.10464 0.377237,0.103355 0.08931,-0.0034 0.188611,0.01641 0.293008,0.02894 l 0.02739,-0.133842 c -0.100454,-0.01163 -0.208505,-0.02986 -0.322461,-0.02584 h -0.0021 c -0.101907,6.75e-4 -0.217244,-0.02917 -0.300757,-0.08372 -0.01536,-0.01003 -0.01215,-0.03149 -0.02532,-0.04289 0.05864,-0.04315 0.138784,-0.05059 0.170016,-0.129191 0.03227,-0.08233 0.02837,-0.1607 -0.0062,-0.218591 -0.03453,-0.05789 -0.09326,-0.08876 -0.153995,-0.0956 z m -0.0155,0.130742 c 0.02576,0.0029 0.04555,0.015 0.05633,0.03307 0.01078,0.01807 0.01799,0.04666 -0.0036,0.101801 -0.01928,0.04851 -0.0716,0.05012 -0.10387,0.07803 -0.01561,-0.03308 -0.05375,-0.05126 -0.05426,-0.09405 a 0.06615245,0.06615245 0 0 0 0,-0.0021 c -0.002,-0.05214 0.01141,-0.07841 0.031,-0.0956 0.01959,-0.0172 0.04865,-0.0241 0.07441,-0.02119 z m -0.0046,0.532783 a 0.06615245,0.06615245 0 0 0 -0.0016,5.16e-4 0.06615245,0.06615245 0 0 0 -0.02739,0.120925 c 0.01327,0.0086 0.163203,0.142907 0.174149,0.156062 a 0.06615245,0.06615245 0 1 0 0.101288,-0.08372 c -0.04405,-0.05293 -0.145156,-0.144388 -0.203089,-0.181901 a 0.06615245,0.06615245 0 0 0 -0.04341,-0.01189 z m 0.272852,0.507463 c -0.04452,0.0048 -0.0916,0.0161 -0.141595,0.03411 -0.07718,0.02781 -0.17133,0.0768 -0.281635,0.139009 l 0.03772,0.132292 c 0.121169,-0.06967 0.217779,-0.121148 0.288872,-0.146762 0.08481,-0.03056 0.139214,-0.03463 0.199472,-0.02325 0.0378,0.0071 0.08251,0.02459 0.132292,0.04599 l 0.02739,-0.135392 c -0.04567,-0.01819 -0.08958,-0.03288 -0.134358,-0.04134 -0.04145,-0.0078 -0.08364,-0.0094 -0.128156,-0.0047 z"
       id="path1512"
       inkscape:connector-curvature="0" />
  </g>
  <g
     inkscape:groupmode="layer"
     id="layer16"
     inkscape:label="pen"
     style="display:none">
    <path
       style="display:inline;opacity:1;vector-effect:none;fill:#000080;fill-opacity:1;stroke:none;stroke-width:0.25466502;stroke-linecap:round;stroke-linejoin:round;stroke-miterlimit:4;stroke-dasharray:none;stroke-dashoffset:0;stroke-opacity:1"
       d="m 45.464329,82.647551 -0.32774,3.424715 h 0.3838 v 1.871642 c 0,0.4107 0.437189,0.403891 0.437189,0.01396 v -1.885581 h 0.379098 L 46.008935,82.64757 Z"
       id="rect268-1"
       inkscape:connector-curvature="0"
       sodipodi:nodetypes="cccsscccc"
       inkscape:label="pen" />
  </g>
  <g
     inkscape:groupmode="layer"
     id="layer7"
     inkscape:label="%0.5 no_pocket"
     style="display:inline">
    <path
       style="opacity:1;vector-effect:none;fill:#ffffff;fill-opacity:1;stroke:none;stroke-width:0.5;stroke-linecap:round;stroke-linejoin:round;stroke-miterlimit:4;stroke-dasharray:none;stroke-dashoffset:0;stroke-opacity:1"
       d="m 45.049171,82.492808 -1.021814,5.946408 9.514597,-0.199648 -1.03727,-5.709248 z"
       id="path332"
       inkscape:connector-curvature="0"
       sodipodi:nodetypes="ccccc"
       class="col_1" />
  </g>
</svg>
