<?xml version="1.0" encoding="UTF-8" standalone="no"?>
<!-- Created with Inkscape (http://www.inkscape.org/) -->

<svg
   xmlns:dc="http://purl.org/dc/elements/1.1/"
   xmlns:cc="http://creativecommons.org/ns#"
   xmlns:rdf="http://www.w3.org/1999/02/22-rdf-syntax-ns#"
   xmlns:svg="http://www.w3.org/2000/svg"
   xmlns="http://www.w3.org/2000/svg"
   xmlns:sodipodi="http://sodipodi.sourceforge.net/DTD/sodipodi-0.dtd"
   xmlns:inkscape="http://www.inkscape.org/namespaces/inkscape"
   width="112.07594mm"
   height="112.07593mm"
   viewBox="0 0 112.07594 112.07593"
   version="1.1"
   id="svg19053"
   sodipodi:docname="male_pro_4.svg"
   inkscape:version="0.92.3 (unknown)">
  <sodipodi:namedview
     pagecolor="#ffffff"
     bordercolor="#666666"
     borderopacity="1"
     objecttolerance="10"
     gridtolerance="10"
     guidetolerance="10"
     inkscape:pageopacity="0"
     inkscape:pageshadow="2"
     inkscape:window-width="1920"
     inkscape:window-height="1023"
     id="namedview29025"
     showgrid="false"
     inkscape:zoom="2.9422085"
     inkscape:cx="40.338299"
     inkscape:cy="114.6188"
     inkscape:window-x="0"
     inkscape:window-y="27"
     inkscape:window-maximized="1"
     inkscape:current-layer="layer15" />
  <defs
     id="defs19047" />
  <metadata
     id="metadata19050">
    <rdf:RDF>
      <cc:Work
         rdf:about="">
        <dc:format>image/svg+xml</dc:format>
        <dc:type
           rdf:resource="http://purl.org/dc/dcmitype/StillImage" />
        <dc:title />
      </cc:Work>
    </rdf:RDF>
  </metadata>
  <g
     inkscape:groupmode="layer"
     id="layer4"
     inkscape:label="ignore"
     style="display:inline"
     sodipodi:insensitive="true">
    <g
       inkscape:groupmode="layer"
       id="layer6"
       inkscape:label="bg 1">
      <rect
         style="display:inline;opacity:1;vector-effect:none;fill:#e6e6e6;fill-opacity:1;stroke:none;stroke-width:0.39687499;stroke-linecap:round;stroke-linejoin:round;stroke-miterlimit:4;stroke-dasharray:none;stroke-dashoffset:0;stroke-opacity:1"
         id="rect67"
         width="107.98977"
         height="106.73225"
         x="1.6504986"
         y="1.4925177" />
    </g>
    <g
       inkscape:label="bg"
       inkscape:groupmode="layer"
       id="layer1"
       style="display:inline">
      <path
         style="opacity:1;vector-effect:none;fill:#fff6d5;fill-opacity:1;stroke:#000000;stroke-width:0.1;stroke-linecap:round;stroke-linejoin:round;stroke-miterlimit:4;stroke-dasharray:none;stroke-dashoffset:0;stroke-opacity:1"
         d="m 235.83203,229.4043 c -1.6728,0.46339 -3.3024,0.85916 -4.85937,1.17578 -2.55787,2.08659 -10.17503,3.59955 -19.17578,3.59961 -9.00077,-6e-5 -16.61792,-1.51302 -19.17579,-3.59961 -1.55625,-0.31648 -3.18544,-0.71072 -4.85742,-1.17383 v 19.65039 c -37.73053,4.53056 -63.99077,19.86474 -64.04297,37.39648 0.0166,0.39799 0.0452,0.7958 0.0899,1.19336 h -0.0899 v 125.35743 h 80.49219 7.58399 7.58398 80.49219 V 287.64648 h -0.0898 c 0.0446,-0.39756 0.0713,-0.79537 0.0898,-1.19336 -0.0522,-17.53174 -26.3105,-32.86592 -64.04102,-37.39648 z"
         transform="scale(0.26458333)"
         id="rect23540"
         inkscape:connector-curvature="0" />
      <path
         style="opacity:1;vector-effect:none;fill:#fff6d5;fill-opacity:1;stroke:#000000;stroke-width:1;stroke-linecap:round;stroke-linejoin:round;stroke-miterlimit:4;stroke-dasharray:none;stroke-dashoffset:0;stroke-opacity:1"
         d="m 202.32812,86.9375 c -15.79511,0 -57.01953,12.335362 -57.01953,50.80664 v 10.58398 c -3.559,0.0833 -6.42026,3.017 -6.41992,9.00391 3.5e-4,5.98613 2.86137,12.7695 6.41992,12.96485 v 10.59179 c 0,31.8402 28.62946,45.89206 47.3125,49.69141 2.55787,2.08659 10.17502,3.59955 19.17579,3.59961 9.00076,-6e-5 16.61791,-1.51302 19.17578,-3.59961 18.68304,-3.79935 47.3125,-17.85121 47.3125,-49.69141 v -10.59179 c 3.55876,-0.19481 6.42152,-6.97847 6.42187,-12.96485 3.5e-4,-5.98716 -2.86266,-8.9208 -6.42187,-9.00391 v -10.58398 c 0,-38.471278 -41.22246,-50.80664 -57.01758,-50.80664 h -9.4707 z"
         transform="scale(0.26458333)"
         id="rect23538"
         inkscape:connector-curvature="0" />
      <path
         inkscape:connector-curvature="0"
         style="opacity:1;vector-effect:none;fill:#ffffff;fill-opacity:1;stroke:none;stroke-width:0.07357386;stroke-linecap:round;stroke-linejoin:round;stroke-miterlimit:4;stroke-dasharray:none;stroke-dashoffset:0;stroke-opacity:1"
         d="M 0.47805685,0.47804646 V 111.59788 H 111.59789 V 0.47804646 Z M 56.037975,2.7678295 A 53.270417,53.270417 0 0 1 109.30863,56.037972 53.270417,53.270417 0 0 1 56.037975,109.30862 53.270417,53.270417 0 0 1 2.7678399,56.037972 53.270417,53.270417 0 0 1 56.037975,2.7678295 Z"
         id="rect855"
         inkscape:label="frame" />
    </g>
    <g
       style="display:inline"
       id="g2778"
       inkscape:groupmode="layer"
       inkscape:label="_ear_size">
      <path
         sodipodi:nodetypes="csssc"
         inkscape:label="ear_left"
         id="path2774"
         d="m 38.334661,38.854136 c -0.349442,-0.222897 -0.713749,-0.351469 -1.058139,-0.351542 -1.299026,-2.77e-4 -2.352284,1.231722 -2.352159,3.054574 1.27e-4,1.822603 1.053312,4.245964 2.352159,4.245687 0.361348,-7.7e-5 0.744637,-0.141627 1.109678,-0.385173"
         style="opacity:1;vector-effect:none;fill:none;fill-opacity:1;stroke:#000000;stroke-width:0.13229167;stroke-linecap:round;stroke-linejoin:round;stroke-miterlimit:4;stroke-dasharray:none;stroke-dashoffset:0;stroke-opacity:1"
         inkscape:connector-curvature="0" />
      <path
         inkscape:connector-curvature="0"
         style="opacity:1;vector-effect:none;fill:none;fill-opacity:1;stroke:#000000;stroke-width:0.13229167;stroke-linecap:round;stroke-linejoin:round;stroke-miterlimit:4;stroke-dasharray:none;stroke-dashoffset:0;stroke-opacity:1"
         d="m 73.563785,38.97637 c 0.401969,-0.297488 0.832449,-0.47369 1.235632,-0.473776 1.299026,-2.77e-4 2.352284,1.231722 2.352159,3.054574 -1.27e-4,1.822603 -1.053312,4.245964 -2.352159,4.245687 -0.396324,-8.5e-5 -0.819042,-0.170355 -1.21513,-0.458724"
         id="path2776"
         inkscape:label="ear_right"
         sodipodi:nodetypes="csssc" />
    </g>
    <g
       inkscape:groupmode="layer"
       id="layer2"
       inkscape:label="_cheek_low"
       style="display:inline">
      <path
         style="opacity:1;vector-effect:none;fill:none;fill-opacity:1;stroke:#000000;stroke-width:0.5;stroke-linecap:round;stroke-linejoin:round;stroke-miterlimit:4;stroke-dasharray:none;stroke-dashoffset:0;stroke-opacity:1"
         d="m 202.32812,86.9375 c -15.7951,0 -57.01953,12.335363 -57.01953,50.80664 0,5.46031 0.2884,10.20841 0.77539,14.41016 -0.2651,0.007 -0.52928,0.0304 -0.79101,0.0898 -3.5418,0.80423 -5.7631,4.32211 -4.41602,10.24609 1.3469,5.92317 5.75012,12.00709 9.29102,11.20118 0.42589,-0.0969 0.82473,-0.26411 1.19726,-0.48829 2.50227,6.12174 5.18386,10.67648 6.7793,15.9004 9.15599,29.97926 25.51723,38.89898 38.0957,41.51953 3.04539,1.73563 8.86645,2.91208 15.55665,2.91211 6.69018,-3e-5 12.51125,-1.17648 15.55664,-2.91211 12.57903,-2.62055 28.94168,-11.54027 38.09765,-41.51953 1.58467,-5.18862 4.24316,-9.71213 6.73047,-15.77149 0.30073,0.15457 0.61228,0.28358 0.94531,0.35938 3.5409,0.80591 7.94412,-5.27801 9.29102,-11.20118 1.34708,-5.92398 -0.87422,-9.44186 -4.41602,-10.24609 -0.16376,-0.0372 -0.32887,-0.054 -0.49414,-0.0703 0.48828,-4.2065 0.77735,-8.96098 0.77735,-14.42969 0,-38.471277 -41.22244,-50.80664 -57.01758,-50.80664 h -9.4707 z"
         transform="scale(0.26458333)"
         id="rect23538-3"
         inkscape:connector-curvature="0" />
    </g>
    <g
       inkscape:groupmode="layer"
       id="layer3"
       inkscape:label="_cheek_high"
       style="display:inline">
      <path
         style="opacity:1;vector-effect:none;fill:none;fill-opacity:1;stroke:#000000;stroke-width:0.5;stroke-linecap:round;stroke-linejoin:round;stroke-miterlimit:4;stroke-dasharray:none;stroke-dashoffset:0;stroke-opacity:1"
         d="m 202.32812,86.9375 c -15.7951,0 -57.01953,12.335363 -57.01953,50.80664 0,1.38786 0.11165,4.68722 -0.16211,9.0293 -3.14184,-0.50671 -6.34888,1.50167 -8.08789,6.70508 -1.92541,5.76115 -1.32333,13.24608 2.1211,14.39648 0.46979,0.1569 0.95798,0.2169 1.45312,0.19922 -0.28148,0.70751 -0.56688,1.41501 -0.88281,2.11914 -15.10484,33.66545 7.0226,55.14848 44.32422,60.29297 2.25899,3.26438 18.0103,5.26168 27.72266,5.26172 9.68698,-4e-5 24.26231,-2.25274 27.63867,-5.25 37.35387,-5.1232 59.52471,-26.61325 44.4082,-60.30469 -0.31619,-0.70473 -0.60308,-1.41298 -0.88477,-2.12109 0.49587,0.0179 0.98463,-0.0401 1.45508,-0.19727 3.44443,-1.1504 4.04651,-8.63533 2.1211,-14.39648 -1.73917,-5.20388 -4.94577,-7.2123 -8.08789,-6.70508 -0.27376,-4.34217 -0.16211,-7.64144 -0.16211,-9.0293 0,-38.471277 -41.22248,-50.80664 -57.01758,-50.80664 h -9.4707 z"
         transform="scale(0.26458333)"
         id="rect23538-6"
         inkscape:connector-curvature="0" />
    </g>
    <g
       style="display:inline"
       id="g2830"
       inkscape:groupmode="layer"
       inkscape:label="_chin">
      <path
         inkscape:label="chin"
         inkscape:connector-curvature="0"
         sodipodi:nodetypes="ccc"
         id="path2822"
         d="m 50.721419,60.269043 c -3e-6,1.02472 2.876644,3.793327 5.31654,2.384653 2.56882,1.483109 5.316538,-1.359933 5.316535,-2.384653"
         style="opacity:1;vector-effect:none;fill:none;fill-opacity:1;stroke:#000000;stroke-width:0.13229167;stroke-linecap:round;stroke-linejoin:round;stroke-miterlimit:4;stroke-dasharray:none;stroke-dashoffset:0;stroke-opacity:1" />
      <path
         inkscape:label="frame"
         id="path2824"
         d="M 0.47805685,0.47804646 V 111.59788 H 111.59789 V 0.47804646 Z M 56.037975,2.7678295 A 53.270417,53.270417 0 0 1 109.30863,56.037972 53.270417,53.270417 0 0 1 56.037975,109.30862 53.270417,53.270417 0 0 1 2.7678399,56.037972 53.270417,53.270417 0 0 1 56.037975,2.7678295 Z"
         style="opacity:1;vector-effect:none;fill:#000000;fill-opacity:1;stroke:none;stroke-width:0.07357386;stroke-linecap:round;stroke-linejoin:round;stroke-miterlimit:4;stroke-dasharray:none;stroke-dashoffset:0;stroke-opacity:1"
         inkscape:connector-curvature="0" />
    </g>
  </g>
  <g
     inkscape:groupmode="layer"
     id="layer5"
     inkscape:label="default"
     style="display:inline">
    <path
       style="display:inline;opacity:1;vector-effect:none;fill:#ffffff;fill-opacity:1;stroke:none;stroke-width:0.02638366;stroke-linecap:round;stroke-linejoin:round;stroke-miterlimit:4;stroke-dasharray:none;stroke-dashoffset:0;stroke-opacity:1"
       d="m 49.734948,64.405888 c -1.003615,0 -1.104842,0.137459 -1.104842,0.137459 l -1.609203,1.404048 c 0.0064,0.05533 0.0141,0.11103 0.02066,0.166399 -3.968988,0.720556 -7.33811,1.912837 -9.81904,3.416845 -2.856838,1.731888 -4.556069,3.893497 -4.563027,6.230628 -5.9e-5,0.0026 -5.9e-5,0.0052 0,0.0078 0.0028,0.07621 0.01146,0.154102 0.01757,0.231511 -0.0114,0.02389 -0.0173,0.04958 -0.01757,0.07596 v 33.072392 c -2.57e-4,0.10231 0.08269,0.18531 0.185001,0.18501 h 21.236945 1.99988 2.002462 21.236945 c 0.102328,2.6e-4 0.185301,-0.0827 0.185002,-0.18501 V 76.076492 c -2.65e-4,-0.02638 -0.0058,-0.0526 -0.01757,-0.07648 0.0071,-0.07743 0.01429,-0.155583 0.01757,-0.230994 4.2e-5,-0.0026 4.2e-5,-0.0052 0,-0.0078 -0.0071,-2.337136 -1.706721,-4.498739 -4.563547,-6.230628 -2.481381,-1.504275 -5.850781,-2.697366 -9.820587,-3.417879 0.0065,-0.05503 0.01426,-0.110374 0.02066,-0.165365 l -1.609719,-1.404564 c -0.0028,0.0063 -0.006,0.0123 -0.0088,0.0186 l -0.02119,-0.0181 c 0,0 -0.101213,-0.137459 -1.104844,-0.137459 l -0.0072,1.488281 0.425815,0.04496 c -1.642959,2.834703 -4.145558,5.078664 -6.73499,7.262606 -2.590535,-2.184866 -5.094134,-4.429405 -6.737056,-7.265707 l 0.397907,-0.04186 z"
       id="path844"
       inkscape:connector-curvature="0"
       class="col_1" />
    <path
       style="display:inline;opacity:1;vector-effect:none;fill:#3737c8;fill-opacity:1;stroke:none;stroke-width:0.05709152;stroke-linecap:butt;stroke-linejoin:miter;stroke-miterlimit:4;stroke-dasharray:none;stroke-dashoffset:0;stroke-opacity:1"
       d="m 56.081331,73.667855 c -0.659616,0.124227 -1.296204,0.269025 -1.918747,0.426331 -0.197837,0.302776 -0.30257,0.646758 -0.30334,0.997354 -4.8e-5,0.62537 0.323837,1.183042 0.829408,1.547191 l -1.788007,30.956249 3.181718,2.70475 3.181718,-2.70475 -1.787485,-30.956765 c 0.505364,-0.364151 0.829455,-0.92144 0.829405,-1.546675 -7.94e-4,-0.350631 -0.105921,-0.694615 -0.303858,-0.997354 -0.623012,-0.157441 -1.260713,-0.302017 -1.920812,-0.426331 z"
       id="path916"
       class="col_2"
       inkscape:connector-curvature="0"
       inkscape:label="tie" />
    <path
       style="display:inline;opacity:0.3;vector-effect:none;fill:none;fill-opacity:1;stroke:#000000;stroke-width:0.1984375;stroke-linecap:round;stroke-linejoin:round;stroke-miterlimit:4;stroke-dasharray:none;stroke-dashoffset:0;stroke-opacity:1"
       d="m 48.856241,75.496251 c 2.351196,-0.852369 4.648407,-1.642449 7.243094,-2.193082 2.594687,0.550633 4.813302,1.340713 7.164498,2.193082"
       id="path620"
       inkscape:connector-curvature="0"
       sodipodi:nodetypes="ccc" />
    <path
       style="display:inline;opacity:1;vector-effect:none;fill:#c83737;fill-opacity:1;stroke:none;stroke-width:0.06595914;stroke-linecap:butt;stroke-linejoin:miter;stroke-miterlimit:4;stroke-dasharray:none;stroke-dashoffset:0;stroke-opacity:1"
       d="m 65.042023,66.097774 c -3.152905,6.790308 -4.008943,8.477406 -8.95966,14.847154 -4.949108,-6.367701 -5.837687,-8.05611 -8.988597,-14.840953 -0.815993,0.147085 -1.606409,0.314111 -2.369365,0.499711 -1.890066,0.580869 -4.152267,1.357503 -5.937623,2.079458 -0.553315,0.270111 -1.077153,0.552207 -1.564245,0.847495 -2.856839,1.731888 -4.55607,3.893497 -4.563028,6.230628 -5.8e-5,0.0026 -5.8e-5,0.0052 0,0.0078 0.0028,0.07621 0.01146,0.154102 0.01757,0.231511 -0.0114,0.02389 -0.0173,0.04958 -0.01757,0.07596 v 33.072392 c -2.57e-4,0.10231 0.08269,0.18531 0.185002,0.18501 h 21.236945 1.999879 2.002462 21.236945 c 0.102328,2.6e-4 0.185301,-0.0827 0.185002,-0.18501 V 76.076492 c -2.64e-4,-0.02638 -0.0058,-0.0526 -0.01757,-0.07648 0.0071,-0.07743 0.01429,-0.155583 0.01757,-0.230994 4.3e-5,-0.0026 4.3e-5,-0.0052 0,-0.0078 -0.0071,-2.337136 -1.706721,-4.498739 -4.563546,-6.230628 -0.630394,-0.382161 -1.321165,-0.743241 -2.061372,-1.082622 -1.703898,-0.65565 -3.740025,-1.329735 -5.463749,-1.849498 -0.765098,-0.185621 -1.556723,-0.353835 -2.37505,-0.500745 z"
       id="path937"
       inkscape:connector-curvature="0"
       class="col_3" />
    <path
       style="display:inline;opacity:0.3;vector-effect:none;fill:#000000;fill-opacity:1;stroke:none;stroke-width:0.08209594;stroke-linecap:butt;stroke-linejoin:miter;stroke-miterlimit:4;stroke-dasharray:none;stroke-dashoffset:0;stroke-opacity:1"
       d="m 49.285546,74.217389 6.751877,8.741275 7.354736,-9.012556 c -2.62338,3.200547 -4.199697,6.799288 -7.324593,9.856543 -2.661764,-3.098292 -4.577468,-6.376629 -6.78202,-9.585262 z"
       id="path942"
       inkscape:connector-curvature="0"
       sodipodi:nodetypes="ccccc"
       inkscape:label="detail1" />
    <path
       style="display:inline;opacity:0.2;vector-effect:none;fill:#000000;fill-opacity:1;stroke:none;stroke-width:0.06595914;stroke-linecap:butt;stroke-linejoin:miter;stroke-miterlimit:4;stroke-dasharray:none;stroke-dashoffset:0;stroke-opacity:1"
       d="m 49.734948,64.405888 c -1.003615,0 -1.104842,0.137459 -1.104842,0.137459 0.213802,0.480928 0.454044,0.943607 0.714169,1.392679 l 0.397907,-0.04186 z m 12.662792,0 -0.0072,1.488281 0.425815,0.04496 c 0.25753,-0.444336 0.495234,-0.902213 0.707448,-1.377693 l -0.02119,-0.01809 c 0,0 -0.101216,-0.137459 -1.104844,-0.137459 z"
       id="path959"
       inkscape:connector-curvature="0"
       inkscape:label="detail2" />
    <path
       style="display:inline;opacity:0.5;vector-effect:none;fill:#000000;fill-opacity:1;stroke:none;stroke-width:0.06595914;stroke-linecap:butt;stroke-linejoin:miter;stroke-miterlimit:4;stroke-dasharray:none;stroke-dashoffset:0;stroke-opacity:1"
       d="m 54.704171,76.634255 c 1.100106,1.026604 1.998106,0.673036 2.730518,-0.0121 -0.833601,0.206629 -1.800184,0.256867 -2.730518,0.0121 z"
       id="path944"
       inkscape:connector-curvature="0"
       sodipodi:nodetypes="ccc"
       inkscape:label="tie_detail" />
    <path
       style="opacity:0.3;vector-effect:none;fill:#000000;fill-opacity:1;stroke:none;stroke-width:0.1984375;stroke-linecap:round;stroke-linejoin:round;stroke-miterlimit:4;stroke-dasharray:none;stroke-dashoffset:0;stroke-opacity:1"
       d="m 69.446406,87.156437 c -0.0029,4.8e-5 -0.0059,2.09e-4 -0.0088,5.16e-4 -0.05521,0.0059 -0.09481,0.05601 -0.08785,0.111104 l 0.399457,19.861323 h 0.197921 L 69.547176,87.246869 c -0.0046,-0.05194 -0.04864,-0.09146 -0.10077,-0.09043 z"
       id="rect871"
       inkscape:connector-curvature="0" />
    <path
       style="color:#000000;font-style:normal;font-variant:normal;font-weight:normal;font-stretch:normal;font-size:medium;line-height:normal;font-family:sans-serif;font-variant-ligatures:normal;font-variant-position:normal;font-variant-caps:normal;font-variant-numeric:normal;font-variant-alternates:normal;font-feature-settings:normal;text-indent:0;text-align:start;text-decoration:none;text-decoration-line:none;text-decoration-style:solid;text-decoration-color:#000000;letter-spacing:normal;word-spacing:normal;text-transform:none;writing-mode:lr-tb;direction:ltr;text-orientation:mixed;dominant-baseline:auto;baseline-shift:baseline;text-anchor:start;white-space:normal;shape-padding:0;clip-rule:nonzero;display:inline;overflow:visible;visibility:visible;opacity:0.3;isolation:auto;mix-blend-mode:normal;color-interpolation:sRGB;color-interpolation-filters:linearRGB;solid-color:#000000;solid-opacity:1;vector-effect:none;fill:#000000;fill-opacity:1;fill-rule:nonzero;stroke:none;stroke-width:0.1984375;stroke-linecap:round;stroke-linejoin:round;stroke-miterlimit:4;stroke-dasharray:none;stroke-dashoffset:0;stroke-opacity:1;color-rendering:auto;image-rendering:auto;shape-rendering:auto;text-rendering:auto;enable-background:accumulate"
       d="m 42.710054,87.488198 c -0.0036,-1.8e-5 -0.0072,1.46e-4 -0.01085,5.19e-4 -0.04696,0.0052 -0.08371,0.04285 -0.08785,0.08992 l -0.393258,19.550743 h 0.199472 l 0.391191,-19.528524 c 0.0078,-0.05955 -0.03865,-0.112331 -0.0987,-0.112135 z"
       id="path1330"
       inkscape:connector-curvature="0" />
  </g>
  <g
     inkscape:groupmode="layer"
     id="layer15"
     inkscape:label="%0.1 pattern1"
     style="display:inline">
    <path
       style="opacity:0.1;vector-effect:none;fill:#000000;fill-opacity:1;stroke:none;stroke-width:0.1984375;stroke-linecap:round;stroke-linejoin:round;stroke-miterlimit:4;stroke-dasharray:none;stroke-dashoffset:0;stroke-opacity:1"
       d="m 42.238765,67.413972 c -0.895606,0.305499 -1.776981,0.623422 -2.609659,0.943095 h 8.519377 c -0.136713,-0.288674 -0.29613,-0.633088 -0.441317,-0.943095 z m 22.18831,0 c -0.144917,0.309928 -0.305006,0.654495 -0.441317,0.943095 h 8.6496 c -0.841886,-0.319128 -1.746457,-0.638829 -2.6572,-0.943095 z m -28.74605,3.184819 c -0.383963,0.305126 -0.736772,0.619249 -1.052647,0.943094 H 49.722029 C 49.562318,71.237318 49.40147,70.92344 49.238339,70.598791 Z m 27.219529,0 c -0.16228,0.32467 -0.322371,0.638516 -0.481108,0.943094 H 77.535835 C 77.220111,71.218204 76.867956,70.903768 76.48422,70.598791 Z m -29.756325,3.03289 c -0.02773,0.0604 -0.05005,0.121639 -0.07545,0.182417 -6.3e-5,1.48e-4 6.1e-5,2.64e-4 0,5.29e-4 -7.93e-4,0.0019 -0.0019,0.0038 -0.0026,0.0057 -0.09654,0.231566 -0.178491,0.465601 -0.240814,0.702284 L 34.27795,74.911722 34.072795,74.72672 H 51.565267 C 51.363133,74.410765 51.166722,74.09685 50.978223,73.783626 H 33.082674 c 0.02191,-0.05024 0.04472,-0.100301 0.0677,-0.150379 z M 61.17146,73.78361 c -0.187262,0.313182 -0.382495,0.627176 -0.583428,0.943094 H 78.08257 l 1.307931,0.01654 c -0.0658,-0.304313 -0.160644,-0.604594 -0.28267,-0.900721 l -0.0615,0.01654 0.04961,-0.04496 c -0.0043,-0.01024 -0.0096,-0.02024 -0.01394,-0.03049 z m -28.511955,2.383316 v 0.976167 l 4.199744,1.124998 0.749308,-0.356569 h 16.16697 C 53.535473,77.586421 53.306413,77.271614 53.089264,76.968428 H 36.561593 l -0.0031,0.243396 z m 46.846235,0.234096 -3.3538,0.898652 -0.558107,-0.331246 H 59.071329 c -0.21636,0.303149 -0.445288,0.618025 -0.684712,0.943094 h 16.160252 l 1.355474,0.431499 3.603397,-0.965317 z m -46.846235,2.43034 v 0.976686 l 7.69462,2.06189 0.790649,-0.773597 h 14.848189 l 0.0062,-0.259932 C 55.806374,80.5881 55.656408,80.387874 55.475674,80.153247 H 40.097799 l 0.264584,0.742072 z m 46.846235,0.234612 -5.972244,1.600419 -1.47588,-0.513146 H 56.688529 c -0.183597,0.238477 -0.335608,0.442423 -0.531752,0.695047 l 0.0062,0.248047 H 71.01065 l 2.336807,0.596347 6.158281,-1.650029 z m 0,2.664954 -10.287227,2.756422 0.03101,0.967898 10.256221,-2.748153 z M 55.914932,84.28116 h 13.297382 l -0.02997,-0.943613 H 55.938189 v 0 0 H 42.97309 L 42.94415,84.25222 32.659505,81.496833 V 82.473 l 10.253638,2.747637 0.02997,-0.939477 z M 32.659505,84.161788 v 0.976167 l 10.169922,2.724898 0.01241,-0.397393 h 26.471768 l 0.02016,0.632521 10.171988,-2.725415 V 84.39588 l -10.202994,2.734202 -0.01913,-0.607716 H 42.871805 l -0.01188,0.372589 z m 0,2.664952 v 0.976169 l 10.085689,2.702677 -0.0047,0.144692 h 26.673826 5.29e-4 l 0.0026,0.09043 10.088274,-2.703195 V 87.06083 l -10.118762,2.711463 -0.0021,-0.06511 H 42.770514 l 0.0052,-0.169497 z m 0,2.664955 v 0.976682 l 10.001456,2.679941 -0.0217,0.686779 h 26.876912 l -0.01447,-0.452168 10.004041,-2.680456 v -0.976686 l -10.035045,2.689244 0.01551,0.476972 h -26.81698 l 0.02273,-0.712102 z m 0,2.664952 v 0.976685 l 9.917223,2.657203 0.03101,-0.967899 z m 46.846235,0.234095 -9.950812,2.666503 0.031,0.968417 9.919808,-2.658234 z m -46.846235,2.430859 v 0.976167 l 9.833509,2.634983 0.03049,-0.967901 z m 46.846235,0.234612 -9.866582,2.643767 0.03049,0.967898 9.836091,-2.635498 z m -36.937796,1.020609 -0.02997,0.943094 h 27.079482 l -0.02997,-0.943094 z m -9.908439,1.409731 v 0.976686 l 9.749276,2.612241 0.02739,-0.87075 h 27.282574 l -0.02998,-0.94309 H 42.46614 l -0.02687,0.84543 z m 46.846235,0.234096 -9.782865,2.621541 0.03101,0.96842 9.751859,-2.613276 z m -46.846235,2.431371 v 0.97617 l 9.665044,2.58951 0.01035,-0.32815 h 27.485144 l 0.0181,0.56328 9.667626,-2.59054 v -0.97617 l -9.698632,2.59881 -0.01707,-0.53847 h -27.4252 l -0.0098,0.30334 z m 0,2.66444 v 0.97669 l 9.580811,2.56728 -0.0067,0.21394 H 69.92131 l 5.29e-4,0.0212 9.583912,-2.5678 v -0.97668 l -9.6144,2.57607 v 0.004 H 42.26357 l 0.0078,-0.23927 z m 0,2.66547 v 0.97617 l 9.496578,2.54455 0.03101,-0.9679 z m 46.846235,0.2341 -9.530683,2.55333 0.031,0.96842 9.499679,-2.54507 z"
       id="rect735"
       inkscape:connector-curvature="0"
       sodipodi:nodetypes="cccccccccccccccccccccccccccccccccccccccccccccccccccccccccccccccccccccccccccccccccccccccccccccccccccccccccccccccccccccccccccccccccccccccccccccccccccccccccccccccccccccccccccccccccccccccccccccccccccccccccccccccccccccc" />
  </g>
  <g
     inkscape:groupmode="layer"
     id="layer13"
     inkscape:label="%0.6 out_neck"
     style="display:inline">
    <path
       style="display:inline;opacity:1;vector-effect:none;fill:#ffffff;fill-opacity:1;stroke:none;stroke-width:0.06595914;stroke-linecap:butt;stroke-linejoin:miter;stroke-miterlimit:4;stroke-dasharray:none;stroke-dashoffset:0;stroke-opacity:1"
       d="m 49.734943,64.405901 c -1.003615,0 -1.104842,0.137459 -1.104842,0.137459 l -1.609203,1.404048 c 0.361275,3.103872 0.90697,6.269405 1.814875,9.555488 2.265222,-0.916988 4.617362,-1.747137 7.245554,-2.30115 C 53.490791,71.01688 50.987192,68.77234 49.34427,65.936039 l 0.397907,-0.04186 z m 6.346384,8.795845 c 2.62819,0.554013 4.980343,1.383644 7.245553,2.300634 0.9079,-3.286085 1.45413,-6.4511 1.81539,-9.554972 l -1.60972,-1.404564 c -0.003,0.0063 -0.006,0.0123 -0.009,0.0186 l -0.0212,-0.0181 c 0,0 -0.10121,-0.137459 -1.10484,-0.137459 l -0.007,1.488282 0.42581,0.04496 c -1.64296,2.834703 -4.145555,5.078663 -6.734989,7.262606 z"
       id="path904"
       class="col_1"
       inkscape:connector-curvature="0"
       inkscape:label="neck" />
    <path
       style="display:inline;opacity:0.2;vector-effect:none;fill:#000000;fill-opacity:1;stroke:none;stroke-width:0.06595914;stroke-linecap:butt;stroke-linejoin:miter;stroke-miterlimit:4;stroke-dasharray:none;stroke-dashoffset:0;stroke-opacity:1"
       d="m 49.734948,64.405888 c -1.003615,0 -1.104842,0.137459 -1.104842,0.137459 0.213802,0.480928 0.454044,0.943607 0.714169,1.392679 l 0.397907,-0.04186 z m 12.662792,0 -0.0072,1.488281 0.425815,0.04496 c 0.25753,-0.444336 0.495234,-0.902213 0.707448,-1.377693 l -0.02119,-0.01809 c 0,0 -0.101216,-0.137459 -1.104844,-0.137459 z"
       id="path959-5"
       inkscape:connector-curvature="0"
       inkscape:label="detail2" />
  </g>
</svg>
