<?xml version="1.0" encoding="UTF-8" standalone="no"?>
<!-- Created with Inkscape (http://www.inkscape.org/) -->

<svg
   xmlns:dc="http://purl.org/dc/elements/1.1/"
   xmlns:cc="http://creativecommons.org/ns#"
   xmlns:rdf="http://www.w3.org/1999/02/22-rdf-syntax-ns#"
   xmlns:svg="http://www.w3.org/2000/svg"
   xmlns="http://www.w3.org/2000/svg"
   xmlns:sodipodi="http://sodipodi.sourceforge.net/DTD/sodipodi-0.dtd"
   xmlns:inkscape="http://www.inkscape.org/namespaces/inkscape"
   width="112.07594mm"
   height="112.07593mm"
   viewBox="0 0 112.07594 112.07593"
   version="1.1"
   id="svg19053"
   sodipodi:docname="cheek_high.svg"
   inkscape:version="0.92.2 (unknown)">
  <sodipodi:namedview
     pagecolor="#ffffff"
     bordercolor="#666666"
     borderopacity="1"
     objecttolerance="10"
     gridtolerance="10"
     guidetolerance="10"
     inkscape:pageopacity="0"
     inkscape:pageshadow="2"
     inkscape:window-width="960"
     inkscape:window-height="1023"
     id="namedview29025"
     showgrid="false"
     inkscape:zoom="0.96511922"
     inkscape:cx="290.81437"
     inkscape:cy="-93.135011"
     inkscape:window-x="960"
     inkscape:window-y="27"
     inkscape:window-maximized="0"
     inkscape:current-layer="g42895" />
  <defs
     id="defs19047" />
  <metadata
     id="metadata19050">
    <rdf:RDF>
      <cc:Work
         rdf:about="">
        <dc:format>image/svg+xml</dc:format>
        <dc:type
           rdf:resource="http://purl.org/dc/dcmitype/StillImage" />
        <dc:title />
      </cc:Work>
    </rdf:RDF>
  </metadata>
  <g
     inkscape:label="Layer 1"
     inkscape:groupmode="layer"
     id="layer1"
     transform="translate(-18.410521,-47.652398)">
    <g
       id="g42895"
       clip-path="none">
      <path
         style="opacity:1;vector-effect:none;fill:#ffe6d5;fill-opacity:1;stroke:none;stroke-width:0.07242015;stroke-linecap:round;stroke-linejoin:round;stroke-miterlimit:4;stroke-dasharray:none;stroke-dashoffset:0;stroke-opacity:1"
         d="M 19.759924,49.001793 H 129.13706 V 158.37893 H 19.759924 Z"
         id="rect853" />
      <path
         inkscape:connector-curvature="0"
         id="rect23540"
         d="m 68.089476,104.07221 v 9.47642 c -9.982869,1.19871 -16.93067,5.25588 -16.944481,9.89449 0.0044,0.1053 0.01207,0.21055 0.02388,0.31574 h -0.02388 v 33.16749 h 21.296957 2.006532 v -52.85414 z"
         style="opacity:1;vector-effect:none;fill:#de8787;fill-opacity:1;stroke:none;stroke-width:2.13111639;stroke-linecap:round;stroke-linejoin:round;stroke-miterlimit:4;stroke-dasharray:none;stroke-dashoffset:0;stroke-opacity:1"
         inkscape:label="dskin" />
      <path
         inkscape:connector-curvature="0"
         style="opacity:1;vector-effect:none;fill:#de8787;fill-opacity:1;stroke:none;stroke-width:2.13111615;stroke-linecap:round;stroke-linejoin:round;stroke-miterlimit:4;stroke-dasharray:none;stroke-dashoffset:0;stroke-opacity:1"
         d="m 80.807491,104.07221 v 9.47642 c 9.982867,1.19871 16.930671,5.25588 16.944486,9.89449 -0.0049,0.1053 -0.01209,0.21055 -0.02389,0.31574 h 0.02389 v 33.16749 H 76.455015 74.448484 v -52.85414 z"
         id="path23835"
         inkscape:label="dskin" />
      <path
         sodipodi:nodetypes="ssssccs"
         inkscape:connector-curvature="0"
         id="rect23538"
         d="m 71.942989,70.654611 c -4.179125,0 -15.08632,3.263731 -15.08632,13.44259 0,0.907949 0.193178,4.876935 -1.470716,8.585397 -4.612997,10.281382 3.894367,16.273032 16.557036,16.273032 h 2.505495 V 70.654611 Z"
         style="opacity:1;vector-effect:none;fill:#e9afaf;fill-opacity:1;stroke:none;stroke-width:8.2308979;stroke-linecap:round;stroke-linejoin:round;stroke-miterlimit:4;stroke-dasharray:none;stroke-dashoffset:0;stroke-opacity:1"
         inkscape:label="skin" />
      <path
         style="opacity:1;vector-effect:none;fill:#e9afaf;fill-opacity:1;stroke:none;stroke-width:8.2308979;stroke-linecap:round;stroke-linejoin:round;stroke-miterlimit:4;stroke-dasharray:none;stroke-dashoffset:0;stroke-opacity:1"
         d="m 76.953984,70.654611 c 4.17912,0 15.08632,3.263731 15.08632,13.44259 0,0.907949 -0.19318,4.876935 1.47071,8.585397 4.613,10.281382 -3.89436,16.273032 -16.55703,16.273032 h -2.5055 V 70.654611 Z"
         id="path33540"
         inkscape:connector-curvature="0"
         sodipodi:nodetypes="ssssccs"
         inkscape:label="skin" />
      <path
         style="opacity:1;vector-effect:none;fill:#e9afaf;fill-opacity:1;stroke:none;stroke-width:3.39155388;stroke-linecap:round;stroke-linejoin:round;stroke-miterlimit:4;stroke-dasharray:none;stroke-dashoffset:0;stroke-opacity:1"
         d="m 74.448415,106.93229 c -3.930227,0 -7.116011,0.67164 -7.116015,1.50008 -4e-6,0.82845 3.185785,1.50008 7.116015,1.50009 3.930226,-1e-5 7.116011,-0.67164 7.116008,-1.50009 -4e-6,-0.82844 -3.185785,-1.50008 -7.116008,-1.50008 z"
         id="path4749"
         inkscape:connector-curvature="0"
         sodipodi:nodetypes="sscss"
         inkscape:label="skin" />
      <path
         inkscape:connector-curvature="0"
         style="opacity:1;vector-effect:none;fill:#ffffff;fill-opacity:1;stroke:none;stroke-width:0.07357386;stroke-linecap:round;stroke-linejoin:round;stroke-miterlimit:4;stroke-dasharray:none;stroke-dashoffset:0;stroke-opacity:1"
         d="M 18.888578,48.130444 V 159.25028 H 130.00841 V 48.130444 Z m 55.559918,2.289783 A 53.270417,53.270417 0 0 1 127.71915,103.69037 53.270417,53.270417 0 0 1 74.448496,156.96102 53.270417,53.270417 0 0 1 21.178361,103.69037 53.270417,53.270417 0 0 1 74.448496,50.420227 Z"
         id="rect855"
         inkscape:label="frame" />
    </g>
  </g>
</svg>
