<?xml version="1.0" encoding="UTF-8" standalone="no"?>
<!-- Created with Inkscape (http://www.inkscape.org/) -->

<svg
   xmlns:dc="http://purl.org/dc/elements/1.1/"
   xmlns:cc="http://creativecommons.org/ns#"
   xmlns:rdf="http://www.w3.org/1999/02/22-rdf-syntax-ns#"
   xmlns:svg="http://www.w3.org/2000/svg"
   xmlns="http://www.w3.org/2000/svg"
   xmlns:sodipodi="http://sodipodi.sourceforge.net/DTD/sodipodi-0.dtd"
   xmlns:inkscape="http://www.inkscape.org/namespaces/inkscape"
   width="112.07594mm"
   height="112.07593mm"
   viewBox="0 0 112.07594 112.07593"
   version="1.1"
   id="svg19053"
   sodipodi:docname="1a.svg"
   inkscape:version="0.92.2 (unknown)">
  <sodipodi:namedview
     pagecolor="#ffffff"
     bordercolor="#666666"
     borderopacity="1"
     objecttolerance="10"
     gridtolerance="10"
     guidetolerance="10"
     inkscape:pageopacity="0"
     inkscape:pageshadow="2"
     inkscape:window-width="1920"
     inkscape:window-height="1023"
     id="namedview29025"
     showgrid="false"
     inkscape:zoom="0.29174094"
     inkscape:cx="-18.549054"
     inkscape:cy="-304.9192"
     inkscape:window-x="0"
     inkscape:window-y="27"
     inkscape:window-maximized="1"
     inkscape:current-layer="layer1" />
  <defs
     id="defs19047" />
  <metadata
     id="metadata19050">
    <rdf:RDF>
      <cc:Work
         rdf:about="">
        <dc:format>image/svg+xml</dc:format>
        <dc:type
           rdf:resource="http://purl.org/dc/dcmitype/StillImage" />
        <dc:title />
      </cc:Work>
    </rdf:RDF>
  </metadata>
  <g
     inkscape:label="Layer 1"
     inkscape:groupmode="layer"
     id="layer1"
     transform="translate(-18.410521,-47.652398)">
    <path
       style="opacity:1;vector-effect:none;fill:#000000;fill-opacity:1;stroke:none;stroke-width:0.06977768;stroke-linecap:round;stroke-linejoin:round;stroke-miterlimit:4;stroke-dasharray:none;stroke-dashoffset:0;stroke-opacity:1"
       d="m 74.241636,59.793199 c -13.34634,1.05e-4 -24.165654,9.41214 -24.165756,21.022496 0.0057,0.381677 0.02452,0.723102 0.04896,1.048296 -0.372112,3.765489 1.58491,4.76805 1.563225,8.022692 -8e-6,4.021598 2.591792,8.583499 6.137535,11.755637 2.472951,2.47536 5.559293,4.1509 8.691045,4.15089 2.832057,-0.006 4.946332,-0.18132 7.825333,-0.18141 2.878859,-1e-4 4.992918,0.17582 7.824849,0.18141 3.131751,1e-5 6.218094,-1.67553 8.691044,-4.15089 3.545743,-3.172138 6.137543,-7.734037 6.137536,-11.755637 -0.02169,-3.254898 1.935734,-4.257392 1.563225,-8.023611 0.0244,-0.324927 0.04327,-0.666075 0.04896,-1.047377 C 98.60749,69.20534 87.788172,59.793304 74.441837,59.793199 c -0.03338,0 -0.06651,8.01e-4 -0.09985,9.18e-4 -0.03351,-1.18e-4 -0.0668,-9.18e-4 -0.100338,-9.18e-4 z"
       id="path57"
       inkscape:connector-curvature="0"
       sodipodi:nodetypes="ccccccscccccccc"
       inkscape:label="hair" />
  </g>
</svg>
