<?xml version="1.0" encoding="UTF-8" standalone="no"?>
<!-- Created with Inkscape (http://www.inkscape.org/) -->

<svg
   xmlns:dc="http://purl.org/dc/elements/1.1/"
   xmlns:cc="http://creativecommons.org/ns#"
   xmlns:rdf="http://www.w3.org/1999/02/22-rdf-syntax-ns#"
   xmlns:svg="http://www.w3.org/2000/svg"
   xmlns="http://www.w3.org/2000/svg"
   xmlns:sodipodi="http://sodipodi.sourceforge.net/DTD/sodipodi-0.dtd"
   xmlns:inkscape="http://www.inkscape.org/namespaces/inkscape"
   width="112.07594mm"
   height="112.07593mm"
   viewBox="0 0 112.07594 112.07593"
   version="1.1"
   id="svg19053"
   sodipodi:docname="2a.svg"
   inkscape:version="0.92.2 (unknown)">
  <sodipodi:namedview
     pagecolor="#ffffff"
     bordercolor="#666666"
     borderopacity="1"
     objecttolerance="10"
     gridtolerance="10"
     guidetolerance="10"
     inkscape:pageopacity="0"
     inkscape:pageshadow="2"
     inkscape:window-width="1920"
     inkscape:window-height="1023"
     id="namedview29025"
     showgrid="false"
     inkscape:zoom="4.6678551"
     inkscape:cx="177.68896"
     inkscape:cy="330.74592"
     inkscape:window-x="0"
     inkscape:window-y="27"
     inkscape:window-maximized="1"
     inkscape:current-layer="layer1" />
  <defs
     id="defs19047" />
  <metadata
     id="metadata19050">
    <rdf:RDF>
      <cc:Work
         rdf:about="">
        <dc:format>image/svg+xml</dc:format>
        <dc:type
           rdf:resource="http://purl.org/dc/dcmitype/StillImage" />
        <dc:title />
      </cc:Work>
    </rdf:RDF>
  </metadata>
  <g
     inkscape:label="Layer 1"
     inkscape:groupmode="layer"
     id="layer1"
     transform="translate(-18.410521,-47.652398)">
    <path
       style="opacity:1;vector-effect:none;fill:#000000;fill-opacity:1;stroke:none;stroke-width:0.06709886;stroke-linecap:round;stroke-linejoin:round;stroke-miterlimit:4;stroke-dasharray:none;stroke-dashoffset:0;stroke-opacity:1"
       d="m 74.42209,58.925612 a 7.7988122,6.1687336 0 0 0 -7.799009,6.168615 7.7988122,6.1687336 0 0 0 0.523483,2.218986 A 18.759582,19.116058 0 0 0 55.66251,84.912655 18.759582,19.116058 0 0 0 74.42209,104.0288 18.759582,19.116058 0 0 0 93.181667,84.912655 18.759582,19.116058 0 0 0 81.698131,67.295126 7.7988122,6.1687336 0 0 0 82.22058,65.094227 7.7988122,6.1687336 0 0 0 74.42209,58.925612 Z"
       id="path14"
       inkscape:connector-curvature="0"
       inkscape:label="hair" />
    <path
       style="opacity:1;vector-effect:none;fill:#ffffff;fill-opacity:1;stroke:none;stroke-width:0.07002969;stroke-linecap:round;stroke-linejoin:round;stroke-miterlimit:4;stroke-dasharray:none;stroke-dashoffset:0;stroke-opacity:1"
       d="m 74.417999,64.271132 a 8.1394597,6.4381797 0 0 0 -6.464369,2.538942 10.852366,6.4381797 0 0 1 6.464369,-1.27529 10.852366,6.4381797 0 0 1 6.472548,1.28003 8.1394597,6.4381797 0 0 0 -6.472548,-2.543682 z"
       id="ellipse16"
       inkscape:connector-curvature="0"
       inkscape:label="preserve-fill" />
  </g>
</svg>
