<?xml version="1.0" encoding="UTF-8" standalone="no"?>
<!-- Created with Inkscape (http://www.inkscape.org/) -->

<svg
   xmlns:dc="http://purl.org/dc/elements/1.1/"
   xmlns:cc="http://creativecommons.org/ns#"
   xmlns:rdf="http://www.w3.org/1999/02/22-rdf-syntax-ns#"
   xmlns:svg="http://www.w3.org/2000/svg"
   xmlns="http://www.w3.org/2000/svg"
   xmlns:sodipodi="http://sodipodi.sourceforge.net/DTD/sodipodi-0.dtd"
   xmlns:inkscape="http://www.inkscape.org/namespaces/inkscape"
   width="112.07594mm"
   height="112.07593mm"
   viewBox="0 0 112.07594 112.07593"
   version="1.1"
   id="svg19053"
   sodipodi:docname="2b.svg"
   inkscape:version="0.92.2 (unknown)">
  <sodipodi:namedview
     pagecolor="#ffffff"
     bordercolor="#666666"
     borderopacity="1"
     objecttolerance="10"
     gridtolerance="10"
     guidetolerance="10"
     inkscape:pageopacity="0"
     inkscape:pageshadow="2"
     inkscape:window-width="1920"
     inkscape:window-height="1023"
     id="namedview29025"
     showgrid="false"
     inkscape:zoom="2.9688718"
     inkscape:cx="182.52725"
     inkscape:cy="335.78303"
     inkscape:window-x="0"
     inkscape:window-y="27"
     inkscape:window-maximized="1"
     inkscape:current-layer="layer1" />
  <defs
     id="defs19047" />
  <metadata
     id="metadata19050">
    <rdf:RDF>
      <cc:Work
         rdf:about="">
        <dc:format>image/svg+xml</dc:format>
        <dc:type
           rdf:resource="http://purl.org/dc/dcmitype/StillImage" />
        <dc:title></dc:title>
      </cc:Work>
    </rdf:RDF>
  </metadata>
  <g
     inkscape:label="Layer 1"
     inkscape:groupmode="layer"
     id="layer1"
     transform="translate(-18.410521,-47.652398)">
    <path
       style="opacity:1;vector-effect:none;fill:#000000;fill-opacity:1;stroke:none;stroke-width:0.09811874;stroke-linecap:round;stroke-linejoin:round;stroke-miterlimit:4;stroke-dasharray:none;stroke-dashoffset:0;stroke-opacity:1"
       d="M 74.42209,57.677626 A 11.404213,9.0205469 0 0 0 63.017617,66.698264 11.404213,9.0205469 0 0 0 63.541616,69.369935 18.759582,19.116058 0 0 0 55.66251,84.912655 18.759582,19.116058 0 0 0 74.42209,104.0288 18.759582,19.116058 0 0 0 93.181667,84.912655 18.759582,19.116058 0 0 0 85.314446,69.368385 11.404213,9.0205469 0 0 0 85.826044,66.698264 11.404213,9.0205469 0 0 0 74.42209,57.677626 Z"
       id="path14"
       inkscape:connector-curvature="0"
       inkscape:label="hair" />
    <path
       style="opacity:1;vector-effect:none;fill:#ffffff;fill-opacity:1;stroke:none;stroke-width:0.09811874;stroke-linecap:round;stroke-linejoin:round;stroke-miterlimit:4;stroke-dasharray:none;stroke-dashoffset:0;stroke-opacity:1"
       d="m 74.416358,64.549476 a 11.404213,9.0205462 0 0 0 -9.057239,3.557317 15.205271,9.0205462 0 0 1 9.057239,-1.786811 15.205271,9.0205462 0 0 1 9.0687,1.793452 11.404213,9.0205462 0 0 0 -9.0687,-3.563958 z"
       id="ellipse16"
       inkscape:connector-curvature="0"
       inkscape:label="preserve-fill" />
  </g>
</svg>
