<?xml version="1.0" encoding="UTF-8" standalone="no"?>
<!-- Created with Inkscape (http://www.inkscape.org/) -->

<svg
   xmlns:dc="http://purl.org/dc/elements/1.1/"
   xmlns:cc="http://creativecommons.org/ns#"
   xmlns:rdf="http://www.w3.org/1999/02/22-rdf-syntax-ns#"
   xmlns:svg="http://www.w3.org/2000/svg"
   xmlns="http://www.w3.org/2000/svg"
   xmlns:sodipodi="http://sodipodi.sourceforge.net/DTD/sodipodi-0.dtd"
   xmlns:inkscape="http://www.inkscape.org/namespaces/inkscape"
   width="112.07594mm"
   height="112.07593mm"
   viewBox="0 0 112.07594 112.07593"
   version="1.1"
   id="svg19053"
   sodipodi:docname="4a.svg"
   inkscape:version="0.92.2 (unknown)">
  <sodipodi:namedview
     pagecolor="#ffffff"
     bordercolor="#666666"
     borderopacity="1"
     objecttolerance="10"
     gridtolerance="10"
     guidetolerance="10"
     inkscape:pageopacity="0"
     inkscape:pageshadow="2"
     inkscape:window-width="960"
     inkscape:window-height="1023"
     id="namedview29025"
     showgrid="false"
     inkscape:zoom="4.5106754"
     inkscape:cx="125.45031"
     inkscape:cy="179.93336"
     inkscape:window-x="960"
     inkscape:window-y="27"
     inkscape:window-maximized="0"
     inkscape:current-layer="layer1" />
  <defs
     id="defs19047" />
  <metadata
     id="metadata19050">
    <rdf:RDF>
      <cc:Work
         rdf:about="">
        <dc:format>image/svg+xml</dc:format>
        <dc:type
           rdf:resource="http://purl.org/dc/dcmitype/StillImage" />
        <dc:title />
      </cc:Work>
    </rdf:RDF>
  </metadata>
  <g
     inkscape:label="Layer 1"
     inkscape:groupmode="layer"
     id="layer1"
     transform="translate(-18.410521,-47.652398)">
    <path
       style="opacity:1;vector-effect:none;fill:#4d4d4d;fill-opacity:1;stroke:none;stroke-width:0.06614583;stroke-linecap:round;stroke-linejoin:round;stroke-miterlimit:4;stroke-dasharray:none;stroke-dashoffset:0;stroke-opacity:1"
       d="m 80.514758,67.33285 c -4.779263,0 -5.365927,0.38168 -5.868222,0.671682 -0.521984,-0.301368 -1.664177,-0.755246 -6.172462,-0.669615 -4.508288,0.08563 -8.865095,4.394411 -10.837008,7.448641 -1.971913,3.054231 -0.406511,0.816801 -0.921906,1.224733 -0.515395,0.407932 -1.388541,1.314693 -1.653646,2.098061 -0.265105,0.783368 -0.01286,0.812723 -0.204123,1.81746 -0.191254,1.004737 -0.73029,1.69068 -0.633034,3.902088 0.09726,2.211409 0.797094,6.503834 -0.480076,8.033618 -1.277171,1.529784 0.01077,3.457456 1.058333,4.969721 1.047559,1.512266 0.03142,3.131328 -1.112594,4.725811 -1.144011,1.59448 0.369588,3.46583 1.300181,5.25704 0.930592,1.79121 -1.10276,3.23334 -1.639179,5.10409 -0.536418,1.87074 1.892639,4.39979 3.464907,3.92637 1.572268,-0.47342 1.577798,-0.63467 2.489769,-0.4687 0.911971,0.16596 2.101207,1.29782 2.728,0.1018 0.626792,-1.19603 1.058407,-0.58739 2.45928,-0.69195 1.400874,-0.10456 2.537815,0.18636 2.918169,-0.63407 0.380355,-0.82043 1.48141,0.87087 3.368786,1.03663 1.887377,0.16575 1.382893,-1.25401 3.801319,-1.25419 2.418427,-1.7e-4 2.612287,1.29338 4.312915,0.2744 1.700628,-1.01897 2.133343,-0.94503 2.632914,-0.0568 0.49957,0.88818 1.517298,0.52951 2.918169,0.63407 1.400871,0.10456 1.832488,-0.50408 2.459281,0.69195 0.626792,1.19602 1.816028,0.0642 2.727999,-0.1018 0.911971,-0.16597 0.917501,-0.005 2.489769,0.4687 1.572268,0.47342 4.001325,-2.05563 3.464907,-3.92637 -0.536419,-1.87075 -2.569771,-3.31288 -1.639179,-5.10409 0.930593,-1.79121 2.444708,-3.66256 1.300697,-5.25704 -1.144011,-1.594483 -2.160156,-3.213545 -1.112594,-4.725811 1.047562,-1.512265 2.320695,-3.453619 1.058333,-4.969721 -1.262361,-1.516102 -0.565935,-6.288635 -0.617016,-8.522994 -0.05108,-2.234358 0.337071,-1.680937 0.112138,-2.502172 -0.224932,-0.821235 -0.715589,-1.303862 -1.077454,-1.859836 -0.361866,-0.555974 -0.65994,-1.05705 -0.748274,-1.822627 -0.08833,-0.765577 -0.92415,-2.355263 -1.41025,-2.743502 -0.4861,-0.388239 1.844061,2.77331 -0.01241,-0.0093 -1.85647,-2.782623 -6.147176,-7.066224 -10.92644,-7.066224 z"
       id="path125"
       inkscape:connector-curvature="0"
       sodipodi:nodetypes="zczzzzzzzzzzzzzzzzzzzzzzzzzzzzzzzzzzzz"
       inkscape:label="hair" />
  </g>
</svg>
