<?xml version="1.0" encoding="UTF-8" standalone="no"?>
<!-- Created with Inkscape (http://www.inkscape.org/) -->

<svg
   xmlns:dc="http://purl.org/dc/elements/1.1/"
   xmlns:cc="http://creativecommons.org/ns#"
   xmlns:rdf="http://www.w3.org/1999/02/22-rdf-syntax-ns#"
   xmlns:svg="http://www.w3.org/2000/svg"
   xmlns="http://www.w3.org/2000/svg"
   xmlns:sodipodi="http://sodipodi.sourceforge.net/DTD/sodipodi-0.dtd"
   xmlns:inkscape="http://www.inkscape.org/namespaces/inkscape"
   width="112.07594mm"
   height="112.07593mm"
   viewBox="0 0 112.07594 112.07593"
   version="1.1"
   id="svg19053"
   sodipodi:docname="4b.svg"
   inkscape:version="0.92.2 (unknown)">
  <sodipodi:namedview
     pagecolor="#ffffff"
     bordercolor="#666666"
     borderopacity="1"
     objecttolerance="10"
     gridtolerance="10"
     guidetolerance="10"
     inkscape:pageopacity="0"
     inkscape:pageshadow="2"
     inkscape:window-width="960"
     inkscape:window-height="1023"
     id="namedview29025"
     showgrid="false"
     inkscape:zoom="1.8246927"
     inkscape:cx="210.97505"
     inkscape:cy="232.0477"
     inkscape:window-x="960"
     inkscape:window-y="27"
     inkscape:window-maximized="0"
     inkscape:current-layer="layer1" />
  <defs
     id="defs19047" />
  <metadata
     id="metadata19050">
    <rdf:RDF>
      <cc:Work
         rdf:about="">
        <dc:format>image/svg+xml</dc:format>
        <dc:type
           rdf:resource="http://purl.org/dc/dcmitype/StillImage" />
        <dc:title></dc:title>
      </cc:Work>
    </rdf:RDF>
  </metadata>
  <g
     inkscape:label="Layer 1"
     inkscape:groupmode="layer"
     id="layer1"
     transform="translate(-18.410521,-47.652398)">
    <path
       style="opacity:1;vector-effect:none;fill:#4d4d4d;fill-opacity:1;stroke:none;stroke-width:0.06614583;stroke-linecap:round;stroke-linejoin:round;stroke-miterlimit:4;stroke-dasharray:none;stroke-dashoffset:0;stroke-opacity:1"
       d="m 80.514758,67.33285 c -4.779263,0 -5.365927,0.38168 -5.868222,0.671682 -0.521984,-0.301368 -1.664177,-0.755246 -6.172462,-0.669615 -4.508288,0.08563 -8.865095,4.394411 -10.837008,7.448641 -1.971913,3.054231 -0.406511,0.835458 -0.921906,1.224733 -0.515395,0.389275 -1.388541,1.254566 -1.653646,2.002106 -0.265105,0.747541 -0.01286,0.775553 -0.204123,1.734339 -0.191254,0.958785 -0.73029,1.613356 -0.633034,3.723626 0.09726,2.11027 0.797094,2.166659 -0.480076,3.626479 -1.277171,1.459819 -0.01381,3.595048 1.058333,4.742431 1.072135,1.147383 0.03142,2.375794 -1.112594,3.585557 -1.144011,1.20976 0.352157,2.629589 1.304582,3.98861 0.952424,1.359031 -1.107161,2.453191 -1.64358,3.872571 -0.536418,1.41936 1.892639,3.33819 3.464907,2.979 1.572268,-0.35919 1.577798,-0.48154 2.489769,-0.35561 0.911971,0.12591 2.101207,0.98468 2.728,0.0772 0.626792,-0.90745 1.058407,-0.44566 2.45928,-0.52499 1.400874,-0.0793 2.537815,0.14139 2.918169,-0.48108 0.380355,-0.62248 1.48141,0.66074 3.368786,0.7865 1.887377,0.12576 1.382893,-0.95144 3.801319,-0.95157 2.418427,-1.3e-4 2.612287,0.98131 4.312915,0.20819 1.700628,-0.77311 2.133343,-0.71701 2.632914,-0.0431 0.49957,0.67388 1.517298,0.40174 2.918169,0.48108 1.400871,0.0793 1.832488,-0.38246 2.459281,0.52499 0.626792,0.90745 1.816028,0.0488 2.727999,-0.0772 0.911971,-0.12592 0.917501,-0.004 2.489769,0.35561 1.572268,0.3592 4.001325,-1.55964 3.464907,-2.979 -0.536419,-1.41937 -1.673232,-2.51354 -0.720808,-3.87257 0.952426,-1.35902 1.526337,-2.778849 0.382326,-3.98861 -1.144011,-1.209762 -1.261948,-2.438174 -0.18981,-3.585556 1.072139,-1.147382 1.397911,-3.29566 0.135549,-4.742423 -1.262361,-1.446763 -0.565935,-1.961303 -0.617016,-4.093474 -0.05108,-2.132169 0.337071,-1.604059 0.112138,-2.387735 -0.224932,-0.783676 -0.715589,-1.24423 -1.077454,-1.774776 -0.361866,-0.530547 -0.65994,-1.008706 -0.748274,-1.739269 -0.08833,-0.730564 -0.92415,-2.302961 -1.41025,-2.6912 -0.4861,-0.388239 1.844061,2.77331 -0.01241,-0.0093 -1.85647,-2.782623 -6.147176,-7.066224 -10.92644,-7.066224 z"
       id="path125"
       inkscape:connector-curvature="0"
       sodipodi:nodetypes="cczzzzzzzzzzzzzzzzzzzzzzzzzzzzzzzzzzzzc" />
  </g>
</svg>
