<?xml version="1.0" encoding="UTF-8" standalone="no"?>
<!-- Created with Inkscape (http://www.inkscape.org/) -->

<svg
   xmlns:dc="http://purl.org/dc/elements/1.1/"
   xmlns:cc="http://creativecommons.org/ns#"
   xmlns:rdf="http://www.w3.org/1999/02/22-rdf-syntax-ns#"
   xmlns:svg="http://www.w3.org/2000/svg"
   xmlns="http://www.w3.org/2000/svg"
   xmlns:sodipodi="http://sodipodi.sourceforge.net/DTD/sodipodi-0.dtd"
   xmlns:inkscape="http://www.inkscape.org/namespaces/inkscape"
   width="112.07594mm"
   height="112.07593mm"
   viewBox="0 0 112.07594 112.07593"
   version="1.1"
   id="svg19053"
   sodipodi:docname="7a.svg"
   inkscape:version="0.92.2 (unknown)">
  <sodipodi:namedview
     pagecolor="#ffffff"
     bordercolor="#666666"
     borderopacity="1"
     objecttolerance="10"
     gridtolerance="10"
     guidetolerance="10"
     inkscape:pageopacity="0"
     inkscape:pageshadow="2"
     inkscape:window-width="1920"
     inkscape:window-height="1023"
     id="namedview29025"
     showgrid="false"
     inkscape:zoom="2"
     inkscape:cx="126.32866"
     inkscape:cy="250.00892"
     inkscape:window-x="0"
     inkscape:window-y="27"
     inkscape:window-maximized="1"
     inkscape:current-layer="layer1"
     showguides="true"
     inkscape:guide-bbox="true">
    <sodipodi:guide
       position="71.336936,74.50747"
       orientation="0,1"
       id="guide829"
       inkscape:locked="false" />
  </sodipodi:namedview>
  <defs
     id="defs19047" />
  <metadata
     id="metadata19050">
    <rdf:RDF>
      <cc:Work
         rdf:about="">
        <dc:format>image/svg+xml</dc:format>
        <dc:type
           rdf:resource="http://purl.org/dc/dcmitype/StillImage" />
        <dc:title />
      </cc:Work>
    </rdf:RDF>
  </metadata>
  <g
     inkscape:label="Layer 1"
     inkscape:groupmode="layer"
     id="layer1"
     transform="translate(-18.410521,-47.652398)">
    <path
       style="opacity:1;vector-effect:none;fill:#000000;fill-opacity:1;stroke:none;stroke-width:0.06969512;stroke-linecap:round;stroke-linejoin:round;stroke-miterlimit:4;stroke-dasharray:none;stroke-dashoffset:0;stroke-opacity:1"
       d="m 71.922499,62.95689 a 7.1437496,7.1437496 0 0 0 -5.491138,2.578137 2.5135414,2.5135414 0 0 0 -0.792716,-0.130741 2.5135414,2.5135414 0 0 0 -2.513541,2.513541 2.5135414,2.5135414 0 0 0 0.05013,0.488343 7.1437496,7.1437496 0 0 0 -0.361733,0.120406 2.5135414,2.5135414 0 0 0 -0.614434,-0.07958 2.5135414,2.5135414 0 0 0 -1.073835,0.245463 2.9765625,2.9765625 0 0 0 -1.175123,-0.245463 2.9765625,2.9765625 0 0 0 -2.976047,2.963643 2.9765625,2.9765625 0 0 0 -1.52187,2.592607 2.9765625,2.9765625 0 0 0 0.108522,0.796335 2.3151042,2.3151042 0 0 0 -0.76998,-0.134877 2.3151042,2.3151042 0 0 0 -2.315104,2.315104 2.3151042,2.3151042 0 0 0 1.034044,1.926498 7.1437496,7.1437496 0 0 0 -0.967898,3.563607 7.1437496,7.1437496 0 0 0 0.522964,2.672704 2.5135414,2.5135414 0 0 0 -0.787548,1.825212 2.5135414,2.5135414 0 0 0 2.12752,2.480469 7.1437496,7.1437496 0 0 0 1.201476,3.673679 2.5135414,2.5135414 0 0 0 -0.153996,0.85731 2.5135414,2.5135414 0 0 0 2.513542,2.513542 2.5135414,2.5135414 0 0 0 1.507403,-0.505396 7.1437496,7.1437496 0 0 0 2.064472,0.306959 7.1437496,7.1437496 0 0 0 7.14375,-7.14375 7.1437496,7.1437496 0 0 0 -2.057755,-5.013132 7.1437496,7.1437496 0 0 0 0.205671,-1.667597 7.1437496,7.1437496 0 0 0 -0.01033,-0.287838 7.1437496,7.1437496 0 0 0 5.398119,-4.948018 7.1437496,7.1437496 0 0 0 4.222483,-1.604555 7.1437496,7.1437496 0 0 0 5.182629,2.781226 7.1437496,7.1437496 0 0 0 -0.174668,1.545643 7.1437496,7.1437496 0 0 0 0.891935,3.440099 7.1437496,7.1437496 0 0 0 -2.280997,5.225005 7.1437496,7.1437496 0 0 0 7.14375,7.14375 7.1437496,7.1437496 0 0 0 2.029851,-0.299723 2.5135414,2.5135414 0 0 0 2.07119,1.093473 2.5135414,2.5135414 0 0 0 2.513542,-2.513542 2.5135414,2.5135414 0 0 0 -0.584978,-1.608172 7.1437496,7.1437496 0 0 0 1.114145,-3.815786 7.1437496,7.1437496 0 0 0 -0.121957,-1.295011 2.5135414,2.5135414 0 0 0 0.849561,-1.879989 2.5135414,2.5135414 0 0 0 -0.532268,-1.544608 7.1437496,7.1437496 0 0 0 1.024229,-2.421041 2.5135414,2.5135414 0 0 0 0.897101,-1.92133 2.5135414,2.5135414 0 0 0 -1.194241,-2.13527 7.1437496,7.1437496 0 0 0 -1.775087,-2.652551 2.5135414,2.5135414 0 0 0 0.323495,-1.23145 2.5135414,2.5135414 0 0 0 -2.513542,-2.513541 2.5135414,2.5135414 0 0 0 -0.338481,0.02584 2.5135414,2.5135414 0 0 0 0.0078,-0.15813 2.5135414,2.5135414 0 0 0 -2.345592,-2.505274 7.1437496,7.1437496 0 0 0 -6.517949,-4.241601 7.1437496,7.1437496 0 0 0 -1.484665,0.164331 2.5135414,2.5135414 0 0 0 -2.021064,-1.024227 2.5135414,2.5135414 0 0 0 -2.182297,1.270207 7.1437496,7.1437496 0 0 0 -4.498433,-1.600936 z"
       id="circle883"
       inkscape:connector-curvature="0"
       inkscape:label="hair" />
    <path
       style="fill:#000000;stroke:none;stroke-width:0.26458332px;stroke-linecap:butt;stroke-linejoin:miter;stroke-opacity:1"
       d="m 53.137083,80.684055 c -0.372016,3.165536 -2.061599,0.479215 -1.223697,-0.264583 -2.168431,1.087548 -0.538835,2.544106 1.273307,3.12539 z"
       id="path933"
       inkscape:connector-curvature="0"
       sodipodi:nodetypes="cccc"
       inkscape:label="hair" />
    <path
       style="fill:#000000;stroke:none;stroke-width:0.26458332px;stroke-linecap:butt;stroke-linejoin:miter;stroke-opacity:1"
       d="m 63.951927,68.182492 c -1.42975,-0.677694 -1.2196,-2.59366 -10e-7,-3.423047 -3.056284,1.448756 -1.662376,3.043252 -0.909504,4.316016 z"
       id="path935"
       inkscape:connector-curvature="0"
       sodipodi:nodetypes="cccc"
       inkscape:label="hair" />
    <path
       style="fill:#000000;stroke:none;stroke-width:0.26458332px;stroke-linecap:butt;stroke-linejoin:miter;stroke-opacity:1"
       d="m 87.9794,68.959706 c 1.666385,-2.174967 0.321682,-3.725684 -1.5875,-5.159375 3.048814,1.109025 4.013636,3.192385 3.671095,5.886979 z"
       id="path937"
       inkscape:connector-curvature="0"
       sodipodi:nodetypes="cccc"
       inkscape:label="hair" />
    <path
       style="fill:#000000;stroke:none;stroke-width:0.26458332px;stroke-linecap:butt;stroke-linejoin:miter;stroke-opacity:1"
       d="m 90.46311,70.675116 c 2.259406,-1.995693 0.794781,-0.426653 3.608237,1.062346 -2.551106,-0.07044 -2.17263,-2.827361 -2.880632,0.673983 z"
       id="path939"
       inkscape:connector-curvature="0"
       sodipodi:nodetypes="cccc"
       inkscape:label="hair" />
    <path
       style="fill:#000000;stroke:none;stroke-width:0.26458332px;stroke-linecap:butt;stroke-linejoin:miter;stroke-opacity:1"
       d="m 96.900819,74.251291 c -0.888653,0.21314 -1.436343,0.452805 -1.453657,1.269172 -0.659162,0.113614 -1.349272,0.334864 -1.349272,0.334864 l 0.413411,0.496094 c 0,0 0.717376,-0.120422 0.876433,-0.124023 -0.03425,0.447624 0.84869,0.984956 1.289843,0.859895 0.842341,-0.238789 0.856782,-0.85935 0.744141,-1.198893 -0.129818,-0.391318 -0.733579,-0.396348 -1.158587,-0.426331 -0.01778,-0.508759 0.207717,-0.85481 0.637688,-1.210778 z m -0.312642,1.666047 c 0.274995,0.123925 0.440111,0.353099 0.36897,0.512114 -0.07165,0.159057 -0.353063,0.187291 -0.628386,0.06305 -0.238233,-0.107662 -0.398933,-0.297598 -0.383439,-0.453202 -0.03415,-0.165161 0.118962,-0.186272 0.265308,-0.193122 0.146346,-0.0069 0.265255,0.02045 0.377547,0.07117 z"
       id="path941"
       inkscape:connector-curvature="0"
       sodipodi:nodetypes="ccccccscccccccc"
       inkscape:label="hair" />
  </g>
</svg>
