<?xml version="1.0" encoding="UTF-8" standalone="no"?>
<!-- Created with Inkscape (http://www.inkscape.org/) -->

<svg
   xmlns:dc="http://purl.org/dc/elements/1.1/"
   xmlns:cc="http://creativecommons.org/ns#"
   xmlns:rdf="http://www.w3.org/1999/02/22-rdf-syntax-ns#"
   xmlns:svg="http://www.w3.org/2000/svg"
   xmlns="http://www.w3.org/2000/svg"
   xmlns:sodipodi="http://sodipodi.sourceforge.net/DTD/sodipodi-0.dtd"
   xmlns:inkscape="http://www.inkscape.org/namespaces/inkscape"
   width="112.07594mm"
   height="112.07593mm"
   viewBox="0 0 112.07594 112.07593"
   version="1.1"
   id="svg19053"
   sodipodi:docname="7b.svg"
   inkscape:version="0.92.2 (unknown)">
  <sodipodi:namedview
     pagecolor="#ffffff"
     bordercolor="#666666"
     borderopacity="1"
     objecttolerance="10"
     gridtolerance="10"
     guidetolerance="10"
     inkscape:pageopacity="0"
     inkscape:pageshadow="2"
     inkscape:window-width="1920"
     inkscape:window-height="1023"
     id="namedview29025"
     showgrid="false"
     inkscape:zoom="1.4142136"
     inkscape:cx="3.6715239"
     inkscape:cy="246.19975"
     inkscape:window-x="0"
     inkscape:window-y="27"
     inkscape:window-maximized="1"
     inkscape:current-layer="layer1"
     showguides="true"
     inkscape:guide-bbox="true">
    <sodipodi:guide
       position="71.336936,74.50747"
       orientation="0,1"
       id="guide829"
       inkscape:locked="false" />
  </sodipodi:namedview>
  <defs
     id="defs19047" />
  <metadata
     id="metadata19050">
    <rdf:RDF>
      <cc:Work
         rdf:about="">
        <dc:format>image/svg+xml</dc:format>
        <dc:type
           rdf:resource="http://purl.org/dc/dcmitype/StillImage" />
        <dc:title></dc:title>
      </cc:Work>
    </rdf:RDF>
  </metadata>
  <g
     inkscape:label="Layer 1"
     inkscape:groupmode="layer"
     id="layer1"
     transform="translate(-18.410521,-47.652398)">
    <path
       style="opacity:1;vector-effect:none;fill:#000000;fill-opacity:1;stroke:none;stroke-width:0.06969512;stroke-linecap:round;stroke-linejoin:round;stroke-miterlimit:4;stroke-dasharray:none;stroke-dashoffset:0;stroke-opacity:1"
       d="m 71.922499,62.95689 a 7.1437496,7.1437496 0 0 0 -5.491138,2.578137 2.5135414,2.5135414 0 0 0 -0.792716,-0.130741 2.5135414,2.5135414 0 0 0 -2.513541,2.513541 2.5135414,2.5135414 0 0 0 0.05013,0.488343 7.1437496,7.1437496 0 0 0 -0.361733,0.120406 2.5135414,2.5135414 0 0 0 -0.614434,-0.07958 2.5135414,2.5135414 0 0 0 -1.073835,0.245463 2.9765625,2.9765625 0 0 0 -1.175123,-0.245463 2.9765625,2.9765625 0 0 0 -2.976047,2.963643 2.9765625,2.9765625 0 0 0 -1.52187,2.592607 2.9765625,2.9765625 0 0 0 0.108522,0.796335 2.3151042,2.3151042 0 0 0 -0.76998,-0.134877 2.3151042,2.3151042 0 0 0 -2.315104,2.315104 2.3151042,2.3151042 0 0 0 1.034044,1.926498 7.1437496,7.1437496 0 0 0 -0.967898,3.563607 7.1437496,7.1437496 0 0 0 0.522964,2.672704 2.5135414,2.5135414 0 0 0 -0.787548,1.825212 2.5135414,2.5135414 0 0 0 2.12752,2.480469 7.1437496,7.1437496 0 0 0 1.201476,3.673679 2.5135414,2.5135414 0 0 0 -0.153996,0.85731 2.5135414,2.5135414 0 0 0 2.513542,2.513542 2.5135414,2.5135414 0 0 0 1.507403,-0.505396 7.1437496,7.1437496 0 0 0 2.064472,0.306959 7.1437496,7.1437496 0 0 0 7.14375,-7.14375 7.1437496,7.1437496 0 0 0 -2.057755,-5.013132 7.1437496,7.1437496 0 0 0 0.205671,-1.667597 7.1437496,7.1437496 0 0 0 -0.01033,-0.287838 7.1437496,7.1437496 0 0 0 5.398119,-4.948018 7.1437496,7.1437496 0 0 0 4.222483,-1.604555 7.1437496,7.1437496 0 0 0 5.182629,2.781226 7.1437496,7.1437496 0 0 0 -0.174668,1.545643 7.1437496,7.1437496 0 0 0 0.891935,3.440099 7.1437496,7.1437496 0 0 0 -2.280997,5.225005 7.1437496,7.1437496 0 0 0 7.14375,7.14375 7.1437496,7.1437496 0 0 0 2.029851,-0.299723 2.5135414,2.5135414 0 0 0 2.07119,1.093473 2.5135414,2.5135414 0 0 0 2.513542,-2.513542 2.5135414,2.5135414 0 0 0 -0.584978,-1.608172 7.1437496,7.1437496 0 0 0 1.114145,-3.815786 7.1437496,7.1437496 0 0 0 -0.121957,-1.295011 2.5135414,2.5135414 0 0 0 0.849561,-1.879989 2.5135414,2.5135414 0 0 0 -0.532268,-1.544608 7.1437496,7.1437496 0 0 0 1.024229,-2.421041 2.5135414,2.5135414 0 0 0 0.897101,-1.92133 2.5135414,2.5135414 0 0 0 -1.194241,-2.13527 7.1437496,7.1437496 0 0 0 -1.775087,-2.652551 2.5135414,2.5135414 0 0 0 0.323495,-1.23145 2.5135414,2.5135414 0 0 0 -2.513542,-2.513541 2.5135414,2.5135414 0 0 0 -0.338481,0.02584 2.5135414,2.5135414 0 0 0 0.0078,-0.15813 2.5135414,2.5135414 0 0 0 -2.345592,-2.505274 7.1437496,7.1437496 0 0 0 -6.517949,-4.241601 7.1437496,7.1437496 0 0 0 -1.484665,0.164331 2.5135414,2.5135414 0 0 0 -2.021064,-1.024227 2.5135414,2.5135414 0 0 0 -2.182297,1.270207 7.1437496,7.1437496 0 0 0 -4.498433,-1.600936 z"
       id="circle883"
       inkscape:connector-curvature="0" />
    <path
       style="fill:#000000;stroke:none;stroke-width:0.26458332px;stroke-linecap:butt;stroke-linejoin:miter;stroke-opacity:1"
       d="m 58.3146,70.252258 c -2.135269,2.366356 -1.958647,-0.80221 -0.844869,-0.923924 -2.397811,-0.36791 -1.9117,1.763015 -0.7702,3.285752 z"
       id="path933"
       inkscape:connector-curvature="0"
       sodipodi:nodetypes="cccc" />
    <path
       style="fill:#000000;stroke:none;stroke-width:0.26458332px;stroke-linecap:butt;stroke-linejoin:miter;stroke-opacity:1"
       d="m 52.797876,82.313282 c 0.183183,1.571591 -1.552878,2.408955 -2.902621,1.814398 2.848486,1.823702 3.461717,-0.20345 4.141913,-1.516491 z"
       id="path935"
       inkscape:connector-curvature="0"
       sodipodi:nodetypes="cccc" />
    <path
       style="fill:#000000;stroke:none;stroke-width:0.26458332px;stroke-linecap:butt;stroke-linejoin:miter;stroke-opacity:1"
       d="m 80.912013,65.831243 c 0.369976,-2.714856 -1.566364,-3.395689 -3.935063,-3.695212 3.197794,-0.5471 5.068035,0.784617 6.105453,3.294982 z"
       id="path937"
       inkscape:connector-curvature="0"
       sodipodi:nodetypes="cccc" />
    <path
       style="fill:#000000;stroke:none;stroke-width:0.26458332px;stroke-linecap:butt;stroke-linejoin:miter;stroke-opacity:1"
       d="m 88.032061,68.778911 c 0.571839,-2.95985 0.369209,-0.82304 3.506677,-1.360577 -2.063888,1.501156 -3.446639,-0.913768 -1.870601,2.291974 z"
       id="path939"
       inkscape:connector-curvature="0"
       sodipodi:nodetypes="cccc" />
    <path
       style="fill:#000000;stroke:none;stroke-width:0.26458332px;stroke-linecap:butt;stroke-linejoin:miter;stroke-opacity:1"
       d="M 97.023208,87.242725 C 96.180411,86.889419 95.59697,86.759033 95.100494,87.407311 94.501638,87.109364 93.8142,86.879947 93.8142,86.879947 l 0.04026,0.644513 c 0,0 0.649838,0.326863 0.780268,0.417968 -0.292193,0.340828 0.102434,1.296119 0.532202,1.455981 0.820599,0.305244 1.199028,-0.18679 1.308852,-0.527253 0.126571,-0.392382 -0.357473,-0.753289 -0.682581,-1.028672 0.286358,-0.420895 0.672784,-0.566754 1.230008,-0.599759 z m -1.236897,1.159112 c 0.148576,0.262498 0.146313,0.54495 -0.0051,0.631169 -0.151805,0.08595 -0.39549,-0.0576 -0.544145,-0.320545 -0.128535,-0.22765 -0.1459,-0.475842 -0.04143,-0.5922 0.07007,-0.153409 0.206054,-0.07994 0.328151,0.001 0.122127,0.08093 0.201878,0.173273 0.262485,0.280547 z"
       id="path941"
       inkscape:connector-curvature="0"
       sodipodi:nodetypes="ccccccscccccccc" />
  </g>
</svg>
