<?xml version="1.0" encoding="UTF-8" standalone="no"?>
<!-- Created with Inkscape (http://www.inkscape.org/) -->

<svg
   xmlns:dc="http://purl.org/dc/elements/1.1/"
   xmlns:cc="http://creativecommons.org/ns#"
   xmlns:rdf="http://www.w3.org/1999/02/22-rdf-syntax-ns#"
   xmlns:svg="http://www.w3.org/2000/svg"
   xmlns="http://www.w3.org/2000/svg"
   xmlns:sodipodi="http://sodipodi.sourceforge.net/DTD/sodipodi-0.dtd"
   xmlns:inkscape="http://www.inkscape.org/namespaces/inkscape"
   width="112.07594mm"
   height="112.07593mm"
   viewBox="0 0 112.07594 112.07593"
   version="1.1"
   id="svg19053"
   sodipodi:docname="7c.svg"
   inkscape:version="0.92.2 (unknown)">
  <sodipodi:namedview
     pagecolor="#ffffff"
     bordercolor="#666666"
     borderopacity="1"
     objecttolerance="10"
     gridtolerance="10"
     guidetolerance="10"
     inkscape:pageopacity="0"
     inkscape:pageshadow="2"
     inkscape:window-width="1920"
     inkscape:window-height="1023"
     id="namedview29025"
     showgrid="false"
     inkscape:zoom="2"
     inkscape:cx="25.82866"
     inkscape:cy="250.00892"
     inkscape:window-x="0"
     inkscape:window-y="27"
     inkscape:window-maximized="1"
     inkscape:current-layer="layer1"
     showguides="true"
     inkscape:guide-bbox="true">
    <sodipodi:guide
       position="71.336936,74.50747"
       orientation="0,1"
       id="guide829"
       inkscape:locked="false" />
  </sodipodi:namedview>
  <defs
     id="defs19047" />
  <metadata
     id="metadata19050">
    <rdf:RDF>
      <cc:Work
         rdf:about="">
        <dc:format>image/svg+xml</dc:format>
        <dc:type
           rdf:resource="http://purl.org/dc/dcmitype/StillImage" />
        <dc:title />
      </cc:Work>
    </rdf:RDF>
  </metadata>
  <g
     inkscape:label="Layer 1"
     inkscape:groupmode="layer"
     id="layer1"
     transform="translate(-18.410521,-47.652398)">
    <path
       style="opacity:1;vector-effect:none;fill:#000000;fill-opacity:1;stroke:none;stroke-width:0.07477574;stroke-linecap:round;stroke-linejoin:round;stroke-miterlimit:4;stroke-dasharray:none;stroke-dashoffset:0;stroke-opacity:1"
       d="m 71.794647,62.95689 a 7.5493989,7.7813827 0 0 0 -5.802946,2.808255 2.6562699,2.7378938 0 0 0 -0.837729,-0.142411 2.6562699,2.7378938 0 0 0 -2.65627,2.737894 2.6562699,2.7378938 0 0 0 0.05298,0.531931 7.5493989,7.7813827 0 0 0 -0.382274,0.131153 2.6562699,2.7378938 0 0 0 -0.649323,-0.08668 2.6562699,2.7378938 0 0 0 -1.134812,0.267372 3.145583,3.242243 0 0 0 -1.241851,-0.267372 3.145583,3.242243 0 0 0 -3.145039,3.22817 3.145583,3.242243 0 0 0 -1.608287,2.824017 3.145583,3.242243 0 0 0 0.114684,0.867414 2.4465647,2.5217446 0 0 0 -0.813703,-0.146916 2.4465647,2.5217446 0 0 0 -2.446564,2.521744 2.4465647,2.5217446 0 0 0 1.092761,2.098453 7.5493989,7.7813827 0 0 0 -1.022858,3.881685 7.5493989,7.7813827 0 0 0 0.552659,2.911263 2.6562699,2.7378938 0 0 0 -0.832268,1.988126 2.6562699,2.7378938 0 0 0 2.248329,2.70187 7.5493989,7.7813827 0 0 0 1.2697,4.001582 2.6562699,2.7378938 0 0 0 -0.16274,0.933831 2.6562699,2.7378938 0 0 0 2.656271,2.737895 2.6562699,2.7378938 0 0 0 1.592998,-0.550507 7.5493989,7.7813827 0 0 0 2.181701,0.334358 7.5493989,7.7813827 0 0 0 7.549399,-7.781384 7.5493989,7.7813827 0 0 0 -2.174602,-5.460591 7.5493989,7.7813827 0 0 0 0.21735,-1.816443 7.5493989,7.7813827 0 0 0 -0.01091,-0.313529 7.5493989,7.7813827 0 0 0 5.704646,-5.389666 7.5493989,7.7813827 0 0 0 4.462251,-1.747773 7.5493989,7.7813827 0 0 0 5.476919,3.029471 7.5493989,7.7813827 0 0 0 -0.184586,1.683603 7.5493989,7.7813827 0 0 0 0.942582,3.747154 7.5493989,7.7813827 0 0 0 -2.410521,5.691375 7.5493989,7.7813827 0 0 0 7.549399,7.781384 7.5493989,7.7813827 0 0 0 2.145114,-0.326476 2.6562699,2.7378938 0 0 0 2.1888,1.191074 2.6562699,2.7378938 0 0 0 2.65627,-2.737895 2.6562699,2.7378938 0 0 0 -0.618195,-1.751713 7.5493989,7.7813827 0 0 0 1.177411,-4.156374 7.5493989,7.7813827 0 0 0 -0.128883,-1.4106 2.6562699,2.7378938 0 0 0 0.897803,-2.047792 2.6562699,2.7378938 0 0 0 -0.562493,-1.682476 7.5493989,7.7813827 0 0 0 1.082389,-2.637137 2.6562699,2.7378938 0 0 0 0.948041,-2.092823 2.6562699,2.7378938 0 0 0 -1.262054,-2.325859 7.5493989,7.7813827 0 0 0 -1.875882,-2.889311 2.6562699,2.7378938 0 0 0 0.341863,-1.341366 2.6562699,2.7378938 0 0 0 -2.65627,-2.737893 2.6562699,2.7378938 0 0 0 -0.357701,0.02815 2.6562699,2.7378938 0 0 0 0.0083,-0.172244 2.6562699,2.7378938 0 0 0 -2.478784,-2.728889 7.5493989,7.7813827 0 0 0 -6.888062,-4.620195 7.5493989,7.7813827 0 0 0 -1.56897,0.178998 2.6562699,2.7378938 0 0 0 -2.135828,-1.115647 2.6562699,2.7378938 0 0 0 -2.306216,1.383583 7.5493989,7.7813827 0 0 0 -4.753872,-1.743832 z"
       id="circle883"
       inkscape:connector-curvature="0"
       inkscape:label="hair" />
    <path
       style="fill:#000000;stroke:none;stroke-width:0.28387085px;stroke-linecap:butt;stroke-linejoin:miter;stroke-opacity:1"
       d="m 51.942523,82.266337 c -0.393141,3.448084 -2.178664,0.521989 -1.293183,-0.288199 -2.291563,1.18462 -0.569432,2.771187 1.34561,3.404355 z"
       id="path933"
       inkscape:connector-curvature="0"
       sodipodi:nodetypes="cccc"
       inkscape:label="hair" />
    <path
       style="fill:#000000;stroke:none;stroke-width:0.28387085px;stroke-linecap:butt;stroke-linejoin:miter;stroke-opacity:1"
       d="m 63.371475,68.648916 c -1.510936,-0.738183 -1.288853,-2.825163 -10e-7,-3.728579 -3.229832,1.578068 -1.756772,3.314885 -0.961149,4.701252 z"
       id="path935"
       inkscape:connector-curvature="0"
       sodipodi:nodetypes="cccc"
       inkscape:label="hair" />
    <path
       style="fill:#000000;stroke:none;stroke-width:0.28387085px;stroke-linecap:butt;stroke-linejoin:miter;stroke-opacity:1"
       d="m 88.76332,69.495502 c 1.761008,-2.369099 0.339948,-4.058229 -1.677645,-5.619888 3.221937,1.208014 4.241546,3.47733 3.879554,6.412436 z"
       id="path937"
       inkscape:connector-curvature="0"
       sodipodi:nodetypes="cccc"
       inkscape:label="hair" />
    <path
       style="fill:#000000;stroke:none;stroke-width:0.28387085px;stroke-linecap:butt;stroke-linejoin:miter;stroke-opacity:1"
       d="m 91.388065,71.364025 c 2.387703,-2.173823 0.839911,-0.464735 3.813125,1.157169 -2.695967,-0.07673 -2.296,-3.079724 -3.044205,0.734141 z"
       id="path939"
       inkscape:connector-curvature="0"
       sodipodi:nodetypes="cccc"
       inkscape:label="hair" />
    <path
       style="fill:#000000;stroke:none;stroke-width:0.28387085px;stroke-linecap:butt;stroke-linejoin:miter;stroke-opacity:1"
       d="m 98.191331,75.259401 c -0.939115,0.232164 -1.517905,0.493221 -1.536201,1.382455 -0.696592,0.123755 -1.42589,0.364753 -1.42589,0.364753 l 0.436887,0.540374 c 0,0 0.758111,-0.13117 0.9262,-0.135093 -0.0362,0.487578 0.896882,1.072871 1.363085,0.936647 0.890173,-0.260102 0.905434,-0.936053 0.786396,-1.305903 -0.137189,-0.426246 -0.775234,-0.431725 -1.224375,-0.464384 -0.01879,-0.55417 0.219512,-0.931108 0.673898,-1.318849 z m -0.330395,1.814754 c 0.29061,0.134986 0.465102,0.384616 0.389921,0.557824 -0.07572,0.173254 -0.373111,0.204008 -0.664068,0.06868 -0.251761,-0.117272 -0.421586,-0.324161 -0.405212,-0.493654 -0.03609,-0.179903 0.125717,-0.202898 0.280373,-0.21036 0.154656,-0.0075 0.280317,0.02228 0.398986,0.07752 z"
       id="path941"
       inkscape:connector-curvature="0"
       sodipodi:nodetypes="ccccccscccccccc"
       inkscape:label="hair" />
  </g>
</svg>
