<?xml version="1.0" encoding="UTF-8" standalone="no"?>
<!-- Created with Inkscape (http://www.inkscape.org/) -->

<svg
   xmlns:dc="http://purl.org/dc/elements/1.1/"
   xmlns:cc="http://creativecommons.org/ns#"
   xmlns:rdf="http://www.w3.org/1999/02/22-rdf-syntax-ns#"
   xmlns:svg="http://www.w3.org/2000/svg"
   xmlns="http://www.w3.org/2000/svg"
   xmlns:sodipodi="http://sodipodi.sourceforge.net/DTD/sodipodi-0.dtd"
   xmlns:inkscape="http://www.inkscape.org/namespaces/inkscape"
   width="112.07594mm"
   height="112.07593mm"
   viewBox="0 0 112.07594 112.07593"
   version="1.1"
   id="svg19053"
   sodipodi:docname="7a.svg"
   inkscape:version="0.92.2 (unknown)">
  <sodipodi:namedview
     pagecolor="#ffffff"
     bordercolor="#666666"
     borderopacity="1"
     objecttolerance="10"
     gridtolerance="10"
     guidetolerance="10"
     inkscape:pageopacity="0"
     inkscape:pageshadow="2"
     inkscape:window-width="1920"
     inkscape:window-height="1023"
     id="namedview29025"
     showgrid="false"
     inkscape:zoom="1.4844359"
     inkscape:cx="-192.17273"
     inkscape:cy="228.0454"
     inkscape:window-x="0"
     inkscape:window-y="27"
     inkscape:window-maximized="1"
     inkscape:current-layer="layer1"
     showguides="true"
     inkscape:guide-bbox="true">
    <sodipodi:guide
       position="71.336936,74.50747"
       orientation="0,1"
       id="guide829"
       inkscape:locked="false" />
  </sodipodi:namedview>
  <defs
     id="defs19047" />
  <metadata
     id="metadata19050">
    <rdf:RDF>
      <cc:Work
         rdf:about="">
        <dc:format>image/svg+xml</dc:format>
        <dc:type
           rdf:resource="http://purl.org/dc/dcmitype/StillImage" />
        <dc:title />
      </cc:Work>
    </rdf:RDF>
  </metadata>
  <g
     inkscape:label="Layer 1"
     inkscape:groupmode="layer"
     id="layer1"
     transform="translate(-18.410521,-47.652398)">
    <path
       style="opacity:1;vector-effect:none;fill:#000000;fill-opacity:1;stroke:none;stroke-width:0.03511608;stroke-linecap:round;stroke-linejoin:round;stroke-miterlimit:4;stroke-dasharray:none;stroke-dashoffset:0;stroke-opacity:1"
       d="m 71.894594,70.27634 c -4.260242,0 -15.379422,3.327118 -15.379422,13.703556 v 0.865063 c 0.217133,0.08858 0.451633,0.13467 0.688845,0.135392 0.727925,-7.93e-4 1.376974,-0.425262 1.622124,-1.060915 0.04749,0.0031 0.09504,0.0053 0.142629,0.0067 0.879665,0.224105 0.939122,0.01288 2.356178,-0.54533 -0.614355,-0.351287 -1.521754,-0.08481 -1.791666,-0.561761 -0.269513,-0.477176 0.452723,-0.981374 1.224589,-1.417849 0.771898,-0.436422 1.190916,-0.46659 1.460828,0.01037 0.11661,0.206806 0.109461,0.474488 -0.02016,0.754475 0.187058,-0.306006 0.322472,-0.636783 0.401524,-0.980818 0.715751,0.46722 1.831753,0.656185 3.578077,0.407728 -1.532874,-0.289684 -2.903956,-0.71538 -3.272668,-1.98541 0.995653,-0.216958 1.850768,-0.805105 2.363681,-1.62574 0.252029,0.126474 0.534062,0.19272 0.820621,0.192754 0.952556,-2.01e-4 1.724597,-0.716483 1.724443,-1.599903 -2.56e-4,-0.0093 -5.29e-4,-0.0186 -0.0011,-0.02791 0.705892,-0.228124 1.321133,-0.648491 1.765265,-1.206127 0.275717,0.162735 0.595609,0.249473 0.922425,0.250114 0.566743,-0.0013 1.096629,-0.26075 1.417487,-0.694016 0.09014,0.273659 0.177459,0.549085 0.198953,0.659392 -0.728498,0.06819 -1.348195,1.634681 -1.025776,2.308903 0.615611,1.287346 1.616215,1.139536 2.130618,0.865063 0.592849,-0.316331 0.434782,-1.287185 0.365869,-1.978173 0.812358,-0.168736 1.430538,0.09827 2.120802,0.690914 -0.587172,-1.368801 -1.122955,-2.182979 -2.439128,-1.985926 -0.217109,-0.612777 -0.461198,-1.147601 -0.65319,-1.548225 0.125206,-0.06392 0.24633,-0.13449 0.362768,-0.211357 0.682913,0.57903 1.574292,0.90079 2.49959,0.902272 0.281069,-0.0013 0.561051,-0.03248 0.834572,-0.0925 0.166717,0.740738 0.870281,1.271804 1.686203,1.272788 0.219493,-7.93e-4 0.436803,-0.04043 0.640271,-0.116787 -0.402747,0.815319 -1.337459,1.394233 -2.383317,1.923913 1.313463,-0.186029 2.216322,-0.510527 2.821017,-0.935342 0.08678,0.545301 0.266795,1.172342 0.56534,1.902209 -0.0589,-0.977594 -0.05137,-1.906995 0.24443,-2.629297 0.07292,0.459401 0.357497,0.866743 0.779796,1.116211 -0.02873,0.115771 -0.04346,0.234151 -0.04392,0.352948 -1.54e-4,0.883418 0.771885,1.599703 1.72444,1.599904 0.409699,-7.94e-4 0.805752,-0.136623 1.117246,-0.383439 0.497302,0.220718 1.041352,0.335989 1.592667,0.337447 0.01963,-5.3e-4 0.03928,-0.0013 0.05891,-0.0021 0.122237,0.786717 0.848789,1.370864 1.705837,1.371491 0.14546,-5.29e-4 0.29027,-0.01802 0.430983,-0.05219 0.580768,0.556665 1.380164,0.87105 2.215369,0.871262 0.407305,-7.94e-4 0.810387,-0.07657 1.185974,-0.222724 0.298429,0.524103 0.884859,0.852218 1.523936,0.85266 0.0072,-2.65e-4 0.01447,-5.29e-4 0.0217,-0.0011 -0.43629,-2.603299 -1.633148,-4.677593 -3.198254,-6.309694 -0.09607,-0.09607 -0.175995,-0.19009 -0.247528,-0.253214 -1.3202,-1.306257 -2.875481,-2.314305 -4.452443,-3.066996 l -0.0057,0.001 v -0.0041 c -2.760962,-1.316677 -5.58128,-1.8557 -7.293613,-1.8557 H 74.4484 Z m 0.766363,6.101436 c 0.186706,-0.01804 0.250685,0.191273 0.295587,0.395325 0.05155,0.233166 0.04039,0.431945 -0.01035,0.626319 -0.123312,0.475874 -0.445844,0.80428 -0.720887,0.733803 -0.275261,-0.07136 -0.398221,-0.515681 -0.274402,-0.992187 0.107326,-0.412338 0.367964,-0.723059 0.622184,-0.74104 0.03199,-0.01254 0.06118,-0.01963 0.08785,-0.02223 z"
       id="path814"
       inkscape:connector-curvature="0"
       sodipodi:nodetypes="sscccccccccccccccccccccsccccccccccccccccccccccccccccccscscccccccc"
       inkscape:label="hair" />
  </g>
</svg>
