<?xml version="1.0" encoding="UTF-8" standalone="no"?>
<!-- Created with Inkscape (http://www.inkscape.org/) -->

<svg
   xmlns:dc="http://purl.org/dc/elements/1.1/"
   xmlns:cc="http://creativecommons.org/ns#"
   xmlns:rdf="http://www.w3.org/1999/02/22-rdf-syntax-ns#"
   xmlns:svg="http://www.w3.org/2000/svg"
   xmlns="http://www.w3.org/2000/svg"
   xmlns:sodipodi="http://sodipodi.sourceforge.net/DTD/sodipodi-0.dtd"
   xmlns:inkscape="http://www.inkscape.org/namespaces/inkscape"
   width="112.07594mm"
   height="112.07593mm"
   viewBox="0 0 112.07594 112.07593"
   version="1.1"
   id="svg19053"
   sodipodi:docname="1a.svg"
   inkscape:version="0.92.2 (unknown)">
  <sodipodi:namedview
     pagecolor="#ffffff"
     bordercolor="#666666"
     borderopacity="1"
     objecttolerance="10"
     gridtolerance="10"
     guidetolerance="10"
     inkscape:pageopacity="0"
     inkscape:pageshadow="2"
     inkscape:window-width="1920"
     inkscape:window-height="1023"
     id="namedview29025"
     showgrid="false"
     inkscape:zoom="1.1669638"
     inkscape:cx="-131.51106"
     inkscape:cy="347.85092"
     inkscape:window-x="0"
     inkscape:window-y="27"
     inkscape:window-maximized="1"
     inkscape:current-layer="layer1" />
  <defs
     id="defs19047" />
  <metadata
     id="metadata19050">
    <rdf:RDF>
      <cc:Work
         rdf:about="">
        <dc:format>image/svg+xml</dc:format>
        <dc:type
           rdf:resource="http://purl.org/dc/dcmitype/StillImage" />
        <dc:title></dc:title>
      </cc:Work>
    </rdf:RDF>
  </metadata>
  <g
     inkscape:label="Layer 1"
     inkscape:groupmode="layer"
     id="layer1"
     transform="translate(-18.410521,-47.652398)">
    <path
       style="fill:#000000;stroke:none;stroke-width:0.26458332px;stroke-linecap:butt;stroke-linejoin:miter;stroke-opacity:1"
       d="m 74.242255,105.59718 c 0.01215,0.60999 -1.053611,0.006 -0.566854,0.57225 0.23087,0.57033 -0.729038,0.40042 -0.806767,0.93416 -0.426686,0.1299 -0.366694,0.61917 -0.74286,0.88661 -0.296844,0.7088 -1.090698,0.2161 -1.576377,0.0363 -0.409951,-0.133 -0.93159,-0.38913 -0.898594,-0.89914 -0.216358,0.39494 -0.619776,0.69183 -1.076936,0.45372 -0.670349,0.17844 -0.546831,-1.00479 -0.664882,-1.45297 -0.113044,-0.30914 0.111199,-1.18017 -0.430644,-0.91323 -0.560438,-10e-4 0.133779,0.7909 -0.408945,1.01882 -0.445286,0.12452 -0.372423,0.31945 -0.124116,0.61046 0.196109,0.16581 0.107418,0.37507 0.03776,0.58143 -0.180285,0.31376 -0.02592,0.56724 0.176858,0.82822 0.326313,0.59227 0.691427,1.1852 1.243957,1.59431 0.258815,-0.37613 1.084937,-0.38714 1.010404,0.20899 0.144531,0.35861 0.736679,1.00839 0.903954,0.93497 -0.03851,-0.57625 1.013135,-0.74172 1.073917,-0.18034 0.353351,0.29055 0.429255,-0.51816 0.909273,-0.43757 0.484534,-0.31028 1.119468,-0.0154 1.355913,0.46716 0.04956,0.60008 0.540834,-0.0136 0.708093,-0.25649 0.298752,-0.42527 0.945081,0.53745 0.895176,0.66118 0.06106,-0.50209 0.756446,-0.43626 0.768157,-0.33359 -0.369361,-0.56667 0.697293,-1.09286 0.684985,-0.28717 0.398076,0.58721 1.094724,0.0269 1.52016,-0.15094 0.647404,0.0189 1.310924,0.10809 1.946746,-0.0606 -0.683151,-0.34921 -0.05675,-1.07941 0.511628,-0.77919 0.29038,0.15093 0.276815,0.26492 0.350692,-0.10705 0.259694,-0.66914 1.048292,-0.21367 1.349203,0.0631 0.07443,-0.58748 0.1493,-1.30606 0.424504,-1.86327 -0.137176,-0.57005 -0.145459,-1.38378 -0.107512,-1.68796 -0.334172,0.37973 -0.971154,-0.45146 -0.872017,0.12687 0.06203,0.72738 -0.04615,1.45778 -0.813517,1.54341 -0.395335,-0.32794 -0.959752,0.35162 -1.345284,-0.12131 0.06567,0.81466 -0.926563,0.56537 -1.317009,0.21795 -0.260826,-0.0448 -0.829815,0.44244 -0.835466,-0.14857 -0.237623,-0.20341 -0.828445,-0.37655 -0.358193,-0.75716 -0.585656,0.17221 -0.637882,-0.97186 -1.303057,-0.54678 -0.537597,0.0549 0.357772,-0.72599 -0.319665,-0.43756 -0.383082,0.041 -0.420671,-0.50042 -0.833315,-0.4576 -0.156457,0.0462 -0.31291,0.0924 -0.469366,0.13867 z"
       id="path834"
       inkscape:connector-curvature="0"
       sodipodi:nodetypes="ccccccccccccccccccccccccccccccccccccccccc"
       inkscape:label="hair" />
  </g>
</svg>
