<?xml version="1.0" encoding="UTF-8" standalone="no"?>
<!-- Created with Inkscape (http://www.inkscape.org/) -->

<svg
   xmlns:dc="http://purl.org/dc/elements/1.1/"
   xmlns:cc="http://creativecommons.org/ns#"
   xmlns:rdf="http://www.w3.org/1999/02/22-rdf-syntax-ns#"
   xmlns:svg="http://www.w3.org/2000/svg"
   xmlns="http://www.w3.org/2000/svg"
   xmlns:sodipodi="http://sodipodi.sourceforge.net/DTD/sodipodi-0.dtd"
   xmlns:inkscape="http://www.inkscape.org/namespaces/inkscape"
   width="112.07594mm"
   height="112.07593mm"
   viewBox="0 0 112.07594 112.07593"
   version="1.1"
   id="svg19053"
   sodipodi:docname="1b.svg"
   inkscape:version="0.92.2 (unknown)">
  <sodipodi:namedview
     pagecolor="#ffffff"
     bordercolor="#666666"
     borderopacity="1"
     objecttolerance="10"
     gridtolerance="10"
     guidetolerance="10"
     inkscape:pageopacity="0"
     inkscape:pageshadow="2"
     inkscape:window-width="1920"
     inkscape:window-height="1023"
     id="namedview29025"
     showgrid="false"
     inkscape:zoom="1.650336"
     inkscape:cx="143.46435"
     inkscape:cy="259.81924"
     inkscape:window-x="0"
     inkscape:window-y="27"
     inkscape:window-maximized="1"
     inkscape:current-layer="layer1" />
  <defs
     id="defs19047" />
  <metadata
     id="metadata19050">
    <rdf:RDF>
      <cc:Work
         rdf:about="">
        <dc:format>image/svg+xml</dc:format>
        <dc:type
           rdf:resource="http://purl.org/dc/dcmitype/StillImage" />
        <dc:title></dc:title>
      </cc:Work>
    </rdf:RDF>
  </metadata>
  <g
     inkscape:label="Layer 1"
     inkscape:groupmode="layer"
     id="layer1"
     transform="translate(-18.410521,-47.652398)">
    <path
       style="fill:#000000;stroke:none;stroke-width:0.18692081px;stroke-linecap:butt;stroke-linejoin:miter;stroke-opacity:1"
       d="m 74.085962,107.66611 c 0.01215,0.30445 -1.053611,0.003 -0.566854,0.28561 0.23087,0.28465 -0.729038,0.19985 -0.806767,0.46624 -0.426686,0.0648 -0.366694,0.30903 -0.74286,0.44251 -0.296844,0.35377 -1.090698,0.10786 -1.576377,0.0181 -0.409951,-0.0664 -0.85143,-0.41466 -0.818434,-0.6692 -0.216358,0.19711 -0.539615,-0.0355 -0.996775,-0.15431 -0.670349,0.0891 -0.446631,-0.0606 -0.564682,-0.2843 -0.113044,-0.1543 -0.149322,-0.42871 -0.691165,-0.29548 -0.560438,-5e-4 0.133779,0.39474 -0.408945,0.5085 -0.445286,0.0622 -0.372423,0.15944 -0.124116,0.30468 0.196109,0.0828 0.107418,0.1872 0.03776,0.29019 -0.180285,0.1566 -0.02592,0.28311 0.176858,0.41337 0.326313,0.2956 0.691427,0.59154 1.243957,0.79573 0.258815,-0.18773 1.084937,-0.19323 1.010404,0.1043 0.144531,0.17899 0.736679,0.50329 0.903954,0.46665 -0.03851,-0.28761 1.013135,-0.3702 1.073917,-0.09 0.353351,0.14502 0.429255,-0.25861 0.909273,-0.21839 0.484534,-0.15486 1.119468,-0.008 1.355913,0.23316 0.04956,0.2995 0.540834,-0.007 0.708093,-0.12802 0.298752,-0.21225 0.945081,0.26825 0.895176,0.33 0.06106,-0.25059 0.756446,-0.21774 0.768157,-0.16649 -0.369361,-0.28283 0.697293,-0.54545 0.684985,-0.14333 0.398076,0.29308 1.094724,0.0134 1.52016,-0.0753 0.647404,0.009 1.310924,0.054 1.946746,-0.0302 -0.683151,-0.17429 -0.05675,-0.53874 0.511628,-0.3889 0.29038,0.0753 0.276815,0.13222 0.350692,-0.0534 0.259694,-0.33397 1.048292,-0.10664 1.349203,0.0315 0.07443,-0.29322 0.1493,-0.65186 0.424504,-0.92997 -0.136327,-0.28528 0.813232,-2.10134 -0.327953,-1.18314 -0.334172,0.18952 -0.790793,-0.18471 -0.691656,0.10394 0.06203,0.36303 -0.246581,0.5066 -1.013918,0.54934 -0.395335,-0.16368 -0.879592,0.39593 -1.265124,0.15994 0.06567,0.4066 -0.766242,0.58278 -1.156688,0.40938 -0.260826,-0.0224 -0.829815,0.22082 -0.835466,-0.0742 -0.237623,-0.10152 -0.828445,-0.18794 -0.358193,-0.3779 -0.585656,0.0859 -0.637882,-0.48506 -1.303057,-0.2729 -0.537597,0.0274 0.357772,-0.36234 -0.319665,-0.21839 -0.383082,0.0205 -0.420671,-0.24976 -0.833315,-0.22839 -0.156457,0.0231 -0.31291,0.0461 -0.469366,0.0692 z"
       id="path834"
       inkscape:connector-curvature="0"
       sodipodi:nodetypes="ccccccccccccccccccccccccccccccccccccccccc" />
  </g>
</svg>
