<?xml version="1.0" encoding="UTF-8" standalone="no"?>
<!-- Created with Inkscape (http://www.inkscape.org/) -->

<svg
   xmlns:dc="http://purl.org/dc/elements/1.1/"
   xmlns:cc="http://creativecommons.org/ns#"
   xmlns:rdf="http://www.w3.org/1999/02/22-rdf-syntax-ns#"
   xmlns:svg="http://www.w3.org/2000/svg"
   xmlns="http://www.w3.org/2000/svg"
   xmlns:sodipodi="http://sodipodi.sourceforge.net/DTD/sodipodi-0.dtd"
   xmlns:inkscape="http://www.inkscape.org/namespaces/inkscape"
   width="112.07594mm"
   height="112.07593mm"
   viewBox="0 0 112.07594 112.07593"
   version="1.1"
   id="svg19053"
   sodipodi:docname="2a.svg"
   inkscape:version="0.92.2 (unknown)">
  <sodipodi:namedview
     pagecolor="#ffffff"
     bordercolor="#666666"
     borderopacity="1"
     objecttolerance="10"
     gridtolerance="10"
     guidetolerance="10"
     inkscape:pageopacity="0"
     inkscape:pageshadow="2"
     inkscape:window-width="1920"
     inkscape:window-height="1023"
     id="namedview29025"
     showgrid="false"
     inkscape:zoom="4.6678551"
     inkscape:cx="135.86529"
     inkscape:cy="185.37329"
     inkscape:window-x="0"
     inkscape:window-y="27"
     inkscape:window-maximized="1"
     inkscape:current-layer="layer1" />
  <defs
     id="defs19047" />
  <metadata
     id="metadata19050">
    <rdf:RDF>
      <cc:Work
         rdf:about="">
        <dc:format>image/svg+xml</dc:format>
        <dc:type
           rdf:resource="http://purl.org/dc/dcmitype/StillImage" />
        <dc:title />
      </cc:Work>
    </rdf:RDF>
  </metadata>
  <g
     inkscape:label="Layer 1"
     inkscape:groupmode="layer"
     id="layer1"
     transform="translate(-18.410521,-47.652398)">
    <path
       style="fill:#000000;stroke:none;stroke-width:0.30343333px;stroke-linecap:butt;stroke-linejoin:miter;stroke-opacity:1"
       d="m 73.170844,105.29943 c -0.0047,0.039 -0.0058,0.0803 -0.01354,0.11729 -0.0082,0.0392 -0.02393,0.0736 -0.05928,0.0954 0.0149,0.0532 0.01572,0.10229 0.0034,0.14766 -0.01544,0.0568 -0.05151,0.10775 -0.106402,0.15331 h 0.168504 0.212461 c 0.07321,0.29352 -0.07815,0.46455 -0.205135,0.64887 0.160722,-0.0308 0.233053,-0.20295 0.483533,-0.0901 0.155334,0.27636 0.105926,0.55272 0.05861,0.82908 0.187833,-0.026 0.304822,0.13683 0.439576,0.25233 0.06159,-0.17933 0.183024,-0.32875 0.395617,-0.43258 0.218416,0.0721 0.209602,0.14419 0.29305,0.21629 -0.05102,-0.29895 -0.0099,-0.55134 0.08791,-0.77506 0.08405,-0.12115 0.119518,-0.33946 0.307705,-0.25233 -0.04625,-0.16462 -0.08072,-0.3248 0.02074,-0.43374 l 0.0086,-0.17909 0.125285,-0.15915 0.204397,-0.13827 -0.711588,0.007 -0.541704,0.16457 -0.358482,-0.1001 z"
       id="path815"
       inkscape:connector-curvature="0"
       sodipodi:nodetypes="ccccccccccccccccccccccc"
       inkscape:label="hair" />
  </g>
</svg>
