<?xml version="1.0" encoding="UTF-8" standalone="no"?>
<!-- Created with Inkscape (http://www.inkscape.org/) -->

<svg
   xmlns:dc="http://purl.org/dc/elements/1.1/"
   xmlns:cc="http://creativecommons.org/ns#"
   xmlns:rdf="http://www.w3.org/1999/02/22-rdf-syntax-ns#"
   xmlns:svg="http://www.w3.org/2000/svg"
   xmlns="http://www.w3.org/2000/svg"
   xmlns:sodipodi="http://sodipodi.sourceforge.net/DTD/sodipodi-0.dtd"
   xmlns:inkscape="http://www.inkscape.org/namespaces/inkscape"
   width="112.07594mm"
   height="112.07593mm"
   viewBox="0 0 112.07594 112.07593"
   version="1.1"
   id="svg19053"
   sodipodi:docname="3a.svg"
   inkscape:version="0.92.2 (unknown)">
  <sodipodi:namedview
     pagecolor="#ffffff"
     bordercolor="#666666"
     borderopacity="1"
     objecttolerance="10"
     gridtolerance="10"
     guidetolerance="10"
     inkscape:pageopacity="0"
     inkscape:pageshadow="2"
     inkscape:window-width="1920"
     inkscape:window-height="1023"
     id="namedview29025"
     showgrid="false"
     inkscape:zoom="2.3339276"
     inkscape:cx="119.32024"
     inkscape:cy="225.92335"
     inkscape:window-x="0"
     inkscape:window-y="27"
     inkscape:window-maximized="1"
     inkscape:current-layer="layer1" />
  <defs
     id="defs19047" />
  <metadata
     id="metadata19050">
    <rdf:RDF>
      <cc:Work
         rdf:about="">
        <dc:format>image/svg+xml</dc:format>
        <dc:type
           rdf:resource="http://purl.org/dc/dcmitype/StillImage" />
        <dc:title />
      </cc:Work>
    </rdf:RDF>
  </metadata>
  <g
     inkscape:label="Layer 1"
     inkscape:groupmode="layer"
     id="layer1"
     transform="translate(-18.410521,-47.652398)">
    <path
       style="fill:#000000;stroke:none;stroke-width:0.26458332px;stroke-linecap:butt;stroke-linejoin:miter;stroke-opacity:1"
       d="m 73.362722,97.177024 c -1.122693,0.0058 -2.765161,0.09793 -3.728971,0.531233 -1.367214,0.218297 -2.144173,1.616823 -2.986898,2.400883 0.295556,-0.1268 0.570408,-0.32406 0.842325,-0.531229 -0.974047,1.145619 -1.74408,2.354379 -1.74408,2.354379 0.745244,-0.2743 1.180695,-0.73455 2.405023,-0.72141 0.452075,0.11229 0.569547,0.42011 0.561205,0.80151 0.267147,-0.44304 0.684731,-0.63518 1.180806,-0.6966 l -0.0186,0.79737 0.457854,-0.7891 c 0.617881,0.20184 0.76623,0.59152 0.94516,0.96893 0.645925,-0.22539 1.007494,-0.57256 1.227833,-0.9803 l 0.214974,0.88056 0.232543,-0.82527 c 0.226827,0.4083 0.517617,0.55421 0.830958,0.58911 -0.02655,-1.05725 0.327591,-1.06213 0.732256,-0.77824 l 0.04806,0.7338 0.235128,-0.50023 c 0.270626,0.24925 0.531415,0.54685 0.686263,0.68058 0.404106,-0.23085 0.872572,-0.5109 1.187008,-0.80408 l 0.115755,0.88418 0.34158,-1.36529 c 0.524481,0.50428 0.516858,0.86422 0.72037,1.48518 0.188476,-0.39754 0.256411,-1.35244 0.962216,-1.54306 0.231449,0.004 0.139877,1.13924 0.353983,1.28261 0.383707,0.25694 0.478145,-1.93113 1.249019,-0.0202 -0.0083,-0.3814 0.109127,-0.68922 0.561207,-0.80151 1.224325,-0.0132 1.659779,0.44711 2.405021,0.72141 0,0 -2.100694,-3.314581 -3.767728,-4.168222 -1.507567,-0.771985 -5.049822,-0.561208 -5.049822,-0.561208 0,0 -0.498231,-0.02948 -1.200443,-0.02584 z"
       id="path815"
       inkscape:connector-curvature="0"
       inkscape:label="hair" />
  </g>
</svg>
