<?xml version="1.0" encoding="UTF-8" standalone="no"?>
<!-- Created with Inkscape (http://www.inkscape.org/) -->

<svg
   xmlns:dc="http://purl.org/dc/elements/1.1/"
   xmlns:cc="http://creativecommons.org/ns#"
   xmlns:rdf="http://www.w3.org/1999/02/22-rdf-syntax-ns#"
   xmlns:svg="http://www.w3.org/2000/svg"
   xmlns="http://www.w3.org/2000/svg"
   xmlns:sodipodi="http://sodipodi.sourceforge.net/DTD/sodipodi-0.dtd"
   xmlns:inkscape="http://www.inkscape.org/namespaces/inkscape"
   width="112.07594mm"
   height="112.07593mm"
   viewBox="0 0 112.07594 112.07593"
   version="1.1"
   id="svg19053"
   sodipodi:docname="3b.svg"
   inkscape:version="0.92.2 (unknown)">
  <sodipodi:namedview
     pagecolor="#ffffff"
     bordercolor="#666666"
     borderopacity="1"
     objecttolerance="10"
     gridtolerance="10"
     guidetolerance="10"
     inkscape:pageopacity="0"
     inkscape:pageshadow="2"
     inkscape:window-width="1920"
     inkscape:window-height="1023"
     id="namedview29025"
     showgrid="false"
     inkscape:zoom="3.300672"
     inkscape:cx="189.01242"
     inkscape:cy="272.1146"
     inkscape:window-x="0"
     inkscape:window-y="27"
     inkscape:window-maximized="1"
     inkscape:current-layer="layer1" />
  <defs
     id="defs19047" />
  <metadata
     id="metadata19050">
    <rdf:RDF>
      <cc:Work
         rdf:about="">
        <dc:format>image/svg+xml</dc:format>
        <dc:type
           rdf:resource="http://purl.org/dc/dcmitype/StillImage" />
        <dc:title></dc:title>
      </cc:Work>
    </rdf:RDF>
  </metadata>
  <g
     inkscape:label="Layer 1"
     inkscape:groupmode="layer"
     id="layer1"
     transform="translate(-18.410521,-47.652398)">
    <path
       style="fill:#000000;stroke:none;stroke-width:0.32315913px;stroke-linecap:butt;stroke-linejoin:miter;stroke-opacity:1"
       d="m 73.166331,97.177153 c -1.306403,0.0075 -3.217633,0.125551 -4.339155,0.681046 -1.590935,0.27986 -2.495031,2.072786 -3.475654,3.077961 0.343919,-0.16256 0.663746,-0.41545 0.980158,-0.68104 -1.133434,1.46869 -2.02947,3.01833 -2.02947,3.01833 0.867191,-0.35165 1.373896,-0.9417 2.798565,-0.92484 0.52605,0.14395 0.662744,0.53857 0.653037,1.02753 0.310861,-0.56798 0.796776,-0.81431 1.374025,-0.89304 l -0.02164,1.02223 0.532774,-1.01163 c 0.718987,0.25876 0.89161,0.75833 1.099819,1.24218 0.75162,-0.28895 1.172354,-0.73403 1.428748,-1.25676 l 0.250151,1.1289 0.270595,-1.05801 c 0.263943,0.52343 0.602316,0.7105 0.96693,0.75524 -0.03089,-1.3554 0.381196,-1.36166 0.852077,-0.99772 l 0.05593,0.94075 0.273602,-0.6413 c 0.31491,0.31954 0.618373,0.70107 0.798559,0.87251 0.470231,-0.29595 1.015354,-0.65499 1.381242,-1.03085 l 0.134696,1.13354 0.397474,-1.75032 c 0.610304,0.6465 0.601434,1.10794 0.838247,1.90402 0.219317,-0.50966 0.298368,-1.73384 1.119667,-1.97822 0.269321,0.005 0.162765,1.46052 0.411906,1.64432 0.446494,0.3294 0.556385,-2.47573 1.4534,-0.0258 -0.0097,-0.48896 0.126984,-0.88358 0.653039,-1.02753 1.424666,-0.0169 1.931375,0.57319 2.798563,0.92484 0,0 -2.444438,-4.249323 -4.384254,-5.3437 -1.754255,-0.989694 -5.876141,-0.719475 -5.876141,-0.719475 0,0 -0.579759,-0.03779 -1.396876,-0.03312 z"
       id="path815"
       inkscape:connector-curvature="0" />
  </g>
</svg>
