<?xml version="1.0" encoding="UTF-8" standalone="no"?>
<!-- Created with Inkscape (http://www.inkscape.org/) -->

<svg
   xmlns:dc="http://purl.org/dc/elements/1.1/"
   xmlns:cc="http://creativecommons.org/ns#"
   xmlns:rdf="http://www.w3.org/1999/02/22-rdf-syntax-ns#"
   xmlns:svg="http://www.w3.org/2000/svg"
   xmlns="http://www.w3.org/2000/svg"
   xmlns:sodipodi="http://sodipodi.sourceforge.net/DTD/sodipodi-0.dtd"
   xmlns:inkscape="http://www.inkscape.org/namespaces/inkscape"
   width="112.07594mm"
   height="112.07593mm"
   viewBox="0 0 112.07594 112.07593"
   version="1.1"
   id="svg19053"
   sodipodi:docname="4a.svg"
   inkscape:version="0.92.2 (unknown)">
  <sodipodi:namedview
     pagecolor="#ffffff"
     bordercolor="#666666"
     borderopacity="1"
     objecttolerance="10"
     gridtolerance="10"
     guidetolerance="10"
     inkscape:pageopacity="0"
     inkscape:pageshadow="2"
     inkscape:window-width="960"
     inkscape:window-height="1023"
     id="namedview29025"
     showgrid="false"
     inkscape:zoom="13.202688"
     inkscape:cx="208.45323"
     inkscape:cy="223.05639"
     inkscape:window-x="0"
     inkscape:window-y="27"
     inkscape:window-maximized="0"
     inkscape:current-layer="layer1"
     showguides="true"
     inkscape:guide-bbox="true">
    <sodipodi:guide
       position="73.747606,59.31873"
       orientation="0,1"
       id="guide819"
       inkscape:locked="false" />
  </sodipodi:namedview>
  <defs
     id="defs19047" />
  <metadata
     id="metadata19050">
    <rdf:RDF>
      <cc:Work
         rdf:about="">
        <dc:format>image/svg+xml</dc:format>
        <dc:type
           rdf:resource="http://purl.org/dc/dcmitype/StillImage" />
        <dc:title />
      </cc:Work>
    </rdf:RDF>
  </metadata>
  <g
     inkscape:label="Layer 1"
     inkscape:groupmode="layer"
     id="layer1"
     transform="translate(-18.410521,-47.652398)">
    <path
       style="fill:#000000;stroke:none;stroke-width:0.09881975px;stroke-linecap:butt;stroke-linejoin:miter;stroke-opacity:1"
       d="m 72.604808,100.25756 c -1.099086,0.57879 -2.612794,-0.487701 -3.725967,0.0635 -0.306173,0.15161 -0.635108,0.80447 -0.635108,0.80447 0,0 0.58511,-0.33158 0.910321,-0.38106 1.331464,-0.20259 2.979044,1.23273 4.022352,0.38106 0.511326,-0.4174 0.828805,-1.734601 0.309728,-1.931621 -0.519077,-0.19702 -0.482839,0.853811 -0.881326,1.063651 z"
       id="path815-3"
       inkscape:connector-curvature="0"
       sodipodi:nodetypes="sscssss"
       inkscape:label="hair" />
    <path
       sodipodi:nodetypes="sscssss"
       inkscape:connector-curvature="0"
       id="path1422-6"
       d="m 75.422467,100.25756 c 1.099086,0.57879 2.612794,-0.487701 3.725967,0.0635 0.306173,0.15161 0.635108,0.80447 0.635108,0.80447 0,0 -0.58511,-0.33158 -0.910321,-0.38106 -1.331464,-0.20259 -2.979044,1.23273 -4.022352,0.38106 -0.511326,-0.4174 -0.828805,-1.734601 -0.309728,-1.931621 0.519077,-0.19702 0.482839,0.853811 0.881326,1.063651 z"
       style="fill:#000000;stroke:none;stroke-width:0.09881975px;stroke-linecap:butt;stroke-linejoin:miter;stroke-opacity:1"
       inkscape:label="hair" />
  </g>
</svg>
