<?xml version="1.0" encoding="UTF-8" standalone="no"?>
<!-- Created with Inkscape (http://www.inkscape.org/) -->

<svg
   xmlns:dc="http://purl.org/dc/elements/1.1/"
   xmlns:cc="http://creativecommons.org/ns#"
   xmlns:rdf="http://www.w3.org/1999/02/22-rdf-syntax-ns#"
   xmlns:svg="http://www.w3.org/2000/svg"
   xmlns="http://www.w3.org/2000/svg"
   xmlns:sodipodi="http://sodipodi.sourceforge.net/DTD/sodipodi-0.dtd"
   xmlns:inkscape="http://www.inkscape.org/namespaces/inkscape"
   width="112.07594mm"
   height="112.07593mm"
   viewBox="0 0 112.07594 112.07593"
   version="1.1"
   id="svg19053"
   sodipodi:docname="5cheek_high.svg"
   inkscape:version="0.92.2 (unknown)">
  <sodipodi:namedview
     pagecolor="#ffffff"
     bordercolor="#666666"
     borderopacity="1"
     objecttolerance="10"
     gridtolerance="10"
     guidetolerance="10"
     inkscape:pageopacity="0"
     inkscape:pageshadow="2"
     inkscape:window-width="1920"
     inkscape:window-height="1023"
     id="namedview29025"
     showgrid="false"
     inkscape:zoom="2.3339276"
     inkscape:cx="159.75286"
     inkscape:cy="267.15962"
     inkscape:window-x="0"
     inkscape:window-y="27"
     inkscape:window-maximized="1"
     inkscape:current-layer="layer1"
     showguides="true"
     inkscape:guide-bbox="true" />
  <defs
     id="defs19047" />
  <metadata
     id="metadata19050">
    <rdf:RDF>
      <cc:Work
         rdf:about="">
        <dc:format>image/svg+xml</dc:format>
        <dc:type
           rdf:resource="http://purl.org/dc/dcmitype/StillImage" />
        <dc:title></dc:title>
      </cc:Work>
    </rdf:RDF>
  </metadata>
  <g
     inkscape:label="Layer 1"
     inkscape:groupmode="layer"
     id="layer1"
     transform="translate(-18.410521,-47.652398)">
    <path
       style="opacity:0.5;fill:#000000;stroke:none;stroke-width:0.26339555px;stroke-linecap:butt;stroke-linejoin:miter;stroke-opacity:1"
       d="m 56.783907,86.020598 c -0.105748,3.441645 -2.064405,7.48937 -2.579823,10.117684 -0.383336,1.954775 -0.536476,3.554392 1.287912,6.554678 2.837584,4.6786 12.325408,7.8972 18.956465,7.8972 6.631058,0 16.57796,-3.791 19.485632,-8.42637 1.600072,-2.55081 1.243853,-3.571141 0.759595,-6.032709 -0.679199,-3.452486 -2.53182,-6.881166 -2.580673,-10.110483 -0.0056,0.01369 -0.01048,0.02983 -0.01602,0.04393 -2.3e-4,-0.01535 -8.04e-4,-0.02855 -0.001,-0.04393 -0.887897,2.153711 2.154202,9.83339 -1.159619,15.497762 -2.052982,3.50919 -8.175749,5.91891 -14.264245,6.74584 -0.816653,-0.053 -1.258912,-0.83457 -1.241785,-2.04277 l -0.973066,-0.0403 -0.0088,5.1e-4 -0.0088,-5.1e-4 -0.973066,0.0403 c 0.01713,1.2082 -0.425133,1.98978 -1.241785,2.04277 -6.088496,-0.82693 -12.21178,-3.23665 -14.264761,-6.74584 -3.313822,-5.664372 -0.271207,-13.344051 -1.159103,-15.497762 -2.3e-4,0.01538 -8.05e-4,0.02857 -10e-4,0.04393 -0.0055,-0.0141 -0.01037,-0.03023 -0.01602,-0.04393 z"
       id="path818"
       inkscape:connector-curvature="0"
       sodipodi:nodetypes="cscssscccscccccccscccc" />
    <path
       style="fill:#000000;stroke:none;stroke-width:0.09881975px;stroke-linecap:butt;stroke-linejoin:miter;stroke-opacity:1"
       d="m 74.083479,99.433906 c -0.501824,0.005 -1.106532,0.467 -1.455208,0.650604 -1.099087,0.57879 -2.77001,0.0611 -3.926377,0.5147 -1.000527,0.39251 -2.007629,1.89756 -2.007629,1.89756 0,0 1.209281,-0.62711 1.791105,-0.60152 1.862976,0.082 4.773538,0.64987 6.237861,-0.40462 1.464241,1.05474 4.375293,0.48661 6.238383,0.40462 0.58182,-0.0256 1.79059,0.60152 1.79059,0.60152 0,0 -1.00659,-1.50505 -2.00712,-1.89756 -1.15636,-0.4536 -2.82729,0.0641 -3.926371,-0.5147 -0.398489,-0.209844 -1.131385,-0.783014 -1.662949,-0.622704 -0.172468,0.052 -0.314473,0.13123 -0.432533,0.22635 -0.118038,-0.0951 -0.259596,-0.17435 -0.432014,-0.22635 -0.06645,-0.02 -0.136049,-0.0286 -0.207738,-0.0279 z"
       id="path815-3"
       inkscape:connector-curvature="0"
       inkscape:label="hair" />
    <path
       style="opacity:1;vector-effect:none;fill:#000000;fill-opacity:1;stroke:none;stroke-width:0.06614583;stroke-linecap:round;stroke-linejoin:round;stroke-miterlimit:4;stroke-dasharray:none;stroke-dashoffset:0;stroke-opacity:1"
       d="m 56.430352,89.153652 -0.715911,0.775678 0.348369,0.260137 -0.754013,0.923023 0.325174,0.443171 -1.156004,1.258183 0.491849,0.206837 -0.672349,1.267016 0.429473,0.568276 z"
       id="path860"
       inkscape:connector-curvature="0"
       sodipodi:nodetypes="cccccccccc" />
    <path
       style="opacity:1;vector-effect:none;fill:#000000;fill-opacity:1;stroke:none;stroke-width:0.06614583;stroke-linecap:round;stroke-linejoin:round;stroke-miterlimit:4;stroke-dasharray:none;stroke-dashoffset:0;stroke-opacity:1"
       d="m 54.031268,97.717389 -0.425114,2.040552 0.680184,0.05668 0.425115,3.287559 0.708524,-0.45346 -0.02834,1.16198 1.190323,-0.14172 z"
       id="path868"
       inkscape:connector-curvature="0"
       sodipodi:nodetypes="ccccccc" />
    <path
       style="opacity:1;vector-effect:none;fill:#000000;fill-opacity:1;stroke:none;stroke-width:0.06614583;stroke-linecap:round;stroke-linejoin:round;stroke-miterlimit:4;stroke-dasharray:none;stroke-dashoffset:0;stroke-opacity:1"
       d="m 58.924707,106.0595 0.27041,0.97805 1.03788,-0.0956 0.524807,0.72787 1.177376,0.0703 0.806015,1.07963 1.130725,-0.34793 0.644461,1.07749 1.024199,-0.60368 z"
       id="path870"
       inkscape:connector-curvature="0"
       sodipodi:nodetypes="cccccccccc" />
    <path
       style="opacity:1;vector-effect:none;fill:#000000;fill-opacity:1;stroke:none;stroke-width:0.06614583;stroke-linecap:round;stroke-linejoin:round;stroke-miterlimit:4;stroke-dasharray:none;stroke-dashoffset:0;stroke-opacity:1"
       d="m 67.07055,109.34199 0.361003,1.01833 0.82189,-0.90691 0.453456,1.67212 1.232833,-0.8644 0.666014,0.49597 0.623502,-0.2409 0.453456,1.03444 0.779378,-1.0061 0.637672,0.83606 0.410945,-0.83607 c -2.478817,-1.37342 -4.481645,-1.35288 -6.440149,-1.20254 z"
       id="path872"
       inkscape:connector-curvature="0"
       sodipodi:nodetypes="cccccccccccc" />
    <path
       sodipodi:nodetypes="cccccccccc"
       inkscape:connector-curvature="0"
       id="path874"
       d="m 93.028147,90.497755 0.686229,0.802056 -0.357907,0.24685 0.718763,0.95073 -0.341613,0.430627 1.107863,1.300773 -0.499281,0.188191 0.624218,1.291408 -0.450543,0.55172 z"
       style="opacity:1;vector-effect:none;fill:#000000;fill-opacity:1;stroke:none;stroke-width:0.06614583;stroke-linecap:round;stroke-linejoin:round;stroke-miterlimit:4;stroke-dasharray:none;stroke-dashoffset:0;stroke-opacity:1" />
    <path
       sodipodi:nodetypes="ccccccc"
       inkscape:connector-curvature="0"
       id="path876"
       d="m 95.08393,97.99795 0.425114,2.04055 -0.680184,0.0567 -0.425115,3.28756 -0.708524,-0.45346 0.02834,1.16198 -1.190323,-0.14172 z"
       style="opacity:1;vector-effect:none;fill:#000000;fill-opacity:1;stroke:none;stroke-width:0.06614583;stroke-linecap:round;stroke-linejoin:round;stroke-miterlimit:4;stroke-dasharray:none;stroke-dashoffset:0;stroke-opacity:1" />
    <path
       sodipodi:nodetypes="cccccccccc"
       inkscape:connector-curvature="0"
       id="path878"
       d="m 90.83796,105.23907 -0.228946,0.98858 -1.040988,-0.0518 -0.493661,0.74935 -1.173367,0.11987 -0.759793,1.11264 -1.144386,-0.29996 -0.598472,1.1037 -1.048734,-0.55998 z"
       style="opacity:1;vector-effect:none;fill:#000000;fill-opacity:1;stroke:none;stroke-width:0.06614583;stroke-linecap:round;stroke-linejoin:round;stroke-miterlimit:4;stroke-dasharray:none;stroke-dashoffset:0;stroke-opacity:1" />
    <path
       sodipodi:nodetypes="cccccccccccc"
       inkscape:connector-curvature="0"
       id="path880"
       d="m 82.245049,109.22175 -0.361003,1.01833 -0.82189,-0.90691 -0.453456,1.67212 -1.232833,-0.8644 -0.666014,0.49597 -0.623502,-0.2409 -0.453456,1.03444 -0.779378,-1.0061 -0.637672,0.83606 -0.410945,-0.83607 c 2.478817,-1.37342 4.481645,-1.35288 6.440149,-1.20254 z"
       style="opacity:1;vector-effect:none;fill:#000000;fill-opacity:1;stroke:none;stroke-width:0.06614583;stroke-linecap:round;stroke-linejoin:round;stroke-miterlimit:4;stroke-dasharray:none;stroke-dashoffset:0;stroke-opacity:1" />
  </g>
</svg>
