<?xml version="1.0" encoding="UTF-8" standalone="no"?>
<!-- Created with Inkscape (http://www.inkscape.org/) -->

<svg
   xmlns:dc="http://purl.org/dc/elements/1.1/"
   xmlns:cc="http://creativecommons.org/ns#"
   xmlns:rdf="http://www.w3.org/1999/02/22-rdf-syntax-ns#"
   xmlns:svg="http://www.w3.org/2000/svg"
   xmlns="http://www.w3.org/2000/svg"
   xmlns:sodipodi="http://sodipodi.sourceforge.net/DTD/sodipodi-0.dtd"
   xmlns:inkscape="http://www.inkscape.org/namespaces/inkscape"
   width="112.07594mm"
   height="112.07593mm"
   viewBox="0 0 112.07594 112.07593"
   version="1.1"
   id="svg19053"
   sodipodi:docname="5cheek_low.svg"
   inkscape:version="0.92.2 (unknown)">
  <sodipodi:namedview
     pagecolor="#ffffff"
     bordercolor="#666666"
     borderopacity="1"
     objecttolerance="10"
     gridtolerance="10"
     guidetolerance="10"
     inkscape:pageopacity="0"
     inkscape:pageshadow="2"
     inkscape:window-width="1920"
     inkscape:window-height="1023"
     id="namedview29025"
     showgrid="false"
     inkscape:zoom="2.3339276"
     inkscape:cx="113.98918"
     inkscape:cy="243.97786"
     inkscape:window-x="0"
     inkscape:window-y="27"
     inkscape:window-maximized="1"
     inkscape:current-layer="layer1"
     showguides="true"
     inkscape:guide-bbox="true" />
  <defs
     id="defs19047" />
  <metadata
     id="metadata19050">
    <rdf:RDF>
      <cc:Work
         rdf:about="">
        <dc:format>image/svg+xml</dc:format>
        <dc:type
           rdf:resource="http://purl.org/dc/dcmitype/StillImage" />
        <dc:title></dc:title>
      </cc:Work>
    </rdf:RDF>
  </metadata>
  <g
     inkscape:label="Layer 1"
     inkscape:groupmode="layer"
     id="layer1"
     transform="translate(-18.410521,-47.652398)">
    <path
       style="opacity:0.6;fill:#000000;stroke:none;stroke-width:0.26339555px;stroke-linecap:butt;stroke-linejoin:miter;stroke-opacity:1"
       d="m 56.783907,86.020598 c -0.105748,3.441645 -0.04933,0.709268 0.10609,3.383129 0.126802,2.181503 2.23565,5.256032 2.835332,7.997566 1.555017,5.079397 6.087955,13.256327 14.723132,13.188867 7.512537,-0.0587 13.889559,-7.74875 14.723133,-13.188867 0.351442,-2.293606 2.656857,-5.546047 2.796101,-7.724205 0.224481,-3.511492 0.194173,-0.427173 0.14532,-3.65649 -0.0056,0.01369 -0.01048,0.02983 -0.01602,0.04393 -2.3e-4,-0.01535 -8.04e-4,-0.02855 -0.001,-0.04393 -0.887897,2.153711 -0.491631,4.012556 -3.805452,9.676925 -2.052982,3.50919 -5.529916,11.739747 -11.618412,12.566677 -0.816653,-0.053 -1.258912,-0.83457 -1.241785,-2.04277 l -0.973066,-0.0403 -0.0088,5.1e-4 -0.0088,-5.1e-4 -0.973066,0.0403 c 0.01713,1.2082 -0.425133,1.98978 -1.241785,2.04277 -6.088496,-0.82693 -9.565947,-9.057487 -11.618928,-12.566677 -3.313822,-5.664369 -2.91704,-7.523214 -3.804936,-9.676925 -2.3e-4,0.01538 -8.05e-4,0.02857 -10e-4,0.04393 -0.0055,-0.0141 -0.01037,-0.03023 -0.01602,-0.04393 z"
       id="path818"
       inkscape:connector-curvature="0"
       sodipodi:nodetypes="cscssscccscccccccscccc" />
    <path
       style="fill:#000000;stroke:none;stroke-width:0.09881975px;stroke-linecap:butt;stroke-linejoin:miter;stroke-opacity:1"
       d="m 74.083479,99.433906 c -0.501824,0.005 -1.106532,0.467 -1.455208,0.650604 -1.099087,0.57879 -2.77001,0.0611 -3.926377,0.5147 -1.000527,0.39251 -2.007629,1.89756 -2.007629,1.89756 0,0 1.209281,-0.62711 1.791105,-0.60152 1.862976,0.082 4.773538,0.64987 6.237861,-0.40462 1.464241,1.05474 4.375293,0.48661 6.238383,0.40462 0.58182,-0.0256 1.79059,0.60152 1.79059,0.60152 0,0 -1.00659,-1.50505 -2.00712,-1.89756 -1.15636,-0.4536 -2.82729,0.0641 -3.926371,-0.5147 -0.398489,-0.209844 -1.131385,-0.783014 -1.662949,-0.622704 -0.172468,0.052 -0.314473,0.13123 -0.432533,0.22635 -0.118038,-0.0951 -0.259596,-0.17435 -0.432014,-0.22635 -0.06645,-0.02 -0.136049,-0.0286 -0.207738,-0.0279 z"
       id="path815-3"
       inkscape:connector-curvature="0"
       inkscape:label="hair" />
    <path
       style="opacity:1;vector-effect:none;fill:#000000;fill-opacity:1;stroke:none;stroke-width:0.06614583;stroke-linecap:round;stroke-linejoin:round;stroke-miterlimit:4;stroke-dasharray:none;stroke-dashoffset:0;stroke-opacity:1"
       d="m 57.099117,90.327654 -0.04318,1.054676 0.433914,-0.02739 0.0232,1.191625 0.534772,0.127106 -0.06606,1.707339 0.508728,-0.160918 0.308203,1.400854 0.695266,0.15489 z"
       id="path860"
       inkscape:connector-curvature="0"
       sodipodi:nodetypes="cccccccccc" />
    <path
       style="opacity:1;vector-effect:none;fill:#000000;fill-opacity:1;stroke:none;stroke-width:0.06614583;stroke-linecap:round;stroke-linejoin:round;stroke-miterlimit:4;stroke-dasharray:none;stroke-dashoffset:0;stroke-opacity:1"
       d="m 59.845058,96.669606 -0.425114,2.040552 0.680184,0.05668 0.425115,3.287562 0.708524,-0.45346 -0.02834,1.16198 1.190323,-0.14172 z"
       id="path868"
       inkscape:connector-curvature="0"
       sodipodi:nodetypes="ccccccc" />
    <path
       style="opacity:1;vector-effect:none;fill:#000000;fill-opacity:1;stroke:none;stroke-width:0.06614583;stroke-linecap:round;stroke-linejoin:round;stroke-miterlimit:4;stroke-dasharray:none;stroke-dashoffset:0;stroke-opacity:1"
       d="m 62.617417,103.5438 -0.06549,1.01263 1.011798,0.25021 0.256906,0.85978 1.089117,0.45275 0.407123,1.28434 1.182286,0.0424 0.255218,1.22931 1.165577,-0.23418 z"
       id="path870"
       inkscape:connector-curvature="0"
       sodipodi:nodetypes="cccccccccc" />
    <path
       style="opacity:1;vector-effect:none;fill:#000000;fill-opacity:1;stroke:none;stroke-width:0.06614583;stroke-linecap:round;stroke-linejoin:round;stroke-miterlimit:4;stroke-dasharray:none;stroke-dashoffset:0;stroke-opacity:1"
       d="m 67.731874,108.82095 0.361003,1.01833 0.82189,-0.90691 0.453456,1.67212 1.232833,-0.8644 0.666014,0.49597 0.623502,-0.2409 0.453456,1.03444 0.779378,-1.0061 0.637672,0.83606 0.410945,-0.83607 c -2.478817,-1.37342 -4.481645,-1.35288 -6.440149,-1.20254 z"
       id="path872"
       inkscape:connector-curvature="0"
       sodipodi:nodetypes="cccccccccccc" />
    <path
       sodipodi:nodetypes="cccccccccc"
       inkscape:connector-curvature="0"
       id="path874"
       d="m 91.802983,90.552212 0.05353,1.054202 -0.434162,-0.02312 -0.01151,1.191795 -0.533501,0.132347 0.08281,1.706609 -0.510282,-0.155916 -0.294439,1.403813 -0.693712,0.161705 z"
       style="opacity:1;vector-effect:none;fill:#000000;fill-opacity:1;stroke:none;stroke-width:0.06614583;stroke-linecap:round;stroke-linejoin:round;stroke-miterlimit:4;stroke-dasharray:none;stroke-dashoffset:0;stroke-opacity:1" />
    <path
       sodipodi:nodetypes="ccccccc"
       inkscape:connector-curvature="0"
       id="path876"
       d="m 89.192137,97.156266 0.425114,2.040552 -0.680184,0.05668 -0.425115,3.287562 -0.708524,-0.45346 0.02834,1.16198 -1.190323,-0.14172 z"
       style="opacity:1;vector-effect:none;fill:#000000;fill-opacity:1;stroke:none;stroke-width:0.06614583;stroke-linecap:round;stroke-linejoin:round;stroke-miterlimit:4;stroke-dasharray:none;stroke-dashoffset:0;stroke-opacity:1" />
    <path
       sodipodi:nodetypes="cccccccccc"
       inkscape:connector-curvature="0"
       id="path878"
       d="m 86.318777,103.37928 0.0629,1.01279 -1.012433,0.24763 -0.259107,0.85913 -1.090272,0.44995 -0.410406,1.2833 -1.18239,0.0393 -0.258361,1.22864 -1.164976,-0.23716 z"
       style="opacity:1;vector-effect:none;fill:#000000;fill-opacity:1;stroke:none;stroke-width:0.06614583;stroke-linecap:round;stroke-linejoin:round;stroke-miterlimit:4;stroke-dasharray:none;stroke-dashoffset:0;stroke-opacity:1" />
    <path
       sodipodi:nodetypes="cccccccccccc"
       inkscape:connector-curvature="0"
       id="path880"
       d="m 81.082723,108.76083 -0.361003,1.01833 -0.82189,-0.90691 -0.453456,1.67212 -1.232833,-0.8644 -0.666014,0.49597 -0.623502,-0.2409 -0.453456,1.03444 -0.779378,-1.0061 -0.637672,0.83606 -0.410945,-0.83607 c 2.478817,-1.37342 4.481645,-1.35288 6.440149,-1.20254 z"
       style="opacity:1;vector-effect:none;fill:#000000;fill-opacity:1;stroke:none;stroke-width:0.06614583;stroke-linecap:round;stroke-linejoin:round;stroke-miterlimit:4;stroke-dasharray:none;stroke-dashoffset:0;stroke-opacity:1" />
  </g>
</svg>
