<?xml version="1.0" encoding="UTF-8" standalone="no"?>
<!-- Created with Inkscape (http://www.inkscape.org/) -->

<svg
   xmlns:dc="http://purl.org/dc/elements/1.1/"
   xmlns:cc="http://creativecommons.org/ns#"
   xmlns:rdf="http://www.w3.org/1999/02/22-rdf-syntax-ns#"
   xmlns:svg="http://www.w3.org/2000/svg"
   xmlns="http://www.w3.org/2000/svg"
   xmlns:sodipodi="http://sodipodi.sourceforge.net/DTD/sodipodi-0.dtd"
   xmlns:inkscape="http://www.inkscape.org/namespaces/inkscape"
   width="112.07594mm"
   height="112.07593mm"
   viewBox="0 0 112.07594 112.07593"
   version="1.1"
   id="svg19053"
   sodipodi:docname="teste.svg"
   inkscape:version="0.92.2 (unknown)">
  <sodipodi:namedview
     pagecolor="#ffffff"
     bordercolor="#666666"
     borderopacity="1"
     objecttolerance="10"
     gridtolerance="10"
     guidetolerance="10"
     inkscape:pageopacity="0"
     inkscape:pageshadow="2"
     inkscape:window-width="1920"
     inkscape:window-height="1023"
     id="namedview29025"
     showgrid="false"
     inkscape:zoom="4.6678551"
     inkscape:cx="167.61037"
     inkscape:cy="218.05804"
     inkscape:window-x="0"
     inkscape:window-y="27"
     inkscape:window-maximized="1"
     inkscape:current-layer="layer1"
     showguides="true"
     inkscape:guide-bbox="true" />
  <defs
     id="defs19047" />
  <metadata
     id="metadata19050">
    <rdf:RDF>
      <cc:Work
         rdf:about="">
        <dc:format>image/svg+xml</dc:format>
        <dc:type
           rdf:resource="http://purl.org/dc/dcmitype/StillImage" />
        <dc:title></dc:title>
      </cc:Work>
    </rdf:RDF>
  </metadata>
  <g
     inkscape:label="Layer 1"
     inkscape:groupmode="layer"
     id="layer1"
     transform="translate(-18.410521,-47.652398)">
    <path
       style="opacity:1;vector-effect:none;fill:#de8787;fill-opacity:1;stroke:none;stroke-width:8.05461311;stroke-linecap:round;stroke-linejoin:round;stroke-miterlimit:4;stroke-dasharray:none;stroke-dashoffset:0;stroke-opacity:1"
       d="M 187.76367 213.24023 L 187.76367 249.05664 C 150.03314 253.5872 123.7729 268.92137 123.7207 286.45312 C 123.73733 286.85111 123.76591 287.24892 123.81055 287.64648 L 123.7207 287.64648 L 123.7207 413.00391 L 204.21289 413.00391 L 211.79688 413.00391 L 219.38086 413.00391 L 299.87305 413.00391 L 299.87305 287.64648 L 299.7832 287.64648 C 299.8278 287.24892 299.85453 286.85111 299.87305 286.45312 C 299.82083 268.92137 273.56255 253.5872 235.83203 249.05664 L 235.83203 213.24023 L 211.79688 213.24023 L 187.76367 213.24023 z "
       transform="matrix(0.26458333,0,0,0.26458333,18.410521,47.652398)"
       id="rect23540" />
    <path
       style="opacity:1;vector-effect:none;fill:#e9afaf;fill-opacity:1;stroke:none;stroke-width:31.10890579;stroke-linecap:round;stroke-linejoin:round;stroke-miterlimit:4;stroke-dasharray:none;stroke-dashoffset:0;stroke-opacity:1"
       d="M 202.32812 86.9375 C 186.53302 86.9375 145.30859 99.272863 145.30859 137.74414 L 145.30859 180.88867 C 145.30859 212.7276 173.93792 226.7781 192.62109 230.57812 C 195.17817 232.66506 202.79517 234.17963 211.79688 234.17969 C 220.79764 234.17963 228.41479 232.66667 230.97266 230.58008 C 249.65533 226.78072 278.28516 212.72888 278.28516 180.88867 L 278.28516 137.74414 C 278.28516 99.272863 237.0627 86.9375 221.26758 86.9375 L 211.79688 86.9375 L 202.32812 86.9375 z "
       transform="matrix(0.26458333,0,0,0.26458333,18.410521,47.652398)"
       id="rect23538" />
    <path
       inkscape:connector-curvature="0"
       style="opacity:1;vector-effect:none;fill:none;fill-opacity:1;stroke:#ff0000;stroke-width:0.06614583;stroke-linecap:round;stroke-linejoin:round;stroke-miterlimit:4;stroke-dasharray:none;stroke-dashoffset:0;stroke-opacity:1"
       d="m 71.943144,70.654611 c -4.17913,0 -15.08642,3.263731 -15.08642,13.44259 0,0.90795 0.19318,4.877062 -1.47071,8.585523 -4.03958,9.003356 1.98256,14.716596 12.04526,15.997986 0.56206,0.7101 3.48886,1.2516 7.01714,1.25161 3.52827,-1e-5 6.45508,-0.54151 7.01714,-1.25161 10.06299,-1.28127 16.08491,-6.99448 12.04526,-15.997986 -1.66389,-3.708461 -1.47071,-7.677573 -1.47071,-8.585523 0,-10.178859 -10.90678,-13.44259 -15.0859,-13.44259 h -2.50579 z"
       id="rect23538-3" />
    <path
       style="opacity:1;vector-effect:none;fill:none;fill-opacity:1;stroke:#ff0000;stroke-width:0.06614583;stroke-linecap:round;stroke-linejoin:round;stroke-miterlimit:4;stroke-dasharray:none;stroke-dashoffset:0;stroke-opacity:1"
       d="m 71.942912,70.654611 c -4.179125,0 -15.086417,3.263731 -15.086417,13.44259 0,8.238428 2.438744,10.453938 3.396176,13.588838 3.282675,10.748401 10.068184,11.269591 13.116512,11.269591 h 1.079518 1.079006 c 3.048325,0 9.833842,-0.52119 13.116512,-11.269591 0.95744,-3.1349 3.396173,-5.35041 3.396173,-13.588838 0,-10.178859 -10.907292,-13.44259 -15.086417,-13.44259 h -2.505274 z"
       id="rect23538-36"
       inkscape:connector-curvature="0" />
    <path
       style="opacity:1;fill:#000000;stroke:none;stroke-width:0.26339555px;stroke-linecap:butt;stroke-linejoin:miter;stroke-opacity:1"
       d="m 56.783907,86.020598 c -0.105748,3.441645 -0.08941,7.443823 0.06601,10.117684 0.126802,2.181503 0.616193,4.574668 1.817079,6.554678 2.837584,4.6786 9.150408,7.8972 15.781465,7.8972 6.631058,0 12.943881,-3.2186 15.781466,-7.8972 1.203298,-1.98399 1.678684,-4.383721 1.817928,-6.561879 0.224481,-3.511492 0.114013,-6.881166 0.06516,-10.110483 -0.0056,0.01369 -0.01048,0.02983 -0.01602,0.04393 -2.3e-4,-0.01535 -8.04e-4,-0.02855 -10e-4,-0.04393 -0.887897,2.153711 -0.491631,9.304223 -3.805452,14.968592 -2.052982,3.50919 -5.529916,6.44808 -11.618412,7.27501 -0.816653,-0.053 -1.258912,-0.83457 -1.241785,-2.04277 l -0.973066,-0.0403 -0.0088,5.1e-4 -0.0088,-5.1e-4 -0.973066,0.0403 c 0.01713,1.2082 -0.425133,1.98978 -1.241785,2.04277 -6.088496,-0.82693 -9.565947,-3.76582 -11.618928,-7.27501 -3.313822,-5.664369 -2.91704,-12.814881 -3.804936,-14.968592 -2.3e-4,0.01538 -8.05e-4,0.02857 -10e-4,0.04393 -0.0055,-0.0141 -0.01037,-0.03023 -0.01602,-0.04393 z"
       id="path818"
       inkscape:connector-curvature="0"
       sodipodi:nodetypes="cscssscccscccccccscccc" />
    <path
       style="fill:#000000;stroke:none;stroke-width:0.09881975px;stroke-linecap:butt;stroke-linejoin:miter;stroke-opacity:1"
       d="m 74.083479,99.433906 c -0.501824,0.005 -1.106532,0.467 -1.455208,0.650604 -1.099087,0.57879 -2.77001,0.0611 -3.926377,0.5147 -1.000527,0.39251 -2.007629,1.89756 -2.007629,1.89756 0,0 1.209281,-0.62711 1.791105,-0.60152 1.862976,0.082 4.773538,0.64987 6.237861,-0.40462 1.464241,1.05474 4.375293,0.48661 6.238383,0.40462 0.58182,-0.0256 1.79059,0.60152 1.79059,0.60152 0,0 -1.00659,-1.50505 -2.00712,-1.89756 -1.15636,-0.4536 -2.82729,0.0641 -3.926371,-0.5147 -0.398489,-0.209844 -1.131385,-0.783014 -1.662949,-0.622704 -0.172468,0.052 -0.314473,0.13123 -0.432533,0.22635 -0.118038,-0.0951 -0.259596,-0.17435 -0.432014,-0.22635 -0.06645,-0.02 -0.136049,-0.0286 -0.207738,-0.0279 z"
       id="path815-3"
       inkscape:connector-curvature="0"
       inkscape:label="hair" />
    <path
       style="opacity:1;vector-effect:none;fill:#000000;fill-opacity:1;stroke:none;stroke-width:0.06614583;stroke-linecap:round;stroke-linejoin:round;stroke-miterlimit:4;stroke-dasharray:none;stroke-dashoffset:0;stroke-opacity:1"
       d="m 56.812571,90.17952 -0.403652,0.975331 0.416816,0.123681 -0.388473,1.126763 0.458319,0.30345 -0.649829,1.580219 0.533027,0.02407 -0.192935,1.421323 0.599434,0.38479 z"
       id="path860"
       inkscape:connector-curvature="0"
       sodipodi:nodetypes="cccccccccc" />
    <path
       style="opacity:1;vector-effect:none;fill:#000000;fill-opacity:1;stroke:none;stroke-width:0.06614583;stroke-linecap:round;stroke-linejoin:round;stroke-miterlimit:4;stroke-dasharray:none;stroke-dashoffset:0;stroke-opacity:1"
       d="m 57.237686,97.236426 -0.425114,2.040552 0.680184,0.05668 0.425115,3.287562 0.708524,-0.45346 -0.02834,1.16198 1.190323,-0.14172 z"
       id="path868"
       inkscape:connector-curvature="0"
       sodipodi:nodetypes="ccccccc" />
    <path
       style="opacity:1;vector-effect:none;fill:#000000;fill-opacity:1;stroke:none;stroke-width:0.06614583;stroke-linecap:round;stroke-linejoin:round;stroke-miterlimit:4;stroke-dasharray:none;stroke-dashoffset:0;stroke-opacity:1"
       d="m 61.136038,105.53987 0.160321,1.002 1.042085,0.02 0.440883,0.78157 1.162326,0.20039 0.681364,1.16233 1.162326,-0.22044 0.521043,1.14229 1.084808,-0.48642 z"
       id="path870"
       inkscape:connector-curvature="0"
       sodipodi:nodetypes="cccccccccc" />
    <path
       style="opacity:1;vector-effect:none;fill:#000000;fill-opacity:1;stroke:none;stroke-width:0.06614583;stroke-linecap:round;stroke-linejoin:round;stroke-miterlimit:4;stroke-dasharray:none;stroke-dashoffset:0;stroke-opacity:1"
       d="m 67.391192,109.14159 0.361003,1.01833 0.82189,-0.90691 0.453456,1.67212 1.232833,-0.8644 0.666014,0.49597 0.623502,-0.2409 0.453456,1.03444 0.779378,-1.0061 0.637672,0.83606 0.410945,-0.83607 c -2.478817,-1.37342 -4.481645,-1.35288 -6.440149,-1.20254 z"
       id="path872"
       inkscape:connector-curvature="0"
       sodipodi:nodetypes="cccccccccccc" />
    <path
       sodipodi:nodetypes="cccccccccc"
       inkscape:connector-curvature="0"
       id="path874"
       d="m 92.102226,90.17952 0.403652,0.975331 -0.416816,0.123681 0.388473,1.126763 -0.458319,0.30345 0.649829,1.580219 -0.533027,0.02407 0.192935,1.421323 -0.599434,0.38479 z"
       style="opacity:1;vector-effect:none;fill:#000000;fill-opacity:1;stroke:none;stroke-width:0.06614583;stroke-linecap:round;stroke-linejoin:round;stroke-miterlimit:4;stroke-dasharray:none;stroke-dashoffset:0;stroke-opacity:1" />
    <path
       sodipodi:nodetypes="ccccccc"
       inkscape:connector-curvature="0"
       id="path876"
       d="m 91.677111,97.236426 0.425114,2.040552 -0.680184,0.05668 -0.425115,3.287562 -0.708524,-0.45346 0.02834,1.16198 -1.190323,-0.14172 z"
       style="opacity:1;vector-effect:none;fill:#000000;fill-opacity:1;stroke:none;stroke-width:0.06614583;stroke-linecap:round;stroke-linejoin:round;stroke-miterlimit:4;stroke-dasharray:none;stroke-dashoffset:0;stroke-opacity:1" />
    <path
       sodipodi:nodetypes="cccccccccc"
       inkscape:connector-curvature="0"
       id="path878"
       d="m 87.778759,105.53987 -0.160321,1.002 -1.042085,0.02 -0.440883,0.78157 -1.162326,0.20039 -0.681364,1.16233 -1.162326,-0.22044 -0.521043,1.14229 -1.084808,-0.48642 z"
       style="opacity:1;vector-effect:none;fill:#000000;fill-opacity:1;stroke:none;stroke-width:0.06614583;stroke-linecap:round;stroke-linejoin:round;stroke-miterlimit:4;stroke-dasharray:none;stroke-dashoffset:0;stroke-opacity:1" />
    <path
       sodipodi:nodetypes="cccccccccccc"
       inkscape:connector-curvature="0"
       id="path880"
       d="m 81.523605,109.14159 -0.361003,1.01833 -0.82189,-0.90691 -0.453456,1.67212 -1.232833,-0.8644 -0.666014,0.49597 -0.623502,-0.2409 -0.453456,1.03444 -0.779378,-1.0061 -0.637672,0.83606 -0.410945,-0.83607 c 2.478817,-1.37342 4.481645,-1.35288 6.440149,-1.20254 z"
       style="opacity:1;vector-effect:none;fill:#000000;fill-opacity:1;stroke:none;stroke-width:0.06614583;stroke-linecap:round;stroke-linejoin:round;stroke-miterlimit:4;stroke-dasharray:none;stroke-dashoffset:0;stroke-opacity:1" />
  </g>
</svg>
