<?xml version="1.0" encoding="UTF-8" standalone="no"?>
<!-- Created with Inkscape (http://www.inkscape.org/) -->

<svg
   xmlns:dc="http://purl.org/dc/elements/1.1/"
   xmlns:cc="http://creativecommons.org/ns#"
   xmlns:rdf="http://www.w3.org/1999/02/22-rdf-syntax-ns#"
   xmlns:svg="http://www.w3.org/2000/svg"
   xmlns="http://www.w3.org/2000/svg"
   xmlns:sodipodi="http://sodipodi.sourceforge.net/DTD/sodipodi-0.dtd"
   xmlns:inkscape="http://www.inkscape.org/namespaces/inkscape"
   width="112.07594mm"
   height="112.07593mm"
   viewBox="0 0 112.07594 112.07593"
   version="1.1"
   id="svg19053"
   sodipodi:docname="bhair_5.svg"
   inkscape:version="0.92.2 (unknown)">
  <sodipodi:namedview
     pagecolor="#ffffff"
     bordercolor="#666666"
     borderopacity="1"
     objecttolerance="10"
     gridtolerance="10"
     guidetolerance="10"
     inkscape:pageopacity="0"
     inkscape:pageshadow="2"
     inkscape:window-width="1920"
     inkscape:window-height="1023"
     id="namedview29025"
     showgrid="false"
     inkscape:zoom="1.0705592"
     inkscape:cx="262.87544"
     inkscape:cy="185.63863"
     inkscape:window-x="0"
     inkscape:window-y="27"
     inkscape:window-maximized="1"
     inkscape:current-layer="g1686"
     inkscape:lockguides="true" />
  <defs
     id="defs19047" />
  <metadata
     id="metadata19050">
    <rdf:RDF>
      <cc:Work
         rdf:about="">
        <dc:format>image/svg+xml</dc:format>
        <dc:type
           rdf:resource="http://purl.org/dc/dcmitype/StillImage" />
        <dc:title></dc:title>
      </cc:Work>
    </rdf:RDF>
  </metadata>
  <g
     inkscape:groupmode="layer"
     id="layer6"
     inkscape:label="default"
     style="display:none">
    <path
       style="opacity:1;vector-effect:none;fill:#a05a2c;fill-opacity:1;stroke:none;stroke-width:0.06614583;stroke-linecap:butt;stroke-linejoin:miter;stroke-miterlimit:4;stroke-dasharray:none;stroke-dashoffset:0;stroke-opacity:1"
       d="m 49.539612,21.18837 c -0.95685,-0.0099 -1.898941,0.0094 -2.668056,0.223243 -3.457376,0.961168 -5.826606,3.434586 -7.338052,5.36763 -1.501891,1.920833 -2.010878,2.518236 -2.812232,4.413684 -0.655424,1.550284 -2.307265,2.178138 -2.015898,3.865399 0.234244,1.356466 0.03928,3.31312 -0.827339,4.278291 -0.785738,0.875096 0.791708,3.146666 0.670243,4.379061 -0.11597,1.176623 0.02687,2.128789 -0.595313,3.172414 -1.624827,2.725428 0.90709,2.690689 0.853178,4.810043 -0.05101,2.005418 -1.371779,2.028262 -1.393195,3.844211 -0.03106,2.633403 2.238952,2.612377 2.683555,4.855517 0.243787,1.229968 -1.234207,2.970982 -1.400429,4.739761 -0.181282,1.929025 0.949095,3.891008 1.303795,5.258594 0.198956,0.344601 0.387771,0.659363 0.560174,0.962216 -0.436182,1.251878 -1.088023,2.191538 -2.220021,2.183328 1.548696,0.377005 2.227199,-0.15204 2.69441,-1.237649 0.251185,0.619416 0.330865,1.204256 0.07958,1.849498 -0.213032,0.547047 -1.091925,0.611333 -1.091925,0.611333 0,0 1.118709,0.40123 1.61644,-0.218075 0.643435,-0.800597 0.634489,-1.989603 0.240295,-2.927469 -0.157351,-0.374369 -0.245714,-0.613862 -0.290939,-0.836641 0.348795,-1.252086 0.564095,-2.445981 1.754415,-3.31401 0,0 1.314699,1.890893 1.109493,2.907832 -0.291435,1.444286 -1.524455,1.723411 -1.524455,1.723411 0.729756,0.31491 1.604876,0.398626 2.9068,-0.746726 -0.0026,1.725465 -1.208945,3.300201 -3.12539,2.843755 1.077849,1.412656 2.439045,0.504659 3.801319,-0.414962 0.04291,1.753431 1.887222,1.636385 3.364134,1.900658 C 43.88421,74.951319 43.26355,73.84326 43.601987,72.471544 l 0.882634,-2.112532 0.230994,-0.0011 -0.212391,-0.04341 0.04961,-0.118857 c 0.06963,-0.105616 0.143179,-0.20792 0.214458,-0.312126 0.419037,1.161391 0.685477,2.383076 -1.07487,3.20239 1.76307,-0.05612 2.121234,-1.58033 1.531173,-3.843176 0.176308,-2.300108 0.896509,-1.855796 1.653646,-1.700155 0.02971,0.09612 0.0512,0.200166 0.05943,0.31781 0.04305,0.615609 -0.85943,0.685861 -1.008724,1.481563 -0.239048,1.274109 0.202242,3.324837 0.131257,4.297929 l 0.290939,-0.177768 0.03566,-0.427363 -0.03876,-0.726054 0.02532,-0.05219 c -0.141999,-0.864867 0.04274,-1.933821 0.09457,-2.410703 0.07604,-0.699628 0.990582,-1.545527 0.975651,-2.208652 -0.0026,-0.114742 -0.0752,-0.241977 -0.175183,-0.373621 0.0028,-0.259519 -0.02633,-0.563065 0.408244,-0.251148 0.01294,0.02392 0.02426,0.0482 0.03927,0.07131 0.244142,0.375592 -0.586996,1.503847 -0.433564,1.893425 0.218416,0.554582 0.678492,0.445124 0.756544,1.685687 0.05211,0.828265 -0.470072,1.151149 -0.531752,1.481563 -0.198413,1.062868 -0.150571,1.254459 0.300757,1.469676 0.65119,0.310523 1.158587,-0.865063 1.158587,-0.865063 0,0 -1.092883,1.303798 -1.071253,-0.409276 0.0075,-0.595313 0.642959,-0.506167 0.57671,-1.714109 -0.07306,-1.331984 -0.54038,-1.011989 -0.760161,-1.781286 -0.166691,-0.583464 0.814834,-1.024181 0.47749,-1.615921 -0.07646,-0.13412 -0.112561,-0.276389 -0.119374,-0.422199 0.07371,-0.745942 0.52071,-0.870373 1.106911,-0.788064 0.0912,0.400744 0.291023,1.310781 0.310575,1.911512 0.01373,0.421632 -0.814572,1.030721 -0.798401,1.527553 0.01617,0.496843 0.586528,1.453661 0.586528,1.453661 0.410594,0.592867 1.254028,0.56352 1.969387,0.718301 0,0 -0.791919,-0.385112 -1.057815,-0.718301 -0.266348,-0.333756 -0.513636,-0.763352 -0.466638,-1.19321 0.047,-0.429858 0.639612,-1.00107 0.686779,-1.43247 0.006,-0.05496 0.01638,-0.134374 0.02326,-0.194305 0.402622,-1.158984 0.816092,-2.236875 1.702221,0.149863 l 0.06563,0.0057 c 0.08949,0.4996 0.101843,1.009052 -0.127125,1.30483 -0.347226,0.448548 -1.683617,0.247531 -1.683617,0.247531 0,0 1.565944,0.84175 2.301668,0.556038 0.654127,-0.254024 1.184828,-1.45904 1.376659,-1.94355 l 6.233213,0.54932 c -0.167439,0.245507 -0.372004,0.502787 -0.288872,0.629936 0.218416,0.334065 0.679011,0.268163 0.75706,1.015441 0.05211,0.498925 -0.470072,0.693423 -0.531752,0.892453 -0.198413,0.640252 -0.150571,0.755576 0.300757,0.885217 0.651193,0.187047 1.158068,-0.521415 1.158071,-0.521415 0,0 -1.092882,0.785411 -1.071253,-0.246496 0.0075,-0.358601 0.643475,-0.304866 0.577226,-1.032497 -0.07306,-0.802349 -0.54038,-0.609399 -0.760161,-1.072801 -0.08757,-0.184647 0.140136,-0.345591 0.328662,-0.508497 0.655611,-0.552289 1.105932,-0.07813 1.607138,0.141594 0.031,0.132215 0.0041,0.262366 -0.109038,0.381889 -0.337346,0.356447 0.644179,0.622126 0.477489,0.973582 -0.219777,0.463405 -0.687105,0.270455 -0.760159,1.072804 -0.06625,0.72763 0.569193,0.673896 0.57671,1.032496 0.02162,1.031907 -1.071253,0.247013 -1.071253,0.247013 0,0 0.507394,0.707945 1.158584,0.520898 0.451331,-0.12964 0.499173,-0.244967 0.300757,-0.885216 -0.06168,-0.199033 -0.583861,-0.393528 -0.531749,-0.892453 0.07805,-0.747279 0.538644,-0.681379 0.757057,-1.015442 0.153435,-0.234669 -0.678222,-0.914254 -0.43408,-1.140499 0.08273,-0.07666 0.13254,-0.16097 0.155546,-0.249079 l 0.03411,0.0031 c 0.123793,-0.08253 0.429234,-0.07445 0.468188,0.216525 -0.153715,0.220374 -0.310999,0.438234 -0.236677,0.551905 0.218416,0.334065 0.678492,0.268163 0.756541,1.015442 0.05211,0.498924 -0.469553,0.693422 -0.531233,0.892452 -0.198416,0.640252 -0.151088,0.755576 0.300239,0.885217 0.651192,0.18705 1.158586,-0.520899 1.158586,-0.520899 0,0 -1.092882,0.785411 -1.071253,-0.246496 0.0075,-0.358598 0.642959,-0.304864 0.57671,-1.032494 -0.07305,-0.802349 -0.539861,-0.609399 -0.759643,-1.072804 -0.05403,-0.113932 0.01664,-0.218471 0.119888,-0.320394 0.823111,0.403201 2.013003,1.03896 2.109949,1.396815 0.283925,1.048014 -0.714914,1.102682 -0.76636,1.790589 -0.03429,0.458559 -0.581663,0.628697 -0.448553,1.006657 -0.283904,0.387533 -0.805805,0.394769 -1.234033,0.551386 0.507021,0.04684 1.049935,0.221478 1.49965,0.06201 0.472835,-0.284554 0.923457,-0.483174 0.92346,-0.483174 0.157371,0.714002 0.848169,1.061307 1.658294,1.326533 v -5.29e-4 c 0.4864,0.08613 1.090404,0.03544 1.794206,-0.130225 -0.88387,-0.219374 -1.714585,-0.483238 -2.108398,-1.113626 -0.0849,-0.441672 -0.135266,-0.889778 -0.05374,-1.139465 0.185857,-0.569246 1.201656,-1.247701 1.387512,-1.816944 0.140597,-0.430623 1.099159,-0.964282 1.099159,-0.964282 -0.42355,1.821746 0.967899,3.444708 2.749185,3.567223 -0.869418,-0.962834 -1.133113,-1.892485 -0.820621,-2.807062 0.04523,-0.06372 0.09046,-0.122878 0.136424,-0.200504 0.157721,-0.266372 0.313119,-0.583356 0.477491,-0.845428 0.02804,-0.03375 0.05359,-0.06756 0.0832,-0.101286 l -0.02016,0.0031 c 0.398129,-0.585978 0.860727,-0.762397 1.555978,0.944129 0.0063,0.584919 0.05865,1.284663 0.241329,1.886188 -0.822624,0.313716 -1.119709,1.687518 -0.0181,2.739369 -0.51997,-0.93176 -0.329136,-1.846231 0.310576,-2.070159 0.116713,0.186627 0.257059,0.344467 0.426847,0.458888 0.644829,0.434549 1.592297,0.513321 1.981793,-0.159681 0.300998,-0.520179 0.279844,-1.145484 -0.246499,-1.435571 -0.2872,-0.158245 -1.180804,-0.01913 -1.180807,-0.01913 l -0.09767,-1.271238 c 0.02878,-0.0013 0.05443,-0.0062 0.08423,-0.0062 0.255958,-0.595857 -0.484391,-1.482497 -0.57309,-2.431894 -0.0887,-0.949396 -0.266118,-1.39878 0.960665,-3.335197 1.751674,-2.764933 -1.370669,-2.826644 1.125511,-6.939626 2.404178,-3.96139 -1.512147,-2.936127 1.782836,-7.965406 1.605095,-2.449925 0.736923,-5.668356 -0.19327,-7.729244 -0.523253,-1.159388 -0.756385,-2.157399 -0.651121,-4.057634 0.08039,-1.451266 -0.362574,-2.852711 -1.072803,-4.675682 -0.458407,-1.176607 -0.270796,-2.522043 -0.850593,-3.717602 -1.167466,-2.407436 -3.51908,-4.633621 -6.998542,-6.64249 -4.599847,-2.655723 -10.656448,-1.921596 -11.876794,-0.701249 -0.820401,-0.8204 -3.608464,-1.299586 -6.391857,-1.331702 -0.316296,-0.0036 -0.637063,-0.01014 -0.956013,-0.01343 z M 76.03515,53.732636 c 0.780209,0.774792 1.361133,3.036906 -0.880049,4.960421 1.462733,-2.231109 1.022292,-3.271644 0.880049,-4.960421 z m -37.020478,4.976442 c 0,0 1.469287,1.172583 0.524515,3.538802 -0.34767,0.870757 0.74259,3.342431 0.74259,3.342431 0,0 -1.17934,-1.622663 -1.310513,-2.577621 -0.101052,-0.735672 0.0305,-1.562709 0.436666,-2.184363 0.291695,-0.446453 -0.393258,-2.119249 -0.393258,-2.119249 z m -2.119249,4.71134 c -0.05259,2.00406 0.112697,3.713588 0.276468,5.458063 -0.02291,0.119425 -0.04433,0.235492 -0.06821,0.355536 -0.906153,-1.560927 -1.236575,-3.889068 -0.208256,-5.813599 z m 38.830702,9.137427 c 0.187926,-0.0052 0.401587,0.008 0.504881,0.08113 0.02953,0.02085 0.05009,0.04689 0.05839,0.07855 0.04739,0.180573 -0.370816,0.355015 -0.58756,0.430983 -0.08834,0.02635 -0.257252,-0.01503 -0.27182,-0.130742 l -0.05426,-0.430982 c 0,0 0.162441,-0.02376 0.350364,-0.02894 z"
       id="path1544"
       inkscape:connector-curvature="0"
       inkscape:label="hairback"
       class="hair" />
    <path
       style="opacity:1;vector-effect:none;fill:#a05a2c;fill-opacity:1;stroke:none;stroke-width:0.06614583;stroke-linecap:butt;stroke-linejoin:miter;stroke-miterlimit:4;stroke-dasharray:none;stroke-dashoffset:0;stroke-opacity:1"
       d="m 34.302816,38.67981 c -0.988843,1.841362 0.392869,4.089098 -0.64389,6.295739 -0.333375,0.709555 -1.384337,1.481307 -1.458309,2.264979 -0.07637,0.809138 0.896689,1.700858 0.910539,2.518709 0.01,0.587288 -0.808831,1.107078 -0.825272,1.692918 -0.02964,1.057537 1.045202,1.130001 1.119828,2.197282 0.04305,0.615609 -0.85943,0.685861 -1.008724,1.481564 -0.239049,1.274109 0.202245,3.324836 0.13126,4.297929 l 0.290938,-0.177766 0.03565,-0.427366 -0.03876,-0.726053 0.02532,-0.05219 c -0.14201,-0.864867 0.04274,-1.933813 0.09457,-2.410706 0.07604,-0.699625 0.990582,-1.545527 0.975651,-2.208652 -0.0095,-0.420727 -0.926547,-1.004601 -0.897101,-1.388546 0.08428,-1.099111 0.91246,-1.843627 0.910537,-2.715596 -0.0016,-0.704715 -1.087287,-1.168808 -0.991669,-1.725475 0.197794,-1.151536 1.667473,-1.453788 1.784903,-2.245858 0.428593,-2.890903 0.161867,-3.668572 0.956013,-3.913973 z"
       id="path1546"
       inkscape:connector-curvature="0"
       sodipodi:nodetypes="cscccccccccccccccccc"
       inkscape:label="bang7"
       class="hair" />
    <path
       style="opacity:1;vector-effect:none;fill:#a05a2c;fill-opacity:1;stroke:none;stroke-width:0.06614583;stroke-linecap:butt;stroke-linejoin:miter;stroke-miterlimit:4;stroke-dasharray:none;stroke-dashoffset:0;stroke-opacity:1"
       d="m 35.825366,37.148481 c -2.175597,4.041919 -4.166261,2.098957 -2.86166,0.120145 -2.443137,2.376299 0.565025,4.177876 2.555835,1.97695 z"
       id="path1548"
       inkscape:connector-curvature="0"
       sodipodi:nodetypes="cccc"
       inkscape:label="bang6"
       class="hair" />
    <path
       style="opacity:1;vector-effect:none;fill:#a05a2c;fill-opacity:1;stroke:none;stroke-width:0.06614583;stroke-linecap:butt;stroke-linejoin:miter;stroke-miterlimit:4;stroke-dasharray:none;stroke-dashoffset:0;stroke-opacity:1"
       d="m 33.400603,55.650973 c 0,0 1.545958,3.371619 1.499753,5.461556 -0.01855,0.839279 -0.792624,2.1314 -1.03296,2.798563 -0.396506,1.100682 -0.186628,2.249752 0.297771,3.208368 0.230778,0.456705 1.146407,1.020927 1.146407,1.020927 l 0.190947,-0.10825 c 0,0 -0.806897,-0.588101 -1.009682,-1.021901 -0.421815,-0.90235 -0.646553,-1.752748 -0.283983,-2.974696 0.214421,-0.722651 1.169976,-1.996133 1.206722,-2.793079 0.06378,-1.383245 -0.988273,-4.477406 -0.988273,-4.477406 z"
       id="path1550"
       inkscape:connector-curvature="0"
       sodipodi:nodetypes="csssccssscc"
       inkscape:label="bang9"
       class="hair" />
    <path
       style="opacity:1;vector-effect:none;fill:#a05a2c;fill-opacity:1;stroke:none;stroke-width:0.08530674;stroke-linecap:butt;stroke-linejoin:miter;stroke-miterlimit:4;stroke-dasharray:none;stroke-dashoffset:0;stroke-opacity:1"
       d="m 33.575085,55.650973 c -0.578869,1.431704 2.398117,4.037785 -0.633222,5.448653 2.014936,-0.06414 2.1944,-2.046256 1.221213,-4.856407 z"
       id="path1555"
       inkscape:connector-curvature="0"
       sodipodi:nodetypes="cccc"
       inkscape:label="bang8"
       class="hair" />
    <path
       style="opacity:1;vector-effect:none;fill:#a05a2c;fill-opacity:1;stroke:none;stroke-width:0.06614583;stroke-linecap:butt;stroke-linejoin:miter;stroke-miterlimit:4;stroke-dasharray:none;stroke-dashoffset:0;stroke-opacity:1"
       d="m 38.665184,27.973692 c -1.549052,2.683037 -3.479613,2.710295 -4.494179,4.598172 -0.446079,0.830052 -0.595645,2.763504 -0.595645,2.763504 0,0 0.397513,-1.667814 0.888601,-2.343785 1.159958,-1.596657 3.290295,-1.410547 4.616272,-3.707207 z"
       id="path1557"
       inkscape:connector-curvature="0"
       sodipodi:nodetypes="cscscc"
       inkscape:label="bang5"
       class="hair" />
    <path
       style="opacity:1;vector-effect:none;fill:#a05a2c;fill-opacity:1;stroke:none;stroke-width:0.06614583;stroke-linecap:butt;stroke-linejoin:miter;stroke-miterlimit:4;stroke-dasharray:none;stroke-dashoffset:0;stroke-opacity:1"
       d="m 79.024606,48.127163 c 0,0 1.638893,3.204573 -0.230809,4.510682 -1.525595,1.065727 0.759555,2.601131 -0.30655,3.60962 -0.563723,0.533257 -1.145713,1.399949 -0.764765,2.068174 0.337346,0.591742 -0.644193,1.032871 -0.477504,1.616334 0.219781,0.769298 0.687046,0.448847 0.760101,1.780832 0.06625,1.207942 -0.569392,1.118887 -0.576907,1.714199 -0.02163,1.713075 1.071252,0.409312 1.071252,0.409312 0,0 -0.507301,1.175529 -1.158492,0.865008 -0.45133,-0.215217 -0.499017,-0.406739 -0.300602,-1.469623 0.06168,-0.330412 0.583802,-0.653238 0.531691,-1.481505 -0.07805,-1.240561 -0.538419,-1.130948 -0.756836,-1.685529 -0.153432,-0.389577 0.678208,-1.517824 0.434067,-1.893415 -0.433622,-0.667093 0.01633,-1.680108 0.687531,-2.149549 0.736644,-0.515217 -1.247928,-2.688621 1.52e-4,-3.492764 1.533041,-0.987744 0.469809,-3.289623 0.469809,-3.289623 z"
       id="path1562"
       inkscape:connector-curvature="0"
       sodipodi:nodetypes="csssssscssssssscc"
       inkscape:label="bang2"
       class="hair" />
    <path
       style="opacity:1;vector-effect:none;fill:#a05a2c;fill-opacity:1;stroke:none;stroke-width:0.06614583;stroke-linecap:butt;stroke-linejoin:miter;stroke-miterlimit:4;stroke-dasharray:none;stroke-dashoffset:0;stroke-opacity:1"
       d="m 75.429874,63.602456 c -0.409776,2.114984 -0.152114,4.302814 2.381077,2.140784 -1.851151,3.304748 -3.478712,1.235858 -3.254866,-0.546117 l 0.87379,-1.529131"
       id="path1568"
       inkscape:connector-curvature="0"
       sodipodi:nodetypes="cccc"
       class="hair"
       inkscape:label="bang1" />
    <path
       style="opacity:1;vector-effect:none;fill:#a05a2c;fill-opacity:1;stroke:none;stroke-width:0.06614583;stroke-linecap:butt;stroke-linejoin:miter;stroke-miterlimit:4;stroke-dasharray:none;stroke-dashoffset:0;stroke-opacity:1"
       d="m 77.572631,36.851174 c 0.369405,1.837166 0.87573,3.27813 2.564128,4.572181 -1.782409,-0.668696 -2.766235,-1.737369 -3.089311,-3.460028 z"
       id="path1570"
       inkscape:connector-curvature="0"
       sodipodi:nodetypes="cccc"
       class="hair"
       inkscape:label="bang3" />
    <path
       style="opacity:1;vector-effect:none;fill:#a05a2c;fill-opacity:1;stroke:none;stroke-width:0.06614583;stroke-linecap:butt;stroke-linejoin:miter;stroke-miterlimit:4;stroke-dasharray:none;stroke-dashoffset:0;stroke-opacity:1"
       d="M 56.887482,22.533508 C 54.201731,17.77513 43.823661,21.709785 42.291409,24.260087 l 0.08738,1.048547 c 0.556803,-1.437133 10.624321,-8.43447 14.417526,-1.6602 z"
       id="path1576"
       inkscape:connector-curvature="0"
       sodipodi:nodetypes="ccccc"
       inkscape:label="bang4"
       class="hair" />
    <path
       style="opacity:1;vector-effect:none;fill:#a05a2c;fill-opacity:1;stroke:none;stroke-width:0.06614583;stroke-linecap:butt;stroke-linejoin:miter;stroke-miterlimit:4;stroke-dasharray:none;stroke-dashoffset:0;stroke-opacity:1"
       d="m 65.833243,22.825696 c 0.563739,-0.516761 4.702846,2.479228 6.240412,1.915374 0.694827,-0.254806 1.027702,-1.36463 0.803221,-2.069839 -0.232173,-0.729371 -2.718595,-2.381427 -2.718595,0.49429 1.171604,-1.89902 2.033784,-0.634142 2.069839,-0.09268 0.02203,0.330879 -0.564783,0.785127 -0.8959,0.803222 -1.642124,0.08974 -5.37483,-2.149786 -5.404744,-1.760908 z"
       id="path1578"
       inkscape:connector-curvature="0"
       sodipodi:nodetypes="csscsscc"
       class="hair"
       inkscape:label="bang3" />
  </g>
  <g
     style="display:inline"
     inkscape:label="variations"
     id="g1686"
     inkscape:groupmode="layer">
    <path
       class="hair"
       inkscape:label="hairback"
       inkscape:connector-curvature="0"
       id="path1664"
       d="m 49.539612,21.18837 c -0.95685,-0.0099 -1.898941,0.0094 -2.668056,0.223243 -3.457376,0.961168 -5.826606,3.434586 -7.338052,5.36763 -1.501891,1.920833 -2.010878,2.518236 -2.812232,4.413684 -0.655424,1.550284 -2.307265,2.178138 -2.015898,3.865399 0.234244,1.356466 0.03928,3.31312 -0.827339,4.278291 -0.785738,0.875096 0.791708,3.146666 0.670243,4.379061 -0.11597,1.176623 0.02687,2.128789 -0.595313,3.172414 -1.624827,2.725428 0.90709,2.690689 0.853178,4.810043 -0.05101,2.005418 -1.371779,2.028262 -1.393195,3.844211 -0.03106,2.633403 2.238952,2.612377 2.683555,4.855517 0.243787,1.229968 -1.234207,2.970982 -1.400429,4.739761 -0.181282,1.929025 0.949095,3.891008 1.303795,5.258594 0.198956,0.344601 0.387771,0.659363 0.560174,0.962216 -0.436182,1.251878 -1.088023,2.191538 -2.220021,2.183328 1.548696,0.377005 2.227199,-0.15204 2.69441,-1.237649 0.251185,0.619416 0.330865,1.204256 0.07958,1.849498 -0.213032,0.547047 -1.091925,0.611333 -1.091925,0.611333 0,0 1.118709,0.40123 1.61644,-0.218075 0.643435,-0.800597 0.634489,-1.989603 0.240295,-2.927469 -0.157351,-0.374369 -0.245714,-0.613862 -0.290939,-0.836641 0.348795,-1.252086 0.564095,-2.445981 1.754415,-3.31401 0,0 1.314699,1.890893 1.109493,2.907832 -0.291435,1.444286 -1.524455,1.723411 -1.524455,1.723411 0.729756,0.31491 1.604876,0.398626 2.9068,-0.746726 -0.0026,1.725465 -1.208945,3.300201 -3.12539,2.843755 1.077849,1.412656 2.439045,0.504659 3.801319,-0.414962 0.04291,1.753431 1.887222,1.636385 3.364134,1.900658 C 43.88421,74.951319 43.26355,73.84326 43.601987,72.471544 l 0.882634,-2.112532 0.230994,-0.0011 -0.212391,-0.04341 0.04961,-0.118857 c 0.06963,-0.105616 0.143179,-0.20792 0.214458,-0.312126 0.419037,1.161391 0.685477,2.383076 -1.07487,3.20239 1.76307,-0.05612 2.121234,-1.58033 1.531173,-3.843176 0.176308,-2.300108 0.896509,-1.855796 1.653646,-1.700155 0.02971,0.09612 0.0512,0.200166 0.05943,0.31781 0.04305,0.615609 -0.85943,0.685861 -1.008724,1.481563 -0.239048,1.274109 0.202242,3.324837 0.131257,4.297929 l 0.290939,-0.177768 0.03566,-0.427363 -0.03876,-0.726054 0.02532,-0.05219 c -0.141999,-0.864867 0.04274,-1.933821 0.09457,-2.410703 0.07604,-0.699628 0.990582,-1.545527 0.975651,-2.208652 -0.0026,-0.114742 -0.0752,-0.241977 -0.175183,-0.373621 0.0028,-0.259519 -0.02633,-0.563065 0.408244,-0.251148 0.01294,0.02392 0.02426,0.0482 0.03927,0.07131 0.244142,0.375592 -0.586996,1.503847 -0.433564,1.893425 0.218416,0.554582 0.678492,0.445124 0.756544,1.685687 0.05211,0.828265 -0.470072,1.151149 -0.531752,1.481563 -0.198413,1.062868 -0.150571,1.254459 0.300757,1.469676 0.65119,0.310523 1.158587,-0.865063 1.158587,-0.865063 0,0 -1.092883,1.303798 -1.071253,-0.409276 0.0075,-0.595313 0.642959,-0.506167 0.57671,-1.714109 -0.07306,-1.331984 -0.54038,-1.011989 -0.760161,-1.781286 -0.166691,-0.583464 0.814834,-1.024181 0.47749,-1.615921 -0.07646,-0.13412 -0.112561,-0.276389 -0.119374,-0.422199 0.07371,-0.745942 0.52071,-0.870373 1.106911,-0.788064 0.0912,0.400744 0.291023,1.310781 0.310575,1.911512 0.01373,0.421632 -0.814572,1.030721 -0.798401,1.527553 0.01617,0.496843 0.586528,1.453661 0.586528,1.453661 0.410594,0.592867 1.254028,0.56352 1.969387,0.718301 0,0 -0.791919,-0.385112 -1.057815,-0.718301 -0.266348,-0.333756 -0.513636,-0.763352 -0.466638,-1.19321 0.047,-0.429858 0.639612,-1.00107 0.686779,-1.43247 0.006,-0.05496 0.01638,-0.134374 0.02326,-0.194305 0.402622,-1.158984 0.816092,-2.236875 1.702221,0.149863 l 0.06563,0.0057 c 0.08949,0.4996 0.101843,1.009052 -0.127125,1.30483 -0.347226,0.448548 -1.683617,0.247531 -1.683617,0.247531 0,0 1.565944,0.84175 2.301668,0.556038 0.654127,-0.254024 1.184828,-1.45904 1.376659,-1.94355 l 6.233213,0.54932 c -0.167439,0.245507 -0.372004,0.502787 -0.288872,0.629936 0.218416,0.334065 0.679011,0.268163 0.75706,1.015441 0.05211,0.498925 -0.470072,0.693423 -0.531752,0.892453 -0.198413,0.640252 -0.150571,0.755576 0.300757,0.885217 0.651193,0.187047 1.158068,-0.521415 1.158071,-0.521415 0,0 -1.092882,0.785411 -1.071253,-0.246496 0.0075,-0.358601 0.643475,-0.304866 0.577226,-1.032497 -0.07306,-0.802349 -0.54038,-0.609399 -0.760161,-1.072801 -0.08757,-0.184647 0.140136,-0.345591 0.328662,-0.508497 0.655611,-0.552289 1.105932,-0.07813 1.607138,0.141594 0.031,0.132215 0.0041,0.262366 -0.109038,0.381889 -0.337346,0.356447 0.644179,0.622126 0.477489,0.973582 -0.219777,0.463405 -0.687105,0.270455 -0.760159,1.072804 -0.06625,0.72763 0.569193,0.673896 0.57671,1.032496 0.02162,1.031907 -1.071253,0.247013 -1.071253,0.247013 0,0 0.507394,0.707945 1.158584,0.520898 0.451331,-0.12964 0.499173,-0.244967 0.300757,-0.885216 -0.06168,-0.199033 -0.583861,-0.393528 -0.531749,-0.892453 0.07805,-0.747279 0.538644,-0.681379 0.757057,-1.015442 0.153435,-0.234669 -0.678222,-0.914254 -0.43408,-1.140499 0.08273,-0.07666 0.13254,-0.16097 0.155546,-0.249079 l 0.03411,0.0031 c 0.123793,-0.08253 0.429234,-0.07445 0.468188,0.216525 -0.153715,0.220374 -0.310999,0.438234 -0.236677,0.551905 0.218416,0.334065 0.678492,0.268163 0.756541,1.015442 0.05211,0.498924 -0.469553,0.693422 -0.531233,0.892452 -0.198416,0.640252 -0.151088,0.755576 0.300239,0.885217 0.651192,0.18705 1.158586,-0.520899 1.158586,-0.520899 0,0 -1.092882,0.785411 -1.071253,-0.246496 0.0075,-0.358598 0.642959,-0.304864 0.57671,-1.032494 -0.07305,-0.802349 -0.539861,-0.609399 -0.759643,-1.072804 -0.05403,-0.113932 0.01664,-0.218471 0.119888,-0.320394 0.823111,0.403201 2.013003,1.03896 2.109949,1.396815 0.283925,1.048014 -0.714914,1.102682 -0.76636,1.790589 -0.03429,0.458559 -0.581663,0.628697 -0.448553,1.006657 -0.283904,0.387533 -0.805805,0.394769 -1.234033,0.551386 0.507021,0.04684 1.049935,0.221478 1.49965,0.06201 0.472835,-0.284554 0.923457,-0.483174 0.92346,-0.483174 0.157371,0.714002 0.848169,1.061307 1.658294,1.326533 v -5.29e-4 c 0.4864,0.08613 1.090404,0.03544 1.794206,-0.130225 -0.88387,-0.219374 -1.714585,-0.483238 -2.108398,-1.113626 -0.0849,-0.441672 -0.135266,-0.889778 -0.05374,-1.139465 0.185857,-0.569246 1.201656,-1.247701 1.387512,-1.816944 0.140597,-0.430623 1.099159,-0.964282 1.099159,-0.964282 -0.42355,1.821746 0.967899,3.444708 2.749185,3.567223 -0.869418,-0.962834 -1.133113,-1.892485 -0.820621,-2.807062 0.04523,-0.06372 0.09046,-0.122878 0.136424,-0.200504 0.157721,-0.266372 0.313119,-0.583356 0.477491,-0.845428 0.02804,-0.03375 0.05359,-0.06756 0.0832,-0.101286 l -0.02016,0.0031 c 0.398129,-0.585978 0.860727,-0.762397 1.555978,0.944129 0.0063,0.584919 0.05865,1.284663 0.241329,1.886188 -0.822624,0.313716 -1.119709,1.687518 -0.0181,2.739369 -0.51997,-0.93176 -0.329136,-1.846231 0.310576,-2.070159 0.116713,0.186627 0.257059,0.344467 0.426847,0.458888 0.644829,0.434549 1.592297,0.513321 1.981793,-0.159681 0.300998,-0.520179 0.279844,-1.145484 -0.246499,-1.435571 -0.2872,-0.158245 -1.180804,-0.01913 -1.180807,-0.01913 l -0.09767,-1.271238 c 0.02878,-0.0013 0.05443,-0.0062 0.08423,-0.0062 0.255958,-0.595857 -0.484391,-1.482497 -0.57309,-2.431894 -0.0887,-0.949396 -0.266118,-1.39878 0.960665,-3.335197 1.751674,-2.764933 -1.370669,-2.826644 1.125511,-6.939626 2.404178,-3.96139 -1.512147,-2.936127 1.782836,-7.965406 1.605095,-2.449925 0.736923,-5.668356 -0.19327,-7.729244 -0.523253,-1.159388 -0.756385,-2.157399 -0.651121,-4.057634 0.08039,-1.451266 -0.362574,-2.852711 -1.072803,-4.675682 -0.458407,-1.176607 -0.270796,-2.522043 -0.850593,-3.717602 -1.167466,-2.407436 -3.51908,-4.633621 -6.998542,-6.64249 -4.599847,-2.655723 -10.656448,-1.921596 -11.876794,-0.701249 -0.820401,-0.8204 -3.608464,-1.299586 -6.391857,-1.331702 -0.316296,-0.0036 -0.637063,-0.01014 -0.956013,-0.01343 z m 28.39603,28.350077 c -0.55232,0.818481 -1.762664,1.791756 -1.469857,4.741973 -0.590672,-1.859748 -0.244703,-4.058054 1.469857,-4.741973 z m -38.92097,9.170631 c 0,0 1.469287,1.172583 0.524515,3.538802 -0.34767,0.870757 0.74259,3.342431 0.74259,3.342431 0,0 -1.17934,-1.622663 -1.310513,-2.577621 -0.101052,-0.735672 0.0305,-1.562709 0.436666,-2.184363 0.291695,-0.446453 -0.393258,-2.119249 -0.393258,-2.119249 z m -2.119249,4.71134 c -0.05259,2.00406 0.112697,3.713588 0.276468,5.458063 -0.02291,0.119425 -0.04433,0.235492 -0.06821,0.355536 -0.906153,-1.560927 -1.236575,-3.889068 -0.208256,-5.813599 z m 38.830702,9.137427 c 0.187926,-0.0052 0.401587,0.008 0.504881,0.08113 0.02953,0.02085 0.05009,0.04689 0.05839,0.07855 0.04739,0.180573 -0.370816,0.355015 -0.58756,0.430983 -0.08834,0.02635 -0.257252,-0.01503 -0.27182,-0.130742 l -0.05426,-0.430982 c 0,0 0.162441,-0.02376 0.350364,-0.02894 z"
       style="opacity:1;vector-effect:none;fill:#a05a2c;fill-opacity:1;stroke:none;stroke-width:0.06614583;stroke-linecap:butt;stroke-linejoin:miter;stroke-miterlimit:4;stroke-dasharray:none;stroke-dashoffset:0;stroke-opacity:1"
       sodipodi:nodetypes="ccccscccccssccccccssccccccccccccccccccccccccccccccccccccccccccccscccccccscccscccccccccccccsccccccccsscccccccccccccccccsccccccccccccccccccsssccscsccccccccccscccccccccccsccc" />
    <path
       class="hair"
       inkscape:label="bang7"
       sodipodi:nodetypes="cscccccccccccccccccc"
       inkscape:connector-curvature="0"
       id="path1666"
       d="m 35.042135,33.441457 c -1.110225,1.770826 0.117476,4.106247 -1.065079,6.238311 -0.380256,0.685575 -1.480656,1.385033 -1.60707,2.161972 -0.130516,0.802185 0.780485,1.757217 0.739401,2.574152 -0.02945,0.586635 -0.881326,1.050283 -0.937059,1.633698 -0.100567,1.053161 0.966986,1.197618 0.969796,2.267501 0.0016,0.61711 -0.903534,0.626619 -1.105908,1.410505 -0.324042,1.255187 -0.02141,3.330912 -0.157562,4.297045 l 0.302215,-0.157834 0.06426,-0.424009 0.01007,-0.727017 0.02877,-0.05037 c -0.08363,-0.872449 0.172464,-1.926581 0.256191,-2.398919 0.122835,-0.692942 1.092101,-1.475541 1.12172,-2.138173 0.01877,-0.420415 -0.857017,-1.064535 -0.801862,-1.445637 0.157874,-1.090974 1.034166,-1.778213 1.090784,-2.648344 0.04571,-0.703233 -1.00637,-1.239163 -0.873598,-1.788155 0.274652,-1.13566 1.761306,-1.338569 1.931644,-2.120969 0.621696,-2.855609 0.407778,-3.64943 1.216606,-3.840965 z"
       style="opacity:1;vector-effect:none;fill:#a05a2c;fill-opacity:1;stroke:none;stroke-width:0.06614583;stroke-linecap:butt;stroke-linejoin:miter;stroke-miterlimit:4;stroke-dasharray:none;stroke-dashoffset:0;stroke-opacity:1" />
    <path
       class="hair"
       inkscape:label="bang6"
       sodipodi:nodetypes="cccc"
       inkscape:connector-curvature="0"
       id="path1668"
       d="m 34.468901,54.146124 c -2.175597,4.041919 -4.166261,2.098957 -2.86166,0.120145 -2.443137,2.376299 0.565025,4.177876 2.555835,1.97695 z"
       style="opacity:1;vector-effect:none;fill:#a05a2c;fill-opacity:1;stroke:none;stroke-width:0.06614583;stroke-linecap:butt;stroke-linejoin:miter;stroke-miterlimit:4;stroke-dasharray:none;stroke-dashoffset:0;stroke-opacity:1" />
    <path
       class="hair"
       inkscape:label="bang9"
       sodipodi:nodetypes="csssccssscc"
       inkscape:connector-curvature="0"
       id="path1670"
       d="m 33.400603,55.650973 c 0,0 1.545958,3.371619 1.499753,5.461556 -0.01855,0.839279 -0.792624,2.1314 -1.03296,2.798563 -0.396506,1.100682 -0.186628,2.249752 0.297771,3.208368 0.230778,0.456705 1.146407,1.020927 1.146407,1.020927 l 0.190947,-0.10825 c 0,0 -0.806897,-0.588101 -1.009682,-1.021901 -0.421815,-0.90235 -0.646553,-1.752748 -0.283983,-2.974696 0.214421,-0.722651 1.169976,-1.996133 1.206722,-2.793079 0.06378,-1.383245 -0.988273,-4.477406 -0.988273,-4.477406 z"
       style="opacity:1;vector-effect:none;fill:#a05a2c;fill-opacity:1;stroke:none;stroke-width:0.06614583;stroke-linecap:butt;stroke-linejoin:miter;stroke-miterlimit:4;stroke-dasharray:none;stroke-dashoffset:0;stroke-opacity:1" />
    <path
       class="hair"
       inkscape:label="bang8"
       sodipodi:nodetypes="cccc"
       inkscape:connector-curvature="0"
       id="path1672"
       d="m 35.140019,55.025795 c -1.497476,0.377401 -1.84501,4.318635 -4.772722,2.703685 1.240681,1.588959 2.946879,0.564323 4.641498,-1.879508 z"
       style="opacity:1;vector-effect:none;fill:#a05a2c;fill-opacity:1;stroke:none;stroke-width:0.08530674;stroke-linecap:butt;stroke-linejoin:miter;stroke-miterlimit:4;stroke-dasharray:none;stroke-dashoffset:0;stroke-opacity:1" />
    <path
       class="hair"
       inkscape:label="bang5"
       sodipodi:nodetypes="cscscc"
       inkscape:connector-curvature="0"
       id="path1674"
       d="m 42.197337,23.94583 c -1.990889,2.373733 -3.896923,2.065767 -5.223524,3.749084 -0.583273,0.740112 -1.065885,2.618327 -1.065885,2.618327 0,0 0.680733,-1.573602 1.281611,-2.154162 1.419284,-1.371294 3.485063,-0.818547 5.18925,-2.850445 z"
       style="opacity:1;vector-effect:none;fill:#a05a2c;fill-opacity:1;stroke:none;stroke-width:0.06614583;stroke-linecap:butt;stroke-linejoin:miter;stroke-miterlimit:4;stroke-dasharray:none;stroke-dashoffset:0;stroke-opacity:1" />
    <path
       class="hair"
       inkscape:label="bang2"
       sodipodi:nodetypes="csssssscssssssscc"
       inkscape:connector-curvature="0"
       id="path1676"
       d="m 79.364431,46.335362 c 0,0 1.638893,3.204573 -0.230809,4.510682 -1.525595,1.065727 0.759555,2.601131 -0.30655,3.60962 -0.563723,0.533257 -1.145713,1.399949 -0.764765,2.068174 0.337346,0.591742 -0.644193,1.032871 -0.477504,1.616334 0.219781,0.769298 0.687046,0.448847 0.760101,1.780832 0.06625,1.207942 -0.569392,1.118887 -0.576907,1.714199 -0.02163,1.713075 1.071252,0.409312 1.071252,0.409312 0,0 -0.507301,1.175529 -1.158492,0.865008 -0.45133,-0.215217 -0.499017,-0.406739 -0.300602,-1.469623 0.06168,-0.330412 0.583802,-0.653238 0.531691,-1.481505 -0.07805,-1.240561 -0.538419,-1.130948 -0.756836,-1.685529 -0.153432,-0.389577 0.678208,-1.517824 0.434067,-1.893415 -0.433622,-0.667093 0.01633,-1.680108 0.687531,-2.149549 0.736644,-0.515217 -1.247928,-2.688621 1.52e-4,-3.492764 1.533041,-0.987744 0.469809,-3.289623 0.469809,-3.289623 z"
       style="opacity:1;vector-effect:none;fill:#a05a2c;fill-opacity:1;stroke:none;stroke-width:0.06614583;stroke-linecap:butt;stroke-linejoin:miter;stroke-miterlimit:4;stroke-dasharray:none;stroke-dashoffset:0;stroke-opacity:1" />
    <path
       inkscape:label="bang1"
       class="hair"
       sodipodi:nodetypes="cccc"
       inkscape:connector-curvature="0"
       id="path1678"
       d="m 76.085216,63.471388 c -0.409776,2.114984 -0.152114,4.302814 2.381077,2.140784 -1.851151,3.304748 -3.478712,1.235858 -3.254866,-0.546117 l 0.87379,-1.529131"
       style="opacity:1;vector-effect:none;fill:#a05a2c;fill-opacity:1;stroke:none;stroke-width:0.06614583;stroke-linecap:butt;stroke-linejoin:miter;stroke-miterlimit:4;stroke-dasharray:none;stroke-dashoffset:0;stroke-opacity:1" />
    <path
       inkscape:label="bang3"
       class="hair"
       sodipodi:nodetypes="cccc"
       inkscape:connector-curvature="0"
       id="path1680"
       d="m 79.395325,45.902859 c 0.369405,1.837166 0.87573,3.27813 2.564128,4.572181 -1.782409,-0.668696 -2.766235,-1.737369 -3.089311,-3.460028 z"
       style="opacity:1;vector-effect:none;fill:#a05a2c;fill-opacity:1;stroke:none;stroke-width:0.06614583;stroke-linecap:butt;stroke-linejoin:miter;stroke-miterlimit:4;stroke-dasharray:none;stroke-dashoffset:0;stroke-opacity:1" />
    <path
       class="hair"
       inkscape:label="bang4"
       sodipodi:nodetypes="ccccc"
       inkscape:connector-curvature="0"
       id="path1682"
       d="M 56.887482,22.533508 C 54.201731,17.77513 43.823661,21.709785 42.291409,24.260087 l 0.08738,1.048547 c 0.556803,-1.437133 10.624321,-8.43447 14.417526,-1.6602 z"
       style="opacity:1;vector-effect:none;fill:#a05a2c;fill-opacity:1;stroke:none;stroke-width:0.06614583;stroke-linecap:butt;stroke-linejoin:miter;stroke-miterlimit:4;stroke-dasharray:none;stroke-dashoffset:0;stroke-opacity:1" />
    <path
       inkscape:label="bang3"
       class="hair"
       sodipodi:nodetypes="csscsscc"
       inkscape:connector-curvature="0"
       id="path1684"
       d="m 74.206344,28.734644 c 0.762495,-0.05869 2.170269,4.85317 3.72807,5.358441 0.70397,0.228335 1.650832,-0.439477 1.909433,-1.132901 0.267459,-0.717184 -0.669352,-3.551609 -2.444142,-1.288895 2.093865,-0.771143 1.991621,0.756214 1.685819,1.204507 -0.186873,0.273942 -0.928943,0.2692 -1.200645,0.07908 -1.347464,-0.94285 -2.902329,-5.008679 -3.165869,-4.721158 z"
       style="opacity:1;vector-effect:none;fill:#a05a2c;fill-opacity:1;stroke:none;stroke-width:0.06614583;stroke-linecap:butt;stroke-linejoin:miter;stroke-miterlimit:4;stroke-dasharray:none;stroke-dashoffset:0;stroke-opacity:1" />
  </g>
  <g
     style="display:none"
     inkscape:label="length"
     id="g1662"
     inkscape:groupmode="layer"
     sodipodi:insensitive="true">
    <path
       class="hair"
       inkscape:label="hairback"
       inkscape:connector-curvature="0"
       id="path1640"
       d="m 49.539612,21.18837 c -0.95685,-0.0099 -1.898941,0.0094 -2.668056,0.223243 -3.457376,0.961168 -5.826606,3.434586 -7.338052,5.36763 -1.501891,1.920833 -2.010878,2.518236 -2.812232,4.413684 -0.655424,1.550284 -2.307265,2.178138 -2.015898,3.865399 0.234244,1.356466 0.03928,3.31312 -0.827339,4.278291 -0.785738,0.875096 0.791708,3.146666 0.670243,4.379061 -0.11597,1.176623 0.02687,2.128789 -0.595313,3.172414 -1.624827,2.725428 0.90709,2.536168 0.853178,4.243495 -0.05101,1.615541 -1.371779,1.633944 -1.393195,3.096852 -0.03106,0.329564 -0.05747,0.451549 0.105876,0.743931 0.0878,0.157163 0.249784,0.277853 0.340941,0.451421 0.942226,1.794057 1.167542,2.800191 1.522242,3.901903 0.198956,0.277606 0.387771,0.531175 0.560174,0.77515 -0.436182,1.008498 -1.088023,1.765477 -2.220021,1.758863 1.548696,0.303711 2.227199,-0.122482 2.69441,-0.997036 0.251185,0.498995 0.330865,0.970135 0.07958,1.489934 -0.213032,0.440695 -1.091925,0.492483 -1.091925,0.492483 0,0 1.118709,0.323226 1.61644,-0.175679 0.643435,-0.644951 0.634489,-1.6028 0.240295,-2.358334 -0.157351,-0.301588 -0.245714,-0.49452 -0.290939,-0.673988 0.348795,-1.008666 0.564095,-1.970454 1.754415,-2.669728 0,0 1.098447,0.801554 0.893241,1.620788 -0.291435,1.1635 -1.524455,1.38836 -1.524455,1.38836 0.729756,0.253687 1.604876,0.321128 2.9068,-0.601554 -0.0026,1.390014 -1.208945,2.658603 -3.12539,2.290896 1.077849,1.138019 2.439045,0.406547 3.801319,-0.334289 -0.142449,1.387657 0.620604,2.139528 3.364134,1.531148 -2.29892,-0.365221 -2.610649,-0.735231 -2.05596,-1.865156 l 0.882634,-1.701831 -0.101107,-0.02577 0.11971,-0.01009 0.04961,-0.09575 c 0.06963,-0.08508 0.143179,-0.167498 0.214458,-0.251445 0.0051,0.978291 0.326544,1.942042 -1.07487,2.579808 1.819129,-0.03166 2.551392,-1.0992 1.934979,-1.959294 -0.152857,-0.155441 -0.07526,-0.229622 0.157603,-0.165832 0.02971,0.07743 -0.156325,0.266839 -0.148092,0.361611 0.04305,0.495928 0.02528,0.323749 -0.124012,0.964757 -0.239048,1.026408 0.617292,0.461119 0.546307,1.245031 l 0.290939,-0.143208 0.03566,-0.344279 -0.03876,-0.5849 0.02532,-0.04204 c -0.141999,-0.696727 0.04274,-1.557863 0.09457,-1.942034 0.07604,-0.563612 0.990582,-1.245058 0.975651,-1.779264 -0.0026,-0.09243 -0.0752,-0.194934 -0.175183,-0.300985 0.0028,-0.209065 -0.02633,-0.453598 0.408244,-0.202322 0.01294,0.01927 0.02426,0.03883 0.03927,0.05745 0.244142,0.302572 -0.761754,1.176286 -0.608322,1.490125 0.218416,0.446765 0.285287,0.446576 0.363339,1.445959 0.05211,0.66724 -0.513762,0.927352 -0.575442,1.19353 -0.198413,0.856234 0.1771,1.168958 0.628428,1.342334 0.65119,0.250154 1.442569,-0.908059 1.442569,-0.908059 0,0 -1.092883,1.050325 -1.071253,-0.329708 0.0075,-0.479577 0.642959,-0.407762 0.57671,-1.380866 -0.07306,-1.07303 -0.234554,-0.86804 -0.454335,-1.487776 -0.166691,-0.470032 0.509008,-0.772275 0.171664,-1.248974 -0.07646,-0.108045 -0.112561,-0.222656 -0.119374,-0.340118 0.07371,-0.600923 0.52071,-0.701163 1.106911,-0.634856 0.0912,0.322835 0.291023,1.05595 0.310575,1.539892 0.01373,0.339662 -0.814572,0.830337 -0.798401,1.230579 0.01617,0.400251 0.586528,1.171052 0.586528,1.171052 0.410594,0.477607 1.254028,0.453965 1.969387,0.578655 0,0 -0.791919,-0.310242 -1.057815,-0.578655 -0.266348,-0.26887 -0.513636,-0.614947 -0.466638,-0.961236 0.047,-0.346288 0.639612,-0.80645 0.686779,-1.153981 0.006,-0.04428 0.01638,-0.10825 0.02326,-0.15653 0.402622,-0.933664 0.816092,-1.802 1.702221,0.120728 l 0.06563,0.0046 c 0.08949,0.402472 0.101843,0.81288 -0.127125,1.051156 -0.347226,0.361345 -1.683617,0.199408 -1.683617,0.199408 0,0 1.565944,0.678104 2.301668,0.447938 0.654127,-0.204639 1.184828,-1.175386 1.376659,-1.565702 l 7.530724,1.840779 c -0.167439,0.197778 -0.372004,0.40504 -0.288872,0.507469 0.218416,0.269119 0.679011,0.216029 0.75706,0.818028 0.05211,0.401928 -0.470072,0.558613 -0.531752,0.718949 -0.198413,0.51578 -0.150571,0.608684 0.300757,0.713121 0.651193,0.150683 1.158068,-0.420046 1.158071,-0.420046 0,0 -1.092882,0.632718 -1.071253,-0.198574 0.0075,-0.288885 0.643475,-0.245597 0.577226,-0.831768 -0.07306,-0.646363 -0.54038,-0.490924 -0.760161,-0.864236 -0.08757,-0.148749 0.140136,-0.278404 0.328662,-0.409639 0.655611,-0.444917 1.105932,-0.06294 1.607138,0.114067 0.031,0.10651 0.0041,0.211359 -0.109038,0.307645 -0.337346,0.287149 0.644179,0.501177 0.477489,0.784306 -0.219777,0.373314 -0.687105,0.217876 -0.760159,0.864238 -0.06625,0.586171 0.569193,0.542883 0.57671,0.831767 0.02162,0.831292 -1.071253,0.198991 -1.071253,0.198991 0,0 0.507394,0.570312 1.158584,0.419629 0.451331,-0.104436 0.499173,-0.197342 0.300757,-0.713119 -0.06168,-0.160339 -0.583861,-0.317022 -0.531749,-0.71895 0.07805,-0.601999 0.538644,-0.548911 0.757057,-0.818028 0.153435,-0.189047 -0.678222,-0.736513 -0.43408,-0.918773 0.08273,-0.06176 0.13254,-0.129675 0.155546,-0.200655 l 0.03411,0.0025 c 0.123793,-0.06649 0.429234,-0.05998 0.468188,0.17443 -0.153715,0.177531 -0.310999,0.353037 -0.236677,0.444609 0.218416,0.269118 0.678492,0.216029 0.756541,0.818028 0.05211,0.401927 -0.469553,0.558612 -0.531233,0.718949 -0.198416,0.515779 -0.151088,0.608683 0.300239,0.71312 0.651192,0.150685 1.158586,-0.41963 1.158586,-0.41963 0,0 -1.092882,0.632718 -1.071253,-0.198574 0.0075,-0.288883 0.642959,-0.245595 0.57671,-0.831765 -0.07305,-0.646363 -0.539861,-0.490925 -0.759643,-0.864239 -0.05403,-0.09178 0.01664,-0.175997 0.119888,-0.258105 0.823111,0.324814 1.937187,-0.619486 2.295308,-0.542181 0.566171,0.122212 0.803346,0.414132 0.639277,0.907405 -0.16138,0.485202 -0.526249,0.612226 -0.896503,0.910499 -0.378444,0.238383 -0.883038,0.01937 -1.218587,-0.414417 -0.151907,0.77861 0.679957,1.226587 1.190719,1.057884 0.472835,-0.229233 0.923457,-0.389239 0.92346,-0.389239 0.157371,0.575192 0.848169,0.854977 1.658294,1.06864 v -4.27e-4 c 0.4864,0.06939 1.090404,0.02855 1.794206,-0.104907 -0.88387,-0.176725 -1.714585,-0.389291 -2.108398,-0.897124 -0.0849,-0.355806 -0.135266,-0.716795 -0.05374,-0.91794 0.185857,-0.458578 1.201656,-1.005133 1.387512,-1.463709 0.140597,-0.346905 0.686493,-2.659509 0.686493,-2.659509 -0.42355,1.467578 0.967899,1.824732 2.749185,1.923429 -0.869418,-0.775648 -1.133113,-1.524564 -0.820621,-2.261337 0.04523,-0.05133 0.09046,-0.09899 0.136424,-0.161523 0.157721,-0.214586 0.313119,-0.469945 0.477491,-0.681067 0.02804,-0.02719 0.05359,-0.05443 0.0832,-0.0816 l -0.02016,0.0025 c 0.398129,-0.472057 0.860727,-0.614178 1.555978,0.76058 0.0063,0.471203 0.05865,1.034909 0.241329,1.519491 -0.822624,0.252725 -1.119709,1.359444 -0.0181,2.206803 -0.51997,-0.750615 -0.329136,-1.487302 0.310576,-1.667696 0.116713,0.150345 0.257059,0.277499 0.426847,0.369675 0.644829,0.350068 1.592297,0.413525 1.981793,-0.128637 0.300998,-0.41905 0.279844,-0.922789 -0.246499,-1.156479 -0.2872,-0.127481 -1.180804,-0.01541 -1.180807,-0.01541 l -0.09767,-1.024095 c 0.02878,-0.001 0.05443,-0.005 0.08423,-0.005 0.255958,-0.480016 -0.484391,-1.194282 -0.57309,-1.959106 -0.0887,-0.764822 0.471976,-0.201213 1.099684,-1.890406 0.302535,-0.814136 -0.993768,-0.923787 -0.557898,-1.341855 0.639616,-0.613495 0.528185,-0.493085 1.533495,-2.119726 0.980405,-1.586343 1.052348,-4.634378 0.483917,-6.566597 -0.523253,-1.159388 -0.756385,-2.157399 -0.651121,-4.057634 0.08039,-1.451266 -0.362574,-2.852711 -1.072803,-4.675682 -0.458407,-1.176607 -0.270796,-2.522043 -0.850593,-3.717602 -1.167466,-2.407436 -3.51908,-4.633621 -6.998542,-6.64249 -4.599847,-2.655723 -10.656448,-1.921596 -11.876794,-0.701249 -0.820401,-0.8204 -3.608464,-1.299586 -6.391857,-1.331702 -0.316296,-0.0036 -0.637063,-0.01014 -0.956013,-0.01343 z m 26.845054,23.500545 c 0.780209,0.774792 1.361133,3.242623 -0.880049,4.792184 1.462733,-1.797356 1.022292,-3.103407 0.880049,-4.792184 z M 34.947755,44.480358 c 0,0 1.469287,1.172583 0.524515,3.538802 -0.34767,0.870757 0.74259,2.841311 0.74259,2.841311 0,0 -1.17934,-1.307198 -1.310513,-2.076501 -0.101052,-0.592649 0.0305,-1.562709 0.436666,-2.184363 0.291695,-0.446453 -0.393258,-2.119249 -0.393258,-2.119249 z m 1.329806,9.225714 c -0.05259,1.614447 0.112697,2.991623 0.276468,4.396951 -0.02291,0.09621 -0.04433,0.18971 -0.06821,0.286416 -0.906153,-1.257465 -1.236575,-3.132988 -0.208256,-4.683367 z m 40.565108,3.972637 c 0.187926,-0.0042 0.401587,0.0064 0.504881,0.06536 0.02953,0.0168 0.05009,0.03777 0.05839,0.06328 0.04739,0.145467 -0.370816,0.285996 -0.58756,0.347195 -0.08834,0.02123 -0.257274,-0.01225 -0.27182,-0.105325 L 76.4923,57.702022 c 0,0 0.162441,-0.01914 0.350364,-0.02331 z"
       style="opacity:1;vector-effect:none;fill:#ff6600;fill-opacity:1;stroke:none;stroke-width:0.06614583;stroke-linecap:butt;stroke-linejoin:miter;stroke-miterlimit:4;stroke-dasharray:none;stroke-dashoffset:0;stroke-opacity:1"
       sodipodi:nodetypes="ccccscccccssccccccssccccccccccccccccccccccccccccccccccccccccccccscccccccscccscccccccccccccsccccccccsscccccccccccccccccsccccccccccccccccccsssccscsccccccccccscccccccccccsccc" />
    <path
       class="hair"
       inkscape:label="bang7"
       sodipodi:nodetypes="cscccccccccccccccccc"
       inkscape:connector-curvature="0"
       id="path1642"
       d="m 34.302816,38.67981 c -0.988843,1.841362 0.392869,4.089098 -0.64389,6.295739 -0.333375,0.709555 -1.384337,1.481307 -1.458309,2.264979 -0.07637,0.809138 0.896689,1.700858 0.910539,2.518709 0.01,0.587288 -0.808831,1.107078 -0.825272,1.692918 -0.02964,1.057537 1.045202,1.130001 1.119828,2.197282 0.04305,0.615609 -0.85943,0.685861 -1.008724,1.481564 -0.239049,1.274109 0.202245,3.324836 0.13126,4.297929 l 0.290938,-0.177766 0.03565,-0.427366 -0.03876,-0.726053 0.02532,-0.05219 c -0.14201,-0.864867 0.04274,-1.933813 0.09457,-2.410706 0.07604,-0.699625 0.990582,-1.545527 0.975651,-2.208652 -0.0095,-0.420727 -0.926547,-1.004601 -0.897101,-1.388546 0.08428,-1.099111 0.91246,-1.843627 0.910537,-2.715596 -0.0016,-0.704715 -1.087287,-1.168808 -0.991669,-1.725475 0.197794,-1.151536 1.667473,-1.453788 1.784903,-2.245858 0.428593,-2.890903 0.161867,-3.668572 0.956013,-3.913973 z"
       style="opacity:1;vector-effect:none;fill:#000000;fill-opacity:1;stroke:none;stroke-width:0.06614583;stroke-linecap:butt;stroke-linejoin:miter;stroke-miterlimit:4;stroke-dasharray:none;stroke-dashoffset:0;stroke-opacity:1" />
    <path
       class="hair"
       inkscape:label="bang6"
       sodipodi:nodetypes="cccc"
       inkscape:connector-curvature="0"
       id="path1644"
       d="m 35.825366,37.148481 c -2.175597,4.041919 -4.166261,2.098957 -2.86166,0.120145 -2.443137,2.376299 0.565025,4.177876 2.555835,1.97695 z"
       style="opacity:1;vector-effect:none;fill:#000000;fill-opacity:1;stroke:none;stroke-width:0.06614583;stroke-linecap:butt;stroke-linejoin:miter;stroke-miterlimit:4;stroke-dasharray:none;stroke-dashoffset:0;stroke-opacity:1" />
    <path
       class="hair"
       inkscape:label="bang9"
       sodipodi:nodetypes="csssccssscc"
       inkscape:connector-curvature="0"
       id="path1646"
       d="m 33.400603,55.650973 c 0,0 1.545958,3.371619 1.499753,5.461556 -0.01855,0.839279 -0.792624,2.1314 -1.03296,2.798563 -0.396506,1.100682 -0.186628,2.249752 0.297771,3.208368 0.230778,0.456705 1.146407,1.020927 1.146407,1.020927 l 0.190947,-0.10825 c 0,0 -0.806897,-0.588101 -1.009682,-1.021901 -0.421815,-0.90235 -0.646553,-1.752748 -0.283983,-2.974696 0.214421,-0.722651 1.169976,-1.996133 1.206722,-2.793079 0.06378,-1.383245 -0.988273,-4.477406 -0.988273,-4.477406 z"
       style="opacity:1;vector-effect:none;fill:#000000;fill-opacity:1;stroke:none;stroke-width:0.06614583;stroke-linecap:butt;stroke-linejoin:miter;stroke-miterlimit:4;stroke-dasharray:none;stroke-dashoffset:0;stroke-opacity:1" />
    <path
       class="hair"
       inkscape:label="bang8"
       sodipodi:nodetypes="cccc"
       inkscape:connector-curvature="0"
       id="path1648"
       d="m 33.575085,55.650973 c -0.578869,1.431704 2.398117,4.037785 -0.633222,5.448653 2.014936,-0.06414 2.1944,-2.046256 1.221213,-4.856407 z"
       style="opacity:1;vector-effect:none;fill:#000000;fill-opacity:1;stroke:none;stroke-width:0.08530674;stroke-linecap:butt;stroke-linejoin:miter;stroke-miterlimit:4;stroke-dasharray:none;stroke-dashoffset:0;stroke-opacity:1" />
    <path
       class="hair"
       inkscape:label="bang5"
       sodipodi:nodetypes="cscscc"
       inkscape:connector-curvature="0"
       id="path1650"
       d="m 38.665184,27.973692 c -1.549052,2.683037 -3.479613,2.710295 -4.494179,4.598172 -0.446079,0.830052 -0.595645,2.763504 -0.595645,2.763504 0,0 0.397513,-1.667814 0.888601,-2.343785 1.159958,-1.596657 3.290295,-1.410547 4.616272,-3.707207 z"
       style="opacity:1;vector-effect:none;fill:#000000;fill-opacity:1;stroke:none;stroke-width:0.06614583;stroke-linecap:butt;stroke-linejoin:miter;stroke-miterlimit:4;stroke-dasharray:none;stroke-dashoffset:0;stroke-opacity:1" />
    <path
       class="hair"
       inkscape:label="bang2"
       sodipodi:nodetypes="csssssscssssssscc"
       inkscape:connector-curvature="0"
       id="path1652"
       d="m 78.676723,43.536928 c 0,0 1.724656,3.159243 -0.10917,4.515263 -1.496321,1.106453 0.829376,2.579718 -0.209165,3.61657 -0.549148,0.548255 -1.10757,1.430316 -0.708753,2.088033 0.35317,0.582436 -0.616125,1.049855 -0.433773,1.628614 0.240432,0.763096 0.698892,0.43017 0.807815,1.759702 0.09878,1.205718 -0.539033,1.133825 -0.530502,1.729123 0.02454,1.713036 1.081893,0.380295 1.081893,0.380295 0,0 -0.475438,1.188773 -1.134761,0.895914 -0.456965,-0.202977 -0.509796,-0.393144 -0.340096,-1.460989 0.05275,-0.331954 0.565986,-0.668733 0.491573,-1.495295 -0.111453,-1.238007 -0.5687,-1.116028 -0.801983,-1.664521 -0.163875,-0.385301 0.637059,-1.53555 0.382885,-1.904425 -0.451442,-0.655166 -0.02895,-1.679938 0.629354,-2.167296 0.722492,-0.534882 -1.319929,-2.654015 -0.09397,-3.4915 1.505867,-1.028698 0.380989,-3.301089 0.380989,-3.301089 z"
       style="opacity:1;vector-effect:none;fill:#000000;fill-opacity:1;stroke:none;stroke-width:0.06614583;stroke-linecap:butt;stroke-linejoin:miter;stroke-miterlimit:4;stroke-dasharray:none;stroke-dashoffset:0;stroke-opacity:1" />
    <path
       inkscape:label="bang1"
       class="hair"
       sodipodi:nodetypes="cccc"
       inkscape:connector-curvature="0"
       id="path1654"
       d="m 70.054471,58.59777 c -0.409776,2.114984 -0.152114,4.302814 2.381077,2.140784 -1.851151,3.304748 -3.478712,1.235858 -3.254866,-0.546117 l 0.87379,-1.529131"
       style="opacity:1;vector-effect:none;fill:#000000;fill-opacity:1;stroke:none;stroke-width:0.06614583;stroke-linecap:butt;stroke-linejoin:miter;stroke-miterlimit:4;stroke-dasharray:none;stroke-dashoffset:0;stroke-opacity:1" />
    <path
       inkscape:label="bang3"
       class="hair"
       sodipodi:nodetypes="cccc"
       inkscape:connector-curvature="0"
       id="path1656"
       d="m 77.572631,36.851174 c 0.369405,1.837166 0.87573,3.27813 2.564128,4.572181 -1.782409,-0.668696 -2.766235,-1.737369 -3.089311,-3.460028 z"
       style="opacity:1;vector-effect:none;fill:#000000;fill-opacity:1;stroke:none;stroke-width:0.06614583;stroke-linecap:butt;stroke-linejoin:miter;stroke-miterlimit:4;stroke-dasharray:none;stroke-dashoffset:0;stroke-opacity:1" />
    <path
       class="hair"
       inkscape:label="bang4"
       sodipodi:nodetypes="ccccc"
       inkscape:connector-curvature="0"
       id="path1658"
       d="M 56.887482,22.533508 C 54.201731,17.77513 43.823661,21.709785 42.291409,24.260087 l 0.08738,1.048547 c 0.556803,-1.437133 10.624321,-8.43447 14.417526,-1.6602 z"
       style="opacity:1;vector-effect:none;fill:#000000;fill-opacity:1;stroke:none;stroke-width:0.06614583;stroke-linecap:butt;stroke-linejoin:miter;stroke-miterlimit:4;stroke-dasharray:none;stroke-dashoffset:0;stroke-opacity:1" />
    <path
       inkscape:label="bang3"
       class="hair"
       sodipodi:nodetypes="csscsscc"
       inkscape:connector-curvature="0"
       id="path1660"
       d="m 65.833243,22.825696 c 0.563739,-0.516761 4.702846,2.479228 6.240412,1.915374 0.694827,-0.254806 1.027702,-1.36463 0.803221,-2.069839 -0.232173,-0.729371 -2.718595,-2.381427 -2.718595,0.49429 1.171604,-1.89902 2.033784,-0.634142 2.069839,-0.09268 0.02203,0.330879 -0.564783,0.785127 -0.8959,0.803222 -1.642124,0.08974 -5.37483,-2.149786 -5.404744,-1.760908 z"
       style="opacity:1;vector-effect:none;fill:#000000;fill-opacity:1;stroke:none;stroke-width:0.06614583;stroke-linecap:butt;stroke-linejoin:miter;stroke-miterlimit:4;stroke-dasharray:none;stroke-dashoffset:0;stroke-opacity:1" />
  </g>
  <g
     inkscape:groupmode="layer"
     id="layer4"
     inkscape:label="ignore"
     style="display:inline"
     sodipodi:insensitive="true">
    <g
       inkscape:label="bg"
       inkscape:groupmode="layer"
       id="layer1"
       style="display:inline">
      <path
         style="opacity:1;vector-effect:none;fill:#fff6d5;fill-opacity:1;stroke:#000000;stroke-width:0.1;stroke-linecap:round;stroke-linejoin:round;stroke-miterlimit:4;stroke-dasharray:none;stroke-dashoffset:0;stroke-opacity:1"
         d="m 235.83203,229.4043 c -1.6728,0.46339 -3.3024,0.85916 -4.85937,1.17578 -2.55787,2.08659 -10.17503,3.59955 -19.17578,3.59961 -9.00077,-6e-5 -16.61792,-1.51302 -19.17579,-3.59961 -1.55625,-0.31648 -3.18544,-0.71072 -4.85742,-1.17383 v 19.65039 c -37.73053,4.53056 -63.99077,19.86474 -64.04297,37.39648 0.0166,0.39799 0.0452,0.7958 0.0899,1.19336 h -0.0899 v 125.35743 h 80.49219 7.58399 7.58398 80.49219 V 287.64648 h -0.0898 c 0.0446,-0.39756 0.0713,-0.79537 0.0898,-1.19336 -0.0522,-17.53174 -26.3105,-32.86592 -64.04102,-37.39648 z"
         transform="scale(0.26458333)"
         id="rect23540"
         inkscape:connector-curvature="0" />
      <path
         style="opacity:1;vector-effect:none;fill:#fff6d5;fill-opacity:1;stroke:#000000;stroke-width:1;stroke-linecap:round;stroke-linejoin:round;stroke-miterlimit:4;stroke-dasharray:none;stroke-dashoffset:0;stroke-opacity:1"
         d="m 202.32812,86.9375 c -15.79511,0 -57.01953,12.335362 -57.01953,50.80664 v 10.58398 c -3.559,0.0833 -6.42026,3.017 -6.41992,9.00391 3.5e-4,5.98613 2.86137,12.7695 6.41992,12.96485 v 10.59179 c 0,31.8402 28.62946,45.89206 47.3125,49.69141 2.55787,2.08659 10.17502,3.59955 19.17579,3.59961 9.00076,-6e-5 16.61791,-1.51302 19.17578,-3.59961 18.68304,-3.79935 47.3125,-17.85121 47.3125,-49.69141 v -10.59179 c 3.55876,-0.19481 6.42152,-6.97847 6.42187,-12.96485 3.5e-4,-5.98716 -2.86266,-8.9208 -6.42187,-9.00391 v -10.58398 c 0,-38.471278 -41.22246,-50.80664 -57.01758,-50.80664 h -9.4707 z"
         transform="scale(0.26458333)"
         id="rect23538"
         inkscape:connector-curvature="0" />
      <path
         inkscape:connector-curvature="0"
         style="opacity:1;vector-effect:none;fill:#ffffff;fill-opacity:1;stroke:none;stroke-width:0.07357386;stroke-linecap:round;stroke-linejoin:round;stroke-miterlimit:4;stroke-dasharray:none;stroke-dashoffset:0;stroke-opacity:1"
         d="M 0.47805685,0.47804646 V 111.59788 H 111.59789 V 0.47804646 Z M 56.037975,2.7678295 A 53.270417,53.270417 0 0 1 109.30863,56.037972 53.270417,53.270417 0 0 1 56.037975,109.30862 53.270417,53.270417 0 0 1 2.7678399,56.037972 53.270417,53.270417 0 0 1 56.037975,2.7678295 Z"
         id="rect855"
         inkscape:label="frame" />
    </g>
    <g
       style="display:inline"
       id="g2778"
       inkscape:groupmode="layer"
       inkscape:label="_ear_size">
      <path
         sodipodi:nodetypes="csssc"
         inkscape:label="ear_left"
         id="path2774"
         d="m 38.334661,38.854136 c -0.349442,-0.222897 -0.713749,-0.351469 -1.058139,-0.351542 -1.299026,-2.77e-4 -2.352284,1.231722 -2.352159,3.054574 1.27e-4,1.822603 1.053312,4.245964 2.352159,4.245687 0.361348,-7.7e-5 0.744637,-0.141627 1.109678,-0.385173"
         style="opacity:1;vector-effect:none;fill:none;fill-opacity:1;stroke:#000000;stroke-width:0.13229167;stroke-linecap:round;stroke-linejoin:round;stroke-miterlimit:4;stroke-dasharray:none;stroke-dashoffset:0;stroke-opacity:1"
         inkscape:connector-curvature="0" />
      <path
         inkscape:connector-curvature="0"
         style="opacity:1;vector-effect:none;fill:none;fill-opacity:1;stroke:#000000;stroke-width:0.13229167;stroke-linecap:round;stroke-linejoin:round;stroke-miterlimit:4;stroke-dasharray:none;stroke-dashoffset:0;stroke-opacity:1"
         d="m 73.563785,38.97637 c 0.401969,-0.297488 0.832449,-0.47369 1.235632,-0.473776 1.299026,-2.77e-4 2.352284,1.231722 2.352159,3.054574 -1.27e-4,1.822603 -1.053312,4.245964 -2.352159,4.245687 -0.396324,-8.5e-5 -0.819042,-0.170355 -1.21513,-0.458724"
         id="path2776"
         inkscape:label="ear_right"
         sodipodi:nodetypes="csssc" />
    </g>
    <g
       inkscape:groupmode="layer"
       id="layer2"
       inkscape:label="_cheek_low"
       style="display:inline">
      <path
         style="opacity:1;vector-effect:none;fill:none;fill-opacity:1;stroke:#000000;stroke-width:0.5;stroke-linecap:round;stroke-linejoin:round;stroke-miterlimit:4;stroke-dasharray:none;stroke-dashoffset:0;stroke-opacity:1"
         d="m 202.32812,86.9375 c -15.7951,0 -57.01953,12.335363 -57.01953,50.80664 0,5.46031 0.2884,10.20841 0.77539,14.41016 -0.2651,0.007 -0.52928,0.0304 -0.79101,0.0898 -3.5418,0.80423 -5.7631,4.32211 -4.41602,10.24609 1.3469,5.92317 5.75012,12.00709 9.29102,11.20118 0.42589,-0.0969 0.82473,-0.26411 1.19726,-0.48829 2.50227,6.12174 5.18386,10.67648 6.7793,15.9004 9.15599,29.97926 25.51723,38.89898 38.0957,41.51953 3.04539,1.73563 8.86645,2.91208 15.55665,2.91211 6.69018,-3e-5 12.51125,-1.17648 15.55664,-2.91211 12.57903,-2.62055 28.94168,-11.54027 38.09765,-41.51953 1.58467,-5.18862 4.24316,-9.71213 6.73047,-15.77149 0.30073,0.15457 0.61228,0.28358 0.94531,0.35938 3.5409,0.80591 7.94412,-5.27801 9.29102,-11.20118 1.34708,-5.92398 -0.87422,-9.44186 -4.41602,-10.24609 -0.16376,-0.0372 -0.32887,-0.054 -0.49414,-0.0703 0.48828,-4.2065 0.77735,-8.96098 0.77735,-14.42969 0,-38.471277 -41.22244,-50.80664 -57.01758,-50.80664 h -9.4707 z"
         transform="scale(0.26458333)"
         id="rect23538-3"
         inkscape:connector-curvature="0" />
    </g>
    <g
       inkscape:groupmode="layer"
       id="layer3"
       inkscape:label="_cheek_high"
       style="display:inline">
      <path
         style="opacity:1;vector-effect:none;fill:none;fill-opacity:1;stroke:#000000;stroke-width:0.5;stroke-linecap:round;stroke-linejoin:round;stroke-miterlimit:4;stroke-dasharray:none;stroke-dashoffset:0;stroke-opacity:1"
         d="m 202.32812,86.9375 c -15.7951,0 -57.01953,12.335363 -57.01953,50.80664 0,1.38786 0.11165,4.68722 -0.16211,9.0293 -3.14184,-0.50671 -6.34888,1.50167 -8.08789,6.70508 -1.92541,5.76115 -1.32333,13.24608 2.1211,14.39648 0.46979,0.1569 0.95798,0.2169 1.45312,0.19922 -0.28148,0.70751 -0.56688,1.41501 -0.88281,2.11914 -15.10484,33.66545 7.0226,55.14848 44.32422,60.29297 2.25899,3.26438 18.0103,5.26168 27.72266,5.26172 9.68698,-4e-5 24.26231,-2.25274 27.63867,-5.25 37.35387,-5.1232 59.52471,-26.61325 44.4082,-60.30469 -0.31619,-0.70473 -0.60308,-1.41298 -0.88477,-2.12109 0.49587,0.0179 0.98463,-0.0401 1.45508,-0.19727 3.44443,-1.1504 4.04651,-8.63533 2.1211,-14.39648 -1.73917,-5.20388 -4.94577,-7.2123 -8.08789,-6.70508 -0.27376,-4.34217 -0.16211,-7.64144 -0.16211,-9.0293 0,-38.471277 -41.22248,-50.80664 -57.01758,-50.80664 h -9.4707 z"
         transform="scale(0.26458333)"
         id="rect23538-6"
         inkscape:connector-curvature="0" />
    </g>
    <g
       style="display:inline"
       id="g2830"
       inkscape:groupmode="layer"
       inkscape:label="_chin">
      <path
         inkscape:label="chin"
         inkscape:connector-curvature="0"
         sodipodi:nodetypes="ccc"
         id="path2822"
         d="m 50.721419,60.269043 c -3e-6,1.02472 2.876644,3.793327 5.31654,2.384653 2.56882,1.483109 5.316538,-1.359933 5.316535,-2.384653"
         style="opacity:1;vector-effect:none;fill:none;fill-opacity:1;stroke:#000000;stroke-width:0.13229167;stroke-linecap:round;stroke-linejoin:round;stroke-miterlimit:4;stroke-dasharray:none;stroke-dashoffset:0;stroke-opacity:1" />
      <path
         inkscape:label="frame"
         id="path2824"
         d="M 0.47805685,0.47804646 V 111.59788 H 111.59789 V 0.47804646 Z M 56.037975,2.7678295 A 53.270417,53.270417 0 0 1 109.30863,56.037972 53.270417,53.270417 0 0 1 56.037975,109.30862 53.270417,53.270417 0 0 1 2.7678399,56.037972 53.270417,53.270417 0 0 1 56.037975,2.7678295 Z"
         style="opacity:1;vector-effect:none;fill:#000000;fill-opacity:1;stroke:none;stroke-width:0.07357386;stroke-linecap:round;stroke-linejoin:round;stroke-miterlimit:4;stroke-dasharray:none;stroke-dashoffset:0;stroke-opacity:1"
         inkscape:connector-curvature="0" />
    </g>
    <g
       inkscape:groupmode="layer"
       id="layer5"
       inkscape:label="front"
       style="display:inline"
       sodipodi:insensitive="true">
      <path
         style="opacity:1;vector-effect:none;fill:#a05a2c;fill-opacity:1;stroke:none;stroke-width:0.06614583;stroke-linecap:butt;stroke-linejoin:miter;stroke-miterlimit:4;stroke-dasharray:none;stroke-dashoffset:0;stroke-opacity:1"
         d="m 53.533166,22.564514 c -2.20332,0 -6.01236,0.830864 -9.34775,2.974495 -3.33539,2.143633 -6.177399,5.660808 -6.177402,10.90631 v 1.877923 l 0.395325,0.510564 c 6.952745,-8.577813 16.199776,-5.885628 21.001302,-8.994802 -0.06102,3.547306 2.835952,7.617534 6.307627,6.986654 2.484686,1.299689 5.382368,1.858539 7.711672,3.437001 l 0.848527,-1.284161 c -0.06835,-0.02267 -0.136146,-0.04728 -0.206187,-0.0646 v -2.468584 c 0,-5.245473 -2.842495,-8.762666 -6.177402,-10.90631 -3.334906,-2.143642 -7.14236,-2.974495 -9.345683,-2.974495 h -2.506306 z m 6.953581,6.387207 c 0.466601,3.127354 1.594842,5.067123 3.063896,6.395993 -2.087827,-1.129599 -3.069169,-3.915474 -3.128491,-6.32778 0.02202,-0.02206 0.04286,-0.04573 0.0646,-0.06821 z"
         id="path1470"
         inkscape:connector-curvature="0"
         class="hair"
         inkscape:label="hair" />
      <path
         style="opacity:1;vector-effect:none;fill:#a05a2c;fill-opacity:1;stroke:none;stroke-width:0.06614583;stroke-linecap:butt;stroke-linejoin:miter;stroke-miterlimit:4;stroke-dasharray:none;stroke-dashoffset:0;stroke-opacity:1"
         d="m 61.370773,25.609995 c 0,0 2.323635,4.521504 -11.328224,8.316929 -3.686978,1.025035 -1.388757,2.75896 -1.388757,2.75896 0,0 -4.384722,-1.580761 2.848695,-4.134561 6.339346,-2.238143 7.298063,-7.26719 7.298063,-7.26719 z"
         id="path1474"
         inkscape:connector-curvature="0"
         sodipodi:nodetypes="cscscc"
         inkscape:label="bang3"
         class="hair" />
      <path
         style="opacity:1;vector-effect:none;fill:#a05a2c;fill-opacity:1;stroke:none;stroke-width:0.06614583;stroke-linecap:butt;stroke-linejoin:miter;stroke-miterlimit:4;stroke-dasharray:none;stroke-dashoffset:0;stroke-opacity:1"
         d="m 51.763765,30.169733 c -0.414332,-0.0046 -0.85816,0.02321 -1.319299,0.07545 0.609316,0.09102 1.107305,0.284226 1.442288,0.590661 -7.920516,1.811806 -7.555124,5.629582 -11.400337,6.112806 -0.39742,0.04994 -0.987766,-0.222448 -1.396296,-0.447003 -0.190596,0.294844 -0.36194,0.595876 -0.504362,0.905373 0,0 1.434835,0.964253 2.224153,0.865063 4.605504,-0.578768 4.167868,-5.151475 13.654463,-7.321516 -0.567788,-0.519403 -1.524899,-0.76767 -2.70061,-0.780834 z"
         id="path1476"
         inkscape:connector-curvature="0"
         inkscape:label="bang1"
         class="hair" />
      <path
         style="opacity:1;vector-effect:none;fill:#a05a2c;fill-opacity:1;stroke:none;stroke-width:0.06614583;stroke-linecap:butt;stroke-linejoin:miter;stroke-miterlimit:4;stroke-dasharray:none;stroke-dashoffset:0;stroke-opacity:1"
         d="m 44.795028,34.379724 c 0,0 -1.782436,3.553257 -0.617863,3.985213 3.058012,1.134259 2.502344,-1.97716 2.502344,-1.97716 0,0 -1.079706,1.93914 -1.915374,1.204832 -1.087448,-0.955549 3.089312,-4.633968 3.089312,-4.633968 z"
         id="path1482"
         inkscape:connector-curvature="0"
         sodipodi:nodetypes="cscscc"
         inkscape:label="bang2"
         class="hair" />
      <path
         style="opacity:1;vector-effect:none;fill:#a05a2c;fill-opacity:1;stroke:none;stroke-width:0.06614583;stroke-linecap:butt;stroke-linejoin:miter;stroke-miterlimit:4;stroke-dasharray:none;stroke-dashoffset:0;stroke-opacity:1"
         d="m 65.228382,35.007696 c 0,0 3.457414,2.885204 2.555836,4.28157 -0.520792,0.806601 -2.480819,0.553685 -2.861661,-0.327671 -0.482447,-1.116491 0.709954,-1.463598 0.709954,-1.463598 0,0 -0.451516,0.524543 -0.05461,1.092237 0.146031,0.208868 0.64834,0.226811 0.764566,10e-7 0.670921,-1.309275 -2.577679,-3.582537 -2.577679,-3.582537 z"
         id="path1484"
         inkscape:connector-curvature="0"
         sodipodi:nodetypes="csscsscc"
         inkscape:label="bang4"
         class="hair" />
      <path
         style="opacity:1;vector-effect:none;fill:#a05a2c;fill-opacity:1;stroke:none;stroke-width:0.06614583;stroke-linecap:butt;stroke-linejoin:miter;stroke-miterlimit:4;stroke-dasharray:none;stroke-dashoffset:0;stroke-opacity:1"
         d="m 73.42394,40.262659 c -0.611233,1.582515 -2.072758,1.822464 -3.78292,1.669828 2.057689,-0.741376 3.067018,-2.019122 2.621368,-4.041276 z"
         id="path1492"
         inkscape:connector-curvature="0"
         sodipodi:nodetypes="cccc"
         inkscape:label="bang5"
         class="hair" />
    </g>
  </g>
</svg>
