<?xml version="1.0" encoding="UTF-8" standalone="no"?>
<!-- Created with Inkscape (http://www.inkscape.org/) -->

<svg
   xmlns:dc="http://purl.org/dc/elements/1.1/"
   xmlns:cc="http://creativecommons.org/ns#"
   xmlns:rdf="http://www.w3.org/1999/02/22-rdf-syntax-ns#"
   xmlns:svg="http://www.w3.org/2000/svg"
   xmlns="http://www.w3.org/2000/svg"
   xmlns:sodipodi="http://sodipodi.sourceforge.net/DTD/sodipodi-0.dtd"
   xmlns:inkscape="http://www.inkscape.org/namespaces/inkscape"
   width="112.07594mm"
   height="112.07593mm"
   viewBox="0 0 112.07594 112.07593"
   version="1.1"
   id="svg19053"
   sodipodi:docname="bhair_3.svg"
   inkscape:version="0.92.2 (unknown)">
  <sodipodi:namedview
     pagecolor="#ffffff"
     bordercolor="#666666"
     borderopacity="1"
     objecttolerance="10"
     gridtolerance="10"
     guidetolerance="10"
     inkscape:pageopacity="0"
     inkscape:pageshadow="2"
     inkscape:window-width="1920"
     inkscape:window-height="1023"
     id="namedview29025"
     showgrid="false"
     inkscape:zoom="1.2606254"
     inkscape:cx="44.786915"
     inkscape:cy="336.11812"
     inkscape:window-x="0"
     inkscape:window-y="27"
     inkscape:window-maximized="1"
     inkscape:current-layer="g929" />
  <defs
     id="defs19047" />
  <metadata
     id="metadata19050">
    <rdf:RDF>
      <cc:Work
         rdf:about="">
        <dc:format>image/svg+xml</dc:format>
        <dc:type
           rdf:resource="http://purl.org/dc/dcmitype/StillImage" />
        <dc:title></dc:title>
      </cc:Work>
    </rdf:RDF>
  </metadata>
  <g
     inkscape:groupmode="layer"
     id="layer5"
     inkscape:label="default"
     style="display:none"
     sodipodi:insensitive="true">
    <path
       style="fill:#000000;stroke:none;stroke-width:0.26458332px;stroke-linecap:butt;stroke-linejoin:miter;stroke-opacity:1"
       d="m 59.453218,19.468062 c -4.360447,-0.05803 -7.772876,1.603602 -7.851716,2.273763 -3.948671,-1.543105 -16.947296,0.119896 -17.869194,13.169739 -1.003218,14.200923 9.188585,26.267648 9.188585,26.267648 0.06816,-0.442074 0.03241,-0.925574 0.147796,-1.348756 l 0.749308,1.303795 -0.164848,-2.036051 c 0.19464,0.06261 0.376271,0.134687 0.546737,0.214974 l 0.953429,2.60036 0.192238,-1.811261 c 0.711708,0.677825 1.180994,1.532779 1.720824,2.336292 L 48.168118,58.2936 c 1.276887,1.185447 0.817189,2.756799 0.944647,4.197675 1.457184,-1.328748 3.057628,-2.603545 3.253031,-4.407482 1.344125,2.137278 1.626552,4.329256 2.203481,6.506062 0.281033,-2.739644 0.786204,-5.43451 1.764753,-8.034652 1.815081,10.728729 2.508051,-6.210239 5.020362,3.713985 l 1.79369,2.86856 1.002006,-3.487643 1.187009,2.931086 c 0.05657,-0.898845 -0.03778,-1.827874 0.482658,-2.633945 0.604017,0.43262 1.235771,0.843174 1.298628,1.706353 0.345379,-0.942438 0.463915,-1.930244 1.261422,-2.782258 0.07263,0.04921 0.138959,0.103775 0.20257,0.160714 l 0.05685,2.287717 0.559654,-1.354442 c 0.216488,0.539157 0.326602,1.169736 0.427882,1.807644 0,0 16.027987,-18.724015 1.943034,-36.273756 -3.683905,-4.590117 -8.269121,-5.97995 -12.116573,-6.031156 z"
       id="path893"
       inkscape:connector-curvature="0"
       inkscape:label="hair"
       class="hair" />
    <path
       style="fill:#000000;stroke:none;stroke-width:0.26458332px;stroke-linecap:butt;stroke-linejoin:miter;stroke-opacity:1"
       d="m 34.839106,31.638031 c -1.296182,3.391331 -2.630947,10.678856 1.409889,20.999928 -0.144336,-6.938138 -2.841337,-12.614798 -0.371022,-18.66248 z"
       id="path895"
       inkscape:connector-curvature="0"
       sodipodi:nodetypes="cccc"
       inkscape:label="bit"
       class="hair" />
  </g>
  <g
     style="display:inline"
     inkscape:label="lenght"
     id="g929"
     inkscape:groupmode="layer">
    <path
       class="hair"
       inkscape:label="hair"
       inkscape:connector-curvature="0"
       id="path925"
       d="m 59.453218,19.468062 c -4.360447,-0.05803 -7.772876,1.603602 -7.851716,2.273763 -3.948671,-1.543105 -16.947296,0.119896 -17.869194,13.169739 -1.003218,14.200923 5.47835,22.223492 5.47835,22.223492 0.06816,-0.442074 -0.190204,-0.665858 -0.07482,-1.08904 l 2.456016,6.869148 0.391687,-1.108492 c 0.19464,0.06261 0.487578,3.251284 0.658044,3.331571 l 0.508201,-0.887261 1.119797,3.160454 c 0.711708,0.677825 2.739293,-0.804669 3.279123,-0.0012 l 1.435662,0.0847 c 1.276887,1.185447 2.189976,-1.213153 2.317434,0.227723 1.457184,-1.328748 2.538195,0.216234 2.733598,-1.587703 1.344125,2.137278 -0.04305,-3.721954 0.533875,-1.545148 0.281033,-2.739644 0.786204,-5.43451 1.764753,-8.034652 1.815081,10.728729 0.690036,1.136026 3.202347,11.06025 l 2.42443,-0.804572 2.523202,0.408104 3.968979,0.486832 c 0.05657,-0.898845 0.483585,0.497747 0.243198,-1.056031 0.09243,0.235855 -0.210834,-2.868539 -0.09551,-2.700596 0.0699,-0.207848 0.424562,1.034348 0.539951,0.903805 0.07263,0.04921 0.611186,-3.923347 0.674799,-3.866408 l 0.67338,2.077834 0.297306,-4.319034 c 0.177135,0.09316 0.379072,1.051679 0.532823,1.243584 0,0 14.335808,-16.940013 0.250855,-34.489754 -3.683905,-4.590117 -8.269121,-5.97995 -12.116573,-6.031156 z"
       style="fill:#000000;stroke:none;stroke-width:0.26458332px;stroke-linecap:butt;stroke-linejoin:miter;stroke-opacity:1"
       sodipodi:nodetypes="ccsccccccccccccccccccccccccscc" />
    <path
       class="hair"
       inkscape:label="bit"
       sodipodi:nodetypes="cccc"
       inkscape:connector-curvature="0"
       id="path927"
       d="m 34.839106,31.638031 c -1.296182,3.391331 -2.630947,10.678856 1.409889,20.999928 -0.144336,-6.938138 -2.841337,-12.614798 -0.371022,-18.66248 z"
       style="fill:#000000;stroke:none;stroke-width:0.26458332px;stroke-linecap:butt;stroke-linejoin:miter;stroke-opacity:1" />
  </g>
  <g
     inkscape:groupmode="layer"
     id="layer4"
     inkscape:label="ignore"
     style="display:inline"
     sodipodi:insensitive="true">
    <g
       inkscape:label="bg"
       inkscape:groupmode="layer"
       id="layer1"
       style="display:inline">
      <path
         style="opacity:1;vector-effect:none;fill:#fff6d5;fill-opacity:1;stroke:#000000;stroke-width:1;stroke-linecap:round;stroke-linejoin:round;stroke-miterlimit:4;stroke-dasharray:none;stroke-dashoffset:0;stroke-opacity:1"
         d="m 235.83203,229.4043 c -1.6728,0.46339 -3.3024,0.85916 -4.85937,1.17578 -2.55787,2.08659 -10.17503,3.59955 -19.17578,3.59961 -9.00077,-6e-5 -16.61792,-1.51302 -19.17579,-3.59961 -1.55625,-0.31648 -3.18544,-0.71072 -4.85742,-1.17383 v 19.65039 c -37.73053,4.53056 -63.99077,19.86474 -64.04297,37.39648 0.0166,0.39799 0.0452,0.7958 0.0899,1.19336 h -0.0899 v 125.35743 h 80.49219 7.58399 7.58398 80.49219 V 287.64648 h -0.0898 c 0.0446,-0.39756 0.0713,-0.79537 0.0898,-1.19336 -0.0522,-17.53174 -26.3105,-32.86592 -64.04102,-37.39648 z"
         transform="scale(0.26458333)"
         id="rect23540"
         inkscape:connector-curvature="0" />
      <path
         style="opacity:1;vector-effect:none;fill:#fff6d5;fill-opacity:1;stroke:#000000;stroke-width:1;stroke-linecap:round;stroke-linejoin:round;stroke-miterlimit:4;stroke-dasharray:none;stroke-dashoffset:0;stroke-opacity:1"
         d="m 202.32812,86.9375 c -15.79511,0 -57.01953,12.335362 -57.01953,50.80664 v 10.58398 c -3.559,0.0833 -6.42026,3.017 -6.41992,9.00391 3.5e-4,5.98613 2.86137,12.7695 6.41992,12.96485 v 10.59179 c 0,31.8402 28.62946,45.89206 47.3125,49.69141 2.55787,2.08659 10.17502,3.59955 19.17579,3.59961 9.00076,-6e-5 16.61791,-1.51302 19.17578,-3.59961 18.68304,-3.79935 47.3125,-17.85121 47.3125,-49.69141 v -10.59179 c 3.55876,-0.19481 6.42152,-6.97847 6.42187,-12.96485 3.5e-4,-5.98716 -2.86266,-8.9208 -6.42187,-9.00391 v -10.58398 c 0,-38.471278 -41.22246,-50.80664 -57.01758,-50.80664 h -9.4707 z"
         transform="scale(0.26458333)"
         id="rect23538"
         inkscape:connector-curvature="0" />
      <path
         inkscape:connector-curvature="0"
         style="opacity:1;vector-effect:none;fill:#ffffff;fill-opacity:1;stroke:none;stroke-width:0.07357386;stroke-linecap:round;stroke-linejoin:round;stroke-miterlimit:4;stroke-dasharray:none;stroke-dashoffset:0;stroke-opacity:1"
         d="M 0.47805685,0.47804646 V 111.59788 H 111.59789 V 0.47804646 Z M 56.037975,2.7678295 A 53.270417,53.270417 0 0 1 109.30863,56.037972 53.270417,53.270417 0 0 1 56.037975,109.30862 53.270417,53.270417 0 0 1 2.7678399,56.037972 53.270417,53.270417 0 0 1 56.037975,2.7678295 Z"
         id="rect855"
         inkscape:label="frame" />
      <g
         id="g891"
         transform="translate(-1.7497889,-6.3752536)">
        <path
           class="hair"
           inkscape:label="bit1"
           sodipodi:nodetypes="cccc"
           inkscape:connector-curvature="0"
           id="path881"
           d="m 40.881333,38.340351 c -0.774794,8.003811 1.831982,14.054052 6.307096,19.024935 C 41.0711,45.711908 43.086898,41.202235 45.282229,36.850254 Z"
           style="display:inline;fill:#000000;stroke:none;stroke-width:0.26458332px;stroke-linecap:butt;stroke-linejoin:miter;stroke-opacity:1" />
        <path
           class="hair"
           inkscape:label="bit2"
           sodipodi:nodetypes="cccc"
           inkscape:connector-curvature="0"
           id="path883"
           d="m 43.210789,36.815717 c 0.03563,4.543916 0.899892,8.600407 2.804925,12.044677 -1.399745,-4.248636 -0.526718,-8.497272 0.206246,-12.745908 z"
           style="display:inline;fill:#000000;fill-opacity:1;stroke:none;stroke-width:0.26458332px;stroke-linecap:butt;stroke-linejoin:miter;stroke-opacity:1" />
        <path
           class="hair"
           inkscape:label="bit4"
           sodipodi:nodetypes="cccc"
           inkscape:connector-curvature="0"
           id="path885"
           d="m 50.612987,31.633735 c -0.583631,3.148451 -2.043641,5.947815 -1.612047,9.500658 1.240327,-3.052551 3.325206,-5.228713 5.144349,-7.680629 z"
           style="display:inline;fill:#000000;fill-opacity:1;stroke:none;stroke-width:0.26458332px;stroke-linecap:butt;stroke-linejoin:miter;stroke-opacity:1" />
        <path
           class="hair"
           inkscape:label="bit3"
           sodipodi:nodetypes="cccc"
           inkscape:connector-curvature="0"
           id="path887"
           d="m 46.483749,34.322393 c 0.149978,3.768235 -0.732336,7.543666 1.34184,11.298492 -0.525232,-3.938651 1.434331,-7.178936 2.445292,-10.68583 z"
           style="display:inline;fill:#000000;fill-opacity:1;stroke:none;stroke-width:0.26458332px;stroke-linecap:butt;stroke-linejoin:miter;stroke-opacity:1" />
        <path
           class="hair"
           inkscape:label="bit0"
           style="display:inline;fill:#000000;fill-opacity:1;stroke:none;stroke-width:0.26458332px;stroke-linecap:butt;stroke-linejoin:miter;stroke-opacity:1"
           d="m 46.691263,32.394739 c -1.525113,4.280476 -2.104675,8.387321 -1.496613,12.276075 0.142473,-4.471007 2.419836,-8.162443 4.565633,-11.901921 z"
           id="path891"
           inkscape:connector-curvature="0"
           sodipodi:nodetypes="cccc" />
        <path
           class="hair"
           inkscape:label="bit5"
           sodipodi:nodetypes="ccccc"
           inkscape:connector-curvature="0"
           id="path952"
           d="m 52.160711,34.610646 c 2.582428,4.115203 5.742024,8.467667 14.9321,10.930959 C 62.479218,41.175635 58.647195,37.602081 60.0805,34.11566 l -7.87854,-1.031223 z"
           style="display:inline;fill:#000000;stroke:none;stroke-width:0.26458332px;stroke-linecap:butt;stroke-linejoin:miter;stroke-opacity:1" />
        <path
           class="hair"
           inkscape:label="bit6"
           sodipodi:nodetypes="cccc"
           inkscape:connector-curvature="0"
           id="path957"
           d="m 59.461764,37.126829 c 2.408889,2.880356 2.536708,5.032937 11.673441,9.817238 -2.504421,-2.363177 -3.52275,-7.738829 -2.804924,-10.229726 z"
           style="display:inline;fill:#000000;stroke:none;stroke-width:0.26458332px;stroke-linecap:butt;stroke-linejoin:miter;stroke-opacity:1" />
        <path
           class="hair"
           inkscape:label="hair"
           id="path959"
           d="m 55.072554,29.062643 c -4.285721,0 -15.471245,3.388525 -15.471245,13.956589 v 2.907421 c 4.886586,-4.396677 4.528589,-11.513141 17.722986,-11.601786 l 0.0074,-0.08423 c 4.312887,5.150156 8.922366,10.145783 18.139518,12.742438 l 0.686813,-0.97379 c -0.151347,-0.05012 -0.310512,-0.07872 -0.475887,-0.08262 v -2.90742 c 8e-6,-10.568065 -11.184982,-13.95659 -15.470708,-13.95659 h -2.56971 z"
           style="display:inline;opacity:1;vector-effect:none;fill:#000000;fill-opacity:1;stroke:none;stroke-width:0.27301103;stroke-linecap:round;stroke-linejoin:round;stroke-miterlimit:4;stroke-dasharray:none;stroke-dashoffset:0;stroke-opacity:1"
           inkscape:connector-curvature="0" />
      </g>
    </g>
    <g
       style="display:inline"
       id="g2778"
       inkscape:groupmode="layer"
       inkscape:label="_ear_size">
      <path
         sodipodi:nodetypes="csssc"
         inkscape:label="ear_left"
         id="path2774"
         d="m 38.334661,38.854136 c -0.349442,-0.222897 -0.713749,-0.351469 -1.058139,-0.351542 -1.299026,-2.77e-4 -2.352284,1.231722 -2.352159,3.054574 1.27e-4,1.822603 1.053312,4.245964 2.352159,4.245687 0.361348,-7.7e-5 0.744637,-0.141627 1.109678,-0.385173"
         style="opacity:1;vector-effect:none;fill:none;fill-opacity:1;stroke:#000000;stroke-width:0.13229167;stroke-linecap:round;stroke-linejoin:round;stroke-miterlimit:4;stroke-dasharray:none;stroke-dashoffset:0;stroke-opacity:1"
         inkscape:connector-curvature="0" />
      <path
         inkscape:connector-curvature="0"
         style="opacity:1;vector-effect:none;fill:none;fill-opacity:1;stroke:#000000;stroke-width:0.13229167;stroke-linecap:round;stroke-linejoin:round;stroke-miterlimit:4;stroke-dasharray:none;stroke-dashoffset:0;stroke-opacity:1"
         d="m 73.563785,38.97637 c 0.401969,-0.297488 0.832449,-0.47369 1.235632,-0.473776 1.299026,-2.77e-4 2.352284,1.231722 2.352159,3.054574 -1.27e-4,1.822603 -1.053312,4.245964 -2.352159,4.245687 -0.396324,-8.5e-5 -0.819042,-0.170355 -1.21513,-0.458724"
         id="path2776"
         inkscape:label="ear_right"
         sodipodi:nodetypes="csssc" />
    </g>
    <g
       inkscape:groupmode="layer"
       id="layer2"
       inkscape:label="_cheek_low"
       style="display:inline">
      <path
         style="opacity:1;vector-effect:none;fill:none;fill-opacity:1;stroke:#000000;stroke-width:0.5;stroke-linecap:round;stroke-linejoin:round;stroke-miterlimit:4;stroke-dasharray:none;stroke-dashoffset:0;stroke-opacity:1"
         d="m 202.32812,86.9375 c -15.7951,0 -57.01953,12.335363 -57.01953,50.80664 0,5.46031 0.2884,10.20841 0.77539,14.41016 -0.2651,0.007 -0.52928,0.0304 -0.79101,0.0898 -3.5418,0.80423 -5.7631,4.32211 -4.41602,10.24609 1.3469,5.92317 5.75012,12.00709 9.29102,11.20118 0.42589,-0.0969 0.82473,-0.26411 1.19726,-0.48829 2.50227,6.12174 5.18386,10.67648 6.7793,15.9004 9.15599,29.97926 25.51723,38.89898 38.0957,41.51953 3.04539,1.73563 8.86645,2.91208 15.55665,2.91211 6.69018,-3e-5 12.51125,-1.17648 15.55664,-2.91211 12.57903,-2.62055 28.94168,-11.54027 38.09765,-41.51953 1.58467,-5.18862 4.24316,-9.71213 6.73047,-15.77149 0.30073,0.15457 0.61228,0.28358 0.94531,0.35938 3.5409,0.80591 7.94412,-5.27801 9.29102,-11.20118 1.34708,-5.92398 -0.87422,-9.44186 -4.41602,-10.24609 -0.16376,-0.0372 -0.32887,-0.054 -0.49414,-0.0703 0.48828,-4.2065 0.77735,-8.96098 0.77735,-14.42969 0,-38.471277 -41.22244,-50.80664 -57.01758,-50.80664 h -9.4707 z"
         transform="scale(0.26458333)"
         id="rect23538-3"
         inkscape:connector-curvature="0" />
    </g>
    <g
       inkscape:groupmode="layer"
       id="layer3"
       inkscape:label="_cheek_high"
       style="display:inline">
      <path
         style="opacity:1;vector-effect:none;fill:none;fill-opacity:1;stroke:#000000;stroke-width:0.5;stroke-linecap:round;stroke-linejoin:round;stroke-miterlimit:4;stroke-dasharray:none;stroke-dashoffset:0;stroke-opacity:1"
         d="m 202.32812,86.9375 c -15.7951,0 -57.01953,12.335363 -57.01953,50.80664 0,1.38786 0.11165,4.68722 -0.16211,9.0293 -3.14184,-0.50671 -6.34888,1.50167 -8.08789,6.70508 -1.92541,5.76115 -1.32333,13.24608 2.1211,14.39648 0.46979,0.1569 0.95798,0.2169 1.45312,0.19922 -0.28148,0.70751 -0.56688,1.41501 -0.88281,2.11914 -15.10484,33.66545 7.0226,55.14848 44.32422,60.29297 2.25899,3.26438 18.0103,5.26168 27.72266,5.26172 9.68698,-4e-5 24.26231,-2.25274 27.63867,-5.25 37.35387,-5.1232 59.52471,-26.61325 44.4082,-60.30469 -0.31619,-0.70473 -0.60308,-1.41298 -0.88477,-2.12109 0.49587,0.0179 0.98463,-0.0401 1.45508,-0.19727 3.44443,-1.1504 4.04651,-8.63533 2.1211,-14.39648 -1.73917,-5.20388 -4.94577,-7.2123 -8.08789,-6.70508 -0.27376,-4.34217 -0.16211,-7.64144 -0.16211,-9.0293 0,-38.471277 -41.22248,-50.80664 -57.01758,-50.80664 h -9.4707 z"
         transform="scale(0.26458333)"
         id="rect23538-6"
         inkscape:connector-curvature="0" />
    </g>
    <g
       style="display:inline"
       id="g2830"
       inkscape:groupmode="layer"
       inkscape:label="_chin">
      <path
         inkscape:label="chin"
         inkscape:connector-curvature="0"
         sodipodi:nodetypes="ccc"
         id="path2822"
         d="m 50.721419,60.269043 c -3e-6,1.02472 2.876644,3.793327 5.31654,2.384653 2.56882,1.483109 5.316538,-1.359933 5.316535,-2.384653"
         style="opacity:1;vector-effect:none;fill:none;fill-opacity:1;stroke:#000000;stroke-width:0.13229167;stroke-linecap:round;stroke-linejoin:round;stroke-miterlimit:4;stroke-dasharray:none;stroke-dashoffset:0;stroke-opacity:1" />
      <path
         inkscape:label="frame"
         id="path2824"
         d="M 0.47805685,0.47804646 V 111.59788 H 111.59789 V 0.47804646 Z M 56.037975,2.7678295 A 53.270417,53.270417 0 0 1 109.30863,56.037972 53.270417,53.270417 0 0 1 56.037975,109.30862 53.270417,53.270417 0 0 1 2.7678399,56.037972 53.270417,53.270417 0 0 1 56.037975,2.7678295 Z"
         style="opacity:1;vector-effect:none;fill:#000000;fill-opacity:1;stroke:none;stroke-width:0.07357386;stroke-linecap:round;stroke-linejoin:round;stroke-miterlimit:4;stroke-dasharray:none;stroke-dashoffset:0;stroke-opacity:1"
         inkscape:connector-curvature="0" />
    </g>
  </g>
</svg>
