<?xml version="1.0" encoding="UTF-8" standalone="no"?>
<!-- Created with Inkscape (http://www.inkscape.org/) -->

<svg
   xmlns:dc="http://purl.org/dc/elements/1.1/"
   xmlns:cc="http://creativecommons.org/ns#"
   xmlns:rdf="http://www.w3.org/1999/02/22-rdf-syntax-ns#"
   xmlns:svg="http://www.w3.org/2000/svg"
   xmlns="http://www.w3.org/2000/svg"
   xmlns:sodipodi="http://sodipodi.sourceforge.net/DTD/sodipodi-0.dtd"
   xmlns:inkscape="http://www.inkscape.org/namespaces/inkscape"
   width="112.07594mm"
   height="112.07593mm"
   viewBox="0 0 112.07594 112.07593"
   version="1.1"
   id="svg19053"
   sodipodi:docname="bhair_8.svg"
   inkscape:version="0.92.3 (unknown)">
  <sodipodi:namedview
     pagecolor="#ffffff"
     bordercolor="#666666"
     borderopacity="1"
     objecttolerance="10"
     gridtolerance="10"
     guidetolerance="10"
     inkscape:pageopacity="0"
     inkscape:pageshadow="2"
     inkscape:window-width="1920"
     inkscape:window-height="1023"
     id="namedview29025"
     showgrid="false"
     inkscape:zoom="2.3804091"
     inkscape:cx="151.4909"
     inkscape:cy="209.96034"
     inkscape:window-x="0"
     inkscape:window-y="27"
     inkscape:window-maximized="1"
     inkscape:current-layer="layer6"
     inkscape:lockguides="true" />
  <defs
     id="defs19047" />
  <metadata
     id="metadata19050">
    <rdf:RDF>
      <cc:Work
         rdf:about="">
        <dc:format>image/svg+xml</dc:format>
        <dc:type
           rdf:resource="http://purl.org/dc/dcmitype/StillImage" />
        <dc:title></dc:title>
      </cc:Work>
    </rdf:RDF>
  </metadata>
  <g
     inkscape:groupmode="layer"
     id="layer6"
     inkscape:label="default"
     style="display:inline">
    <path
       style="opacity:1;vector-effect:none;fill:#000000;fill-opacity:1;stroke:none;stroke-width:0.75;stroke-linecap:round;stroke-linejoin:round;stroke-miterlimit:4;stroke-dasharray:none;stroke-dashoffset:0;stroke-opacity:1"
       d="m 56.648222,16.7566 c -0.482825,7.61e-4 -0.906243,0.271226 -1.17099,0.676961 -0.265314,-0.136469 -0.550886,-0.232026 -0.857311,-0.232027 h -5.16e-4 c -0.38201,5.97e-4 -0.73325,0.142832 -1.040246,0.351916 -0.294804,-0.203225 -0.631378,-0.342364 -0.997355,-0.342614 h -5.19e-4 c -0.499139,7.13e-4 -0.969023,0.205888 -1.295527,0.556038 -0.232708,-0.173985 -0.493082,-0.300711 -0.786516,-0.300757 h -5.16e-4 c -0.52647,8.66e-4 -0.962543,0.323268 -1.21853,0.778764 -0.225907,-0.160835 -0.48287,-0.267519 -0.765329,-0.267684 h -5.16e-4 c -0.603998,8.62e-4 -1.092022,0.40959 -1.319815,0.967383 -0.176366,-0.08502 -0.366192,-0.141773 -0.565341,-0.14211 h -0.001 c -0.618477,7.25e-4 -1.11905,0.425782 -1.339454,1.003556 -0.160604,-0.06837 -0.329633,-0.119115 -0.506944,-0.119373 h -5.18e-4 c -0.71849,-2.3e-5 -1.250625,0.5794 -1.398363,1.296562 -0.102312,-0.02592 -0.203369,-0.05866 -0.31006,-0.05891 h -0.001 c -0.69823,-2.3e-5 -1.221647,0.547002 -1.387512,1.235583 -0.04946,-0.0059 -0.09365,-0.03657 -0.143661,-0.03669 h -0.001 c -0.734767,-2.4e-5 -1.275226,0.605636 -1.40715,1.345654 -0.01543,-6.42e-4 -0.0295,-0.0097 -0.04496,-0.0098 -7e-4,-2e-6 -0.0014,-2e-6 -0.0021,0 -0.779243,-2.6e-5 -1.347359,0.67811 -1.430404,1.479496 -0.611055,0.105352 -1.075679,0.61771 -1.201478,1.271757 -0.645917,0.974775 -1.01582,2.324867 -1.208712,3.912939 -0.07552,0.185674 -0.106166,0.387567 -0.122989,0.590145 -0.224319,0.294383 -0.410612,0.640194 -0.577225,1.012859 -0.08485,0.06538 -0.1377,0.163926 -0.145211,0.270783 -0.0015,0.02102 -0.0018,0.0323 -0.0026,0.04703 -0.144582,0.374108 -0.260763,0.789144 -0.363284,1.222663 -0.03585,0.03816 -0.06331,0.0834 -0.08062,0.132811 -1.743752,5.038645 -1.425567,9.932781 -0.757576,15.633152 0.01087,0.195765 0.04399,0.357028 0.135909,0.505396 0.04812,0.07768 0.116948,0.156141 0.224276,0.208256 0.107326,0.05212 0.255553,0.06025 0.369486,0.01705 0.227864,-0.0864 0.303471,-0.266994 0.342614,-0.428914 0.03674,-0.151987 0.03419,-0.317304 -0.0021,-0.498678 -0.240807,-2.202186 -0.314309,-3.832881 -0.281119,-5.158341 0.08017,0.656815 0.159356,1.315056 0.258897,1.963703 0.01933,0.126159 0.101493,0.233827 0.218075,0.285772 0.378592,5.329472 1.098441,15.831698 1.937866,20.995618 0.01073,0.168019 0.07348,0.33568 0.199988,0.451652 0.142359,0.130498 0.34216,0.17526 0.513665,0.142626 0.343011,-0.06527 0.583515,-0.40414 0.590661,-0.800467 3.8e-4,-0.02092 -9.91e-4,-0.04184 -0.0041,-0.06253 -0.102452,-0.677569 -0.159065,-1.353617 -0.252696,-2.030884 0.35447,2.349548 0.736182,4.68851 1.157034,7.011974 0.01444,0.16663 0.07999,0.331613 0.20774,0.444418 0.144804,0.127858 0.345398,0.169106 0.516247,0.133327 0.159226,-0.03335 0.287793,-0.135396 0.387575,-0.264584 0.02476,0.137655 0.04433,0.277374 0.06924,0.414962 0.0144,0.166497 0.07959,0.331621 0.207224,0.444416 0.144727,0.12791 0.345379,0.169142 0.516247,0.133326 0.142746,-0.02992 0.251818,-0.128961 0.347782,-0.237713 0.09366,0.532633 0.166235,1.073513 0.262517,1.605071 0.01441,0.1665 0.0796,0.331619 0.207222,0.444418 0.144729,0.127908 0.345379,0.169143 0.516249,0.133324 0.341731,-0.07163 0.576191,-0.414983 0.576191,-0.811318 -1.49e-4,-0.02097 -0.0021,-0.04188 -0.0057,-0.06253 -0.02635,-0.15526 -0.04968,-0.310812 -0.07545,-0.466122 0.02757,0.136001 0.05058,0.279352 0.156062,0.372586 0.144677,0.127881 0.344826,0.16896 0.515731,0.133326 0.34181,-0.07127 0.57671,-0.414345 0.57671,-0.810802 -1.49e-4,-0.02097 -0.0021,-0.04188 -0.0057,-0.06253 -0.168463,-0.992722 -0.274285,-1.984661 -0.42323,-2.977081 5.34e-4,7.09e-4 9.52e-4,0.0014 0.0016,0.0021 0.06102,0.346821 0.119772,0.696426 0.183452,1.047999 0.01436,0.166581 0.07953,0.331565 0.207224,0.444415 0.144727,0.12791 0.345379,0.169143 0.516247,0.133326 0.201549,-0.04225 0.344729,-0.192455 0.44545,-0.378788 0.03781,0.210976 0.07085,0.423767 0.109038,0.634587 l -0.0062,-0.06666 c 0,0.182285 0.09997,0.268676 0.149862,0.31006 0.04989,0.04138 0.08566,0.05849 0.120407,0.07493 0.0695,0.03289 0.135308,0.05476 0.216008,0.07855 0.161396,0.04757 0.522006,0.398347 0.644922,0.151927 0.433063,-0.868196 0.364164,-1.550565 0.364164,-1.8667 0.08098,0.30223 -0.105446,2.097136 0.715261,2.032244 0.223403,-0.01766 0.129272,0.0032 0.42701,-0.07225 0.06923,-0.01755 0.234757,-2.318529 0.302298,-2.335931 0.07807,-0.02011 -0.386772,3.379514 0.672919,3.527715 0.91486,0.127945 0.94318,-1.644885 1.489635,-1.623096 1.311234,0.05228 2.137595,1.536464 3.478705,1.705659 0.527359,0.06653 1.481435,0.538481 1.937033,0.277842 1.388371,-0.794262 3.124136,-1.102823 4.900072,-0.720238 0.385954,0.08315 0.720712,1.10969 1.241153,1.133544 0.563422,0.02582 0.680675,-0.93363 0.946322,-0.963441 0.818618,-0.09186 0.792711,0.631232 1.265947,1.121056 0.271386,0.0093 0.486275,0.0098 0.655256,-0.0031 0.08449,-0.0065 0.154734,-0.01353 0.239779,-0.03876 0.04252,-0.01261 0.09042,-0.02687 0.157096,-0.07596 0.06668,-0.0491 0.166916,-0.174019 0.166916,-0.324527 l -0.0062,0.06667 c 0.161634,-0.891808 0.293309,-1.761665 0.44545,-2.646352 0.169862,0.03414 0.368162,-0.0055 0.511598,-0.132292 0.06876,-0.06077 0.06605,-0.159732 0.101285,-0.24288 -0.09121,0.575252 -0.152477,1.150139 -0.250113,1.725478 -0.0036,0.02065 -0.0056,0.04156 -0.0057,0.06253 0,0.396335 0.234347,0.739463 0.576194,0.810802 0.170923,0.03567 0.371647,-0.0054 0.516247,-0.133326 0.127576,-0.112868 0.192841,-0.277839 0.207221,-0.444415 v -0.0016 c 0.100021,-0.552362 0.184402,-1.111001 0.281639,-1.664499 0.05557,0.143719 0.135765,0.271312 0.254764,0.355534 0.02205,0.01561 0.05337,0.01209 0.07751,0.02481 0,0.396459 0.234897,0.739539 0.576707,0.810802 0.170905,0.03563 0.371055,-0.0054 0.515731,-0.133323 0.127646,-0.112827 0.193276,-0.277794 0.207741,-0.444418 v -0.0016 c 0.180271,-0.995412 0.333951,-2.001451 0.504362,-3.000851 0.09916,0.125399 0.224607,0.227179 0.380854,0.259935 0.08841,0.01853 0.174691,-0.04476 0.267168,-0.06873 -0.08748,0.550058 -0.153651,1.099878 -0.247015,1.650029 -0.0036,0.02065 -0.0056,0.04156 -0.0057,0.06253 0,0.396457 0.234495,0.739759 0.576191,0.811318 0.170852,0.03578 0.371443,-0.0055 0.516247,-0.133323 0.127762,-0.112808 0.1933,-0.277792 0.20774,-0.444418 v -0.0016 c 0.261237,-1.442296 0.508022,-2.890573 0.746726,-4.341855 0.104669,0.154522 0.249338,0.269494 0.429948,0.303858 0.171506,0.03263 0.371303,-0.01213 0.513662,-0.142626 0.126513,-0.115972 0.189267,-0.283633 0.199988,-0.451652 0.839451,-5.164084 1.559285,-15.666484 1.937867,-20.996134 0.116412,-0.05184 0.198534,-0.159248 0.218045,-0.285179 0.09956,-0.648761 0.178729,-1.307293 0.2589,-1.964221 0.03321,1.325607 -0.04026,2.956232 -0.281119,5.158859 -0.03623,0.181374 -0.03878,0.346691 -0.0021,0.498678 0.03915,0.16192 0.114747,0.342511 0.342617,0.428914 0.113929,0.0432 0.262157,0.03506 0.369485,-0.01705 0.107328,-0.05212 0.176152,-0.130579 0.224277,-0.208256 0.09191,-0.148368 0.125002,-0.309631 0.135908,-0.505396 0.39451,-3.366577 0.654368,-6.449431 0.452168,-9.449552 0.111606,0.547876 0.220522,1.02892 0.335896,1.650545 0.02941,0.198139 0.08904,0.364088 0.183452,0.501261 0.09441,0.137174 0.229544,0.278813 0.473355,0.278019 0.12191,-3.97e-4 0.257448,-0.06119 0.339,-0.148309 0.08155,-0.08713 0.117782,-0.185193 0.134874,-0.274921 0.03158,-0.165735 0.0067,-0.322884 -0.04909,-0.501777 -0.721916,-5.1108 -1.347621,-9.889746 -3.815271,-12.648324 -0.179504,-0.395748 -0.496588,-0.704143 -0.894519,-0.833541 -0.03483,-0.02576 -0.06961,-0.0516 -0.104386,-0.07751 0.03069,-0.135281 0.08082,-0.266004 0.08113,-0.406175 v -0.0015 C 74.144202,26.649344 73.963344,26.205216 73.64305,25.882658 73.488766,25.497364 73.203781,25.215337 72.844133,25.055318 72.71436,24.310596 72.1649,23.703685 71.431816,23.703463 h -0.001 c -0.08069,2.1e-4 -0.156154,0.02938 -0.234611,0.04444 -0.07913,-0.80581 -0.649459,-1.489341 -1.431954,-1.489315 h -0.001 c -0.005,1.4e-5 -0.0095,0.003 -0.01447,0.0031 -0.08451,-0.799718 -0.651349,-1.475905 -1.429372,-1.475879 h -5.16e-4 c -0.171741,3.43e-4 -0.333306,0.05454 -0.489376,0.118856 -0.189298,-0.646701 -0.70331,-1.146722 -1.37201,-1.1467 h -5.16e-4 c -0.22389,2.22e-4 -0.438163,0.06218 -0.631486,0.167948 -0.249402,-0.48855 -0.706707,-0.834299 -1.256771,-0.835091 h -0.001 c -0.217429,1.91e-4 -0.416589,0.08032 -0.604099,0.179317 -0.19472,-0.635972 -0.707207,-1.123984 -1.368391,-1.123962 h -5.18e-4 c -0.237853,1.74e-4 -0.463159,0.07158 -0.665075,0.189652 -0.250214,-0.48433 -0.703673,-0.828049 -1.251085,-0.828889 -5.33e-4,-1e-6 -0.0011,-1e-6 -0.0016,0 -0.219906,4.73e-4 -0.425812,0.07514 -0.618566,0.179317 -0.380397,-0.309724 -0.854102,-0.512276 -1.381313,-0.512631 h -5.16e-4 c -0.335518,4.67e-4 -0.6525,0.09037 -0.947746,0.222209 -0.267769,-0.363493 -0.630462,-0.638981 -1.080037,-0.639237 h -5.16e-4 z"
       id="path1265"
       inkscape:connector-curvature="0"
       inkscape:label="hair"
       class="hair"
       sodipodi:nodetypes="cccccccccccccccccccccccccccccccccccccccccccccccccccccccccccccccccccccccccccccccccscsssssssssscccccccccccccccccccccccccccccccccccccccccccccccsccccccccccccccccccccccccccccccccccccc" />
  </g>
  <g
     style="display:none"
     inkscape:label="default copy"
     id="g1709"
     inkscape:groupmode="layer">
    <path
       sodipodi:nodetypes="cccccccccccccccccccccccccccccccccccccccccccccccccccccccccccccccccccccccccccccccccscsssssssssscccccccccccccccccccccccccccccccccccccccccccccccsccccccccccccccccccccccccccccccccccccc"
       class="hair"
       inkscape:label="hair"
       inkscape:connector-curvature="0"
       id="path1707"
       d="m 56.648222,16.7566 c -0.482825,7.61e-4 -0.906243,0.271226 -1.17099,0.676961 -0.265314,-0.136469 -0.550886,-0.232026 -0.857311,-0.232027 h -5.16e-4 c -0.38201,5.97e-4 -0.73325,0.142832 -1.040246,0.351916 -0.294804,-0.203225 -0.631378,-0.342364 -0.997355,-0.342614 h -5.19e-4 c -0.499139,7.13e-4 -0.969023,0.205888 -1.295527,0.556038 -0.232708,-0.173985 -0.493082,-0.300711 -0.786516,-0.300757 h -5.16e-4 c -0.52647,8.66e-4 -0.962543,0.323268 -1.21853,0.778764 -0.225907,-0.160835 -0.48287,-0.267519 -0.765329,-0.267684 h -5.16e-4 c -0.603998,8.62e-4 -1.092022,0.40959 -1.319815,0.967383 -0.176366,-0.08502 -0.366192,-0.141773 -0.565341,-0.14211 h -0.001 c -0.618477,7.25e-4 -1.11905,0.425782 -1.339454,1.003556 -0.160604,-0.06837 -0.329633,-0.119115 -0.506944,-0.119373 h -5.18e-4 c -0.71849,-2.3e-5 -1.250625,0.5794 -1.398363,1.296562 -0.102312,-0.02592 -0.203369,-0.05866 -0.31006,-0.05891 h -0.001 c -0.69823,-2.3e-5 -1.221647,0.547002 -1.387512,1.235583 -0.04946,-0.0059 -0.09365,-0.03657 -0.143661,-0.03669 h -0.001 c -0.734767,-2.4e-5 -1.275226,0.605636 -1.40715,1.345654 -0.01543,-6.42e-4 -0.0295,-0.0097 -0.04496,-0.0098 -7e-4,-2e-6 -0.0014,-2e-6 -0.0021,0 -0.779243,-2.6e-5 -1.347359,0.67811 -1.430404,1.479496 -0.611055,0.105352 -1.075679,0.61771 -1.201478,1.271757 -0.645917,0.974775 -1.01582,2.324867 -1.208712,3.912939 -0.07552,0.185674 -0.106166,0.387567 -0.122989,0.590145 -0.224319,0.294383 -0.410612,0.640194 -0.577225,1.012859 -0.08485,0.06538 -0.1377,0.163926 -0.145211,0.270783 -0.0015,0.02102 -0.0018,0.0323 -0.0026,0.04703 -0.144582,0.374108 -0.260763,0.789144 -0.363284,1.222663 -0.03585,0.03816 -0.06331,0.0834 -0.08062,0.132811 -1.743752,5.038645 -0.277699,4.433094 -1.61152,10.015331 -0.05714,0.187555 -0.08152,0.350369 -0.04625,0.521303 0.01846,0.08949 0.05609,0.186843 0.138943,0.2727 0.08284,0.08586 0.219227,0.144488 0.341068,0.14312 0.243679,-0.0027 0.376799,-0.146298 0.469256,-0.284869 0.08678,-0.13007 0.141262,-0.286174 0.169583,-0.468962 0.531487,-2.150612 0.488096,-0.245741 0.570413,0.0793 0.163533,0.30947 0.159356,1.315056 0.258897,1.963703 0.01933,0.126159 0.101493,0.233827 0.218075,0.285772 0.378592,5.329472 1.098441,3.660865 1.937866,8.824785 0.01073,0.168019 0.07348,0.33568 0.199988,0.451652 0.142359,0.130498 0.34216,0.17526 0.513665,0.142626 0.343011,-0.06527 0.583515,-0.40414 0.590661,-0.800467 3.8e-4,-0.02092 -9.91e-4,-0.04184 -0.0041,-0.06253 -0.102452,-0.677569 -0.159065,-1.353617 -0.252696,-2.030884 0.35447,2.349548 0.736182,4.68851 1.157034,7.011974 0.01444,0.16663 0.07999,0.331613 0.20774,0.444418 0.144804,0.127858 0.345398,0.169106 0.516247,0.133327 0.159226,-0.03335 0.287793,-0.135396 0.387575,-0.264584 0.02476,0.137655 0.04433,0.277374 0.06924,0.414962 0.0144,0.166497 0.07959,0.331621 0.207224,0.444416 0.144727,0.12791 0.345379,0.169142 0.516247,0.133326 0.142746,-0.02992 0.251818,-0.128961 0.347782,-0.237713 0.09366,0.532633 0.166235,1.073513 0.262517,1.605071 0.01441,0.1665 0.0796,0.331619 0.207222,0.444418 0.144729,0.127908 0.345379,0.169143 0.516249,0.133324 0.341731,-0.07163 0.576191,-0.414983 0.576191,-0.811318 -1.49e-4,-0.02097 -0.0021,-0.04188 -0.0057,-0.06253 -0.02635,-0.15526 -0.04968,-0.310812 -0.07545,-0.466122 0.02757,0.136001 0.05058,0.279352 0.156062,0.372586 0.144677,0.127881 0.344826,0.16896 0.515731,0.133326 0.34181,-0.07127 0.57671,-0.414345 0.57671,-0.810802 -1.49e-4,-0.02097 -0.0021,-0.04188 -0.0057,-0.06253 -0.168463,-0.992722 -0.274285,-1.984661 -0.42323,-2.977081 5.34e-4,7.09e-4 9.52e-4,0.0014 0.0016,0.0021 0.06102,0.346821 0.119772,0.696426 0.183452,1.047999 0.01436,0.166581 0.07953,0.331565 0.207224,0.444415 0.144727,0.12791 0.345379,0.169143 0.516247,0.133326 0.201549,-0.04225 0.344729,-0.192455 0.44545,-0.378788 0.03781,0.210976 0.07085,0.423767 0.109038,0.634587 l -0.0062,-0.06666 c 0,0.182285 0.09997,0.268676 0.149862,0.31006 0.04989,0.04138 0.08566,0.05849 0.120407,0.07493 0.0695,0.03289 0.135308,0.05476 0.216008,0.07855 0.161396,0.04757 0.522006,0.398347 0.644922,0.151927 0.433063,-0.868196 0.364164,-1.550565 0.364164,-1.8667 0.08098,0.30223 -0.105446,2.097136 0.715261,2.032244 0.223403,-0.01766 0.129272,0.0032 0.42701,-0.07225 0.06923,-0.01755 0.234757,-2.318529 0.302298,-2.335931 0.07807,-0.02011 -0.386772,3.379514 0.672919,3.527715 0.91486,0.127945 0.94318,-1.644885 1.489635,-1.623096 1.311234,0.05228 2.137595,1.536464 3.478705,1.705659 0.527359,0.06653 1.481435,0.538481 1.937033,0.277842 1.388371,-0.794262 3.124136,-1.102823 4.900072,-0.720238 0.385954,0.08315 0.720712,1.10969 1.241153,1.133544 0.563422,0.02582 0.680675,-0.93363 0.946322,-0.963441 0.818618,-0.09186 0.792711,0.631232 1.265947,1.121056 0.271386,0.0093 0.486275,0.0098 0.655256,-0.0031 0.08449,-0.0065 0.154734,-0.01353 0.239779,-0.03876 0.04252,-0.01261 0.09042,-0.02687 0.157096,-0.07596 0.06668,-0.0491 0.166916,-0.174019 0.166916,-0.324527 l -0.0062,0.06667 c 0.161634,-0.891808 0.293309,-1.761665 0.44545,-2.646352 0.169862,0.03414 0.368162,-0.0055 0.511598,-0.132292 0.06876,-0.06077 0.06605,-0.159732 0.101285,-0.24288 -0.09121,0.575252 -0.152477,1.150139 -0.250113,1.725478 -0.0036,0.02065 -0.0056,0.04156 -0.0057,0.06253 0,0.396335 0.234347,0.739463 0.576194,0.810802 0.170923,0.03567 0.371647,-0.0054 0.516247,-0.133326 0.127576,-0.112868 0.192841,-0.277839 0.207221,-0.444415 v -0.0016 c 0.100021,-0.552362 0.184402,-1.111001 0.281639,-1.664499 0.05557,0.143719 0.135765,0.271312 0.254764,0.355534 0.02205,0.01561 0.05337,0.01209 0.07751,0.02481 0,0.396459 0.234897,0.739539 0.576707,0.810802 0.170905,0.03563 0.371055,-0.0054 0.515731,-0.133323 0.127646,-0.112827 0.193276,-0.277794 0.207741,-0.444418 v -0.0016 c 0.180271,-0.995412 0.333951,-2.001451 0.504362,-3.000851 0.09916,0.125399 0.224607,0.227179 0.380854,0.259935 0.08841,0.01853 0.174691,-0.04476 0.267168,-0.06873 -0.08748,0.550058 -0.153651,1.099878 -0.247015,1.650029 -0.0036,0.02065 -0.0056,0.04156 -0.0057,0.06253 0,0.396457 0.234495,0.739759 0.576191,0.811318 0.170852,0.03578 0.371443,-0.0055 0.516247,-0.133323 0.127762,-0.112808 0.1933,-0.277792 0.20774,-0.444418 v -0.0016 c 0.261237,-1.442296 0.508022,-2.890573 0.746726,-4.341855 0.104669,0.154522 0.249338,0.269494 0.429948,0.303858 0.171506,0.03263 0.371303,-0.01213 0.513662,-0.142626 0.126513,-0.115972 0.189267,-0.283633 0.199988,-0.451652 0.839451,-5.164084 1.559285,-3.495651 1.937867,-8.825301 0.116412,-0.05184 0.198534,-0.159248 0.218045,-0.285179 0.09956,-0.648761 0.178729,-1.307293 0.2589,-1.964221 0.255511,0.241891 -0.18001,0.368091 0.418058,2.501608 0.03403,0.181799 0.09333,0.336137 0.184051,0.463476 0.09672,0.135633 0.234217,0.274995 0.477871,0.270171 0.12182,-0.0024 0.256316,-0.06525 0.336462,-0.153631 0.08014,-0.08839 0.114737,-0.186859 0.130417,-0.27688 0.02994,-0.171943 4.94e-4,-0.333911 -0.0624,-0.519617 -0.88964,-3.270783 -0.04102,-3.378809 -0.243218,-6.37893 -0.0014,-0.169305 0.05545,-0.258049 0.300932,0.32459 0.07105,0.187286 0.164748,0.33667 0.286279,0.450513 0.12153,0.113844 0.283797,0.223353 0.521813,0.170503 0.119012,-0.02642 0.238438,-0.114764 0.299501,-0.217291 0.06106,-0.102537 0.07551,-0.206076 0.07304,-0.297384 -0.0045,-0.168655 -0.06242,-0.316864 -0.155128,-0.479713 -1.796834,-4.838681 -1.256575,-8.336146 -3.724225,-11.094724 -0.179504,-0.395748 -0.496588,-0.704143 -0.894519,-0.833541 -0.03483,-0.02576 -0.06961,-0.0516 -0.104386,-0.07751 0.03069,-0.135281 0.08082,-0.266004 0.08113,-0.406175 v -0.0015 c -5.98e-4,-0.471542 -0.181456,-0.91567 -0.50175,-1.238228 -0.154284,-0.385294 -0.439269,-0.667321 -0.798917,-0.82734 C 72.71436,24.310596 72.1649,23.703685 71.431816,23.703463 h -0.001 c -0.08069,2.1e-4 -0.156154,0.02938 -0.234611,0.04444 -0.07913,-0.80581 -0.649459,-1.489341 -1.431954,-1.489315 h -0.001 c -0.005,1.4e-5 -0.0095,0.003 -0.01447,0.0031 -0.08451,-0.799718 -0.651349,-1.475905 -1.429372,-1.475879 h -5.16e-4 c -0.171741,3.43e-4 -0.333306,0.05454 -0.489376,0.118856 -0.189298,-0.646701 -0.70331,-1.146722 -1.37201,-1.1467 h -5.16e-4 c -0.22389,2.22e-4 -0.438163,0.06218 -0.631486,0.167948 -0.249402,-0.48855 -0.706707,-0.834299 -1.256771,-0.835091 h -0.001 c -0.217429,1.91e-4 -0.416589,0.08032 -0.604099,0.179317 -0.19472,-0.635972 -0.707207,-1.123984 -1.368391,-1.123962 h -5.18e-4 c -0.237853,1.74e-4 -0.463159,0.07158 -0.665075,0.189652 -0.250214,-0.48433 -0.703673,-0.828049 -1.251085,-0.828889 -5.33e-4,-1e-6 -0.0011,-1e-6 -0.0016,0 -0.219906,4.73e-4 -0.425812,0.07514 -0.618566,0.179317 -0.380397,-0.309724 -0.854102,-0.512276 -1.381313,-0.512631 h -5.16e-4 c -0.335518,4.67e-4 -0.6525,0.09037 -0.947746,0.222209 -0.267769,-0.363493 -0.630462,-0.638981 -1.080037,-0.639237 h -5.16e-4 z"
       style="opacity:1;vector-effect:none;fill:#000000;fill-opacity:1;stroke:none;stroke-width:0.75;stroke-linecap:round;stroke-linejoin:round;stroke-miterlimit:4;stroke-dasharray:none;stroke-dashoffset:0;stroke-opacity:1" />
  </g>
  <g
     inkscape:groupmode="layer"
     id="layer4"
     inkscape:label="ignore"
     style="display:inline"
     sodipodi:insensitive="true">
    <g
       inkscape:groupmode="layer"
       id="layer5"
       inkscape:label="hair"
       style="display:none">
      <path
         inkscape:connector-curvature="0"
         style="display:inline;opacity:1;vector-effect:none;fill:#000000;fill-opacity:1;stroke:none;stroke-width:0.08186431;stroke-linecap:round;stroke-linejoin:round;stroke-miterlimit:4;stroke-dasharray:none;stroke-dashoffset:0;stroke-opacity:1"
         d="m 57.287696,14.623578 a 3.3307417,3.3307417 0 0 0 -1.63866,0.435632 3.3307417,3.3307417 0 0 0 -1.053166,-0.174149 3.3307417,3.3307417 0 0 0 -1.934766,0.624768 3.3307417,3.3307417 0 0 0 -1.504301,-0.363285 3.3307417,3.3307417 0 0 0 -2.852023,1.618506 3.3307417,3.3307417 0 0 0 -0.213424,-0.01085 3.3307417,3.3307417 0 0 0 -2.732648,1.428336 3.3307417,3.3307417 0 0 0 -0.01704,-5.29e-4 3.3307417,3.3307417 0 0 0 -3.232362,2.542997 3.3307417,3.3307417 0 0 0 -3.148645,3.008602 3.3307417,3.3307417 0 0 0 -1.915647,2.942456 3.3307417,3.3307417 0 0 0 -1.95957,3.031341 3.3307417,3.3307417 0 0 0 0.177768,1.0604 3.3307417,3.3307417 0 0 0 -1.235067,2.587437 3.3307417,3.3307417 0 0 0 0.256315,1.272792 3.3307417,3.3307417 0 0 0 -0.996323,2.375048 3.3307417,3.3307417 0 0 0 0.666629,1.994194 3.3307417,3.3307417 0 0 0 -0.03204,0.438216 3.3307417,3.3307417 0 0 0 0.855244,2.222087 3.3307417,3.3307417 0 0 0 -0.273883,1.3193 3.3307417,3.3307417 0 0 0 1.347721,2.671673 3.3307417,3.3307417 0 0 0 -0.02635,0.395324 3.3307417,3.3307417 0 0 0 2.383832,3.191018 3.3307417,3.3307417 0 0 0 3.064415,3.193087 3.3307417,3.3307417 0 0 0 2.603458,2.438096 3.3307417,3.3307417 0 0 0 2.733683,1.43402 3.3307417,3.3307417 0 0 0 0.622184,-0.06098 3.3307417,3.3307417 0 0 0 2.391587,1.012856 3.3307417,3.3307417 0 0 0 2.111497,-0.757057 19.625383,19.675965 0 0 0 3.025656,0.248563 19.625383,19.675965 0 0 0 2.200383,-0.147794 19.625383,19.675965 0 0 0 0.93586,0.04702 19.625383,19.675965 0 0 0 2.022616,-0.108003 3.3307417,3.3307417 0 0 0 2.525942,1.162201 3.3307417,3.3307417 0 0 0 2.584855,-1.233514 3.3307417,3.3307417 0 0 0 2.355929,-0.984954 3.3307417,3.3307417 0 0 0 0.55501,0.05013 3.3307417,3.3307417 0 0 0 2.8236,-1.571996 3.3307417,3.3307417 0 0 0 2.59364,-2.737302 3.3307417,3.3307417 0 0 0 2.38383,-2.639116 3.3307417,3.3307417 0 0 0 1.54822,-2.812229 3.3307417,3.3307417 0 0 0 -0.0408,-0.502812 3.3307417,3.3307417 0 0 0 0.78859,-2.15129 3.3307417,3.3307417 0 0 0 -0.06,-0.618051 3.3307417,3.3307417 0 0 0 0.99425,-2.372982 3.3307417,3.3307417 0 0 0 -0.33641,-1.453142 3.3307417,3.3307417 0 0 0 0.18707,-1.088821 3.3307417,3.3307417 0 0 0 -0.3483,-1.480532 3.3307417,3.3307417 0 0 0 0.42323,-1.622639 3.3307417,3.3307417 0 0 0 -0.73484,-2.084626 3.3307417,3.3307417 0 0 0 0.0243,-0.382407 3.3307417,3.3307417 0 0 0 -0.86248,-2.230872 3.3307417,3.3307417 0 0 0 0.003,-0.04961 3.3307417,3.3307417 0 0 0 -0.63717,-1.952334 3.3307417,3.3307417 0 0 0 -1.98537,-2.999815 3.3307417,3.3307417 0 0 0 -2.89956,-3.133142 3.3307417,3.3307417 0 0 0 -2.63447,-2.121834 3.3307417,3.3307417 0 0 0 -2.821011,-1.9358 3.3307417,3.3307417 0 0 0 -2.89543,-1.69292 3.3307417,3.3307417 0 0 0 -1.008208,0.160714 3.3307417,3.3307417 0 0 0 -2.43086,-1.057816 3.3307417,3.3307417 0 0 0 -0.954982,0.142627 3.3307417,3.3307417 0 0 0 -1.774049,-0.516248 z"
         id="path774" />
    </g>
    <g
       inkscape:label="bg"
       inkscape:groupmode="layer"
       id="layer1"
       style="display:inline">
      <path
         style="opacity:1;vector-effect:none;fill:#fff6d5;fill-opacity:1;stroke:#000000;stroke-width:0.1;stroke-linecap:round;stroke-linejoin:round;stroke-miterlimit:4;stroke-dasharray:none;stroke-dashoffset:0;stroke-opacity:1"
         d="m 235.83203,229.4043 c -1.6728,0.46339 -3.3024,0.85916 -4.85937,1.17578 -2.55787,2.08659 -10.17503,3.59955 -19.17578,3.59961 -9.00077,-6e-5 -16.61792,-1.51302 -19.17579,-3.59961 -1.55625,-0.31648 -3.18544,-0.71072 -4.85742,-1.17383 v 19.65039 c -37.73053,4.53056 -63.99077,19.86474 -64.04297,37.39648 0.0166,0.39799 0.0452,0.7958 0.0899,1.19336 h -0.0899 v 125.35743 h 80.49219 7.58399 7.58398 80.49219 V 287.64648 h -0.0898 c 0.0446,-0.39756 0.0713,-0.79537 0.0898,-1.19336 -0.0522,-17.53174 -26.3105,-32.86592 -64.04102,-37.39648 z"
         transform="scale(0.26458333)"
         id="rect23540"
         inkscape:connector-curvature="0" />
      <path
         style="opacity:1;vector-effect:none;fill:#fff6d5;fill-opacity:1;stroke:#000000;stroke-width:1;stroke-linecap:round;stroke-linejoin:round;stroke-miterlimit:4;stroke-dasharray:none;stroke-dashoffset:0;stroke-opacity:1"
         d="m 202.32812,86.9375 c -15.79511,0 -57.01953,12.335362 -57.01953,50.80664 v 10.58398 c -3.559,0.0833 -6.42026,3.017 -6.41992,9.00391 3.5e-4,5.98613 2.86137,12.7695 6.41992,12.96485 v 10.59179 c 0,31.8402 28.62946,45.89206 47.3125,49.69141 2.55787,2.08659 10.17502,3.59955 19.17579,3.59961 9.00076,-6e-5 16.61791,-1.51302 19.17578,-3.59961 18.68304,-3.79935 47.3125,-17.85121 47.3125,-49.69141 v -10.59179 c 3.55876,-0.19481 6.42152,-6.97847 6.42187,-12.96485 3.5e-4,-5.98716 -2.86266,-8.9208 -6.42187,-9.00391 v -10.58398 c 0,-38.471278 -41.22246,-50.80664 -57.01758,-50.80664 h -9.4707 z"
         transform="scale(0.26458333)"
         id="rect23538"
         inkscape:connector-curvature="0" />
      <path
         inkscape:connector-curvature="0"
         style="opacity:1;vector-effect:none;fill:#ffffff;fill-opacity:1;stroke:none;stroke-width:0.07357386;stroke-linecap:round;stroke-linejoin:round;stroke-miterlimit:4;stroke-dasharray:none;stroke-dashoffset:0;stroke-opacity:1"
         d="M 0.47805685,0.47804646 V 111.59788 H 111.59789 V 0.47804646 Z M 56.037975,2.7678295 A 53.270417,53.270417 0 0 1 109.30863,56.037972 53.270417,53.270417 0 0 1 56.037975,109.30862 53.270417,53.270417 0 0 1 2.7678399,56.037972 53.270417,53.270417 0 0 1 56.037975,2.7678295 Z"
         id="rect855"
         inkscape:label="frame" />
    </g>
    <g
       style="display:inline"
       id="g2778"
       inkscape:groupmode="layer"
       inkscape:label="_ear_size">
      <path
         sodipodi:nodetypes="csssc"
         inkscape:label="ear_left"
         id="path2774"
         d="m 38.334661,38.854136 c -0.349442,-0.222897 -0.713749,-0.351469 -1.058139,-0.351542 -1.299026,-2.77e-4 -2.352284,1.231722 -2.352159,3.054574 1.27e-4,1.822603 1.053312,4.245964 2.352159,4.245687 0.361348,-7.7e-5 0.744637,-0.141627 1.109678,-0.385173"
         style="opacity:1;vector-effect:none;fill:none;fill-opacity:1;stroke:#000000;stroke-width:0.13229167;stroke-linecap:round;stroke-linejoin:round;stroke-miterlimit:4;stroke-dasharray:none;stroke-dashoffset:0;stroke-opacity:1"
         inkscape:connector-curvature="0" />
      <path
         inkscape:connector-curvature="0"
         style="opacity:1;vector-effect:none;fill:none;fill-opacity:1;stroke:#000000;stroke-width:0.13229167;stroke-linecap:round;stroke-linejoin:round;stroke-miterlimit:4;stroke-dasharray:none;stroke-dashoffset:0;stroke-opacity:1"
         d="m 73.563785,38.97637 c 0.401969,-0.297488 0.832449,-0.47369 1.235632,-0.473776 1.299026,-2.77e-4 2.352284,1.231722 2.352159,3.054574 -1.27e-4,1.822603 -1.053312,4.245964 -2.352159,4.245687 -0.396324,-8.5e-5 -0.819042,-0.170355 -1.21513,-0.458724"
         id="path2776"
         inkscape:label="ear_right"
         sodipodi:nodetypes="csssc" />
    </g>
    <g
       inkscape:groupmode="layer"
       id="layer2"
       inkscape:label="_cheek_low"
       style="display:inline">
      <path
         style="opacity:1;vector-effect:none;fill:none;fill-opacity:1;stroke:#000000;stroke-width:0.5;stroke-linecap:round;stroke-linejoin:round;stroke-miterlimit:4;stroke-dasharray:none;stroke-dashoffset:0;stroke-opacity:1"
         d="m 202.32812,86.9375 c -15.7951,0 -57.01953,12.335363 -57.01953,50.80664 0,5.46031 0.2884,10.20841 0.77539,14.41016 -0.2651,0.007 -0.52928,0.0304 -0.79101,0.0898 -3.5418,0.80423 -5.7631,4.32211 -4.41602,10.24609 1.3469,5.92317 5.75012,12.00709 9.29102,11.20118 0.42589,-0.0969 0.82473,-0.26411 1.19726,-0.48829 2.50227,6.12174 5.18386,10.67648 6.7793,15.9004 9.15599,29.97926 25.51723,38.89898 38.0957,41.51953 3.04539,1.73563 8.86645,2.91208 15.55665,2.91211 6.69018,-3e-5 12.51125,-1.17648 15.55664,-2.91211 12.57903,-2.62055 28.94168,-11.54027 38.09765,-41.51953 1.58467,-5.18862 4.24316,-9.71213 6.73047,-15.77149 0.30073,0.15457 0.61228,0.28358 0.94531,0.35938 3.5409,0.80591 7.94412,-5.27801 9.29102,-11.20118 1.34708,-5.92398 -0.87422,-9.44186 -4.41602,-10.24609 -0.16376,-0.0372 -0.32887,-0.054 -0.49414,-0.0703 0.48828,-4.2065 0.77735,-8.96098 0.77735,-14.42969 0,-38.471277 -41.22244,-50.80664 -57.01758,-50.80664 h -9.4707 z"
         transform="scale(0.26458333)"
         id="rect23538-3"
         inkscape:connector-curvature="0" />
    </g>
    <g
       inkscape:groupmode="layer"
       id="layer3"
       inkscape:label="_cheek_high"
       style="display:inline">
      <path
         style="opacity:1;vector-effect:none;fill:none;fill-opacity:1;stroke:#ffffff;stroke-width:0.5;stroke-linecap:round;stroke-linejoin:round;stroke-miterlimit:4;stroke-dasharray:none;stroke-dashoffset:0;stroke-opacity:1"
         d="m 202.32812,86.9375 c -15.7951,0 -57.01953,12.335363 -57.01953,50.80664 0,1.38786 0.11165,4.68722 -0.16211,9.0293 -3.14184,-0.50671 -6.34888,1.50167 -8.08789,6.70508 -1.92541,5.76115 -1.32333,13.24608 2.1211,14.39648 0.46979,0.1569 0.95798,0.2169 1.45312,0.19922 -0.28148,0.70751 -0.56688,1.41501 -0.88281,2.11914 -15.10484,33.66545 7.0226,55.14848 44.32422,60.29297 2.25899,3.26438 18.0103,5.26168 27.72266,5.26172 9.68698,-4e-5 24.26231,-2.25274 27.63867,-5.25 37.35387,-5.1232 59.52471,-26.61325 44.4082,-60.30469 -0.31619,-0.70473 -0.60308,-1.41298 -0.88477,-2.12109 0.49587,0.0179 0.98463,-0.0401 1.45508,-0.19727 3.44443,-1.1504 4.04651,-8.63533 2.1211,-14.39648 -1.73917,-5.20388 -4.94577,-7.2123 -8.08789,-6.70508 -0.27376,-4.34217 -0.16211,-7.64144 -0.16211,-9.0293 0,-38.471277 -41.22248,-50.80664 -57.01758,-50.80664 h -9.4707 z"
         transform="scale(0.26458333)"
         id="rect23538-6"
         inkscape:connector-curvature="0" />
    </g>
    <g
       style="display:inline"
       id="g2830"
       inkscape:groupmode="layer"
       inkscape:label="_chin">
      <path
         inkscape:label="chin"
         inkscape:connector-curvature="0"
         sodipodi:nodetypes="ccc"
         id="path2822"
         d="m 50.721419,60.269043 c -3e-6,1.02472 2.876644,3.793327 5.31654,2.384653 2.56882,1.483109 5.316538,-1.359933 5.316535,-2.384653"
         style="opacity:1;vector-effect:none;fill:none;fill-opacity:1;stroke:#000000;stroke-width:0.13229167;stroke-linecap:round;stroke-linejoin:round;stroke-miterlimit:4;stroke-dasharray:none;stroke-dashoffset:0;stroke-opacity:1" />
      <path
         inkscape:label="frame"
         id="path2824"
         d="M 0.47805685,0.47804646 V 111.59788 H 111.59789 V 0.47804646 Z M 56.037975,2.7678295 A 53.270417,53.270417 0 0 1 109.30863,56.037972 53.270417,53.270417 0 0 1 56.037975,109.30862 53.270417,53.270417 0 0 1 2.7678399,56.037972 53.270417,53.270417 0 0 1 56.037975,2.7678295 Z"
         style="opacity:1;vector-effect:none;fill:#000000;fill-opacity:1;stroke:none;stroke-width:0.07357386;stroke-linecap:round;stroke-linejoin:round;stroke-miterlimit:4;stroke-dasharray:none;stroke-dashoffset:0;stroke-opacity:1"
         inkscape:connector-curvature="0" />
    </g>
    <g
       style="display:inline"
       inkscape:label="fhair"
       id="g778"
       inkscape:groupmode="layer">
      <path
         style="opacity:0.5;vector-effect:none;fill:#000000;fill-opacity:1;stroke:none;stroke-width:0.1;stroke-linecap:round;stroke-linejoin:round;stroke-miterlimit:4;stroke-dasharray:none;stroke-dashoffset:0;stroke-opacity:1"
         d="m 58.861007,21.205424 -7.009392,0.227376 -5.891115,1.11156 -2.667537,1.722892 -4.556826,4.501534 -1.778704,3.779096 -0.129476,3.191322 0.54641,3.505658 c 1.14455,-0.110948 2.36833,0.332714 3.584373,0.722207 -0.62059,-1.185603 -1.71941,-2.371286 -1.861386,-3.556889 1.021713,0.102653 1.759694,1.055918 2.639632,1.583883 l -1.528588,-3.05666 0.861446,0.444934 -0.138493,-0.722437 1.500166,0.805635 -3.334163,-3.946011 2.583823,2.445326 c -0.231563,-0.583538 -0.853546,-1.166741 -0.694531,-1.750279 0.228846,-0.07554 0.644615,0.160509 0.97255,0.250113 l -0.0832,-1.000456 2.028301,0.916742 c -0.270586,-0.763275 -0.804407,-1.614231 -0.777729,-2.278414 1.204267,0.04002 1.704279,0.667004 2.556433,1.000455 l -1.056267,-1.945103 0.889352,0.0553 c -0.05933,-0.456015 -0.344527,-1.041059 -0.166915,-1.361676 l 2.223119,1.056267 -0.361217,-1.973006 c 0.297064,-0.145991 0.739444,0.191929 1.139465,0.389123 0.03144,-0.566253 0.429125,-0.666385 0.861446,-0.722434 l 2.86184,2.278412 c -0.05795,-0.75029 -0.348777,-1.604217 -0.111104,-2.22312 0.87994,-0.105931 1.760209,0.759701 2.64015,1.139466 0.193278,-0.56519 0.143637,-1.165011 0.583425,-1.694987 1.065223,-1.21e-4 1.871032,1.037275 2.806549,1.555977 l 0.61133,-3.389974 0.583427,-0.250113 0.750343,-0.111105 -0.639239,2.0283 1.528072,-0.500228 -0.444415,1.722891 1.58388,-0.166912 0.166915,0.750339 0.805638,0.36122 -1.945103,1.806607 c 1.787668,-0.592802 3.300561,-1.735405 5.362983,-1.778701 0.02633,0.795843 -0.442013,1.344485 -0.694532,2.000911 l 4.112409,-2.000911 -0.583425,1.528588 1.250569,-0.305925 -0.222211,1.028361 c 0.398291,0.09263 0.740384,-0.09556 1.194761,0.277503 0.159702,0.438214 -0.07285,0.778643 -0.111104,1.167371 l 2.306317,2.056204 1.977658,-1.703255 -0.393775,-0.297656 -4.168219,-5.835303 -3.334681,-2.611727 -2.967778,-1.850016 z"
         id="path1164"
         inkscape:connector-curvature="0"
         sodipodi:nodetypes="cccccccccccccccccccccccccccccccccccccccccccccccccccccccccccc"
         inkscape:label="back"
         class="hair" />
      <path
         style="opacity:1;vector-effect:none;fill:#000000;fill-opacity:1;stroke:none;stroke-width:0.5;stroke-linecap:round;stroke-linejoin:round;stroke-miterlimit:4;stroke-dasharray:none;stroke-dashoffset:0;stroke-opacity:1"
         d="m 54.061814,21.741308 -0.667657,0.13746 a 0.25002499,0.25002499 0 0 0 -0.134877,0.412378 c 2.357213,2.607274 3.873447,5.445543 5.103048,8.378301 a 0.25002499,0.25002499 0 0 0 0.477491,-0.133843 c -0.449771,-2.978295 -0.424614,-6.216379 -2.287717,-8.794296 h -0.514178 z m 5.134573,0.01344 c 0.08634,0.509786 0.02906,0.891846 -0.09199,1.234033 -0.152773,0.431764 -0.42197,0.807909 -0.655256,1.260905 a 0.25002499,0.25002499 0 0 0 0.37982,0.307992 c 0.874133,-0.710442 1.950963,-1.389695 2.280999,-2.437577 a 0.25002499,0.25002499 0 0 0 0.0047,-0.132292 c -0.705752,-0.128468 -1.354828,-0.204923 -1.918229,-0.233061 z m -6.355686,0.0026 c -0.448593,0.02394 -0.948279,0.07669 -1.488797,0.162781 0.115613,0.09 0.230521,0.183614 0.344681,0.281119 l -2.077392,0.761194 c -0.05332,-0.101996 -0.128913,-0.202424 -0.178284,-0.304374 -0.04742,-0.09793 -0.08868,-0.195456 -0.131776,-0.293005 -0.360301,0.09782 -0.727554,0.207002 -1.100706,0.330212 0.315473,0.498434 0.684958,0.980021 1.07487,1.44539 -0.398243,-0.465927 -0.793877,-0.932307 -1.272276,-1.37821 -0.894908,0.305101 -1.813859,0.684893 -2.721795,1.147217 0.857208,1.566634 2.326529,2.964103 3.416845,4.195093 a 0.25002499,0.25002499 0 0 0 0.383439,-0.320394 c -0.495225,-0.630521 -0.972047,-1.302478 -1.416452,-1.985926 1.949051,1.689031 3.738092,3.47327 5.284433,5.402255 a 0.25002499,0.25002499 0 0 0 0.418063,-0.269235 c -1.015159,-2.009751 -1.964955,-4.065662 -3.425632,-5.999634 0.494178,0.54542 0.987769,1.068985 1.423686,1.561145 a 0.25002499,0.25002499 0 0 0 0.38344,-0.320394 c -0.525603,-0.669191 -1.028782,-1.385061 -1.493968,-2.112015 2.29793,1.833718 3.963871,3.977356 5.117518,6.384623 a 0.25002499,0.25002499 0 0 0 0.471289,-0.153996 c -0.455596,-2.431184 -1.421781,-4.582158 -2.663404,-6.572725 0.535712,0.642839 1.049285,1.316647 1.516187,1.995227 a 0.25002499,0.25002499 0 0 0 0.420129,-0.270785 c -0.680815,-1.126595 -1.391907,-2.516096 -2.284098,-3.685563 z m 8.433078,0.258899 c -0.712213,1.466953 -1.595818,2.911176 -2.525945,4.352706 a 0.25002499,0.25002499 0 0 0 0.378272,0.32091 c 1.1136,-1.007325 2.138034,-2.030285 3.051492,-3.073197 -0.632915,1.332989 -1.559134,2.588894 -2.612241,3.816822 a 0.25002499,0.25002499 0 0 0 0.256315,0.403593 c 1.662237,-0.461611 2.663626,-1.310995 3.588411,-2.174028 -0.515022,0.653165 -1.057108,1.299334 -1.615924,1.941999 a 0.25002499,0.25002499 0 0 0 0.328147,0.371038 c 1.015124,-0.683556 1.944341,-1.395179 2.8174,-2.125969 -1.577899,1.530231 -3.336679,2.964794 -5.163511,4.367175 a 0.25002499,0.25002499 0 0 0 0.248047,0.429432 c 3.54942,-1.468403 6.730484,-3.143953 9.342583,-5.142839 -1.33209,-0.992484 -2.786065,-1.763732 -4.216797,-2.339909 -0.09184,0.150512 -0.183848,0.300981 -0.279053,0.450619 l -1.503267,-1.076937 c -0.729777,-0.221344 -1.435579,-0.395574 -2.093929,-0.521415 z m -16.159736,2.306836 a 0.25002499,0.25002499 0 0 0 -0.138494,0.05064 l -1.258837,0.957564 c -0.04891,-0.148613 -0.08842,-0.295629 -0.128675,-0.442867 -0.814953,0.530271 -1.597289,1.13645 -2.31717,1.824695 0.07478,0.262194 0.178202,0.513196 0.288869,0.761193 a 0.25002499,0.25002499 0 0 0 -0.389123,-0.01137 l -0.753443,0.882632 -10e-4,5.18e-4 a 0.25002499,0.25002499 0 0 0 -0.172601,0.152961 c -0.05209,-0.177641 -0.09729,-0.353877 -0.135908,-0.529167 -0.343464,0.421969 -0.663565,0.868299 -0.955498,1.341004 0.850096,1.599626 2.353641,3.023396 3.462838,4.275709 A 0.25002499,0.25002499 0 0 0 42.99844,33.2662 c -0.861864,-1.097322 -1.732957,-2.310235 -2.316136,-3.514513 -0.0038,-0.0079 -0.0045,-0.01538 -0.0083,-0.02325 1.038598,1.897192 3.344963,3.236568 5.020363,4.446238 a 0.25002499,0.25002499 0 0 0 0.304376,-0.396356 C 44.917717,32.896135 43.802014,31.903135 42.969471,30.85548 42.136925,29.807826 41.596137,28.714872 41.610896,27.628805 a 0.25002499,0.25002499 0 0 0 -5.16e-4,-0.01654 c 1.177237,2.46303 4.159332,4.177686 6.305558,5.727298 a 0.25002499,0.25002499 0 0 0 0.304374,-0.396356 c -1.32483,-1.081085 -2.693337,-2.298145 -3.718637,-3.58583 -0.685411,-0.860819 -1.190485,-1.750015 -1.461926,-2.647383 0.865121,1.285666 2.048912,2.452457 2.974496,3.497461 a 0.25002499,0.25002499 0 0 0 0.38344,-0.320395 c -0.861862,-1.097312 -1.732952,-2.310103 -2.316139,-3.514513 -0.01821,-0.0376 -0.02113,-0.07355 -0.03876,-0.111104 2.185971,2.085747 4.256831,3.899437 6.040458,6.047692 a 0.25002499,0.25002499 0 0 0 0.417029,-0.269234 C 49.250951,29.477713 47.077378,27.462133 45.343484,24.44812 a 0.25002499,0.25002499 0 0 0 -0.229441,-0.125057 z m 25.071337,1.830379 c -0.08692,0.07657 -0.172641,0.151026 -0.264068,0.236678 -1.251614,1.115257 -3.559468,2.753686 -4.957836,3.827156 a 0.25002499,0.25002499 0 0 0 0.248047,0.429432 c 1.303038,-0.53907 2.932951,-1.340278 4.365625,-2.07636 -0.339908,0.411869 -0.6687,0.826786 -1.02371,1.235067 a 0.25002499,0.25002499 0 0 0 0.328144,0.371036 c 1.088871,-0.733213 2.104292,-1.490467 3.028241,-2.278412 -0.526897,-0.63813 -1.107575,-1.217967 -1.724443,-1.744597 z m 1.92288,1.997812 c -1.12641,0.976185 -2.314921,1.920036 -3.528983,2.85202 a 0.25002499,0.25002499 0 0 0 0.248047,0.429432 c 1.471808,-0.608891 2.872483,-1.257546 4.201808,-1.946651 -0.279964,-0.470664 -0.589944,-0.913365 -0.920872,-1.334801 z m -32.943209,1.534273 a 0.25002499,0.25002499 0 0 0 -0.229444,0.19947 l -0.172083,0.83199 c -0.04275,-0.178361 -0.07642,-0.355386 -0.102835,-0.530717 -0.286957,0.563689 -0.535959,1.159803 -0.738458,1.791107 0.05978,0.103246 0.121076,0.20582 0.184486,0.307991 a 0.25002499,0.25002499 0 0 0 -0.0047,0.01757 l -0.33383,1.611273 a 0.25002499,0.25002499 0 0 0 0.03204,0.181383 c 1.202716,1.957882 2.925844,3.438326 4.604885,4.919596 a 0.25002499,0.25002499 0 0 0 0.356052,-0.349332 c -1.118126,-1.317421 -2.116161,-2.706746 -2.986381,-4.173905 0.508072,0.562559 1.016151,1.103511 1.464509,1.609722 a 0.25002499,0.25002499 0 0 0 0.383439,-0.320394 c -0.55803,-0.710481 -1.087803,-1.473772 -1.57303,-2.247408 0.98021,1.106543 2.087002,2.091743 3.188954,3.063896 a 0.25002499,0.25002499 0 0 0 0.35605,-0.349335 C 41.92153,34.276958 40.488758,32.1614 39.407414,29.83022 a 0.25002499,0.25002499 0 0 0 -0.242363,-0.144693 z m 33.987588,0.0124 c -0.870296,0.736211 -1.763199,1.460598 -2.687174,2.169893 a 0.25002499,0.25002499 0 0 0 0.248047,0.429432 C 71.765455,31.86208 72.781297,31.40646 73.763456,30.93198 73.580844,30.503146 73.37645,30.091986 73.152639,29.697947 Z M 37.433374,34.15039 c -0.08232,0.607753 -0.12609,1.241986 -0.12609,1.903759 v 0.656291 c 1.078402,1.33272 2.37798,2.457307 3.652488,3.581694 a 0.25002499,0.25002499 0 0 0 0.356053,-0.349335 c -1.521802,-1.793041 -2.8419,-3.707283 -3.882451,-5.792409 z"
         id="path1074"
         inkscape:connector-curvature="0"
         inkscape:label="braids"
         class="hair" />
    </g>
  </g>
</svg>
