<?xml version="1.0" encoding="UTF-8" standalone="no"?>
<!-- Created with Inkscape (http://www.inkscape.org/) -->

<svg
   xmlns:dc="http://purl.org/dc/elements/1.1/"
   xmlns:cc="http://creativecommons.org/ns#"
   xmlns:rdf="http://www.w3.org/1999/02/22-rdf-syntax-ns#"
   xmlns:svg="http://www.w3.org/2000/svg"
   xmlns="http://www.w3.org/2000/svg"
   xmlns:sodipodi="http://sodipodi.sourceforge.net/DTD/sodipodi-0.dtd"
   xmlns:inkscape="http://www.inkscape.org/namespaces/inkscape"
   width="112.07594mm"
   height="112.07593mm"
   viewBox="0 0 112.07594 112.07593"
   version="1.1"
   id="svg19053"
   sodipodi:docname="bhair_6.svg"
   inkscape:version="0.92.3 (unknown)">
  <sodipodi:namedview
     pagecolor="#ffffff"
     bordercolor="#666666"
     borderopacity="1"
     objecttolerance="10"
     gridtolerance="10"
     guidetolerance="10"
     inkscape:pageopacity="0"
     inkscape:pageshadow="2"
     inkscape:window-width="1920"
     inkscape:window-height="1023"
     id="namedview29025"
     showgrid="false"
     inkscape:zoom="2.1411184"
     inkscape:cx="227.36879"
     inkscape:cy="225.62249"
     inkscape:window-x="0"
     inkscape:window-y="27"
     inkscape:window-maximized="1"
     inkscape:current-layer="g784"
     inkscape:lockguides="true" />
  <defs
     id="defs19047" />
  <metadata
     id="metadata19050">
    <rdf:RDF>
      <cc:Work
         rdf:about="">
        <dc:format>image/svg+xml</dc:format>
        <dc:type
           rdf:resource="http://purl.org/dc/dcmitype/StillImage" />
        <dc:title></dc:title>
      </cc:Work>
    </rdf:RDF>
  </metadata>
  <g
     style="display:inline"
     inkscape:label="default"
     id="g778"
     inkscape:groupmode="layer">
    <path
       inkscape:label="base"
       class="hair"
       inkscape:connector-curvature="0"
       id="path774"
       d="M 56.366506,17.667153 A 19.625383,19.675965 0 0 0 42.939463,23.01191 19.625383,19.675965 0 0 0 35.173194,38.658249 19.625383,19.675965 0 0 0 54.7987,58.334099 19.625383,19.675965 0 0 0 56.998959,58.186033 19.625383,19.675965 0 0 0 57.934736,58.23299 19.625383,19.675965 0 0 0 77.560241,38.557142 19.625383,19.675965 0 0 0 69.211862,22.483103 19.625383,19.675965 0 0 0 56.366506,17.667153 Z"
       style="opacity:1;vector-effect:none;fill:#000000;fill-opacity:1;stroke:none;stroke-width:0.08186431;stroke-linecap:round;stroke-linejoin:round;stroke-miterlimit:4;stroke-dasharray:none;stroke-dashoffset:0;stroke-opacity:1" />
    <path
       inkscape:label="bumps"
       class="hair"
       inkscape:connector-curvature="0"
       id="path776"
       d="m 57.324857,16.213909 a 3.3307416,3.3307416 0 0 0 -1.638726,0.435549 3.3307416,3.3307416 0 0 0 -1.053279,-0.173777 3.3307416,3.3307416 0 0 0 -1.934546,0.62436 3.3307416,3.3307416 0 0 0 -1.504744,-0.363032 3.3307416,3.3307416 0 0 0 -2.851634,1.618388 3.3307416,3.3307416 0 0 0 -0.213575,-0.01062 3.3307416,3.3307416 0 0 0 -2.732683,1.428247 3.3307416,3.3307416 0 0 0 -0.0168,-8.3e-4 3.3307416,3.3307416 0 0 0 -3.232351,2.543431 3.3307416,3.3307416 0 0 0 -3.148778,3.008606 3.3307416,3.3307416 0 0 0 -1.915532,2.942279 3.3307416,3.3307416 0 0 0 -1.959751,3.031159 3.3307416,3.3307416 0 0 0 0.177756,1.060794 3.3307416,3.3307416 0 0 0 -1.235012,2.587207 3.3307416,3.3307416 0 0 0 0.256022,1.273043 3.3307416,3.3307416 0 0 0 -0.996238,2.374958 3.3307416,3.3307416 0 0 0 0.666813,1.993799 3.3307416,3.3307416 0 0 0 -0.03228,0.438204 3.3307416,3.3307416 0 0 0 0.855179,2.222407 3.3307416,3.3307416 0 0 0 -0.273709,1.319471 3.3307416,3.3307416 0 0 0 1.347769,2.671662 3.3307416,3.3307416 0 0 0 -0.02609,0.394869 3.3307416,3.3307416 0 0 0 2.38336,3.19123 3.3307416,3.3307416 0 0 0 3.064764,3.192995 3.3307416,3.3307416 0 0 0 2.603568,2.438192 3.3307416,3.3307416 0 0 0 2.73357,1.433997 3.3307416,3.3307416 0 0 0 0.622152,-0.06102 3.3307416,3.3307416 0 0 0 2.391319,1.01304 3.3307416,3.3307416 0 0 0 3.330957,-3.330957 3.3307416,3.3307416 0 0 0 -3.330957,-3.330515 3.3307416,3.3307416 0 0 0 -0.62215,0.06102 3.3307416,3.3307416 0 0 0 -1.772264,-0.952904 3.3307416,3.3307416 0 0 0 -2.472243,-1.421614 3.3307416,3.3307416 0 0 0 -2.275025,-2.358599 3.3307416,3.3307416 0 0 0 -1.34335,-2.546083 3.3307416,3.3307416 0 0 0 0.02609,-0.395313 3.3307416,3.3307416 0 0 0 -0.855182,-2.222405 3.3307416,3.3307416 0 0 0 0.273712,-1.319472 3.3307416,3.3307416 0 0 0 -0.667253,-1.994684 3.3307416,3.3307416 0 0 0 0.03272,-0.437319 3.3307416,3.3307416 0 0 0 -0.256464,-1.273925 3.3307416,3.3307416 0 0 0 0.996677,-2.374076 3.3307416,3.3307416 0 0 0 -0.178197,-1.061238 3.3307416,3.3307416 0 0 0 1.231918,-2.516455 3.3307416,3.3307416 0 0 0 1.943833,-2.714557 3.3307416,3.3307416 0 0 0 1.820905,-2.225502 3.3307416,3.3307416 0 0 0 2.566423,-1.422499 3.3307416,3.3307416 0 0 0 0.0168,8.3e-4 3.3307416,3.3307416 0 0 0 2.852076,-1.618387 3.3307416,3.3307416 0 0 0 0.213132,0.01062 3.3307416,3.3307416 0 0 0 1.934987,-0.624803 3.3307416,3.3307416 0 0 0 1.504304,0.363474 3.3307416,3.3307416 0 0 0 1.638727,-0.435992 3.3307416,3.3307416 0 0 0 1.053278,0.17422 3.3307416,3.3307416 0 0 0 0.95467,-0.142825 3.3307416,3.3307416 0 0 0 1.774036,0.516468 3.3307416,3.3307416 0 0 0 1.008617,-0.160069 3.3307416,3.3307416 0 0 0 2.227271,1.047086 3.3307416,3.3307416 0 0 0 2.412544,1.65332 3.3307416,3.3307416 0 0 0 2.599588,1.915091 3.3307416,3.3307416 0 0 0 1.77315,1.876178 3.3307416,3.3307416 0 0 0 0.631437,1.78553 3.3307416,3.3307416 0 0 0 0.860928,2.185263 3.3307416,3.3307416 0 0 0 -0.0027,0.04952 3.3307416,3.3307416 0 0 0 0.734465,2.084887 3.3307416,3.3307416 0 0 0 -0.02431,0.382489 3.3307416,3.3307416 0 0 0 0.348883,1.480424 3.3307416,3.3307416 0 0 0 -0.423612,1.622366 3.3307416,3.3307416 0 0 0 0.336501,1.453009 3.3307416,3.3307416 0 0 0 -0.187043,1.089096 3.3307416,3.3307416 0 0 0 0.06014,0.617729 3.3307416,3.3307416 0 0 0 -0.994466,2.37319 3.3307416,3.3307416 0 0 0 0.04068,0.502761 3.3307416,3.3307416 0 0 0 -0.736233,1.582127 3.3307416,3.3307416 0 0 0 -1.502976,2.295366 3.3307416,3.3307416 0 0 0 -1.930569,1.449916 3.3307416,3.3307416 0 0 0 -1.667908,0.908242 3.3307416,3.3307416 0 0 0 -0.55494,-0.05041 3.3307416,3.3307416 0 0 0 -2.584554,1.233688 3.3307416,3.3307416 0 0 0 -3.325649,3.330515 3.3307416,3.3307416 0 0 0 3.330956,3.330958 3.3307416,3.3307416 0 0 0 2.584554,-1.233689 3.3307416,3.3307416 0 0 0 2.355945,-0.984739 3.3307416,3.3307416 0 0 0 0.554938,0.04996 3.3307416,3.3307416 0 0 0 2.823776,-1.571953 3.3307416,3.3307416 0 0 0 2.593397,-2.737109 3.3307416,3.3307416 0 0 0 2.384246,-2.638943 3.3307416,3.3307416 0 0 0 1.54808,-2.81272 3.3307416,3.3307416 0 0 0 -0.04113,-0.50276 3.3307416,3.3307416 0 0 0 0.788852,-2.151215 3.3307416,3.3307416 0 0 0 -0.06014,-0.61773 3.3307416,3.3307416 0 0 0 0.994468,-2.373191 3.3307416,3.3307416 0 0 0 -0.336501,-1.453011 3.3307416,3.3307416 0 0 0 0.187043,-1.089093 3.3307416,3.3307416 0 0 0 -0.348439,-1.480426 3.3307416,3.3307416 0 0 0 0.423167,-1.622365 3.3307416,3.3307416 0 0 0 -0.734463,-2.08489 3.3307416,3.3307416 0 0 0 0.02431,-0.382487 3.3307416,3.3307416 0 0 0 -0.862697,-2.230808 3.3307416,3.3307416 0 0 0 0.0027,-0.04952 3.3307416,3.3307416 0 0 0 -0.637184,-1.952232 3.3307416,3.3307416 0 0 0 -1.985398,-2.999765 3.3307416,3.3307416 0 0 0 -2.899831,-3.133302 3.3307416,3.3307416 0 0 0 -2.634077,-2.122031 3.3307416,3.3307416 0 0 0 -2.821121,-1.935873 3.3307416,3.3307416 0 0 0 -2.895409,-1.692672 3.3307416,3.3307416 0 0 0 -1.008175,0.160511 3.3307416,3.3307416 0 0 0 -2.431108,-1.057694 3.3307416,3.3307416 0 0 0 -0.954669,0.142825 3.3307416,3.3307416 0 0 0 -1.774035,-0.516469 z"
       style="opacity:1;vector-effect:none;fill:#000000;fill-opacity:1;stroke:none;stroke-width:0.107815;stroke-linecap:round;stroke-linejoin:round;stroke-miterlimit:4;stroke-dasharray:none;stroke-dashoffset:0;stroke-opacity:1" />
  </g>
  <g
     inkscape:groupmode="layer"
     id="g784"
     inkscape:label="size"
     style="display:inline">
    <path
       style="opacity:1;vector-effect:none;fill:#000000;fill-opacity:1;stroke:none;stroke-width:0.11972352;stroke-linecap:round;stroke-linejoin:round;stroke-miterlimit:4;stroke-dasharray:none;stroke-dashoffset:0;stroke-opacity:1"
       d="m 56.458374,4.1778344 a 28.701396,28.77537 0 0 0 -19.636555,7.8165106 28.701396,28.77537 0 0 0 -11.35788,22.882191 28.701396,28.77537 0 0 0 28.701575,28.775202 28.701396,28.77537 0 0 0 3.217798,-0.216541 28.701396,28.77537 0 0 0 1.368539,0.06867 A 28.701396,28.77537 0 0 0 87.453426,34.728671 28.701396,28.77537 0 0 0 75.24423,11.220984 28.701396,28.77537 0 0 0 56.458374,4.1778344 Z"
       id="path780"
       inkscape:connector-curvature="0"
       class="hair"
       inkscape:label="base" />
    <path
       style="opacity:1;vector-effect:none;fill:#000000;fill-opacity:1;stroke:none;stroke-width:0.15085165;stroke-linecap:round;stroke-linejoin:round;stroke-miterlimit:4;stroke-dasharray:none;stroke-dashoffset:0;stroke-opacity:1"
       d="M 57.786698,3.4156104 A 4.6602784,4.6602784 0 0 0 55.493839,4.0250183 4.6602784,4.6602784 0 0 0 54.020121,3.7818743 4.6602784,4.6602784 0 0 0 51.313359,4.6554619 4.6602784,4.6602784 0 0 0 49.207966,4.1475178 4.6602784,4.6602784 0 0 0 45.218041,6.411919 4.6602784,4.6602784 0 0 0 44.919213,6.397067 a 4.6602784,4.6602784 0 0 0 -3.823494,1.9983631 4.6602784,4.6602784 0 0 0 -0.0235,-0.00116 4.6602784,4.6602784 0 0 0 -4.522612,3.5586979 4.6602784,4.6602784 0 0 0 -4.40568,4.209554 4.6602784,4.6602784 0 0 0 -2.680158,4.116754 4.6602784,4.6602784 0 0 0 -2.742028,4.24111 4.6602784,4.6602784 0 0 0 0.248711,1.484233 4.6602784,4.6602784 0 0 0 -1.727994,3.619946 4.6602784,4.6602784 0 0 0 0.35822,1.781204 4.6602784,4.6602784 0 0 0 -1.393907,3.322974 4.6602784,4.6602784 0 0 0 0.932985,2.789668 4.6602784,4.6602784 0 0 0 -0.04516,0.613121 4.6602784,4.6602784 0 0 0 1.196541,3.109528 4.6602784,4.6602784 0 0 0 -0.382966,1.846166 4.6602784,4.6602784 0 0 0 1.88576,3.738114 4.6602784,4.6602784 0 0 0 -0.03651,0.552489 4.6602784,4.6602784 0 0 0 3.33473,4.465078 4.6602784,4.6602784 0 0 0 4.288131,4.467546 4.6602784,4.6602784 0 0 0 3.642837,3.411448 4.6602784,4.6602784 0 0 0 3.824733,2.00641 4.6602784,4.6602784 0 0 0 0.870497,-0.08538 4.6602784,4.6602784 0 0 0 3.345866,1.417416 4.6602784,4.6602784 0 0 0 4.660579,-4.66058 4.6602784,4.6602784 0 0 0 -4.660579,-4.659962 4.6602784,4.6602784 0 0 0 -0.870496,0.08538 4.6602784,4.6602784 0 0 0 -2.479701,-1.333276 4.6602784,4.6602784 0 0 0 -3.459091,-1.989082 4.6602784,4.6602784 0 0 0 -3.183149,-3.300084 4.6602784,4.6602784 0 0 0 -1.879578,-3.562407 4.6602784,4.6602784 0 0 0 0.03651,-0.553109 4.6602784,4.6602784 0 0 0 -1.196546,-3.109527 4.6602784,4.6602784 0 0 0 0.382971,-1.846167 4.6602784,4.6602784 0 0 0 -0.933602,-2.790905 4.6602784,4.6602784 0 0 0 0.04578,-0.611884 4.6602784,4.6602784 0 0 0 -0.358837,-1.78244 4.6602784,4.6602784 0 0 0 1.394522,-3.321738 4.6602784,4.6602784 0 0 0 -0.249329,-1.484853 4.6602784,4.6602784 0 0 0 1.723665,-3.520954 4.6602784,4.6602784 0 0 0 2.719755,-3.79813 4.6602784,4.6602784 0 0 0 2.547759,-3.113858 4.6602784,4.6602784 0 0 0 3.590865,-1.990321 4.6602784,4.6602784 0 0 0 0.0235,0.0012 4.6602784,4.6602784 0 0 0 3.990543,-2.2644 4.6602784,4.6602784 0 0 0 0.298209,0.01485 4.6602784,4.6602784 0 0 0 2.707378,-0.874207 4.6602784,4.6602784 0 0 0 2.104779,0.508562 4.6602784,4.6602784 0 0 0 2.292859,-0.610027 4.6602784,4.6602784 0 0 0 1.473717,0.243764 4.6602784,4.6602784 0 0 0 1.335746,-0.199837 4.6602784,4.6602784 0 0 0 2.48218,0.722628 4.6602784,4.6602784 0 0 0 1.411229,-0.223964 4.6602784,4.6602784 0 0 0 3.116333,1.465052 4.6602784,4.6602784 0 0 0 3.375563,2.313278 4.6602784,4.6602784 0 0 0 3.63727,2.67954 4.6602784,4.6602784 0 0 0 2.480941,2.625095 4.6602784,4.6602784 0 0 0 0.883488,2.498262 4.6602784,4.6602784 0 0 0 1.204586,3.057559 4.6602784,4.6602784 0 0 0 -0.0038,0.06929 4.6602784,4.6602784 0 0 0 1.027641,2.917115 4.6602784,4.6602784 0 0 0 -0.03402,0.535168 4.6602784,4.6602784 0 0 0 0.488147,2.071367 4.6602784,4.6602784 0 0 0 -0.592706,2.269967 4.6602784,4.6602784 0 0 0 0.470822,2.03301 4.6602784,4.6602784 0 0 0 -0.261704,1.523831 4.6602784,4.6602784 0 0 0 0.08415,0.86431 4.6602784,4.6602784 0 0 0 -1.391429,3.320499 4.6602784,4.6602784 0 0 0 0.05693,0.703449 4.6602784,4.6602784 0 0 0 -1.030116,2.213667 4.6602784,4.6602784 0 0 0 -2.102922,3.21161 4.6602784,4.6602784 0 0 0 -2.701195,2.028681 4.6602784,4.6602784 0 0 0 -2.333691,1.270786 4.6602784,4.6602784 0 0 0 -0.776456,-0.07053 4.6602784,4.6602784 0 0 0 -3.616233,1.726142 4.6602784,4.6602784 0 0 0 -4.653154,4.659961 4.6602784,4.6602784 0 0 0 4.660579,4.660581 4.6602784,4.6602784 0 0 0 3.616233,-1.726142 4.6602784,4.6602784 0 0 0 3.296371,-1.377818 4.6602784,4.6602784 0 0 0 0.776455,0.06991 4.6602784,4.6602784 0 0 0 3.950946,-2.199433 4.6602784,4.6602784 0 0 0 3.628608,-3.829684 4.6602784,4.6602784 0 0 0 3.335968,-3.692333 4.6602784,4.6602784 0 0 0 2.166028,-3.935478 4.6602784,4.6602784 0 0 0 -0.05755,-0.703447 4.6602784,4.6602784 0 0 0 1.10374,-3.009918 4.6602784,4.6602784 0 0 0 -0.08415,-0.86431 4.6602784,4.6602784 0 0 0 1.39143,-3.3205 4.6602784,4.6602784 0 0 0 -0.470822,-2.033012 4.6602784,4.6602784 0 0 0 0.261705,-1.523829 4.6602784,4.6602784 0 0 0 -0.487526,-2.071369 4.6602784,4.6602784 0 0 0 0.592084,-2.269966 4.6602784,4.6602784 0 0 0 -1.027641,-2.917119 4.6602784,4.6602784 0 0 0 0.03402,-0.535164 4.6602784,4.6602784 0 0 0 -1.207061,-3.121284 4.6602784,4.6602784 0 0 0 0.0038,-0.06929 A 4.6602784,4.6602784 0 0 0 84.935987,21.820975 4.6602784,4.6602784 0 0 0 82.158075,17.62379 4.6602784,4.6602784 0 0 0 78.100715,13.239763 4.6602784,4.6602784 0 0 0 74.41519,10.270679 4.6602784,4.6602784 0 0 0 70.467958,7.56206 4.6602784,4.6602784 0 0 0 66.416784,5.1937209 4.6602784,4.6602784 0 0 0 65.006175,5.4183047 4.6602784,4.6602784 0 0 0 61.604625,3.9384015 4.6602784,4.6602784 0 0 0 60.268879,4.1382382 4.6602784,4.6602784 0 0 0 57.7867,3.4156095 Z"
       id="path782"
       inkscape:connector-curvature="0"
       class="hair"
       inkscape:label="bumps" />
  </g>
  <g
     inkscape:groupmode="layer"
     id="layer4"
     inkscape:label="ignore"
     style="display:inline"
     sodipodi:insensitive="true">
    <g
       inkscape:label="bg"
       inkscape:groupmode="layer"
       id="layer1"
       style="display:inline">
      <path
         style="opacity:1;vector-effect:none;fill:#fff6d5;fill-opacity:1;stroke:#000000;stroke-width:0.1;stroke-linecap:round;stroke-linejoin:round;stroke-miterlimit:4;stroke-dasharray:none;stroke-dashoffset:0;stroke-opacity:1"
         d="m 235.83203,229.4043 c -1.6728,0.46339 -3.3024,0.85916 -4.85937,1.17578 -2.55787,2.08659 -10.17503,3.59955 -19.17578,3.59961 -9.00077,-6e-5 -16.61792,-1.51302 -19.17579,-3.59961 -1.55625,-0.31648 -3.18544,-0.71072 -4.85742,-1.17383 v 19.65039 c -37.73053,4.53056 -63.99077,19.86474 -64.04297,37.39648 0.0166,0.39799 0.0452,0.7958 0.0899,1.19336 h -0.0899 v 125.35743 h 80.49219 7.58399 7.58398 80.49219 V 287.64648 h -0.0898 c 0.0446,-0.39756 0.0713,-0.79537 0.0898,-1.19336 -0.0522,-17.53174 -26.3105,-32.86592 -64.04102,-37.39648 z"
         transform="scale(0.26458333)"
         id="rect23540"
         inkscape:connector-curvature="0" />
      <path
         style="opacity:1;vector-effect:none;fill:#fff6d5;fill-opacity:1;stroke:#000000;stroke-width:1;stroke-linecap:round;stroke-linejoin:round;stroke-miterlimit:4;stroke-dasharray:none;stroke-dashoffset:0;stroke-opacity:1"
         d="m 202.32812,86.9375 c -15.79511,0 -57.01953,12.335362 -57.01953,50.80664 v 10.58398 c -3.559,0.0833 -6.42026,3.017 -6.41992,9.00391 3.5e-4,5.98613 2.86137,12.7695 6.41992,12.96485 v 10.59179 c 0,31.8402 28.62946,45.89206 47.3125,49.69141 2.55787,2.08659 10.17502,3.59955 19.17579,3.59961 9.00076,-6e-5 16.61791,-1.51302 19.17578,-3.59961 18.68304,-3.79935 47.3125,-17.85121 47.3125,-49.69141 v -10.59179 c 3.55876,-0.19481 6.42152,-6.97847 6.42187,-12.96485 3.5e-4,-5.98716 -2.86266,-8.9208 -6.42187,-9.00391 v -10.58398 c 0,-38.471278 -41.22246,-50.80664 -57.01758,-50.80664 h -9.4707 z"
         transform="scale(0.26458333)"
         id="rect23538"
         inkscape:connector-curvature="0" />
      <path
         inkscape:connector-curvature="0"
         style="opacity:1;vector-effect:none;fill:#ffffff;fill-opacity:1;stroke:none;stroke-width:0.07357386;stroke-linecap:round;stroke-linejoin:round;stroke-miterlimit:4;stroke-dasharray:none;stroke-dashoffset:0;stroke-opacity:1"
         d="M 0.47805685,0.47804646 V 111.59788 H 111.59789 V 0.47804646 Z M 56.037975,2.7678295 A 53.270417,53.270417 0 0 1 109.30863,56.037972 53.270417,53.270417 0 0 1 56.037975,109.30862 53.270417,53.270417 0 0 1 2.7678399,56.037972 53.270417,53.270417 0 0 1 56.037975,2.7678295 Z"
         id="rect855"
         inkscape:label="frame" />
    </g>
    <g
       style="display:inline"
       id="g2778"
       inkscape:groupmode="layer"
       inkscape:label="_ear_size">
      <path
         sodipodi:nodetypes="csssc"
         inkscape:label="ear_left"
         id="path2774"
         d="m 38.334661,38.854136 c -0.349442,-0.222897 -0.713749,-0.351469 -1.058139,-0.351542 -1.299026,-2.77e-4 -2.352284,1.231722 -2.352159,3.054574 1.27e-4,1.822603 1.053312,4.245964 2.352159,4.245687 0.361348,-7.7e-5 0.744637,-0.141627 1.109678,-0.385173"
         style="opacity:1;vector-effect:none;fill:none;fill-opacity:1;stroke:#000000;stroke-width:0.13229167;stroke-linecap:round;stroke-linejoin:round;stroke-miterlimit:4;stroke-dasharray:none;stroke-dashoffset:0;stroke-opacity:1"
         inkscape:connector-curvature="0" />
      <path
         inkscape:connector-curvature="0"
         style="opacity:1;vector-effect:none;fill:none;fill-opacity:1;stroke:#000000;stroke-width:0.13229167;stroke-linecap:round;stroke-linejoin:round;stroke-miterlimit:4;stroke-dasharray:none;stroke-dashoffset:0;stroke-opacity:1"
         d="m 73.563785,38.97637 c 0.401969,-0.297488 0.832449,-0.47369 1.235632,-0.473776 1.299026,-2.77e-4 2.352284,1.231722 2.352159,3.054574 -1.27e-4,1.822603 -1.053312,4.245964 -2.352159,4.245687 -0.396324,-8.5e-5 -0.819042,-0.170355 -1.21513,-0.458724"
         id="path2776"
         inkscape:label="ear_right"
         sodipodi:nodetypes="csssc" />
    </g>
    <g
       inkscape:groupmode="layer"
       id="layer2"
       inkscape:label="_cheek_low"
       style="display:inline">
      <path
         style="opacity:1;vector-effect:none;fill:none;fill-opacity:1;stroke:#000000;stroke-width:0.5;stroke-linecap:round;stroke-linejoin:round;stroke-miterlimit:4;stroke-dasharray:none;stroke-dashoffset:0;stroke-opacity:1"
         d="m 202.32812,86.9375 c -15.7951,0 -57.01953,12.335363 -57.01953,50.80664 0,5.46031 0.2884,10.20841 0.77539,14.41016 -0.2651,0.007 -0.52928,0.0304 -0.79101,0.0898 -3.5418,0.80423 -5.7631,4.32211 -4.41602,10.24609 1.3469,5.92317 5.75012,12.00709 9.29102,11.20118 0.42589,-0.0969 0.82473,-0.26411 1.19726,-0.48829 2.50227,6.12174 5.18386,10.67648 6.7793,15.9004 9.15599,29.97926 25.51723,38.89898 38.0957,41.51953 3.04539,1.73563 8.86645,2.91208 15.55665,2.91211 6.69018,-3e-5 12.51125,-1.17648 15.55664,-2.91211 12.57903,-2.62055 28.94168,-11.54027 38.09765,-41.51953 1.58467,-5.18862 4.24316,-9.71213 6.73047,-15.77149 0.30073,0.15457 0.61228,0.28358 0.94531,0.35938 3.5409,0.80591 7.94412,-5.27801 9.29102,-11.20118 1.34708,-5.92398 -0.87422,-9.44186 -4.41602,-10.24609 -0.16376,-0.0372 -0.32887,-0.054 -0.49414,-0.0703 0.48828,-4.2065 0.77735,-8.96098 0.77735,-14.42969 0,-38.471277 -41.22244,-50.80664 -57.01758,-50.80664 h -9.4707 z"
         transform="scale(0.26458333)"
         id="rect23538-3"
         inkscape:connector-curvature="0" />
    </g>
    <g
       inkscape:groupmode="layer"
       id="layer3"
       inkscape:label="_cheek_high"
       style="display:inline">
      <path
         style="opacity:1;vector-effect:none;fill:none;fill-opacity:1;stroke:#ffffff;stroke-width:0.5;stroke-linecap:round;stroke-linejoin:round;stroke-miterlimit:4;stroke-dasharray:none;stroke-dashoffset:0;stroke-opacity:1"
         d="m 202.32812,86.9375 c -15.7951,0 -57.01953,12.335363 -57.01953,50.80664 0,1.38786 0.11165,4.68722 -0.16211,9.0293 -3.14184,-0.50671 -6.34888,1.50167 -8.08789,6.70508 -1.92541,5.76115 -1.32333,13.24608 2.1211,14.39648 0.46979,0.1569 0.95798,0.2169 1.45312,0.19922 -0.28148,0.70751 -0.56688,1.41501 -0.88281,2.11914 -15.10484,33.66545 7.0226,55.14848 44.32422,60.29297 2.25899,3.26438 18.0103,5.26168 27.72266,5.26172 9.68698,-4e-5 24.26231,-2.25274 27.63867,-5.25 37.35387,-5.1232 59.52471,-26.61325 44.4082,-60.30469 -0.31619,-0.70473 -0.60308,-1.41298 -0.88477,-2.12109 0.49587,0.0179 0.98463,-0.0401 1.45508,-0.19727 3.44443,-1.1504 4.04651,-8.63533 2.1211,-14.39648 -1.73917,-5.20388 -4.94577,-7.2123 -8.08789,-6.70508 -0.27376,-4.34217 -0.16211,-7.64144 -0.16211,-9.0293 0,-38.471277 -41.22248,-50.80664 -57.01758,-50.80664 h -9.4707 z"
         transform="scale(0.26458333)"
         id="rect23538-6"
         inkscape:connector-curvature="0" />
    </g>
    <g
       style="display:inline"
       id="g2830"
       inkscape:groupmode="layer"
       inkscape:label="_chin">
      <path
         inkscape:label="chin"
         inkscape:connector-curvature="0"
         sodipodi:nodetypes="ccc"
         id="path2822"
         d="m 50.721419,60.269043 c -3e-6,1.02472 2.876644,3.793327 5.31654,2.384653 2.56882,1.483109 5.316538,-1.359933 5.316535,-2.384653"
         style="opacity:1;vector-effect:none;fill:none;fill-opacity:1;stroke:#000000;stroke-width:0.13229167;stroke-linecap:round;stroke-linejoin:round;stroke-miterlimit:4;stroke-dasharray:none;stroke-dashoffset:0;stroke-opacity:1" />
      <path
         inkscape:label="frame"
         id="path2824"
         d="M 0.47805685,0.47804646 V 111.59788 H 111.59789 V 0.47804646 Z M 56.037975,2.7678295 A 53.270417,53.270417 0 0 1 109.30863,56.037972 53.270417,53.270417 0 0 1 56.037975,109.30862 53.270417,53.270417 0 0 1 2.7678399,56.037972 53.270417,53.270417 0 0 1 56.037975,2.7678295 Z"
         style="opacity:1;vector-effect:none;fill:#000000;fill-opacity:1;stroke:none;stroke-width:0.07357386;stroke-linecap:round;stroke-linejoin:round;stroke-miterlimit:4;stroke-dasharray:none;stroke-dashoffset:0;stroke-opacity:1"
         inkscape:connector-curvature="0" />
    </g>
    <g
       inkscape:groupmode="layer"
       id="layer5"
       inkscape:label="front"
       style="display:inline">
      <path
         style="opacity:1;vector-effect:none;fill:#000000;fill-opacity:1;stroke:none;stroke-width:0.06614583;stroke-linecap:butt;stroke-linejoin:miter;stroke-miterlimit:4;stroke-dasharray:none;stroke-dashoffset:0;stroke-opacity:1"
         d="m 53.533166,22.564514 c -2.20332,0 -6.01236,0.830864 -9.34775,2.974495 -3.33539,2.143633 -6.177399,5.660808 -6.177402,10.90631 v 1.877923 l 0.395325,0.510564 c 6.952745,-8.577813 16.199776,-5.885628 21.001302,-8.994802 -0.06102,3.547306 2.835952,7.617534 6.307627,6.986654 2.484686,1.299689 5.382368,1.858539 7.711672,3.437001 l 0.848527,-1.284161 c -0.06835,-0.02267 -0.136146,-0.04728 -0.206187,-0.0646 v -2.468584 c 0,-5.245473 -2.842495,-8.762666 -6.177402,-10.90631 -3.334906,-2.143642 -7.14236,-2.974495 -9.345683,-2.974495 h -2.506306 z m 6.953581,6.387207 c 0.466601,3.127354 1.594842,5.067123 3.063896,6.395993 -2.087827,-1.129599 -3.069169,-3.915474 -3.128491,-6.32778 0.02202,-0.02206 0.04286,-0.04573 0.0646,-0.06821 z"
         id="path1470"
         inkscape:connector-curvature="0"
         class="hair"
         inkscape:label="hair" />
      <path
         style="opacity:1;vector-effect:none;fill:#000000;fill-opacity:1;stroke:none;stroke-width:0.06614583;stroke-linecap:butt;stroke-linejoin:miter;stroke-miterlimit:4;stroke-dasharray:none;stroke-dashoffset:0;stroke-opacity:1"
         d="m 61.370773,25.609995 c 0,0 2.323635,4.521504 -11.328224,8.316929 -3.686978,1.025035 -1.388757,2.75896 -1.388757,2.75896 0,0 -4.384722,-1.580761 2.848695,-4.134561 6.339346,-2.238143 7.298063,-7.26719 7.298063,-7.26719 z"
         id="path1474"
         inkscape:connector-curvature="0"
         sodipodi:nodetypes="cscscc"
         inkscape:label="bang3"
         class="hair" />
      <path
         style="opacity:1;vector-effect:none;fill:#000000;fill-opacity:1;stroke:none;stroke-width:0.06614583;stroke-linecap:butt;stroke-linejoin:miter;stroke-miterlimit:4;stroke-dasharray:none;stroke-dashoffset:0;stroke-opacity:1"
         d="m 51.763765,30.169733 c -0.414332,-0.0046 -0.85816,0.02321 -1.319299,0.07545 0.609316,0.09102 1.107305,0.284226 1.442288,0.590661 -7.920516,1.811806 -7.555124,5.629582 -11.400337,6.112806 -0.39742,0.04994 -0.987766,-0.222448 -1.396296,-0.447003 -0.190596,0.294844 -0.36194,0.595876 -0.504362,0.905373 0,0 1.434835,0.964253 2.224153,0.865063 4.605504,-0.578768 4.167868,-5.151475 13.654463,-7.321516 -0.567788,-0.519403 -1.524899,-0.76767 -2.70061,-0.780834 z"
         id="path1476"
         inkscape:connector-curvature="0"
         inkscape:label="bang1"
         class="hair" />
      <path
         style="opacity:1;vector-effect:none;fill:#000000;fill-opacity:1;stroke:none;stroke-width:0.06614583;stroke-linecap:butt;stroke-linejoin:miter;stroke-miterlimit:4;stroke-dasharray:none;stroke-dashoffset:0;stroke-opacity:1"
         d="m 44.795028,34.379724 c 0,0 -1.782436,3.553257 -0.617863,3.985213 3.058012,1.134259 2.502344,-1.97716 2.502344,-1.97716 0,0 -1.079706,1.93914 -1.915374,1.204832 -1.087448,-0.955549 3.089312,-4.633968 3.089312,-4.633968 z"
         id="path1482"
         inkscape:connector-curvature="0"
         sodipodi:nodetypes="cscscc"
         inkscape:label="bang2"
         class="hair" />
      <path
         style="opacity:1;vector-effect:none;fill:#000000;fill-opacity:1;stroke:none;stroke-width:0.06614583;stroke-linecap:butt;stroke-linejoin:miter;stroke-miterlimit:4;stroke-dasharray:none;stroke-dashoffset:0;stroke-opacity:1"
         d="m 65.228382,35.007696 c 0,0 3.457414,2.885204 2.555836,4.28157 -0.520792,0.806601 -2.480819,0.553685 -2.861661,-0.327671 -0.482447,-1.116491 0.709954,-1.463598 0.709954,-1.463598 0,0 -0.451516,0.524543 -0.05461,1.092237 0.146031,0.208868 0.64834,0.226811 0.764566,10e-7 0.670921,-1.309275 -2.577679,-3.582537 -2.577679,-3.582537 z"
         id="path1484"
         inkscape:connector-curvature="0"
         sodipodi:nodetypes="csscsscc"
         inkscape:label="bang4"
         class="hair" />
      <path
         style="opacity:1;vector-effect:none;fill:#000000;fill-opacity:1;stroke:none;stroke-width:0.06614583;stroke-linecap:butt;stroke-linejoin:miter;stroke-miterlimit:4;stroke-dasharray:none;stroke-dashoffset:0;stroke-opacity:1"
         d="m 73.42394,40.262659 c -0.611233,1.582515 -2.072758,1.822464 -3.78292,1.669828 2.057689,-0.741376 3.067018,-2.019122 2.621368,-4.041276 z"
         id="path1492"
         inkscape:connector-curvature="0"
         sodipodi:nodetypes="cccc"
         inkscape:label="bang5"
         class="hair" />
    </g>
  </g>
</svg>
