<?xml version="1.0" encoding="UTF-8" standalone="no"?>
<!-- Created with Inkscape (http://www.inkscape.org/) -->

<svg
   xmlns:dc="http://purl.org/dc/elements/1.1/"
   xmlns:cc="http://creativecommons.org/ns#"
   xmlns:rdf="http://www.w3.org/1999/02/22-rdf-syntax-ns#"
   xmlns:svg="http://www.w3.org/2000/svg"
   xmlns="http://www.w3.org/2000/svg"
   xmlns:sodipodi="http://sodipodi.sourceforge.net/DTD/sodipodi-0.dtd"
   xmlns:inkscape="http://www.inkscape.org/namespaces/inkscape"
   width="112.07594mm"
   height="112.07593mm"
   viewBox="0 0 112.07594 112.07593"
   version="1.1"
   id="svg19053"
   sodipodi:docname="fac_hair_8.svg"
   inkscape:version="0.92.3 (unknown)">
  <sodipodi:namedview
     pagecolor="#ffffff"
     bordercolor="#666666"
     borderopacity="1"
     objecttolerance="10"
     gridtolerance="10"
     guidetolerance="10"
     inkscape:pageopacity="0"
     inkscape:pageshadow="2"
     inkscape:window-width="1920"
     inkscape:window-height="1023"
     id="namedview29025"
     showgrid="false"
     inkscape:zoom="1.7479817"
     inkscape:cx="92.328614"
     inkscape:cy="142.49138"
     inkscape:window-x="0"
     inkscape:window-y="27"
     inkscape:window-maximized="1"
     inkscape:current-layer="layer9" />
  <defs
     id="defs19047" />
  <metadata
     id="metadata19050">
    <rdf:RDF>
      <cc:Work
         rdf:about="">
        <dc:format>image/svg+xml</dc:format>
        <dc:type
           rdf:resource="http://purl.org/dc/dcmitype/StillImage" />
        <dc:title></dc:title>
      </cc:Work>
    </rdf:RDF>
  </metadata>
  <g
     inkscape:groupmode="layer"
     id="layer4"
     inkscape:label="ignore"
     style="display:inline"
     sodipodi:insensitive="true">
    <g
       inkscape:label="base"
       inkscape:groupmode="layer"
       id="layer1"
       style="display:none">
      <path
         style="opacity:1;vector-effect:none;fill:#ececec;fill-opacity:1;stroke:none;stroke-width:0.07242015;stroke-linecap:round;stroke-linejoin:round;stroke-miterlimit:4;stroke-dasharray:none;stroke-dashoffset:0;stroke-opacity:1"
         d="M 1.3494019,1.3493915 H 110.72654 V 110.72653 H 1.3494019 Z"
         id="rect853"
         inkscape:label="bg"
         inkscape:connector-curvature="0" />
      <path
         style="opacity:1;vector-effect:none;fill:#de8787;fill-opacity:1;stroke:none;stroke-width:2.13111639;stroke-linecap:round;stroke-linejoin:round;stroke-miterlimit:4;stroke-dasharray:none;stroke-dashoffset:0;stroke-opacity:1"
         d="m 49.678955,56.419812 v 9.47642 c -9.982869,1.19871 -16.93067,5.25588 -16.944481,9.89449 0.0044,0.1053 0.01207,0.21055 0.02388,0.31574 h -0.02388 v 33.167488 h 21.296957 2.006532 V 56.419812 Z"
         id="rect23540"
         inkscape:connector-curvature="0"
         inkscape:label="body_left"
         class="body" />
      <path
         id="path23835"
         d="m 62.39697,56.419812 v 9.47642 c 9.982867,1.19871 16.930671,5.25588 16.944486,9.89449 -0.0049,0.1053 -0.01209,0.21055 -0.02389,0.31574 h 0.02389 V 109.27395 H 58.044494 56.037963 V 56.419812 Z"
         style="opacity:1;vector-effect:none;fill:#de8787;fill-opacity:1;stroke:none;stroke-width:2.13111615;stroke-linecap:round;stroke-linejoin:round;stroke-miterlimit:4;stroke-dasharray:none;stroke-dashoffset:0;stroke-opacity:1"
         inkscape:connector-curvature="0"
         inkscape:label="body_right"
         class="body" />
      <path
         inkscape:connector-curvature="0"
         style="opacity:1;vector-effect:none;fill:#e9afaf;fill-opacity:1;stroke:none;stroke-width:8.2308979;stroke-linecap:round;stroke-linejoin:round;stroke-miterlimit:4;stroke-dasharray:none;stroke-dashoffset:0;stroke-opacity:1"
         d="m 53.532468,23.002213 c -4.179125,0 -15.08632,3.263731 -15.08632,13.44259 0,6.033855 0,11.415324 0,11.415324 0,10.107135 10.907195,13.443105 15.08632,13.443105 h 2.505495 V 23.002213 Z"
         id="rect23538"
         sodipodi:nodetypes="ssssccs"
         inkscape:label="face_left"
         class="skin" />
      <path
         inkscape:connector-curvature="0"
         sodipodi:nodetypes="ssssccs"
         id="path23996"
         d="m 58.543458,23.002213 c 4.179125,0 15.08632,3.263731 15.08632,13.44259 0,3.903165 0,6.641354 0,11.415324 0,10.107135 -10.907195,13.443105 -15.08632,13.443105 H 56.037963 V 23.002213 Z"
         style="opacity:1;vector-effect:none;fill:#e9afaf;fill-opacity:1;stroke:none;stroke-width:8.2308979;stroke-linecap:round;stroke-linejoin:round;stroke-miterlimit:4;stroke-dasharray:none;stroke-dashoffset:0;stroke-opacity:1"
         inkscape:label="face_right"
         class="skin" />
      <path
         style="opacity:1;vector-effect:none;fill:#ffffff;fill-opacity:1;stroke:none;stroke-width:1.43196714;stroke-linecap:round;stroke-linejoin:round;stroke-miterlimit:4;stroke-dasharray:none;stroke-dashoffset:0;stroke-opacity:1"
         d="m 181.14844,150.94141 c -5.81191,-0.22277 -12.5001,4.14199 -12.28516,8.44921 0.27065,5.42436 5.62011,8.67564 11.04688,8.89258 6.07644,0.24291 15.56132,-3.52567 15.45507,-7.76953 -0.0348,-1.38603 -6.63513,-8.49317 -13.06835,-9.46484 -0.37739,-0.057 -0.76098,-0.0927 -1.14844,-0.10742 z m 61.29687,0 c -0.38746,0.0148 -0.77109,0.0504 -1.14843,0.10742 -6.43326,0.97167 -13.03164,8.07881 -13.06641,9.46484 -0.10622,4.24386 9.37668,8.01244 15.45312,7.76953 5.42677,-0.21693 10.77623,-3.46822 11.04688,-8.89258 0.21493,-4.30722 -6.47325,-8.67198 -12.28516,-8.44921 z"
         transform="scale(0.26458333)"
         id="rect88"
         inkscape:connector-curvature="0" />
      <path
         style="opacity:1;vector-effect:none;fill:#e9afaf;fill-opacity:1;stroke:none;stroke-width:2.79138875;stroke-linecap:round;stroke-linejoin:round;stroke-miterlimit:4;stroke-dasharray:none;stroke-dashoffset:0;stroke-opacity:1"
         d="m 56.037959,59.239962 c -2.936364,0 -5.316537,0.60895 -5.31654,1.36009 -3e-6,0.75113 2.380174,1.36007 5.31654,1.36009 2.936364,-2e-5 5.316538,-0.60896 5.316535,-1.36009 -3e-6,-0.75114 -2.380174,-1.36009 -5.316535,-1.36009 z"
         id="path4749"
         sodipodi:nodetypes="sscss"
         inkscape:connector-curvature="0"
         inkscape:label="chin"
         class="skin" />
      <path
         inkscape:connector-curvature="0"
         style="opacity:1;vector-effect:none;fill:none;fill-opacity:1;stroke:#000000;stroke-width:0.07357386;stroke-linecap:round;stroke-linejoin:round;stroke-miterlimit:4;stroke-dasharray:none;stroke-dashoffset:0;stroke-opacity:1"
         d="M 0.47805685,0.47804646 V 111.59788 H 111.59789 V 0.47804646 Z M 56.037975,2.7678295 A 53.270417,53.270417 0 0 1 109.30863,56.037972 53.270417,53.270417 0 0 1 56.037975,109.30862 53.270417,53.270417 0 0 1 2.7678399,56.037972 53.270417,53.270417 0 0 1 56.037975,2.7678295 Z"
         id="rect855"
         inkscape:label="frame" />
      <path
         inkscape:connector-curvature="0"
         style="opacity:1;vector-effect:none;fill:#e9afaf;fill-opacity:1;stroke:none;stroke-width:3.76166844;stroke-linecap:round;stroke-linejoin:round;stroke-miterlimit:4;stroke-dasharray:none;stroke-dashoffset:0;stroke-opacity:1"
         d="m 38.487465,39.242915 c -0.960954,-2.44e-4 -1.740102,0.777245 -1.740009,2.384645 9.3e-5,1.60718 0.779187,3.435218 1.740009,3.434974 0.960616,-2.44e-4 1.739387,-1.302694 1.73948,-2.909528 9.3e-5,-1.607054 -0.778733,-2.909847 -1.73948,-2.910091 z"
         id="path2060"
         inkscape:label="ear_left"
         sodipodi:nodetypes="sssss"
         class="skin" />
      <path
         sodipodi:nodetypes="sssss"
         inkscape:label="ear_right"
         id="path2117"
         d="m 73.588474,39.242915 c 0.960954,-2.44e-4 1.740102,0.777245 1.740009,2.384645 -9.3e-5,1.60718 -0.779187,3.435218 -1.740009,3.434974 -0.960616,-2.44e-4 -1.739387,-1.302694 -1.73948,-2.909528 -9.3e-5,-1.607054 0.778733,-2.909847 1.73948,-2.910091 z"
         style="opacity:1;vector-effect:none;fill:#e9afaf;fill-opacity:1;stroke:none;stroke-width:3.76166844;stroke-linecap:round;stroke-linejoin:round;stroke-miterlimit:4;stroke-dasharray:none;stroke-dashoffset:0;stroke-opacity:1"
         inkscape:connector-curvature="0"
         class="skin" />
    </g>
    <g
       style="display:none"
       id="g164"
       inkscape:groupmode="layer"
       inkscape:label="_eye_distance">
      <path
         style="opacity:1;vector-effect:none;fill:none;fill-opacity:1;stroke:#000000;stroke-width:0.25;stroke-linecap:round;stroke-linejoin:round;stroke-miterlimit:4;stroke-dasharray:none;stroke-dashoffset:0;stroke-opacity:1"
         d="m 189.14844,150.94141 c -5.81191,-0.22277 -12.5001,4.14199 -12.28516,8.44921 0.27065,5.42436 5.62011,8.67564 11.04688,8.89258 6.07644,0.24291 15.56132,-3.52567 15.45507,-7.76953 -0.0348,-1.38603 -6.63513,-8.49317 -13.06835,-9.46484 -0.37739,-0.057 -0.76098,-0.0927 -1.14844,-0.10742 z m 45.29687,0 c -0.38746,0.0148 -0.77109,0.0504 -1.14843,0.10742 -6.43326,0.97167 -13.03164,8.07881 -13.06641,9.46484 -0.10622,4.24386 9.37668,8.01244 15.45312,7.76953 5.42677,-0.21693 10.77623,-3.46822 11.04688,-8.89258 0.21493,-4.30722 -6.47325,-8.67198 -12.28516,-8.44921 z"
         id="path148"
         transform="scale(0.26458333)"
         inkscape:connector-curvature="0" />
    </g>
    <g
       inkscape:groupmode="layer"
       id="layer6"
       inkscape:label="_eye_height"
       style="display:none">
      <g
         id="g118"
         transform="translate(0,0.45345595)"
         style="fill:none;stroke:#000000;stroke-width:0.06614583">
        <path
           style="display:inline;opacity:1;vector-effect:none;fill:none;fill-opacity:1;stroke:#000000;stroke-width:0.25;stroke-linecap:round;stroke-linejoin:round;stroke-miterlimit:4;stroke-dasharray:none;stroke-dashoffset:0;stroke-opacity:1"
           d="m 181.14844,162.37695 c -5.81191,-0.22276 -12.5001,4.14199 -12.28516,8.44922 0.27065,5.42436 5.62011,8.67564 11.04688,8.89258 6.07644,0.24291 15.56132,-3.52567 15.45507,-7.76953 -0.0348,-1.38603 -6.63513,-8.49317 -13.06835,-9.46484 -0.37739,-0.057 -0.76098,-0.0927 -1.14844,-0.10743 z m 61.29687,0 c -0.38746,0.0148 -0.77109,0.0504 -1.14843,0.10743 -6.43326,0.97167 -13.03164,8.07881 -13.06641,9.46484 -0.10622,4.24386 9.37668,8.01244 15.45312,7.76953 5.42677,-0.21694 10.77623,-3.46822 11.04688,-8.89258 0.21493,-4.30723 -6.47325,-8.67198 -12.28516,-8.44922 z"
           transform="matrix(0.26458333,0,0,0.26458333,0,-0.45345595)"
           id="rect88-3"
           inkscape:connector-curvature="0" />
      </g>
    </g>
    <g
       inkscape:groupmode="layer"
       id="layer5"
       inkscape:label="_eye_size"
       style="display:none">
      <path
         style="display:inline;opacity:1;vector-effect:none;fill:none;fill-opacity:1;stroke:#000000;stroke-width:0.25;stroke-linecap:round;stroke-linejoin:round;stroke-miterlimit:4;stroke-dasharray:none;stroke-dashoffset:0;stroke-opacity:1"
         d="m 180.97852,156.35352 -1.01758,0.0273 c -5.47717,0.0182 -10.73268,1.32294 -10.76367,3.61328 -0.0556,1.85029 4.306,3.3629 10.60546,3.58789 5.41905,0.19355 13.51215,-0.91075 14.11915,-2.60547 -0.0348,-1.38603 -5.33935,-4.14463 -11.6211,-4.52929 -0.37738,-0.057 -0.9348,-0.079 -1.32226,-0.0937 z m 60.99218,0.37109 c -0.38746,0.015 -0.76718,0.0291 -1.02343,0.0469 -6.30826,0.34667 -11.73282,3.27609 -11.77149,4.4668 0.13597,2.27511 11.8894,2.87449 13.44531,2.7461 5.31629,-0.12855 11.3222,-1.36837 11.28516,-3.61719 -0.0412,-2.49209 -6.31083,-3.68355 -10.75977,-3.61914 z"
         transform="scale(0.26458333)"
         id="rect88-6"
         inkscape:connector-curvature="0" />
    </g>
    <g
       style="display:none"
       id="g2778"
       inkscape:groupmode="layer"
       inkscape:label="_ear_size">
      <path
         style="opacity:1;vector-effect:none;fill:none;fill-opacity:1;stroke:#000000;stroke-width:0.24999999;stroke-linecap:round;stroke-linejoin:round;stroke-miterlimit:4;stroke-dasharray:0.49999998, 0.99999995;stroke-dashoffset:0;stroke-opacity:1"
         d="m 140.88672,145.52148 c -4.90971,-0.001 -8.88915,4.65541 -8.88867,11.54493 4.8e-4,6.88857 3.97964,16.04792 8.88867,16.04687 4.90797,-0.001 10.8882,-6.90783 10.88867,-13.79492 4.8e-4,-6.88804 -5.98003,-13.79583 -10.88867,-13.79688 z m 141.82031,0 c -4.90864,0.001 -10.88915,6.90884 -10.88867,13.79688 4.7e-4,6.88709 5.9807,13.79387 10.88867,13.79492 4.90903,0.001 8.88819,-9.1583 8.88867,-16.04687 4.8e-4,-6.88952 -3.97896,-11.54597 -8.88867,-11.54493 z"
         transform="scale(0.26458333)"
         id="path2774"
         inkscape:connector-curvature="0" />
    </g>
    <g
       inkscape:groupmode="layer"
       id="layer2"
       inkscape:label="_cheek_low"
       style="display:inline">
      <path
         style="opacity:1;vector-effect:none;fill:none;fill-opacity:1;stroke:#000000;stroke-width:0.25;stroke-linecap:round;stroke-linejoin:round;stroke-miterlimit:4;stroke-dasharray:none;stroke-dashoffset:0;stroke-opacity:1"
         d="m 202.32812,86.9375 c -15.79511,0 -57.01953,12.335362 -57.01953,50.80664 0,5.46031 0.28842,10.20842 0.77539,14.41016 -0.2651,0.007 -0.52928,0.0304 -0.79101,0.0898 -3.5418,0.80423 -5.7631,4.32211 -4.41602,10.24609 1.3469,5.92317 5.75012,12.00709 9.29102,11.20118 0.42532,-0.0968 0.8232,-0.26458 1.19531,-0.48829 2.50217,6.12173 5.18581,10.67647 6.78125,15.9004 9.15599,29.97927 25.51712,38.89894 38.0957,41.51953 3.04539,1.73563 8.86645,2.91208 15.55665,2.91211 6.68913,-3e-5 12.5089,-1.17693 15.55468,-2.91211 12.57898,-2.61979 28.94291,-11.53787 38.09961,-41.51953 1.58467,-5.18862 4.24284,-9.71216 6.73047,-15.77149 0.30073,0.15457 0.61228,0.28358 0.94531,0.35938 3.5409,0.80591 7.94412,-5.27801 9.29102,-11.20118 1.34708,-5.92398 -0.87422,-9.44186 -4.41602,-10.24609 -0.16304,-0.037 -0.32766,-0.052 -0.49218,-0.0684 0.48848,-4.20696 0.77539,-8.9621 0.77539,-14.43164 0,-38.471278 -41.22244,-50.80664 -57.01758,-50.80664 h -9.4707 z"
         transform="scale(0.26458333)"
         id="rect23538-3"
         inkscape:connector-curvature="0" />
    </g>
    <g
       inkscape:groupmode="layer"
       id="layer3"
       inkscape:label="_cheek_high"
       style="display:none">
      <path
         style="opacity:1;vector-effect:none;fill:none;fill-opacity:1;stroke:#000000;stroke-width:0.25;stroke-linecap:round;stroke-linejoin:round;stroke-miterlimit:4;stroke-dasharray:none;stroke-dashoffset:0;stroke-opacity:1"
         d="m 202.32812,86.9375 c -15.79511,0 -57.01953,12.335362 -57.01953,50.80664 0,1.38786 0.11165,4.68722 -0.16211,9.0293 -3.14184,-0.50671 -6.34888,1.50167 -8.08789,6.70508 -1.92541,5.76115 -1.32333,13.24608 2.1211,14.39648 0.46979,0.1569 0.95798,0.2169 1.45312,0.19922 -0.28148,0.70751 -0.56688,1.41501 -0.88281,2.11914 -15.10484,33.66545 7.0226,55.14848 44.32422,60.29297 2.25899,3.26438 18.0103,5.26168 27.72266,5.26172 9.68699,-4e-5 24.26231,-2.25274 27.63867,-5.25 37.35387,-5.1232 59.52471,-26.61325 44.4082,-60.30469 -0.31592,-0.70413 -0.60133,-1.41163 -0.88281,-2.11914 0.49514,0.0177 0.98333,-0.0423 1.45312,-0.19922 3.44443,-1.1504 4.04651,-8.63533 2.1211,-14.39648 -1.73917,-5.20388 -4.94577,-7.2123 -8.08789,-6.70508 -0.27376,-4.34208 -0.16211,-7.64144 -0.16211,-9.0293 0,-38.471278 -41.22248,-50.80664 -57.01758,-50.80664 h -9.4707 z"
         transform="scale(0.26458333)"
         id="rect23538-6"
         inkscape:connector-curvature="0" />
    </g>
  </g>
  <g
     inkscape:groupmode="layer"
     id="layer8"
     inkscape:label="default"
     style="display:inline">
    <path
       style="opacity:1;vector-effect:none;fill:#552200;fill-opacity:1;stroke:none;stroke-width:0.5;stroke-linecap:round;stroke-linejoin:round;stroke-miterlimit:4;stroke-dasharray:none;stroke-dashoffset:0;stroke-opacity:1"
       d="m 38.452948,45.058747 c -0.185441,2.493759 -0.18565,6.713861 1.781289,9.487795 0.102537,0.144602 0.206873,0.27764 0.310573,0.413927 8.5e-5,1.09e-4 -8.2e-5,4.07e-4 0,5.16e-4 -0.08117,0.782397 0.228357,1.590958 0.474909,2.395204 0.388654,0.0087 0.676505,0.03963 0.791681,-0.202057 l 0.05426,0.04858 c 0.06022,0.972087 0.766093,2.005986 1.401466,2.936255 0.1046,-0.619405 0.310771,-0.640037 0.474906,-1.260906 l 0.02067,0.01809 c -0.07599,0.88751 0.117411,1.804554 0.876432,2.784843 0.115859,-0.316582 0.246835,-0.630661 0.325562,-0.953432 -0.01197,0.534334 0.24539,1.055662 0.470257,1.578716 0.225544,-0.304096 0.366416,-0.645768 0.802534,-0.856279 0.174025,1.176991 -0.184933,2.250668 0.802535,3.585829 0.09267,-0.590274 0.233867,-1.166529 0.749307,-1.632458 -0.08515,1.606685 1.586918,3.146092 3.318145,4.682916 0.56261,-0.483282 0.367284,-1.118325 0.240813,-1.739426 0.297469,1.096214 1.625489,1.911424 2.648932,2.809647 0.162293,-0.273547 0.491485,-0.401092 0.568441,-0.749308 0.149384,0.499436 0.548558,0.999178 1.117246,1.498616 -0.06643,-1.118645 0.09098,-2.19997 0.303339,-3.272152 0.0045,-8.2e-5 0.009,7.9e-5 0.01344,0 l 0.91209,2.38125 1.07487,-2.521294 c 0.05842,-0.008 0.116477,-0.01711 0.174667,-0.02584 0.110585,0.831178 0.0376,1.176232 -0.143145,1.924947 1.310487,-0.655372 1.702983,-1.374333 2.367299,-2.443263 0.04772,-0.01519 0.0946,-0.0324 0.142108,-0.04806 -0.10844,0.529151 -0.06054,0.758063 0.0615,1.030947 0.441923,-0.524949 1.068911,-0.770234 1.17357,-1.497584 0.01302,-0.0056 0.02574,-0.01191 0.03876,-0.01757 0.206918,0.540051 0.511599,0.768297 0.977202,1.024228 0.564028,-0.722593 0.67505,-1.080267 0.963247,-1.87172 l 0.42168,1.040246 c 0.408175,-0.714256 0.993053,-1.47711 1.169956,-2.321306 0.01389,-0.01101 0.02852,-0.02098 0.04237,-0.03204 0.02148,0.479181 0.218217,0.437351 0.423748,1.032494 0.722488,-0.836512 0.730399,-1.43605 0.981335,-2.289265 0.0587,-0.05829 0.1183,-0.115533 0.176217,-0.174667 0.0273,0.365979 0.110064,0.580903 0.37827,0.994253 1.018103,-1.146952 1.040328,-1.764 1.512054,-3.102652 0.01283,-0.01606 0.02648,-0.03091 0.03928,-0.04702 -0.03642,0.722095 0.286713,0.348231 0.545703,1.03301 0.379288,-0.950167 0.374277,-1.567114 0.348813,-2.270144 0.148596,-0.227917 0.290648,-0.461904 0.42685,-0.701249 l 0.216524,0.336413 c 0.0231,-0.248338 0.0086,-0.473922 -0.02481,-0.68833 0.348507,-0.660548 0.645718,-1.363686 0.863515,-2.120802 0.138287,-0.180451 0.275283,-0.363884 0.40876,-0.553971 1.843649,-2.625564 2.398562,-6.694329 1.982309,-9.305375 -1.71763,2.625942 -2.050513,2.687042 -4.464328,4.378029 -1.945838,1.363144 -3.204514,3.615367 -5.079277,3.993555 -0.690947,0.139379 -1.305764,0.03793 -1.91461,-0.180351 0.106095,-0.06273 0.186388,-0.150992 0.22996,-0.274921 -0.217564,0.06907 -0.436793,0.09909 -0.65681,0.104386 -0.825627,-0.362936 -1.671349,-0.892775 -2.70991,-1.30638 0.200038,-0.116734 0.348509,-0.27881 0.463537,-0.470254 -0.367911,0.1891 -0.790871,0.235167 -1.243851,0.203089 -0.698728,-0.208431 -1.480405,-0.350367 -2.39572,-0.350367 -1.716207,0 -2.975454,0.480378 -4.051948,1.005623 -0.469085,0.05084 -0.952463,0.03639 -1.473296,-0.149344 0.298702,0.274286 0.578041,0.410305 0.846461,0.467154 -0.174191,0.0905 -0.356188,0.183459 -0.524,0.269234 -0.669025,0.118952 -1.327144,0.131763 -1.969389,-0.01705 0.265758,0.28766 0.555975,0.44196 0.861963,0.517282 -0.609915,0.219064 -1.225593,0.321516 -1.917714,0.181901 -1.85184,-0.37356 -3.266164,-2.065597 -4.911328,-3.966168 C 40.670226,47.408796 39.164,47.479545 38.452956,45.058753 Z m 17.537949,9.146212 c 0.194484,0.02439 0.398724,0.06214 0.607716,0.104386 0.24039,0.331153 0.671764,0.560232 1.090372,0.796335 0.05055,-0.174678 0.132902,-0.338468 0.113688,-0.536403 0.03635,0.0078 0.0697,0.0155 0.106453,0.02325 0.292917,0.292946 0.834898,0.559583 1.29346,0.835091 -0.07853,-0.212868 -0.158562,-0.42586 -0.186033,-0.644404 0.129714,0.01664 0.25737,0.03513 0.391707,0.04702 0.219821,0.1745 0.482516,0.334497 0.948778,0.426847 -0.139338,-0.13062 -0.214075,-0.261086 -0.255797,-0.391708 0.241565,0.0028 0.490109,-0.0043 0.746207,-0.02429 0.712549,1.26777 -1.284676,3.58531 -1.284676,3.58531 -0.684287,0.171095 -1.346251,0.437062 -2.167311,0.02687 -0.475369,-0.04511 -0.343667,-0.48 -0.415478,-0.749308 l -1.083138,0.0015 -0.895035,-0.0015 c -0.07181,0.269308 0.05938,0.704199 -0.415996,0.749308 -0.800639,0.475903 -1.544508,0.599827 -2.167308,-0.02687 0,0 -1.99671,-2.31754 -1.284161,-3.58531 0.311063,0.02424 0.609955,0.02761 0.899687,0.01912 -0.06216,0.173643 -0.10918,0.349964 -0.134874,0.529685 0.407696,-0.217662 0.894093,-0.374735 1.254186,-0.62942 0.01617,-0.0024 0.03352,-0.0038 0.04961,-0.0062 -0.081,0.133848 -0.127712,0.271759 -0.187584,0.408244 0.592069,-0.08859 0.950857,-0.343818 1.281575,-0.619082 0.0097,-0.0021 0.01921,-0.0041 0.02894,-0.0062 -0.1329,0.174678 -0.185743,0.365397 -0.269751,0.549836 0.615604,-0.222168 1.320504,-0.376605 1.629357,-0.832506 0.1025,-0.0176 0.206579,-0.03722 0.305409,-0.04961 z"
       id="path1196"
       inkscape:connector-curvature="0"
       class="hair"
       inkscape:label="beard"
       sodipodi:nodetypes="cccccccccccccccccccccccccccccccccccccccccccccccccccccccccccscccccccccccccccccccccccccccccccccccccccc" />
  </g>
  <g
     style="display:inline"
     inkscape:label="_cheek_low"
     id="g1362"
     inkscape:groupmode="layer">
    <path
       sodipodi:nodetypes="cccccccccccccccccccccccccccccccccccccccccccccccccccccccccccscccccccccccccccccccccccccccccccccccccccc"
       inkscape:label="beard"
       class="hair"
       inkscape:connector-curvature="0"
       id="path1360"
       d="m 40.048201,45.826648 c 0.670809,2.814852 1.815799,6.251087 2.311059,8.570138 0.102537,0.144602 0.01767,1.412878 0.149748,1.69107 0.217672,-0.472907 0.406712,-0.472609 0.406794,-0.4725 -0.08117,0.782397 -0.0992,2.306533 0.331316,2.826477 0.1378,-0.616764 0.285172,-0.515595 0.400348,-0.757282 l 0.08102,-0.03504 c 0.06022,0.972087 0.133087,1.628803 0.76846,2.559072 0.1046,-0.619405 0.474565,-0.50226 0.745731,-0.654867 l 0.294336,-0.173926 c -0.142212,0.319891 -0.840784,1.093472 -0.08176,2.073761 0.115859,-0.316582 0.179941,-0.777829 0.258668,-1.1006 -0.01197,0.534334 -0.115841,0.988767 0.149163,1.578716 0.225544,-0.304096 0.19736,-0.441166 0.374409,-0.48167 0.0605,0.401245 0.06103,1.200573 1.048503,2.535734 0.09267,-0.590274 0.479835,-1.043545 0.711466,-1.178363 -0.08515,1.606685 1.057697,3.15342 3.029745,4.395908 -0.02606,-0.831133 0.634862,-1.466176 0.508391,-2.087277 0.297469,1.096214 1.438184,2.669267 2.461627,3.56749 0.162293,-0.273547 0.491485,-1.129536 0.568441,-1.477752 0.149384,0.499436 0.340431,0.686987 0.909119,1.186425 -0.06643,-1.118645 0.299107,-1.159335 0.511466,-2.231517 0.0045,-8.2e-5 0.009,7.9e-5 0.01344,0 l 1.053995,1.435218 0.932965,-2.160579 c 0.05842,-0.008 0.116477,-0.01711 0.174667,-0.02584 0.120045,0.358162 0.34979,0.693756 0.169045,1.442471 1.310487,-0.655372 1.390793,-0.891857 2.055109,-1.960787 0.04772,-0.01519 0.0946,-0.0324 0.142108,-0.04806 -0.10844,0.529151 -0.06054,0.758063 0.0615,1.030947 0.441923,-0.524949 1.068911,-1.969734 1.17357,-2.575769 0.01302,-0.0047 0.02574,-0.0099 0.03876,-0.01464 0.206918,0.449976 0.511599,0.640153 0.977202,0.853398 0.564028,-0.602072 0.67505,-0.90009 0.963247,-1.559537 l 0.42168,0.866744 c 0.408175,-0.595126 0.993053,-1.230744 1.169956,-1.934137 0.01389,-0.0092 0.02852,-0.01748 0.04237,-0.0267 0.02148,0.399259 0.218217,0.364406 0.423748,0.860285 0.722488,-0.69699 0.730399,-1.196532 0.981335,-1.90744 0.0587,-0.04857 0.1183,-0.09626 0.176217,-0.145534 0.0273,0.304938 0.110064,0.484015 0.37827,0.828422 1.018103,-0.955652 0.438277,-1.469783 0.910003,-2.585162 0.01283,-0.01338 0.03726,-0.06832 0.05006,-0.08175 0.275771,0.322577 0.163729,0.498277 0.422719,1.068842 0.379288,-0.791689 0.568214,-1.556435 0.54275,-2.142207 0,-0.280554 -0.443566,-0.893759 -0.307367,-1.093184 l 0.596002,0.865395 c 0.0231,-0.206918 0.223614,-1.015911 0.0956,-1.468907 -0.119754,-0.511359 -0.429614,-2.047973 0.312634,-1.442945 0.138287,-0.150353 0.05561,-1.172159 0.189089,-1.330542 0.131149,-1.541095 1.186979,-3.741148 1.867796,-7.047897 -1.61108,0.422512 -2.422598,2.876839 -3.203033,3.821968 -1.945838,1.363144 -2.826101,3.70997 -4.700864,4.088158 -0.690947,0.139379 -1.305764,0.03793 -1.91461,-0.180351 0.106095,-0.06273 0.186388,-0.150992 0.22996,-0.274921 -0.217564,0.06907 -0.436793,0.09909 -0.65681,0.104386 -0.825627,-0.362936 -1.671349,-0.892775 -2.70991,-1.30638 0.200038,-0.116734 0.348509,-0.27881 0.463537,-0.470254 -0.367911,0.1891 -0.790871,0.235167 -1.243851,0.203089 -0.698728,-0.208431 -1.480405,-0.350367 -2.39572,-0.350367 -1.716207,0 -2.975454,0.480378 -4.051948,1.005623 -0.469085,0.05084 -0.952463,0.03639 -1.473296,-0.149344 0.298702,0.274286 0.578041,0.410305 0.846461,0.467154 -0.174191,0.0905 -0.356188,0.183459 -0.524,0.269234 -0.669025,0.118952 -1.327144,0.131763 -1.969389,-0.01705 0.265758,0.28766 0.555975,0.44196 0.861963,0.517282 -0.609915,0.219064 -1.225593,0.321516 -1.917714,0.181901 -1.85184,-0.37356 -1.670919,-1.297702 -3.316083,-3.198273 -2.073941,-2.395921 -2.402824,-1.977321 -3.113868,-4.398113 z m 15.942696,8.378311 c 0.194484,0.02439 0.398724,0.06214 0.607716,0.104386 0.24039,0.331153 0.671764,0.560232 1.090372,0.796335 0.05055,-0.174678 0.132902,-0.338468 0.113688,-0.536403 0.03635,0.0078 0.0697,0.0155 0.106453,0.02325 0.292917,0.292946 0.834898,0.559583 1.29346,0.835091 -0.07853,-0.212868 -0.158562,-0.42586 -0.186033,-0.644404 0.129714,0.01664 0.25737,0.03513 0.391707,0.04702 0.219821,0.1745 0.482516,0.334497 0.948778,0.426847 -0.139338,-0.13062 -0.214075,-0.261086 -0.255797,-0.391708 0.241565,0.0028 0.490109,-0.0043 0.746207,-0.02429 0.712549,1.26777 -1.284676,3.58531 -1.284676,3.58531 -0.684287,0.171095 -1.346251,0.437062 -2.167311,0.02687 -0.475369,-0.04511 -0.343667,-0.48 -0.415478,-0.749308 l -1.083138,0.0015 -0.895035,-0.0015 c -0.07181,0.269308 0.05938,0.704199 -0.415996,0.749308 -0.800639,0.475903 -1.544508,0.599827 -2.167308,-0.02687 0,0 -1.99671,-2.31754 -1.284161,-3.58531 0.311063,0.02424 0.609955,0.02761 0.899687,0.01912 -0.06216,0.173643 -0.10918,0.349964 -0.134874,0.529685 0.407696,-0.217662 0.894093,-0.374735 1.254186,-0.62942 0.01617,-0.0024 0.03352,-0.0038 0.04961,-0.0062 -0.081,0.133848 -0.127712,0.271759 -0.187584,0.408244 0.592069,-0.08859 0.950857,-0.343818 1.281575,-0.619082 0.0097,-0.0021 0.01921,-0.0041 0.02894,-0.0062 -0.1329,0.174678 -0.185743,0.365397 -0.269751,0.549836 0.615604,-0.222168 1.320504,-0.376605 1.629357,-0.832506 0.1025,-0.0176 0.206579,-0.03722 0.305409,-0.04961 z"
       style="opacity:1;vector-effect:none;fill:#552200;fill-opacity:1;stroke:none;stroke-width:0.5;stroke-linecap:round;stroke-linejoin:round;stroke-miterlimit:4;stroke-dasharray:none;stroke-dashoffset:0;stroke-opacity:1" />
  </g>
  <g
     inkscape:groupmode="layer"
     id="layer9"
     inkscape:label="%0.2 var_1"
     style="display:inline">
    <path
       inkscape:connector-curvature="0"
       style="display:inline;opacity:0.4;vector-effect:none;fill:#ffffff;fill-opacity:1;stroke:none;stroke-width:0.5;stroke-linecap:round;stroke-linejoin:round;stroke-miterlimit:4;stroke-dasharray:none;stroke-dashoffset:0;stroke-opacity:1"
       d="m 55.09421,59.377741 c -0.07181,0.269309 -0.101167,0.409863 -0.576543,0.454972 -0.39955,0.534551 -0.678551,1.229508 -0.775664,2.167311 0.272093,-0.396711 0.593437,-0.611518 1.016477,-0.454753 -0.130064,0.680008 -0.542774,1.112441 -0.856279,1.631942 0.462394,-0.05229 0.920414,-0.113707 1.286743,-0.358119 -0.352764,0.436608 -0.534655,0.978297 -0.778248,1.48208 0.550116,-0.339506 1.097335,-0.686986 1.819529,-0.53485 -1.535796,0.375584 -1.934036,2.024684 -2.889748,3.049942 l 2.408121,-1.09709 c -0.566362,0.532503 -1.185902,1.012182 -1.322916,1.974041 0.05611,-0.163769 0.104346,-0.314995 0.127124,-0.418063 0.04353,0.145542 0.09197,0.263546 0.150894,0.371554 0.198438,-0.2834 0.506614,-0.448643 0.96325,-0.453202 0.100804,-0.245382 0.216006,-0.506648 0.306441,-0.96325 0.0045,-8.2e-5 0.009,8e-5 0.01344,0 l 1.0542,1.435055 0.922941,-2.137854 c -0.222422,-0.38413 -0.267986,-0.877271 -0.267684,-1.398366 0.3517,-0.399176 0.714941,-0.642556 1.116727,-0.340547 -0.18179,-1.068494 -1.005364,-1.128099 -1.513602,-1.683618 0.412319,0.324834 0.702424,0.161253 0.9648,-0.113686 -0.682304,-0.148487 -0.780719,-0.686218 -1.040765,-1.116211 0.461206,-0.116737 0.850025,0.05548 1.210779,0.340547 0.08576,-0.504594 -0.0393,-0.864242 -0.248047,-1.166338 -0.270571,-0.0052 -0.553635,-0.06404 -0.858861,-0.216525 -0.0213,-0.0021 -0.03532,-0.0089 -0.05426,-0.01241 l -0.768428,1.054717 0.643371,1.948717 -0.794784,3.33003 c 0.034,-0.872985 -0.468233,-1.040826 -1.106393,-1.029396 -0.02222,-0.602028 0.586309,-0.741267 1.071769,-0.971 l 0.223758,-0.894519 c 0.01995,-0.469135 -0.2883,-0.800193 -0.946195,-0.983919 -0.02548,-0.481883 -0.396425,-1.015423 0.227378,-1.399913 -0.548571,-0.0131 -0.515204,-0.336497 -0.548804,-0.624253 0.08298,-0.61283 0.405897,-0.935059 0.804085,-1.166336 l -0.250114,5.29e-4 z m -7.147203,1.394449 c -0.461905,-0.0075 -0.72067,0.196988 -0.921907,0.461989 -0.181768,0.567677 0.08636,0.93118 0.454237,1.249019 0.133014,0.584689 -0.25854,0.754388 -0.615984,0.950846 0.02751,0.04648 0.04888,0.08881 0.07906,0.136943 l 0.259416,0.08992 -0.0155,-0.01394 c 0.06602,0.02513 0.127042,0.04086 0.184486,0.05064 0.15576,-0.410988 0.431956,-0.714714 0.613915,-0.820624 -0.009,0.169217 -0.0013,0.337278 0.01654,0.50488 0.228362,-0.358592 0.322707,-0.904718 0.556557,-1.069186 -1.507075,-0.460259 -0.345411,-0.977313 -0.07545,-1.456759 -0.204525,-0.05536 -0.381397,-0.08121 -0.535368,-0.08372 z m 13.079307,0.04599 c -0.238488,0.160563 -0.66529,0.154461 -0.510564,0.661977 -0.195633,0.390464 -0.453898,0.480095 -0.775663,0.2651 l 0.699698,0.643371 -0.189134,0.491958 c 0.346453,0.113948 1.441275,-0.274383 1.466577,0.160716 -0.581205,0.224195 -0.87607,0.77325 -1.106911,1.050065 0.382006,-0.19813 0.748919,-0.481393 1.130165,-0.683681 0.0024,-0.01204 0.0073,-0.02834 0.0093,-0.03979 0.01302,-0.0047 0.02574,-0.01024 0.03876,-0.01498 0.0041,0.0089 0.0088,0.01614 0.01291,0.02479 0.317892,-0.160189 0.646277,-0.260572 1.003571,-0.194302 -0.503442,-0.293512 -0.865635,-0.66657 -1.967839,-0.624768 -0.342027,-0.431996 0.0667,-0.696767 0.378788,-0.983404 -0.5643,-0.332472 -0.189629,-0.514871 -0.189653,-0.75706 z m -9.585463,0.03152 c -0.01291,0.233514 -0.201279,0.488633 0.32091,0.65526 -0.33165,0.165256 -0.770538,0.151299 -0.802534,0.815969 0.178948,-0.226025 0.351118,-0.468312 0.668692,-0.347781 l 0.174152,0.281119 c -0.02,-0.567769 0.283868,-0.703736 0.454752,-1.016992 -0.411919,0.132945 -0.689443,0.01458 -0.815972,-0.387575 z m 12.296926,0.74621 c 0.04575,0.419108 -0.161073,0.639363 -0.591696,0.683162 0.188571,0.145704 0.398849,0.198107 0.580843,0.37207 7.93e-4,-0.0016 0.0013,-0.0026 0.0021,-0.0041 l 0.0057,0.01188 c 0.08752,0.08579 0.168968,0.198113 0.236678,0.368454 l 0.04651,-0.327112 c 0.227216,-0.223118 0.466061,-0.102368 0.704866,0.02479 0.0058,-0.0082 0.01177,-0.01611 0.01757,-0.02429 -0.29294,-0.528099 -0.674935,-0.358228 -1.033011,-0.375686 0.411204,-0.362428 0.136141,-0.520509 0.03049,-0.729154 z m -12.811623,1.249019 c -0.792168,-0.02524 -0.940451,0.787032 -1.403532,1.18959 0.441819,-0.05595 0.749424,-0.433903 1.419034,0.05685 -0.952595,1.023334 -0.649729,1.968444 -0.332795,2.912483 0.06696,0.04642 0.136488,0.09179 0.205673,0.137459 l 0.0925,0.05736 0.117824,-0.148312 c 0.04624,-0.423275 0.24643,-0.796366 0.383439,-1.145667 -0.08683,-0.04385 -0.183081,-0.07219 -0.296105,-0.07235 -0.0752,-0.972373 0.258273,-1.632747 1.040762,-1.949233 -0.40355,0.01852 -0.827855,0.130098 -1.135332,-0.283705 0.06263,-0.214212 0.09316,-0.468585 0.151929,-0.665075 l -0.07648,-0.07286 c -0.05882,-0.0095 -0.11411,-0.01484 -0.166916,-0.01654 z m 11.689726,1.170987 c -0.01691,0.02857 -0.03021,0.06139 -0.04392,0.09354 0.02013,0.01024 0.04065,0.02082 0.06149,0.031 -0.0054,-0.0412 -0.0089,-0.08074 -0.01757,-0.12454 z m -2.326989,0.03772 c 0.159358,0.238398 0.03716,0.591701 0.699698,0.62425 -0.236622,0.08875 -0.384442,0.196517 -0.486275,0.314193 -0.08549,0.467191 -0.04112,0.694187 0.0739,0.951365 0.08057,-0.09571 0.16773,-0.228976 0.256315,-0.375171 0.01312,-0.05359 0.04621,-0.11008 0.101802,-0.1695 0.141475,-0.253085 0.281625,-0.544939 0.407209,-0.835091 -0.46382,-0.120579 -0.889241,-0.257961 -1.052647,-0.510046 z m -7.340638,0.570508 0.03462,0.05116 0.0027,-0.01603 z m 5.35988,1.292426 c 0.07258,0.234323 0.110926,0.520063 0.02223,0.935345 0.282157,-0.03847 0.555704,-0.256781 0.823203,-0.603581 -0.365522,-0.05906 -0.638485,-0.17507 -0.845426,-0.331764 z"
       id="path1416"
       sodipodi:nodetypes="ccccccccccccccccccccccccccccccccccccccccccccccccccccccccccccccccccccccccccccccccccccccccccccccccccccccccccccccccccccccccccccc" />
  </g>
</svg>
