<?xml version="1.0" encoding="UTF-8" standalone="no"?>
<!-- Created with Inkscape (http://www.inkscape.org/) -->

<svg
   xmlns:dc="http://purl.org/dc/elements/1.1/"
   xmlns:cc="http://creativecommons.org/ns#"
   xmlns:rdf="http://www.w3.org/1999/02/22-rdf-syntax-ns#"
   xmlns:svg="http://www.w3.org/2000/svg"
   xmlns="http://www.w3.org/2000/svg"
   xmlns:sodipodi="http://sodipodi.sourceforge.net/DTD/sodipodi-0.dtd"
   xmlns:inkscape="http://www.inkscape.org/namespaces/inkscape"
   width="112.07594mm"
   height="112.07593mm"
   viewBox="0 0 112.07594 112.07593"
   version="1.1"
   id="svg19053"
   sodipodi:docname="fac_hair_11.svg"
   inkscape:version="0.92.3 (unknown)">
  <sodipodi:namedview
     pagecolor="#ffffff"
     bordercolor="#666666"
     borderopacity="1"
     objecttolerance="10"
     gridtolerance="10"
     guidetolerance="10"
     inkscape:pageopacity="0"
     inkscape:pageshadow="2"
     inkscape:window-width="1920"
     inkscape:window-height="1023"
     id="namedview29025"
     showgrid="false"
     inkscape:zoom="2.8284271"
     inkscape:cx="92.70403"
     inkscape:cy="167.48573"
     inkscape:window-x="0"
     inkscape:window-y="27"
     inkscape:window-maximized="1"
     inkscape:current-layer="g2284" />
  <defs
     id="defs19047" />
  <metadata
     id="metadata19050">
    <rdf:RDF>
      <cc:Work
         rdf:about="">
        <dc:format>image/svg+xml</dc:format>
        <dc:type
           rdf:resource="http://purl.org/dc/dcmitype/StillImage" />
        <dc:title></dc:title>
      </cc:Work>
    </rdf:RDF>
  </metadata>
  <g
     inkscape:groupmode="layer"
     id="layer4"
     inkscape:label="ignore"
     style="display:inline"
     sodipodi:insensitive="true">
    <g
       inkscape:label="base"
       inkscape:groupmode="layer"
       id="layer1"
       style="display:inline">
      <path
         style="opacity:1;vector-effect:none;fill:#ececec;fill-opacity:1;stroke:none;stroke-width:0.07242015;stroke-linecap:round;stroke-linejoin:round;stroke-miterlimit:4;stroke-dasharray:none;stroke-dashoffset:0;stroke-opacity:1"
         d="M 1.3494019,1.3493915 H 110.72654 V 110.72653 H 1.3494019 Z"
         id="rect853"
         inkscape:label="bg"
         inkscape:connector-curvature="0" />
      <path
         style="opacity:1;vector-effect:none;fill:#de8787;fill-opacity:1;stroke:none;stroke-width:2.13111639;stroke-linecap:round;stroke-linejoin:round;stroke-miterlimit:4;stroke-dasharray:none;stroke-dashoffset:0;stroke-opacity:1"
         d="m 49.678955,56.419812 v 9.47642 c -9.982869,1.19871 -16.93067,5.25588 -16.944481,9.89449 0.0044,0.1053 0.01207,0.21055 0.02388,0.31574 h -0.02388 v 33.167488 h 21.296957 2.006532 V 56.419812 Z"
         id="rect23540"
         inkscape:connector-curvature="0"
         inkscape:label="body_left"
         class="body" />
      <path
         id="path23835"
         d="m 62.39697,56.419812 v 9.47642 c 9.982867,1.19871 16.930671,5.25588 16.944486,9.89449 -0.0049,0.1053 -0.01209,0.21055 -0.02389,0.31574 h 0.02389 V 109.27395 H 58.044494 56.037963 V 56.419812 Z"
         style="opacity:1;vector-effect:none;fill:#de8787;fill-opacity:1;stroke:none;stroke-width:2.13111615;stroke-linecap:round;stroke-linejoin:round;stroke-miterlimit:4;stroke-dasharray:none;stroke-dashoffset:0;stroke-opacity:1"
         inkscape:connector-curvature="0"
         inkscape:label="body_right"
         class="body" />
      <path
         style="opacity:1;vector-effect:none;fill:#e9afaf;fill-opacity:1;stroke:none;stroke-width:31.10890579;stroke-linecap:round;stroke-linejoin:round;stroke-miterlimit:4;stroke-dasharray:none;stroke-dashoffset:0;stroke-opacity:1"
         d="m 202.32812,86.9375 c -15.79511,0 -57.01953,12.335362 -57.01953,50.80664 v 43.14453 c 0,38.2002 41.22442,50.8086 57.01953,50.8086 h 9.46876 9.4707 c 15.79512,0 57.01758,-12.6084 57.01758,-50.8086 v -43.14453 c 0,-38.471278 -41.22246,-50.80664 -57.01758,-50.80664 h -9.4707 z"
         id="rect23538"
         inkscape:connector-curvature="0"
         transform="scale(0.26458333)" />
      <path
         style="opacity:1;vector-effect:none;fill:#ffffff;fill-opacity:1;stroke:none;stroke-width:1.43196714;stroke-linecap:round;stroke-linejoin:round;stroke-miterlimit:4;stroke-dasharray:none;stroke-dashoffset:0;stroke-opacity:1"
         d="m 181.14844,150.94141 c -5.81191,-0.22277 -12.5001,4.14199 -12.28516,8.44921 0.27065,5.42436 5.62011,8.67564 11.04688,8.89258 6.07644,0.24291 15.56132,-3.52567 15.45507,-7.76953 -0.0348,-1.38603 -6.63513,-8.49317 -13.06835,-9.46484 -0.37739,-0.057 -0.76098,-0.0927 -1.14844,-0.10742 z m 61.29687,0 c -0.38746,0.0148 -0.77109,0.0504 -1.14843,0.10742 -6.43326,0.97167 -13.03164,8.07881 -13.06641,9.46484 -0.10622,4.24386 9.37668,8.01244 15.45312,7.76953 5.42677,-0.21693 10.77623,-3.46822 11.04688,-8.89258 0.21493,-4.30722 -6.47325,-8.67198 -12.28516,-8.44921 z"
         transform="scale(0.26458333)"
         id="rect88"
         inkscape:connector-curvature="0" />
      <path
         style="opacity:1;vector-effect:none;fill:#e9afaf;fill-opacity:1;stroke:none;stroke-width:2.79138875;stroke-linecap:round;stroke-linejoin:round;stroke-miterlimit:4;stroke-dasharray:none;stroke-dashoffset:0;stroke-opacity:1"
         d="m 56.037959,59.239962 c -2.936364,0 -5.316537,0.60895 -5.31654,1.36009 -3e-6,0.75113 2.380174,1.36007 5.31654,1.36009 2.936364,-2e-5 5.316538,-0.60896 5.316535,-1.36009 -3e-6,-0.75114 -2.380174,-1.36009 -5.316535,-1.36009 z"
         id="path4749"
         sodipodi:nodetypes="sscss"
         inkscape:connector-curvature="0"
         inkscape:label="chin"
         class="skin" />
      <path
         inkscape:connector-curvature="0"
         style="opacity:1;vector-effect:none;fill:none;fill-opacity:1;stroke:#000000;stroke-width:0.07357386;stroke-linecap:round;stroke-linejoin:round;stroke-miterlimit:4;stroke-dasharray:none;stroke-dashoffset:0;stroke-opacity:1"
         d="M 0.47805685,0.47804646 V 111.59788 H 111.59789 V 0.47804646 Z M 56.037975,2.7678295 A 53.270417,53.270417 0 0 1 109.30863,56.037972 53.270417,53.270417 0 0 1 56.037975,109.30862 53.270417,53.270417 0 0 1 2.7678399,56.037972 53.270417,53.270417 0 0 1 56.037975,2.7678295 Z"
         id="rect855"
         inkscape:label="frame" />
      <path
         inkscape:connector-curvature="0"
         style="opacity:1;vector-effect:none;fill:#e9afaf;fill-opacity:1;stroke:none;stroke-width:3.76166844;stroke-linecap:round;stroke-linejoin:round;stroke-miterlimit:4;stroke-dasharray:none;stroke-dashoffset:0;stroke-opacity:1"
         d="m 38.487465,39.242915 c -0.960954,-2.44e-4 -1.740102,0.777245 -1.740009,2.384645 9.3e-5,1.60718 0.779187,3.435218 1.740009,3.434974 0.960616,-2.44e-4 1.739387,-1.302694 1.73948,-2.909528 9.3e-5,-1.607054 -0.778733,-2.909847 -1.73948,-2.910091 z"
         id="path2060"
         inkscape:label="ear_left"
         sodipodi:nodetypes="sssss"
         class="skin" />
      <path
         sodipodi:nodetypes="sssss"
         inkscape:label="ear_right"
         id="path2117"
         d="m 73.588474,39.242915 c 0.960954,-2.44e-4 1.740102,0.777245 1.740009,2.384645 -9.3e-5,1.60718 -0.779187,3.435218 -1.740009,3.434974 -0.960616,-2.44e-4 -1.739387,-1.302694 -1.73948,-2.909528 -9.3e-5,-1.607054 0.778733,-2.909847 1.73948,-2.910091 z"
         style="opacity:1;vector-effect:none;fill:#e9afaf;fill-opacity:1;stroke:none;stroke-width:3.76166844;stroke-linecap:round;stroke-linejoin:round;stroke-miterlimit:4;stroke-dasharray:none;stroke-dashoffset:0;stroke-opacity:1"
         inkscape:connector-curvature="0"
         class="skin" />
    </g>
    <g
       style="display:none"
       id="g164"
       inkscape:groupmode="layer"
       inkscape:label="_eye_distance">
      <path
         style="opacity:1;vector-effect:none;fill:none;fill-opacity:1;stroke:#000000;stroke-width:0.25;stroke-linecap:round;stroke-linejoin:round;stroke-miterlimit:4;stroke-dasharray:none;stroke-dashoffset:0;stroke-opacity:1"
         d="m 189.14844,150.94141 c -5.81191,-0.22277 -12.5001,4.14199 -12.28516,8.44921 0.27065,5.42436 5.62011,8.67564 11.04688,8.89258 6.07644,0.24291 15.56132,-3.52567 15.45507,-7.76953 -0.0348,-1.38603 -6.63513,-8.49317 -13.06835,-9.46484 -0.37739,-0.057 -0.76098,-0.0927 -1.14844,-0.10742 z m 45.29687,0 c -0.38746,0.0148 -0.77109,0.0504 -1.14843,0.10742 -6.43326,0.97167 -13.03164,8.07881 -13.06641,9.46484 -0.10622,4.24386 9.37668,8.01244 15.45312,7.76953 5.42677,-0.21693 10.77623,-3.46822 11.04688,-8.89258 0.21493,-4.30722 -6.47325,-8.67198 -12.28516,-8.44921 z"
         id="path148"
         transform="scale(0.26458333)"
         inkscape:connector-curvature="0" />
    </g>
    <g
       inkscape:groupmode="layer"
       id="layer6"
       inkscape:label="_eye_height"
       style="display:none">
      <g
         id="g118"
         transform="translate(0,0.45345595)"
         style="fill:none;stroke:#000000;stroke-width:0.06614583">
        <path
           style="display:inline;opacity:1;vector-effect:none;fill:none;fill-opacity:1;stroke:#000000;stroke-width:0.25;stroke-linecap:round;stroke-linejoin:round;stroke-miterlimit:4;stroke-dasharray:none;stroke-dashoffset:0;stroke-opacity:1"
           d="m 181.14844,162.37695 c -5.81191,-0.22276 -12.5001,4.14199 -12.28516,8.44922 0.27065,5.42436 5.62011,8.67564 11.04688,8.89258 6.07644,0.24291 15.56132,-3.52567 15.45507,-7.76953 -0.0348,-1.38603 -6.63513,-8.49317 -13.06835,-9.46484 -0.37739,-0.057 -0.76098,-0.0927 -1.14844,-0.10743 z m 61.29687,0 c -0.38746,0.0148 -0.77109,0.0504 -1.14843,0.10743 -6.43326,0.97167 -13.03164,8.07881 -13.06641,9.46484 -0.10622,4.24386 9.37668,8.01244 15.45312,7.76953 5.42677,-0.21694 10.77623,-3.46822 11.04688,-8.89258 0.21493,-4.30723 -6.47325,-8.67198 -12.28516,-8.44922 z"
           transform="matrix(0.26458333,0,0,0.26458333,0,-0.45345595)"
           id="rect88-3"
           inkscape:connector-curvature="0" />
      </g>
    </g>
    <g
       inkscape:groupmode="layer"
       id="layer5"
       inkscape:label="_eye_size"
       style="display:none">
      <path
         style="display:inline;opacity:1;vector-effect:none;fill:none;fill-opacity:1;stroke:#000000;stroke-width:0.25;stroke-linecap:round;stroke-linejoin:round;stroke-miterlimit:4;stroke-dasharray:none;stroke-dashoffset:0;stroke-opacity:1"
         d="m 180.97852,156.35352 -1.01758,0.0273 c -5.47717,0.0182 -10.73268,1.32294 -10.76367,3.61328 -0.0556,1.85029 4.306,3.3629 10.60546,3.58789 5.41905,0.19355 13.51215,-0.91075 14.11915,-2.60547 -0.0348,-1.38603 -5.33935,-4.14463 -11.6211,-4.52929 -0.37738,-0.057 -0.9348,-0.079 -1.32226,-0.0937 z m 60.99218,0.37109 c -0.38746,0.015 -0.76718,0.0291 -1.02343,0.0469 -6.30826,0.34667 -11.73282,3.27609 -11.77149,4.4668 0.13597,2.27511 11.8894,2.87449 13.44531,2.7461 5.31629,-0.12855 11.3222,-1.36837 11.28516,-3.61719 -0.0412,-2.49209 -6.31083,-3.68355 -10.75977,-3.61914 z"
         transform="scale(0.26458333)"
         id="rect88-6"
         inkscape:connector-curvature="0" />
    </g>
    <g
       style="display:none"
       id="g2778"
       inkscape:groupmode="layer"
       inkscape:label="_ear_size"
       sodipodi:insensitive="true">
      <path
         style="opacity:1;vector-effect:none;fill:none;fill-opacity:1;stroke:#000000;stroke-width:0.24999999;stroke-linecap:round;stroke-linejoin:round;stroke-miterlimit:4;stroke-dasharray:0.49999998, 0.99999995;stroke-dashoffset:0;stroke-opacity:1"
         d="m 140.88672,145.52148 c -4.90971,-0.001 -8.88915,4.65541 -8.88867,11.54493 4.8e-4,6.88857 3.97964,16.04792 8.88867,16.04687 4.90797,-0.001 10.8882,-6.90783 10.88867,-13.79492 4.8e-4,-6.88804 -5.98003,-13.79583 -10.88867,-13.79688 z m 141.82031,0 c -4.90864,0.001 -10.88915,6.90884 -10.88867,13.79688 4.7e-4,6.88709 5.9807,13.79387 10.88867,13.79492 4.90903,0.001 8.88819,-9.1583 8.88867,-16.04687 4.8e-4,-6.88952 -3.97896,-11.54597 -8.88867,-11.54493 z"
         transform="scale(0.26458333)"
         id="path2774"
         inkscape:connector-curvature="0" />
    </g>
    <g
       inkscape:groupmode="layer"
       id="layer2"
       inkscape:label="_cheek_low"
       style="display:none">
      <path
         style="opacity:1;vector-effect:none;fill:none;fill-opacity:1;stroke:#000000;stroke-width:0.25;stroke-linecap:round;stroke-linejoin:round;stroke-miterlimit:4;stroke-dasharray:none;stroke-dashoffset:0;stroke-opacity:1"
         d="m 202.32812,86.9375 c -15.79511,0 -57.01953,12.335362 -57.01953,50.80664 0,5.46031 0.28842,10.20842 0.77539,14.41016 -0.2651,0.007 -0.52928,0.0304 -0.79101,0.0898 -3.5418,0.80423 -5.7631,4.32211 -4.41602,10.24609 1.3469,5.92317 5.75012,12.00709 9.29102,11.20118 0.42532,-0.0968 0.8232,-0.26458 1.19531,-0.48829 2.50217,6.12173 5.18581,10.67647 6.78125,15.9004 9.15599,29.97927 25.51712,38.89894 38.0957,41.51953 3.04539,1.73563 8.86645,2.91208 15.55665,2.91211 6.68913,-3e-5 12.5089,-1.17693 15.55468,-2.91211 12.57898,-2.61979 28.94291,-11.53787 38.09961,-41.51953 1.58467,-5.18862 4.24284,-9.71216 6.73047,-15.77149 0.30073,0.15457 0.61228,0.28358 0.94531,0.35938 3.5409,0.80591 7.94412,-5.27801 9.29102,-11.20118 1.34708,-5.92398 -0.87422,-9.44186 -4.41602,-10.24609 -0.16304,-0.037 -0.32766,-0.052 -0.49218,-0.0684 0.48848,-4.20696 0.77539,-8.9621 0.77539,-14.43164 0,-38.471278 -41.22244,-50.80664 -57.01758,-50.80664 h -9.4707 z"
         transform="scale(0.26458333)"
         id="rect23538-3"
         inkscape:connector-curvature="0" />
    </g>
    <g
       inkscape:groupmode="layer"
       id="layer3"
       inkscape:label="_cheek_high"
       style="display:none">
      <path
         style="opacity:1;vector-effect:none;fill:none;fill-opacity:1;stroke:#000000;stroke-width:0.25;stroke-linecap:round;stroke-linejoin:round;stroke-miterlimit:4;stroke-dasharray:none;stroke-dashoffset:0;stroke-opacity:1"
         d="m 202.32812,86.9375 c -15.79511,0 -57.01953,12.335362 -57.01953,50.80664 0,1.38786 0.11165,4.68722 -0.16211,9.0293 -3.14184,-0.50671 -6.34888,1.50167 -8.08789,6.70508 -1.92541,5.76115 -1.32333,13.24608 2.1211,14.39648 0.46979,0.1569 0.95798,0.2169 1.45312,0.19922 -0.28148,0.70751 -0.56688,1.41501 -0.88281,2.11914 -15.10484,33.66545 7.0226,55.14848 44.32422,60.29297 2.25899,3.26438 18.0103,5.26168 27.72266,5.26172 9.68699,-4e-5 24.26231,-2.25274 27.63867,-5.25 37.35387,-5.1232 59.52471,-26.61325 44.4082,-60.30469 -0.31592,-0.70413 -0.60133,-1.41163 -0.88281,-2.11914 0.49514,0.0177 0.98333,-0.0423 1.45312,-0.19922 3.44443,-1.1504 4.04651,-8.63533 2.1211,-14.39648 -1.73917,-5.20388 -4.94577,-7.2123 -8.08789,-6.70508 -0.27376,-4.34208 -0.16211,-7.64144 -0.16211,-9.0293 0,-38.471278 -41.22248,-50.80664 -57.01758,-50.80664 h -9.4707 z"
         transform="scale(0.26458333)"
         id="rect23538-6"
         inkscape:connector-curvature="0" />
    </g>
  </g>
  <g
     inkscape:groupmode="layer"
     id="layer8"
     inkscape:label="default"
     style="display:inline">
    <path
       inkscape:connector-curvature="0"
       style="display:inline;opacity:1;vector-effect:none;fill:#c87137;fill-opacity:1;stroke:none;stroke-width:0.5;stroke-linecap:round;stroke-linejoin:round;stroke-miterlimit:4;stroke-dasharray:none;stroke-dashoffset:0;stroke-opacity:1"
       d="m 57.37965,57.703834 -2.549199,0.03514 c -0.608571,0.440404 -0.276093,0.738954 -0.327113,1.028877 0.109612,-0.16192 0.253889,-0.254167 0.417031,-0.309025 0.137063,0.115858 0.238618,0.257354 0.23771,0.472839 -0.08472,1.193599 -0.654378,1.249278 -1.12241,1.543577 -0.571019,-0.0855 -0.666832,-0.467895 -0.888836,-0.771531 -0.258133,0.283327 -0.456245,0.630365 -0.935344,0.677995 -0.533927,0.06092 -0.67586,-0.251317 -0.900203,-0.48524 -0.238408,0.414557 -0.420232,0.885854 -0.880049,1.079002 0.484608,0.579258 0.717029,0.943295 1.616437,1.37046 0.24606,-0.07318 0.432144,-0.199552 0.537954,-0.397391 0.135734,0.372684 0.458139,0.687162 0.841809,0.982369 0.161808,-0.264179 0.272637,-0.554951 0.748273,-0.654741 0.31758,0.335201 0.408554,0.670422 0.514697,1.005623 0.351692,-0.178731 0.575754,-0.437409 0.677995,-0.772046 0.07117,0.298937 0.196612,0.589203 0.561207,0.841809 0.344096,-0.486667 0.960964,-0.677439 1.473296,-0.981853 0.366831,0.374179 0.735338,0.748236 0.865579,1.122413 0.40673,-0.248955 0.641344,-0.602806 0.7953,-1.005623 0.650526,0.212743 0.886091,0.311467 1.356356,0.619641 0.311142,-0.329007 0.360833,-0.892121 0.455604,-1.280137 0.41886,-0.03376 0.608237,0.02087 0.935585,0.215896 0.324591,-0.749033 0.677455,-1.059363 0.549928,-1.917529 -0.421285,0.170786 -0.858041,0.380212 -1.052647,-0.02326 -0.157049,0.513731 -0.688512,0.555445 -1.192694,0.631484 -0.751031,-0.161653 -0.775674,-0.58552 -1.005623,-0.935342 -0.163701,0.459925 -0.506588,0.740468 -1.028878,0.841809 -0.416681,-0.557305 -1.061447,-0.993465 -1.052647,-1.777669 0.01839,-0.331113 0.15303,-0.484839 0.351914,-0.509014 l -0.0708,-0.0026 c 0.09437,-0.01955 0.17017,-0.01593 0.230476,0.0072 -0.05682,-0.0097 -0.11018,-0.01066 -0.159681,-0.0047 l 0.162266,0.0057 c 0.150022,0.05926 0.216393,0.223343 0.293005,0.374653 0.09817,-0.684784 -0.05531,-0.689591 -0.456303,-1.028877 z"
       id="path2221"
       sodipodi:nodetypes="ccccccccccccccccccccccccccccccccccccc"
       class="hair"
       inkscape:label="bottom" />
    <path
       style="display:inline;opacity:1;vector-effect:none;fill:#c87137;fill-opacity:1;stroke:none;stroke-width:0.5;stroke-linecap:round;stroke-linejoin:round;stroke-miterlimit:4;stroke-dasharray:none;stroke-dashoffset:0;stroke-opacity:1"
       d="m 54.169195,54.863029 c -1.230868,0.413291 -3.268281,2.119186 -3.268281,2.119186 0.158314,-0.0012 0.308214,-0.06402 0.483382,0.05806 -0.0071,0.128114 -0.05574,0.245738 -0.162231,0.348704 0.189038,-0.09762 0.138228,0.103407 0.133172,0.247459 1.510329,-1.300477 3.466371,-0.996106 4.498633,-1.473038 0.05318,-0.475567 0.08546,-0.948979 0.02779,-1.413192 -0.240951,-0.171604 -1.270246,-0.03567 -1.712468,0.112823 z"
       id="path2239"
       inkscape:connector-curvature="0"
       sodipodi:nodetypes="cccccccsc"
       class="hair"
       inkscape:label="left" />
    <path
       sodipodi:nodetypes="cccccccsc"
       inkscape:connector-curvature="0"
       id="path2241"
       d="m 58.071324,54.851029 c 1.23333,0.405882 3.280964,2.099497 3.280964,2.099497 -0.158318,-2.85e-4 -0.308593,-0.06217 -0.483024,0.06097 0.0079,0.128069 0.05721,0.245398 0.164325,0.347722 -0.189622,-0.09648 -0.137604,0.104236 -0.131682,0.248256 -1.518122,-1.291373 -3.472297,-0.975246 -4.507409,-1.445962 -0.05604,-0.475239 -0.09116,-0.948449 -0.03629,-1.413 0.239916,-0.17305 1.270009,-0.04331 1.713116,0.102524 z"
       style="display:inline;opacity:1;vector-effect:none;fill:#c87137;fill-opacity:1;stroke:none;stroke-width:0.5;stroke-linecap:round;stroke-linejoin:round;stroke-miterlimit:4;stroke-dasharray:none;stroke-dashoffset:0;stroke-opacity:1"
       class="hair"
       inkscape:label="right" />
  </g>
  <g
     style="display:inline"
     inkscape:label="moustache"
     id="g2284"
     inkscape:groupmode="layer">
    <path
       inkscape:label="bottom"
       class="hair"
       sodipodi:nodetypes="ccccccccccccccccccccccccccccccccccccc"
       id="path2278"
       d="m 57.37965,57.703834 -2.549199,0.03514 c -0.608571,0.440404 -0.276093,0.738954 -0.327113,1.028877 0.109612,-0.16192 0.253889,-0.254167 0.417031,-0.309025 0.137063,0.115858 0.238618,0.257354 0.23771,0.472839 -0.08472,1.193599 -0.654378,1.249278 -1.12241,1.543577 -0.571019,-0.0855 -0.666832,-0.467895 -0.888836,-0.771531 -0.258133,0.283327 -0.456245,0.630365 -0.935344,0.677995 -0.533927,0.06092 -0.67586,-0.251317 -0.900203,-0.48524 -0.238408,0.414557 -0.420232,0.885854 -0.880049,1.079002 0.484608,0.579258 0.717029,0.943295 1.616437,1.37046 0.24606,-0.07318 0.432144,-0.199552 0.537954,-0.397391 0.135734,0.372684 0.458139,0.687162 0.841809,0.982369 0.161808,-0.264179 0.272637,-0.554951 0.748273,-0.654741 0.31758,0.335201 0.408554,0.670422 0.514697,1.005623 0.351692,-0.178731 0.575754,-0.437409 0.677995,-0.772046 0.07117,0.298937 0.196612,0.589203 0.561207,0.841809 0.344096,-0.486667 0.960964,-0.677439 1.473296,-0.981853 0.366831,0.374179 0.735338,0.748236 0.865579,1.122413 0.40673,-0.248955 0.641344,-0.602806 0.7953,-1.005623 0.650526,0.212743 0.886091,0.311467 1.356356,0.619641 0.311142,-0.329007 0.360833,-0.892121 0.455604,-1.280137 0.41886,-0.03376 0.608237,0.02087 0.935585,0.215896 0.324591,-0.749033 0.677455,-1.059363 0.549928,-1.917529 -0.421285,0.170786 -0.858041,0.380212 -1.052647,-0.02326 -0.157049,0.513731 -0.688512,0.555445 -1.192694,0.631484 -0.751031,-0.161653 -0.775674,-0.58552 -1.005623,-0.935342 -0.163701,0.459925 -0.506588,0.740468 -1.028878,0.841809 -0.416681,-0.557305 -1.061447,-0.993465 -1.052647,-1.777669 0.01839,-0.331113 0.15303,-0.484839 0.351914,-0.509014 l -0.0708,-0.0026 c 0.09437,-0.01955 0.17017,-0.01593 0.230476,0.0072 -0.05682,-0.0097 -0.11018,-0.01066 -0.159681,-0.0047 l 0.162266,0.0057 c 0.150022,0.05926 0.216393,0.223343 0.293005,0.374653 0.09817,-0.684784 -0.05531,-0.689591 -0.456303,-1.028877 z"
       style="display:inline;opacity:1;vector-effect:none;fill:#c87137;fill-opacity:1;stroke:none;stroke-width:0.5;stroke-linecap:round;stroke-linejoin:round;stroke-miterlimit:4;stroke-dasharray:none;stroke-dashoffset:0;stroke-opacity:1"
       inkscape:connector-curvature="0" />
    <path
       inkscape:label="left"
       class="hair"
       sodipodi:nodetypes="cccccccsc"
       inkscape:connector-curvature="0"
       id="path2280"
       d="m 53.599804,54.926023 c -1.63295,0.548299 -4.335916,2.811451 -4.335916,2.811451 0.21003,-0.0016 0.408897,-0.08493 0.641286,0.07703 -0.0094,0.169965 -0.07395,0.326013 -0.215226,0.462614 0.25079,-0.129509 0.183383,0.137187 0.176675,0.328295 2.003702,-1.725298 4.598715,-1.321499 5.968182,-1.954229 0.07055,-0.630918 0.113377,-1.258977 0.03687,-1.874833 -0.319661,-0.227661 -1.685192,-0.04732 -2.271873,0.149679 z"
       style="display:inline;opacity:1;vector-effect:none;fill:#c87137;fill-opacity:1;stroke:none;stroke-width:0.66333282;stroke-linecap:round;stroke-linejoin:round;stroke-miterlimit:4;stroke-dasharray:none;stroke-dashoffset:0;stroke-opacity:1" />
    <path
       inkscape:label="right"
       class="hair"
       style="display:inline;opacity:1;vector-effect:none;fill:#c87137;fill-opacity:1;stroke:none;stroke-width:0.67464173;stroke-linecap:round;stroke-linejoin:round;stroke-miterlimit:4;stroke-dasharray:none;stroke-dashoffset:0;stroke-opacity:1"
       d="m 58.679294,54.915747 c 1.664112,0.54765 4.42695,2.832817 4.42695,2.832817 -0.213616,-3.85e-4 -0.416379,-0.08389 -0.651736,0.08227 0.01066,0.172801 0.07719,0.331111 0.221721,0.469175 -0.255854,-0.130179 -0.185667,0.140644 -0.177676,0.334968 -2.048377,-1.742428 -4.685113,-1.315883 -6.081773,-1.951013 -0.07561,-0.641232 -0.123,-1.279726 -0.04897,-1.906537 0.323715,-0.233494 1.713602,-0.05844 2.311479,0.138334 z"
       id="path2282"
       inkscape:connector-curvature="0"
       sodipodi:nodetypes="cccccccsc" />
  </g>
  <g
     style="display:none"
     inkscape:label="height"
     id="g2276"
     inkscape:groupmode="layer">
    <path
       inkscape:label="bottom"
       class="hair"
       sodipodi:nodetypes="ccccccccccccccccccccccccccccccccccccc"
       id="path2270"
       d="m 57.37965,56.237135 -2.549199,0.03514 c -0.608571,0.440404 -0.276093,0.738954 -0.327113,1.028877 0.109612,-0.16192 0.253889,-0.254167 0.417031,-0.309025 0.137063,0.115858 0.238618,0.257354 0.23771,0.472839 -0.08472,1.193599 -0.41,1.195596 -0.878032,1.489895 -0.337158,0.616083 -0.894674,0.457174 -1.463943,0.302366 -0.258133,0.283327 -0.125516,1.076849 -0.604615,1.124479 -0.533927,0.06092 -0.67586,-0.251317 -0.900203,-0.48524 -0.238408,0.414557 -0.420232,0.885854 -0.880049,1.079002 0.484608,0.579258 0.717029,0.943295 1.616437,1.37046 0.24606,-0.07318 0.432144,-0.199552 0.537954,-0.397391 0.135734,0.372684 0.458139,0.687162 0.841809,0.982369 0.161808,-0.264179 0.272637,-0.554951 0.748273,-0.654741 0.31758,0.335201 0.408554,0.670422 0.514697,1.005623 0.351692,-0.178731 0.575754,-0.437409 0.677995,-0.772046 0.07117,0.298937 0.196612,0.589203 0.561207,0.841809 0.344096,-0.486667 0.960964,-0.677439 1.473296,-0.981853 0.366831,0.374179 0.735338,0.748236 0.865579,1.122413 0.40673,-0.248955 0.641344,-0.602806 0.7953,-1.005623 0.650526,0.212743 0.886091,0.311467 1.356356,0.619641 0.311142,-0.329007 0.360833,-0.892121 0.455604,-1.280137 0.41886,-0.03376 0.608237,0.02087 0.935585,0.215896 0.324591,-0.749033 0.677455,-1.059363 0.549928,-1.917529 -0.421285,0.170786 -0.858041,0.380212 -1.052647,-0.02326 -0.788473,0.654048 -1.811044,0.368356 -1.613644,-0.09349 -0.669179,0.282683 -1.173237,-0.234728 -1.309642,-0.993807 -0.58465,0.366381 -0.857379,0.377984 -1.157501,-0.233951 -0.416681,-0.557305 -0.207855,-0.60097 -0.199055,-1.385174 0.01839,-0.331113 0.15303,-0.484839 0.351914,-0.509014 l -0.0708,-0.0026 c 0.09437,-0.01955 0.17017,-0.01593 0.230476,0.0072 -0.05682,-0.0097 -0.11018,-0.01066 -0.159681,-0.0047 l 0.162266,0.0057 c 0.150022,0.05926 0.216393,0.223343 0.293005,0.374653 0.09817,-0.684784 -0.05531,-0.689591 -0.456303,-1.028877 z"
       style="display:inline;opacity:1;vector-effect:none;fill:#c87137;fill-opacity:1;stroke:none;stroke-width:0.5;stroke-linecap:round;stroke-linejoin:round;stroke-miterlimit:4;stroke-dasharray:none;stroke-dashoffset:0;stroke-opacity:1"
       inkscape:connector-curvature="0" />
    <path
       inkscape:label="left"
       class="hair"
       sodipodi:nodetypes="cccccccsc"
       inkscape:connector-curvature="0"
       id="path2272"
       d="m 54.169195,52.217194 c -1.230868,0.413291 -3.268281,2.119186 -3.268281,2.119186 0.158314,-0.0012 0.308214,-0.06402 0.483382,0.05806 -0.0071,0.128114 -0.05574,0.245738 -0.162231,0.348704 0.189038,-0.09762 0.138228,0.103407 0.133172,0.247459 1.510329,-1.300477 3.466371,-0.996106 4.498633,-1.473038 0.05318,-0.475567 0.08546,-0.948979 0.02779,-1.413192 -0.240951,-0.171604 -1.270246,-0.03567 -1.712468,0.112823 z"
       style="display:inline;opacity:1;vector-effect:none;fill:#c87137;fill-opacity:1;stroke:none;stroke-width:0.5;stroke-linecap:round;stroke-linejoin:round;stroke-miterlimit:4;stroke-dasharray:none;stroke-dashoffset:0;stroke-opacity:1" />
    <path
       inkscape:label="right"
       class="hair"
       style="display:inline;opacity:1;vector-effect:none;fill:#c87137;fill-opacity:1;stroke:none;stroke-width:0.5;stroke-linecap:round;stroke-linejoin:round;stroke-miterlimit:4;stroke-dasharray:none;stroke-dashoffset:0;stroke-opacity:1"
       d="m 58.071324,52.205194 c 1.23333,0.405882 3.280964,2.099497 3.280964,2.099497 -0.158318,-2.85e-4 -0.308593,-0.06217 -0.483024,0.06097 0.0079,0.128069 0.05721,0.245398 0.164325,0.347722 -0.189622,-0.09648 -0.137604,0.104236 -0.131682,0.248256 -1.518122,-1.291373 -3.472297,-0.975246 -4.507409,-1.445962 -0.05604,-0.475239 -0.09116,-0.948449 -0.03629,-1.413 0.239916,-0.17305 1.270009,-0.04331 1.713116,0.102524 z"
       id="path2274"
       inkscape:connector-curvature="0"
       sodipodi:nodetypes="cccccccsc" />
  </g>
</svg>
