<?xml version="1.0" encoding="UTF-8" standalone="no"?>
<!-- Created with Inkscape (http://www.inkscape.org/) -->

<svg
   xmlns:dc="http://purl.org/dc/elements/1.1/"
   xmlns:cc="http://creativecommons.org/ns#"
   xmlns:rdf="http://www.w3.org/1999/02/22-rdf-syntax-ns#"
   xmlns:svg="http://www.w3.org/2000/svg"
   xmlns="http://www.w3.org/2000/svg"
   xmlns:sodipodi="http://sodipodi.sourceforge.net/DTD/sodipodi-0.dtd"
   xmlns:inkscape="http://www.inkscape.org/namespaces/inkscape"
   width="112.07594mm"
   height="112.07593mm"
   viewBox="0 0 112.07594 112.07593"
   version="1.1"
   id="svg19053"
   sodipodi:docname="fac_hair_6.svg"
   inkscape:version="0.92.3 (unknown)">
  <sodipodi:namedview
     pagecolor="#ffffff"
     bordercolor="#666666"
     borderopacity="1"
     objecttolerance="10"
     gridtolerance="10"
     guidetolerance="10"
     inkscape:pageopacity="0"
     inkscape:pageshadow="2"
     inkscape:window-width="1920"
     inkscape:window-height="1023"
     id="namedview29025"
     showgrid="false"
     inkscape:zoom="0.87399084"
     inkscape:cx="81.844344"
     inkscape:cy="310.4719"
     inkscape:window-x="0"
     inkscape:window-y="27"
     inkscape:window-maximized="1"
     inkscape:current-layer="g1175" />
  <defs
     id="defs19047" />
  <metadata
     id="metadata19050">
    <rdf:RDF>
      <cc:Work
         rdf:about="">
        <dc:format>image/svg+xml</dc:format>
        <dc:type
           rdf:resource="http://purl.org/dc/dcmitype/StillImage" />
        <dc:title></dc:title>
      </cc:Work>
    </rdf:RDF>
  </metadata>
  <g
     inkscape:groupmode="layer"
     id="layer4"
     inkscape:label="ignore"
     style="display:inline"
     sodipodi:insensitive="true">
    <g
       inkscape:label="base"
       inkscape:groupmode="layer"
       id="layer1"
       style="display:inline">
      <path
         style="opacity:1;vector-effect:none;fill:#ececec;fill-opacity:1;stroke:none;stroke-width:0.07242015;stroke-linecap:round;stroke-linejoin:round;stroke-miterlimit:4;stroke-dasharray:none;stroke-dashoffset:0;stroke-opacity:1"
         d="M 1.3494019,1.3493915 H 110.72654 V 110.72653 H 1.3494019 Z"
         id="rect853"
         inkscape:label="bg"
         inkscape:connector-curvature="0" />
      <path
         style="opacity:1;vector-effect:none;fill:#de8787;fill-opacity:1;stroke:none;stroke-width:2.13111639;stroke-linecap:round;stroke-linejoin:round;stroke-miterlimit:4;stroke-dasharray:none;stroke-dashoffset:0;stroke-opacity:1"
         d="m 49.678955,56.419812 v 9.47642 c -9.982869,1.19871 -16.93067,5.25588 -16.944481,9.89449 0.0044,0.1053 0.01207,0.21055 0.02388,0.31574 h -0.02388 v 33.167488 h 21.296957 2.006532 V 56.419812 Z"
         id="rect23540"
         inkscape:connector-curvature="0"
         inkscape:label="body_left"
         class="body" />
      <path
         id="path23835"
         d="m 62.39697,56.419812 v 9.47642 c 9.982867,1.19871 16.930671,5.25588 16.944486,9.89449 -0.0049,0.1053 -0.01209,0.21055 -0.02389,0.31574 h 0.02389 V 109.27395 H 58.044494 56.037963 V 56.419812 Z"
         style="opacity:1;vector-effect:none;fill:#de8787;fill-opacity:1;stroke:none;stroke-width:2.13111615;stroke-linecap:round;stroke-linejoin:round;stroke-miterlimit:4;stroke-dasharray:none;stroke-dashoffset:0;stroke-opacity:1"
         inkscape:connector-curvature="0"
         inkscape:label="body_right"
         class="body" />
      <path
         inkscape:connector-curvature="0"
         style="opacity:1;vector-effect:none;fill:#e9afaf;fill-opacity:1;stroke:none;stroke-width:8.2308979;stroke-linecap:round;stroke-linejoin:round;stroke-miterlimit:4;stroke-dasharray:none;stroke-dashoffset:0;stroke-opacity:1"
         d="m 53.532468,23.002213 c -4.179125,0 -15.08632,3.263731 -15.08632,13.44259 0,6.033855 0,11.415324 0,11.415324 0,10.107135 10.907195,13.443105 15.08632,13.443105 h 2.505495 V 23.002213 Z"
         id="rect23538"
         sodipodi:nodetypes="ssssccs"
         inkscape:label="face_left"
         class="skin" />
      <path
         inkscape:connector-curvature="0"
         sodipodi:nodetypes="ssssccs"
         id="path23996"
         d="m 58.543458,23.002213 c 4.179125,0 15.08632,3.263731 15.08632,13.44259 0,3.903165 0,6.641354 0,11.415324 0,10.107135 -10.907195,13.443105 -15.08632,13.443105 H 56.037963 V 23.002213 Z"
         style="opacity:1;vector-effect:none;fill:#e9afaf;fill-opacity:1;stroke:none;stroke-width:8.2308979;stroke-linecap:round;stroke-linejoin:round;stroke-miterlimit:4;stroke-dasharray:none;stroke-dashoffset:0;stroke-opacity:1"
         inkscape:label="face_right"
         class="skin" />
      <path
         style="opacity:1;vector-effect:none;fill:#ffffff;fill-opacity:1;stroke:none;stroke-width:1.43196714;stroke-linecap:round;stroke-linejoin:round;stroke-miterlimit:4;stroke-dasharray:none;stroke-dashoffset:0;stroke-opacity:1"
         d="m 181.14844,150.94141 c -5.81191,-0.22277 -12.5001,4.14199 -12.28516,8.44921 0.27065,5.42436 5.62011,8.67564 11.04688,8.89258 6.07644,0.24291 15.56132,-3.52567 15.45507,-7.76953 -0.0348,-1.38603 -6.63513,-8.49317 -13.06835,-9.46484 -0.37739,-0.057 -0.76098,-0.0927 -1.14844,-0.10742 z m 61.29687,0 c -0.38746,0.0148 -0.77109,0.0504 -1.14843,0.10742 -6.43326,0.97167 -13.03164,8.07881 -13.06641,9.46484 -0.10622,4.24386 9.37668,8.01244 15.45312,7.76953 5.42677,-0.21693 10.77623,-3.46822 11.04688,-8.89258 0.21493,-4.30722 -6.47325,-8.67198 -12.28516,-8.44921 z"
         transform="scale(0.26458333)"
         id="rect88"
         inkscape:connector-curvature="0" />
      <path
         style="opacity:1;vector-effect:none;fill:#e9afaf;fill-opacity:1;stroke:none;stroke-width:2.79138875;stroke-linecap:round;stroke-linejoin:round;stroke-miterlimit:4;stroke-dasharray:none;stroke-dashoffset:0;stroke-opacity:1"
         d="m 56.037959,59.239962 c -2.936364,0 -5.316537,0.60895 -5.31654,1.36009 -3e-6,0.75113 2.380174,1.36007 5.31654,1.36009 2.936364,-2e-5 5.316538,-0.60896 5.316535,-1.36009 -3e-6,-0.75114 -2.380174,-1.36009 -5.316535,-1.36009 z"
         id="path4749"
         sodipodi:nodetypes="sscss"
         inkscape:connector-curvature="0"
         inkscape:label="chin"
         class="skin" />
      <path
         inkscape:connector-curvature="0"
         style="opacity:1;vector-effect:none;fill:none;fill-opacity:1;stroke:#000000;stroke-width:0.07357386;stroke-linecap:round;stroke-linejoin:round;stroke-miterlimit:4;stroke-dasharray:none;stroke-dashoffset:0;stroke-opacity:1"
         d="M 0.47805685,0.47804646 V 111.59788 H 111.59789 V 0.47804646 Z M 56.037975,2.7678295 A 53.270417,53.270417 0 0 1 109.30863,56.037972 53.270417,53.270417 0 0 1 56.037975,109.30862 53.270417,53.270417 0 0 1 2.7678399,56.037972 53.270417,53.270417 0 0 1 56.037975,2.7678295 Z"
         id="rect855"
         inkscape:label="frame" />
      <path
         inkscape:connector-curvature="0"
         style="opacity:1;vector-effect:none;fill:#e9afaf;fill-opacity:1;stroke:none;stroke-width:3.76166844;stroke-linecap:round;stroke-linejoin:round;stroke-miterlimit:4;stroke-dasharray:none;stroke-dashoffset:0;stroke-opacity:1"
         d="m 38.487465,39.242915 c -0.960954,-2.44e-4 -1.740102,0.777245 -1.740009,2.384645 9.3e-5,1.60718 0.779187,3.435218 1.740009,3.434974 0.960616,-2.44e-4 1.739387,-1.302694 1.73948,-2.909528 9.3e-5,-1.607054 -0.778733,-2.909847 -1.73948,-2.910091 z"
         id="path2060"
         inkscape:label="ear_left"
         sodipodi:nodetypes="sssss"
         class="skin" />
      <path
         sodipodi:nodetypes="sssss"
         inkscape:label="ear_right"
         id="path2117"
         d="m 73.588474,39.242915 c 0.960954,-2.44e-4 1.740102,0.777245 1.740009,2.384645 -9.3e-5,1.60718 -0.779187,3.435218 -1.740009,3.434974 -0.960616,-2.44e-4 -1.739387,-1.302694 -1.73948,-2.909528 -9.3e-5,-1.607054 0.778733,-2.909847 1.73948,-2.910091 z"
         style="opacity:1;vector-effect:none;fill:#e9afaf;fill-opacity:1;stroke:none;stroke-width:3.76166844;stroke-linecap:round;stroke-linejoin:round;stroke-miterlimit:4;stroke-dasharray:none;stroke-dashoffset:0;stroke-opacity:1"
         inkscape:connector-curvature="0"
         class="skin" />
    </g>
    <g
       style="display:none"
       id="g164"
       inkscape:groupmode="layer"
       inkscape:label="_eye_distance">
      <path
         style="opacity:1;vector-effect:none;fill:none;fill-opacity:1;stroke:#000000;stroke-width:0.25;stroke-linecap:round;stroke-linejoin:round;stroke-miterlimit:4;stroke-dasharray:none;stroke-dashoffset:0;stroke-opacity:1"
         d="m 189.14844,150.94141 c -5.81191,-0.22277 -12.5001,4.14199 -12.28516,8.44921 0.27065,5.42436 5.62011,8.67564 11.04688,8.89258 6.07644,0.24291 15.56132,-3.52567 15.45507,-7.76953 -0.0348,-1.38603 -6.63513,-8.49317 -13.06835,-9.46484 -0.37739,-0.057 -0.76098,-0.0927 -1.14844,-0.10742 z m 45.29687,0 c -0.38746,0.0148 -0.77109,0.0504 -1.14843,0.10742 -6.43326,0.97167 -13.03164,8.07881 -13.06641,9.46484 -0.10622,4.24386 9.37668,8.01244 15.45312,7.76953 5.42677,-0.21693 10.77623,-3.46822 11.04688,-8.89258 0.21493,-4.30722 -6.47325,-8.67198 -12.28516,-8.44921 z"
         id="path148"
         transform="scale(0.26458333)"
         inkscape:connector-curvature="0" />
    </g>
    <g
       inkscape:groupmode="layer"
       id="layer6"
       inkscape:label="_eye_height"
       style="display:none">
      <g
         id="g118"
         transform="translate(0,0.45345595)"
         style="fill:none;stroke:#000000;stroke-width:0.06614583">
        <path
           style="display:inline;opacity:1;vector-effect:none;fill:none;fill-opacity:1;stroke:#000000;stroke-width:0.25;stroke-linecap:round;stroke-linejoin:round;stroke-miterlimit:4;stroke-dasharray:none;stroke-dashoffset:0;stroke-opacity:1"
           d="m 181.14844,162.37695 c -5.81191,-0.22276 -12.5001,4.14199 -12.28516,8.44922 0.27065,5.42436 5.62011,8.67564 11.04688,8.89258 6.07644,0.24291 15.56132,-3.52567 15.45507,-7.76953 -0.0348,-1.38603 -6.63513,-8.49317 -13.06835,-9.46484 -0.37739,-0.057 -0.76098,-0.0927 -1.14844,-0.10743 z m 61.29687,0 c -0.38746,0.0148 -0.77109,0.0504 -1.14843,0.10743 -6.43326,0.97167 -13.03164,8.07881 -13.06641,9.46484 -0.10622,4.24386 9.37668,8.01244 15.45312,7.76953 5.42677,-0.21694 10.77623,-3.46822 11.04688,-8.89258 0.21493,-4.30723 -6.47325,-8.67198 -12.28516,-8.44922 z"
           transform="matrix(0.26458333,0,0,0.26458333,0,-0.45345595)"
           id="rect88-3"
           inkscape:connector-curvature="0" />
      </g>
    </g>
    <g
       inkscape:groupmode="layer"
       id="layer5"
       inkscape:label="_eye_size"
       style="display:none">
      <path
         style="display:inline;opacity:1;vector-effect:none;fill:none;fill-opacity:1;stroke:#000000;stroke-width:0.25;stroke-linecap:round;stroke-linejoin:round;stroke-miterlimit:4;stroke-dasharray:none;stroke-dashoffset:0;stroke-opacity:1"
         d="m 180.97852,156.35352 -1.01758,0.0273 c -5.47717,0.0182 -10.73268,1.32294 -10.76367,3.61328 -0.0556,1.85029 4.306,3.3629 10.60546,3.58789 5.41905,0.19355 13.51215,-0.91075 14.11915,-2.60547 -0.0348,-1.38603 -5.33935,-4.14463 -11.6211,-4.52929 -0.37738,-0.057 -0.9348,-0.079 -1.32226,-0.0937 z m 60.99218,0.37109 c -0.38746,0.015 -0.76718,0.0291 -1.02343,0.0469 -6.30826,0.34667 -11.73282,3.27609 -11.77149,4.4668 0.13597,2.27511 11.8894,2.87449 13.44531,2.7461 5.31629,-0.12855 11.3222,-1.36837 11.28516,-3.61719 -0.0412,-2.49209 -6.31083,-3.68355 -10.75977,-3.61914 z"
         transform="scale(0.26458333)"
         id="rect88-6"
         inkscape:connector-curvature="0" />
    </g>
    <g
       style="display:none"
       id="g2778"
       inkscape:groupmode="layer"
       inkscape:label="_ear_size">
      <path
         style="opacity:1;vector-effect:none;fill:none;fill-opacity:1;stroke:#000000;stroke-width:0.24999999;stroke-linecap:round;stroke-linejoin:round;stroke-miterlimit:4;stroke-dasharray:0.49999998, 0.99999995;stroke-dashoffset:0;stroke-opacity:1"
         d="m 140.88672,145.52148 c -4.90971,-0.001 -8.88915,4.65541 -8.88867,11.54493 4.8e-4,6.88857 3.97964,16.04792 8.88867,16.04687 4.90797,-0.001 10.8882,-6.90783 10.88867,-13.79492 4.8e-4,-6.88804 -5.98003,-13.79583 -10.88867,-13.79688 z m 141.82031,0 c -4.90864,0.001 -10.88915,6.90884 -10.88867,13.79688 4.7e-4,6.88709 5.9807,13.79387 10.88867,13.79492 4.90903,0.001 8.88819,-9.1583 8.88867,-16.04687 4.8e-4,-6.88952 -3.97896,-11.54597 -8.88867,-11.54493 z"
         transform="scale(0.26458333)"
         id="path2774"
         inkscape:connector-curvature="0" />
    </g>
    <g
       inkscape:groupmode="layer"
       id="layer2"
       inkscape:label="_cheek_low"
       style="display:none">
      <path
         style="opacity:1;vector-effect:none;fill:none;fill-opacity:1;stroke:#000000;stroke-width:0.25;stroke-linecap:round;stroke-linejoin:round;stroke-miterlimit:4;stroke-dasharray:none;stroke-dashoffset:0;stroke-opacity:1"
         d="m 202.32812,86.9375 c -15.79511,0 -57.01953,12.335362 -57.01953,50.80664 0,5.46031 0.28842,10.20842 0.77539,14.41016 -0.2651,0.007 -0.52928,0.0304 -0.79101,0.0898 -3.5418,0.80423 -5.7631,4.32211 -4.41602,10.24609 1.3469,5.92317 5.75012,12.00709 9.29102,11.20118 0.42532,-0.0968 0.8232,-0.26458 1.19531,-0.48829 2.50217,6.12173 5.18581,10.67647 6.78125,15.9004 9.15599,29.97927 25.51712,38.89894 38.0957,41.51953 3.04539,1.73563 8.86645,2.91208 15.55665,2.91211 6.68913,-3e-5 12.5089,-1.17693 15.55468,-2.91211 12.57898,-2.61979 28.94291,-11.53787 38.09961,-41.51953 1.58467,-5.18862 4.24284,-9.71216 6.73047,-15.77149 0.30073,0.15457 0.61228,0.28358 0.94531,0.35938 3.5409,0.80591 7.94412,-5.27801 9.29102,-11.20118 1.34708,-5.92398 -0.87422,-9.44186 -4.41602,-10.24609 -0.16304,-0.037 -0.32766,-0.052 -0.49218,-0.0684 0.48848,-4.20696 0.77539,-8.9621 0.77539,-14.43164 0,-38.471278 -41.22244,-50.80664 -57.01758,-50.80664 h -9.4707 z"
         transform="scale(0.26458333)"
         id="rect23538-3"
         inkscape:connector-curvature="0" />
    </g>
    <g
       inkscape:groupmode="layer"
       id="layer3"
       inkscape:label="_cheek_high"
       style="display:none">
      <path
         style="opacity:1;vector-effect:none;fill:none;fill-opacity:1;stroke:#000000;stroke-width:0.25;stroke-linecap:round;stroke-linejoin:round;stroke-miterlimit:4;stroke-dasharray:none;stroke-dashoffset:0;stroke-opacity:1"
         d="m 202.32812,86.9375 c -15.79511,0 -57.01953,12.335362 -57.01953,50.80664 0,1.38786 0.11165,4.68722 -0.16211,9.0293 -3.14184,-0.50671 -6.34888,1.50167 -8.08789,6.70508 -1.92541,5.76115 -1.32333,13.24608 2.1211,14.39648 0.46979,0.1569 0.95798,0.2169 1.45312,0.19922 -0.28148,0.70751 -0.56688,1.41501 -0.88281,2.11914 -15.10484,33.66545 7.0226,55.14848 44.32422,60.29297 2.25899,3.26438 18.0103,5.26168 27.72266,5.26172 9.68699,-4e-5 24.26231,-2.25274 27.63867,-5.25 37.35387,-5.1232 59.52471,-26.61325 44.4082,-60.30469 -0.31592,-0.70413 -0.60133,-1.41163 -0.88281,-2.11914 0.49514,0.0177 0.98333,-0.0423 1.45312,-0.19922 3.44443,-1.1504 4.04651,-8.63533 2.1211,-14.39648 -1.73917,-5.20388 -4.94577,-7.2123 -8.08789,-6.70508 -0.27376,-4.34208 -0.16211,-7.64144 -0.16211,-9.0293 0,-38.471278 -41.22248,-50.80664 -57.01758,-50.80664 h -9.4707 z"
         transform="scale(0.26458333)"
         id="rect23538-6"
         inkscape:connector-curvature="0" />
    </g>
  </g>
  <g
     inkscape:groupmode="layer"
     id="layer8"
     inkscape:label="default"
     style="display:none">
    <path
       style="display:inline;opacity:1;vector-effect:none;fill:#c87137;fill-opacity:1;stroke:none;stroke-width:0.5;stroke-linecap:round;stroke-linejoin:round;stroke-miterlimit:4;stroke-dasharray:none;stroke-dashoffset:0;stroke-opacity:1"
       d="m 50.605179,54.790453 c 0,0 -2.002338,4.461814 -1.070735,6.421832 0.300236,0.631671 0.696463,1.197731 1.17719,1.688785 l 0.529682,0.883666 0.711068,0.0956 c 0.490876,0.293481 1.037617,0.526388 1.633493,0.697632 0.309959,0.235992 0.661058,0.45012 1.160653,0.584978 0.245985,-0.08451 0.446643,-0.179295 0.617016,-0.280604 0.211256,0.01379 0.426154,0.02274 0.646472,0.02274 0.89481,0 1.712907,-0.119052 2.454114,-0.33538 0.498562,0.06919 0.936641,0.213682 1.620573,0.05116 0.395922,-0.421465 0.492712,-0.796797 0.61495,-1.176154 0.765362,-0.596218 1.367297,-1.351643 1.785937,-2.232422 0.931603,-1.960018 -1.070221,-6.421832 -1.070221,-6.421832 0,0 -0.139028,0.968579 -0.46147,2.078942 -0.04691,-0.02119 -0.09363,-0.04274 -0.148829,-0.05839 -0.250695,0.467767 -0.266877,0.857313 -0.261482,1.239718 -0.105045,0.254492 -0.220432,0.499518 -0.347266,0.728636 -0.194458,0.06971 -0.388969,0.113216 -0.583427,0.03721 -0.0058,0.345257 -0.06366,0.666403 -0.191201,0.955497 -0.193416,0.156721 -0.402291,0.268674 -0.628904,0.316775 -0.468593,0.09947 -0.984464,-0.269038 -1.449007,-0.714684 -0.278841,-0.499761 -0.243432,-0.933273 -0.398425,-1.418519 l -0.448551,0.515731 c -0.213151,-0.237225 -0.380902,-0.408566 -0.467672,-0.40876 -0.03641,0.06307 -0.121383,0.180325 -0.225309,0.314709 l -0.135908,-0.307991 -0.126609,0.625285 c -0.02521,0.02897 -0.0514,0.05814 -0.07803,0.08785 -0.158954,-0.281138 -0.314265,-0.286967 -0.296622,-0.713134 -0.203018,0.512435 -0.301712,1.013381 -0.576194,1.533755 -0.450326,0.340524 -0.938443,0.575927 -1.363223,0.485759 -0.311706,-0.06616 -0.590764,-0.25074 -0.840259,-0.511595 -0.167015,-0.576358 -0.19173,-1.173099 -0.598929,-1.71514 l -0.361736,0.06511 c -0.0036,-0.0092 -0.0073,-0.01823 -0.01085,-0.02739 0.05164,-0.694192 0.100042,-1.289693 -0.109037,-2.084625 -0.141513,0.122727 -0.323702,0.191124 -0.418063,0.376721 -0.191831,-0.792041 -0.283186,-1.401466 -0.283186,-1.401466 z"
       id="path1119"
       inkscape:connector-curvature="0"
       inkscape:label="goatee"
       class="hair" />
  </g>
  <g
     style="display:inline"
     inkscape:label="thin"
     id="g1175"
     inkscape:groupmode="layer">
    <path
       class="hair"
       inkscape:label="goatee"
       inkscape:connector-curvature="0"
       id="path1173"
       d="m 50.284085,55.874144 c 0,0 -1.832609,2.98079 -0.901006,4.940808 0.300236,0.631671 1.055955,0.819318 1.536682,1.310372 l 0.586444,0.486333 0.748909,-0.150368 c 0.490876,0.293481 0.734887,0.29934 1.330763,0.470584 0.309959,0.235992 0.41509,0.09063 0.914685,0.225486 0.245985,-0.08451 0.67369,0.180197 0.844063,0.07889 0.211256,0.01379 0.634281,-0.05294 0.854599,-0.05294 0.89481,0 0.59659,-0.0055 1.337797,-0.221857 0.498562,0.06919 0.879879,0.251524 1.563811,0.089 0.395922,-0.421465 1.230617,-0.361623 1.352855,-0.74098 0.765362,-0.596218 1.074027,-0.519135 1.492667,-1.399914 0.931603,-1.960018 -0.124189,-4.406785 -0.124189,-4.406785 0,0 -0.0029,0.01281 -0.325386,1.123172 -0.04691,-0.02119 -0.259066,-0.359214 -0.407898,-0.417604 -0.250695,0.467767 -0.08052,1.086099 -0.07513,1.468504 -0.105045,0.254492 -0.425706,0.592383 -0.55254,0.821501 -0.194458,0.06971 -0.653858,-0.605768 -0.848316,-0.681774 -0.0058,0.345257 0.125546,1.044816 -0.002,1.33391 -0.17034,0.618247 -1.82466,0.892741 -2.063069,0.704926 -0.468593,0.09947 -0.753022,-0.794028 -0.809508,-1.273121 -0.111605,-0.479693 0.355339,-0.907269 0.200346,-1.392515 l -0.441862,0.2816 c -0.213151,-0.237225 -0.380902,-0.408566 -0.467672,-0.40876 -0.03641,0.06307 -0.121383,0.180325 -0.225309,0.314709 L 55.66792,58.06933 55.541311,58.694615 c -0.02521,0.02897 -0.0514,0.05814 -0.07803,0.08785 -0.158954,-0.281138 -0.08682,-0.347172 -0.343448,-0.472314 -0.203018,0.512435 0.708722,1.802506 0.43424,2.32288 -0.450326,0.340524 -1.902051,-0.454018 -2.326831,-0.544186 -0.311706,-0.06616 -0.590764,-0.25074 -0.840259,-0.511595 -0.167015,-0.576358 -0.940949,0.512643 -1.348148,-0.0294 l -0.107537,-1.205886 c -0.0036,-0.0092 -0.542456,0.71761 -0.546006,0.70845 0.05164,-0.694192 0.220452,-0.808052 0.01137,-1.602984 -0.141513,0.122727 0.03753,-0.772158 -0.05683,-0.586561 -0.191831,-0.792041 -0.0022,-0.585352 -0.0022,-0.585352 z"
       style="display:inline;opacity:1;vector-effect:none;fill:#c87137;fill-opacity:1;stroke:none;stroke-width:0.5;stroke-linecap:round;stroke-linejoin:round;stroke-miterlimit:4;stroke-dasharray:none;stroke-dashoffset:0;stroke-opacity:1"
       sodipodi:nodetypes="csccccccsccccccccccccccccccccccccccccccc" />
  </g>
</svg>
