<?xml version="1.0" encoding="UTF-8" standalone="no"?>
<!-- Created with Inkscape (http://www.inkscape.org/) -->

<svg
   xmlns:dc="http://purl.org/dc/elements/1.1/"
   xmlns:cc="http://creativecommons.org/ns#"
   xmlns:rdf="http://www.w3.org/1999/02/22-rdf-syntax-ns#"
   xmlns:svg="http://www.w3.org/2000/svg"
   xmlns="http://www.w3.org/2000/svg"
   xmlns:sodipodi="http://sodipodi.sourceforge.net/DTD/sodipodi-0.dtd"
   xmlns:inkscape="http://www.inkscape.org/namespaces/inkscape"
   width="112.07594mm"
   height="112.07593mm"
   viewBox="0 0 112.07594 112.07593"
   version="1.1"
   id="svg19053"
   sodipodi:docname="fac_hair_3.svg"
   inkscape:version="0.92.3 (unknown)">
  <sodipodi:namedview
     pagecolor="#ffffff"
     bordercolor="#666666"
     borderopacity="1"
     objecttolerance="10"
     gridtolerance="10"
     guidetolerance="10"
     inkscape:pageopacity="0"
     inkscape:pageshadow="2"
     inkscape:window-width="1920"
     inkscape:window-height="1023"
     id="namedview29025"
     showgrid="false"
     inkscape:zoom="1.7479817"
     inkscape:cx="111.42666"
     inkscape:cy="148.37588"
     inkscape:window-x="0"
     inkscape:window-y="27"
     inkscape:window-maximized="1"
     inkscape:current-layer="layer7" />
  <defs
     id="defs19047" />
  <metadata
     id="metadata19050">
    <rdf:RDF>
      <cc:Work
         rdf:about="">
        <dc:format>image/svg+xml</dc:format>
        <dc:type
           rdf:resource="http://purl.org/dc/dcmitype/StillImage" />
        <dc:title></dc:title>
      </cc:Work>
    </rdf:RDF>
  </metadata>
  <g
     inkscape:groupmode="layer"
     id="layer4"
     inkscape:label="ignore"
     style="display:inline">
    <g
       inkscape:label="base"
       inkscape:groupmode="layer"
       id="layer1"
       style="display:inline">
      <path
         style="opacity:1;vector-effect:none;fill:#ececec;fill-opacity:1;stroke:none;stroke-width:0.07242015;stroke-linecap:round;stroke-linejoin:round;stroke-miterlimit:4;stroke-dasharray:none;stroke-dashoffset:0;stroke-opacity:1"
         d="M 1.3494019,1.3493915 H 110.72654 V 110.72653 H 1.3494019 Z"
         id="rect853"
         inkscape:label="bg"
         inkscape:connector-curvature="0" />
      <path
         style="opacity:1;vector-effect:none;fill:#de8787;fill-opacity:1;stroke:none;stroke-width:2.13111639;stroke-linecap:round;stroke-linejoin:round;stroke-miterlimit:4;stroke-dasharray:none;stroke-dashoffset:0;stroke-opacity:1"
         d="m 49.678955,56.419812 v 9.47642 c -9.982869,1.19871 -16.93067,5.25588 -16.944481,9.89449 0.0044,0.1053 0.01207,0.21055 0.02388,0.31574 h -0.02388 v 33.167488 h 21.296957 2.006532 V 56.419812 Z"
         id="rect23540"
         inkscape:connector-curvature="0"
         inkscape:label="body_left"
         class="body" />
      <path
         id="path23835"
         d="m 62.39697,56.419812 v 9.47642 c 9.982867,1.19871 16.930671,5.25588 16.944486,9.89449 -0.0049,0.1053 -0.01209,0.21055 -0.02389,0.31574 h 0.02389 V 109.27395 H 58.044494 56.037963 V 56.419812 Z"
         style="opacity:1;vector-effect:none;fill:#de8787;fill-opacity:1;stroke:none;stroke-width:2.13111615;stroke-linecap:round;stroke-linejoin:round;stroke-miterlimit:4;stroke-dasharray:none;stroke-dashoffset:0;stroke-opacity:1"
         inkscape:connector-curvature="0"
         inkscape:label="body_right"
         class="body" />
      <path
         inkscape:connector-curvature="0"
         style="opacity:1;vector-effect:none;fill:#e9afaf;fill-opacity:1;stroke:none;stroke-width:8.2308979;stroke-linecap:round;stroke-linejoin:round;stroke-miterlimit:4;stroke-dasharray:none;stroke-dashoffset:0;stroke-opacity:1"
         d="m 53.532468,23.002213 c -4.179125,0 -15.08632,3.263731 -15.08632,13.44259 0,6.033855 0,11.415324 0,11.415324 0,10.107135 10.907195,13.443105 15.08632,13.443105 h 2.505495 V 23.002213 Z"
         id="rect23538"
         sodipodi:nodetypes="ssssccs"
         inkscape:label="face_left"
         class="skin" />
      <path
         inkscape:connector-curvature="0"
         sodipodi:nodetypes="ssssccs"
         id="path23996"
         d="m 58.543458,23.002213 c 4.179125,0 15.08632,3.263731 15.08632,13.44259 0,3.903165 0,6.641354 0,11.415324 0,10.107135 -10.907195,13.443105 -15.08632,13.443105 H 56.037963 V 23.002213 Z"
         style="opacity:1;vector-effect:none;fill:#e9afaf;fill-opacity:1;stroke:none;stroke-width:8.2308979;stroke-linecap:round;stroke-linejoin:round;stroke-miterlimit:4;stroke-dasharray:none;stroke-dashoffset:0;stroke-opacity:1"
         inkscape:label="face_right"
         class="skin" />
      <path
         style="opacity:1;vector-effect:none;fill:#ffffff;fill-opacity:1;stroke:none;stroke-width:1.43196714;stroke-linecap:round;stroke-linejoin:round;stroke-miterlimit:4;stroke-dasharray:none;stroke-dashoffset:0;stroke-opacity:1"
         d="m 181.14844,150.94141 c -5.81191,-0.22277 -12.5001,4.14199 -12.28516,8.44921 0.27065,5.42436 5.62011,8.67564 11.04688,8.89258 6.07644,0.24291 15.56132,-3.52567 15.45507,-7.76953 -0.0348,-1.38603 -6.63513,-8.49317 -13.06835,-9.46484 -0.37739,-0.057 -0.76098,-0.0927 -1.14844,-0.10742 z m 61.29687,0 c -0.38746,0.0148 -0.77109,0.0504 -1.14843,0.10742 -6.43326,0.97167 -13.03164,8.07881 -13.06641,9.46484 -0.10622,4.24386 9.37668,8.01244 15.45312,7.76953 5.42677,-0.21693 10.77623,-3.46822 11.04688,-8.89258 0.21493,-4.30722 -6.47325,-8.67198 -12.28516,-8.44921 z"
         transform="scale(0.26458333)"
         id="rect88"
         inkscape:connector-curvature="0" />
      <path
         style="opacity:1;vector-effect:none;fill:#e9afaf;fill-opacity:1;stroke:none;stroke-width:2.79138875;stroke-linecap:round;stroke-linejoin:round;stroke-miterlimit:4;stroke-dasharray:none;stroke-dashoffset:0;stroke-opacity:1"
         d="m 56.037959,59.239962 c -2.936364,0 -5.316537,0.60895 -5.31654,1.36009 -3e-6,0.75113 2.380174,1.36007 5.31654,1.36009 2.936364,-2e-5 5.316538,-0.60896 5.316535,-1.36009 -3e-6,-0.75114 -2.380174,-1.36009 -5.316535,-1.36009 z"
         id="path4749"
         sodipodi:nodetypes="sscss"
         inkscape:connector-curvature="0"
         inkscape:label="chin"
         class="skin" />
      <path
         inkscape:connector-curvature="0"
         style="opacity:1;vector-effect:none;fill:none;fill-opacity:1;stroke:#000000;stroke-width:0.07357386;stroke-linecap:round;stroke-linejoin:round;stroke-miterlimit:4;stroke-dasharray:none;stroke-dashoffset:0;stroke-opacity:1"
         d="M 0.47805685,0.47804646 V 111.59788 H 111.59789 V 0.47804646 Z M 56.037975,2.7678295 A 53.270417,53.270417 0 0 1 109.30863,56.037972 53.270417,53.270417 0 0 1 56.037975,109.30862 53.270417,53.270417 0 0 1 2.7678399,56.037972 53.270417,53.270417 0 0 1 56.037975,2.7678295 Z"
         id="rect855"
         inkscape:label="frame" />
      <path
         inkscape:connector-curvature="0"
         style="opacity:1;vector-effect:none;fill:#e9afaf;fill-opacity:1;stroke:none;stroke-width:3.76166844;stroke-linecap:round;stroke-linejoin:round;stroke-miterlimit:4;stroke-dasharray:none;stroke-dashoffset:0;stroke-opacity:1"
         d="m 38.487465,39.242915 c -0.960954,-2.44e-4 -1.740102,0.777245 -1.740009,2.384645 9.3e-5,1.60718 0.779187,3.435218 1.740009,3.434974 0.960616,-2.44e-4 1.739387,-1.302694 1.73948,-2.909528 9.3e-5,-1.607054 -0.778733,-2.909847 -1.73948,-2.910091 z"
         id="path2060"
         inkscape:label="ear_left"
         sodipodi:nodetypes="sssss"
         class="skin" />
      <path
         sodipodi:nodetypes="sssss"
         inkscape:label="ear_right"
         id="path2117"
         d="m 73.588474,39.242915 c 0.960954,-2.44e-4 1.740102,0.777245 1.740009,2.384645 -9.3e-5,1.60718 -0.779187,3.435218 -1.740009,3.434974 -0.960616,-2.44e-4 -1.739387,-1.302694 -1.73948,-2.909528 -9.3e-5,-1.607054 0.778733,-2.909847 1.73948,-2.910091 z"
         style="opacity:1;vector-effect:none;fill:#e9afaf;fill-opacity:1;stroke:none;stroke-width:3.76166844;stroke-linecap:round;stroke-linejoin:round;stroke-miterlimit:4;stroke-dasharray:none;stroke-dashoffset:0;stroke-opacity:1"
         inkscape:connector-curvature="0"
         class="skin" />
    </g>
    <g
       style="display:none"
       id="g164"
       inkscape:groupmode="layer"
       inkscape:label="_eye_distance">
      <path
         style="opacity:1;vector-effect:none;fill:none;fill-opacity:1;stroke:#000000;stroke-width:0.25;stroke-linecap:round;stroke-linejoin:round;stroke-miterlimit:4;stroke-dasharray:none;stroke-dashoffset:0;stroke-opacity:1"
         d="m 189.14844,150.94141 c -5.81191,-0.22277 -12.5001,4.14199 -12.28516,8.44921 0.27065,5.42436 5.62011,8.67564 11.04688,8.89258 6.07644,0.24291 15.56132,-3.52567 15.45507,-7.76953 -0.0348,-1.38603 -6.63513,-8.49317 -13.06835,-9.46484 -0.37739,-0.057 -0.76098,-0.0927 -1.14844,-0.10742 z m 45.29687,0 c -0.38746,0.0148 -0.77109,0.0504 -1.14843,0.10742 -6.43326,0.97167 -13.03164,8.07881 -13.06641,9.46484 -0.10622,4.24386 9.37668,8.01244 15.45312,7.76953 5.42677,-0.21693 10.77623,-3.46822 11.04688,-8.89258 0.21493,-4.30722 -6.47325,-8.67198 -12.28516,-8.44921 z"
         id="path148"
         transform="scale(0.26458333)"
         inkscape:connector-curvature="0" />
    </g>
    <g
       inkscape:groupmode="layer"
       id="layer6"
       inkscape:label="_eye_height"
       style="display:none">
      <g
         id="g118"
         transform="translate(0,0.45345595)"
         style="fill:none;stroke:#000000;stroke-width:0.06614583">
        <path
           style="display:inline;opacity:1;vector-effect:none;fill:none;fill-opacity:1;stroke:#000000;stroke-width:0.25;stroke-linecap:round;stroke-linejoin:round;stroke-miterlimit:4;stroke-dasharray:none;stroke-dashoffset:0;stroke-opacity:1"
           d="m 181.14844,162.37695 c -5.81191,-0.22276 -12.5001,4.14199 -12.28516,8.44922 0.27065,5.42436 5.62011,8.67564 11.04688,8.89258 6.07644,0.24291 15.56132,-3.52567 15.45507,-7.76953 -0.0348,-1.38603 -6.63513,-8.49317 -13.06835,-9.46484 -0.37739,-0.057 -0.76098,-0.0927 -1.14844,-0.10743 z m 61.29687,0 c -0.38746,0.0148 -0.77109,0.0504 -1.14843,0.10743 -6.43326,0.97167 -13.03164,8.07881 -13.06641,9.46484 -0.10622,4.24386 9.37668,8.01244 15.45312,7.76953 5.42677,-0.21694 10.77623,-3.46822 11.04688,-8.89258 0.21493,-4.30723 -6.47325,-8.67198 -12.28516,-8.44922 z"
           transform="matrix(0.26458333,0,0,0.26458333,0,-0.45345595)"
           id="rect88-3"
           inkscape:connector-curvature="0" />
      </g>
    </g>
    <g
       inkscape:groupmode="layer"
       id="layer5"
       inkscape:label="_eye_size"
       style="display:none">
      <path
         style="display:inline;opacity:1;vector-effect:none;fill:none;fill-opacity:1;stroke:#000000;stroke-width:0.25;stroke-linecap:round;stroke-linejoin:round;stroke-miterlimit:4;stroke-dasharray:none;stroke-dashoffset:0;stroke-opacity:1"
         d="m 180.97852,156.35352 -1.01758,0.0273 c -5.47717,0.0182 -10.73268,1.32294 -10.76367,3.61328 -0.0556,1.85029 4.306,3.3629 10.60546,3.58789 5.41905,0.19355 13.51215,-0.91075 14.11915,-2.60547 -0.0348,-1.38603 -5.33935,-4.14463 -11.6211,-4.52929 -0.37738,-0.057 -0.9348,-0.079 -1.32226,-0.0937 z m 60.99218,0.37109 c -0.38746,0.015 -0.76718,0.0291 -1.02343,0.0469 -6.30826,0.34667 -11.73282,3.27609 -11.77149,4.4668 0.13597,2.27511 11.8894,2.87449 13.44531,2.7461 5.31629,-0.12855 11.3222,-1.36837 11.28516,-3.61719 -0.0412,-2.49209 -6.31083,-3.68355 -10.75977,-3.61914 z"
         transform="scale(0.26458333)"
         id="rect88-6"
         inkscape:connector-curvature="0" />
    </g>
    <g
       style="display:none"
       id="g2778"
       inkscape:groupmode="layer"
       inkscape:label="_ear_size">
      <path
         style="opacity:1;vector-effect:none;fill:none;fill-opacity:1;stroke:#000000;stroke-width:0.24999999;stroke-linecap:round;stroke-linejoin:round;stroke-miterlimit:4;stroke-dasharray:0.49999998, 0.99999995;stroke-dashoffset:0;stroke-opacity:1"
         d="m 140.88672,145.52148 c -4.90971,-0.001 -8.88915,4.65541 -8.88867,11.54493 4.8e-4,6.88857 3.97964,16.04792 8.88867,16.04687 4.90797,-0.001 10.8882,-6.90783 10.88867,-13.79492 4.8e-4,-6.88804 -5.98003,-13.79583 -10.88867,-13.79688 z m 141.82031,0 c -4.90864,0.001 -10.88915,6.90884 -10.88867,13.79688 4.7e-4,6.88709 5.9807,13.79387 10.88867,13.79492 4.90903,0.001 8.88819,-9.1583 8.88867,-16.04687 4.8e-4,-6.88952 -3.97896,-11.54597 -8.88867,-11.54493 z"
         transform="scale(0.26458333)"
         id="path2774"
         inkscape:connector-curvature="0" />
    </g>
    <g
       inkscape:groupmode="layer"
       id="layer2"
       inkscape:label="_cheek_low"
       style="display:none">
      <path
         style="opacity:1;vector-effect:none;fill:none;fill-opacity:1;stroke:#000000;stroke-width:0.25;stroke-linecap:round;stroke-linejoin:round;stroke-miterlimit:4;stroke-dasharray:none;stroke-dashoffset:0;stroke-opacity:1"
         d="m 202.32812,86.9375 c -15.79511,0 -57.01953,12.335362 -57.01953,50.80664 0,5.46031 0.28842,10.20842 0.77539,14.41016 -0.2651,0.007 -0.52928,0.0304 -0.79101,0.0898 -3.5418,0.80423 -5.7631,4.32211 -4.41602,10.24609 1.3469,5.92317 5.75012,12.00709 9.29102,11.20118 0.42532,-0.0968 0.8232,-0.26458 1.19531,-0.48829 2.50217,6.12173 5.18581,10.67647 6.78125,15.9004 9.15599,29.97927 25.51712,38.89894 38.0957,41.51953 3.04539,1.73563 8.86645,2.91208 15.55665,2.91211 6.68913,-3e-5 12.5089,-1.17693 15.55468,-2.91211 12.57898,-2.61979 28.94291,-11.53787 38.09961,-41.51953 1.58467,-5.18862 4.24284,-9.71216 6.73047,-15.77149 0.30073,0.15457 0.61228,0.28358 0.94531,0.35938 3.5409,0.80591 7.94412,-5.27801 9.29102,-11.20118 1.34708,-5.92398 -0.87422,-9.44186 -4.41602,-10.24609 -0.16304,-0.037 -0.32766,-0.052 -0.49218,-0.0684 0.48848,-4.20696 0.77539,-8.9621 0.77539,-14.43164 0,-38.471278 -41.22244,-50.80664 -57.01758,-50.80664 h -9.4707 z"
         transform="scale(0.26458333)"
         id="rect23538-3"
         inkscape:connector-curvature="0" />
    </g>
    <g
       inkscape:groupmode="layer"
       id="layer3"
       inkscape:label="_cheek_high"
       style="display:none">
      <path
         style="opacity:1;vector-effect:none;fill:none;fill-opacity:1;stroke:#000000;stroke-width:0.25;stroke-linecap:round;stroke-linejoin:round;stroke-miterlimit:4;stroke-dasharray:none;stroke-dashoffset:0;stroke-opacity:1"
         d="m 202.32812,86.9375 c -15.79511,0 -57.01953,12.335362 -57.01953,50.80664 0,1.38786 0.11165,4.68722 -0.16211,9.0293 -3.14184,-0.50671 -6.34888,1.50167 -8.08789,6.70508 -1.92541,5.76115 -1.32333,13.24608 2.1211,14.39648 0.46979,0.1569 0.95798,0.2169 1.45312,0.19922 -0.28148,0.70751 -0.56688,1.41501 -0.88281,2.11914 -15.10484,33.66545 7.0226,55.14848 44.32422,60.29297 2.25899,3.26438 18.0103,5.26168 27.72266,5.26172 9.68699,-4e-5 24.26231,-2.25274 27.63867,-5.25 37.35387,-5.1232 59.52471,-26.61325 44.4082,-60.30469 -0.31592,-0.70413 -0.60133,-1.41163 -0.88281,-2.11914 0.49514,0.0177 0.98333,-0.0423 1.45312,-0.19922 3.44443,-1.1504 4.04651,-8.63533 2.1211,-14.39648 -1.73917,-5.20388 -4.94577,-7.2123 -8.08789,-6.70508 -0.27376,-4.34208 -0.16211,-7.64144 -0.16211,-9.0293 0,-38.471278 -41.22248,-50.80664 -57.01758,-50.80664 h -9.4707 z"
         transform="scale(0.26458333)"
         id="rect23538-6"
         inkscape:connector-curvature="0" />
    </g>
  </g>
  <g
     inkscape:groupmode="layer"
     id="layer7"
     inkscape:label="default"
     style="display:inline">
    <path
       style="opacity:1;vector-effect:none;fill:#c87137;fill-opacity:1;stroke:none;stroke-width:0.5;stroke-linecap:round;stroke-linejoin:round;stroke-miterlimit:4;stroke-dasharray:none;stroke-dashoffset:0;stroke-opacity:1"
       d="m 54.519043,58.809122 c 0.04879,0.41408 0.0547,0.833517 0.321095,1.230858 0.246918,-0.142547 0.305198,-0.334903 0.321094,-0.548534 -0.03597,0.200684 0.04501,0.401367 0.133789,0.602051 0.173523,-0.173523 0.133789,-0.209623 0.133789,-0.441504 0,0.311498 0.05217,0.636572 0.167237,0.923145 0.119488,-0.237767 0.171994,-0.480324 0.167236,-0.73584 0.02874,0.341409 0.05611,0.69523 0.267578,1.003418 0.245963,-0.329808 0.267578,-0.631084 0.267578,-1.110449 0,0.385295 0.161356,0.399158 0.337818,0.535156 0.156847,-0.238211 0.337817,-0.507592 0.337817,-0.909766 0,0.292846 0.09436,0.280662 0.240821,0.387989 0.214927,-0.214927 0.215656,-0.621573 0.24082,-0.936524 z"
       id="path934"
       inkscape:connector-curvature="0"
       sodipodi:nodetypes="cccccccccccccc"
       class="hair"
       inkscape:label="beard" />
  </g>
  <g
     style="display:inline"
     inkscape:label="height"
     id="g942"
     inkscape:groupmode="layer">
    <path
       inkscape:label="beard"
       class="hair"
       sodipodi:nodetypes="cccccccccccccc"
       inkscape:connector-curvature="0"
       id="path940"
       d="m 54.519043,55.897176 c 0.04879,0.41408 0.0547,0.833517 0.321095,1.230858 0.246918,-0.142547 0.305198,-0.334903 0.321094,-0.548534 -0.03597,0.200684 0.04501,0.401367 0.133789,0.602051 0.173523,-0.173523 0.133789,-0.209623 0.133789,-0.441504 0,0.311498 0.05217,0.636572 0.167237,0.923145 0.119488,-0.237767 0.171994,-0.480324 0.167236,-0.73584 0.02874,0.341409 0.05611,0.69523 0.267578,1.003418 0.245963,-0.329808 0.267578,-0.631084 0.267578,-1.110449 0,0.385295 0.161356,0.399158 0.337818,0.535156 0.156847,-0.238211 0.337817,-0.507592 0.337817,-0.909766 0,0.292846 0.09436,0.280662 0.240821,0.387989 0.214927,-0.214927 0.215656,-0.621573 0.24082,-0.936524 z"
       style="opacity:1;vector-effect:none;fill:#c87137;fill-opacity:1;stroke:none;stroke-width:0.5;stroke-linecap:round;stroke-linejoin:round;stroke-miterlimit:4;stroke-dasharray:none;stroke-dashoffset:0;stroke-opacity:1" />
  </g>
</svg>
