<?xml version="1.0" encoding="UTF-8" standalone="no"?>
<!-- Created with Inkscape (http://www.inkscape.org/) -->

<svg
   xmlns:dc="http://purl.org/dc/elements/1.1/"
   xmlns:cc="http://creativecommons.org/ns#"
   xmlns:rdf="http://www.w3.org/1999/02/22-rdf-syntax-ns#"
   xmlns:svg="http://www.w3.org/2000/svg"
   xmlns="http://www.w3.org/2000/svg"
   xmlns:sodipodi="http://sodipodi.sourceforge.net/DTD/sodipodi-0.dtd"
   xmlns:inkscape="http://www.inkscape.org/namespaces/inkscape"
   width="112.07594mm"
   height="112.07593mm"
   viewBox="0 0 112.07594 112.07593"
   version="1.1"
   id="svg19053"
   sodipodi:docname="fhair_2.svg"
   inkscape:version="0.92.2 (unknown)">
  <sodipodi:namedview
     pagecolor="#ffffff"
     bordercolor="#666666"
     borderopacity="1"
     objecttolerance="10"
     gridtolerance="10"
     guidetolerance="10"
     inkscape:pageopacity="0"
     inkscape:pageshadow="2"
     inkscape:window-width="1920"
     inkscape:window-height="1023"
     id="namedview29025"
     showgrid="false"
     inkscape:zoom="2.2678021"
     inkscape:cx="87.473736"
     inkscape:cy="364.50359"
     inkscape:window-x="0"
     inkscape:window-y="27"
     inkscape:window-maximized="1"
     inkscape:current-layer="layer5" />
  <defs
     id="defs19047" />
  <metadata
     id="metadata19050">
    <rdf:RDF>
      <cc:Work
         rdf:about="">
        <dc:format>image/svg+xml</dc:format>
        <dc:type
           rdf:resource="http://purl.org/dc/dcmitype/StillImage" />
        <dc:title />
      </cc:Work>
    </rdf:RDF>
  </metadata>
  <g
     inkscape:groupmode="layer"
     id="layer4"
     inkscape:label="ignore"
     style="display:none">
    <g
       inkscape:label="bg"
       inkscape:groupmode="layer"
       id="layer1"
       style="display:inline">
      <path
         style="opacity:1;vector-effect:none;fill:#ececec;fill-opacity:1;stroke:none;stroke-width:0.07242015;stroke-linecap:round;stroke-linejoin:round;stroke-miterlimit:4;stroke-dasharray:none;stroke-dashoffset:0;stroke-opacity:1"
         d="M 1.3493989,1.3493915 H 110.72654 V 110.72653 H 1.3493989 Z"
         id="rect853"
         inkscape:label="bg"
         inkscape:connector-curvature="0" />
      <g
         id="g853"
         transform="translate(-68.296261,5.3998053)">
        <path
           inkscape:label="bun"
           sodipodi:nodetypes="ccccc"
           inkscape:connector-curvature="0"
           id="path831"
           d="m 124.22734,5.3349483 c -7.62192,0 -10.01204,3.716574 -10.01179,8.3007847 1e-4,4.58401 4.48244,8.300087 10.01179,8.300267 5.52955,5.9e-5 10.0122,-3.71609 10.01231,-8.300267 2.4e-4,-4.5843787 -2.10314,-8.3008677 -10.01231,-8.3007847 z"
           style="opacity:1;vector-effect:none;fill:#000000;fill-opacity:1;stroke:none;stroke-width:0.07793608;stroke-linecap:round;stroke-linejoin:round;stroke-miterlimit:4;stroke-dasharray:none;stroke-dashoffset:0;stroke-opacity:1" />
        <path
           inkscape:label="hair"
           inkscape:connector-curvature="0"
           id="path833"
           d="m 124.30426,13.020784 c -11.83584,0.203936 -16.7955,4.092876 -18.45624,10.910445 -0.98606,4.047929 -1.6487,8.770708 0.81597,12.745993 1.20585,1.94491 5.30511,3.037541 5.30511,3.037541 l 12.33516,-3.700033 12.33516,3.700033 c 0,0 4.09978,-1.092631 5.30562,-3.037541 2.46468,-3.975285 1.80152,-8.698064 0.81546,-12.745993 -1.66074,-6.817569 -6.62039,-10.706509 -18.45624,-10.910445 z"
           style="fill:#000000;stroke:none;stroke-width:0.26458332px;stroke-linecap:butt;stroke-linejoin:miter;stroke-opacity:1" />
        <path
           inkscape:label="ribbon"
           inkscape:connector-curvature="0"
           id="ellipse838"
           d="m 123.97242,10.994567 a 10.012182,8.3004218 0 0 0 -8.49922,3.933095 12.561384,8.3004218 0 0 1 8.49922,-2.199867 12.561384,8.3004218 0 0 1 8.51524,2.212268 10.012182,8.3004218 0 0 0 -8.51524,-3.945496 z"
           style="opacity:1;vector-effect:none;fill:#aa0000;fill-opacity:1;stroke:none;stroke-width:0.07793608;stroke-linecap:round;stroke-linejoin:round;stroke-miterlimit:4;stroke-dasharray:none;stroke-dashoffset:0;stroke-opacity:1" />
        <path
           style="opacity:1;vector-effect:none;fill:#000000;fill-opacity:1;stroke:none;stroke-width:0.07793608;stroke-linecap:round;stroke-linejoin:round;stroke-miterlimit:4;stroke-dasharray:none;stroke-dashoffset:0;stroke-opacity:1"
           d="m 124.22734,5.3349483 c -7.62192,0 -10.01204,3.716574 -10.01179,8.3007847 1e-4,4.58401 4.48244,8.300087 10.01179,8.300267 5.52955,5.9e-5 10.0122,-3.71609 10.01231,-8.300267 2.4e-4,-4.5843787 -2.10314,-8.3008677 -10.01231,-8.3007847 z"
           id="path865"
           inkscape:connector-curvature="0"
           sodipodi:nodetypes="ccccc"
           inkscape:label="bun" />
        <path
           style="fill:#000000;stroke:none;stroke-width:0.26458332px;stroke-linecap:butt;stroke-linejoin:miter;stroke-opacity:1"
           d="m 124.30426,13.020784 c -11.83584,0.203936 -16.7955,4.092876 -18.45624,10.910445 -0.98606,4.047929 -1.6487,8.770708 0.81597,12.745993 1.20585,1.94491 5.30511,3.037541 5.30511,3.037541 l 12.33516,-3.700033 12.33516,3.700033 c 0,0 4.09978,-1.092631 5.30562,-3.037541 2.46468,-3.975285 1.80152,-8.698064 0.81546,-12.745993 -1.66074,-6.817569 -6.62039,-10.706509 -18.45624,-10.910445 z"
           id="path867"
           inkscape:connector-curvature="0"
           inkscape:label="hair" />
        <path
           style="opacity:1;vector-effect:none;fill:#aa0000;fill-opacity:1;stroke:none;stroke-width:0.07793608;stroke-linecap:round;stroke-linejoin:round;stroke-miterlimit:4;stroke-dasharray:none;stroke-dashoffset:0;stroke-opacity:1"
           d="m 123.97242,10.994567 a 10.012182,8.3004218 0 0 0 -8.49922,3.933095 12.561384,8.3004218 0 0 1 8.49922,-2.199867 12.561384,8.3004218 0 0 1 8.51524,2.212268 10.012182,8.3004218 0 0 0 -8.51524,-3.945496 z"
           id="path869"
           inkscape:connector-curvature="0"
           inkscape:label="ribbon" />
      </g>
      <path
         style="opacity:1;vector-effect:none;fill:#fff6d5;fill-opacity:1;stroke:#000000;stroke-width:1;stroke-linecap:round;stroke-linejoin:round;stroke-miterlimit:4;stroke-dasharray:none;stroke-dashoffset:0;stroke-opacity:1"
         d="m 235.83203,229.4043 c -1.6728,0.46339 -3.3024,0.85916 -4.85937,1.17578 -2.55787,2.08659 -10.17503,3.59955 -19.17578,3.59961 -9.00077,-6e-5 -16.61792,-1.51302 -19.17579,-3.59961 -1.55625,-0.31648 -3.18544,-0.71072 -4.85742,-1.17383 v 19.65039 c -37.73053,4.53056 -63.99077,19.86474 -64.04297,37.39648 0.0166,0.39799 0.0452,0.7958 0.0899,1.19336 h -0.0899 v 125.35743 h 80.49219 7.58399 7.58398 80.49219 V 287.64648 h -0.0898 c 0.0446,-0.39756 0.0713,-0.79537 0.0898,-1.19336 -0.0522,-17.53174 -26.3105,-32.86592 -64.04102,-37.39648 z"
         transform="scale(0.26458333)"
         id="rect23540"
         inkscape:connector-curvature="0" />
      <path
         style="opacity:1;vector-effect:none;fill:#fff6d5;fill-opacity:1;stroke:#000000;stroke-width:1;stroke-linecap:round;stroke-linejoin:round;stroke-miterlimit:4;stroke-dasharray:none;stroke-dashoffset:0;stroke-opacity:1"
         d="m 202.32812,86.9375 c -15.79511,0 -57.01953,12.335362 -57.01953,50.80664 v 10.58398 c -3.559,0.0833 -6.42026,3.017 -6.41992,9.00391 3.5e-4,5.98613 2.86137,12.7695 6.41992,12.96485 v 10.59179 c 0,31.8402 28.62946,45.89206 47.3125,49.69141 2.55787,2.08659 10.17502,3.59955 19.17579,3.59961 9.00076,-6e-5 16.61791,-1.51302 19.17578,-3.59961 18.68304,-3.79935 47.3125,-17.85121 47.3125,-49.69141 v -10.59179 c 3.55876,-0.19481 6.42152,-6.97847 6.42187,-12.96485 3.5e-4,-5.98716 -2.86266,-8.9208 -6.42187,-9.00391 v -10.58398 c 0,-38.471278 -41.22246,-50.80664 -57.01758,-50.80664 h -9.4707 z"
         transform="scale(0.26458333)"
         id="rect23538"
         inkscape:connector-curvature="0" />
      <path
         inkscape:connector-curvature="0"
         style="opacity:1;vector-effect:none;fill:#ffffff;fill-opacity:1;stroke:none;stroke-width:0.07357386;stroke-linecap:round;stroke-linejoin:round;stroke-miterlimit:4;stroke-dasharray:none;stroke-dashoffset:0;stroke-opacity:1"
         d="M 0.47805685,0.47804646 V 111.59788 H 111.59789 V 0.47804646 Z M 56.037975,2.7678295 A 53.270417,53.270417 0 0 1 109.30863,56.037972 53.270417,53.270417 0 0 1 56.037975,109.30862 53.270417,53.270417 0 0 1 2.7678399,56.037972 53.270417,53.270417 0 0 1 56.037975,2.7678295 Z"
         id="rect855"
         inkscape:label="frame" />
    </g>
    <g
       style="display:inline"
       id="g2778"
       inkscape:groupmode="layer"
       inkscape:label="_ear_size">
      <path
         sodipodi:nodetypes="csssc"
         inkscape:label="ear_left"
         id="path2774"
         d="m 38.334661,38.854136 c -0.349442,-0.222897 -0.713749,-0.351469 -1.058139,-0.351542 -1.299026,-2.77e-4 -2.352284,1.231722 -2.352159,3.054574 1.27e-4,1.822603 1.053312,4.245964 2.352159,4.245687 0.361348,-7.7e-5 0.744637,-0.141627 1.109678,-0.385173"
         style="opacity:1;vector-effect:none;fill:none;fill-opacity:1;stroke:#000000;stroke-width:0.13229167;stroke-linecap:round;stroke-linejoin:round;stroke-miterlimit:4;stroke-dasharray:none;stroke-dashoffset:0;stroke-opacity:1"
         inkscape:connector-curvature="0" />
      <path
         inkscape:connector-curvature="0"
         style="opacity:1;vector-effect:none;fill:none;fill-opacity:1;stroke:#000000;stroke-width:0.13229167;stroke-linecap:round;stroke-linejoin:round;stroke-miterlimit:4;stroke-dasharray:none;stroke-dashoffset:0;stroke-opacity:1"
         d="m 73.563785,38.97637 c 0.401969,-0.297488 0.832449,-0.47369 1.235632,-0.473776 1.299026,-2.77e-4 2.352284,1.231722 2.352159,3.054574 -1.27e-4,1.822603 -1.053312,4.245964 -2.352159,4.245687 -0.396324,-8.5e-5 -0.819042,-0.170355 -1.21513,-0.458724"
         id="path2776"
         inkscape:label="ear_right"
         sodipodi:nodetypes="csssc" />
    </g>
    <g
       inkscape:groupmode="layer"
       id="layer2"
       inkscape:label="_cheek_low"
       style="display:inline">
      <path
         style="opacity:1;vector-effect:none;fill:none;fill-opacity:1;stroke:#000000;stroke-width:0.5;stroke-linecap:round;stroke-linejoin:round;stroke-miterlimit:4;stroke-dasharray:none;stroke-dashoffset:0;stroke-opacity:1"
         d="m 202.32812,86.9375 c -15.7951,0 -57.01953,12.335363 -57.01953,50.80664 0,5.46031 0.2884,10.20841 0.77539,14.41016 -0.2651,0.007 -0.52928,0.0304 -0.79101,0.0898 -3.5418,0.80423 -5.7631,4.32211 -4.41602,10.24609 1.3469,5.92317 5.75012,12.00709 9.29102,11.20118 0.42589,-0.0969 0.82473,-0.26411 1.19726,-0.48829 2.50227,6.12174 5.18386,10.67648 6.7793,15.9004 9.15599,29.97926 25.51723,38.89898 38.0957,41.51953 3.04539,1.73563 8.86645,2.91208 15.55665,2.91211 6.69018,-3e-5 12.51125,-1.17648 15.55664,-2.91211 12.57903,-2.62055 28.94168,-11.54027 38.09765,-41.51953 1.58467,-5.18862 4.24316,-9.71213 6.73047,-15.77149 0.30073,0.15457 0.61228,0.28358 0.94531,0.35938 3.5409,0.80591 7.94412,-5.27801 9.29102,-11.20118 1.34708,-5.92398 -0.87422,-9.44186 -4.41602,-10.24609 -0.16376,-0.0372 -0.32887,-0.054 -0.49414,-0.0703 0.48828,-4.2065 0.77735,-8.96098 0.77735,-14.42969 0,-38.471277 -41.22244,-50.80664 -57.01758,-50.80664 h -9.4707 z"
         transform="scale(0.26458333)"
         id="rect23538-3"
         inkscape:connector-curvature="0" />
    </g>
    <g
       inkscape:groupmode="layer"
       id="layer3"
       inkscape:label="_cheek_high"
       style="display:inline">
      <path
         style="opacity:1;vector-effect:none;fill:none;fill-opacity:1;stroke:#000000;stroke-width:0.5;stroke-linecap:round;stroke-linejoin:round;stroke-miterlimit:4;stroke-dasharray:none;stroke-dashoffset:0;stroke-opacity:1"
         d="m 202.32812,86.9375 c -15.7951,0 -57.01953,12.335363 -57.01953,50.80664 0,1.38786 0.11165,4.68722 -0.16211,9.0293 -3.14184,-0.50671 -6.34888,1.50167 -8.08789,6.70508 -1.92541,5.76115 -1.32333,13.24608 2.1211,14.39648 0.46979,0.1569 0.95798,0.2169 1.45312,0.19922 -0.28148,0.70751 -0.56688,1.41501 -0.88281,2.11914 -15.10484,33.66545 7.0226,55.14848 44.32422,60.29297 2.25899,3.26438 18.0103,5.26168 27.72266,5.26172 9.68698,-4e-5 24.26231,-2.25274 27.63867,-5.25 37.35387,-5.1232 59.52471,-26.61325 44.4082,-60.30469 -0.31619,-0.70473 -0.60308,-1.41298 -0.88477,-2.12109 0.49587,0.0179 0.98463,-0.0401 1.45508,-0.19727 3.44443,-1.1504 4.04651,-8.63533 2.1211,-14.39648 -1.73917,-5.20388 -4.94577,-7.2123 -8.08789,-6.70508 -0.27376,-4.34217 -0.16211,-7.64144 -0.16211,-9.0293 0,-38.471277 -41.22248,-50.80664 -57.01758,-50.80664 h -9.4707 z"
         transform="scale(0.26458333)"
         id="rect23538-6"
         inkscape:connector-curvature="0" />
    </g>
    <g
       style="display:inline"
       id="g2830"
       inkscape:groupmode="layer"
       inkscape:label="_chin">
      <path
         inkscape:label="chin"
         inkscape:connector-curvature="0"
         sodipodi:nodetypes="ccc"
         id="path2822"
         d="m 50.721419,60.269043 c -3e-6,1.02472 2.876644,3.793327 5.31654,2.384653 2.56882,1.483109 5.316538,-1.359933 5.316535,-2.384653"
         style="opacity:1;vector-effect:none;fill:none;fill-opacity:1;stroke:#000000;stroke-width:0.13229167;stroke-linecap:round;stroke-linejoin:round;stroke-miterlimit:4;stroke-dasharray:none;stroke-dashoffset:0;stroke-opacity:1" />
      <path
         inkscape:label="frame"
         id="path2824"
         d="M 0.47805685,0.47804646 V 111.59788 H 111.59789 V 0.47804646 Z M 56.037975,2.7678295 A 53.270417,53.270417 0 0 1 109.30863,56.037972 53.270417,53.270417 0 0 1 56.037975,109.30862 53.270417,53.270417 0 0 1 2.7678399,56.037972 53.270417,53.270417 0 0 1 56.037975,2.7678295 Z"
         style="opacity:1;vector-effect:none;fill:#ffffff;fill-opacity:1;stroke:none;stroke-width:0.07357386;stroke-linecap:round;stroke-linejoin:round;stroke-miterlimit:4;stroke-dasharray:none;stroke-dashoffset:0;stroke-opacity:1"
         inkscape:connector-curvature="0" />
    </g>
  </g>
  <g
     inkscape:groupmode="layer"
     id="layer5"
     inkscape:label="default"
     style="display:inline">
    <path
       inkscape:connector-curvature="0"
       style="display:inline;opacity:1;vector-effect:none;fill:#000000;fill-opacity:1;stroke:none;stroke-width:0.2702572;stroke-linecap:round;stroke-linejoin:round;stroke-miterlimit:4;stroke-dasharray:none;stroke-dashoffset:0;stroke-opacity:1"
       d="m 53.556453,22.525583 c -4.21908,0 -15.230673,3.372959 -15.230673,13.892475 v 2.495657 l 0.170599,1.444631 c 2.851015,-10.299732 9.727812,-9.577411 17.562699,-11.676762 8.257835,2.21268 14.712207,1.37703 17.563219,11.676762 l 0.223291,-1.892171 v -2.048117 c 0,-10.519516 -11.011067,-13.892475 -15.230154,-13.892475 h -2.529749 z"
       id="path911"
       inkscape:label="hair"
       sodipodi:nodetypes="sscccccsscs"
       class="hair" />
    <path
       style="fill:#000000;stroke:none;stroke-width:0.26458332px;stroke-linecap:butt;stroke-linejoin:miter;stroke-opacity:1"
       d="m 66.432196,29.889664 c 2.822111,3.55593 3.064609,7.649279 2.65117,11.879281 1.00142,-3.595089 2.064789,-7.192994 0.152952,-10.655663 z"
       id="path932"
       inkscape:connector-curvature="0"
       sodipodi:nodetypes="cccc"
       inkscape:label="bit3"
       class="hair" />
    <path
       style="fill:#000000;stroke:#000000;stroke-width:0.26458332px;stroke-linecap:butt;stroke-linejoin:miter;stroke-opacity:1"
       d="m 49.345632,29.467612 c -3.07161,1.99701 -2.365329,4.832872 -10.512393,5.702919 l 0.06173,-0.329032 c 2.166297,-0.705594 4.364119,-1.095402 7.276284,-5.718401 z"
       id="path936"
       inkscape:connector-curvature="0"
       sodipodi:nodetypes="ccccc"
       inkscape:label="bit1"
       class="hair" />
    <path
       style="fill:#000000;stroke:none;stroke-width:0.26458332px;stroke-linecap:butt;stroke-linejoin:miter;stroke-opacity:1"
       d="m 50.573054,28.674669 c -0.395705,1.620371 -1.931838,4.263106 -4.593116,5.764782 2.327673,-2.464819 2.376963,-4.154319 2.598995,-5.49749 z"
       id="path938"
       inkscape:connector-curvature="0"
       sodipodi:nodetypes="cccc"
       inkscape:label="bit2"
       class="hair" />
  </g>
  <g
     style="display:none"
     inkscape:label="bit3"
     id="g878"
     inkscape:groupmode="layer"
     sodipodi:insensitive="true">
    <path
       sodipodi:nodetypes="sscccccsscs"
       inkscape:label="hair"
       id="path870"
       d="m 53.556453,22.525583 c -4.21908,0 -15.230673,3.372959 -15.230673,13.892475 v 2.495657 l 0.170599,1.444631 c 2.851015,-10.299732 9.727812,-9.577411 17.562699,-11.676762 8.257835,2.21268 14.712207,1.37703 17.563219,11.676762 l 0.223291,-1.892171 v -2.048117 c 0,-10.519516 -11.011067,-13.892475 -15.230154,-13.892475 h -2.529749 z"
       style="display:inline;opacity:1;vector-effect:none;fill:#000000;fill-opacity:1;stroke:none;stroke-width:0.2702572;stroke-linecap:round;stroke-linejoin:round;stroke-miterlimit:4;stroke-dasharray:none;stroke-dashoffset:0;stroke-opacity:1"
       inkscape:connector-curvature="0" />
    <path
       inkscape:label="bit3"
       sodipodi:nodetypes="cccc"
       inkscape:connector-curvature="0"
       id="path872"
       d="m 64.035994,30.466442 c 4.248159,1.600654 6.311881,5.482763 7.759334,9.365392 -0.369306,-3.681287 -1.305646,-7.76806 -4.724956,-9.756406 z"
       style="fill:#000000;stroke:none;stroke-width:0.26458332px;stroke-linecap:butt;stroke-linejoin:miter;stroke-opacity:1" />
    <path
       inkscape:label="bit1"
       sodipodi:nodetypes="ccccc"
       inkscape:connector-curvature="0"
       id="path874"
       d="m 49.345632,29.467612 c -3.07161,1.99701 -2.365329,4.832872 -10.512393,5.702919 l 0.06173,-0.329032 c 2.166297,-0.705594 4.364119,-1.095402 7.276284,-5.718401 z"
       style="fill:#000000;stroke:#000000;stroke-width:0.26458332px;stroke-linecap:butt;stroke-linejoin:miter;stroke-opacity:1" />
    <path
       inkscape:label="bit2"
       sodipodi:nodetypes="cccc"
       inkscape:connector-curvature="0"
       id="path876"
       d="m 50.573054,28.674669 c -0.395705,1.620371 -1.931838,4.263106 -4.593116,5.764782 2.327673,-2.464819 2.376963,-4.154319 2.598995,-5.49749 z"
       style="fill:#000000;stroke:none;stroke-width:0.26458332px;stroke-linecap:butt;stroke-linejoin:miter;stroke-opacity:1" />
  </g>
  <g
     style="display:none"
     inkscape:label="bit2"
     id="g868"
     inkscape:groupmode="layer"
     sodipodi:insensitive="true">
    <path
       sodipodi:nodetypes="sscccccsscs"
       inkscape:label="hair"
       id="path859"
       d="m 53.556453,22.525583 c -4.21908,0 -15.230673,3.372959 -15.230673,13.892475 v 2.495657 l 0.170599,1.444631 c 2.851015,-10.299732 9.727812,-9.577411 17.562699,-11.676762 8.257835,2.21268 14.712207,1.37703 17.563219,11.676762 l 0.223291,-1.892171 v -2.048117 c 0,-10.519516 -11.011067,-13.892475 -15.230154,-13.892475 h -2.529749 z"
       style="display:inline;opacity:1;vector-effect:none;fill:#000000;fill-opacity:1;stroke:none;stroke-width:0.2702572;stroke-linecap:round;stroke-linejoin:round;stroke-miterlimit:4;stroke-dasharray:none;stroke-dashoffset:0;stroke-opacity:1"
       inkscape:connector-curvature="0" />
    <path
       inkscape:label="bit3"
       sodipodi:nodetypes="cccc"
       inkscape:connector-curvature="0"
       id="path861"
       d="m 66.432196,29.889664 c 2.822111,3.55593 3.064609,7.649279 2.65117,11.879281 1.00142,-3.595089 2.064789,-7.192994 0.152952,-10.655663 z"
       style="fill:#000000;stroke:none;stroke-width:0.26458332px;stroke-linecap:butt;stroke-linejoin:miter;stroke-opacity:1" />
    <path
       inkscape:label="bit1"
       sodipodi:nodetypes="ccccc"
       inkscape:connector-curvature="0"
       id="path863"
       d="m 49.345632,29.467612 c -3.07161,1.99701 -2.365329,4.832872 -10.512393,5.702919 l 0.06173,-0.329032 c 2.166297,-0.705594 4.364119,-1.095402 7.276284,-5.718401 z"
       style="fill:#000000;stroke:#000000;stroke-width:0.26458332px;stroke-linecap:butt;stroke-linejoin:miter;stroke-opacity:1" />
    <path
       inkscape:label="bit2"
       sodipodi:nodetypes="cccc"
       inkscape:connector-curvature="0"
       id="path866"
       d="m 56.185916,28.402332 c -1.021664,1.318479 -3.501387,3.105859 -6.543614,3.39272 3.13006,-1.302352 3.863546,-2.825125 4.613652,-3.961236 z"
       style="fill:#000000;stroke:none;stroke-width:0.26458332px;stroke-linecap:butt;stroke-linejoin:miter;stroke-opacity:1" />
  </g>
  <g
     style="display:none"
     inkscape:label="bit1"
     id="g847"
     inkscape:groupmode="layer"
     sodipodi:insensitive="true">
    <path
       sodipodi:nodetypes="sscccccsscs"
       inkscape:label="hair"
       id="path839"
       d="m 53.556453,22.525583 c -4.21908,0 -15.230673,3.372959 -15.230673,13.892475 v 2.495657 l 0.170599,1.444631 c 2.851015,-10.299732 9.727812,-9.577411 17.562699,-11.676762 8.257835,2.21268 14.712207,1.37703 17.563219,11.676762 l 0.223291,-1.892171 v -2.048117 c 0,-10.519516 -11.011067,-13.892475 -15.230154,-13.892475 h -2.529749 z"
       style="display:inline;opacity:1;vector-effect:none;fill:#000000;fill-opacity:1;stroke:none;stroke-width:0.2702572;stroke-linecap:round;stroke-linejoin:round;stroke-miterlimit:4;stroke-dasharray:none;stroke-dashoffset:0;stroke-opacity:1"
       inkscape:connector-curvature="0"
       class="hair" />
    <path
       inkscape:label="bit3"
       sodipodi:nodetypes="cccc"
       inkscape:connector-curvature="0"
       id="path841"
       d="m 66.432196,29.889664 c 2.822111,3.55593 3.064609,7.649279 2.65117,11.879281 1.00142,-3.595089 2.064789,-7.192994 0.152952,-10.655663 z"
       style="fill:#000000;stroke:none;stroke-width:0.26458332px;stroke-linecap:butt;stroke-linejoin:miter;stroke-opacity:1"
       class="hair" />
    <path
       inkscape:label="bit1"
       sodipodi:nodetypes="ccccc"
       inkscape:connector-curvature="0"
       id="path843"
       d="m 51.058659,28.117424 c -2.945573,2.178632 -2.069538,4.966733 -10.149297,6.326568 l 1.305109,-0.464091 c 2.119798,-0.834965 3.026773,-1.224684 5.654808,-6.01491 z"
       style="fill:#000000;stroke:none;stroke-width:0.26458332px;stroke-linecap:butt;stroke-linejoin:miter;stroke-opacity:1"
       class="hair" />
    <path
       inkscape:label="bit2"
       sodipodi:nodetypes="cccc"
       inkscape:connector-curvature="0"
       id="path845"
       d="m 50.573054,28.674669 c -0.395705,1.620371 -1.931838,4.263106 -4.593116,5.764782 2.327673,-2.464819 2.376963,-4.154319 2.598995,-5.49749 z"
       style="fill:#000000;stroke:none;stroke-width:0.26458332px;stroke-linecap:butt;stroke-linejoin:miter;stroke-opacity:1"
       class="hair" />
  </g>
</svg>
