<?xml version="1.0" encoding="UTF-8" standalone="no"?>
<!-- Created with Inkscape (http://www.inkscape.org/) -->

<svg
   xmlns:dc="http://purl.org/dc/elements/1.1/"
   xmlns:cc="http://creativecommons.org/ns#"
   xmlns:rdf="http://www.w3.org/1999/02/22-rdf-syntax-ns#"
   xmlns:svg="http://www.w3.org/2000/svg"
   xmlns="http://www.w3.org/2000/svg"
   xmlns:sodipodi="http://sodipodi.sourceforge.net/DTD/sodipodi-0.dtd"
   xmlns:inkscape="http://www.inkscape.org/namespaces/inkscape"
   width="112.07594mm"
   height="112.07593mm"
   viewBox="0 0 112.07594 112.07593"
   version="1.1"
   id="svg19053"
   sodipodi:docname="fhair_14.svg"
   inkscape:version="0.92.3 (unknown)">
  <sodipodi:namedview
     pagecolor="#ffffff"
     bordercolor="#666666"
     borderopacity="1"
     objecttolerance="10"
     gridtolerance="10"
     guidetolerance="10"
     inkscape:pageopacity="0"
     inkscape:pageshadow="2"
     inkscape:window-width="1920"
     inkscape:window-height="1023"
     id="namedview29025"
     showgrid="false"
     inkscape:zoom="3.1162902"
     inkscape:cx="189.06229"
     inkscape:cy="248.44403"
     inkscape:window-x="0"
     inkscape:window-y="27"
     inkscape:window-maximized="1"
     inkscape:current-layer="g2451"
     showguides="false" />
  <defs
     id="defs19047" />
  <metadata
     id="metadata19050">
    <rdf:RDF>
      <cc:Work
         rdf:about="">
        <dc:format>image/svg+xml</dc:format>
        <dc:type
           rdf:resource="http://purl.org/dc/dcmitype/StillImage" />
        <dc:title></dc:title>
      </cc:Work>
    </rdf:RDF>
  </metadata>
  <g
     inkscape:groupmode="layer"
     id="layer4"
     inkscape:label="ignore"
     style="display:inline">
    <g
       inkscape:groupmode="layer"
       id="layer7"
       inkscape:label="bg 1">
      <path
         style="display:inline;opacity:1;vector-effect:none;fill:#000000;fill-opacity:1;stroke:none;stroke-width:0.75;stroke-linecap:round;stroke-linejoin:round;stroke-miterlimit:4;stroke-dasharray:none;stroke-dashoffset:0;stroke-opacity:1"
         d="m 56.554767,20.176661 c -0.482825,7.61e-4 -0.906243,0.271226 -1.17099,0.67696 -0.265314,-0.136468 -0.550886,-0.232025 -0.857311,-0.232026 h -5.03e-4 c -0.38201,5.98e-4 -0.73325,0.142832 -1.040246,0.351916 -0.294804,-0.203225 -0.631378,-0.342365 -0.997355,-0.342614 h -5.29e-4 c -0.499139,7.12e-4 -0.969023,0.205888 -1.295527,0.556038 -0.232711,-0.173985 -0.493085,-0.300711 -0.786519,-0.300757 h -5.03e-4 c -0.526483,8.66e-4 -0.962556,0.323268 -1.218543,0.778764 -0.225907,-0.160835 -0.48287,-0.267519 -0.765329,-0.267684 h -5.03e-4 c -0.603998,8.62e-4 -1.092022,0.40959 -1.319815,0.967383 -0.176366,-0.08502 -0.366192,-0.141773 -0.565341,-0.14211 h -10e-4 c -0.618488,7.25e-4 -1.11906,0.425782 -1.339464,1.003556 -0.160605,-0.06837 -0.329634,-0.119115 -0.506944,-0.119373 h -5.29e-4 c -0.718491,-2.3e-5 -1.250625,0.5794 -1.398363,1.296562 -0.102312,-0.02592 -0.203369,-0.05866 -0.31006,-0.05891 h -0.001 c -0.69823,-2.3e-5 -1.221647,0.547002 -1.387512,1.235583 -0.04946,-0.0059 -0.09365,-0.03657 -0.143661,-0.03669 h -0.001 c -0.734767,-2.4e-5 -1.275226,0.605636 -1.40715,1.345654 -0.01543,-6.35e-4 -0.0295,-0.0097 -0.04496,-0.0098 -6.88e-4,-3e-6 -0.0014,-3e-6 -0.0021,0 -0.779233,-2.6e-5 -1.347349,0.678109 -1.430394,1.479496 -0.611055,0.105352 -1.075679,0.61771 -1.201478,1.271757 -0.645917,0.974775 -1.01582,2.324867 -1.208712,3.912939 -0.07552,0.185674 -0.106166,0.387567 -0.122989,0.590145 -0.224319,0.294383 -0.410612,0.640194 -0.577225,1.012859 -0.08485,0.06538 -0.1377,0.163926 -0.145211,0.270783 -0.0015,0.02102 -0.0018,0.0323 -0.0026,0.04703 -0.144582,0.374108 -0.260763,0.789144 -0.363284,1.222663 -0.03585,0.03816 -0.06331,0.0834 -0.08062,0.132811 -1.743753,5.038645 -1.425568,9.932781 -0.757577,15.633153 0.01087,0.195765 0.04399,0.357028 0.135909,0.505396 0.04812,0.07768 0.116948,0.156141 0.224276,0.208256 0.107327,0.05212 0.255554,0.06025 0.369486,0.01704 0.227865,-0.0864 0.303472,-0.266991 0.342615,-0.42891 0.03674,-0.151988 0.03419,-0.317305 -0.0021,-0.498682 -0.240807,-2.202182 -0.314309,-3.832881 -0.281119,-5.158338 0.08017,0.656815 0.159356,1.315056 0.258897,1.963704 0.01933,0.126155 0.101493,0.233822 0.218075,0.285768 0.378592,5.329473 1.09844,15.831698 1.937865,20.995621 0.01073,0.168016 0.07348,0.335677 0.199989,0.451652 0.142359,0.130495 0.34216,0.17526 0.513665,0.142626 0.343011,-0.06527 0.583515,-0.404143 0.590661,-0.800467 3.7e-4,-0.02093 -9.79e-4,-0.04184 -0.0041,-0.06253 -0.102452,-0.677571 -0.159066,-1.353619 -0.252696,-2.030886 0.35447,2.349548 0.736182,4.688512 1.157033,7.011974 0.01444,0.166632 0.07999,0.331613 0.207741,0.444418 0.144803,0.12786 0.345398,0.169106 0.516246,0.133329 0.159226,-0.03335 0.287794,-0.135398 0.387576,-0.264586 0.02476,0.137655 0.04433,0.277376 0.06924,0.414962 0.0144,0.166497 0.07959,0.331621 0.207224,0.444418 0.144727,0.12791 0.345379,0.16914 0.516247,0.133326 0.142746,-0.02992 0.251818,-0.128963 0.347782,-0.237715 0.09366,0.532633 0.166235,1.073513 0.262517,1.605071 0.01441,0.1665 0.0796,0.331621 0.207222,0.444418 0.144729,0.127908 0.345379,0.169143 0.516249,0.133324 0.341731,-0.07163 0.576191,-0.414983 0.576191,-0.811316 -1.49e-4,-0.02098 -0.0021,-0.04188 -0.0057,-0.06253 -0.02635,-0.15526 -0.04968,-0.310811 -0.07545,-0.466122 0.02757,0.136001 0.05058,0.279353 0.156062,0.372587 0.144677,0.127881 0.344826,0.16896 0.515731,0.133326 0.34181,-0.07127 0.57671,-0.414346 0.57671,-0.810803 -1.49e-4,-0.02098 -0.0021,-0.04188 -0.0057,-0.06253 -0.168463,-0.992722 -0.274285,-1.98466 -0.42323,-2.977081 5.29e-4,7.94e-4 9.52e-4,0.0013 0.0016,0.0021 0.06102,0.346821 0.119772,0.696431 0.183452,1.048004 0.01436,0.166579 0.07953,0.33156 0.207224,0.44441 0.144727,0.127913 0.345379,0.169143 0.516247,0.133329 0.201549,-0.04225 0.344729,-0.192458 0.44545,-0.378791 0.03781,0.210979 0.07085,0.42377 0.109038,0.63459 l -0.0062,-0.06666 c 0,0.182285 0.09997,0.268677 0.149862,0.31006 0.04989,0.04138 0.08566,0.05849 0.120407,0.07493 0.0695,0.03289 0.135308,0.05476 0.216008,0.07855 0.161396,0.04757 0.522006,0.398349 0.644922,0.151924 0.433063,-0.868193 0.364164,-1.550564 0.364164,-1.866699 0.08098,0.302231 -0.105446,2.097138 0.715261,2.032246 0.223403,-0.01765 0.129272,0.0032 0.42701,-0.07225 0.06923,-0.01754 0.234757,-2.318528 0.302298,-2.335927 0.07807,-0.02011 -0.386772,3.379512 0.672919,3.527713 0.91486,0.127945 0.94318,-1.644885 1.489635,-1.623094 1.311234,0.05228 2.137595,1.536459 3.478705,1.705655 0.527359,0.06653 1.481435,0.53848 1.937033,0.277844 1.388371,-0.794263 3.124136,-1.102823 4.900071,-0.720238 0.385953,0.08315 0.720715,1.109689 1.241153,1.133541 0.563425,0.02582 0.680675,-0.933627 0.946322,-0.963438 0.818618,-0.09186 0.792712,0.63123 1.265946,1.121053 0.271389,0.0093 0.486275,0.0098 0.655257,-0.0031 0.08449,-0.0065 0.154733,-0.01352 0.239778,-0.03876 0.04252,-0.01262 0.09042,-0.02687 0.157097,-0.07596 0.06668,-0.0491 0.166917,-0.174019 0.166917,-0.324528 l -0.0062,0.06667 c 0.161634,-0.891807 0.293309,-1.761665 0.44545,-2.646349 0.169862,0.03414 0.368162,-0.0055 0.511598,-0.132294 0.06876,-0.06077 0.06605,-0.159732 0.101285,-0.24288 -0.09121,0.575252 -0.152476,1.150138 -0.250113,1.725478 -0.0036,0.02064 -0.0056,0.04156 -0.0057,0.06253 0,0.396335 0.234346,0.739466 0.576193,0.810803 0.170924,0.03567 0.371647,-0.0054 0.516247,-0.133327 0.127577,-0.112866 0.192842,-0.277839 0.207222,-0.444412 v -0.0016 c 0.100021,-0.552363 0.184401,-1.111001 0.281638,-1.664499 0.05557,0.143719 0.135766,0.271312 0.254765,0.355534 0.02204,0.01561 0.05337,0.01209 0.07751,0.02482 0,0.39646 0.234897,0.739539 0.576707,0.810802 0.170905,0.03563 0.371054,-0.0054 0.515731,-0.133326 0.127645,-0.112824 0.193275,-0.277794 0.20774,-0.444418 v -0.0016 c 0.180271,-0.995413 0.333952,-2.001452 0.504362,-3.000852 0.09916,0.1254 0.224608,0.22718 0.380855,0.259935 0.08841,0.01852 0.174691,-0.04476 0.267168,-0.06873 -0.08748,0.550058 -0.153652,1.099878 -0.247015,1.650029 -0.0036,0.02064 -0.0056,0.04156 -0.0057,0.06253 0,0.396457 0.234495,0.739759 0.576191,0.811318 0.170852,0.03578 0.371441,-0.0055 0.516248,-0.133323 0.127762,-0.112808 0.193299,-0.277791 0.207737,-0.444418 v -0.0016 c 0.261239,-1.442294 0.508024,-2.890572 0.746728,-4.341854 0.10467,0.154522 0.249338,0.269494 0.429948,0.303858 0.171506,0.03263 0.371303,-0.01212 0.513662,-0.142627 0.126514,-0.115969 0.189267,-0.28363 0.199988,-0.451651 0.839449,-5.164082 1.559285,-15.666485 1.937867,-20.996132 0.116411,-0.05184 0.198533,-0.15925 0.218043,-0.285182 0.09956,-0.64876 0.178731,-1.307293 0.2589,-1.964219 0.03321,1.325605 -0.04026,2.956232 -0.281117,5.15886 -0.03623,0.181371 -0.03878,0.346688 -0.0021,0.498676 0.03915,0.161919 0.114747,0.342511 0.342617,0.428916 0.113927,0.0432 0.262157,0.03506 0.369483,-0.01707 0.107328,-0.05212 0.176154,-0.130577 0.224279,-0.208254 0.09191,-0.14837 0.125,-0.309631 0.135906,-0.505396 0.394512,-3.366577 0.65437,-6.449432 0.45217,-9.449553 0.111607,0.547876 0.22052,1.02892 0.335894,1.650545 0.02941,0.198139 0.08904,0.364088 0.183454,0.501261 0.09441,0.137174 0.229545,0.278813 0.473353,0.278019 0.121912,-3.97e-4 0.25745,-0.06119 0.339,-0.148309 0.08155,-0.08713 0.117782,-0.185193 0.134874,-0.274921 0.03158,-0.165735 0.0067,-0.322884 -0.04909,-0.501777 -0.721916,-5.1108 -1.347621,-9.889746 -3.815273,-12.648324 -0.179504,-0.395748 -0.496586,-0.704143 -0.894517,-0.833541 -0.03483,-0.02576 -0.06961,-0.0516 -0.104386,-0.07751 0.03069,-0.135281 0.08082,-0.266004 0.08113,-0.406175 v -0.0015 c -5.26e-4,-0.471443 -0.18145,-0.915571 -0.501744,-1.238129 -0.154284,-0.385294 -0.43927,-0.667321 -0.798918,-0.82734 -0.129773,-0.744722 -0.679233,-1.351633 -1.412316,-1.351855 h -0.0011 c -0.08069,2.1e-4 -0.156152,0.02938 -0.234609,0.04444 -0.07909,-0.80581 -0.649418,-1.489341 -1.431913,-1.489315 h -0.0011 c -0.005,1.4e-5 -0.0095,0.003 -0.01447,0.0031 -0.08443,-0.799718 -0.651269,-1.475904 -1.429292,-1.475878 h -5.29e-4 c -0.171741,3.43e-4 -0.333306,0.05454 -0.489376,0.118856 -0.189299,-0.646702 -0.70331,-1.146723 -1.37201,-1.146701 h -5.29e-4 c -0.223891,2.22e-4 -0.438164,0.06218 -0.631487,0.167948 -0.249401,-0.48855 -0.706707,-0.834298 -1.256771,-0.83509 h -0.0011 c -0.217429,1.91e-4 -0.416589,0.08032 -0.604099,0.179317 -0.19472,-0.635972 -0.707208,-1.123984 -1.368394,-1.123963 h -5.29e-4 c -0.237852,1.75e-4 -0.463158,0.07158 -0.665075,0.189653 -0.250214,-0.484331 -0.703675,-0.82805 -1.251085,-0.82889 -5.29e-4,-1e-6 -0.0011,-1e-6 -0.0016,0 -0.219906,4.74e-4 -0.42581,0.07514 -0.618566,0.179317 -0.380397,-0.309724 -0.854102,-0.512276 -1.381313,-0.512631 h -5.29e-4 c -0.335518,4.69e-4 -0.6525,0.09037 -0.947747,0.222209 -0.26753,-0.363579 -0.630223,-0.639067 -1.079798,-0.639323 h -5.29e-4 z"
         id="path1265"
         inkscape:connector-curvature="0"
         inkscape:label="hair"
         class="hair"
         sodipodi:nodetypes="cccccccccccccccccccccccccccccccccccccccccccccccccccccccccccccccccccccccccccccccccscsssssssssscccccccccccccccccccccccccccccccccccccccccccccccsccccccccccccccccccccccccccccccccccccc" />
    </g>
    <g
       inkscape:label="bg"
       inkscape:groupmode="layer"
       id="layer1"
       style="display:inline">
      <path
         style="opacity:1;vector-effect:none;fill:#fff6d5;fill-opacity:1;stroke:#000000;stroke-width:1;stroke-linecap:round;stroke-linejoin:round;stroke-miterlimit:4;stroke-dasharray:none;stroke-dashoffset:0;stroke-opacity:1"
         d="m 235.83203,229.4043 c -1.6728,0.46339 -3.3024,0.85916 -4.85937,1.17578 -2.55787,2.08659 -10.17503,3.59955 -19.17578,3.59961 -9.00077,-6e-5 -16.61792,-1.51302 -19.17579,-3.59961 -1.55625,-0.31648 -3.18544,-0.71072 -4.85742,-1.17383 v 19.65039 c -37.73053,4.53056 -63.99077,19.86474 -64.04297,37.39648 0.0166,0.39799 0.0452,0.7958 0.0899,1.19336 h -0.0899 v 125.35743 h 80.49219 7.58399 7.58398 80.49219 V 287.64648 h -0.0898 c 0.0446,-0.39756 0.0713,-0.79537 0.0898,-1.19336 -0.0522,-17.53174 -26.3105,-32.86592 -64.04102,-37.39648 z"
         transform="scale(0.26458333)"
         id="rect23540"
         inkscape:connector-curvature="0" />
      <path
         style="opacity:1;vector-effect:none;fill:#fff6d5;fill-opacity:1;stroke:#000000;stroke-width:1;stroke-linecap:round;stroke-linejoin:round;stroke-miterlimit:4;stroke-dasharray:none;stroke-dashoffset:0;stroke-opacity:1"
         d="m 202.32812,86.9375 c -15.79511,0 -57.01953,12.335362 -57.01953,50.80664 v 10.58398 c -3.559,0.0833 -6.42026,3.017 -6.41992,9.00391 3.5e-4,5.98613 2.86137,12.7695 6.41992,12.96485 v 10.59179 c 0,31.8402 28.62946,45.89206 47.3125,49.69141 2.55787,2.08659 10.17502,3.59955 19.17579,3.59961 9.00076,-6e-5 16.61791,-1.51302 19.17578,-3.59961 18.68304,-3.79935 47.3125,-17.85121 47.3125,-49.69141 v -10.59179 c 3.55876,-0.19481 6.42152,-6.97847 6.42187,-12.96485 3.5e-4,-5.98716 -2.86266,-8.9208 -6.42187,-9.00391 v -10.58398 c 0,-38.471278 -41.22246,-50.80664 -57.01758,-50.80664 h -9.4707 z"
         transform="scale(0.26458333)"
         id="rect23538"
         inkscape:connector-curvature="0" />
      <path
         inkscape:connector-curvature="0"
         style="opacity:1;vector-effect:none;fill:#ffffff;fill-opacity:1;stroke:none;stroke-width:0.07357386;stroke-linecap:round;stroke-linejoin:round;stroke-miterlimit:4;stroke-dasharray:none;stroke-dashoffset:0;stroke-opacity:1"
         d="M 0.47805685,0.47804646 V 111.59788 H 111.59789 V 0.47804646 Z M 56.037975,2.7678295 A 53.270417,53.270417 0 0 1 109.30863,56.037972 53.270417,53.270417 0 0 1 56.037975,109.30862 53.270417,53.270417 0 0 1 2.7678399,56.037972 53.270417,53.270417 0 0 1 56.037975,2.7678295 Z"
         id="rect855"
         inkscape:label="frame" />
    </g>
    <g
       style="display:inline"
       id="g2778"
       inkscape:groupmode="layer"
       inkscape:label="_ear_size">
      <path
         sodipodi:nodetypes="csssc"
         inkscape:label="ear_left"
         id="path2774"
         d="m 38.334661,38.854136 c -0.349442,-0.222897 -0.713749,-0.351469 -1.058139,-0.351542 -1.299026,-2.77e-4 -2.352284,1.231722 -2.352159,3.054574 1.27e-4,1.822603 1.053312,4.245964 2.352159,4.245687 0.361348,-7.7e-5 0.744637,-0.141627 1.109678,-0.385173"
         style="opacity:1;vector-effect:none;fill:none;fill-opacity:1;stroke:#000000;stroke-width:0.13229167;stroke-linecap:round;stroke-linejoin:round;stroke-miterlimit:4;stroke-dasharray:none;stroke-dashoffset:0;stroke-opacity:1"
         inkscape:connector-curvature="0" />
      <path
         inkscape:connector-curvature="0"
         style="opacity:1;vector-effect:none;fill:none;fill-opacity:1;stroke:#000000;stroke-width:0.13229167;stroke-linecap:round;stroke-linejoin:round;stroke-miterlimit:4;stroke-dasharray:none;stroke-dashoffset:0;stroke-opacity:1"
         d="m 73.563785,38.97637 c 0.401969,-0.297488 0.832449,-0.47369 1.235632,-0.473776 1.299026,-2.77e-4 2.352284,1.231722 2.352159,3.054574 -1.27e-4,1.822603 -1.053312,4.245964 -2.352159,4.245687 -0.396324,-8.5e-5 -0.819042,-0.170355 -1.21513,-0.458724"
         id="path2776"
         inkscape:label="ear_right"
         sodipodi:nodetypes="csssc" />
    </g>
    <g
       inkscape:groupmode="layer"
       id="layer2"
       inkscape:label="_cheek_low"
       style="display:inline">
      <path
         style="opacity:1;vector-effect:none;fill:none;fill-opacity:1;stroke:#000000;stroke-width:0.5;stroke-linecap:round;stroke-linejoin:round;stroke-miterlimit:4;stroke-dasharray:none;stroke-dashoffset:0;stroke-opacity:1"
         d="m 202.32812,86.9375 c -15.7951,0 -57.01953,12.335363 -57.01953,50.80664 0,5.46031 0.2884,10.20841 0.77539,14.41016 -0.2651,0.007 -0.52928,0.0304 -0.79101,0.0898 -3.5418,0.80423 -5.7631,4.32211 -4.41602,10.24609 1.3469,5.92317 5.75012,12.00709 9.29102,11.20118 0.42589,-0.0969 0.82473,-0.26411 1.19726,-0.48829 2.50227,6.12174 5.18386,10.67648 6.7793,15.9004 9.15599,29.97926 25.51723,38.89898 38.0957,41.51953 3.04539,1.73563 8.86645,2.91208 15.55665,2.91211 6.69018,-3e-5 12.51125,-1.17648 15.55664,-2.91211 12.57903,-2.62055 28.94168,-11.54027 38.09765,-41.51953 1.58467,-5.18862 4.24316,-9.71213 6.73047,-15.77149 0.30073,0.15457 0.61228,0.28358 0.94531,0.35938 3.5409,0.80591 7.94412,-5.27801 9.29102,-11.20118 1.34708,-5.92398 -0.87422,-9.44186 -4.41602,-10.24609 -0.16376,-0.0372 -0.32887,-0.054 -0.49414,-0.0703 0.48828,-4.2065 0.77735,-8.96098 0.77735,-14.42969 0,-38.471277 -41.22244,-50.80664 -57.01758,-50.80664 h -9.4707 z"
         transform="scale(0.26458333)"
         id="rect23538-3"
         inkscape:connector-curvature="0" />
    </g>
    <g
       inkscape:groupmode="layer"
       id="layer3"
       inkscape:label="_cheek_high"
       style="display:inline">
      <path
         style="opacity:1;vector-effect:none;fill:none;fill-opacity:1;stroke:#000000;stroke-width:0.5;stroke-linecap:round;stroke-linejoin:round;stroke-miterlimit:4;stroke-dasharray:none;stroke-dashoffset:0;stroke-opacity:1"
         d="m 202.32812,86.9375 c -15.7951,0 -57.01953,12.335363 -57.01953,50.80664 0,1.38786 0.11165,4.68722 -0.16211,9.0293 -3.14184,-0.50671 -6.34888,1.50167 -8.08789,6.70508 -1.92541,5.76115 -1.32333,13.24608 2.1211,14.39648 0.46979,0.1569 0.95798,0.2169 1.45312,0.19922 -0.28148,0.70751 -0.56688,1.41501 -0.88281,2.11914 -15.10484,33.66545 7.0226,55.14848 44.32422,60.29297 2.25899,3.26438 18.0103,5.26168 27.72266,5.26172 9.68698,-4e-5 24.26231,-2.25274 27.63867,-5.25 37.35387,-5.1232 59.52471,-26.61325 44.4082,-60.30469 -0.31619,-0.70473 -0.60308,-1.41298 -0.88477,-2.12109 0.49587,0.0179 0.98463,-0.0401 1.45508,-0.19727 3.44443,-1.1504 4.04651,-8.63533 2.1211,-14.39648 -1.73917,-5.20388 -4.94577,-7.2123 -8.08789,-6.70508 -0.27376,-4.34217 -0.16211,-7.64144 -0.16211,-9.0293 0,-38.471277 -41.22248,-50.80664 -57.01758,-50.80664 h -9.4707 z"
         transform="scale(0.26458333)"
         id="rect23538-6"
         inkscape:connector-curvature="0" />
    </g>
    <g
       style="display:inline"
       id="g2830"
       inkscape:groupmode="layer"
       inkscape:label="_chin">
      <path
         inkscape:label="chin"
         inkscape:connector-curvature="0"
         sodipodi:nodetypes="ccc"
         id="path2822"
         d="m 50.721419,60.269043 c -3e-6,1.02472 2.876644,3.793327 5.31654,2.384653 2.56882,1.483109 5.316538,-1.359933 5.316535,-2.384653"
         style="opacity:1;vector-effect:none;fill:none;fill-opacity:1;stroke:#000000;stroke-width:0.13229167;stroke-linecap:round;stroke-linejoin:round;stroke-miterlimit:4;stroke-dasharray:none;stroke-dashoffset:0;stroke-opacity:1" />
      <path
         inkscape:label="frame"
         id="path2824"
         d="M 0.47805685,0.47804646 V 111.59788 H 111.59789 V 0.47804646 Z M 56.037975,2.7678295 A 53.270417,53.270417 0 0 1 109.30863,56.037972 53.270417,53.270417 0 0 1 56.037975,109.30862 53.270417,53.270417 0 0 1 2.7678399,56.037972 53.270417,53.270417 0 0 1 56.037975,2.7678295 Z"
         style="opacity:1;vector-effect:none;fill:#000000;fill-opacity:1;stroke:none;stroke-width:0.07357386;stroke-linecap:round;stroke-linejoin:round;stroke-miterlimit:4;stroke-dasharray:none;stroke-dashoffset:0;stroke-opacity:1"
         inkscape:connector-curvature="0" />
    </g>
  </g>
  <g
     inkscape:groupmode="layer"
     id="layer5"
     inkscape:label="default"
     style="display:none">
    <path
       style="opacity:1;vector-effect:none;fill:#000000;fill-opacity:1;stroke:none;stroke-width:0.5;stroke-linecap:round;stroke-linejoin:round;stroke-miterlimit:4;stroke-dasharray:none;stroke-dashoffset:0;stroke-opacity:1"
       d="m 44.726468,24.664127 c -2.474503,1.376011 -4.8495,3.326072 -6.183601,5.823419 -0.755912,1.415015 -0.794729,4.74673 -0.794729,4.74673 6.984672,-2.64469 8.255523,-4.118413 11.951546,-9.112136 4.427091,3.290688 16.194921,4.449681 21.88001,7.321037 0.779764,0.393835 1.595861,1.894072 2.069671,2.714736 l -0.52597,-5.670367 c 0,0 -4.055713,-4.445153 -6.663886,-5.823419 -3.308752,-1.748481 -7.124192,-2.82205 -10.866519,-2.82205 -3.74233,0 -7.663569,1.040966 -10.866522,2.82205 z"
       id="path2360"
       inkscape:connector-curvature="0"
       sodipodi:nodetypes="ssccsccsss"
       inkscape:label="hair"
       class="hair" />
    <path
       style="opacity:1;vector-effect:none;fill:#000000;fill-opacity:1;stroke:none;stroke-width:0.5;stroke-linecap:round;stroke-linejoin:round;stroke-miterlimit:4;stroke-dasharray:none;stroke-dashoffset:0;stroke-opacity:1"
       d="m 54.544991,24.671879 a 0.250025,0.250025 0 0 0 -0.08423,0.01757 l -1.443323,0.55087 a 0.250025,0.250025 0 0 0 -0.160197,0.212907 c -0.18701,2.145482 -0.699757,3.987382 -2.181262,5.560385 -0.200094,0.21245 -0.318495,0.388509 -0.335897,0.597895 -0.0087,0.104693 0.02158,0.223494 0.09147,0.30851 0.06988,0.08501 0.165232,0.130143 0.254249,0.150378 0.178032,0.04047 0.352594,0.0037 0.531233,-0.07235 0.178641,-0.07609 0.359172,-0.20035 0.509529,-0.375171 1.715574,-1.994701 2.330397,-4.331885 3.062346,-6.624918 a 0.250025,0.250025 0 0 0 -0.243912,-0.326078 z"
       id="path2365"
       inkscape:connector-curvature="0"
       inkscape:label="dread2"
       class="hair" />
    <path
       style="opacity:1;vector-effect:none;fill:#000000;fill-opacity:1;stroke:none;stroke-width:0.5;stroke-linecap:round;stroke-linejoin:round;stroke-miterlimit:4;stroke-dasharray:none;stroke-dashoffset:0;stroke-opacity:1"
       d="m 50.643973,25.041804 a 0.250025,0.250025 0 0 0 -0.02571,0.0027 0.250025,0.250025 0 0 0 -0.195099,0.147873 c -1.112921,2.592308 -2.76334,5.547336 -4.703171,7.939424 -2.289563,2.823357 -5.059738,4.898975 -7.38476,5.082664 a 0.250025,0.250025 0 0 0 -0.202095,0.365885 l 0.439945,0.829492 a 0.250025,0.250025 0 0 0 0.272722,0.126567 c 3.445286,-0.720693 6.037895,-2.733286 8.08044,-5.211591 2.133618,-2.588809 3.679597,-5.688991 5.008742,-8.398809 A 0.250025,0.250025 0 0 0 51.820138,25.59142 l -1.055284,-0.52369 a 0.250025,0.250025 0 0 0 -0.120889,-0.02601 z"
       id="path2369"
       inkscape:connector-curvature="0"
       inkscape:label="dread1"
       class="hair" />
    <path
       style="opacity:1;vector-effect:none;fill:#000000;fill-opacity:1;stroke:none;stroke-width:0.5;stroke-linecap:round;stroke-linejoin:round;stroke-miterlimit:4;stroke-dasharray:none;stroke-dashoffset:0;stroke-opacity:1"
       d="m 62.490317,27.409411 c 2.508781,1.681069 5.758759,6.88921 6.650143,11.552211 0.891384,4.663001 0.359791,9.184076 0.06873,11.32799 -0.0342,0.251933 -0.03627,0.465455 -0.0083,0.640789 0.01399,0.08767 0.03435,0.165354 0.07441,0.241845 0.04006,0.07649 0.107249,0.163732 0.224793,0.199472 0.117544,0.03574 0.244075,-0.0067 0.320394,-0.06253 0.07632,-0.05581 0.127376,-0.123291 0.177766,-0.205155 0.100782,-0.163727 0.190447,-0.388705 0.276987,-0.704866 0.771451,-2.81845 0.760066,-8.532402 -0.507463,-13.746448 -0.633764,-2.607024 -1.584285,-5.084178 -2.93212,-6.998023 -0.864464,-1.227482 -1.899324,-2.225001 -3.116655,-2.860563 -2.197166,-1.195536 -2.481669,-0.304695 -1.228685,0.615278 z"
       id="path2371"
       inkscape:connector-curvature="0"
       inkscape:label="dread4"
       class="hair"
       sodipodi:nodetypes="cscccscccsccc" />
    <path
       style="opacity:1;vector-effect:none;fill:#000000;fill-opacity:1;stroke:none;stroke-width:0.5;stroke-linecap:round;stroke-linejoin:round;stroke-miterlimit:4;stroke-dasharray:none;stroke-dashoffset:0;stroke-opacity:1"
       d="m 62.99591,28.492339 c -0.0019,6.76e-4 -0.0038,0.0014 -0.0057,0.0021 l -1.147141,-0.889638 c -0.192285,0.0069 -0.305082,0.219256 -0.203086,0.382405 1.057984,3.056011 7.766923,9.382166 12.467621,11.386131 0.114362,0.04906 0.247399,0.0066 0.312124,-0.09973 l 0.636653,-1.062469 c 0.08839,-0.148969 0.0022,-0.340511 -0.167929,-0.373137 -1.714207,-0.328546 -4.460243,-1.353223 -6.413014,-3.235056 -1.952765,-1.881833 -4.400567,-4.320599 -5.254735,-5.973663 -0.04289,-0.08459 -0.129953,-0.137626 -0.224793,-0.136943 z"
       id="path2373"
       inkscape:connector-curvature="0"
       class="hair"
       inkscape:label="dread3"
       sodipodi:nodetypes="ccccccccccc" />
  </g>
  <g
     style="display:inline"
     inkscape:label="dreads"
     id="g2451"
     inkscape:groupmode="layer">
    <path
       class="hair"
       inkscape:label="hair"
       sodipodi:nodetypes="ssccsccsss"
       inkscape:connector-curvature="0"
       id="path2441"
       d="m 44.726468,24.664127 c -2.474503,1.376011 -4.8495,3.326072 -6.183601,5.823419 -0.755912,1.415015 -0.794729,4.74673 -0.794729,4.74673 6.984672,-2.64469 8.255523,-4.118413 11.951546,-9.112136 4.427091,3.290688 16.194921,4.449681 21.88001,7.321037 0.779764,0.393835 1.595861,1.894072 2.069671,2.714736 l -0.52597,-5.670367 c 0,0 -4.055713,-4.445153 -6.663886,-5.823419 -3.308752,-1.748481 -7.124192,-2.82205 -10.866519,-2.82205 -3.74233,0 -7.663569,1.040966 -10.866522,2.82205 z"
       style="opacity:1;vector-effect:none;fill:#000000;fill-opacity:1;stroke:none;stroke-width:0.5;stroke-linecap:round;stroke-linejoin:round;stroke-miterlimit:4;stroke-dasharray:none;stroke-dashoffset:0;stroke-opacity:1" />
    <path
       class="hair"
       inkscape:label="dread2"
       inkscape:connector-curvature="0"
       id="path2443"
       d="m 49.325901,25.440315 a 0.250025,0.250025 0 0 0 -0.0021,0.08602 l 0.206931,1.530953 a 0.250025,0.250025 0 0 0 0.170727,0.20456 c 2.04618,0.671725 3.722448,1.591306 4.915822,3.392709 0.161177,0.2433 0.305568,0.398757 0.505456,0.463487 0.09994,0.03236 0.222521,0.03 0.321244,-0.01865 0.09871,-0.04863 0.164418,-0.131169 0.204435,-0.213219 0.08003,-0.164097 0.08407,-0.342444 0.0508,-0.533725 -0.03331,-0.191292 -0.11309,-0.395418 -0.248983,-0.581705 -1.550522,-2.125537 -3.685707,-3.257535 -5.751176,-4.493493 a 0.250025,0.250025 0 0 0 -0.373139,0.163056 z"
       style="opacity:1;vector-effect:none;fill:#000000;fill-opacity:1;stroke:none;stroke-width:0.5;stroke-linecap:round;stroke-linejoin:round;stroke-miterlimit:4;stroke-dasharray:none;stroke-dashoffset:0;stroke-opacity:1" />
    <path
       class="hair"
       inkscape:label="dread1"
       inkscape:connector-curvature="0"
       id="path2445"
       d="m 51.217701,23.5289 a 0.250025,0.250025 0 0 0 -0.0257,-0.0029 0.250025,0.250025 0 0 0 -0.222336,0.102453 c -1.644396,2.292296 -3.891721,4.823224 -6.300618,6.742143 -2.843195,2.26488 -5.994942,3.696156 -8.305063,3.375512 a 0.250025,0.250025 0 0 0 -0.276055,0.313859 l 0.251254,0.904699 a 0.250025,0.250025 0 0 0 0.239119,0.182259 c 3.519662,0.03714 6.484443,-1.370777 9.012192,-3.351805 2.640457,-2.06936 4.817004,-4.764506 6.697837,-7.125059 a 0.250025,0.250025 0 0 0 -0.0402,-0.351459 L 51.330168,23.58021 a 0.250025,0.250025 0 0 0 -0.112467,-0.05139 z"
       style="opacity:1;vector-effect:none;fill:#000000;fill-opacity:1;stroke:none;stroke-width:0.5;stroke-linecap:round;stroke-linejoin:round;stroke-miterlimit:4;stroke-dasharray:none;stroke-dashoffset:0;stroke-opacity:1" />
    <path
       sodipodi:nodetypes="cscccscccsccc"
       class="hair"
       inkscape:label="dread4"
       inkscape:connector-curvature="0"
       id="path2447"
       d="m 60.139254,25.226801 c 2.970438,0.544494 8.023822,4.030237 10.696382,7.953956 2.67256,3.923718 3.983097,8.283214 4.568799,10.366009 0.06883,0.24475 0.151858,0.441478 0.24726,0.591221 0.04771,0.07487 0.09729,0.138048 0.164465,0.192294 0.06718,0.05425 0.163525,0.107564 0.285587,0.0936 0.122061,-0.01396 0.221272,-0.103229 0.269087,-0.184808 0.04783,-0.08156 0.06783,-0.163783 0.0815,-0.258935 0.02734,-0.190305 0.02013,-0.432385 -0.02623,-0.756882 -0.413245,-2.892754 -2.696431,-8.130734 -5.933281,-12.41042 -1.618425,-2.139844 -3.475816,-4.034542 -5.473682,-5.254376 -1.281374,-0.782362 -2.627616,-1.28596 -3.997305,-1.384887 -2.491411,-0.222966 -2.398106,0.707536 -0.882581,1.053226 z"
       style="opacity:1;vector-effect:none;fill:#000000;fill-opacity:1;stroke:none;stroke-width:0.5;stroke-linecap:round;stroke-linejoin:round;stroke-miterlimit:4;stroke-dasharray:none;stroke-dashoffset:0;stroke-opacity:1" />
    <path
       sodipodi:nodetypes="ccccccccccc"
       inkscape:label="dread3"
       class="hair"
       inkscape:connector-curvature="0"
       id="path2449"
       d="m 61.39273,28.304744 c -0.0016,0.0012 -0.0033,0.0024 -0.0049,0.0036 l -1.348866,-0.53661 c -0.182829,0.05995 -0.232309,0.295263 -0.08907,0.423727 1.863999,2.642734 10.064196,6.860182 15.136265,7.481915 0.123482,0.01542 0.239525,-0.06227 0.272223,-0.182379 l 0.31703,-1.197355 c 0.04361,-0.167639 -0.09232,-0.327765 -0.264823,-0.31193 -1.738083,0.159736 -4.660578,-0.0632 -7.058635,-1.329664 -2.398052,-1.266465 -5.426175,-2.930732 -6.705277,-4.282072 -0.06467,-0.06938 -0.163024,-0.09619 -0.253954,-0.06923 z"
       style="opacity:1;vector-effect:none;fill:#000000;fill-opacity:1;stroke:none;stroke-width:0.5;stroke-linecap:round;stroke-linejoin:round;stroke-miterlimit:4;stroke-dasharray:none;stroke-dashoffset:0;stroke-opacity:1" />
  </g>
  <g
     style="display:none"
     inkscape:label="side"
     id="g2439"
     inkscape:groupmode="layer">
    <path
       class="hair"
       inkscape:label="hair"
       sodipodi:nodetypes="ssccsccsss"
       inkscape:connector-curvature="0"
       id="path2429"
       d="m 44.726468,24.664127 c -2.474503,1.376011 -4.8495,3.326072 -6.183601,5.823419 -0.755912,1.415015 -0.794729,4.74673 -0.794729,4.74673 6.984672,-2.64469 19.764794,-3.63636 23.460817,-8.630083 -0.435801,2.630295 4.68565,3.967628 10.370739,6.838984 0.779764,0.393835 1.595861,1.894072 2.069671,2.714736 l -0.52597,-5.670367 c 0,0 -4.055713,-4.445153 -6.663886,-5.823419 -3.308752,-1.748481 -7.124192,-2.82205 -10.866519,-2.82205 -3.74233,0 -7.663569,1.040966 -10.866522,2.82205 z"
       style="opacity:1;vector-effect:none;fill:#000000;fill-opacity:1;stroke:none;stroke-width:0.5;stroke-linecap:round;stroke-linejoin:round;stroke-miterlimit:4;stroke-dasharray:none;stroke-dashoffset:0;stroke-opacity:1" />
    <path
       class="hair"
       inkscape:label="dread2"
       inkscape:connector-curvature="0"
       id="path2431"
       d="m 54.544991,24.671879 a 0.250025,0.250025 0 0 0 -0.08423,0.01757 l -1.443323,0.55087 a 0.250025,0.250025 0 0 0 -0.160197,0.212907 c -0.18701,2.145482 -0.699757,3.987382 -2.181262,5.560385 -0.200094,0.21245 -0.318495,0.388509 -0.335897,0.597895 -0.0087,0.104693 0.02158,0.223494 0.09147,0.30851 0.06988,0.08501 0.165232,0.130143 0.254249,0.150378 0.178032,0.04047 0.352594,0.0037 0.531233,-0.07235 0.178641,-0.07609 0.359172,-0.20035 0.509529,-0.375171 1.715574,-1.994701 2.330397,-4.331885 3.062346,-6.624918 a 0.250025,0.250025 0 0 0 -0.243912,-0.326078 z"
       style="opacity:1;vector-effect:none;fill:#000000;fill-opacity:1;stroke:none;stroke-width:0.5;stroke-linecap:round;stroke-linejoin:round;stroke-miterlimit:4;stroke-dasharray:none;stroke-dashoffset:0;stroke-opacity:1" />
    <path
       class="hair"
       inkscape:label="dread1"
       inkscape:connector-curvature="0"
       id="path2433"
       d="m 51.119359,25.43669 a 0.250025,0.250025 0 0 0 -0.02584,0.001 0.250025,0.250025 0 0 0 -0.20464,0.134359 c -1.285451,2.511229 -3.131669,5.348049 -5.228621,7.60367 -2.475011,2.662285 -5.379038,4.546081 -7.711157,4.572331 a 0.250025,0.250025 0 0 0 -0.226343,0.351401 l 0.382921,0.85731 a 0.250025,0.250025 0 0 0 0.263551,0.144696 c 3.486092,-0.486371 6.208702,-2.319277 8.413956,-4.653981 2.303582,-2.438805 4.055401,-5.427501 5.564519,-8.041369 a 0.250025,0.250025 0 0 0 -0.09199,-0.341581 l -1.017508,-0.593763 a 0.250025,0.250025 0 0 0 -0.118857,-0.03411 z"
       style="opacity:1;vector-effect:none;fill:#000000;fill-opacity:1;stroke:none;stroke-width:0.5;stroke-linecap:round;stroke-linejoin:round;stroke-miterlimit:4;stroke-dasharray:none;stroke-dashoffset:0;stroke-opacity:1" />
    <path
       sodipodi:nodetypes="cscccscccsccc"
       class="hair"
       inkscape:label="dread4"
       inkscape:connector-curvature="0"
       id="path2435"
       d="m 62.490317,27.409411 c 2.508781,1.681069 5.758759,6.88921 6.650143,11.552211 0.891384,4.663001 0.359791,9.184076 0.06873,11.32799 -0.0342,0.251933 -0.03627,0.465455 -0.0083,0.640789 0.01399,0.08767 0.03435,0.165354 0.07441,0.241845 0.04006,0.07649 0.107249,0.163732 0.224793,0.199472 0.117544,0.03574 0.244075,-0.0067 0.320394,-0.06253 0.07632,-0.05581 0.127376,-0.123291 0.177766,-0.205155 0.100782,-0.163727 0.190447,-0.388705 0.276987,-0.704866 0.771451,-2.81845 0.760066,-8.532402 -0.507463,-13.746448 -0.633764,-2.607024 -1.584285,-5.084178 -2.93212,-6.998023 -0.864464,-1.227482 -1.899324,-2.225001 -3.116655,-2.860563 -2.197166,-1.195536 -2.481669,-0.304695 -1.228685,0.615278 z"
       style="opacity:1;vector-effect:none;fill:#000000;fill-opacity:1;stroke:none;stroke-width:0.5;stroke-linecap:round;stroke-linejoin:round;stroke-miterlimit:4;stroke-dasharray:none;stroke-dashoffset:0;stroke-opacity:1" />
    <path
       sodipodi:nodetypes="ccccccccccc"
       inkscape:label="dread3"
       class="hair"
       inkscape:connector-curvature="0"
       id="path2437"
       d="m 62.99591,28.492339 c -0.0019,6.76e-4 -0.0038,0.0014 -0.0057,0.0021 l -1.147141,-0.889638 c -0.192285,0.0069 -0.305082,0.219256 -0.203086,0.382405 1.057984,3.056011 7.766923,9.382166 12.467621,11.386131 0.114362,0.04906 0.247399,0.0066 0.312124,-0.09973 l 0.636653,-1.062469 c 0.08839,-0.148969 0.0022,-0.340511 -0.167929,-0.373137 -1.714207,-0.328546 -4.460243,-1.353223 -6.413014,-3.235056 -1.952765,-1.881833 -4.400567,-4.320599 -5.254735,-5.973663 -0.04289,-0.08459 -0.129953,-0.137626 -0.224793,-0.136943 z"
       style="opacity:1;vector-effect:none;fill:#000000;fill-opacity:1;stroke:none;stroke-width:0.5;stroke-linecap:round;stroke-linejoin:round;stroke-miterlimit:4;stroke-dasharray:none;stroke-dashoffset:0;stroke-opacity:1" />
  </g>
</svg>
