<?xml version="1.0" encoding="UTF-8" standalone="no"?>
<!-- Created with Inkscape (http://www.inkscape.org/) -->

<svg
   xmlns:dc="http://purl.org/dc/elements/1.1/"
   xmlns:cc="http://creativecommons.org/ns#"
   xmlns:rdf="http://www.w3.org/1999/02/22-rdf-syntax-ns#"
   xmlns:svg="http://www.w3.org/2000/svg"
   xmlns="http://www.w3.org/2000/svg"
   xmlns:sodipodi="http://sodipodi.sourceforge.net/DTD/sodipodi-0.dtd"
   xmlns:inkscape="http://www.inkscape.org/namespaces/inkscape"
   width="112.07594mm"
   height="112.07593mm"
   viewBox="0 0 112.07594 112.07593"
   version="1.1"
   id="svg19053"
   sodipodi:docname="fhair_11.svg"
   inkscape:version="0.92.2 (unknown)">
  <sodipodi:namedview
     pagecolor="#ffffff"
     bordercolor="#666666"
     borderopacity="1"
     objecttolerance="10"
     gridtolerance="10"
     guidetolerance="10"
     inkscape:pageopacity="0"
     inkscape:pageshadow="2"
     inkscape:window-width="1920"
     inkscape:window-height="1023"
     id="namedview29025"
     showgrid="false"
     inkscape:zoom="1.1902046"
     inkscape:cx="155.66821"
     inkscape:cy="34.347908"
     inkscape:window-x="0"
     inkscape:window-y="27"
     inkscape:window-maximized="1"
     inkscape:current-layer="layer5"
     showguides="false" />
  <defs
     id="defs19047" />
  <metadata
     id="metadata19050">
    <rdf:RDF>
      <cc:Work
         rdf:about="">
        <dc:format>image/svg+xml</dc:format>
        <dc:type
           rdf:resource="http://purl.org/dc/dcmitype/StillImage" />
        <dc:title></dc:title>
      </cc:Work>
    </rdf:RDF>
  </metadata>
  <g
     inkscape:groupmode="layer"
     id="layer6"
     inkscape:label="default2">
    <path
       style="opacity:1;vector-effect:none;fill:#000000;fill-opacity:1;stroke:none;stroke-width:0.06614583;stroke-linecap:butt;stroke-linejoin:miter;stroke-miterlimit:4;stroke-dasharray:none;stroke-dashoffset:0;stroke-opacity:1"
       d="m 67.434659,68.455606 c 0,0 12.09704,-29.420392 6.601993,-38.59023 -4.001599,-6.677651 -17.105509,-9.845091 -18.70565,-7.073566 l 9.032183,31.666294 -1.25126,12.268408"
       id="path896"
       inkscape:connector-curvature="0"
       sodipodi:nodetypes="csccc" />
    <path
       style="opacity:1;vector-effect:none;fill:#000000;fill-opacity:1;stroke:none;stroke-width:0.24999999;stroke-linecap:butt;stroke-linejoin:miter;stroke-miterlimit:4;stroke-dasharray:none;stroke-dashoffset:0;stroke-opacity:1"
       d="M 280.27734 173.97461 L 266.67773 175.93945 L 264.75977 194.82031 L 265.46289 194.60547 L 264.36719 205.57812 L 264.00977 205.58984 L 260.91016 219.58008 L 260.64844 219.57031 L 255.84766 236.03516 L 256.21289 235.99023 L 253.89453 245.4043 L 253.12891 245.35938 L 252.82227 246.32617 L 253.22266 236.51562 L 254.11719 236.94336 L 254.53711 226.67383 L 256.75391 227.70703 L 257.49805 208.74219 L 244.30469 204.89453 C 239.51825 206.70236 240.14493 211.66586 242.00977 217.08594 C 239.31894 219.06367 239.81152 222.92951 241.17578 227.14453 C 238.0152 228.9394 238.35928 232.82947 239.70117 237.13477 C 237.80013 239.02335 238.0479 242.17869 239.06055 245.67773 C 236.71118 248.62766 238.6427 254.09065 240.6875 259.27734 L 252.03711 264.71875 L 252.17773 261.28711 L 260.47266 260.46289 C 264.70021 255.6748 268.91966 250.49343 265.78906 246.73047 C 269.60158 241.75046 273.0944 236.48946 269.50781 233.08594 C 273.41694 228.3113 276.67219 223.34989 272.66602 219.98242 C 276.68474 214.52097 280.66293 208.61642 276.02734 205.21289 C 279.18178 199.65004 282.24451 193.70403 278.38477 190.66992 L 278.48438 190.63867 C 282.30045 184.11794 286.01059 177.11747 280.27734 173.97461 z "
       transform="scale(0.26458333)"
       id="path900" />
    <path
       style="opacity:1;vector-effect:none;fill:#000000;fill-opacity:1;stroke:none;stroke-width:0.06614583;stroke-linecap:butt;stroke-linejoin:miter;stroke-miterlimit:4;stroke-dasharray:none;stroke-dashoffset:0;stroke-opacity:1"
       d="m 55.331002,22.79181 c -1.649563,-2.857126 -8.832336,-1.914886 -12.204663,0.363829 -6.131242,4.142941 -8.401766,15.458109 -6.33557,22.563523 2.444656,8.406894 19.229013,12.448841 19.229013,12.448841 l 11.559637,-5.335218 z"
       id="path914"
       inkscape:connector-curvature="0"
       sodipodi:nodetypes="cssccc" />
  </g>
  <g
     inkscape:groupmode="layer"
     id="layer4"
     inkscape:label="ignore"
     style="display:inline"
     sodipodi:insensitive="true">
    <g
       inkscape:label="bg"
       inkscape:groupmode="layer"
       id="layer1"
       style="display:inline">
      <path
         style="opacity:1;vector-effect:none;fill:#fff6d5;fill-opacity:1;stroke:#000000;stroke-width:0.1;stroke-linecap:round;stroke-linejoin:round;stroke-miterlimit:4;stroke-dasharray:none;stroke-dashoffset:0;stroke-opacity:1"
         d="m 235.83203,229.4043 c -1.6728,0.46339 -3.3024,0.85916 -4.85937,1.17578 -2.55787,2.08659 -10.17503,3.59955 -19.17578,3.59961 -9.00077,-6e-5 -16.61792,-1.51302 -19.17579,-3.59961 -1.55625,-0.31648 -3.18544,-0.71072 -4.85742,-1.17383 v 19.65039 c -37.73053,4.53056 -63.99077,19.86474 -64.04297,37.39648 0.0166,0.39799 0.0452,0.7958 0.0899,1.19336 h -0.0899 v 125.35743 h 80.49219 7.58399 7.58398 80.49219 V 287.64648 h -0.0898 c 0.0446,-0.39756 0.0713,-0.79537 0.0898,-1.19336 -0.0522,-17.53174 -26.3105,-32.86592 -64.04102,-37.39648 z"
         transform="scale(0.26458333)"
         id="rect23540"
         inkscape:connector-curvature="0" />
      <path
         style="opacity:1;vector-effect:none;fill:#fff6d5;fill-opacity:1;stroke:#000000;stroke-width:1;stroke-linecap:round;stroke-linejoin:round;stroke-miterlimit:4;stroke-dasharray:none;stroke-dashoffset:0;stroke-opacity:1"
         d="m 202.32812,86.9375 c -15.79511,0 -57.01953,12.335362 -57.01953,50.80664 v 10.58398 c -3.559,0.0833 -6.42026,3.017 -6.41992,9.00391 3.5e-4,5.98613 2.86137,12.7695 6.41992,12.96485 v 10.59179 c 0,31.8402 28.62946,45.89206 47.3125,49.69141 2.55787,2.08659 10.17502,3.59955 19.17579,3.59961 9.00076,-6e-5 16.61791,-1.51302 19.17578,-3.59961 18.68304,-3.79935 47.3125,-17.85121 47.3125,-49.69141 v -10.59179 c 3.55876,-0.19481 6.42152,-6.97847 6.42187,-12.96485 3.5e-4,-5.98716 -2.86266,-8.9208 -6.42187,-9.00391 v -10.58398 c 0,-38.471278 -41.22246,-50.80664 -57.01758,-50.80664 h -9.4707 z"
         transform="scale(0.26458333)"
         id="rect23538"
         inkscape:connector-curvature="0" />
      <path
         inkscape:connector-curvature="0"
         style="opacity:1;vector-effect:none;fill:#ffffff;fill-opacity:1;stroke:none;stroke-width:0.07357386;stroke-linecap:round;stroke-linejoin:round;stroke-miterlimit:4;stroke-dasharray:none;stroke-dashoffset:0;stroke-opacity:1"
         d="M 0.47805685,0.47804646 V 111.59788 H 111.59789 V 0.47804646 Z M 56.037975,2.7678295 A 53.270417,53.270417 0 0 1 109.30863,56.037972 53.270417,53.270417 0 0 1 56.037975,109.30862 53.270417,53.270417 0 0 1 2.7678399,56.037972 53.270417,53.270417 0 0 1 56.037975,2.7678295 Z"
         id="rect855"
         inkscape:label="frame" />
    </g>
    <g
       style="display:inline"
       id="g2778"
       inkscape:groupmode="layer"
       inkscape:label="_ear_size">
      <path
         sodipodi:nodetypes="csssc"
         inkscape:label="ear_left"
         id="path2774"
         d="m 38.334661,38.854136 c -0.349442,-0.222897 -0.713749,-0.351469 -1.058139,-0.351542 -1.299026,-2.77e-4 -2.352284,1.231722 -2.352159,3.054574 1.27e-4,1.822603 1.053312,4.245964 2.352159,4.245687 0.361348,-7.7e-5 0.744637,-0.141627 1.109678,-0.385173"
         style="opacity:1;vector-effect:none;fill:none;fill-opacity:1;stroke:#000000;stroke-width:0.13229167;stroke-linecap:round;stroke-linejoin:round;stroke-miterlimit:4;stroke-dasharray:none;stroke-dashoffset:0;stroke-opacity:1"
         inkscape:connector-curvature="0" />
      <path
         inkscape:connector-curvature="0"
         style="opacity:1;vector-effect:none;fill:none;fill-opacity:1;stroke:#000000;stroke-width:0.13229167;stroke-linecap:round;stroke-linejoin:round;stroke-miterlimit:4;stroke-dasharray:none;stroke-dashoffset:0;stroke-opacity:1"
         d="m 73.563785,38.97637 c 0.401969,-0.297488 0.832449,-0.47369 1.235632,-0.473776 1.299026,-2.77e-4 2.352284,1.231722 2.352159,3.054574 -1.27e-4,1.822603 -1.053312,4.245964 -2.352159,4.245687 -0.396324,-8.5e-5 -0.819042,-0.170355 -1.21513,-0.458724"
         id="path2776"
         inkscape:label="ear_right"
         sodipodi:nodetypes="csssc" />
    </g>
    <g
       inkscape:groupmode="layer"
       id="layer2"
       inkscape:label="_cheek_low"
       style="display:inline">
      <path
         style="opacity:1;vector-effect:none;fill:none;fill-opacity:1;stroke:#000000;stroke-width:0.5;stroke-linecap:round;stroke-linejoin:round;stroke-miterlimit:4;stroke-dasharray:none;stroke-dashoffset:0;stroke-opacity:1"
         d="m 202.32812,86.9375 c -15.7951,0 -57.01953,12.335363 -57.01953,50.80664 0,5.46031 0.2884,10.20841 0.77539,14.41016 -0.2651,0.007 -0.52928,0.0304 -0.79101,0.0898 -3.5418,0.80423 -5.7631,4.32211 -4.41602,10.24609 1.3469,5.92317 5.75012,12.00709 9.29102,11.20118 0.42589,-0.0969 0.82473,-0.26411 1.19726,-0.48829 2.50227,6.12174 5.18386,10.67648 6.7793,15.9004 9.15599,29.97926 25.51723,38.89898 38.0957,41.51953 3.04539,1.73563 8.86645,2.91208 15.55665,2.91211 6.69018,-3e-5 12.51125,-1.17648 15.55664,-2.91211 12.57903,-2.62055 28.94168,-11.54027 38.09765,-41.51953 1.58467,-5.18862 4.24316,-9.71213 6.73047,-15.77149 0.30073,0.15457 0.61228,0.28358 0.94531,0.35938 3.5409,0.80591 7.94412,-5.27801 9.29102,-11.20118 1.34708,-5.92398 -0.87422,-9.44186 -4.41602,-10.24609 -0.16376,-0.0372 -0.32887,-0.054 -0.49414,-0.0703 0.48828,-4.2065 0.77735,-8.96098 0.77735,-14.42969 0,-38.471277 -41.22244,-50.80664 -57.01758,-50.80664 h -9.4707 z"
         transform="scale(0.26458333)"
         id="rect23538-3"
         inkscape:connector-curvature="0" />
    </g>
    <g
       inkscape:groupmode="layer"
       id="layer3"
       inkscape:label="_cheek_high"
       style="display:inline">
      <path
         style="opacity:1;vector-effect:none;fill:none;fill-opacity:1;stroke:#000000;stroke-width:0.5;stroke-linecap:round;stroke-linejoin:round;stroke-miterlimit:4;stroke-dasharray:none;stroke-dashoffset:0;stroke-opacity:1"
         d="m 202.32812,86.9375 c -15.7951,0 -57.01953,12.335363 -57.01953,50.80664 0,1.38786 0.11165,4.68722 -0.16211,9.0293 -3.14184,-0.50671 -6.34888,1.50167 -8.08789,6.70508 -1.92541,5.76115 -1.32333,13.24608 2.1211,14.39648 0.46979,0.1569 0.95798,0.2169 1.45312,0.19922 -0.28148,0.70751 -0.56688,1.41501 -0.88281,2.11914 -15.10484,33.66545 7.0226,55.14848 44.32422,60.29297 2.25899,3.26438 18.0103,5.26168 27.72266,5.26172 9.68698,-4e-5 24.26231,-2.25274 27.63867,-5.25 37.35387,-5.1232 59.52471,-26.61325 44.4082,-60.30469 -0.31619,-0.70473 -0.60308,-1.41298 -0.88477,-2.12109 0.49587,0.0179 0.98463,-0.0401 1.45508,-0.19727 3.44443,-1.1504 4.04651,-8.63533 2.1211,-14.39648 -1.73917,-5.20388 -4.94577,-7.2123 -8.08789,-6.70508 -0.27376,-4.34217 -0.16211,-7.64144 -0.16211,-9.0293 0,-38.471277 -41.22248,-50.80664 -57.01758,-50.80664 h -9.4707 z"
         transform="scale(0.26458333)"
         id="rect23538-6"
         inkscape:connector-curvature="0" />
    </g>
    <g
       style="display:inline"
       id="g2830"
       inkscape:groupmode="layer"
       inkscape:label="_chin">
      <path
         inkscape:label="chin"
         inkscape:connector-curvature="0"
         sodipodi:nodetypes="ccc"
         id="path2822"
         d="m 50.721419,60.269043 c -3e-6,1.02472 2.876644,3.793327 5.31654,2.384653 2.56882,1.483109 5.316538,-1.359933 5.316535,-2.384653"
         style="opacity:1;vector-effect:none;fill:none;fill-opacity:1;stroke:#000000;stroke-width:0.13229167;stroke-linecap:round;stroke-linejoin:round;stroke-miterlimit:4;stroke-dasharray:none;stroke-dashoffset:0;stroke-opacity:1" />
      <path
         inkscape:label="frame"
         id="path2824"
         d="M 0.47805685,0.47804646 V 111.59788 H 111.59789 V 0.47804646 Z M 56.037975,2.7678295 A 53.270417,53.270417 0 0 1 109.30863,56.037972 53.270417,53.270417 0 0 1 56.037975,109.30862 53.270417,53.270417 0 0 1 2.7678399,56.037972 53.270417,53.270417 0 0 1 56.037975,2.7678295 Z"
         style="opacity:1;vector-effect:none;fill:#000000;fill-opacity:1;stroke:none;stroke-width:0.07357386;stroke-linecap:round;stroke-linejoin:round;stroke-miterlimit:4;stroke-dasharray:none;stroke-dashoffset:0;stroke-opacity:1"
         inkscape:connector-curvature="0" />
    </g>
  </g>
  <g
     inkscape:groupmode="layer"
     id="layer5"
     inkscape:label="default"
     style="display:inline">
    <path
       style="display:inline;opacity:1;vector-effect:none;fill:#000000;fill-opacity:1;stroke:none;stroke-width:0.26458332;stroke-linecap:round;stroke-linejoin:round;stroke-miterlimit:4;stroke-dasharray:none;stroke-dashoffset:0;stroke-opacity:1"
       d="m 53.532648,22.668763 c -2.119395,0 -5.900836,0.819541 -9.172565,2.922302 -3.271729,2.102761 -6.028573,5.504638 -6.028573,10.63501 v 2.659269 l 0.11472,0.141076 c 5.2709,-3.29124 10.736657,-7.149344 14.904636,-7.232092 7.457498,1.559486 13.200335,4.410818 20.27875,7.232092 l 0.11472,-0.46922 v -2.331125 c 0,-5.130369 -2.75697,-8.532249 -6.028574,-10.63501 -3.271599,-2.102762 -7.052646,-2.922302 -9.172049,-2.922302 h -2.505789 z"
       id="path863"
       inkscape:connector-curvature="0"
       sodipodi:nodetypes="ssscccccssscs" />
    <path
       style="display:inline;opacity:1;vector-effect:none;fill:#000000;fill-opacity:1;stroke:none;stroke-width:0.06614583;stroke-linecap:butt;stroke-linejoin:miter;stroke-miterlimit:4;stroke-dasharray:none;stroke-dashoffset:0;stroke-opacity:1"
       d="m 73.524488,38.227125 0.105126,1.018023 c -5.87261,-1.503021 -15.569836,1.102803 -20.278748,-7.450821 l 2.613341,-1.188042 c 2.712713,7.677439 11.004004,5.702679 17.560281,7.62084 z"
       id="path868"
       inkscape:connector-curvature="0"
       sodipodi:nodetypes="ccccc" />
    <path
       style="display:inline;opacity:1;vector-effect:none;fill:#000000;fill-opacity:1;stroke:none;stroke-width:0.06614583;stroke-linecap:butt;stroke-linejoin:miter;stroke-miterlimit:4;stroke-dasharray:none;stroke-dashoffset:0;stroke-opacity:1"
       d="m 57.881551,32.356903 c 1.923554,2.052694 7.331629,3.824841 12.885304,6.099786 l -0.433093,0.202652 C 65.843477,37.245273 59.53002,35.402157 57.103498,32.440266 Z"
       id="path872"
       inkscape:connector-curvature="0"
       sodipodi:nodetypes="ccccc" />
    <path
       style="opacity:1;vector-effect:none;fill:#000000;fill-opacity:1;stroke:none;stroke-width:0.06614583;stroke-linecap:butt;stroke-linejoin:miter;stroke-miterlimit:4;stroke-dasharray:none;stroke-dashoffset:0;stroke-opacity:1"
       d="m 46.238551,33.40926 c -2.197836,3.365621 -4.271695,6.793231 -5.44637,10.670432 0.382016,-3.432893 0.57527,-6.900743 2.889911,-9.975743 z"
       id="path898"
       inkscape:connector-curvature="0"
       sodipodi:nodetypes="cccc" />
    <path
       sodipodi:nodetypes="cccc"
       inkscape:connector-curvature="0"
       id="path916"
       d="m 48.919908,32.691669 c -2.151922,2.148248 -4.22175,4.361722 -5.696168,7.048272 0.818383,-2.481357 1.502502,-5.018041 3.695536,-6.932952 z"
       style="opacity:1;vector-effect:none;fill:#000000;fill-opacity:1;stroke:none;stroke-width:0.05003581;stroke-linecap:butt;stroke-linejoin:miter;stroke-miterlimit:4;stroke-dasharray:none;stroke-dashoffset:0;stroke-opacity:1" />
    <path
       style="opacity:1;vector-effect:none;fill:#000000;fill-opacity:1;stroke:none;stroke-width:0.06614583;stroke-linecap:butt;stroke-linejoin:miter;stroke-miterlimit:4;stroke-dasharray:none;stroke-dashoffset:0;stroke-opacity:1"
       d="m 70.024727,67.476845 c -1.599587,4.674362 -3.97016,8.963231 -6.446721,13.199105 -0.73808,1.032911 -1.541166,2.044695 -0.839359,3.545569 -0.711266,-0.627934 -1.597022,-1.126898 -1.496997,-2.354482 -0.298769,0.136974 -0.597538,0.08362 -0.896306,-0.112703 0.814503,-0.205129 1.211499,-0.925984 1.370894,-1.522985 0.320455,-4.768958 0.107192,-9.360011 1.222654,-14.393972 l 3.751325,0.333451 z"
       id="path938"
       inkscape:connector-curvature="0"
       sodipodi:nodetypes="ccccccccc" />
    <path
       style="opacity:1;vector-effect:none;fill:#000000;fill-opacity:1;stroke:none;stroke-width:0.06614583;stroke-linecap:butt;stroke-linejoin:miter;stroke-miterlimit:4;stroke-dasharray:none;stroke-dashoffset:0;stroke-opacity:1"
       d="m 63.738098,80.315832 c -0.588857,1.133613 -0.135642,2.074338 0.464333,2.896017 -1.089993,-0.356475 -1.788056,-0.879729 -1.650497,-1.758566 z"
       id="path942"
       inkscape:connector-curvature="0"
       sodipodi:nodetypes="cccc" />
    <path
       style="opacity:1;vector-effect:none;fill:#aa0000;fill-opacity:1;stroke:none;stroke-width:0.06614583;stroke-linecap:butt;stroke-linejoin:miter;stroke-miterlimit:4;stroke-dasharray:none;stroke-dashoffset:0;stroke-opacity:1"
       d="m 64.027073,79.933872 c 0.06587,0.177225 -0.08187,0.610454 -0.406868,0.686516 l -1.92398,-0.577749 c -0.05762,-0.185021 -0.09293,-0.574271 0.06757,-0.722937 0.757671,0.192416 1.509553,0.406947 2.263274,0.61417 z"
       id="path940"
       inkscape:connector-curvature="0"
       sodipodi:nodetypes="ccccc" />
  </g>
</svg>
