<?xml version="1.0" encoding="UTF-8" standalone="no"?>
<!-- Created with Inkscape (http://www.inkscape.org/) -->

<svg
   xmlns:dc="http://purl.org/dc/elements/1.1/"
   xmlns:cc="http://creativecommons.org/ns#"
   xmlns:rdf="http://www.w3.org/1999/02/22-rdf-syntax-ns#"
   xmlns:svg="http://www.w3.org/2000/svg"
   xmlns="http://www.w3.org/2000/svg"
   xmlns:sodipodi="http://sodipodi.sourceforge.net/DTD/sodipodi-0.dtd"
   xmlns:inkscape="http://www.inkscape.org/namespaces/inkscape"
   width="112.07594mm"
   height="112.07593mm"
   viewBox="0 0 112.07594 112.07593"
   version="1.1"
   id="svg19053"
   sodipodi:docname="fhair_8.svg"
   inkscape:version="0.92.2 (unknown)">
  <sodipodi:namedview
     pagecolor="#ffffff"
     bordercolor="#666666"
     borderopacity="1"
     objecttolerance="10"
     gridtolerance="10"
     guidetolerance="10"
     inkscape:pageopacity="0"
     inkscape:pageshadow="2"
     inkscape:window-width="1920"
     inkscape:window-height="1023"
     id="namedview29025"
     showgrid="false"
     inkscape:zoom="0.68090225"
     inkscape:cx="46.403538"
     inkscape:cy="186.40215"
     inkscape:window-x="0"
     inkscape:window-y="27"
     inkscape:window-maximized="1"
     inkscape:current-layer="g842" />
  <defs
     id="defs19047" />
  <metadata
     id="metadata19050">
    <rdf:RDF>
      <cc:Work
         rdf:about="">
        <dc:format>image/svg+xml</dc:format>
        <dc:type
           rdf:resource="http://purl.org/dc/dcmitype/StillImage" />
        <dc:title />
      </cc:Work>
    </rdf:RDF>
  </metadata>
  <g
     inkscape:groupmode="layer"
     id="layer4"
     inkscape:label="ignore"
     style="display:inline"
     sodipodi:insensitive="true">
    <g
       inkscape:label="bg"
       inkscape:groupmode="layer"
       id="layer1"
       style="display:inline">
      <path
         style="opacity:1;vector-effect:none;fill:#fff6d5;fill-opacity:1;stroke:#000000;stroke-width:1;stroke-linecap:round;stroke-linejoin:round;stroke-miterlimit:4;stroke-dasharray:none;stroke-dashoffset:0;stroke-opacity:1"
         d="m 235.83203,229.4043 c -1.6728,0.46339 -3.3024,0.85916 -4.85937,1.17578 -2.55787,2.08659 -10.17503,3.59955 -19.17578,3.59961 -9.00077,-6e-5 -16.61792,-1.51302 -19.17579,-3.59961 -1.55625,-0.31648 -3.18544,-0.71072 -4.85742,-1.17383 v 19.65039 c -37.73053,4.53056 -63.99077,19.86474 -64.04297,37.39648 0.0166,0.39799 0.0452,0.7958 0.0899,1.19336 h -0.0899 v 125.35743 h 80.49219 7.58399 7.58398 80.49219 V 287.64648 h -0.0898 c 0.0446,-0.39756 0.0713,-0.79537 0.0898,-1.19336 -0.0522,-17.53174 -26.3105,-32.86592 -64.04102,-37.39648 z"
         transform="scale(0.26458333)"
         id="rect23540"
         inkscape:connector-curvature="0" />
      <path
         style="opacity:1;vector-effect:none;fill:#fff6d5;fill-opacity:1;stroke:none;stroke-width:1;stroke-linecap:round;stroke-linejoin:round;stroke-miterlimit:4;stroke-dasharray:none;stroke-dashoffset:0;stroke-opacity:1"
         d="m 202.32812,86.9375 c -15.79511,0 -57.01953,12.335362 -57.01953,50.80664 v 10.58398 c -3.559,0.0833 -6.42026,3.017 -6.41992,9.00391 3.5e-4,5.98613 2.86137,12.7695 6.41992,12.96485 v 10.59179 c 0,31.8402 28.62946,45.89206 47.3125,49.69141 2.55787,2.08659 10.17502,3.59955 19.17579,3.59961 9.00076,-6e-5 16.61791,-1.51302 19.17578,-3.59961 18.68304,-3.79935 47.3125,-17.85121 47.3125,-49.69141 v -10.59179 c 3.55876,-0.19481 6.42152,-6.97847 6.42187,-12.96485 3.5e-4,-5.98716 -2.86266,-8.9208 -6.42187,-9.00391 v -10.58398 c 0,-38.471278 -41.22246,-50.80664 -57.01758,-50.80664 h -9.4707 z"
         transform="scale(0.26458333)"
         id="rect23538"
         inkscape:connector-curvature="0" />
      <path
         inkscape:connector-curvature="0"
         style="opacity:1;vector-effect:none;fill:#ffffff;fill-opacity:1;stroke:none;stroke-width:0.07357386;stroke-linecap:round;stroke-linejoin:round;stroke-miterlimit:4;stroke-dasharray:none;stroke-dashoffset:0;stroke-opacity:1"
         d="M 0.47805685,0.47804646 V 111.59788 H 111.59789 V 0.47804646 Z M 56.037975,2.7678295 A 53.270417,53.270417 0 0 1 109.30863,56.037972 53.270417,53.270417 0 0 1 56.037975,109.30862 53.270417,53.270417 0 0 1 2.7678399,56.037972 53.270417,53.270417 0 0 1 56.037975,2.7678295 Z"
         id="rect855"
         inkscape:label="frame" />
    </g>
    <g
       style="display:inline"
       id="g2778"
       inkscape:groupmode="layer"
       inkscape:label="_ear_size">
      <path
         sodipodi:nodetypes="csssc"
         inkscape:label="ear_left"
         id="path2774"
         d="m 38.334661,38.854136 c -0.349442,-0.222897 -0.713749,-0.351469 -1.058139,-0.351542 -1.299026,-2.77e-4 -2.352284,1.231722 -2.352159,3.054574 1.27e-4,1.822603 1.053312,4.245964 2.352159,4.245687 0.361348,-7.7e-5 0.744637,-0.141627 1.109678,-0.385173"
         style="opacity:1;vector-effect:none;fill:none;fill-opacity:1;stroke:#000000;stroke-width:0.13229167;stroke-linecap:round;stroke-linejoin:round;stroke-miterlimit:4;stroke-dasharray:none;stroke-dashoffset:0;stroke-opacity:1"
         inkscape:connector-curvature="0" />
      <path
         inkscape:connector-curvature="0"
         style="opacity:1;vector-effect:none;fill:none;fill-opacity:1;stroke:#000000;stroke-width:0.13229167;stroke-linecap:round;stroke-linejoin:round;stroke-miterlimit:4;stroke-dasharray:none;stroke-dashoffset:0;stroke-opacity:1"
         d="m 73.563785,38.97637 c 0.401969,-0.297488 0.832449,-0.47369 1.235632,-0.473776 1.299026,-2.77e-4 2.352284,1.231722 2.352159,3.054574 -1.27e-4,1.822603 -1.053312,4.245964 -2.352159,4.245687 -0.396324,-8.5e-5 -0.819042,-0.170355 -1.21513,-0.458724"
         id="path2776"
         inkscape:label="ear_right"
         sodipodi:nodetypes="csssc" />
    </g>
    <g
       inkscape:groupmode="layer"
       id="layer2"
       inkscape:label="_cheek_low"
       style="display:inline">
      <path
         style="opacity:1;vector-effect:none;fill:none;fill-opacity:1;stroke:none;stroke-width:0.5;stroke-linecap:round;stroke-linejoin:round;stroke-miterlimit:4;stroke-dasharray:none;stroke-dashoffset:0;stroke-opacity:1"
         d="m 202.32812,86.9375 c -15.7951,0 -57.01953,12.335363 -57.01953,50.80664 0,5.46031 0.2884,10.20841 0.77539,14.41016 -0.2651,0.007 -0.52928,0.0304 -0.79101,0.0898 -3.5418,0.80423 -5.7631,4.32211 -4.41602,10.24609 1.3469,5.92317 5.75012,12.00709 9.29102,11.20118 0.42589,-0.0969 0.82473,-0.26411 1.19726,-0.48829 2.50227,6.12174 5.18386,10.67648 6.7793,15.9004 9.15599,29.97926 25.51723,38.89898 38.0957,41.51953 3.04539,1.73563 8.86645,2.91208 15.55665,2.91211 6.69018,-3e-5 12.51125,-1.17648 15.55664,-2.91211 12.57903,-2.62055 28.94168,-11.54027 38.09765,-41.51953 1.58467,-5.18862 4.24316,-9.71213 6.73047,-15.77149 0.30073,0.15457 0.61228,0.28358 0.94531,0.35938 3.5409,0.80591 7.94412,-5.27801 9.29102,-11.20118 1.34708,-5.92398 -0.87422,-9.44186 -4.41602,-10.24609 -0.16376,-0.0372 -0.32887,-0.054 -0.49414,-0.0703 0.48828,-4.2065 0.77735,-8.96098 0.77735,-14.42969 0,-38.471277 -41.22244,-50.80664 -57.01758,-50.80664 h -9.4707 z"
         transform="scale(0.26458333)"
         id="rect23538-3"
         inkscape:connector-curvature="0" />
    </g>
    <g
       inkscape:groupmode="layer"
       id="layer3"
       inkscape:label="_cheek_high"
       style="display:inline">
      <path
         style="opacity:1;vector-effect:none;fill:none;fill-opacity:1;stroke:none;stroke-width:0.5;stroke-linecap:round;stroke-linejoin:round;stroke-miterlimit:4;stroke-dasharray:none;stroke-dashoffset:0;stroke-opacity:1"
         d="m 202.32812,86.9375 c -15.7951,0 -57.01953,12.335363 -57.01953,50.80664 0,1.38786 0.11165,4.68722 -0.16211,9.0293 -3.14184,-0.50671 -6.34888,1.50167 -8.08789,6.70508 -1.92541,5.76115 -1.32333,13.24608 2.1211,14.39648 0.46979,0.1569 0.95798,0.2169 1.45312,0.19922 -0.28148,0.70751 -0.56688,1.41501 -0.88281,2.11914 -15.10484,33.66545 7.0226,55.14848 44.32422,60.29297 2.25899,3.26438 18.0103,5.26168 27.72266,5.26172 9.68698,-4e-5 24.26231,-2.25274 27.63867,-5.25 37.35387,-5.1232 59.52471,-26.61325 44.4082,-60.30469 -0.31619,-0.70473 -0.60308,-1.41298 -0.88477,-2.12109 0.49587,0.0179 0.98463,-0.0401 1.45508,-0.19727 3.44443,-1.1504 4.04651,-8.63533 2.1211,-14.39648 -1.73917,-5.20388 -4.94577,-7.2123 -8.08789,-6.70508 -0.27376,-4.34217 -0.16211,-7.64144 -0.16211,-9.0293 0,-38.471277 -41.22248,-50.80664 -57.01758,-50.80664 h -9.4707 z"
         transform="scale(0.26458333)"
         id="rect23538-6"
         inkscape:connector-curvature="0" />
    </g>
    <g
       style="display:inline"
       id="g2830"
       inkscape:groupmode="layer"
       inkscape:label="_chin">
      <path
         inkscape:label="chin"
         inkscape:connector-curvature="0"
         sodipodi:nodetypes="ccc"
         id="path2822"
         d="m 50.721419,60.269043 c -3e-6,1.02472 2.876644,3.793327 5.31654,2.384653 2.56882,1.483109 5.316538,-1.359933 5.316535,-2.384653"
         style="opacity:1;vector-effect:none;fill:none;fill-opacity:1;stroke:#000000;stroke-width:0.13229167;stroke-linecap:round;stroke-linejoin:round;stroke-miterlimit:4;stroke-dasharray:none;stroke-dashoffset:0;stroke-opacity:1" />
      <path
         inkscape:label="frame"
         id="path2824"
         d="M 0.47805685,0.47804646 V 111.59788 H 111.59789 V 0.47804646 Z M 56.037975,2.7678295 A 53.270417,53.270417 0 0 1 109.30863,56.037972 53.270417,53.270417 0 0 1 56.037975,109.30862 53.270417,53.270417 0 0 1 2.7678399,56.037972 53.270417,53.270417 0 0 1 56.037975,2.7678295 Z"
         style="opacity:1;vector-effect:none;fill:#000000;fill-opacity:1;stroke:none;stroke-width:0.07357386;stroke-linecap:round;stroke-linejoin:round;stroke-miterlimit:4;stroke-dasharray:none;stroke-dashoffset:0;stroke-opacity:1"
         inkscape:connector-curvature="0" />
    </g>
  </g>
  <g
     inkscape:groupmode="layer"
     id="layer5"
     inkscape:label="default"
     style="display:inline">
    <path
       style="display:inline;opacity:0.5;vector-effect:none;fill:#000000;fill-opacity:1;stroke:none;stroke-width:0.26458332;stroke-linecap:round;stroke-linejoin:round;stroke-miterlimit:4;stroke-dasharray:none;stroke-dashoffset:0;stroke-opacity:1"
       d="m 53.552007,22.817199 c -2.128629,0 -5.912991,0.820749 -9.191686,2.927987 -3.278696,2.107237 -6.044592,5.521425 -6.044592,10.664465 v 2.669087 c -0.05567,0.0059 -0.110961,0.01455 -0.165364,0.02532 l 0.606163,1.116729 c 2.308373,-1.613301 0.668464,-5.143641 3.618383,-6.164481 0.52822,-0.182792 0.726869,-0.509161 0.767914,-0.797367 0.170344,-1.196149 1.259276,-2.943981 5.780524,-4.545459 1.702107,-0.602903 2.734212,0.274701 7.123597,0.290938 4.389387,0.01624 5.419831,-0.895217 7.144784,-0.28422 4.521248,1.601478 5.610183,3.34931 5.780527,4.545459 0.04104,0.288206 0.239694,0.614574 0.767911,0.797367 2.949919,1.020839 1.31001,4.55118 3.618383,6.164482 l 0.609783,-1.123447 c -0.05573,-0.01117 -0.112448,-0.01929 -0.1695,-0.02532 v -2.669087 c 0,-5.143037 -2.766026,-8.557226 -6.044592,-10.664465 -3.278566,-2.10724 -7.062536,-2.927988 -9.19117,-2.927988 h -2.505789 z"
       id="path849"
       inkscape:connector-curvature="0"
       class="hair"
       inkscape:label="hair" />
    <path
       style="fill:#000000;stroke:none;stroke-width:0.2474293px;stroke-linecap:butt;stroke-linejoin:miter;stroke-opacity:1"
       d="m 51.574112,18.99884 c -7.468978,0.01352 -10.991106,4.396918 -11.458215,8.932272 -0.833914,2.173245 -1.206127,4.53099 -1.206127,4.53099 l 0.01704,-0.0047 0.151413,-0.04082 c -0.285723,0.361773 -0.46822,0.792517 -0.751377,1.156002 0.887056,-0.333341 1.660893,-1.063197 2.484086,-1.620057 l -0.02222,-0.0011 0.459404,-0.125058 c -0.64757,0.444762 -1.303912,0.898488 -1.989542,1.381313 1.446654,-0.392528 3.005179,-1.126995 4.466394,-1.77922 11.452799,1.554232 15.622061,-0.02185 19.984309,-2.457733 1.570937,0.599065 2.793238,1.212821 3.555339,1.80661 l 0.230992,0.113689 1.261422,0.348297 -0.359667,0.382405 0.877464,-0.101285 c 0.327859,0.404405 0.884431,0.868222 2.244307,1.542542 -0.409792,-0.447064 -0.80691,-0.892638 -0.866613,-1.303795 l 1.062469,0.288869 0.911571,0.958083 -0.299723,-0.791684 0.606682,0.164849 0.30489,0.08268 c 0,0 -0.857231,-5.477801 -2.910417,-7.429005 -1.956466,-1.859283 -5.116679,-3.225213 -7.337517,-2.766207 -1.87628,-1.755972 -8.288404,-3.27368 -11.416358,-3.268018 z m 17.695045,13.439489 0.44545,0.958599 0.999421,0.418578 -0.37827,-0.729154 z m -26.905852,0.378272 -0.71882,0.246497 -2.048452,0.928108 0.998905,0.175183 0.594278,-0.566891 0.647507,-0.20257 z m 28.485599,0.566891 0.216009,0.270267 0.864028,0.593762 0.580327,0.02687 -0.526582,-0.674896 z m -30.86995,0.01394 -0.821137,0.343648 -0.486794,0.401011 0.582396,0.05736 z m 2.806546,0.171566 -1.489313,0.477491 0.353468,0.190685 z m 29.494324,0.192754 1.201478,0.998906 0.837158,0.256315 -0.769462,-0.837161 z m -32.346344,0.485757 -1.296046,0.83716 1.039731,-0.256834 z m 31.617189,0.310576 1.430923,0.877466 0.472839,0.0677 -0.553455,-0.715719 z m -31.123162,0.423746 -0.391191,0.391707 -1.327053,0.849562 0.610818,0.114204 0.553971,-0.581877 0.734838,-0.124023 z m -1.466061,0.318844 -0.499711,0.283186 -0.607197,0.675412 1.70067,-0.904853 z m 32.967495,0.458888 -0.121438,0.04031 0.540017,0.594278 h 0.661459 l -0.283703,-0.297137 z m -31.606338,0.263033 -0.505913,0.37207 0.467672,0.05736 z m 31.862654,1.046448 0.904337,0.998905 0.391708,-0.05374 -0.44545,-0.634587 z m -32.664673,0.05116 -1.021125,0.687295 1.068668,-0.09508 z"
       id="path852"
       inkscape:label="top_hair"
       class="hair"
       inkscape:connector-curvature="0" />
    <path
       style="fill:#000000;stroke:none;stroke-width:0.26458332px;stroke-linecap:butt;stroke-linejoin:miter;stroke-opacity:1"
       d="m 63.693717,28.509986 c -0.795076,2.156652 2.020623,3.311443 4.42805,4.37405 -1.335028,-1.630338 -1.868515,-2.455729 -1.053011,-4.239049 z"
       id="path880"
       inkscape:connector-curvature="0"
       sodipodi:nodetypes="cccc"
       inkscape:label="bit2"
       class="hair" />
    <path
       style="fill:#000000;stroke:none;stroke-width:0.26772413px;stroke-linecap:butt;stroke-linejoin:miter;stroke-opacity:1"
       d="m 65.753186,27.910242 c -4.255188,3.204441 -10.8602,5.158622 -17.557057,4.826232 7.181531,-1.799708 11.034772,-2.197224 14.803792,-5.200357 z"
       id="path884"
       inkscape:connector-curvature="0"
       sodipodi:nodetypes="cccc"
       inkscape:label="bit1"
       class="hair" />
    <path
       style="opacity:1;vector-effect:none;fill:#000000;fill-opacity:1;stroke:none;stroke-width:0.06614583;stroke-linecap:butt;stroke-linejoin:miter;stroke-miterlimit:4;stroke-dasharray:none;stroke-dashoffset:0;stroke-opacity:1"
       d="m 61.493193,22.313415 c 1.780991,-0.498742 3.483616,-1.184067 5.994067,0.054 -5.398228,-0.584508 -4.10092,0.583469 -6.142568,0.87751 z"
       id="path909"
       inkscape:connector-curvature="0"
       sodipodi:nodetypes="cccc"
       inkscape:label="bit3"
       class="hair" />
  </g>
  <g
     style="display:none"
     inkscape:label="non_hipster"
     id="g842"
     inkscape:groupmode="layer">
    <path
       inkscape:label="hair"
       class="hair"
       inkscape:connector-curvature="0"
       id="path832"
       d="m 53.552007,22.817199 c -2.128629,0 -5.912991,0.820749 -9.191686,2.927987 -3.278696,2.107237 -6.044592,5.521425 -6.044592,10.664465 v 2.669087 c -0.05567,0.0059 -0.110961,0.01455 -0.165364,0.02532 l 0.606163,1.116729 c 2.308373,-1.613301 0.668464,-5.143641 3.618383,-6.164481 0.52822,-0.182792 0.726869,-0.509161 0.767914,-0.797367 0.170344,-1.196149 1.259276,-2.943981 5.780524,-4.545459 1.702107,-0.602903 2.734212,0.274701 7.123597,0.290938 4.389387,0.01624 5.419831,-0.895217 7.144784,-0.28422 4.521248,1.601478 5.610183,3.34931 5.780527,4.545459 0.04104,0.288206 0.239694,0.614574 0.767911,0.797367 2.949919,1.020839 1.31001,4.55118 3.618383,6.164482 l 0.609783,-1.123447 c -0.05573,-0.01117 -0.112448,-0.01929 -0.1695,-0.02532 v -2.669087 c 0,-5.143037 -2.766026,-8.557226 -6.044592,-10.664465 -3.278566,-2.10724 -7.062536,-2.927988 -9.19117,-2.927988 h -2.505789 z"
       style="display:inline;opacity:0.5;vector-effect:none;fill:#000000;fill-opacity:1;stroke:none;stroke-width:0.26458332;stroke-linecap:round;stroke-linejoin:round;stroke-miterlimit:4;stroke-dasharray:none;stroke-dashoffset:0;stroke-opacity:1" />
    <path
       inkscape:connector-curvature="0"
       class="hair"
       inkscape:label="top_hair"
       id="path834"
       d="m 49.645154,20.11457 c -5.118858,1.39649 -7.219951,3.555973 -9.529257,7.816542 -0.833914,2.173245 -1.206127,4.53099 -1.206127,4.53099 l 0.01704,-0.0047 0.151413,-0.04082 c -0.285723,0.361773 -0.46822,0.792517 -0.751377,1.156002 0.887056,-0.333341 1.660893,-1.063197 2.484086,-1.620057 l -0.02222,-0.0011 0.459404,-0.125058 c -0.64757,0.444762 -1.303912,0.898488 -1.989542,1.381313 1.446654,-0.392528 3.005179,-1.126995 4.466394,-1.77922 11.452799,1.554232 15.622061,-0.02185 19.984309,-2.457733 1.570937,0.599065 2.793238,1.212821 3.555339,1.80661 l 0.230992,0.113689 1.261422,0.348297 -0.359667,0.382405 0.877464,-0.101285 c 0.327859,0.404405 0.884431,0.868222 2.244307,1.542542 -0.409792,-0.447064 -0.80691,-0.892638 -0.866613,-1.303795 l 1.062469,0.288869 0.911571,0.958083 -0.299723,-0.791684 0.606682,0.164849 0.30489,0.08268 c 0,0 -0.857231,-5.477801 -2.910417,-7.429005 -1.956466,-1.859283 -5.116679,-3.225213 -7.337517,-2.766207 -1.87628,-1.755972 -7.446934,-2.535247 -11.278975,-2.512412 z m 19.624003,12.323759 0.44545,0.958599 0.999421,0.418578 -0.37827,-0.729154 z m -26.905852,0.378272 -0.71882,0.246497 -2.048452,0.928108 0.998905,0.175183 0.594278,-0.566891 0.647507,-0.20257 z m 28.485599,0.566891 0.216009,0.270267 0.864028,0.593762 0.580327,0.02687 -0.526582,-0.674896 z m -30.86995,0.01394 -0.821137,0.343648 -0.486794,0.401011 0.582396,0.05736 z m 2.806546,0.171566 -1.489313,0.477491 0.353468,0.190685 z m 29.494324,0.192754 1.201478,0.998906 0.837158,0.256315 -0.769462,-0.837161 z m -32.346344,0.485757 -1.296046,0.83716 1.039731,-0.256834 z m 31.617189,0.310576 1.430923,0.877466 0.472839,0.0677 -0.553455,-0.715719 z m -31.123162,0.423746 -0.391191,0.391707 -1.327053,0.849562 0.610818,0.114204 0.553971,-0.581877 0.734838,-0.124023 z m -1.466061,0.318844 -0.499711,0.283186 -0.607197,0.675412 1.70067,-0.904853 z m 32.967495,0.458888 -0.121438,0.04031 0.540017,0.594278 h 0.661459 l -0.283703,-0.297137 z m -31.606338,0.263033 -0.505913,0.37207 0.467672,0.05736 z m 31.862654,1.046448 0.904337,0.998905 0.391708,-0.05374 -0.44545,-0.634587 z m -32.664673,0.05116 -1.021125,0.687295 1.068668,-0.09508 z"
       style="fill:#000000;stroke:none;stroke-width:0.2474293px;stroke-linecap:butt;stroke-linejoin:miter;stroke-opacity:1"
       sodipodi:nodetypes="cccccccccccccccccccccccccccccccccccccccccccccccccccccccccccccccccccccccccccccccccccccccccccccccccccc" />
    <path
       class="hair"
       inkscape:label="bit2"
       sodipodi:nodetypes="cccc"
       inkscape:connector-curvature="0"
       id="path836"
       d="m 63.91901,28.616131 c 0.241018,2.28587 3.277071,2.075903 5.906194,1.963876 -1.918521,-0.871539 -2.762104,-1.375767 -2.819647,-3.33586 z"
       style="fill:#000000;stroke:none;stroke-width:0.26458332px;stroke-linecap:butt;stroke-linejoin:miter;stroke-opacity:1" />
    <path
       class="hair"
       inkscape:label="bit1"
       sodipodi:nodetypes="cccc"
       inkscape:connector-curvature="0"
       id="path838"
       d="m 66.187602,27.83294 c -4.398844,3.004204 -11.087171,4.650803 -17.761488,4.009031 7.257085,-1.465627 11.124588,-1.684501 15.028473,-4.510098 z"
       style="fill:#000000;stroke:none;stroke-width:0.26772413px;stroke-linecap:butt;stroke-linejoin:miter;stroke-opacity:1" />
    <path
       class="hair"
       inkscape:label="bit3"
       sodipodi:nodetypes="cccc"
       inkscape:connector-curvature="0"
       id="path840"
       d="m 61.969735,22.313821 c 1.844793,-0.131944 3.650177,-0.462387 5.861807,1.253383 -5.171792,-1.653809 -4.134688,-0.249675 -6.19386,-0.370488 z"
       style="opacity:1;vector-effect:none;fill:#000000;fill-opacity:1;stroke:none;stroke-width:0.06614583;stroke-linecap:butt;stroke-linejoin:miter;stroke-miterlimit:4;stroke-dasharray:none;stroke-dashoffset:0;stroke-opacity:1" />
  </g>
</svg>
