<?xml version="1.0" encoding="UTF-8" standalone="no"?>
<!-- Created with Inkscape (http://www.inkscape.org/) -->

<svg
   xmlns:dc="http://purl.org/dc/elements/1.1/"
   xmlns:cc="http://creativecommons.org/ns#"
   xmlns:rdf="http://www.w3.org/1999/02/22-rdf-syntax-ns#"
   xmlns:svg="http://www.w3.org/2000/svg"
   xmlns="http://www.w3.org/2000/svg"
   xmlns:sodipodi="http://sodipodi.sourceforge.net/DTD/sodipodi-0.dtd"
   xmlns:inkscape="http://www.inkscape.org/namespaces/inkscape"
   width="112.07594mm"
   height="112.07593mm"
   viewBox="0 0 112.07594 112.07593"
   version="1.1"
   id="svg19053"
   sodipodi:docname="wip.svg"
   inkscape:version="0.92.3 (unknown)">
  <sodipodi:namedview
     pagecolor="#ffffff"
     bordercolor="#666666"
     borderopacity="1"
     objecttolerance="10"
     gridtolerance="10"
     guidetolerance="10"
     inkscape:pageopacity="0"
     inkscape:pageshadow="2"
     inkscape:window-width="1920"
     inkscape:window-height="1023"
     id="namedview29025"
     showgrid="false"
     inkscape:zoom="0.84160171"
     inkscape:cx="240.75679"
     inkscape:cy="344.46306"
     inkscape:window-x="0"
     inkscape:window-y="27"
     inkscape:window-maximized="1"
     inkscape:current-layer="layer6"
     inkscape:lockguides="true" />
  <defs
     id="defs19047" />
  <metadata
     id="metadata19050">
    <rdf:RDF>
      <cc:Work
         rdf:about="">
        <dc:format>image/svg+xml</dc:format>
        <dc:type
           rdf:resource="http://purl.org/dc/dcmitype/StillImage" />
        <dc:title></dc:title>
      </cc:Work>
    </rdf:RDF>
  </metadata>
  <g
     inkscape:groupmode="layer"
     id="layer6"
     inkscape:label="default">
    <ellipse
       style="opacity:1;vector-effect:none;fill:#000000;fill-opacity:1;stroke:none;stroke-width:0.10108279;stroke-linecap:round;stroke-linejoin:round;stroke-miterlimit:4;stroke-dasharray:none;stroke-dashoffset:0;stroke-opacity:1"
       id="path1265"
       cx="55.79628"
       cy="32.655384"
       rx="18.256447"
       ry="13.977158" />
    <ellipse
       style="opacity:1;vector-effect:none;fill:#000000;fill-opacity:1;stroke:none;stroke-width:0.12232969;stroke-linecap:round;stroke-linejoin:round;stroke-miterlimit:4;stroke-dasharray:none;stroke-dashoffset:0;stroke-opacity:1"
       id="path1267"
       cx="40.085403"
       cy="25.126102"
       rx="1.0877591"
       ry="1.2917138" />
    <ellipse
       ry="1.2917138"
       rx="1.0877591"
       cy="26.560463"
       cx="38.867176"
       id="ellipse1269"
       style="opacity:1;vector-effect:none;fill:#000000;fill-opacity:1;stroke:none;stroke-width:0.12232969;stroke-linecap:round;stroke-linejoin:round;stroke-miterlimit:4;stroke-dasharray:none;stroke-dashoffset:0;stroke-opacity:1" />
    <ellipse
       style="opacity:1;vector-effect:none;fill:#000000;fill-opacity:1;stroke:none;stroke-width:0.12232969;stroke-linecap:round;stroke-linejoin:round;stroke-miterlimit:4;stroke-dasharray:none;stroke-dashoffset:0;stroke-opacity:1"
       id="ellipse1271"
       cx="38.336658"
       cy="28.702183"
       rx="1.0877591"
       ry="1.2917138" />
    <ellipse
       ry="1.2917138"
       rx="1.0877591"
       cy="30.86355"
       cx="37.550705"
       id="ellipse1273"
       style="opacity:1;vector-effect:none;fill:#000000;fill-opacity:1;stroke:none;stroke-width:0.12232969;stroke-linecap:round;stroke-linejoin:round;stroke-miterlimit:4;stroke-dasharray:none;stroke-dashoffset:0;stroke-opacity:1" />
    <ellipse
       style="opacity:1;vector-effect:none;fill:#000000;fill-opacity:1;stroke:none;stroke-width:0.12232969;stroke-linecap:round;stroke-linejoin:round;stroke-miterlimit:4;stroke-dasharray:none;stroke-dashoffset:0;stroke-opacity:1"
       id="ellipse1275"
       cx="37.197025"
       cy="32.907024"
       rx="1.0877591"
       ry="1.2917138" />
    <ellipse
       ry="1.2917138"
       rx="1.0877591"
       cy="35.304176"
       cx="37.197025"
       id="ellipse1277"
       style="opacity:1;vector-effect:none;fill:#000000;fill-opacity:1;stroke:none;stroke-width:0.12232969;stroke-linecap:round;stroke-linejoin:round;stroke-miterlimit:4;stroke-dasharray:none;stroke-dashoffset:0;stroke-opacity:1" />
    <ellipse
       style="opacity:1;vector-effect:none;fill:#000000;fill-opacity:1;stroke:none;stroke-width:0.12232969;stroke-linecap:round;stroke-linejoin:round;stroke-miterlimit:4;stroke-dasharray:none;stroke-dashoffset:0;stroke-opacity:1"
       id="ellipse1279"
       cx="37.550705"
       cy="37.033272"
       rx="1.0877591"
       ry="1.2917138" />
    <ellipse
       ry="1.2917138"
       rx="1.0877591"
       cy="38.133606"
       cx="37.550705"
       id="ellipse1281"
       style="opacity:1;vector-effect:none;fill:#000000;fill-opacity:1;stroke:none;stroke-width:0.12232969;stroke-linecap:round;stroke-linejoin:round;stroke-miterlimit:4;stroke-dasharray:none;stroke-dashoffset:0;stroke-opacity:1" />
    <ellipse
       ry="1.2917138"
       rx="1.0877591"
       cy="23.789984"
       cx="41.539413"
       id="ellipse1283"
       style="opacity:1;vector-effect:none;fill:#000000;fill-opacity:1;stroke:none;stroke-width:0.12232969;stroke-linecap:round;stroke-linejoin:round;stroke-miterlimit:4;stroke-dasharray:none;stroke-dashoffset:0;stroke-opacity:1" />
    <ellipse
       style="opacity:1;vector-effect:none;fill:#000000;fill-opacity:1;stroke:none;stroke-width:0.12232969;stroke-linecap:round;stroke-linejoin:round;stroke-miterlimit:4;stroke-dasharray:none;stroke-dashoffset:0;stroke-opacity:1"
       id="ellipse1285"
       cx="43.072018"
       cy="22.591408"
       rx="1.0877591"
       ry="1.2917138" />
    <ellipse
       ry="1.2917138"
       rx="1.0877591"
       cy="21.353535"
       cx="44.781464"
       id="ellipse1287"
       style="opacity:1;vector-effect:none;fill:#000000;fill-opacity:1;stroke:none;stroke-width:0.12232969;stroke-linecap:round;stroke-linejoin:round;stroke-miterlimit:4;stroke-dasharray:none;stroke-dashoffset:0;stroke-opacity:1" />
    <ellipse
       style="opacity:1;vector-effect:none;fill:#000000;fill-opacity:1;stroke:none;stroke-width:0.12232969;stroke-linecap:round;stroke-linejoin:round;stroke-miterlimit:4;stroke-dasharray:none;stroke-dashoffset:0;stroke-opacity:1"
       id="ellipse1289"
       cx="46.628448"
       cy="20.469339"
       rx="1.0877591"
       ry="1.2917138" />
    <ellipse
       ry="1.2917138"
       rx="1.0877591"
       cy="19.644091"
       cx="48.514732"
       id="ellipse1291"
       style="opacity:1;vector-effect:none;fill:#000000;fill-opacity:1;stroke:none;stroke-width:0.12232969;stroke-linecap:round;stroke-linejoin:round;stroke-miterlimit:4;stroke-dasharray:none;stroke-dashoffset:0;stroke-opacity:1" />
    <ellipse
       style="opacity:1;vector-effect:none;fill:#000000;fill-opacity:1;stroke:none;stroke-width:0.12232969;stroke-linecap:round;stroke-linejoin:round;stroke-miterlimit:4;stroke-dasharray:none;stroke-dashoffset:0;stroke-opacity:1"
       id="ellipse1293"
       cx="50.49926"
       cy="19.133223"
       rx="1.0877591"
       ry="1.2917138" />
    <ellipse
       ry="1.2917138"
       rx="1.0877591"
       cy="18.877789"
       cx="52.582031"
       id="ellipse1295"
       style="opacity:1;vector-effect:none;fill:#000000;fill-opacity:1;stroke:none;stroke-width:0.12232969;stroke-linecap:round;stroke-linejoin:round;stroke-miterlimit:4;stroke-dasharray:none;stroke-dashoffset:0;stroke-opacity:1" />
    <ellipse
       style="opacity:1;vector-effect:none;fill:#000000;fill-opacity:1;stroke:none;stroke-width:0.12232969;stroke-linecap:round;stroke-linejoin:round;stroke-miterlimit:4;stroke-dasharray:none;stroke-dashoffset:0;stroke-opacity:1"
       id="ellipse1297"
       cx="54.620159"
       cy="18.868254"
       rx="1.0877591"
       ry="1.2917138" />
    <ellipse
       ry="1.2917138"
       rx="1.0877591"
       cy="18.423653"
       cx="56.648655"
       id="ellipse1299"
       style="opacity:1;vector-effect:none;fill:#000000;fill-opacity:1;stroke:none;stroke-width:0.12232969;stroke-linecap:round;stroke-linejoin:round;stroke-miterlimit:4;stroke-dasharray:none;stroke-dashoffset:0;stroke-opacity:1" />
    <ellipse
       style="opacity:1;vector-effect:none;fill:#000000;fill-opacity:1;stroke:none;stroke-width:0.12232969;stroke-linecap:round;stroke-linejoin:round;stroke-miterlimit:4;stroke-dasharray:none;stroke-dashoffset:0;stroke-opacity:1"
       id="ellipse1301"
       cx="58.677151"
       cy="18.840467"
       rx="1.0877591"
       ry="1.2917138" />
    <ellipse
       ry="1.2917138"
       rx="1.0877591"
       cy="19.173918"
       cx="60.677856"
       id="ellipse1303"
       style="opacity:1;vector-effect:none;fill:#000000;fill-opacity:1;stroke:none;stroke-width:0.12232969;stroke-linecap:round;stroke-linejoin:round;stroke-miterlimit:4;stroke-dasharray:none;stroke-dashoffset:0;stroke-opacity:1" />
    <ellipse
       style="opacity:1;vector-effect:none;fill:#000000;fill-opacity:1;stroke:none;stroke-width:0.12232969;stroke-linecap:round;stroke-linejoin:round;stroke-miterlimit:4;stroke-dasharray:none;stroke-dashoffset:0;stroke-opacity:1"
       id="ellipse1305"
       cx="62.5952"
       cy="19.813032"
       rx="1.0877591"
       ry="1.2917138" />
    <ellipse
       ry="1.2917138"
       rx="1.0877591"
       cy="20.757811"
       cx="64.568115"
       id="ellipse1307"
       style="opacity:1;vector-effect:none;fill:#000000;fill-opacity:1;stroke:none;stroke-width:0.12232969;stroke-linecap:round;stroke-linejoin:round;stroke-miterlimit:4;stroke-dasharray:none;stroke-dashoffset:0;stroke-opacity:1" />
    <ellipse
       style="opacity:1;vector-effect:none;fill:#000000;fill-opacity:1;stroke:none;stroke-width:0.12232969;stroke-linecap:round;stroke-linejoin:round;stroke-miterlimit:4;stroke-dasharray:none;stroke-dashoffset:0;stroke-opacity:1"
       id="ellipse1309"
       cx="66.457672"
       cy="21.424713"
       rx="1.0877591"
       ry="1.2917138" />
    <ellipse
       ry="1.2917138"
       rx="1.0877591"
       cy="22.452854"
       cx="68.319443"
       id="ellipse1311"
       style="opacity:1;vector-effect:none;fill:#000000;fill-opacity:1;stroke:none;stroke-width:0.12232969;stroke-linecap:round;stroke-linejoin:round;stroke-miterlimit:4;stroke-dasharray:none;stroke-dashoffset:0;stroke-opacity:1" />
    <ellipse
       style="opacity:1;vector-effect:none;fill:#000000;fill-opacity:1;stroke:none;stroke-width:0.12232969;stroke-linecap:round;stroke-linejoin:round;stroke-miterlimit:4;stroke-dasharray:none;stroke-dashoffset:0;stroke-opacity:1"
       id="ellipse1313"
       cx="69.764397"
       cy="23.925596"
       rx="1.0877591"
       ry="1.2917138" />
    <ellipse
       ry="1.2917138"
       rx="1.0877591"
       cy="25.37055"
       cx="71.431656"
       id="ellipse1315"
       style="opacity:1;vector-effect:none;fill:#000000;fill-opacity:1;stroke:none;stroke-width:0.12232969;stroke-linecap:round;stroke-linejoin:round;stroke-miterlimit:4;stroke-dasharray:none;stroke-dashoffset:0;stroke-opacity:1" />
    <ellipse
       style="opacity:1;vector-effect:none;fill:#000000;fill-opacity:1;stroke:none;stroke-width:0.12232969;stroke-linecap:round;stroke-linejoin:round;stroke-miterlimit:4;stroke-dasharray:none;stroke-dashoffset:0;stroke-opacity:1"
       id="ellipse1317"
       cx="72.682098"
       cy="27.121168"
       rx="1.0877591"
       ry="1.2917138" />
    <ellipse
       ry="1.2917138"
       rx="1.0877591"
       cy="29.205238"
       cx="73.765816"
       id="ellipse1319"
       style="opacity:1;vector-effect:none;fill:#000000;fill-opacity:1;stroke:none;stroke-width:0.12232969;stroke-linecap:round;stroke-linejoin:round;stroke-miterlimit:4;stroke-dasharray:none;stroke-dashoffset:0;stroke-opacity:1" />
    <ellipse
       style="opacity:1;vector-effect:none;fill:#000000;fill-opacity:1;stroke:none;stroke-width:0.12232969;stroke-linecap:round;stroke-linejoin:round;stroke-miterlimit:4;stroke-dasharray:none;stroke-dashoffset:0;stroke-opacity:1"
       id="ellipse1321"
       cx="74.321571"
       cy="31.428246"
       rx="1.0877591"
       ry="1.2917138" />
    <ellipse
       ry="1.2917138"
       rx="1.0877591"
       cy="33.428951"
       cx="74.571663"
       id="ellipse1323"
       style="opacity:1;vector-effect:none;fill:#000000;fill-opacity:1;stroke:none;stroke-width:0.12232969;stroke-linecap:round;stroke-linejoin:round;stroke-miterlimit:4;stroke-dasharray:none;stroke-dashoffset:0;stroke-opacity:1" />
    <ellipse
       style="opacity:1;vector-effect:none;fill:#000000;fill-opacity:1;stroke:none;stroke-width:0.12232969;stroke-linecap:round;stroke-linejoin:round;stroke-miterlimit:4;stroke-dasharray:none;stroke-dashoffset:0;stroke-opacity:1"
       id="ellipse1325"
       cx="74.377151"
       cy="35.429657"
       rx="1.0877591"
       ry="1.2917138" />
    <ellipse
       ry="1.2917138"
       rx="1.0877591"
       cy="37.180275"
       cx="73.599098"
       id="ellipse1327"
       style="opacity:1;vector-effect:none;fill:#000000;fill-opacity:1;stroke:none;stroke-width:0.12232969;stroke-linecap:round;stroke-linejoin:round;stroke-miterlimit:4;stroke-dasharray:none;stroke-dashoffset:0;stroke-opacity:1" />
  </g>
  <g
     inkscape:groupmode="layer"
     id="layer4"
     inkscape:label="ignore"
     style="display:inline"
     sodipodi:insensitive="true">
    <g
       inkscape:groupmode="layer"
       id="layer5"
       inkscape:label="hair"
       style="display:none">
      <path
         inkscape:connector-curvature="0"
         style="display:inline;opacity:1;vector-effect:none;fill:#000000;fill-opacity:1;stroke:none;stroke-width:0.08186431;stroke-linecap:round;stroke-linejoin:round;stroke-miterlimit:4;stroke-dasharray:none;stroke-dashoffset:0;stroke-opacity:1"
         d="m 57.287696,14.623578 a 3.3307417,3.3307417 0 0 0 -1.63866,0.435632 3.3307417,3.3307417 0 0 0 -1.053166,-0.174149 3.3307417,3.3307417 0 0 0 -1.934766,0.624768 3.3307417,3.3307417 0 0 0 -1.504301,-0.363285 3.3307417,3.3307417 0 0 0 -2.852023,1.618506 3.3307417,3.3307417 0 0 0 -0.213424,-0.01085 3.3307417,3.3307417 0 0 0 -2.732648,1.428336 3.3307417,3.3307417 0 0 0 -0.01704,-5.29e-4 3.3307417,3.3307417 0 0 0 -3.232362,2.542997 3.3307417,3.3307417 0 0 0 -3.148645,3.008602 3.3307417,3.3307417 0 0 0 -1.915647,2.942456 3.3307417,3.3307417 0 0 0 -1.95957,3.031341 3.3307417,3.3307417 0 0 0 0.177768,1.0604 3.3307417,3.3307417 0 0 0 -1.235067,2.587437 3.3307417,3.3307417 0 0 0 0.256315,1.272792 3.3307417,3.3307417 0 0 0 -0.996323,2.375048 3.3307417,3.3307417 0 0 0 0.666629,1.994194 3.3307417,3.3307417 0 0 0 -0.03204,0.438216 3.3307417,3.3307417 0 0 0 0.855244,2.222087 3.3307417,3.3307417 0 0 0 -0.273883,1.3193 3.3307417,3.3307417 0 0 0 1.347721,2.671673 3.3307417,3.3307417 0 0 0 -0.02635,0.395324 3.3307417,3.3307417 0 0 0 2.383832,3.191018 3.3307417,3.3307417 0 0 0 3.064415,3.193087 3.3307417,3.3307417 0 0 0 2.603458,2.438096 3.3307417,3.3307417 0 0 0 2.733683,1.43402 3.3307417,3.3307417 0 0 0 0.622184,-0.06098 3.3307417,3.3307417 0 0 0 2.391587,1.012856 3.3307417,3.3307417 0 0 0 2.111497,-0.757057 19.625383,19.675965 0 0 0 3.025656,0.248563 19.625383,19.675965 0 0 0 2.200383,-0.147794 19.625383,19.675965 0 0 0 0.93586,0.04702 19.625383,19.675965 0 0 0 2.022616,-0.108003 3.3307417,3.3307417 0 0 0 2.525942,1.162201 3.3307417,3.3307417 0 0 0 2.584855,-1.233514 3.3307417,3.3307417 0 0 0 2.355929,-0.984954 3.3307417,3.3307417 0 0 0 0.55501,0.05013 3.3307417,3.3307417 0 0 0 2.8236,-1.571996 3.3307417,3.3307417 0 0 0 2.59364,-2.737302 3.3307417,3.3307417 0 0 0 2.38383,-2.639116 3.3307417,3.3307417 0 0 0 1.54822,-2.812229 3.3307417,3.3307417 0 0 0 -0.0408,-0.502812 3.3307417,3.3307417 0 0 0 0.78859,-2.15129 3.3307417,3.3307417 0 0 0 -0.06,-0.618051 3.3307417,3.3307417 0 0 0 0.99425,-2.372982 3.3307417,3.3307417 0 0 0 -0.33641,-1.453142 3.3307417,3.3307417 0 0 0 0.18707,-1.088821 3.3307417,3.3307417 0 0 0 -0.3483,-1.480532 3.3307417,3.3307417 0 0 0 0.42323,-1.622639 3.3307417,3.3307417 0 0 0 -0.73484,-2.084626 3.3307417,3.3307417 0 0 0 0.0243,-0.382407 3.3307417,3.3307417 0 0 0 -0.86248,-2.230872 3.3307417,3.3307417 0 0 0 0.003,-0.04961 3.3307417,3.3307417 0 0 0 -0.63717,-1.952334 3.3307417,3.3307417 0 0 0 -1.98537,-2.999815 3.3307417,3.3307417 0 0 0 -2.89956,-3.133142 3.3307417,3.3307417 0 0 0 -2.63447,-2.121834 3.3307417,3.3307417 0 0 0 -2.821011,-1.9358 3.3307417,3.3307417 0 0 0 -2.89543,-1.69292 3.3307417,3.3307417 0 0 0 -1.008208,0.160714 3.3307417,3.3307417 0 0 0 -2.43086,-1.057816 3.3307417,3.3307417 0 0 0 -0.954982,0.142627 3.3307417,3.3307417 0 0 0 -1.774049,-0.516248 z"
         id="path774" />
    </g>
    <g
       inkscape:label="bg"
       inkscape:groupmode="layer"
       id="layer1"
       style="display:inline">
      <path
         style="opacity:1;vector-effect:none;fill:#fff6d5;fill-opacity:1;stroke:#000000;stroke-width:0.1;stroke-linecap:round;stroke-linejoin:round;stroke-miterlimit:4;stroke-dasharray:none;stroke-dashoffset:0;stroke-opacity:1"
         d="m 235.83203,229.4043 c -1.6728,0.46339 -3.3024,0.85916 -4.85937,1.17578 -2.55787,2.08659 -10.17503,3.59955 -19.17578,3.59961 -9.00077,-6e-5 -16.61792,-1.51302 -19.17579,-3.59961 -1.55625,-0.31648 -3.18544,-0.71072 -4.85742,-1.17383 v 19.65039 c -37.73053,4.53056 -63.99077,19.86474 -64.04297,37.39648 0.0166,0.39799 0.0452,0.7958 0.0899,1.19336 h -0.0899 v 125.35743 h 80.49219 7.58399 7.58398 80.49219 V 287.64648 h -0.0898 c 0.0446,-0.39756 0.0713,-0.79537 0.0898,-1.19336 -0.0522,-17.53174 -26.3105,-32.86592 -64.04102,-37.39648 z"
         transform="scale(0.26458333)"
         id="rect23540"
         inkscape:connector-curvature="0" />
      <path
         style="opacity:1;vector-effect:none;fill:#fff6d5;fill-opacity:1;stroke:#000000;stroke-width:1;stroke-linecap:round;stroke-linejoin:round;stroke-miterlimit:4;stroke-dasharray:none;stroke-dashoffset:0;stroke-opacity:1"
         d="m 202.32812,86.9375 c -15.79511,0 -57.01953,12.335362 -57.01953,50.80664 v 10.58398 c -3.559,0.0833 -6.42026,3.017 -6.41992,9.00391 3.5e-4,5.98613 2.86137,12.7695 6.41992,12.96485 v 10.59179 c 0,31.8402 28.62946,45.89206 47.3125,49.69141 2.55787,2.08659 10.17502,3.59955 19.17579,3.59961 9.00076,-6e-5 16.61791,-1.51302 19.17578,-3.59961 18.68304,-3.79935 47.3125,-17.85121 47.3125,-49.69141 v -10.59179 c 3.55876,-0.19481 6.42152,-6.97847 6.42187,-12.96485 3.5e-4,-5.98716 -2.86266,-8.9208 -6.42187,-9.00391 v -10.58398 c 0,-38.471278 -41.22246,-50.80664 -57.01758,-50.80664 h -9.4707 z"
         transform="scale(0.26458333)"
         id="rect23538"
         inkscape:connector-curvature="0" />
      <path
         inkscape:connector-curvature="0"
         style="opacity:1;vector-effect:none;fill:#ffffff;fill-opacity:1;stroke:none;stroke-width:0.07357386;stroke-linecap:round;stroke-linejoin:round;stroke-miterlimit:4;stroke-dasharray:none;stroke-dashoffset:0;stroke-opacity:1"
         d="M 0.47805685,0.47804646 V 111.59788 H 111.59789 V 0.47804646 Z M 56.037975,2.7678295 A 53.270417,53.270417 0 0 1 109.30863,56.037972 53.270417,53.270417 0 0 1 56.037975,109.30862 53.270417,53.270417 0 0 1 2.7678399,56.037972 53.270417,53.270417 0 0 1 56.037975,2.7678295 Z"
         id="rect855"
         inkscape:label="frame" />
    </g>
    <g
       style="display:inline"
       id="g2778"
       inkscape:groupmode="layer"
       inkscape:label="_ear_size">
      <path
         sodipodi:nodetypes="csssc"
         inkscape:label="ear_left"
         id="path2774"
         d="m 38.334661,38.854136 c -0.349442,-0.222897 -0.713749,-0.351469 -1.058139,-0.351542 -1.299026,-2.77e-4 -2.352284,1.231722 -2.352159,3.054574 1.27e-4,1.822603 1.053312,4.245964 2.352159,4.245687 0.361348,-7.7e-5 0.744637,-0.141627 1.109678,-0.385173"
         style="opacity:1;vector-effect:none;fill:none;fill-opacity:1;stroke:#000000;stroke-width:0.13229167;stroke-linecap:round;stroke-linejoin:round;stroke-miterlimit:4;stroke-dasharray:none;stroke-dashoffset:0;stroke-opacity:1"
         inkscape:connector-curvature="0" />
      <path
         inkscape:connector-curvature="0"
         style="opacity:1;vector-effect:none;fill:none;fill-opacity:1;stroke:#000000;stroke-width:0.13229167;stroke-linecap:round;stroke-linejoin:round;stroke-miterlimit:4;stroke-dasharray:none;stroke-dashoffset:0;stroke-opacity:1"
         d="m 73.563785,38.97637 c 0.401969,-0.297488 0.832449,-0.47369 1.235632,-0.473776 1.299026,-2.77e-4 2.352284,1.231722 2.352159,3.054574 -1.27e-4,1.822603 -1.053312,4.245964 -2.352159,4.245687 -0.396324,-8.5e-5 -0.819042,-0.170355 -1.21513,-0.458724"
         id="path2776"
         inkscape:label="ear_right"
         sodipodi:nodetypes="csssc" />
    </g>
    <g
       inkscape:groupmode="layer"
       id="layer2"
       inkscape:label="_cheek_low"
       style="display:inline">
      <path
         style="opacity:1;vector-effect:none;fill:none;fill-opacity:1;stroke:#000000;stroke-width:0.5;stroke-linecap:round;stroke-linejoin:round;stroke-miterlimit:4;stroke-dasharray:none;stroke-dashoffset:0;stroke-opacity:1"
         d="m 202.32812,86.9375 c -15.7951,0 -57.01953,12.335363 -57.01953,50.80664 0,5.46031 0.2884,10.20841 0.77539,14.41016 -0.2651,0.007 -0.52928,0.0304 -0.79101,0.0898 -3.5418,0.80423 -5.7631,4.32211 -4.41602,10.24609 1.3469,5.92317 5.75012,12.00709 9.29102,11.20118 0.42589,-0.0969 0.82473,-0.26411 1.19726,-0.48829 2.50227,6.12174 5.18386,10.67648 6.7793,15.9004 9.15599,29.97926 25.51723,38.89898 38.0957,41.51953 3.04539,1.73563 8.86645,2.91208 15.55665,2.91211 6.69018,-3e-5 12.51125,-1.17648 15.55664,-2.91211 12.57903,-2.62055 28.94168,-11.54027 38.09765,-41.51953 1.58467,-5.18862 4.24316,-9.71213 6.73047,-15.77149 0.30073,0.15457 0.61228,0.28358 0.94531,0.35938 3.5409,0.80591 7.94412,-5.27801 9.29102,-11.20118 1.34708,-5.92398 -0.87422,-9.44186 -4.41602,-10.24609 -0.16376,-0.0372 -0.32887,-0.054 -0.49414,-0.0703 0.48828,-4.2065 0.77735,-8.96098 0.77735,-14.42969 0,-38.471277 -41.22244,-50.80664 -57.01758,-50.80664 h -9.4707 z"
         transform="scale(0.26458333)"
         id="rect23538-3"
         inkscape:connector-curvature="0" />
    </g>
    <g
       inkscape:groupmode="layer"
       id="layer3"
       inkscape:label="_cheek_high"
       style="display:inline">
      <path
         style="opacity:1;vector-effect:none;fill:none;fill-opacity:1;stroke:#ffffff;stroke-width:0.5;stroke-linecap:round;stroke-linejoin:round;stroke-miterlimit:4;stroke-dasharray:none;stroke-dashoffset:0;stroke-opacity:1"
         d="m 202.32812,86.9375 c -15.7951,0 -57.01953,12.335363 -57.01953,50.80664 0,1.38786 0.11165,4.68722 -0.16211,9.0293 -3.14184,-0.50671 -6.34888,1.50167 -8.08789,6.70508 -1.92541,5.76115 -1.32333,13.24608 2.1211,14.39648 0.46979,0.1569 0.95798,0.2169 1.45312,0.19922 -0.28148,0.70751 -0.56688,1.41501 -0.88281,2.11914 -15.10484,33.66545 7.0226,55.14848 44.32422,60.29297 2.25899,3.26438 18.0103,5.26168 27.72266,5.26172 9.68698,-4e-5 24.26231,-2.25274 27.63867,-5.25 37.35387,-5.1232 59.52471,-26.61325 44.4082,-60.30469 -0.31619,-0.70473 -0.60308,-1.41298 -0.88477,-2.12109 0.49587,0.0179 0.98463,-0.0401 1.45508,-0.19727 3.44443,-1.1504 4.04651,-8.63533 2.1211,-14.39648 -1.73917,-5.20388 -4.94577,-7.2123 -8.08789,-6.70508 -0.27376,-4.34217 -0.16211,-7.64144 -0.16211,-9.0293 0,-38.471277 -41.22248,-50.80664 -57.01758,-50.80664 h -9.4707 z"
         transform="scale(0.26458333)"
         id="rect23538-6"
         inkscape:connector-curvature="0" />
    </g>
    <g
       style="display:inline"
       id="g2830"
       inkscape:groupmode="layer"
       inkscape:label="_chin">
      <path
         inkscape:label="chin"
         inkscape:connector-curvature="0"
         sodipodi:nodetypes="ccc"
         id="path2822"
         d="m 50.721419,60.269043 c -3e-6,1.02472 2.876644,3.793327 5.31654,2.384653 2.56882,1.483109 5.316538,-1.359933 5.316535,-2.384653"
         style="opacity:1;vector-effect:none;fill:none;fill-opacity:1;stroke:#000000;stroke-width:0.13229167;stroke-linecap:round;stroke-linejoin:round;stroke-miterlimit:4;stroke-dasharray:none;stroke-dashoffset:0;stroke-opacity:1" />
      <path
         inkscape:label="frame"
         id="path2824"
         d="M 0.47805685,0.47804646 V 111.59788 H 111.59789 V 0.47804646 Z M 56.037975,2.7678295 A 53.270417,53.270417 0 0 1 109.30863,56.037972 53.270417,53.270417 0 0 1 56.037975,109.30862 53.270417,53.270417 0 0 1 2.7678399,56.037972 53.270417,53.270417 0 0 1 56.037975,2.7678295 Z"
         style="opacity:1;vector-effect:none;fill:#000000;fill-opacity:1;stroke:none;stroke-width:0.07357386;stroke-linecap:round;stroke-linejoin:round;stroke-miterlimit:4;stroke-dasharray:none;stroke-dashoffset:0;stroke-opacity:1"
         inkscape:connector-curvature="0" />
    </g>
    <g
       style="display:inline"
       inkscape:label="fhair"
       id="g778"
       inkscape:groupmode="layer">
      <path
         style="opacity:0.5;vector-effect:none;fill:#000000;fill-opacity:1;stroke:none;stroke-width:0.1;stroke-linecap:round;stroke-linejoin:round;stroke-miterlimit:4;stroke-dasharray:none;stroke-dashoffset:0;stroke-opacity:1"
         d="m 58.861007,21.205424 -7.009392,0.227376 -5.891115,1.11156 -2.667537,1.722892 -4.556826,4.501534 -1.778704,3.779096 -0.129476,3.191322 0.54641,3.505658 c 1.14455,-0.110948 2.36833,0.332714 3.584373,0.722207 -0.62059,-1.185603 -1.71941,-2.371286 -1.861386,-3.556889 1.021713,0.102653 1.759694,1.055918 2.639632,1.583883 l -1.528588,-3.05666 0.861446,0.444934 -0.138493,-0.722437 1.500166,0.805635 -3.334163,-3.946011 2.583823,2.445326 c -0.231563,-0.583538 -0.853546,-1.166741 -0.694531,-1.750279 0.228846,-0.07554 0.644615,0.160509 0.97255,0.250113 l -0.0832,-1.000456 2.028301,0.916742 c -0.270586,-0.763275 -0.804407,-1.614231 -0.777729,-2.278414 1.204267,0.04002 1.704279,0.667004 2.556433,1.000455 l -1.056267,-1.945103 0.889352,0.0553 c -0.05933,-0.456015 -0.344527,-1.041059 -0.166915,-1.361676 l 2.223119,1.056267 -0.361217,-1.973006 c 0.297064,-0.145991 0.739444,0.191929 1.139465,0.389123 0.03144,-0.566253 0.429125,-0.666385 0.861446,-0.722434 l 2.86184,2.278412 c -0.05795,-0.75029 -0.348777,-1.604217 -0.111104,-2.22312 0.87994,-0.105931 1.760209,0.759701 2.64015,1.139466 0.193278,-0.56519 0.143637,-1.165011 0.583425,-1.694987 1.065223,-1.21e-4 1.871032,1.037275 2.806549,1.555977 l 0.61133,-3.389974 0.583427,-0.250113 0.750343,-0.111105 -0.639239,2.0283 1.528072,-0.500228 -0.444415,1.722891 1.58388,-0.166912 0.166915,0.750339 0.805638,0.36122 -1.945103,1.806607 c 1.787668,-0.592802 3.300561,-1.735405 5.362983,-1.778701 0.02633,0.795843 -0.442013,1.344485 -0.694532,2.000911 l 4.112409,-2.000911 -0.583425,1.528588 1.250569,-0.305925 -0.222211,1.028361 c 0.398291,0.09263 0.740384,-0.09556 1.194761,0.277503 0.159702,0.438214 -0.07285,0.778643 -0.111104,1.167371 l 2.306317,2.056204 1.977658,-1.703255 -0.393775,-0.297656 -4.168219,-5.835303 -3.334681,-2.611727 -2.967778,-1.850016 z"
         id="path1164"
         inkscape:connector-curvature="0"
         sodipodi:nodetypes="cccccccccccccccccccccccccccccccccccccccccccccccccccccccccccc"
         inkscape:label="back"
         class="hair" />
      <path
         style="opacity:1;vector-effect:none;fill:#000000;fill-opacity:1;stroke:none;stroke-width:0.5;stroke-linecap:round;stroke-linejoin:round;stroke-miterlimit:4;stroke-dasharray:none;stroke-dashoffset:0;stroke-opacity:1"
         d="m 54.061814,21.741308 -0.667657,0.13746 a 0.25002499,0.25002499 0 0 0 -0.134877,0.412378 c 2.357213,2.607274 3.873447,5.445543 5.103048,8.378301 a 0.25002499,0.25002499 0 0 0 0.477491,-0.133843 c -0.449771,-2.978295 -0.424614,-6.216379 -2.287717,-8.794296 h -0.514178 z m 5.134573,0.01344 c 0.08634,0.509786 0.02906,0.891846 -0.09199,1.234033 -0.152773,0.431764 -0.42197,0.807909 -0.655256,1.260905 a 0.25002499,0.25002499 0 0 0 0.37982,0.307992 c 0.874133,-0.710442 1.950963,-1.389695 2.280999,-2.437577 a 0.25002499,0.25002499 0 0 0 0.0047,-0.132292 c -0.705752,-0.128468 -1.354828,-0.204923 -1.918229,-0.233061 z m -6.355686,0.0026 c -0.448593,0.02394 -0.948279,0.07669 -1.488797,0.162781 0.115613,0.09 0.230521,0.183614 0.344681,0.281119 l -2.077392,0.761194 c -0.05332,-0.101996 -0.128913,-0.202424 -0.178284,-0.304374 -0.04742,-0.09793 -0.08868,-0.195456 -0.131776,-0.293005 -0.360301,0.09782 -0.727554,0.207002 -1.100706,0.330212 0.315473,0.498434 0.684958,0.980021 1.07487,1.44539 -0.398243,-0.465927 -0.793877,-0.932307 -1.272276,-1.37821 -0.894908,0.305101 -1.813859,0.684893 -2.721795,1.147217 0.857208,1.566634 2.326529,2.964103 3.416845,4.195093 a 0.25002499,0.25002499 0 0 0 0.383439,-0.320394 c -0.495225,-0.630521 -0.972047,-1.302478 -1.416452,-1.985926 1.949051,1.689031 3.738092,3.47327 5.284433,5.402255 a 0.25002499,0.25002499 0 0 0 0.418063,-0.269235 c -1.015159,-2.009751 -1.964955,-4.065662 -3.425632,-5.999634 0.494178,0.54542 0.987769,1.068985 1.423686,1.561145 a 0.25002499,0.25002499 0 0 0 0.38344,-0.320394 c -0.525603,-0.669191 -1.028782,-1.385061 -1.493968,-2.112015 2.29793,1.833718 3.963871,3.977356 5.117518,6.384623 a 0.25002499,0.25002499 0 0 0 0.471289,-0.153996 c -0.455596,-2.431184 -1.421781,-4.582158 -2.663404,-6.572725 0.535712,0.642839 1.049285,1.316647 1.516187,1.995227 a 0.25002499,0.25002499 0 0 0 0.420129,-0.270785 c -0.680815,-1.126595 -1.391907,-2.516096 -2.284098,-3.685563 z m 8.433078,0.258899 c -0.712213,1.466953 -1.595818,2.911176 -2.525945,4.352706 a 0.25002499,0.25002499 0 0 0 0.378272,0.32091 c 1.1136,-1.007325 2.138034,-2.030285 3.051492,-3.073197 -0.632915,1.332989 -1.559134,2.588894 -2.612241,3.816822 a 0.25002499,0.25002499 0 0 0 0.256315,0.403593 c 1.662237,-0.461611 2.663626,-1.310995 3.588411,-2.174028 -0.515022,0.653165 -1.057108,1.299334 -1.615924,1.941999 a 0.25002499,0.25002499 0 0 0 0.328147,0.371038 c 1.015124,-0.683556 1.944341,-1.395179 2.8174,-2.125969 -1.577899,1.530231 -3.336679,2.964794 -5.163511,4.367175 a 0.25002499,0.25002499 0 0 0 0.248047,0.429432 c 3.54942,-1.468403 6.730484,-3.143953 9.342583,-5.142839 -1.33209,-0.992484 -2.786065,-1.763732 -4.216797,-2.339909 -0.09184,0.150512 -0.183848,0.300981 -0.279053,0.450619 l -1.503267,-1.076937 c -0.729777,-0.221344 -1.435579,-0.395574 -2.093929,-0.521415 z m -16.159736,2.306836 a 0.25002499,0.25002499 0 0 0 -0.138494,0.05064 l -1.258837,0.957564 c -0.04891,-0.148613 -0.08842,-0.295629 -0.128675,-0.442867 -0.814953,0.530271 -1.597289,1.13645 -2.31717,1.824695 0.07478,0.262194 0.178202,0.513196 0.288869,0.761193 a 0.25002499,0.25002499 0 0 0 -0.389123,-0.01137 l -0.753443,0.882632 -10e-4,5.18e-4 a 0.25002499,0.25002499 0 0 0 -0.172601,0.152961 c -0.05209,-0.177641 -0.09729,-0.353877 -0.135908,-0.529167 -0.343464,0.421969 -0.663565,0.868299 -0.955498,1.341004 0.850096,1.599626 2.353641,3.023396 3.462838,4.275709 A 0.25002499,0.25002499 0 0 0 42.99844,33.2662 c -0.861864,-1.097322 -1.732957,-2.310235 -2.316136,-3.514513 -0.0038,-0.0079 -0.0045,-0.01538 -0.0083,-0.02325 1.038598,1.897192 3.344963,3.236568 5.020363,4.446238 a 0.25002499,0.25002499 0 0 0 0.304376,-0.396356 C 44.917717,32.896135 43.802014,31.903135 42.969471,30.85548 42.136925,29.807826 41.596137,28.714872 41.610896,27.628805 a 0.25002499,0.25002499 0 0 0 -5.16e-4,-0.01654 c 1.177237,2.46303 4.159332,4.177686 6.305558,5.727298 a 0.25002499,0.25002499 0 0 0 0.304374,-0.396356 c -1.32483,-1.081085 -2.693337,-2.298145 -3.718637,-3.58583 -0.685411,-0.860819 -1.190485,-1.750015 -1.461926,-2.647383 0.865121,1.285666 2.048912,2.452457 2.974496,3.497461 a 0.25002499,0.25002499 0 0 0 0.38344,-0.320395 c -0.861862,-1.097312 -1.732952,-2.310103 -2.316139,-3.514513 -0.01821,-0.0376 -0.02113,-0.07355 -0.03876,-0.111104 2.185971,2.085747 4.256831,3.899437 6.040458,6.047692 a 0.25002499,0.25002499 0 0 0 0.417029,-0.269234 C 49.250951,29.477713 47.077378,27.462133 45.343484,24.44812 a 0.25002499,0.25002499 0 0 0 -0.229441,-0.125057 z m 25.071337,1.830379 c -0.08692,0.07657 -0.172641,0.151026 -0.264068,0.236678 -1.251614,1.115257 -3.559468,2.753686 -4.957836,3.827156 a 0.25002499,0.25002499 0 0 0 0.248047,0.429432 c 1.303038,-0.53907 2.932951,-1.340278 4.365625,-2.07636 -0.339908,0.411869 -0.6687,0.826786 -1.02371,1.235067 a 0.25002499,0.25002499 0 0 0 0.328144,0.371036 c 1.088871,-0.733213 2.104292,-1.490467 3.028241,-2.278412 -0.526897,-0.63813 -1.107575,-1.217967 -1.724443,-1.744597 z m 1.92288,1.997812 c -1.12641,0.976185 -2.314921,1.920036 -3.528983,2.85202 a 0.25002499,0.25002499 0 0 0 0.248047,0.429432 c 1.471808,-0.608891 2.872483,-1.257546 4.201808,-1.946651 -0.279964,-0.470664 -0.589944,-0.913365 -0.920872,-1.334801 z m -32.943209,1.534273 a 0.25002499,0.25002499 0 0 0 -0.229444,0.19947 l -0.172083,0.83199 c -0.04275,-0.178361 -0.07642,-0.355386 -0.102835,-0.530717 -0.286957,0.563689 -0.535959,1.159803 -0.738458,1.791107 0.05978,0.103246 0.121076,0.20582 0.184486,0.307991 a 0.25002499,0.25002499 0 0 0 -0.0047,0.01757 l -0.33383,1.611273 a 0.25002499,0.25002499 0 0 0 0.03204,0.181383 c 1.202716,1.957882 2.925844,3.438326 4.604885,4.919596 a 0.25002499,0.25002499 0 0 0 0.356052,-0.349332 c -1.118126,-1.317421 -2.116161,-2.706746 -2.986381,-4.173905 0.508072,0.562559 1.016151,1.103511 1.464509,1.609722 a 0.25002499,0.25002499 0 0 0 0.383439,-0.320394 c -0.55803,-0.710481 -1.087803,-1.473772 -1.57303,-2.247408 0.98021,1.106543 2.087002,2.091743 3.188954,3.063896 a 0.25002499,0.25002499 0 0 0 0.35605,-0.349335 C 41.92153,34.276958 40.488758,32.1614 39.407414,29.83022 a 0.25002499,0.25002499 0 0 0 -0.242363,-0.144693 z m 33.987588,0.0124 c -0.870296,0.736211 -1.763199,1.460598 -2.687174,2.169893 a 0.25002499,0.25002499 0 0 0 0.248047,0.429432 C 71.765455,31.86208 72.781297,31.40646 73.763456,30.93198 73.580844,30.503146 73.37645,30.091986 73.152639,29.697947 Z M 37.433374,34.15039 c -0.08232,0.607753 -0.12609,1.241986 -0.12609,1.903759 v 0.656291 c 1.078402,1.33272 2.37798,2.457307 3.652488,3.581694 a 0.25002499,0.25002499 0 0 0 0.356053,-0.349335 c -1.521802,-1.793041 -2.8419,-3.707283 -3.882451,-5.792409 z"
         id="path1074"
         inkscape:connector-curvature="0"
         inkscape:label="braids"
         class="hair" />
    </g>
  </g>
</svg>
